<svg width="21" height="20" viewBox="0 0 21 20" fill="none" xmlns="http://www.w3.org/2000/svg">
    <path d="M10.5003 12.5003C11.881 12.5003 13.0003 11.381 13.0003 10.0003C13.0003 8.61961 11.881 7.50033 10.5003 7.50033C9.11961 7.50033 8.00033 8.61961 8.00033 10.0003C8.00033 11.381 9.11961 12.5003 10.5003 12.5003Z" stroke="#E1E7EC" stroke-linecap="round" stroke-linejoin="round"/>
    <path d="M16.1064 12.2731C16.0055 12.5016 15.9755 12.755 16.02 13.0008C16.0646 13.2465 16.1817 13.4733 16.3564 13.6518L16.4018 13.6973C16.5427 13.838 16.6545 14.0051 16.7307 14.1891C16.807 14.373 16.8462 14.5702 16.8462 14.7693C16.8462 14.9684 16.807 15.1655 16.7307 15.3495C16.6545 15.5334 16.5427 15.7005 16.4018 15.8412C16.2611 15.9821 16.094 16.0939 15.9101 16.1701C15.7261 16.2464 15.529 16.2856 15.3299 16.2856C15.1308 16.2856 14.9336 16.2464 14.7497 16.1701C14.5657 16.0939 14.3986 15.9821 14.2579 15.8412L14.2124 15.7958C14.0339 15.6211 13.8071 15.504 13.5614 15.4594C13.3156 15.4149 13.0622 15.4449 12.8337 15.5458C12.6096 15.6418 12.4185 15.8013 12.2839 16.0045C12.1493 16.2078 12.0771 16.4459 12.0761 16.6897V16.8185C12.0761 17.2204 11.9165 17.6057 11.6323 17.8899C11.3482 18.174 10.9628 18.3337 10.5609 18.3337C10.1591 18.3337 9.7737 18.174 9.48956 17.8899C9.20541 17.6057 9.04578 17.2204 9.04578 16.8185V16.7503C9.03991 16.4996 8.95875 16.2564 8.81283 16.0524C8.66692 15.8484 8.463 15.693 8.2276 15.6064C7.9991 15.5055 7.74563 15.4755 7.49988 15.52C7.25413 15.5646 7.02736 15.6817 6.84881 15.8564L6.80336 15.9018C6.66264 16.0427 6.49554 16.1545 6.3116 16.2307C6.12766 16.307 5.9305 16.3462 5.73139 16.3462C5.53227 16.3462 5.33511 16.307 5.15117 16.2307C4.96724 16.1545 4.80013 16.0427 4.65942 15.9018C4.51854 15.7611 4.40679 15.594 4.33054 15.4101C4.25429 15.2261 4.21504 15.029 4.21504 14.8299C4.21504 14.6308 4.25429 14.4336 4.33054 14.2497C4.40679 14.0657 4.51854 13.8986 4.65942 13.7579L4.70487 13.7124C4.87952 13.5339 4.99668 13.3071 5.04124 13.0614C5.0858 12.8156 5.05572 12.5622 4.95487 12.3337C4.85884 12.1096 4.69938 11.9185 4.49613 11.7839C4.29288 11.6493 4.05471 11.5771 3.81093 11.5761H3.68214C3.2803 11.5761 2.89492 11.4165 2.61077 11.1323C2.32662 10.8482 2.16699 10.4628 2.16699 10.0609C2.16699 9.65909 2.32662 9.2737 2.61077 8.98956C2.89492 8.70541 3.2803 8.54578 3.68214 8.54578H3.75033C4.00108 8.53991 4.24427 8.45875 4.44828 8.31283C4.65229 8.16692 4.80769 7.963 4.89427 7.7276C4.99511 7.4991 5.02519 7.24563 4.98063 6.99988C4.93607 6.75413 4.81891 6.52736 4.64427 6.34881L4.59881 6.30336C4.45794 6.16264 4.34618 5.99554 4.26993 5.8116C4.19368 5.62766 4.15444 5.4305 4.15444 5.23139C4.15444 5.03227 4.19368 4.83511 4.26993 4.65117C4.34618 4.46724 4.45794 4.30013 4.59881 4.15942C4.73953 4.01854 4.90663 3.90679 5.09057 3.83054C5.2745 3.75429 5.47167 3.71504 5.67078 3.71504C5.86989 3.71504 6.06706 3.75429 6.25099 3.83054C6.43493 3.90679 6.60203 4.01854 6.74275 4.15942L6.7882 4.20487C6.96675 4.37952 7.19352 4.49668 7.43927 4.54124C7.68503 4.5858 7.9385 4.55572 8.16699 4.45487H8.2276C8.45167 4.35884 8.64276 4.19938 8.77737 3.99613C8.91197 3.79288 8.9842 3.55471 8.98517 3.31093V3.18214C8.98517 2.7803 9.14481 2.39492 9.42895 2.11077C9.7131 1.82662 10.0985 1.66699 10.5003 1.66699C10.9022 1.66699 11.2876 1.82662 11.5717 2.11077C11.8558 2.39492 12.0155 2.7803 12.0155 3.18214V3.25033C12.0164 3.4941 12.0887 3.73228 12.2233 3.93553C12.3579 4.13878 12.549 4.29823 12.7731 4.39427C13.0016 4.49511 13.255 4.52519 13.5008 4.48063C13.7465 4.43607 13.9733 4.31891 14.1518 4.14427L14.1973 4.09881C14.338 3.95794 14.5051 3.84618 14.6891 3.76993C14.873 3.69368 15.0702 3.65444 15.2693 3.65444C15.4684 3.65444 15.6655 3.69368 15.8495 3.76993C16.0334 3.84618 16.2005 3.95794 16.3412 4.09881C16.4821 4.23953 16.5939 4.40663 16.6701 4.59057C16.7464 4.7745 16.7856 4.97167 16.7856 5.17078C16.7856 5.36989 16.7464 5.56706 16.6701 5.75099C16.5939 5.93493 16.4821 6.10203 16.3412 6.24275L16.2958 6.2882C16.1211 6.46675 16.004 6.69352 15.9594 6.93927C15.9149 7.18503 15.9449 7.4385 16.0458 7.66699V7.7276C16.1418 7.95167 16.3013 8.14276 16.5045 8.27737C16.7078 8.41197 16.9459 8.4842 17.1897 8.48517H17.3185C17.7204 8.48517 18.1057 8.64481 18.3899 8.92895C18.674 9.2131 18.8337 9.59848 18.8337 10.0003C18.8337 10.4022 18.674 10.7876 18.3899 11.0717C18.1057 11.3558 17.7204 11.5155 17.3185 11.5155H17.2503C17.0065 11.5164 16.7684 11.5887 16.5651 11.7233C16.3619 11.8579 16.2024 12.049 16.1064 12.2731Z" stroke="#E1E7EC" stroke-linecap="round" stroke-linejoin="round"/>
    </svg>
    