<svg width="182" height="164" viewBox="0 0 182 164" fill="none" xmlns="http://www.w3.org/2000/svg">
<g clip-path="url(#clip0_3062_76917)">
<rect x="2.5835" y="2.53906" width="176.768" height="333.333" rx="15.1015" fill="#F2F1F6"/>
<g clip-path="url(#clip1_3062_76917)">
<path d="M14.3789 144.405V142.73H22.2715V144.405H19.3294V152.34H17.321V144.405H14.3789ZM25.6129 152.481C24.884 152.481 24.2537 152.326 23.7219 152.016C23.1932 151.703 22.785 151.268 22.4972 150.712C22.2094 150.152 22.0655 149.503 22.0655 148.764C22.0655 148.02 22.2094 147.369 22.4972 146.812C22.785 146.252 23.1932 145.817 23.7219 145.508C24.2537 145.195 24.884 145.038 25.6129 145.038C26.3418 145.038 26.9706 145.195 27.4993 145.508C28.0311 145.817 28.4409 146.252 28.7287 146.812C29.0165 147.369 29.1604 148.02 29.1604 148.764C29.1604 149.503 29.0165 150.152 28.7287 150.712C28.4409 151.268 28.0311 151.703 27.4993 152.016C26.9706 152.326 26.3418 152.481 25.6129 152.481ZM25.6223 150.932C25.9539 150.932 26.2307 150.838 26.4529 150.651C26.675 150.46 26.8423 150.2 26.9549 149.872C27.0707 149.543 27.1286 149.169 27.1286 148.75C27.1286 148.331 27.0707 147.957 26.9549 147.629C26.8423 147.3 26.675 147.041 26.4529 146.85C26.2307 146.659 25.9539 146.564 25.6223 146.564C25.2876 146.564 25.006 146.659 24.7777 146.85C24.5524 147.041 24.3819 147.3 24.2662 147.629C24.1536 147.957 24.0973 148.331 24.0973 148.75C24.0973 149.169 24.1536 149.543 24.2662 149.872C24.3819 150.2 24.5524 150.46 24.7777 150.651C25.006 150.838 25.2876 150.932 25.6223 150.932ZM32.9839 152.457C32.4365 152.457 31.9406 152.316 31.4964 152.035C31.0553 151.75 30.705 151.333 30.4453 150.782C30.1888 150.228 30.0606 149.549 30.0606 148.745C30.0606 147.92 30.1935 147.233 30.4594 146.686C30.7253 146.135 31.0788 145.724 31.5199 145.451C31.9641 145.176 32.4505 145.038 32.9792 145.038C33.3828 145.038 33.7191 145.107 33.9881 145.245C34.2602 145.379 34.4792 145.548 34.645 145.752C34.8139 145.952 34.9422 146.149 35.0298 146.343H35.0908V142.73H37.0851V152.34H35.1143V151.186H35.0298C34.936 151.386 34.803 151.584 34.6309 151.781C34.462 151.975 34.2415 152.137 33.9693 152.265C33.7003 152.393 33.3718 152.457 32.9839 152.457ZM33.6174 150.866C33.9396 150.866 34.2118 150.779 34.4339 150.604C34.6591 150.425 34.8312 150.177 34.95 149.858C35.072 149.538 35.133 149.165 35.133 148.736C35.133 148.308 35.0736 147.935 34.9547 147.619C34.8358 147.303 34.6638 147.059 34.4386 146.887C34.2133 146.715 33.9396 146.629 33.6174 146.629C33.2889 146.629 33.0121 146.718 32.7868 146.897C32.5616 147.075 32.3911 147.322 32.2754 147.638C32.1596 147.954 32.1017 148.32 32.1017 148.736C32.1017 149.155 32.1596 149.526 32.2754 149.848C32.3942 150.167 32.5647 150.418 32.7868 150.599C33.0121 150.777 33.2889 150.866 33.6174 150.866ZM40.6517 152.476C40.1919 152.476 39.7821 152.396 39.4223 152.237C39.0626 152.074 38.7779 151.835 38.5683 151.519C38.3618 151.2 38.2586 150.802 38.2586 150.327C38.2586 149.926 38.3321 149.59 38.4791 149.318C38.6262 149.046 38.8264 148.827 39.0798 148.661C39.3331 148.495 39.6209 148.37 39.9432 148.286C40.2685 148.201 40.6095 148.142 40.9661 148.107C41.3853 148.064 41.7231 148.023 41.9797 147.985C42.2362 147.945 42.4223 147.885 42.5381 147.807C42.6538 147.729 42.7117 147.613 42.7117 147.46V147.432C42.7117 147.134 42.6178 146.904 42.4301 146.742C42.2456 146.579 41.9828 146.498 41.6418 146.498C41.2821 146.498 40.9958 146.578 40.7831 146.737C40.5704 146.894 40.4296 147.091 40.3608 147.328L38.512 147.178C38.6058 146.74 38.7904 146.362 39.0657 146.043C39.341 145.72 39.696 145.473 40.1309 145.301C40.5688 145.126 41.0756 145.038 41.6512 145.038C42.0516 145.038 42.4348 145.085 42.8008 145.179C43.17 145.273 43.4969 145.419 43.7815 145.616C44.0693 145.813 44.2961 146.066 44.4619 146.376C44.6277 146.682 44.7106 147.05 44.7106 147.479V152.34H42.8149V151.34H42.7586C42.6428 151.566 42.488 151.764 42.294 151.936C42.1001 152.105 41.867 152.238 41.5949 152.335C41.3227 152.429 41.0083 152.476 40.6517 152.476ZM41.2242 151.096C41.5182 151.096 41.7779 151.038 42.0031 150.923C42.2284 150.804 42.4051 150.644 42.5334 150.444C42.6616 150.244 42.7257 150.017 42.7257 149.764V148.999C42.6632 149.04 42.5772 149.077 42.4677 149.111C42.3613 149.143 42.2409 149.172 42.1064 149.201C41.9718 149.226 41.8373 149.249 41.7028 149.271C41.5683 149.29 41.4463 149.307 41.3368 149.323C41.1022 149.357 40.8973 149.412 40.7221 149.487C40.5469 149.562 40.4108 149.664 40.3139 149.792C40.2169 149.917 40.1684 150.073 40.1684 150.261C40.1684 150.533 40.2669 150.741 40.464 150.885C40.6642 151.026 40.9176 151.096 41.2242 151.096ZM47.1053 155.043C46.852 155.043 46.6142 155.022 46.3921 154.982C46.1731 154.944 45.9917 154.896 45.8478 154.836L46.2983 153.344C46.5329 153.416 46.744 153.455 46.9317 153.461C47.1225 153.468 47.2868 153.424 47.4244 153.33C47.5652 153.236 47.6794 153.077 47.767 152.851L47.8843 152.546L45.2988 145.132H47.401L48.8931 150.425H48.9682L50.4745 145.132H52.5908L49.7894 153.119C49.6549 153.507 49.4719 153.845 49.2404 154.132C49.012 154.423 48.7227 154.647 48.3723 154.803C48.0219 154.963 47.5996 155.043 47.1053 155.043ZM55.5697 142.73V143.743C55.5697 144.031 55.5134 144.325 55.4007 144.626C55.2913 144.923 55.1442 145.204 54.9597 145.47C54.7751 145.733 54.5733 145.957 54.3543 146.141L53.4722 145.62C53.6286 145.373 53.7662 145.099 53.8851 144.799C54.0071 144.499 54.0681 144.15 54.0681 143.753V142.73H55.5697ZM61.8626 147.188L60.0326 147.3C60.0013 147.144 59.934 147.003 59.8308 146.878C59.7276 146.75 59.5915 146.648 59.4225 146.573C59.2568 146.495 59.0581 146.456 58.8266 146.456C58.5169 146.456 58.2557 146.521 58.043 146.653C57.8303 146.781 57.7239 146.953 57.7239 147.169C57.7239 147.341 57.7927 147.486 57.9304 147.605C58.068 147.724 58.3042 147.82 58.6389 147.891L59.9434 148.154C60.6441 148.298 61.1666 148.53 61.5107 148.849C61.8548 149.168 62.0268 149.587 62.0268 150.106C62.0268 150.579 61.8876 150.993 61.6092 151.35C61.3339 151.706 60.9554 151.985 60.4736 152.185C59.995 152.382 59.4429 152.481 58.8172 152.481C57.8631 152.481 57.1029 152.282 56.5367 151.885C55.9736 151.484 55.6436 150.94 55.5466 150.252L57.5127 150.148C57.5722 150.439 57.7161 150.662 57.9444 150.815C58.1728 150.965 58.4653 151.04 58.8219 151.04C59.1723 151.04 59.4538 150.973 59.6666 150.838C59.8824 150.701 59.9919 150.524 59.995 150.308C59.9919 150.127 59.9153 149.978 59.7651 149.862C59.6149 149.743 59.3834 149.653 59.0706 149.59L57.8224 149.341C57.1186 149.201 56.5946 148.957 56.2505 148.609C55.9095 148.262 55.739 147.82 55.739 147.281C55.739 146.818 55.8642 146.42 56.1144 146.085C56.3678 145.75 56.7229 145.492 57.1796 145.311C57.6394 145.129 58.1775 145.038 58.7938 145.038C59.7041 145.038 60.4205 145.231 60.9429 145.616C61.4684 146 61.775 146.524 61.8626 147.188ZM68.1348 152.476C67.675 152.476 67.2652 152.396 66.9054 152.237C66.5457 152.074 66.261 151.835 66.0514 151.519C65.8449 151.2 65.7417 150.802 65.7417 150.327C65.7417 149.926 65.8152 149.59 65.9622 149.318C66.1093 149.046 66.3095 148.827 66.5629 148.661C66.8163 148.495 67.1041 148.37 67.4263 148.286C67.7516 148.201 68.0926 148.142 68.4492 148.107C68.8684 148.064 69.2062 148.023 69.4628 147.985C69.7193 147.945 69.9054 147.885 70.0212 147.807C70.1369 147.729 70.1948 147.613 70.1948 147.46V147.432C70.1948 147.134 70.1009 146.904 69.9132 146.742C69.7287 146.579 69.4659 146.498 69.1249 146.498C68.7652 146.498 68.4789 146.578 68.2662 146.737C68.0535 146.894 67.9127 147.091 67.8439 147.328L65.9951 147.178C66.0889 146.74 66.2735 146.362 66.5488 146.043C66.8241 145.72 67.1791 145.473 67.614 145.301C68.0519 145.126 68.5587 145.038 69.1343 145.038C69.5347 145.038 69.9179 145.085 70.2839 145.179C70.6531 145.273 70.98 145.419 71.2646 145.616C71.5524 145.813 71.7792 146.066 71.945 146.376C72.1108 146.682 72.1937 147.05 72.1937 147.479V152.34H70.298V151.34H70.2417C70.126 151.566 69.9711 151.764 69.7772 151.936C69.5832 152.105 69.3501 152.238 69.078 152.335C68.8058 152.429 68.4914 152.476 68.1348 152.476ZM68.7073 151.096C69.0013 151.096 69.261 151.038 69.4862 150.923C69.7115 150.804 69.8882 150.644 70.0165 150.444C70.1447 150.244 70.2089 150.017 70.2089 149.764V148.999C70.1463 149.04 70.0603 149.077 69.9508 149.111C69.8444 149.143 69.724 149.172 69.5895 149.201C69.4549 149.226 69.3204 149.249 69.1859 149.271C69.0514 149.29 68.9294 149.307 68.8199 149.323C68.5853 149.357 68.3804 149.412 68.2052 149.487C68.03 149.562 67.8939 149.664 67.797 149.792C67.7 149.917 67.6515 150.073 67.6515 150.261C67.6515 150.533 67.75 150.741 67.9471 150.885C68.1473 151.026 68.4007 151.096 68.7073 151.096ZM73.6124 152.34V145.132H75.6114V152.34H73.6124ZM74.6166 144.203C74.3194 144.203 74.0645 144.105 73.8518 143.908C73.6422 143.707 73.5374 143.468 73.5374 143.19C73.5374 142.914 73.6422 142.678 73.8518 142.481C74.0645 142.281 74.3194 142.181 74.6166 142.181C74.9138 142.181 75.1672 142.281 75.3768 142.481C75.5895 142.678 75.6959 142.914 75.6959 143.19C75.6959 143.468 75.5895 143.707 75.3768 143.908C75.1672 144.105 74.9138 144.203 74.6166 144.203ZM77.0805 152.34V145.132H79.0185V146.39H79.0936C79.225 145.943 79.4455 145.605 79.7552 145.376C80.0649 145.145 80.4215 145.029 80.8251 145.029C80.9252 145.029 81.0331 145.035 81.1488 145.048C81.2646 145.06 81.3663 145.078 81.4539 145.099V146.873C81.36 146.845 81.2302 146.82 81.0644 146.798C80.8986 146.776 80.7469 146.765 80.6092 146.765C80.3152 146.765 80.0524 146.829 79.8209 146.958C79.5925 147.083 79.4111 147.258 79.2766 147.483C79.1452 147.708 79.0795 147.968 79.0795 148.262V152.34H77.0805ZM90.0441 155.043V151.186H89.9831C89.8893 151.386 89.7563 151.584 89.5843 151.781C89.4153 151.975 89.1948 152.137 88.9226 152.265C88.6536 152.393 88.3251 152.457 87.9372 152.457C87.3898 152.457 86.894 152.316 86.4497 152.035C86.0087 151.75 85.6583 151.333 85.3987 150.782C85.1421 150.228 85.0139 149.549 85.0139 148.745C85.0139 147.92 85.1468 147.233 85.4127 146.686C85.6786 146.135 86.0321 145.724 86.4732 145.451C86.9174 145.176 87.4039 145.038 87.9325 145.038C88.3361 145.038 88.6724 145.107 88.9414 145.245C89.2136 145.379 89.4325 145.548 89.5983 145.752C89.7673 145.952 89.8955 146.149 89.9831 146.343H90.0676V145.132H92.0384V155.043H90.0441ZM88.5707 150.866C88.8929 150.866 89.1651 150.779 89.3872 150.604C89.6124 150.425 89.7845 150.177 89.9033 149.858C90.0254 149.538 90.0864 149.165 90.0864 148.736C90.0864 148.308 90.0269 147.935 89.908 147.619C89.7892 147.303 89.6171 147.059 89.3919 146.887C89.1666 146.715 88.8929 146.629 88.5707 146.629C88.2422 146.629 87.9654 146.718 87.7402 146.897C87.5149 147.075 87.3444 147.322 87.2287 147.638C87.1129 147.954 87.0551 148.32 87.0551 148.736C87.0551 149.155 87.1129 149.526 87.2287 149.848C87.3476 150.167 87.518 150.418 87.7402 150.599C87.9654 150.777 88.2422 150.866 88.5707 150.866ZM98.1331 149.271V145.132H100.132V152.34H98.2128V151.031H98.1377C97.9751 151.453 97.7045 151.792 97.326 152.049C96.9506 152.305 96.4923 152.434 95.9511 152.434C95.4693 152.434 95.0455 152.324 94.6795 152.105C94.3134 151.886 94.0272 151.575 93.8207 151.171C93.6174 150.768 93.5142 150.285 93.511 149.721V145.132H95.51V149.365C95.5131 149.79 95.6273 150.127 95.8526 150.374C96.0778 150.621 96.3797 150.744 96.7582 150.744C96.9991 150.744 97.2243 150.69 97.4339 150.58C97.6435 150.468 97.8124 150.302 97.9407 150.083C98.0721 149.864 98.1362 149.593 98.1331 149.271ZM103.654 152.476C103.194 152.476 102.784 152.396 102.425 152.237C102.065 152.074 101.78 151.835 101.571 151.519C101.364 151.2 101.261 150.802 101.261 150.327C101.261 149.926 101.334 149.59 101.481 149.318C101.629 149.046 101.829 148.827 102.082 148.661C102.336 148.495 102.623 148.37 102.946 148.286C103.271 148.201 103.612 148.142 103.968 148.107C104.388 148.064 104.726 148.023 104.982 147.985C105.239 147.945 105.425 147.885 105.54 147.807C105.656 147.729 105.714 147.613 105.714 147.46V147.432C105.714 147.134 105.62 146.904 105.432 146.742C105.248 146.579 104.985 146.498 104.644 146.498C104.284 146.498 103.998 146.578 103.785 146.737C103.573 146.894 103.432 147.091 103.363 147.328L101.514 147.178C101.608 146.74 101.793 146.362 102.068 146.043C102.343 145.72 102.698 145.473 103.133 145.301C103.571 145.126 104.078 145.038 104.654 145.038C105.054 145.038 105.437 145.085 105.803 145.179C106.172 145.273 106.499 145.419 106.784 145.616C107.072 145.813 107.299 146.066 107.464 146.376C107.63 146.682 107.713 147.05 107.713 147.479V152.34H105.817V151.34H105.761C105.645 151.566 105.49 151.764 105.296 151.936C105.102 152.105 104.869 152.238 104.597 152.335C104.325 152.429 104.011 152.476 103.654 152.476ZM104.227 151.096C104.521 151.096 104.78 151.038 105.005 150.923C105.231 150.804 105.407 150.644 105.536 150.444C105.664 150.244 105.728 150.017 105.728 149.764V148.999C105.666 149.04 105.58 149.077 105.47 149.111C105.364 149.143 105.243 149.172 105.109 149.201C104.974 149.226 104.84 149.249 104.705 149.271C104.571 149.29 104.449 149.307 104.339 149.323C104.105 149.357 103.9 149.412 103.724 149.487C103.549 149.562 103.413 149.664 103.316 149.792C103.219 149.917 103.171 150.073 103.171 150.261C103.171 150.533 103.269 150.741 103.466 150.885C103.667 151.026 103.92 151.096 104.227 151.096ZM111.131 142.73V152.34H109.132V142.73H111.131ZM112.6 152.34V145.132H114.599V152.34H112.6ZM113.604 144.203C113.307 144.203 113.052 144.105 112.839 143.908C112.63 143.707 112.525 143.468 112.525 143.19C112.525 142.914 112.63 142.678 112.839 142.481C113.052 142.281 113.307 142.181 113.604 142.181C113.901 142.181 114.155 142.281 114.364 142.481C114.577 142.678 114.683 142.914 114.683 143.19C114.683 143.468 114.577 143.707 114.364 143.908C114.155 144.105 113.901 144.203 113.604 144.203ZM119.902 145.132V146.634H115.561V145.132H119.902ZM116.547 143.406H118.545V150.125C118.545 150.31 118.574 150.454 118.63 150.557C118.686 150.657 118.764 150.727 118.865 150.768C118.968 150.809 119.087 150.829 119.221 150.829C119.315 150.829 119.409 150.821 119.503 150.805C119.597 150.787 119.669 150.773 119.719 150.763L120.033 152.251C119.933 152.282 119.792 152.318 119.611 152.359C119.429 152.402 119.209 152.429 118.949 152.438C118.467 152.457 118.045 152.393 117.682 152.246C117.322 152.099 117.042 151.871 116.842 151.561C116.642 151.251 116.543 150.86 116.547 150.388V143.406ZM122.306 155.043C122.052 155.043 121.815 155.022 121.592 154.982C121.373 154.944 121.192 154.896 121.048 154.836L121.499 153.344C121.733 153.416 121.944 153.455 122.132 153.461C122.323 153.468 122.487 153.424 122.625 153.33C122.766 153.236 122.88 153.077 122.967 152.851L123.085 152.546L120.499 145.132H122.601L124.093 150.425H124.169L125.675 145.132H127.791L124.99 153.119C124.855 153.507 124.672 153.845 124.441 154.132C124.212 154.423 123.923 154.647 123.573 154.803C123.222 154.963 122.8 155.043 122.306 155.043Z" fill="#121723"/>
<path opacity="0.5" d="M15.1565 136.902L14.0303 132.784H14.5371L15.3978 136.138H15.438L16.3149 132.784H16.8779L17.7547 136.138H17.795L18.6557 132.784H19.1625L18.0363 136.902H17.5215L16.6125 133.62H16.5803L15.6713 136.902H15.1565ZM19.7839 136.902V132.784H22.2695V133.226H20.2826V134.618H22.1408V135.06H20.2826V136.46H22.3017V136.902H19.7839ZM24.4394 136.902H23.1684V132.784H24.4957C24.8952 132.784 25.2371 132.866 25.5213 133.031C25.8056 133.195 26.0234 133.43 26.1749 133.737C26.3264 134.043 26.4022 134.409 26.4022 134.835C26.4022 135.264 26.3257 135.633 26.1729 135.943C26.0201 136.251 25.7975 136.489 25.5052 136.655C25.213 136.82 24.8577 136.902 24.4394 136.902ZM23.6672 136.46H24.4072C24.7478 136.46 25.03 136.394 25.2539 136.263C25.4778 136.131 25.6447 135.944 25.7546 135.702C25.8645 135.459 25.9195 135.17 25.9195 134.835C25.9195 134.503 25.8652 134.216 25.7566 133.976C25.648 133.735 25.4858 133.55 25.27 133.421C25.0541 133.291 24.7853 133.226 24.4635 133.226H23.6672V136.46ZM30.5047 132.784V136.902H30.022L27.7777 133.669H27.7375V136.902H27.2387V132.784H27.7214L29.9737 136.026H30.014V132.784H30.5047ZM31.5026 136.902V132.784H33.9882V133.226H32.0014V134.618H33.8595V135.06H32.0014V136.46H34.0204V136.902H31.5026ZM37.1395 133.813C37.1154 133.61 37.0175 133.451 36.8459 133.339C36.6743 133.226 36.4638 133.17 36.2145 133.17C36.0321 133.17 35.8726 133.199 35.7358 133.258C35.6004 133.317 35.4945 133.398 35.4181 133.502C35.343 133.605 35.3055 133.722 35.3055 133.854C35.3055 133.964 35.3316 134.058 35.3839 134.137C35.4375 134.215 35.5059 134.28 35.589 134.332C35.6721 134.383 35.7593 134.425 35.8505 134.459C35.9416 134.491 36.0254 134.517 36.1018 134.537L36.5201 134.65C36.6274 134.678 36.7467 134.717 36.8781 134.767C37.0108 134.816 37.1375 134.884 37.2582 134.97C37.3802 135.054 37.4807 135.163 37.5598 135.296C37.6389 135.428 37.6785 135.591 37.6785 135.784C37.6785 136.007 37.6202 136.208 37.5035 136.388C37.3882 136.567 37.2193 136.71 36.9967 136.816C36.7755 136.922 36.5067 136.975 36.1903 136.975C35.8954 136.975 35.64 136.927 35.4241 136.832C35.2096 136.737 35.0407 136.604 34.9173 136.434C34.7953 136.264 34.7263 136.066 34.7102 135.841H35.225C35.2384 135.996 35.2907 136.125 35.3819 136.227C35.4744 136.327 35.591 136.402 35.7318 136.452C35.8739 136.5 36.0268 136.524 36.1903 136.524C36.3807 136.524 36.5516 136.493 36.7031 136.432C36.8546 136.369 36.9746 136.282 37.0631 136.17C37.1516 136.058 37.1958 135.926 37.1958 135.776C37.1958 135.639 37.1576 135.528 37.0812 135.442C37.0048 135.357 36.9042 135.287 36.7796 135.233C36.6549 135.18 36.5201 135.133 36.3753 135.092L35.8686 134.948C35.5468 134.855 35.2921 134.723 35.1044 134.551C34.9167 134.38 34.8228 134.155 34.8228 133.878C34.8228 133.647 34.8852 133.446 35.0098 133.274C35.1359 133.102 35.3048 132.967 35.5166 132.872C35.7298 132.776 35.9678 132.727 36.2305 132.727C36.496 132.727 36.732 132.775 36.9384 132.87C37.1449 132.964 37.3085 133.093 37.4291 133.256C37.5511 133.42 37.6155 133.606 37.6222 133.813H37.1395ZM39.7694 136.902H38.4985V132.784H39.8258C40.2253 132.784 40.5672 132.866 40.8514 133.031C41.1356 133.195 41.3535 133.43 41.505 133.737C41.6565 134.043 41.7322 134.409 41.7322 134.835C41.7322 135.264 41.6558 135.633 41.5029 135.943C41.3501 136.251 41.1276 136.489 40.8353 136.655C40.543 136.82 40.1877 136.902 39.7694 136.902ZM38.9972 136.46H39.7373C40.0778 136.46 40.36 136.394 40.5839 136.263C40.8078 136.131 40.9747 135.944 41.0847 135.702C41.1946 135.459 41.2496 135.17 41.2496 134.835C41.2496 134.503 41.1953 134.216 41.0867 133.976C40.9781 133.735 40.8158 133.55 40.6 133.421C40.3841 133.291 40.1153 133.226 39.7936 133.226H38.9972V136.46ZM42.5442 136.902H42.0213L43.5336 132.784H44.0484L45.5607 136.902H45.0378L43.8071 133.435H43.7749L42.5442 136.902ZM42.7372 135.294H44.8448V135.736H42.7372V135.294ZM45.428 132.784H45.9991L47.1414 134.706H47.1896L48.3319 132.784H48.903L47.4149 135.205V136.902H46.9161V135.205L45.428 132.784ZM52.5163 132.784V136.902H52.0176V133.307H51.9935L50.988 133.974V133.468L52.0176 132.784H52.5163ZM55.0442 136.959C54.7412 136.959 54.4831 136.876 54.2699 136.711C54.0568 136.545 53.8939 136.304 53.7813 135.989C53.6686 135.673 53.6123 135.291 53.6123 134.843C53.6123 134.398 53.6686 134.018 53.7813 133.703C53.8952 133.386 54.0588 133.145 54.272 132.979C54.4865 132.811 54.7439 132.727 55.0442 132.727C55.3445 132.727 55.6012 132.811 55.8144 132.979C56.0289 133.145 56.1925 133.386 56.3051 133.703C56.4191 134.018 56.476 134.398 56.476 134.843C56.476 135.291 56.4197 135.673 56.3071 135.989C56.1945 136.304 56.0316 136.545 55.8184 136.711C55.6053 136.876 55.3472 136.959 55.0442 136.959ZM55.0442 136.516C55.3445 136.516 55.5778 136.371 55.744 136.082C55.9103 135.792 55.9934 135.379 55.9934 134.843C55.9934 134.486 55.9552 134.183 55.8788 133.932C55.8037 133.681 55.6951 133.49 55.553 133.359C55.4122 133.228 55.2426 133.162 55.0442 133.162C54.7466 133.162 54.5139 133.309 54.3464 133.602C54.1788 133.895 54.095 134.308 54.095 134.843C54.095 135.2 54.1325 135.503 54.2076 135.752C54.2827 136.001 54.3906 136.191 54.5314 136.321C54.6735 136.451 54.8444 136.516 55.0442 136.516ZM57.8124 136.339L57.7802 136.556C57.7574 136.709 57.7225 136.873 57.6756 137.047C57.63 137.221 57.5824 137.386 57.5328 137.54C57.4832 137.694 57.4423 137.817 57.4102 137.908H57.0482C57.0656 137.822 57.0884 137.709 57.1165 137.568C57.1447 137.427 57.1729 137.27 57.201 137.095C57.2305 136.922 57.2546 136.745 57.2734 136.564L57.2975 136.339H57.8124ZM62.6011 133.813C62.577 133.61 62.4791 133.451 62.3075 133.339C62.1359 133.226 61.9254 133.17 61.676 133.17C61.4937 133.17 61.3342 133.199 61.1974 133.258C61.062 133.317 60.9561 133.398 60.8797 133.502C60.8046 133.605 60.7671 133.722 60.7671 133.854C60.7671 133.964 60.7932 134.058 60.8455 134.137C60.8991 134.215 60.9675 134.28 61.0506 134.332C61.1337 134.383 61.2209 134.425 61.3121 134.459C61.4032 134.491 61.487 134.517 61.5634 134.537L61.9817 134.65C62.089 134.678 62.2083 134.717 62.3397 134.767C62.4724 134.816 62.5991 134.884 62.7198 134.97C62.8418 135.054 62.9423 135.163 63.0214 135.296C63.1005 135.428 63.1401 135.591 63.1401 135.784C63.1401 136.007 63.0818 136.208 62.9651 136.388C62.8498 136.567 62.6809 136.71 62.4583 136.816C62.2371 136.922 61.9683 136.975 61.6519 136.975C61.357 136.975 61.1016 136.927 60.8857 136.832C60.6712 136.737 60.5023 136.604 60.3789 136.434C60.2569 136.264 60.1879 136.066 60.1718 135.841H60.6866C60.7 135.996 60.7523 136.125 60.8435 136.227C60.936 136.327 61.0526 136.402 61.1934 136.452C61.3355 136.5 61.4884 136.524 61.6519 136.524C61.8423 136.524 62.0132 136.493 62.1647 136.432C62.3162 136.369 62.4362 136.282 62.5247 136.17C62.6132 136.058 62.6574 135.926 62.6574 135.776C62.6574 135.639 62.6192 135.528 62.5428 135.442C62.4664 135.357 62.3658 135.287 62.2411 135.233C62.1165 135.18 61.9817 135.133 61.8369 135.092L61.3302 134.948C61.0084 134.855 60.7537 134.723 60.566 134.551C60.3783 134.38 60.2844 134.155 60.2844 133.878C60.2844 133.647 60.3468 133.446 60.4714 133.274C60.5975 133.102 60.7664 132.967 60.9782 132.872C61.1914 132.776 61.4294 132.727 61.6921 132.727C61.9576 132.727 62.1936 132.775 62.4 132.87C62.6065 132.964 62.77 133.093 62.8907 133.256C63.0127 133.42 63.0771 133.606 63.0838 133.813H62.6011ZM63.9601 136.902V132.784H66.4457V133.226H64.4588V134.618H66.317V135.06H64.4588V136.46H66.4779V136.902H63.9601ZM67.3446 136.902V132.784H68.7363C69.0594 132.784 69.3235 132.842 69.5286 132.959C69.7351 133.074 69.8879 133.23 69.9871 133.427C70.0863 133.624 70.1359 133.844 70.1359 134.087C70.1359 134.33 70.0863 134.55 69.9871 134.749C69.8892 134.947 69.7377 135.105 69.5326 135.223C69.3275 135.34 69.0647 135.398 68.7443 135.398H67.7468V134.956H68.7282C68.9494 134.956 69.1271 134.917 69.2611 134.841C69.3952 134.765 69.4924 134.661 69.5527 134.531C69.6144 134.4 69.6452 134.252 69.6452 134.087C69.6452 133.922 69.6144 133.775 69.5527 133.644C69.4924 133.514 69.3945 133.413 69.2591 133.339C69.1237 133.264 68.9441 133.226 68.7202 133.226H67.8434V136.902H67.3446ZM70.7141 133.226V132.784H73.803V133.226H72.5079V136.902H72.0092V133.226H70.7141ZM74.5728 136.902V132.784H77.0584V133.226H75.0715V134.618H76.9297V135.06H75.0715V136.46H77.0906V136.902H74.5728ZM77.9573 132.784H78.5526L79.9522 136.203H80.0005L81.4002 132.784H81.9954V136.902H81.5289V133.773H81.4887L80.2016 136.902H79.7511L78.4641 133.773H78.4239V136.902H77.9573V132.784ZM82.9954 136.902V132.784H84.4353C84.7222 132.784 84.9589 132.833 85.1452 132.933C85.3316 133.03 85.4703 133.163 85.5615 133.329C85.6527 133.494 85.6982 133.677 85.6982 133.878C85.6982 134.055 85.6667 134.201 85.6037 134.316C85.5421 134.431 85.4603 134.523 85.3584 134.59C85.2578 134.657 85.1486 134.706 85.0306 134.738V134.779C85.1566 134.787 85.2833 134.831 85.4107 134.911C85.538 134.992 85.6446 135.107 85.7304 135.257C85.8162 135.407 85.8591 135.591 85.8591 135.808C85.8591 136.015 85.8122 136.2 85.7184 136.365C85.6245 136.53 85.4764 136.661 85.2739 136.758C85.0715 136.854 84.808 136.902 84.4836 136.902H82.9954ZM83.4942 136.46H84.4836C84.8094 136.46 85.0406 136.397 85.1774 136.271C85.3155 136.144 85.3845 135.989 85.3845 135.808C85.3845 135.669 85.349 135.54 85.2779 135.422C85.2069 135.303 85.1057 135.208 84.9743 135.137C84.8429 135.064 84.6874 135.028 84.5077 135.028H83.4942V136.46ZM83.4942 134.594H84.4192C84.5694 134.594 84.7048 134.564 84.8255 134.505C84.9475 134.446 85.044 134.363 85.1151 134.256C85.1874 134.149 85.2236 134.023 85.2236 133.878C85.2236 133.697 85.1606 133.543 85.0346 133.417C84.9086 133.29 84.7088 133.226 84.4353 133.226H83.4942V134.594ZM86.6786 136.902V132.784H89.1643V133.226H87.1774V134.618H89.0355V135.06H87.1774V136.46H89.1964V136.902H86.6786ZM90.0632 136.902V132.784H91.4548C91.7766 132.784 92.0407 132.839 92.2472 132.949C92.4536 133.057 92.6065 133.207 92.7057 133.397C92.8049 133.588 92.8545 133.804 92.8545 134.047C92.8545 134.289 92.8049 134.505 92.7057 134.692C92.6065 134.88 92.4543 135.027 92.2492 135.135C92.044 135.241 91.7819 135.294 91.4629 135.294H90.3367V134.843H91.4468C91.6666 134.843 91.8436 134.811 91.9777 134.747C92.1131 134.682 92.211 134.591 92.2713 134.473C92.333 134.354 92.3638 134.212 92.3638 134.047C92.3638 133.882 92.333 133.738 92.2713 133.614C92.2096 133.491 92.1111 133.396 91.9757 133.329C91.8403 133.26 91.6613 133.226 91.4387 133.226H90.5619V136.902H90.0632ZM92.0018 135.052L93.0154 136.902H92.4362L91.4387 135.052H92.0018Z" fill="#121723"/>
<path d="M13.9097 89.373C13.9097 87.2879 15.6 85.5977 17.685 85.5977H83.7539C85.839 85.5977 87.5293 87.2879 87.5293 89.373V108.25C87.5293 110.335 85.839 112.025 83.7539 112.025H17.685C15.6 112.025 13.9097 110.335 13.9097 108.25V89.373Z" fill="white"/>
<circle opacity="0.1" cx="33.8317" cy="98.8105" r="8.02265" fill="#145DFF" stroke="white" stroke-width="0.943841"/>
<path d="M33.3599 96.4512H34.3037V101.17H33.3599V96.4512Z" fill="#145DFF"/>
<path d="M36.1914 98.3389V99.2827L31.4722 99.2827L31.4722 98.3389L36.1914 98.3389Z" fill="#145DFF"/>
<path d="M45.6857 101.311V96.5055H48.6654V97.1296H46.4107V98.5937H48.4519V99.2154H46.4107V101.311H45.6857ZM50.5365 101.39C50.3081 101.39 50.1017 101.348 49.9171 101.264C49.7325 101.178 49.5863 101.053 49.4784 100.891C49.372 100.728 49.3188 100.528 49.3188 100.292C49.3188 100.089 49.3579 99.9216 49.4361 99.7902C49.5143 99.6588 49.6199 99.5548 49.7529 99.4782C49.8858 99.4015 50.0344 99.3437 50.1986 99.3045C50.3629 99.2654 50.5302 99.2357 50.7007 99.2154C50.9166 99.1904 51.0918 99.17 51.2263 99.1544C51.3608 99.1372 51.4585 99.1098 51.5195 99.0723C51.5805 99.0347 51.611 98.9737 51.611 98.8893V98.8728C51.611 98.6679 51.5532 98.5092 51.4374 98.3966C51.3232 98.284 51.1528 98.2276 50.926 98.2276C50.6898 98.2276 50.5036 98.28 50.3676 98.3848C50.2331 98.4881 50.14 98.603 50.0884 98.7297L49.4291 98.5796C49.5073 98.3606 49.6215 98.1838 49.7716 98.0493C49.9234 97.9133 50.0978 97.8147 50.2948 97.7537C50.4919 97.6911 50.6992 97.6599 50.9166 97.6599C51.0605 97.6599 51.213 97.6771 51.3741 97.7115C51.5368 97.7443 51.6885 97.8053 51.8292 97.8945C51.9716 97.9836 52.0881 98.1111 52.1788 98.2769C52.2695 98.4411 52.3149 98.6547 52.3149 98.9174V101.311H51.6298V100.818H51.6017C51.5563 100.909 51.4883 100.998 51.3975 101.085C51.3068 101.173 51.1903 101.246 51.048 101.304C50.9056 101.361 50.7351 101.39 50.5365 101.39ZM50.689 100.827C50.8829 100.827 51.0487 100.789 51.1864 100.712C51.3256 100.636 51.4312 100.536 51.5031 100.412C51.5766 100.287 51.6134 100.153 51.6134 100.011V99.5462C51.5884 99.5712 51.5399 99.5947 51.4679 99.6166C51.3975 99.6369 51.317 99.6549 51.2263 99.6706C51.1356 99.6846 51.0472 99.6979 50.9612 99.7104C50.8751 99.7214 50.8032 99.7308 50.7453 99.7386C50.6092 99.7558 50.4849 99.7847 50.3723 99.8254C50.2612 99.8661 50.172 99.9247 50.1048 100.001C50.0391 100.076 50.0063 100.177 50.0063 100.302C50.0063 100.475 50.0704 100.607 50.1986 100.696C50.3269 100.783 50.4904 100.827 50.689 100.827ZM56.2031 97.7068L54.8963 101.311H54.1455L52.8364 97.7068H53.5895L54.5022 100.48H54.5397L55.45 97.7068H56.2031ZM58.2578 101.383C57.92 101.383 57.6251 101.306 57.3733 101.151C57.1215 100.996 56.926 100.78 56.7868 100.501C56.6476 100.223 56.5779 99.8974 56.5779 99.5251C56.5779 99.1513 56.6476 98.8244 56.7868 98.5444C56.926 98.2644 57.1215 98.047 57.3733 97.8921C57.6251 97.7373 57.92 97.6599 58.2578 97.6599C58.5957 97.6599 58.8905 97.7373 59.1423 97.8921C59.3942 98.047 59.5897 98.2644 59.7289 98.5444C59.8681 98.8244 59.9377 99.1513 59.9377 99.5251C59.9377 99.8974 59.8681 100.223 59.7289 100.501C59.5897 100.78 59.3942 100.996 59.1423 101.151C58.8905 101.306 58.5957 101.383 58.2578 101.383ZM58.2602 100.794C58.4791 100.794 58.6606 100.737 58.8045 100.621C58.9484 100.505 59.0547 100.351 59.1236 100.159C59.194 99.9662 59.2291 99.7542 59.2291 99.5227C59.2291 99.2928 59.194 99.0817 59.1236 98.8893C59.0547 98.6953 58.9484 98.5397 58.8045 98.4224C58.6606 98.3051 58.4791 98.2464 58.2602 98.2464C58.0396 98.2464 57.8566 98.3051 57.7112 98.4224C57.5673 98.5397 57.4601 98.6953 57.3897 98.8893C57.3209 99.0817 57.2865 99.2928 57.2865 99.5227C57.2865 99.7542 57.3209 99.9662 57.3897 100.159C57.4601 100.351 57.5673 100.505 57.7112 100.621C57.8566 100.737 58.0396 100.794 58.2602 100.794ZM60.7207 101.311V97.7068H61.3988V98.2793H61.4363C61.502 98.0853 61.6178 97.9328 61.7836 97.8218C61.9509 97.7091 62.1402 97.6528 62.3513 97.6528C62.3951 97.6528 62.4468 97.6544 62.5062 97.6575C62.5672 97.6606 62.6149 97.6646 62.6493 97.6693V98.3403C62.6212 98.3324 62.5711 98.3238 62.4992 98.3145C62.4272 98.3035 62.3553 98.298 62.2833 98.298C62.1175 98.298 61.9697 98.3332 61.8399 98.4036C61.7116 98.4724 61.61 98.5686 61.5349 98.6922C61.4598 98.8142 61.4223 98.9534 61.4223 99.1098V101.311H60.7207ZM63.2564 101.311V97.7068H63.9579V101.311H63.2564ZM63.6107 97.1507C63.4887 97.1507 63.3839 97.1101 63.2963 97.0287C63.2103 96.9458 63.1672 96.8473 63.1672 96.7331C63.1672 96.6174 63.2103 96.5188 63.2963 96.4375C63.3839 96.3546 63.4887 96.3131 63.6107 96.3131C63.7327 96.3131 63.8367 96.3546 63.9227 96.4375C64.0103 96.5188 64.0541 96.6174 64.0541 96.7331C64.0541 96.8473 64.0103 96.9458 63.9227 97.0287C63.8367 97.1101 63.7327 97.1507 63.6107 97.1507ZM66.5839 97.7068V98.2699H64.6154V97.7068H66.5839ZM65.1433 96.8434H65.8448V100.252C65.8448 100.388 65.8652 100.491 65.9058 100.56C65.9465 100.627 65.9989 100.673 66.063 100.698C66.1287 100.722 66.1999 100.733 66.2765 100.733C66.3328 100.733 66.3821 100.729 66.4243 100.722C66.4666 100.714 66.4994 100.708 66.5229 100.703L66.6496 101.282C66.6089 101.298 66.551 101.314 66.476 101.329C66.4009 101.347 66.307 101.356 66.1944 101.357C66.0099 101.361 65.8378 101.328 65.6783 101.259C65.5187 101.19 65.3897 101.084 65.2911 100.94C65.1926 100.796 65.1433 100.615 65.1433 100.398V96.8434ZM68.8744 101.383C68.5193 101.383 68.2135 101.307 67.957 101.156C67.702 101.002 67.505 100.787 67.3658 100.51C67.2281 100.232 67.1593 99.906 67.1593 99.5321C67.1593 99.163 67.2281 98.8377 67.3658 98.5561C67.505 98.2746 67.6989 98.0548 67.9476 97.8968C68.1979 97.7389 68.4904 97.6599 68.8251 97.6599C69.0284 97.6599 69.2255 97.6935 69.4163 97.7608C69.6072 97.828 69.7784 97.9336 69.9301 98.0775C70.0819 98.2214 70.2015 98.4083 70.2891 98.6382C70.3767 98.8666 70.4205 99.1442 70.4205 99.4711V99.7198H67.5558V99.1943H69.7331C69.7331 99.0097 69.6955 98.8463 69.6205 98.7039C69.5454 98.56 69.4398 98.4466 69.3037 98.3637C69.1692 98.2808 69.0112 98.2394 68.8298 98.2394C68.6327 98.2394 68.4606 98.2879 68.3136 98.3848C68.1682 98.4803 68.0555 98.6054 67.9758 98.7602C67.8976 98.9135 67.8585 99.0801 67.8585 99.26V99.6706C67.8585 99.9114 67.9007 100.116 67.9852 100.285C68.0712 100.454 68.1908 100.583 68.3441 100.672C68.4974 100.76 68.6765 100.804 68.8814 100.804C69.0144 100.804 69.1356 100.785 69.2451 100.747C69.3545 100.708 69.4492 100.65 69.529 100.574C69.6087 100.497 69.6697 100.403 69.712 100.29L70.3759 100.41C70.3227 100.605 70.2273 100.776 70.0897 100.923C69.9536 101.069 69.7823 101.182 69.5759 101.264C69.371 101.343 69.1371 101.383 68.8744 101.383ZM73.8993 98.5866L73.2635 98.6992C73.2369 98.6179 73.1947 98.5405 73.1368 98.467C73.0805 98.3934 73.0039 98.3332 72.9069 98.2863C72.8099 98.2394 72.6887 98.2159 72.5432 98.2159C72.3446 98.2159 72.1788 98.2605 72.0458 98.3496C71.9129 98.4372 71.8464 98.5506 71.8464 98.6898C71.8464 98.8103 71.891 98.9073 71.9801 98.9808C72.0693 99.0543 72.2132 99.1145 72.4118 99.1614L72.9843 99.2928C73.3159 99.3695 73.563 99.4876 73.7257 99.6471C73.8884 99.8066 73.9697 100.014 73.9697 100.269C73.9697 100.485 73.9071 100.677 73.782 100.846C73.6585 101.013 73.4856 101.145 73.2635 101.24C73.043 101.336 72.7872 101.383 72.4963 101.383C72.0928 101.383 71.7635 101.297 71.5086 101.125C71.2536 100.952 71.0972 100.705 71.0393 100.386L71.7174 100.283C71.7596 100.46 71.8464 100.593 71.9778 100.684C72.1092 100.773 72.2805 100.818 72.4916 100.818C72.7215 100.818 72.9053 100.77 73.043 100.675C73.1806 100.578 73.2494 100.46 73.2494 100.32C73.2494 100.208 73.2072 100.113 73.1227 100.037C73.0398 99.9599 72.9124 99.902 72.7403 99.8629L72.1303 99.7292C71.794 99.6526 71.5453 99.5306 71.3842 99.3632C71.2247 99.1958 71.1449 98.9839 71.1449 98.7274C71.1449 98.5147 71.2043 98.3285 71.3232 98.169C71.4421 98.0094 71.6063 97.8851 71.8159 97.7959C72.0255 97.7052 72.2656 97.6599 72.5362 97.6599C72.9257 97.6599 73.2322 97.7443 73.4559 97.9133C73.6796 98.0806 73.8274 98.3051 73.8993 98.5866Z" fill="#145DFF"/>
<path d="M95.0793 89.373C95.0793 87.2879 96.7696 85.5977 98.8547 85.5977H164.924C167.009 85.5977 168.699 87.2879 168.699 89.373V108.25C168.699 110.335 167.009 112.025 164.924 112.025H98.8547C96.7696 112.025 95.0793 110.335 95.0793 108.25V89.373Z" fill="white"/>
<circle opacity="0.1" cx="118.001" cy="98.8105" r="8.02265" fill="#145DFF" stroke="white" stroke-width="0.943841"/>
<path d="M117.53 96.4512H118.473V101.17H117.53V96.4512Z" fill="#145DFF"/>
<path d="M120.361 98.3389V99.2827L115.642 99.2827L115.642 98.3389L120.361 98.3389Z" fill="#145DFF"/>
<path d="M129.855 101.311V96.5055H132.835V97.1296H130.58V98.5937H132.622V99.2154H130.58V101.311H129.855ZM134.924 101.383C134.586 101.383 134.291 101.306 134.039 101.151C133.787 100.996 133.592 100.78 133.453 100.501C133.314 100.223 133.244 99.8974 133.244 99.5251C133.244 99.1513 133.314 98.8244 133.453 98.5444C133.592 98.2644 133.787 98.047 134.039 97.8921C134.291 97.7373 134.586 97.6599 134.924 97.6599C135.262 97.6599 135.556 97.7373 135.808 97.8921C136.06 98.047 136.256 98.2644 136.395 98.5444C136.534 98.8244 136.604 99.1513 136.604 99.5251C136.604 99.8974 136.534 100.223 136.395 100.501C136.256 100.78 136.06 100.996 135.808 101.151C135.556 101.306 135.262 101.383 134.924 101.383ZM134.926 100.794C135.145 100.794 135.327 100.737 135.47 100.621C135.614 100.505 135.721 100.351 135.79 100.159C135.86 99.9662 135.895 99.7542 135.895 99.5227C135.895 99.2928 135.86 99.0817 135.79 98.8893C135.721 98.6953 135.614 98.5397 135.47 98.4224C135.327 98.3051 135.145 98.2464 134.926 98.2464C134.706 98.2464 134.523 98.3051 134.377 98.4224C134.233 98.5397 134.126 98.6953 134.056 98.8893C133.987 99.0817 133.952 99.2928 133.952 99.5227C133.952 99.7542 133.987 99.9662 134.056 100.159C134.126 100.351 134.233 100.505 134.377 100.621C134.523 100.737 134.706 100.794 134.926 100.794ZM137.387 101.311V97.7068H138.065V98.2793H138.102C138.168 98.0853 138.284 97.9328 138.45 97.8218C138.617 97.7091 138.806 97.6528 139.017 97.6528C139.061 97.6528 139.113 97.6544 139.172 97.6575C139.233 97.6606 139.281 97.6646 139.315 97.6693V98.3403C139.287 98.3324 139.237 98.3238 139.165 98.3145C139.093 98.3035 139.021 98.298 138.949 98.298C138.783 98.298 138.636 98.3332 138.506 98.4036C138.378 98.4724 138.276 98.5686 138.201 98.6922C138.126 98.8142 138.088 98.9534 138.088 99.1098V101.311H137.387ZM141.356 96.5055H142.18L143.435 98.6898H143.487L144.742 96.5055H145.566L143.822 99.4242V101.311H143.1V99.4242L141.356 96.5055ZM147.118 101.383C146.78 101.383 146.485 101.306 146.234 101.151C145.982 100.996 145.786 100.78 145.647 100.501C145.508 100.223 145.438 99.8974 145.438 99.5251C145.438 99.1513 145.508 98.8244 145.647 98.5444C145.786 98.2644 145.982 98.047 146.234 97.8921C146.485 97.7373 146.78 97.6599 147.118 97.6599C147.456 97.6599 147.751 97.7373 148.003 97.8921C148.254 98.047 148.45 98.2644 148.589 98.5444C148.728 98.8244 148.798 99.1513 148.798 99.5251C148.798 99.8974 148.728 100.223 148.589 100.501C148.45 100.78 148.254 100.996 148.003 101.151C147.751 101.306 147.456 101.383 147.118 101.383ZM147.12 100.794C147.339 100.794 147.521 100.737 147.665 100.621C147.809 100.505 147.915 100.351 147.984 100.159C148.054 99.9662 148.089 99.7542 148.089 99.5227C148.089 99.2928 148.054 99.0817 147.984 98.8893C147.915 98.6953 147.809 98.5397 147.665 98.4224C147.521 98.3051 147.339 98.2464 147.12 98.2464C146.9 98.2464 146.717 98.3051 146.571 98.4224C146.428 98.5397 146.32 98.6953 146.25 98.8893C146.181 99.0817 146.147 99.2928 146.147 99.5227C146.147 99.7542 146.181 99.9662 146.25 100.159C146.32 100.351 146.428 100.505 146.571 100.621C146.717 100.737 146.9 100.794 147.12 100.794ZM151.864 99.816V97.7068H152.568V101.311H151.878V100.686H151.84C151.758 100.879 151.625 101.039 151.442 101.167C151.26 101.294 151.034 101.357 150.764 101.357C150.532 101.357 150.327 101.307 150.149 101.205C149.972 101.102 149.833 100.949 149.731 100.747C149.631 100.546 149.581 100.296 149.581 99.999V97.7068H150.283V99.9146C150.283 100.16 150.351 100.356 150.487 100.501C150.623 100.647 150.8 100.719 151.017 100.719C151.148 100.719 151.279 100.686 151.409 100.621C151.54 100.555 151.649 100.456 151.735 100.323C151.822 100.19 151.865 100.021 151.864 99.816Z" fill="#145DFF"/>
<path d="M14.6256 74.9453V66.7082H16.3671V70.1068H19.9025V66.7082H21.6401V74.9453H19.9025V71.5427H16.3671V74.9453H14.6256ZM25.7459 75.066C25.1104 75.066 24.5634 74.9373 24.1049 74.6799C23.6491 74.4198 23.2978 74.0524 23.0511 73.5778C22.8045 73.1005 22.6811 72.5361 22.6811 71.8845C22.6811 71.249 22.8045 70.6913 23.0511 70.2114C23.2978 69.7314 23.6451 69.3573 24.0929 69.0892C24.5433 68.8211 25.0716 68.687 25.6775 68.687C26.0851 68.687 26.4645 68.7527 26.8158 68.8841C27.1697 69.0128 27.4781 69.2072 27.7409 69.4673C28.0063 69.7274 28.2128 70.0545 28.3603 70.4487C28.5077 70.8401 28.5815 71.2987 28.5815 71.8242V72.2948H23.3649V71.233H26.9686C26.9686 70.9863 26.915 70.7677 26.8077 70.5774C26.7005 70.387 26.5517 70.2382 26.3613 70.1309C26.1736 70.021 25.9551 69.966 25.7057 69.966C25.4456 69.966 25.215 70.0263 25.0139 70.147C24.8155 70.265 24.66 70.4245 24.5473 70.6256C24.4347 70.8241 24.3771 71.0453 24.3744 71.2893V72.2988C24.3744 72.6045 24.4307 72.8686 24.5433 73.0911C24.6586 73.3137 24.8208 73.4853 25.03 73.606C25.2391 73.7266 25.4872 73.787 25.7741 73.787C25.9645 73.787 26.1387 73.7601 26.2969 73.7065C26.4551 73.6529 26.5906 73.5725 26.7032 73.4652C26.8158 73.3579 26.9016 73.2266 26.9606 73.071L28.5453 73.1756C28.4648 73.5564 28.2999 73.8889 28.0506 74.1731C27.8039 74.4546 27.4848 74.6745 27.0933 74.8327C26.7045 74.9882 26.2554 75.066 25.7459 75.066ZM31.2997 66.7082V74.9453H29.5863V66.7082H31.2997ZM34.2724 66.7082V74.9453H32.559V66.7082H34.2724ZM38.323 75.066C37.6982 75.066 37.1579 74.9332 36.7021 74.6678C36.2489 74.3997 35.899 74.0269 35.6523 73.5497C35.4056 73.0697 35.2823 72.5133 35.2823 71.8805C35.2823 71.2423 35.4056 70.6846 35.6523 70.2073C35.899 69.7274 36.2489 69.3547 36.7021 69.0892C37.1579 68.8211 37.6982 68.687 38.323 68.687C38.9477 68.687 39.4867 68.8211 39.9398 69.0892C40.3957 69.3547 40.7469 69.7274 40.9936 70.2073C41.2403 70.6846 41.3636 71.2423 41.3636 71.8805C41.3636 72.5133 41.2403 73.0697 40.9936 73.5497C40.7469 74.0269 40.3957 74.3997 39.9398 74.6678C39.4867 74.9332 38.9477 75.066 38.323 75.066ZM38.331 73.7387C38.6152 73.7387 38.8525 73.6583 39.0429 73.4974C39.2333 73.3338 39.3767 73.1113 39.4733 72.8297C39.5725 72.5482 39.6221 72.2277 39.6221 71.8684C39.6221 71.5091 39.5725 71.1887 39.4733 70.9072C39.3767 70.6256 39.2333 70.4031 39.0429 70.2395C38.8525 70.0759 38.6152 69.9942 38.331 69.9942C38.0441 69.9942 37.8028 70.0759 37.607 70.2395C37.414 70.4031 37.2678 70.6256 37.1686 70.9072C37.0721 71.1887 37.0238 71.5091 37.0238 71.8684C37.0238 72.2277 37.0721 72.5482 37.1686 72.8297C37.2678 73.1113 37.414 73.3338 37.607 73.4974C37.8028 73.6583 38.0441 73.7387 38.331 73.7387ZM50.3667 69.3707C50.3104 69.175 50.2313 69.0021 50.1294 68.8519C50.0275 68.6991 49.9028 68.5704 49.7554 68.4658C49.6106 68.3585 49.4443 68.2768 49.2566 68.2204C49.0716 68.1641 48.8665 68.136 48.6412 68.136C48.2203 68.136 47.8502 68.2406 47.5312 68.4497C47.2148 68.6588 46.9681 68.9632 46.7911 69.3627C46.6141 69.7595 46.5256 70.2449 46.5256 70.8187C46.5256 71.3925 46.6128 71.8805 46.7871 72.2827C46.9614 72.6849 47.2081 72.9919 47.5271 73.2038C47.8462 73.4129 48.223 73.5175 48.6573 73.5175C49.0515 73.5175 49.388 73.4478 49.6669 73.3083C49.9484 73.1662 50.1629 72.9665 50.3104 72.7091C50.4606 72.4516 50.5356 72.1473 50.5356 71.796L50.8896 71.8483H48.7659V70.5371H52.2128V71.5748C52.2128 72.2988 52.06 72.9209 51.7543 73.4411C51.4486 73.9586 51.0277 74.3581 50.4914 74.6396C49.9551 74.9185 49.3411 75.0579 48.6493 75.0579C47.8771 75.0579 47.1987 74.8877 46.6141 74.5471C46.0296 74.2039 45.5738 73.7172 45.2466 73.0871C44.9222 72.4543 44.76 71.7035 44.76 70.8348C44.76 70.1671 44.8565 69.5719 45.0496 69.049C45.2453 68.5234 45.5188 68.0783 45.8701 67.7137C46.2213 67.349 46.6302 67.0715 47.0968 66.8811C47.5633 66.6907 48.0688 66.5955 48.6131 66.5955C49.0796 66.5955 49.514 66.6639 49.9162 66.8007C50.3184 66.9347 50.6751 67.1251 50.9861 67.3718C51.2998 67.6185 51.5559 67.9121 51.7543 68.2526C51.9527 68.5905 52.0801 68.9632 52.1364 69.3707H50.3667ZM53.3756 74.9453V68.7674H55.0367V69.8454H55.101C55.2136 69.4619 55.4027 69.1723 55.6681 68.9766C55.9336 68.7782 56.2393 68.679 56.5852 68.679C56.671 68.679 56.7635 68.6843 56.8627 68.695C56.9619 68.7058 57.049 68.7205 57.1241 68.7393V70.2596C57.0437 70.2355 56.9324 70.214 56.7903 70.1953C56.6482 70.1765 56.5181 70.1671 56.4001 70.1671C56.1481 70.1671 55.9229 70.2221 55.7244 70.332C55.5287 70.4393 55.3732 70.5894 55.2579 70.7825C55.1453 70.9755 55.089 71.1981 55.089 71.4502V74.9453H53.3756ZM60.4246 75.066C59.7891 75.066 59.2421 74.9373 58.7836 74.6799C58.3277 74.4198 57.9765 74.0524 57.7298 73.5778C57.4831 73.1005 57.3598 72.5361 57.3598 71.8845C57.3598 71.249 57.4831 70.6913 57.7298 70.2114C57.9765 69.7314 58.3237 69.3573 58.7715 69.0892C59.222 68.8211 59.7502 68.687 60.3562 68.687C60.7638 68.687 61.1432 68.7527 61.4944 68.8841C61.8484 69.0128 62.1567 69.2072 62.4195 69.4673C62.685 69.7274 62.8914 70.0545 63.0389 70.4487C63.1864 70.8401 63.2601 71.2987 63.2601 71.8242V72.2948H58.0435V71.233H61.6473C61.6473 70.9863 61.5936 70.7677 61.4864 70.5774C61.3791 70.387 61.2303 70.2382 61.0399 70.1309C60.8522 70.021 60.6337 69.966 60.3843 69.966C60.1243 69.966 59.8937 70.0263 59.6926 70.147C59.4941 70.265 59.3386 70.4245 59.226 70.6256C59.1134 70.8241 59.0557 71.0453 59.053 71.2893V72.2988C59.053 72.6045 59.1094 72.8686 59.222 73.0911C59.3373 73.3137 59.4995 73.4853 59.7086 73.606C59.9178 73.7266 60.1658 73.787 60.4527 73.787C60.6431 73.787 60.8174 73.7601 60.9756 73.7065C61.1338 73.6529 61.2692 73.5725 61.3818 73.4652C61.4944 73.3579 61.5802 73.2266 61.6392 73.071L63.2239 73.1756C63.1435 73.5564 62.9786 73.8889 62.7292 74.1731C62.4825 74.4546 62.1634 74.6745 61.772 74.8327C61.3832 74.9882 60.934 75.066 60.4246 75.066ZM67.551 68.7674V70.0545H63.8306V68.7674H67.551ZM64.6752 67.2873H66.3886V73.0469C66.3886 73.2051 66.4128 73.3284 66.461 73.4169C66.5093 73.5027 66.5763 73.5631 66.6621 73.5979C66.7506 73.6328 66.8525 73.6502 66.9678 73.6502C67.0482 73.6502 67.1287 73.6435 67.2091 73.6301C67.2896 73.614 67.3512 73.6019 67.3941 73.5939L67.6636 74.8689C67.5778 74.8957 67.4572 74.9265 67.3016 74.9614C67.1461 74.9989 66.9571 75.0217 66.7345 75.0298C66.3216 75.0459 65.9596 74.9909 65.6486 74.8649C65.3402 74.7388 65.1002 74.5431 64.9286 74.2777C64.757 74.0122 64.6726 73.677 64.6752 73.2721V67.2873ZM70.3155 75.062C69.9214 75.062 69.5701 74.9936 69.2617 74.8568C68.9534 74.7174 68.7094 74.5123 68.5297 74.2415C68.3528 73.968 68.2643 73.6274 68.2643 73.2199C68.2643 72.8766 68.3273 72.5884 68.4533 72.3551C68.5793 72.1218 68.7509 71.9341 68.9681 71.792C69.1853 71.6499 69.432 71.5427 69.7082 71.4703C69.987 71.3979 70.2793 71.3469 70.585 71.3174C70.9443 71.2799 71.2339 71.245 71.4538 71.2128C71.6736 71.178 71.8332 71.127 71.9324 71.06C72.0316 70.993 72.0812 70.8938 72.0812 70.7624V70.7382C72.0812 70.4835 72.0008 70.2864 71.8399 70.147C71.6817 70.0076 71.4564 69.9379 71.1642 69.9379C70.8558 69.9379 70.6105 70.0062 70.4281 70.143C70.2458 70.2771 70.1251 70.446 70.0661 70.6498L68.4815 70.5211C68.5619 70.1457 68.7201 69.8212 68.9561 69.5477C69.192 69.2715 69.4964 69.0597 69.8691 68.9122C70.2445 68.7621 70.6788 68.687 71.1722 68.687C71.5154 68.687 71.8439 68.7272 72.1576 68.8077C72.474 68.8881 72.7542 69.0128 72.9982 69.1817C73.2449 69.3506 73.4393 69.5678 73.5814 69.8333C73.7235 70.0961 73.7946 70.4111 73.7946 70.7785V74.9453H72.1697V74.0886H72.1214C72.0222 74.2817 71.8895 74.4519 71.7232 74.5994C71.557 74.7442 71.3572 74.8582 71.1239 74.9413C70.8907 75.0217 70.6212 75.062 70.3155 75.062ZM70.8062 73.8795C71.0583 73.8795 71.2808 73.8299 71.4739 73.7307C71.6669 73.6288 71.8184 73.492 71.9284 73.3204C72.0383 73.1488 72.0933 72.9544 72.0933 72.7372V72.0816C72.0396 72.1165 71.9659 72.1486 71.872 72.1781C71.7809 72.205 71.6776 72.2304 71.5623 72.2546C71.447 72.276 71.3318 72.2961 71.2165 72.3149C71.1012 72.331 70.9966 72.3457 70.9027 72.3591C70.7016 72.3886 70.526 72.4356 70.3758 72.4999C70.2257 72.5643 70.109 72.6514 70.0259 72.7613C69.9428 72.8686 69.9012 73.0027 69.9012 73.1635C69.9012 73.3968 69.9857 73.5751 70.1546 73.6985C70.3262 73.8191 70.5434 73.8795 70.8062 73.8795Z" fill="#121723"/>
<path d="M13.9097 93.5957C13.9097 89.1774 17.4914 85.5957 21.9097 85.5957H79.5293C83.9476 85.5957 87.5293 89.1774 87.5293 93.5957V104.023C87.5293 108.442 83.9476 112.023 79.5293 112.023H21.9097C17.4914 112.023 13.9097 108.442 13.9097 104.023V93.5957Z" fill="white"/>
<rect x="27.6969" y="90.7859" width="16.0453" height="16.0453" rx="8.02265" fill="white"/>
<rect x="27.6969" y="90.7859" width="16.0453" height="16.0453" rx="8.02265" fill="#DD38FF"/>
<rect x="27.6969" y="90.7859" width="16.0453" height="16.0453" rx="8.02265" stroke="white" stroke-width="0.943841"/>
<path d="M32.3243 98.7768L33.0404 98.9542C33.0748 98.9198 33.1114 98.8875 33.1501 98.8574C33.1888 98.8252 33.2329 98.7972 33.2824 98.7736C33.3319 98.7499 33.3888 98.7305 33.4534 98.7155C33.5179 98.7004 33.5942 98.6929 33.6824 98.6929C33.8136 98.6929 33.9276 98.7133 34.0244 98.7542C34.1212 98.7951 34.2018 98.8531 34.2663 98.9284C34.3308 99.0037 34.3782 99.094 34.4083 99.1994C34.4405 99.3026 34.4567 99.4166 34.4567 99.5414C34.4567 99.6682 34.4438 99.7865 34.4179 99.8962C34.3943 100.006 34.3567 100.101 34.305 100.18C34.2513 100.26 34.1814 100.322 34.0953 100.367C34.0115 100.412 33.9093 100.435 33.7889 100.435C33.5932 100.435 33.4319 100.379 33.305 100.267C33.1802 100.155 33.1071 99.9973 33.0856 99.793H32.2017C32.2081 100.01 32.2565 100.204 32.3468 100.374C32.4393 100.541 32.5587 100.683 32.7049 100.8C32.8512 100.916 33.0179 101.004 33.205 101.064C33.3942 101.124 33.5899 101.154 33.7921 101.154C34.0588 101.154 34.29 101.112 34.4857 101.029C34.6814 100.945 34.8438 100.831 34.9728 100.687C35.1019 100.542 35.1976 100.376 35.2599 100.187C35.3223 99.9973 35.3535 99.7973 35.3535 99.5865C35.3535 99.3392 35.3212 99.1177 35.2567 98.922C35.1922 98.7262 35.0997 98.5606 34.9793 98.4252C34.8567 98.2897 34.7061 98.1864 34.5276 98.1155C34.3513 98.0423 34.1502 98.0058 33.9244 98.0058C33.7652 98.0058 33.6243 98.0262 33.5018 98.0671C33.3792 98.1079 33.2845 98.1477 33.2179 98.1864L33.3308 97.1541H35.1986V96.3928H32.592L32.3243 98.7768ZM36.1469 98.7768L36.8631 98.9542C36.8975 98.9198 36.9341 98.8875 36.9728 98.8574C37.0115 98.8252 37.0556 98.7972 37.105 98.7736C37.1545 98.7499 37.2115 98.7305 37.276 98.7155C37.3405 98.7004 37.4169 98.6929 37.5051 98.6929C37.6363 98.6929 37.7502 98.7133 37.847 98.7542C37.9438 98.7951 38.0245 98.8531 38.089 98.9284C38.1535 99.0037 38.2008 99.094 38.2309 99.1994C38.2632 99.3026 38.2793 99.4166 38.2793 99.5414C38.2793 99.6682 38.2664 99.7865 38.2406 99.8962C38.2169 100.006 38.1793 100.101 38.1277 100.18C38.0739 100.26 38.004 100.322 37.918 100.367C37.8341 100.412 37.732 100.435 37.6115 100.435C37.4158 100.435 37.2545 100.379 37.1276 100.267C37.0029 100.155 36.9298 99.9973 36.9083 99.793H36.0243C36.0308 100.01 36.0792 100.204 36.1695 100.374C36.262 100.541 36.3813 100.683 36.5276 100.8C36.6738 100.916 36.8405 101.004 37.0276 101.064C37.2169 101.124 37.4126 101.154 37.6147 101.154C37.8814 101.154 38.1126 101.112 38.3083 101.029C38.5041 100.945 38.6664 100.831 38.7955 100.687C38.9245 100.542 39.0202 100.376 39.0826 100.187C39.145 99.9973 39.1761 99.7973 39.1761 99.5865C39.1761 99.3392 39.1439 99.1177 39.0794 98.922C39.0148 98.7262 38.9224 98.5606 38.8019 98.4252C38.6793 98.2897 38.5288 98.1864 38.3503 98.1155C38.1739 98.0423 37.9728 98.0058 37.747 98.0058C37.5879 98.0058 37.447 98.0262 37.3244 98.0671C37.2018 98.1079 37.1072 98.1477 37.0405 98.1864L37.1534 97.1541H39.0213V96.3928H36.4147L36.1469 98.7768Z" fill="#8E00AC"/>
<rect x="23.9215" y="90.7859" width="16.0453" height="16.0453" rx="8.02265" fill="white"/>
<rect x="23.9215" y="90.7859" width="16.0453" height="16.0453" rx="8.02265" fill="#3AFF38"/>
<rect x="23.9215" y="90.7859" width="16.0453" height="16.0453" rx="8.02265" stroke="white" stroke-width="0.943841"/>
<path d="M30.7006 101.09V96.3928H30.6522L28.6069 97.1315V97.9122L29.7941 97.4864V101.09H30.7006ZM35.3975 101.09V100.37H33.3361L34.22 99.4349C34.3727 99.2779 34.5114 99.1284 34.6362 98.9865C34.7609 98.8424 34.8685 98.7015 34.9588 98.5639C35.047 98.4262 35.1147 98.2875 35.162 98.1477C35.2115 98.0058 35.2362 97.8574 35.2362 97.7025C35.2362 97.4982 35.204 97.3122 35.1394 97.1444C35.0749 96.9745 34.9814 96.8293 34.8588 96.7089C34.734 96.5885 34.5792 96.4949 34.3942 96.4282C34.2114 96.3616 34.0007 96.3282 33.7619 96.3282C33.5125 96.3282 33.2845 96.3691 33.078 96.4508C32.8737 96.5304 32.6995 96.6401 32.5554 96.7799C32.4092 96.9197 32.2962 97.0831 32.2167 97.2702C32.1371 97.4552 32.0973 97.652 32.0973 97.8606H32.9974C32.9974 97.7337 33.0135 97.6208 33.0458 97.5219C33.078 97.4229 33.1253 97.3401 33.1877 97.2735C33.2479 97.2089 33.3232 97.1606 33.4135 97.1283C33.506 97.0939 33.6125 97.0767 33.7329 97.0767C33.8254 97.0767 33.9093 97.0917 33.9845 97.1218C34.062 97.1519 34.1286 97.195 34.1845 97.2509C34.2383 97.3089 34.2802 97.3788 34.3104 97.4606C34.3405 97.5423 34.3555 97.6359 34.3555 97.7412C34.3555 97.8122 34.3437 97.8853 34.32 97.9606C34.2985 98.0359 34.263 98.1165 34.2136 98.2026C34.162 98.2907 34.0953 98.3875 34.0136 98.4929C33.9318 98.5983 33.8318 98.7155 33.7135 98.8445L32.1941 100.477V101.09H35.3975Z" fill="#03B600"/>
<path d="M47.5734 101.309V96.5036H50.5531V97.1277H48.2984V98.5917H50.3396V99.2134H48.2984V101.309H47.5734ZM52.4242 101.388C52.1958 101.388 51.9894 101.346 51.8048 101.262C51.6202 101.176 51.474 101.051 51.3661 100.889C51.2597 100.726 51.2065 100.527 51.2065 100.29C51.2065 100.087 51.2456 99.9196 51.3238 99.7883C51.402 99.6569 51.5076 99.5529 51.6406 99.4762C51.7735 99.3996 51.9221 99.3417 52.0863 99.3026C52.2506 99.2635 52.4179 99.2338 52.5884 99.2134C52.8043 99.1884 52.9795 99.1681 53.114 99.1524C53.2485 99.1352 53.3462 99.1079 53.4072 99.0703C53.4682 99.0328 53.4987 98.9718 53.4987 98.8873V98.8709C53.4987 98.666 53.4409 98.5072 53.3251 98.3946C53.2109 98.282 53.0405 98.2257 52.8137 98.2257C52.5775 98.2257 52.3913 98.2781 52.2553 98.3829C52.1207 98.4861 52.0277 98.6011 51.9761 98.7278L51.3168 98.5776C51.395 98.3586 51.5092 98.1819 51.6593 98.0474C51.811 97.9113 51.9854 97.8128 52.1825 97.7518C52.3796 97.6892 52.5869 97.6579 52.8043 97.6579C52.9482 97.6579 53.1007 97.6751 53.2618 97.7095C53.4244 97.7424 53.5762 97.8034 53.7169 97.8925C53.8593 97.9817 53.9758 98.1092 54.0665 98.275C54.1572 98.4392 54.2026 98.6527 54.2026 98.9155V101.309H53.5175V100.816H53.4894C53.444 100.907 53.376 100.996 53.2852 101.083C53.1945 101.171 53.078 101.244 52.9357 101.302C52.7933 101.359 52.6228 101.388 52.4242 101.388ZM52.5767 100.825C52.7706 100.825 52.9364 100.787 53.0741 100.71C53.2133 100.634 53.3189 100.534 53.3908 100.41C53.4643 100.285 53.5011 100.151 53.5011 100.009V99.5443C53.4761 99.5693 53.4276 99.5927 53.3556 99.6146C53.2852 99.635 53.2047 99.653 53.114 99.6686C53.0232 99.6827 52.9349 99.696 52.8488 99.7085C52.7628 99.7194 52.6909 99.7288 52.633 99.7366C52.4969 99.7538 52.3726 99.7828 52.26 99.8235C52.1489 99.8641 52.0597 99.9228 51.9925 99.9994C51.9268 100.074 51.8939 100.175 51.8939 100.3C51.8939 100.473 51.9581 100.605 52.0863 100.694C52.2146 100.781 52.378 100.825 52.5767 100.825ZM58.0908 97.7048L56.784 101.309H56.0332L54.724 97.7048H55.4772L56.3898 100.478H56.4274L57.3377 97.7048H58.0908ZM60.1455 101.381C59.8077 101.381 59.5128 101.304 59.261 101.149C59.0092 100.994 58.8137 100.778 58.6745 100.499C58.5352 100.221 58.4656 99.8954 58.4656 99.5231C58.4656 99.1493 58.5352 98.8224 58.6745 98.5424C58.8137 98.2624 59.0092 98.045 59.261 97.8902C59.5128 97.7353 59.8077 97.6579 60.1455 97.6579C60.4834 97.6579 60.7782 97.7353 61.03 97.8902C61.2819 98.045 61.4774 98.2624 61.6166 98.5424C61.7558 98.8224 61.8254 99.1493 61.8254 99.5231C61.8254 99.8954 61.7558 100.221 61.6166 100.499C61.4774 100.778 61.2819 100.994 61.03 101.149C60.7782 101.304 60.4834 101.381 60.1455 101.381ZM60.1479 100.792C60.3668 100.792 60.5483 100.735 60.6922 100.619C60.8361 100.503 60.9424 100.349 61.0113 100.157C61.0817 99.9642 61.1168 99.7523 61.1168 99.5208C61.1168 99.2909 61.0817 99.0797 61.0113 98.8873C60.9424 98.6934 60.8361 98.5377 60.6922 98.4204C60.5483 98.3031 60.3668 98.2445 60.1479 98.2445C59.9273 98.2445 59.7443 98.3031 59.5989 98.4204C59.455 98.5377 59.3478 98.6934 59.2774 98.8873C59.2086 99.0797 59.1742 99.2909 59.1742 99.5208C59.1742 99.7523 59.2086 99.9642 59.2774 100.157C59.3478 100.349 59.455 100.503 59.5989 100.619C59.7443 100.735 59.9273 100.792 60.1479 100.792ZM62.6084 101.309V97.7048H63.2865V98.2773H63.324C63.3897 98.0834 63.5055 97.9309 63.6713 97.8198C63.8386 97.7072 64.0279 97.6509 64.239 97.6509C64.2828 97.6509 64.3345 97.6524 64.3939 97.6556C64.4549 97.6587 64.5026 97.6626 64.537 97.6673V98.3383C64.5089 98.3305 64.4588 98.3219 64.3869 98.3125C64.3149 98.3016 64.243 98.2961 64.171 98.2961C64.0052 98.2961 63.8574 98.3313 63.7276 98.4017C63.5993 98.4705 63.4976 98.5667 63.4226 98.6902C63.3475 98.8122 63.31 98.9514 63.31 99.1079V101.309H62.6084ZM65.1441 101.309V97.7048H65.8456V101.309H65.1441ZM65.4984 97.1488C65.3764 97.1488 65.2716 97.1081 65.184 97.0268C65.0979 96.9439 65.0549 96.8453 65.0549 96.7312C65.0549 96.6154 65.0979 96.5169 65.184 96.4355C65.2716 96.3526 65.3764 96.3112 65.4984 96.3112C65.6204 96.3112 65.7244 96.3526 65.8104 96.4355C65.898 96.5169 65.9418 96.6154 65.9418 96.7312C65.9418 96.8453 65.898 96.9439 65.8104 97.0268C65.7244 97.1081 65.6204 97.1488 65.4984 97.1488ZM68.4716 97.7048V98.2679H66.5031V97.7048H68.4716ZM67.031 96.8414H67.7325V100.25C67.7325 100.387 67.7529 100.489 67.7935 100.558C67.8342 100.625 67.8866 100.671 67.9507 100.696C68.0164 100.72 68.0876 100.731 68.1642 100.731C68.2205 100.731 68.2698 100.728 68.312 100.72C68.3543 100.712 68.3871 100.706 68.4106 100.701L68.5373 101.28C68.4966 101.296 68.4387 101.312 68.3637 101.327C68.2886 101.345 68.1947 101.354 68.0821 101.356C67.8975 101.359 67.7255 101.326 67.566 101.257C67.4064 101.188 67.2774 101.082 67.1788 100.938C67.0803 100.794 67.031 100.613 67.031 100.396V96.8414ZM70.7621 101.381C70.407 101.381 70.1012 101.305 69.8447 101.154C69.5897 101 69.3927 100.785 69.2535 100.509C69.1158 100.23 69.047 99.904 69.047 99.5302C69.047 99.161 69.1158 98.8357 69.2535 98.5542C69.3927 98.2726 69.5866 98.0529 69.8353 97.8949C70.0856 97.7369 70.3781 97.6579 70.7128 97.6579C70.9161 97.6579 71.1132 97.6915 71.304 97.7588C71.4949 97.8261 71.6661 97.9316 71.8178 98.0755C71.9696 98.2194 72.0892 98.4063 72.1768 98.6363C72.2644 98.8646 72.3082 99.1423 72.3082 99.4692V99.7179H69.4435V99.1923H71.6208C71.6208 99.0078 71.5832 98.8443 71.5081 98.702C71.4331 98.5581 71.3275 98.4447 71.1914 98.3618C71.0569 98.2789 70.8989 98.2374 70.7175 98.2374C70.5204 98.2374 70.3483 98.2859 70.2013 98.3829C70.0559 98.4783 69.9432 98.6034 69.8635 98.7583C69.7853 98.9116 69.7462 99.0781 69.7462 99.258V99.6686C69.7462 99.9095 69.7884 100.114 69.8728 100.283C69.9589 100.452 70.0785 100.581 70.2318 100.67C70.3851 100.758 70.5642 100.802 70.7691 100.802C70.902 100.802 71.0233 100.783 71.1328 100.746C71.2422 100.706 71.3369 100.649 71.4166 100.572C71.4964 100.495 71.5574 100.401 71.5996 100.288L72.2636 100.408C72.2104 100.603 72.115 100.774 71.9774 100.921C71.8413 101.067 71.67 101.18 71.4636 101.262C71.2587 101.341 71.0248 101.381 70.7621 101.381ZM75.787 98.5847L75.1512 98.6973C75.1246 98.6159 75.0824 98.5385 75.0245 98.465C74.9682 98.3915 74.8916 98.3313 74.7946 98.2843C74.6976 98.2374 74.5764 98.214 74.4309 98.214C74.2323 98.214 74.0665 98.2585 73.9335 98.3477C73.8006 98.4353 73.7341 98.5487 73.7341 98.6879C73.7341 98.8083 73.7787 98.9053 73.8678 98.9788C73.957 99.0523 74.1009 99.1126 74.2995 99.1595L74.872 99.2909C75.2036 99.3675 75.4507 99.4856 75.6134 99.6451C75.7761 99.8047 75.8574 100.012 75.8574 100.267C75.8574 100.483 75.7948 100.675 75.6697 100.844C75.5461 101.011 75.3733 101.143 75.1512 101.238C74.9307 101.334 74.6749 101.381 74.384 101.381C73.9805 101.381 73.6512 101.295 73.3962 101.123C73.1413 100.95 72.9849 100.703 72.927 100.384L73.6051 100.281C73.6473 100.458 73.7341 100.591 73.8655 100.682C73.9969 100.771 74.1681 100.816 74.3793 100.816C74.6092 100.816 74.793 100.768 74.9307 100.673C75.0683 100.576 75.1371 100.458 75.1371 100.318C75.1371 100.206 75.0949 100.111 75.0104 100.035C74.9275 99.958 74.8001 99.9001 74.628 99.861L74.018 99.7273C73.6817 99.6506 73.433 99.5286 73.2719 99.3613C73.1124 99.1939 73.0326 98.9819 73.0326 98.7254C73.0326 98.5127 73.092 98.3266 73.2109 98.167C73.3298 98.0075 73.494 97.8831 73.7036 97.794C73.9132 97.7033 74.1533 97.6579 74.4239 97.6579C74.8134 97.6579 75.1199 97.7424 75.3436 97.9113C75.5673 98.0787 75.7151 98.3031 75.787 98.5847Z" fill="#145DFF"/>
<path d="M95.0793 93.5957C95.0793 89.1774 98.6611 85.5957 103.079 85.5957H160.699C165.117 85.5957 168.699 89.1774 168.699 93.5957V104.023C168.699 108.442 165.117 112.023 160.699 112.023H103.079C98.6611 112.023 95.0793 108.442 95.0793 104.023V93.5957Z" fill="white"/>
<rect x="111.867" y="90.7859" width="16.0453" height="16.0453" rx="8.02265" fill="white"/>
<rect x="111.867" y="90.7859" width="16.0453" height="16.0453" rx="8.02265" fill="#FF4034"/>
<rect x="111.867" y="90.7859" width="16.0453" height="16.0453" rx="8.02265" stroke="white" stroke-width="0.943841"/>
<path d="M116.494 98.7768L117.21 98.9542C117.245 98.9198 117.281 98.8875 117.32 98.8574C117.359 98.8252 117.403 98.7972 117.452 98.7736C117.502 98.7499 117.559 98.7305 117.623 98.7155C117.688 98.7004 117.764 98.6929 117.852 98.6929C117.983 98.6929 118.097 98.7133 118.194 98.7542C118.291 98.7951 118.371 98.8531 118.436 98.9284C118.501 99.0037 118.548 99.094 118.578 99.1994C118.61 99.3026 118.626 99.4166 118.626 99.5414C118.626 99.6682 118.613 99.7865 118.588 99.8962C118.564 100.006 118.526 100.101 118.475 100.18C118.421 100.26 118.351 100.322 118.265 100.367C118.181 100.412 118.079 100.435 117.959 100.435C117.763 100.435 117.602 100.379 117.475 100.267C117.35 100.155 117.277 99.9973 117.255 99.793H116.371C116.378 100.01 116.426 100.204 116.517 100.374C116.609 100.541 116.728 100.683 116.875 100.8C117.021 100.916 117.188 101.004 117.375 101.064C117.564 101.124 117.76 101.154 117.962 101.154C118.228 101.154 118.46 101.112 118.655 101.029C118.851 100.945 119.013 100.831 119.142 100.687C119.272 100.542 119.367 100.376 119.43 100.187C119.492 99.9973 119.523 99.7973 119.523 99.5865C119.523 99.3392 119.491 99.1177 119.426 98.922C119.362 98.7262 119.269 98.5606 119.149 98.4252C119.026 98.2897 118.876 98.1864 118.697 98.1155C118.521 98.0423 118.32 98.0058 118.094 98.0058C117.935 98.0058 117.794 98.0262 117.671 98.0671C117.549 98.1079 117.454 98.1477 117.388 98.1864L117.5 97.1541H119.368V96.3928H116.762L116.494 98.7768ZM120.317 98.7768L121.033 98.9542C121.067 98.9198 121.104 98.8875 121.142 98.8574C121.181 98.8252 121.225 98.7972 121.275 98.7736C121.324 98.7499 121.381 98.7305 121.446 98.7155C121.51 98.7004 121.587 98.6929 121.675 98.6929C121.806 98.6929 121.92 98.7133 122.017 98.7542C122.113 98.7951 122.194 98.8531 122.259 98.9284C122.323 99.0037 122.37 99.094 122.401 99.1994C122.433 99.3026 122.449 99.4166 122.449 99.5414C122.449 99.6682 122.436 99.7865 122.41 99.8962C122.387 100.006 122.349 100.101 122.297 100.18C122.244 100.26 122.174 100.322 122.088 100.367C122.004 100.412 121.902 100.435 121.781 100.435C121.585 100.435 121.424 100.379 121.297 100.267C121.173 100.155 121.099 99.9973 121.078 99.793H120.194C120.2 100.01 120.249 100.204 120.339 100.374C120.432 100.541 120.551 100.683 120.697 100.8C120.844 100.916 121.01 101.004 121.197 101.064C121.387 101.124 121.582 101.154 121.784 101.154C122.051 101.154 122.282 101.112 122.478 101.029C122.674 100.945 122.836 100.831 122.965 100.687C123.094 100.542 123.19 100.376 123.252 100.187C123.315 99.9973 123.346 99.7973 123.346 99.5865C123.346 99.3392 123.314 99.1177 123.249 98.922C123.185 98.7262 123.092 98.5606 122.972 98.4252C122.849 98.2897 122.698 98.1864 122.52 98.1155C122.344 98.0423 122.143 98.0058 121.917 98.0058C121.758 98.0058 121.617 98.0262 121.494 98.0671C121.371 98.1079 121.277 98.1477 121.21 98.1864L121.323 97.1541H123.191V96.3928H120.584L120.317 98.7768Z" fill="#B80B00"/>
<rect x="108.091" y="90.7859" width="16.0453" height="16.0453" rx="8.02265" fill="white"/>
<rect x="108.091" y="90.7859" width="16.0453" height="16.0453" rx="8.02265" fill="#FFFF35"/>
<rect x="108.091" y="90.7859" width="16.0453" height="16.0453" rx="8.02265" stroke="white" stroke-width="0.943841"/>
<path d="M113.577 98.3477V99.0445H114.064C114.186 99.0445 114.296 99.0585 114.393 99.0865C114.492 99.1144 114.577 99.1575 114.648 99.2155C114.717 99.2736 114.769 99.3478 114.806 99.4381C114.842 99.5285 114.861 99.6371 114.861 99.7639C114.861 99.865 114.844 99.9564 114.812 100.038C114.782 100.12 114.737 100.189 114.677 100.245C114.614 100.307 114.537 100.354 114.444 100.387C114.352 100.419 114.248 100.435 114.132 100.435C114.028 100.435 113.934 100.42 113.848 100.39C113.762 100.358 113.687 100.313 113.625 100.258C113.561 100.204 113.511 100.139 113.477 100.064C113.442 99.9865 113.425 99.9027 113.425 99.8123H112.528C112.528 100.04 112.572 100.238 112.66 100.406C112.751 100.574 112.87 100.712 113.019 100.822C113.167 100.934 113.336 101.018 113.525 101.074C113.716 101.127 113.912 101.154 114.112 101.154C114.344 101.154 114.561 101.124 114.761 101.064C114.963 101.002 115.137 100.911 115.283 100.793C115.429 100.677 115.545 100.533 115.628 100.361C115.712 100.189 115.754 99.993 115.754 99.7736C115.754 99.6489 115.739 99.5306 115.709 99.4188C115.679 99.3069 115.633 99.2037 115.57 99.1091C115.508 99.0166 115.428 98.9338 115.332 98.8607C115.237 98.7875 115.124 98.7273 114.993 98.68C115.105 98.6262 115.204 98.5628 115.29 98.4897C115.376 98.4144 115.448 98.3327 115.506 98.2445C115.564 98.1563 115.608 98.0638 115.638 97.9671C115.668 97.8681 115.683 97.7681 115.683 97.667C115.683 97.4477 115.645 97.2552 115.567 97.0896C115.492 96.9218 115.385 96.781 115.248 96.667C115.11 96.5551 114.944 96.4713 114.751 96.4153C114.557 96.3573 114.344 96.3282 114.112 96.3282C113.897 96.3282 113.696 96.3594 113.509 96.4218C113.324 96.4842 113.163 96.5713 113.025 96.6831C112.887 96.7971 112.779 96.9326 112.699 97.0896C112.622 97.2466 112.583 97.4208 112.583 97.6122H113.48C113.48 97.5262 113.497 97.4487 113.532 97.3799C113.566 97.3111 113.613 97.252 113.673 97.2025C113.732 97.1552 113.799 97.1186 113.877 97.0928C113.956 97.067 114.041 97.0541 114.132 97.0541C114.241 97.0541 114.337 97.0691 114.419 97.0993C114.503 97.1294 114.571 97.1713 114.625 97.2251C114.679 97.281 114.719 97.3477 114.744 97.4251C114.772 97.5004 114.786 97.5842 114.786 97.6767C114.786 97.7713 114.772 97.8595 114.744 97.9412C114.719 98.0208 114.679 98.0886 114.625 98.1445C114.567 98.209 114.491 98.2595 114.396 98.2961C114.304 98.3305 114.193 98.3477 114.064 98.3477H113.577ZM116.541 98.7768L117.257 98.9542C117.292 98.9198 117.328 98.8875 117.367 98.8574C117.406 98.8252 117.45 98.7972 117.499 98.7736C117.549 98.7499 117.606 98.7305 117.67 98.7155C117.735 98.7004 117.811 98.6929 117.899 98.6929C118.031 98.6929 118.145 98.7133 118.241 98.7542C118.338 98.7951 118.419 98.8531 118.483 98.9284C118.548 99.0037 118.595 99.094 118.625 99.1994C118.657 99.3026 118.674 99.4166 118.674 99.5414C118.674 99.6682 118.661 99.7865 118.635 99.8962C118.611 100.006 118.574 100.101 118.522 100.18C118.468 100.26 118.398 100.322 118.312 100.367C118.228 100.412 118.126 100.435 118.006 100.435C117.81 100.435 117.649 100.379 117.522 100.267C117.397 100.155 117.324 99.9973 117.303 99.793H116.419C116.425 100.01 116.473 100.204 116.564 100.374C116.656 100.541 116.776 100.683 116.922 100.8C117.068 100.916 117.235 101.004 117.422 101.064C117.611 101.124 117.807 101.154 118.009 101.154C118.276 101.154 118.507 101.112 118.703 101.029C118.898 100.945 119.061 100.831 119.19 100.687C119.319 100.542 119.415 100.376 119.477 100.187C119.539 99.9973 119.57 99.7973 119.57 99.5865C119.57 99.3392 119.538 99.1177 119.474 98.922C119.409 98.7262 119.317 98.5606 119.196 98.4252C119.074 98.2897 118.923 98.1864 118.745 98.1155C118.568 98.0423 118.367 98.0058 118.141 98.0058C117.982 98.0058 117.841 98.0262 117.719 98.0671C117.596 98.1079 117.501 98.1477 117.435 98.1864L117.548 97.1541H119.416V96.3928H116.809L116.541 98.7768Z" fill="#A8A800"/>
<path d="M131.743 101.309V96.5036H134.723V97.1277H132.468V98.5917H134.509V99.2134H132.468V101.309H131.743ZM136.811 101.381C136.474 101.381 136.179 101.304 135.927 101.149C135.675 100.994 135.48 100.778 135.34 100.499C135.201 100.221 135.132 99.8954 135.132 99.5231C135.132 99.1493 135.201 98.8224 135.34 98.5424C135.48 98.2624 135.675 98.045 135.927 97.8902C136.179 97.7353 136.474 97.6579 136.811 97.6579C137.149 97.6579 137.444 97.7353 137.696 97.8902C137.948 98.045 138.143 98.2624 138.283 98.5424C138.422 98.8224 138.491 99.1493 138.491 99.5231C138.491 99.8954 138.422 100.221 138.283 100.499C138.143 100.778 137.948 100.994 137.696 101.149C137.444 101.304 137.149 101.381 136.811 101.381ZM136.814 100.792C137.033 100.792 137.214 100.735 137.358 100.619C137.502 100.503 137.608 100.349 137.677 100.157C137.748 99.9642 137.783 99.7523 137.783 99.5208C137.783 99.2909 137.748 99.0797 137.677 98.8873C137.608 98.6934 137.502 98.5377 137.358 98.4204C137.214 98.3031 137.033 98.2445 136.814 98.2445C136.593 98.2445 136.41 98.3031 136.265 98.4204C136.121 98.5377 136.014 98.6934 135.943 98.8873C135.875 99.0797 135.84 99.2909 135.84 99.5208C135.84 99.7523 135.875 99.9642 135.943 100.157C136.014 100.349 136.121 100.503 136.265 100.619C136.41 100.735 136.593 100.792 136.814 100.792ZM139.274 101.309V97.7048H139.952V98.2773H139.99C140.056 98.0834 140.171 97.9309 140.337 97.8198C140.505 97.7072 140.694 97.6509 140.905 97.6509C140.949 97.6509 141 97.6524 141.06 97.6556C141.121 97.6587 141.169 97.6626 141.203 97.6673V98.3383C141.175 98.3305 141.125 98.3219 141.053 98.3125C140.981 98.3016 140.909 98.2961 140.837 98.2961C140.671 98.2961 140.523 98.3313 140.394 98.4017C140.265 98.4705 140.164 98.5667 140.089 98.6902C140.013 98.8122 139.976 98.9514 139.976 99.1079V101.309H139.274ZM143.244 96.5036H144.068L145.323 98.6879H145.375L146.63 96.5036H147.453L145.71 99.4223V101.309H144.987V99.4223L143.244 96.5036ZM149.006 101.381C148.668 101.381 148.373 101.304 148.121 101.149C147.869 100.994 147.674 100.778 147.535 100.499C147.396 100.221 147.326 99.8954 147.326 99.5231C147.326 99.1493 147.396 98.8224 147.535 98.5424C147.674 98.2624 147.869 98.045 148.121 97.8902C148.373 97.7353 148.668 97.6579 149.006 97.6579C149.344 97.6579 149.639 97.7353 149.89 97.8902C150.142 98.045 150.338 98.2624 150.477 98.5424C150.616 98.8224 150.686 99.1493 150.686 99.5231C150.686 99.8954 150.616 100.221 150.477 100.499C150.338 100.778 150.142 100.994 149.89 101.149C149.639 101.304 149.344 101.381 149.006 101.381ZM149.008 100.792C149.227 100.792 149.409 100.735 149.552 100.619C149.696 100.503 149.803 100.349 149.872 100.157C149.942 99.9642 149.977 99.7523 149.977 99.5208C149.977 99.2909 149.942 99.0797 149.872 98.8873C149.803 98.6934 149.696 98.5377 149.552 98.4204C149.409 98.3031 149.227 98.2445 149.008 98.2445C148.788 98.2445 148.605 98.3031 148.459 98.4204C148.315 98.5377 148.208 98.6934 148.138 98.8873C148.069 99.0797 148.035 99.2909 148.035 99.5208C148.035 99.7523 148.069 99.9642 148.138 100.157C148.208 100.349 148.315 100.503 148.459 100.619C148.605 100.735 148.788 100.792 149.008 100.792ZM153.752 99.8141V97.7048H154.455V101.309H153.766V100.685H153.728C153.645 100.877 153.512 101.037 153.329 101.165C153.148 101.292 152.922 101.356 152.651 101.356C152.42 101.356 152.215 101.305 152.037 101.203C151.86 101.1 151.721 100.947 151.619 100.746C151.519 100.544 151.469 100.294 151.469 99.9971V97.7048H152.17V99.9126C152.17 100.158 152.238 100.354 152.374 100.499C152.51 100.645 152.687 100.717 152.905 100.717C153.036 100.717 153.167 100.685 153.296 100.619C153.428 100.553 153.537 100.454 153.623 100.321C153.71 100.188 153.753 100.019 153.752 99.8141Z" fill="#145DFF"/>
</g>
<rect width="169.891" height="33.9783" transform="translate(2.5835 17.6426)" fill="#F2F1F6"/>
<g clip-path="url(#clip2_3062_76917)">
<path d="M33.6714 43.0153C33.6714 43.8182 33.1023 44.3967 32.3407 44.3967C31.5791 44.3967 31.0109 43.8182 31.0109 43.0153C31.0109 42.2123 31.58 41.6348 32.3407 41.6348C33.1013 41.6348 33.6714 42.2236 33.6714 43.0153ZM26.6009 41.6348C25.8693 41.6348 25.3416 42.2133 25.3416 43.0153C25.3416 43.8173 25.8693 44.3967 26.6009 44.3967C27.3015 44.3967 27.8095 43.8182 27.8095 43.0153C27.8095 42.2123 27.3015 41.6348 26.6009 41.6348ZM15.3571 41.6348C14.6255 41.6348 14.0977 42.2236 14.0977 43.0153C14.0977 43.8069 14.6255 44.3967 15.3571 44.3967C16.0576 44.3967 16.5647 43.8276 16.5647 43.0153C16.5647 42.2236 16.0576 41.6348 15.3571 41.6348ZM33.075 47.8451H14.7044C10.7442 47.8451 8.66505 43.1439 11.3293 40.2139L19.9859 30.6952C20.4804 30.1514 21.0832 29.7169 21.7554 29.4196C22.4277 29.1223 23.1546 28.9687 23.8897 28.9688C24.6248 28.9687 25.3517 29.1223 26.024 29.4196C26.6963 29.7169 27.299 30.1514 27.7936 30.6952L36.4492 40.2139C39.1144 43.1439 37.0352 47.8451 33.075 47.8451ZM17.9255 40.4769H16.5957V41.0967C16.2304 40.6093 15.6003 40.3755 15.0115 40.3755C13.6103 40.3755 12.7173 41.5531 12.7173 43.0153C12.7173 44.4775 13.6103 45.656 15.0115 45.656C15.6003 45.656 16.2398 45.4325 16.5957 44.9451V45.5565H17.9255V40.4769ZM20.0018 40.4769H18.6402V45.5565H20.0018V40.4769ZM20.1239 39.0551C20.1229 38.84 20.037 38.6339 19.8849 38.4818C19.7328 38.3297 19.5267 38.2438 19.3116 38.2428C19.0979 38.2455 18.8938 38.3322 18.7435 38.4843C18.5933 38.6363 18.5089 38.8413 18.5087 39.0551C18.5109 39.2674 18.5962 39.4703 18.7463 39.6204C18.8964 39.7705 19.0993 39.8558 19.3116 39.858C19.5254 39.8578 19.7304 39.7734 19.8824 39.6232C20.0345 39.4729 20.1212 39.2688 20.1239 39.0551ZM23.7113 40.3802C22.6783 40.4243 22.1862 41.0507 22.0491 41.4517V40.4769H20.7127V45.5565H22.0735V43.6069C22.0735 42.4396 22.6154 41.8996 23.715 41.8639L23.7113 40.3802ZM29.1656 40.4741H27.8799V41.0836C27.5043 40.5962 26.8648 40.3727 26.2553 40.3727C24.8542 40.3727 23.9611 41.5503 23.9611 43.0021C23.9611 44.4746 24.8748 45.6532 26.276 45.6532C26.5659 45.6595 26.8537 45.6017 27.1188 45.484C27.3838 45.3663 27.6197 45.1916 27.8095 44.9724V46.8393L29.1693 46.4993L29.1656 40.4741ZM35.0584 43.0096C35.0584 41.5381 33.8611 40.3698 32.335 40.3698C30.8785 40.3698 29.6248 41.5381 29.6248 43.0096C29.6248 44.4812 30.8221 45.6504 32.335 45.6504C33.8479 45.6504 35.0584 44.4822 35.0584 43.0096Z" fill="#145DFF"/>
</g>
<rect x="146.156" y="28.9688" width="18.8768" height="18.8768" rx="3.77537" fill="white"/>
<circle cx="155.484" cy="38.2966" r="4.24189" stroke="#121723" stroke-width="0.943841" stroke-linecap="round" stroke-linejoin="round"/>
<path d="M158.435 41.4668L160.098 43.1255" stroke="#121723" stroke-width="0.943841" stroke-linecap="round" stroke-linejoin="round"/>
</g>
<rect x="1.5835" y="1.53906" width="178.768" height="335.333" rx="16.1015" stroke="#E0E4EB" stroke-width="2"/>
<defs>
<clipPath id="clip0_3062_76917">
<rect x="2.5835" y="2.53906" width="176.768" height="333.333" rx="15.1015" fill="white"/>
</clipPath>
<clipPath id="clip1_3062_76917">
<rect width="177.442" height="371.873" fill="white" transform="translate(2.5835 51.6172)"/>
</clipPath>
<clipPath id="clip2_3062_76917">
<rect width="27.5118" height="18.8768" fill="white" transform="translate(10.1343 28.9688)"/>
</clipPath>
</defs>
</svg>
