<svg width="531" height="341" viewBox="0 0 531 341" fill="none" xmlns="http://www.w3.org/2000/svg">
<path d="M299.221 288.834C257.888 290.973 91.7836 298.748 37.903 262.09C-15.9776 225.432 55.5687 148.156 92.9587 121.115C130.349 94.0736 192.108 48.2507 237.012 41.4698C281.917 34.689 357.86 48.4265 407.17 75.3218C456.481 102.217 485.387 152.085 483.905 185.479C482.423 218.872 432.242 269.224 384.688 279.074C356.618 284.967 327.992 288.236 299.221 288.834Z" fill="#EBFFF5"/>
<path d="M288.99 292.419L288.982 292.417L288.973 292.416C267.654 289.52 214.203 282.064 159.944 269.801C132.814 263.669 105.494 256.339 81.8941 247.78C58.2781 239.216 38.4509 229.445 26.2525 218.459C14.0982 207.513 10.3395 195.756 12.1047 183.992C13.8776 172.178 21.2364 160.263 31.5223 149.094C52.0895 126.76 84.1296 107.655 105.413 98.6112C107.133 97.88 108.899 97.128 110.707 96.3581C131.324 87.5788 157.394 76.4773 183.925 67.517C212.797 57.7659 242.138 50.5782 265.546 51.6448C288.989 52.7129 319.556 60.0005 350.031 71.3188C380.503 82.6357 410.834 97.9643 433.811 115.082C456.768 132.184 473.585 153.654 483.794 174.676C494.01 195.712 497.577 216.234 494.138 231.453C492.43 239.008 487.48 247.029 480.171 254.83C472.868 262.625 463.247 270.164 452.263 276.757C430.288 289.949 402.937 299.313 377.939 299.42L377.938 299.42C348.287 299.619 318.496 297.275 288.99 292.419Z" stroke="#0CE87E" stroke-width="1.227"/>
<circle cx="39.3848" cy="99" r="9" fill="#0CE87E"/>
<circle cx="191.385" cy="29" r="9" fill="#0CE87E"/>
<path d="M206 165.5L242.667 202L316 129" stroke="#0CE87E" stroke-width="30"/>
<circle cx="209.385" cy="313" r="9" fill="#0CE87E"/>
<circle cx="373.385" cy="138" r="9" fill="#0CE87E"/>
<circle cx="390.885" cy="25.5" r="3.5" fill="#0CE87E"/>
<circle cx="121.885" cy="71.5" r="3.5" fill="#0CE87E"/>
<circle cx="526.885" cy="64.5" r="3.5" fill="#0CE87E"/>
<circle cx="51.8848" cy="300.5" r="3.5" fill="#0CE87E"/>
<circle cx="81.8848" cy="179.5" r="3.5" fill="#0CE87E"/>
<circle cx="441.885" cy="270.5" r="3.5" fill="#0CE87E"/>
<circle cx="514.385" cy="251" r="9" fill="#0CE87E"/>
</svg>
