<svg width="36" height="36" viewBox="0 0 36 36" fill="none" xmlns="http://www.w3.org/2000/svg">
<rect x="0.5" y="0.5" width="35" height="35" rx="3.5" fill="white"/>
<path d="M16 12H20M12 14H24M22.6667 14L22.1991 21.0129C22.129 22.065 22.0939 22.5911 21.8667 22.99C21.6666 23.3412 21.3648 23.6235 21.0011 23.7998C20.588 24 20.0607 24 19.0062 24H16.9938C15.9393 24 15.412 24 14.9989 23.7998C14.6352 23.6235 14.3334 23.3412 14.1333 22.99C13.9061 22.5911 13.871 22.065 13.8009 21.0129L13.3333 14M16.6667 17V20.3333M19.3333 17V20.3333" stroke="#6F87A1" stroke-width="1.2" stroke-linecap="round" stroke-linejoin="round"/>
<rect x="0.5" y="0.5" width="35" height="35" rx="3.5" stroke="#E1E7EC"/>
</svg>
