<svg width="20" height="20" viewBox="0 0 20 20" fill="none" xmlns="http://www.w3.org/2000/svg">
<mask id="mask0_4962_41868" style="mask-type:alpha" maskUnits="userSpaceOnUse" x="0" y="0" width="20" height="20">
<rect width="20" height="20" fill="#D9D9D9"/>
</mask>
<g mask="url(#mask0_4962_41868)">
<path d="M9.83291 15.583C9.70825 15.583 9.60758 15.545 9.53091 15.469C9.45491 15.3923 9.41691 15.2987 9.41691 15.188V10.625L4.68791 4.91699C4.61791 4.80566 4.60725 4.69433 4.65591 4.58299C4.70458 4.47233 4.79158 4.41699 4.91691 4.41699H15.0829C15.2082 4.41699 15.2952 4.47233 15.3439 4.58299C15.3926 4.69433 15.3819 4.80566 15.3119 4.91699L10.5829 10.625V15.188C10.5829 15.2987 10.5449 15.3923 10.4689 15.469C10.3922 15.545 10.2986 15.583 10.1879 15.583H9.83291ZM9.99991 9.62499L13.3749 5.49999H6.60391L9.99991 9.62499Z" fill="#1C1B1F"/>
</g>
</svg>
