<svg width="16" height="16" viewBox="0 0 16 16" fill="none" xmlns="http://www.w3.org/2000/svg">
<path d="M7.52437 2.29912C7.67803 1.98783 7.75486 1.83218 7.85916 1.78245C7.9499 1.73918 8.05533 1.73918 8.14607 1.78245C8.25037 1.83218 8.3272 1.98783 8.48086 2.29912L9.93864 5.25243C9.98401 5.34433 10.0067 5.39028 10.0398 5.42596C10.0692 5.45755 10.1044 5.48314 10.1435 5.50132C10.1876 5.52186 10.2383 5.52927 10.3398 5.54409L13.6006 6.02071C13.944 6.0709 14.1157 6.096 14.1951 6.17987C14.2643 6.25284 14.2968 6.35311 14.2836 6.45276C14.2685 6.56729 14.1442 6.68836 13.8956 6.9305L11.5369 9.22785C11.4634 9.29947 11.4266 9.33528 11.4029 9.37788C11.3819 9.41561 11.3684 9.45705 11.3632 9.49991C11.3573 9.54832 11.366 9.5989 11.3834 9.70007L11.9399 12.945C11.9986 13.2872 12.028 13.4584 11.9728 13.5599C11.9248 13.6483 11.8395 13.7102 11.7406 13.7286C11.627 13.7496 11.4734 13.6688 11.166 13.5072L8.25086 11.9741C8.16003 11.9264 8.11461 11.9025 8.06677 11.8931C8.0244 11.8848 7.98083 11.8848 7.93847 11.8931C7.89062 11.9025 7.8452 11.9264 7.75438 11.9741L4.83922 13.5072C4.53188 13.6688 4.37821 13.7496 4.26459 13.7286C4.16573 13.7102 4.08042 13.6483 4.03243 13.5599C3.97727 13.4584 4.00662 13.2872 4.06532 12.945L4.62186 9.70007C4.63921 9.5989 4.64789 9.54832 4.64202 9.49991C4.63682 9.45705 4.62335 9.41561 4.60234 9.37788C4.57862 9.33528 4.54186 9.29947 4.46833 9.22785L2.10964 6.93049C1.86105 6.68836 1.73675 6.56729 1.72162 6.45276C1.70846 6.35311 1.74097 6.25284 1.8101 6.17987C1.88956 6.096 2.06125 6.0709 2.40463 6.02071L5.66548 5.54409C5.76689 5.52927 5.81759 5.52186 5.86175 5.50132C5.90085 5.48314 5.93605 5.45755 5.96539 5.42596C5.99854 5.39028 6.02122 5.34433 6.06659 5.25243L7.52437 2.29912Z" stroke="white" stroke-width="1.2" stroke-linecap="round" stroke-linejoin="round"/>
</svg>
