<svg width="20" height="20" viewBox="0 0 20 20" fill="none" xmlns="http://www.w3.org/2000/svg">
<mask id="mask0_4962_41760" style="mask-type:alpha" maskUnits="userSpaceOnUse" x="0" y="0" width="20" height="20">
<rect width="20" height="20" fill="#D9D9D9"/>
</mask>
<g mask="url(#mask0_4962_41760)">
<path d="M5.74999 15.583C5.37533 15.583 5.05933 15.4547 4.80199 15.198C4.54533 14.9407 4.41699 14.6247 4.41699 14.25V13H5.49999V14.25C5.49999 14.3053 5.52766 14.361 5.58299 14.417C5.63899 14.4723 5.69466 14.5 5.74999 14.5H14.25C14.3053 14.5 14.361 14.4723 14.417 14.417C14.4723 14.361 14.5 14.3053 14.5 14.25V13H15.583V14.25C15.583 14.6247 15.4547 14.9407 15.198 15.198C14.9407 15.4547 14.6247 15.583 14.25 15.583H5.74999ZM9.45799 12.688V5.354L7.37499 7.417L6.60399 6.667L9.99999 3.271L13.396 6.667L12.625 7.417L10.542 5.354V12.688H9.45799Z" fill="#1C1B1F"/>
</g>
</svg>
