<svg width="20" height="20" viewBox="0 0 20 20" fill="none" xmlns="http://www.w3.org/2000/svg">
<mask id="mask0_4962_47857" style="mask-type:alpha" maskUnits="userSpaceOnUse" x="0" y="0" width="20" height="20">
<rect width="20" height="20" fill="#D9D9D9"/>
</mask>
<g mask="url(#mask0_4962_47857)">
<path d="M3.74999 14.5H7.10399V5.49999H3.74999C3.68066 5.49999 3.62166 5.52433 3.57299 5.57299C3.52433 5.62166 3.49999 5.68066 3.49999 5.74999V14.25C3.49999 14.3193 3.52433 14.3783 3.57299 14.427C3.62166 14.4757 3.68066 14.5 3.74999 14.5ZM8.18799 14.5H11.812V5.49999H8.18799V14.5ZM12.896 14.5H16.25C16.3193 14.5 16.3783 14.4757 16.427 14.427C16.4757 14.3783 16.5 14.3193 16.5 14.25V5.74999C16.5 5.68066 16.4757 5.62166 16.427 5.57299C16.3783 5.52433 16.3193 5.49999 16.25 5.49999H12.896V14.5ZM3.74999 15.583C3.38866 15.583 3.07599 15.4513 2.81199 15.188C2.54866 14.924 2.41699 14.6113 2.41699 14.25V5.74999C2.41699 5.38866 2.54866 5.07633 2.81199 4.81299C3.07599 4.54899 3.38866 4.41699 3.74999 4.41699H16.25C16.6247 4.41699 16.9407 4.54899 17.198 4.81299C17.4547 5.07633 17.583 5.38866 17.583 5.74999V14.25C17.583 14.6113 17.4547 14.924 17.198 15.188C16.9407 15.4513 16.6247 15.583 16.25 15.583H3.74999Z" fill="#1C1B1F"/>
</g>
</svg>
