<svg width="412" height="238" viewBox="0 0 412 238" fill="none" xmlns="http://www.w3.org/2000/svg">
    <path opacity="0.1"
        d="M125.827 95.4486C90.0707 93.6595 40.0113 115.844 -3.6119 112.623C-47.2351 109.403 -3.6119 178.82 -3.6119 178.82H441.917C442.394 167.847 443.061 140.248 441.917 117.634C440.487 89.3663 378.985 79.7053 356.101 81.1366C333.217 82.5678 268.854 108.688 221.656 108.688C174.457 108.688 161.584 97.2377 125.827 95.4486Z"
        fill="url(#paint0_linear_6390_147246)" />
    <rect opacity="0.15" x="193.27" width="80" height="80" rx="40" fill="#145DFF" />
    <path fill-rule="evenodd" clip-rule="evenodd"
        d="M181.961 186.346L172.495 212.39C172.495 212.39 173.059 223.813 180.559 219.125L199.463 195.446L181.961 186.346Z"
        fill="#AB6565" />
    <path fill-rule="evenodd" clip-rule="evenodd"
        d="M220.409 182.677L236.577 207.529C236.577 207.529 246.042 213.883 246.049 203.821L237.332 175.812L220.409 182.677Z"
        fill="#AB6565" />
    <path fill-rule="evenodd" clip-rule="evenodd"
        d="M194.321 158.594L175.389 195.812L197.047 206.265L214.543 168.596C214.543 168.596 213.329 162.817 212.322 158.596C211.911 156.876 211.589 154.501 209.893 153.264C206.081 150.48 197.884 155.415 194.321 158.594Z"
        fill="#FFC9D4" />
    <path fill-rule="evenodd" clip-rule="evenodd"
        d="M194.321 158.594L175.389 195.812L197.047 206.265L214.543 168.596C214.543 168.596 213.329 162.817 212.322 158.596C211.911 156.876 211.589 154.501 209.893 153.264C206.081 150.48 197.884 155.415 194.321 158.594Z"
        fill="#9F174F" fill-opacity="0.65" />
    <path fill-rule="evenodd" clip-rule="evenodd"
        d="M192.058 114.412L192.059 119.193C215.692 113.601 224.731 131.707 225.731 133.9L225.826 134.115L242.85 175.811L217.31 184.026L217.283 183.932C216.85 182.234 211.786 158.852 211.786 158.852C211.099 152.338 207.184 152.62 207.184 152.62C180.486 167.013 163.576 167.013 158.704 166.894C153.831 166.775 148.375 161.92 146.446 158.75C140.22 148.521 142.453 126.423 142.961 122.106L143.053 121.366V114.412H192.058Z"
        fill="#C41E62" />
    <path fill-rule="evenodd" clip-rule="evenodd"
        d="M239.174 166.812L239.857 168.486C238.546 169.671 237.255 170.869 235.98 172.059L232.548 175.266C230.368 177.292 228.139 179.327 225.836 181.284L221.416 182.704L221.657 182.512C225.506 179.482 229.146 176.119 232.672 172.825L233.551 172.003C235.388 170.284 237.258 168.534 239.174 166.812ZM236.274 159.706L236.955 161.378C234.887 163.212 232.737 164.976 230.586 166.707L226.75 169.777C223.088 172.716 219.405 175.752 216.177 179.013L215.744 177.046C219.093 173.766 222.84 170.728 226.526 167.779L227.375 167.1C230.369 164.708 233.413 162.275 236.274 159.706ZM202.878 145.991L204.708 144.878C210.028 141.666 211.896 140.993 212.838 141.86C213.032 142.04 213.265 142.364 213.269 142.894C213.288 145.265 207.778 150.947 207.722 151C206.623 152.047 205.504 153.08 204.371 154.102C202.371 155.132 200.43 156.079 198.548 156.951C201.271 154.614 203.969 152.224 206.549 149.768C207.862 148.518 211.007 144.7 211.503 143.254C210.189 143.571 206.902 145.531 205.245 146.54L203.857 147.386C203.502 147.599 203.269 147.733 203.11 147.809L203.06 147.832C197.967 150.083 193.073 152.757 188.325 155.42L183.654 158.045C180.316 159.916 176.895 161.793 173.387 163.521L172.068 164.162L170.572 164.876C169.409 165.428 168.163 166.002 166.892 166.516C163.338 166.918 160.733 166.933 159.131 166.903C159.45 166.851 159.801 166.777 160.11 166.709L161.038 166.498C161.176 166.466 161.306 166.439 161.426 166.414L161.598 166.382C164.199 165.917 167.153 164.613 169.722 163.397L171.333 162.629C175.699 160.539 179.95 158.179 184.075 155.86L187.505 153.931C191.916 151.456 196.457 148.971 201.186 146.81L202.372 146.277C202.448 146.243 202.635 146.136 202.878 145.991ZM171.22 145.183L172.816 144.261L173.928 143.587C175.998 142.352 178.063 141.342 179.472 141.987C179.779 142.127 180.002 142.385 180.098 142.706L180.14 142.89C180.224 143.37 180.208 144.662 175.266 149.837L175.038 150.075C173.739 151.448 172.135 152.873 170.412 154.365L168.148 156.323C164.399 159.582 160.523 163.148 158.914 166.647L158.804 166.896L158.702 166.894C158.159 166.881 157.608 166.809 157.056 166.687C158.647 162.491 163.144 158.407 167.381 154.738L169.562 152.852C171.017 151.588 172.371 150.382 173.47 149.254L174.235 148.453C176.459 146.099 177.836 144.336 178.289 143.484C177.552 143.566 176.259 144.165 174.428 145.271L173.569 145.791L172.071 146.656L168.941 148.478C165.667 150.378 162.302 152.272 158.841 153.816L157.973 154.194C157.897 154.227 157.802 154.271 157.693 154.324L156.698 154.807C155.037 155.599 153.507 156.178 152.508 155.72C152.256 155.606 152.043 155.333 151.992 155.062C151.867 154.431 152.209 154.006 154.602 151.515L155.753 150.313C157.082 148.914 158.761 147.082 159.221 146.194C158.301 146.047 156.816 146.442 155.315 146.918L153.147 147.629C150.294 148.554 147.477 149.288 145.83 147.77C145.375 147.35 145.295 146.76 145.271 146.236L145.262 145.98C145.237 145.109 145.158 145.042 144.936 144.975C144.13 144.731 143.321 144.49 142.513 144.257C142.457 143.655 142.407 143.051 142.365 142.447C143.386 142.735 144.412 143.038 145.43 143.347C146.736 143.744 146.913 144.888 146.951 145.66L146.967 146.109C146.974 146.297 146.988 146.499 147.022 146.57C147.95 147.414 150.335 146.754 152.649 146.003L154.622 145.355C156.853 144.636 158.904 144.112 160.327 144.763C160.691 144.93 160.943 145.25 161.016 145.638C161.266 146.88 159.661 148.704 156.234 152.272L155.178 153.372C155.04 153.516 154.905 153.66 154.775 153.799L155.165 153.635C155.575 153.458 156.045 153.239 156.575 152.979L156.988 152.775C157.07 152.736 157.145 152.701 157.212 152.671L157.305 152.629C161.556 150.818 165.704 148.4 169.714 146.061L171.22 145.183ZM231.944 149.109L232.604 150.726L232.359 150.892C230.026 152.415 227.657 153.992 225.258 155.595L223.816 156.559C220.201 158.976 216.545 161.42 212.858 163.801L212.472 162.024C215.269 160.212 218.049 158.366 220.807 156.524L225.755 153.219C227.189 152.262 228.613 151.317 230.024 150.389L231.43 149.468C231.569 149.377 231.742 149.256 231.944 149.109Z"
        fill="#DCA75E" />
    <path fill-rule="evenodd" clip-rule="evenodd"
        d="M150.723 121.383L150.681 121.381C150.62 121.383 150.536 121.408 150.408 121.452L150.221 121.519C150.204 121.555 150.192 121.58 150.182 121.6L150.159 121.656L150.151 121.716L150.147 121.794L150.145 122.062L150.18 124.253L150.503 137.699L150.512 138.44C150.536 140.323 150.732 142.249 151.094 143.642C152.48 148.978 155.965 152.047 160.891 152.078L161.147 152.077C161.919 152.066 162.726 151.981 163.564 151.819C165.859 151.378 166.985 151.126 170.609 149.953L173.044 149.153L181.179 146.421C182.228 146.07 183.18 145.755 184.079 145.464L185.394 145.044L186.536 144.687C193.596 142.505 199.219 141.316 203.702 141.275L204.028 141.274C206.835 141.284 209.187 141.757 211.159 142.733C215.879 145.068 220.097 151.313 223.914 160.457C225.364 163.931 226.654 167.566 227.974 171.71L228.485 173.351L224.77 175.062C223.561 175.623 222.412 176.159 221.393 176.638L219.59 177.491L218.767 177.885L217.822 178.347L217.482 178.518L217.243 178.646L217.136 178.708L217.097 178.734L217.029 178.789C217.011 178.806 217.001 178.819 216.978 178.863L216.931 178.956C216.948 179.265 216.951 179.317 217.102 179.401L217.211 179.459L217.282 179.47C217.375 179.477 217.466 179.45 217.539 179.398L217.585 179.358L217.762 179.264L218.308 178.988C218.408 178.939 218.516 178.885 218.634 178.828L220.159 178.095L222.174 177.145L225.103 175.779L228.721 174.109L229.808 177.575L230.093 178.451L230.193 178.742C230.252 178.901 230.403 178.999 230.564 178.999L230.633 178.992L230.701 178.974C230.906 178.898 231.01 178.67 230.934 178.465L230.843 178.203L230.579 177.39L229.445 173.778C234.53 171.453 238.648 169.63 238.811 169.63L238.882 169.624C239.066 169.591 239.206 169.429 239.206 169.235C239.206 169.017 239.029 168.84 238.811 168.84C238.536 168.84 236.15 169.867 232.306 171.606L229.209 173.018L229.086 172.622L228.462 170.644C227.227 166.819 226.005 163.418 224.644 160.153C220.758 150.843 216.453 144.47 211.51 142.024C206.262 139.427 198.658 140.204 187.327 143.619L186.303 143.931C185.223 144.265 184.125 144.616 182.916 145.012L181.85 145.364L172.765 148.412C168.797 149.73 167.107 150.242 165.497 150.613L164.688 150.79L163.415 151.043C162.688 151.183 161.987 151.262 161.316 151.283L161.065 151.288C156.414 151.328 153.172 148.497 151.859 143.443C151.491 142.026 151.3 139.984 151.3 138.038L151.08 129.064L150.948 123.075L150.935 122.061L150.937 121.805L150.942 121.781C150.949 121.714 150.938 121.644 150.907 121.577C150.837 121.458 150.799 121.396 150.723 121.383ZM199.416 200.089C198.539 199.902 179.346 191.086 179.096 190.609C178.995 190.415 178.756 190.34 178.563 190.442C178.37 190.543 178.295 190.781 178.396 190.975C178.803 191.754 198.686 200.883 199.438 200.883C199.656 200.883 199.833 200.706 199.833 200.488C199.833 200.269 199.656 200.092 199.438 200.092L199.416 200.089Z"
        fill="black" />
    <path fill-rule="evenodd" clip-rule="evenodd"
        d="M188.412 209.151L187.097 210.898L186.5 211.693L186.13 212.186L185.527 212.981L181.168 218.772C181.168 218.772 178.062 221.689 174.764 220.297C171.465 218.899 171.282 213.528 172.736 211.488L174.017 207.809L174.338 206.886L174.537 206.317L174.857 205.4L175.653 203.117L188.412 209.151Z"
        fill="#F3F3F3" />
    <path fill-rule="evenodd" clip-rule="evenodd"
        d="M186.129 212.184L185.526 212.98L174.016 207.808L174.337 206.885L186.129 212.184Z" fill="#263CD9" />
    <path fill-rule="evenodd" clip-rule="evenodd"
        d="M187.098 210.898L186.502 211.694L174.538 206.317L174.859 205.4L187.098 210.898Z" fill="#263CD9" />
    <path fill-rule="evenodd" clip-rule="evenodd"
        d="M242.648 191.754L243.327 193.832L243.64 194.776L243.831 195.361L244.139 196.311L246.398 203.198C246.398 203.198 247.016 207.414 243.987 209.325C240.955 211.232 236.207 208.454 235.365 206.096L233.314 202.797L232.741 202.006L232.388 201.517L231.818 200.73L230.499 198.683L242.648 191.754Z"
        fill="#F3F3F3" />
    <path fill-rule="evenodd" clip-rule="evenodd"
        d="M244.502 196.941L244.849 197.891L233.874 203.82L233.23 203.029L244.502 196.941Z" fill="#263CD9" />
    <path fill-rule="evenodd" clip-rule="evenodd"
        d="M243.938 195.412L244.287 196.357L232.834 202.541L232.196 201.753L243.938 195.412Z" fill="#263CD9" />
    <path fill-rule="evenodd" clip-rule="evenodd"
        d="M191.54 235.592C191.54 235.592 193.459 233.357 191.269 228.139C189.079 222.92 182.314 219.211 185.107 214.269C185.107 214.269 181.883 212.851 180.307 215.623C178.731 218.395 178.429 211.931 176.851 211.572C175.274 211.212 172.296 211.927 172.296 211.927L166.657 223.509C166.657 223.509 182.933 231.413 191.071 235.365C191.228 235.441 191.54 235.592 191.54 235.592Z"
        fill="#F76954" />
    <path fill-rule="evenodd" clip-rule="evenodd"
        d="M185.827 230.295C185.861 230.309 185.9 230.312 185.938 230.303L191.651 228.933C191.749 228.909 191.809 228.811 191.786 228.713C191.763 228.615 191.664 228.555 191.567 228.579L186.205 229.864L188.241 225.11C188.268 225.047 188.257 224.974 188.214 224.922C188.171 224.869 188.101 224.846 188.035 224.861L183.691 225.819L185.789 222.668C185.822 222.617 185.829 222.554 185.807 222.5C185.786 222.444 185.737 222.403 185.679 222.39L180.678 221.235L184.518 217.846C184.594 217.779 184.601 217.665 184.535 217.589C184.468 217.513 184.353 217.507 184.278 217.573L180.172 221.197C180.121 221.241 180.099 221.312 180.116 221.378C180.133 221.444 180.185 221.494 180.251 221.511L185.34 222.685L183.138 225.994C183.097 226.057 183.097 226.137 183.139 226.198C183.181 226.259 183.256 226.289 183.329 226.273L187.767 225.292L185.728 230.054C185.701 230.118 185.712 230.19 185.756 230.243C185.775 230.266 185.8 230.284 185.827 230.295Z"
        fill="white" />
    <path fill-rule="evenodd" clip-rule="evenodd"
        d="M173.919 220.215C175.425 220.402 176.793 219.335 176.976 217.83C177.159 216.327 176.086 214.957 174.58 214.769C173.074 214.583 171.705 215.651 171.523 217.154C171.34 218.658 172.413 220.029 173.919 220.215Z"
        fill="#F8B0BE" />
    <path fill-rule="evenodd" clip-rule="evenodd"
        d="M166.658 223.51L165.428 225.902L190.418 237.999L191.541 235.593L166.658 223.51Z" fill="#F8B0BE" />
    <path fill-rule="evenodd" clip-rule="evenodd"
        d="M265.111 209.995C265.111 209.995 264.938 207.054 259.738 204.821C254.537 202.589 247.094 204.62 245.67 199.125C245.67 199.125 242.367 200.345 243.159 203.434C243.951 206.522 239.243 202.083 237.858 202.92C236.474 203.756 234.828 206.341 234.828 206.341L238.817 218.588C238.817 218.588 256.016 212.967 264.615 210.157C264.781 210.103 265.111 209.995 265.111 209.995Z"
        fill="#F76954" />
    <path fill-rule="evenodd" clip-rule="evenodd"
        d="M257.322 210.153C257.356 210.139 257.386 210.115 257.407 210.082L260.565 205.127C260.618 205.042 260.594 204.93 260.509 204.876C260.424 204.821 260.312 204.846 260.259 204.931L257.295 209.581L255.456 204.747C255.432 204.683 255.374 204.638 255.306 204.631C255.239 204.623 255.172 204.654 255.134 204.71L252.676 208.417L251.997 204.693C251.985 204.634 251.946 204.584 251.891 204.56C251.838 204.534 251.774 204.539 251.723 204.57L247.324 207.213L247.732 202.108C247.74 202.007 247.666 201.919 247.566 201.911C247.465 201.903 247.377 201.978 247.37 202.078L246.933 207.537C246.928 207.605 246.961 207.67 247.019 207.706C247.077 207.742 247.149 207.742 247.208 207.708L251.685 205.017L252.4 208.927C252.414 209.001 252.469 209.058 252.542 209.073C252.615 209.088 252.689 209.058 252.73 208.995L255.242 205.208L257.083 210.05C257.108 210.114 257.166 210.158 257.235 210.166C257.265 210.168 257.295 210.164 257.322 210.153Z"
        fill="white" />
    <path fill-rule="evenodd" clip-rule="evenodd"
        d="M241.753 211.176C242.966 210.264 243.209 208.545 242.296 207.337C241.382 206.128 239.659 205.887 238.446 206.799C237.232 207.711 236.99 209.43 237.903 210.638C238.815 211.847 240.539 212.087 241.753 211.176Z"
        fill="#F8B0BE" />
    <path fill-rule="evenodd" clip-rule="evenodd"
        d="M238.818 218.587L239.595 221.162L265.974 212.504L265.112 209.994L238.818 218.587Z" fill="#F8B0BE" />
    <path fill-rule="evenodd" clip-rule="evenodd"
        d="M224.546 52.1691C224.546 52.1691 236.739 42.039 236.663 40.5859C236.587 39.1327 235.525 38.8952 235.525 38.8952C235.525 38.8952 236.748 37.8709 236.662 36.2334C236.577 34.5959 235.269 33.9982 235.269 33.9982C235.269 33.9982 236.467 30.6211 234.272 30.4355C234.272 30.4355 220.498 37.745 220.197 43.8706C219.897 49.9963 224.546 52.1691 224.546 52.1691Z"
        fill="#AB6565" />
    <path fill-rule="evenodd" clip-rule="evenodd"
        d="M223.951 27.564C223.951 27.1741 224.105 26.8001 224.381 26.5244C224.657 26.2486 225.031 26.0938 225.421 26.0938H236.864C237.675 26.0938 238.333 26.7518 238.333 27.5635V49.6513C238.333 50.4702 237.669 51.1338 236.851 51.1338H225.431C225.039 51.1338 224.662 50.9777 224.384 50.6999C224.107 50.4224 223.951 50.0455 223.951 49.6528V27.564Z"
        fill="black" />
    <path fill-rule="evenodd" clip-rule="evenodd"
        d="M224.76 29.3583C224.76 28.9941 224.908 28.6446 225.172 28.3868C225.436 28.1291 225.794 27.9844 226.167 27.9844H236.116C236.489 27.9844 236.846 28.1289 237.111 28.3868C237.375 28.6442 237.522 28.9937 237.522 29.3581V48.6388C237.522 49.0063 237.373 49.3586 237.107 49.6185C236.84 49.8786 236.479 50.0244 236.103 50.0244H226.178C225.394 50.0244 224.76 49.4045 224.76 48.6402V29.3583Z"
        fill="#F3F3F3" />
    <path
        d="M231.142 27.6403C230.838 27.6403 230.591 27.3938 230.591 27.0897C230.591 26.7856 230.838 26.5391 231.142 26.5391C231.446 26.5391 231.692 26.7856 231.692 27.0897C231.692 27.3938 231.446 27.6403 231.142 27.6403Z"
        fill="white" />
    <path fill-rule="evenodd" clip-rule="evenodd"
        d="M217.643 68.1596C217.643 68.1596 220.451 61.2849 224.426 53.8688C225.282 52.271 225.273 50.9617 225.273 50.9617C225.273 50.9617 222.548 48.3234 221.344 44.4517C220.14 40.5801 224.913 38.0645 225.61 35.5488C225.61 35.5488 225.465 33.152 219.241 37.0767C219.241 37.0767 211.359 41.7942 209.632 49.2933L205.621 60.0746L217.643 68.1596Z"
        fill="#AB6565" />
    <path fill-rule="evenodd" clip-rule="evenodd"
        d="M138.745 155.438L141.635 154.426C141.635 154.426 143.034 166.117 139.817 168.022L139.682 167.667L139.301 171.822C133.364 170.601 130.126 155.092 130.126 155.092L138.745 155.438Z"
        fill="#AB6565" />
    <path fill-rule="evenodd" clip-rule="evenodd"
        d="M192.654 114.762V107.847L195.792 110.611C195.792 110.611 204.957 119.487 210.909 105.871L215.517 87.8379L217.314 80.8128L220.962 66.5587L202.441 54.5496L195.792 71.5032C195.792 71.5032 193.402 53.8319 172.873 54.5496V47.6035H149.822V54.5496C149.822 54.5496 143.888 53.4402 138.242 59.4612C125.602 72.9389 130.002 155.279 130.002 155.279L142.658 156.677V114.762H192.654Z"
        fill="#2B44FF" />
    <path fill-rule="evenodd" clip-rule="evenodd"
        d="M162.302 64.8614C161.449 64.8694 160.919 65.2955 160.876 66.1806C160.8 67.7311 162.124 69.4869 163.354 69.478C164.297 69.4707 164.718 68.9044 164.82 68.1514C164.853 66.6536 163.435 64.8516 162.302 64.8614Z"
        fill="white" />
    <path fill-rule="evenodd" clip-rule="evenodd"
        d="M201.344 66.3262C200.492 66.3344 199.96 66.7603 199.918 67.6455C199.842 69.196 201.167 70.9517 202.396 70.9428C203.339 70.9355 203.76 70.3692 203.863 69.6163C203.895 68.1185 202.476 66.3165 201.344 66.3262Z"
        fill="white" />
    <path fill-rule="evenodd" clip-rule="evenodd"
        d="M198.654 104.188C197.801 104.196 197.271 104.621 197.227 105.507C197.152 107.058 198.476 108.813 199.705 108.804C200.649 108.797 201.07 108.23 201.172 107.478C201.205 105.98 199.787 104.178 198.654 104.188Z"
        fill="white" />
    <path fill-rule="evenodd" clip-rule="evenodd"
        d="M198.654 90.1036C197.801 90.1117 197.271 90.5377 197.227 91.4228C197.152 92.9738 198.476 94.7293 199.705 94.7206C200.649 94.7127 201.07 94.1467 201.172 93.3935C201.205 91.8959 199.787 90.0938 198.654 90.1036Z"
        fill="white" />
    <path fill-rule="evenodd" clip-rule="evenodd"
        d="M171.8 100.063C170.947 100.07 170.416 100.496 170.373 101.382C170.298 102.932 171.622 104.688 172.851 104.679C173.795 104.671 174.216 104.105 174.318 103.352C174.35 101.854 172.932 100.052 171.8 100.063Z"
        fill="white" />
    <path fill-rule="evenodd" clip-rule="evenodd"
        d="M153.874 94.0039C153.022 94.0126 152.491 94.4387 152.448 95.3239C152.372 96.8739 153.697 98.6302 154.926 98.6207C155.869 98.6136 156.291 98.0477 156.393 97.2944C156.425 95.7966 155.007 93.9945 153.874 94.0039Z"
        fill="white" />
    <path fill-rule="evenodd" clip-rule="evenodd"
        d="M137.148 130.77C136.295 130.777 135.765 131.204 135.722 132.089C135.646 133.639 136.971 135.395 138.2 135.386C139.143 135.378 139.564 134.813 139.667 134.059C139.699 132.561 138.281 130.759 137.148 130.77Z"
        fill="white" />
    <path fill-rule="evenodd" clip-rule="evenodd"
        d="M209.645 60.2442C208.792 60.2522 208.261 60.6783 208.218 61.5634C208.143 63.1139 209.467 64.8697 210.696 64.8608C211.64 64.8535 212.061 64.2872 212.163 63.5342C212.195 62.0364 210.777 60.2344 209.645 60.2442Z"
        fill="white" />
    <path fill-rule="evenodd" clip-rule="evenodd"
        d="M190.711 76.9493C189.858 76.9574 189.328 77.3834 189.284 78.2685C189.209 79.8191 190.533 81.5749 191.762 81.5659C192.706 81.5586 193.127 80.9923 193.229 80.2393C193.262 78.7416 191.844 76.9395 190.711 76.9493Z"
        fill="white" />
    <path fill-rule="evenodd" clip-rule="evenodd"
        d="M209.539 94.0039C208.686 94.0126 208.155 94.4387 208.112 95.3239C208.037 96.8739 209.361 98.6302 210.59 98.6207C211.534 98.6136 211.955 98.0477 212.057 97.2944C212.089 95.7966 210.671 93.9945 209.539 94.0039Z"
        fill="white" />
    <path fill-rule="evenodd" clip-rule="evenodd"
        d="M182.782 108.243C182.96 109.467 184.912 110.992 186.152 110.936C186.947 110.9 187.345 110.475 187.306 109.701C187.238 108.356 185.143 106.553 183.639 106.676C182.856 106.787 182.665 107.447 182.782 108.243Z"
        fill="white" />
    <path fill-rule="evenodd" clip-rule="evenodd"
        d="M162.574 89.8919C162.753 91.1154 164.705 92.641 165.944 92.5849C166.739 92.5485 167.138 92.124 167.099 91.3492C167.031 90.0039 164.936 88.2011 163.432 88.3244C162.649 88.4347 162.457 89.0952 162.574 89.8919Z"
        fill="white" />
    <path fill-rule="evenodd" clip-rule="evenodd"
        d="M137.723 66.4349C137.902 67.6584 139.854 69.1838 141.093 69.1278C141.888 69.0913 142.287 68.667 142.248 67.8921C142.18 66.5469 140.085 64.744 138.58 64.8673C137.798 64.9777 137.606 65.6381 137.723 66.4349Z"
        fill="white" />
    <path fill-rule="evenodd" clip-rule="evenodd"
        d="M225.52 45.7142C225.7 46.9377 227.651 48.4631 228.892 48.4071C229.687 48.3706 230.085 47.9463 230.046 47.1714C229.978 45.8262 227.883 44.0233 226.378 44.1466C225.596 44.257 225.404 44.9174 225.52 45.7142Z"
        fill="white" />
    <path fill-rule="evenodd" clip-rule="evenodd"
        d="M148.452 68.5678C148.631 69.7913 150.583 71.3166 151.822 71.2607C152.617 71.2242 153.016 70.7998 152.977 70.0249C152.909 68.6797 150.814 66.8768 149.309 67.0001C148.527 67.1106 148.335 67.7709 148.452 68.5678Z"
        fill="white" />
    <path fill-rule="evenodd" clip-rule="evenodd"
        d="M147.916 106.11C148.095 107.334 150.046 108.86 151.286 108.803C152.081 108.767 152.48 108.343 152.441 107.568C152.373 106.223 150.278 104.42 148.773 104.543C147.99 104.654 147.799 105.314 147.916 106.11Z"
        fill="white" />
    <path fill-rule="evenodd" clip-rule="evenodd"
        d="M131.31 147.193C131.489 148.416 133.44 149.942 134.68 149.885C135.475 149.849 135.874 149.425 135.835 148.65C135.767 147.305 133.672 145.502 132.167 145.625C131.384 145.735 131.193 146.396 131.31 147.193Z"
        fill="white" />
    <path fill-rule="evenodd" clip-rule="evenodd"
        d="M135.434 79.9717C135.67 79.2568 134.603 78.2929 133.707 78.323C132.932 78.3497 132.223 78.5923 132.193 79.5448C132.167 80.3586 133.092 81.1424 134.451 81.1741C134.674 80.916 135.255 80.5104 135.434 79.9717Z"
        fill="white" />
    <path fill-rule="evenodd" clip-rule="evenodd"
        d="M140.003 87.0149C140.183 88.2385 142.134 89.7638 143.374 89.7079C144.169 89.6713 144.567 89.247 144.528 88.4721C144.46 87.1269 142.365 85.324 140.861 85.4474C140.078 85.5578 139.886 86.2182 140.003 87.0149Z"
        fill="white" />
    <path fill-rule="evenodd" clip-rule="evenodd"
        d="M129.031 114.028C129.211 115.252 131.162 116.777 132.402 116.721C133.197 116.685 133.595 116.261 133.556 115.486C133.488 114.141 131.393 112.338 129.889 112.461C129.106 112.572 128.915 113.232 129.031 114.028Z"
        fill="white" />
    <path fill-rule="evenodd" clip-rule="evenodd"
        d="M136.461 103.818C136.64 105.042 138.592 106.567 139.832 106.511C140.627 106.474 141.025 106.05 140.986 105.275C140.918 103.93 138.823 102.127 137.319 102.25C136.536 102.361 136.344 103.022 136.461 103.818Z"
        fill="white" />
    <path fill-rule="evenodd" clip-rule="evenodd"
        d="M183.915 93.669C184.094 94.8926 186.046 96.418 187.286 96.3619C188.081 96.3256 188.479 95.9011 188.44 95.1265C188.372 93.7812 186.277 91.9784 184.773 92.1017C183.99 92.212 183.798 92.8723 183.915 93.669Z"
        fill="white" />
    <path fill-rule="evenodd" clip-rule="evenodd"
        d="M162.392 109.76C162.571 110.983 164.522 112.508 165.762 112.453C166.557 112.415 166.956 111.991 166.917 111.216C166.849 109.871 164.754 108.068 163.249 108.192C162.467 108.302 162.275 108.962 162.392 109.76Z"
        fill="white" />
    <path fill-rule="evenodd" clip-rule="evenodd"
        d="M173.323 80.8294C173.502 82.0529 175.453 83.5783 176.693 83.5223C177.488 83.4858 177.887 83.0615 177.848 82.2867C177.779 80.9414 175.684 79.1386 174.18 79.2619C173.397 79.3722 173.206 80.0327 173.323 80.8294Z"
        fill="white" />
    <path fill-rule="evenodd" clip-rule="evenodd"
        d="M204.31 82.7474C204.49 83.971 206.441 85.4963 207.681 85.4404C208.476 85.4038 208.874 84.9795 208.835 84.2046C208.767 82.8594 206.672 81.0565 205.168 81.1798C204.385 81.2902 204.193 81.9506 204.31 82.7474Z"
        fill="white" />
    <path fill-rule="evenodd" clip-rule="evenodd"
        d="M177.462 66.7825C177.641 68.0061 179.592 69.5315 180.832 69.4754C181.628 69.4389 182.026 69.0146 181.986 68.2397C181.918 66.8945 179.824 65.0917 178.319 65.215C177.536 65.3253 177.345 65.9858 177.462 66.7825Z"
        fill="white" />
    <path fill-rule="evenodd" clip-rule="evenodd"
        d="M152.476 80.6126C152.656 81.8361 154.607 83.3616 155.847 83.3055C156.642 83.269 157.04 82.8447 157.001 82.0699C156.933 80.7246 154.838 78.9218 153.334 79.0451C152.551 79.1554 152.359 79.8159 152.476 80.6126Z"
        fill="white" />
    <path fill-rule="evenodd" clip-rule="evenodd"
        d="M219.064 72.9373L200.023 60.6978L200.267 60.0723L219.241 72.2657L219.064 72.9373Z" fill="black" />
    <path fill-rule="evenodd" clip-rule="evenodd"
        d="M143.064 114.164L145.616 90.1825C145.635 90.0022 145.504 89.8395 145.323 89.8204C145.147 89.8001 144.98 89.9317 144.961 90.1127L142.41 114.095C142.391 114.276 142.522 114.438 142.702 114.457C142.714 114.458 142.726 114.459 142.738 114.459C142.904 114.459 143.047 114.333 143.064 114.164Z"
        fill="black" />
    <path
        d="M192.938 107.691C193.131 107.691 193.293 107.831 193.327 108.015L193.333 108.087V114.385C193.333 114.604 193.156 114.781 192.938 114.781C192.743 114.781 192.582 114.641 192.549 114.456L192.542 114.385V108.087C192.542 107.868 192.719 107.691 192.938 107.691Z"
        fill="black" />
    <path fill-rule="evenodd" clip-rule="evenodd"
        d="M170.526 55.5243C170.709 55.5243 170.858 55.4221 170.858 55.2962V51.8003C170.858 51.6744 170.709 51.5723 170.526 51.5723C170.343 51.5723 170.194 51.6744 170.194 51.8003V55.2962C170.194 55.4221 170.343 55.5243 170.526 55.5243Z"
        fill="black" />
    <path fill-rule="evenodd" clip-rule="evenodd"
        d="M166.264 55.5243C166.448 55.5243 166.596 55.4221 166.596 55.2962V51.8003C166.596 51.6744 166.448 51.5723 166.264 51.5723C166.081 51.5723 165.933 51.6744 165.933 51.8003V55.2962C165.933 55.4221 166.081 55.5243 166.264 55.5243Z"
        fill="black" />
    <path fill-rule="evenodd" clip-rule="evenodd"
        d="M162.001 55.5243C162.184 55.5243 162.333 55.4221 162.333 55.2963V51.8003C162.333 51.6744 162.184 51.5723 162.001 51.5723C161.818 51.5723 161.669 51.6744 161.669 51.8003V55.2963C161.669 55.4221 161.818 55.5243 162.001 55.5243Z"
        fill="black" />
    <path fill-rule="evenodd" clip-rule="evenodd"
        d="M155.698 35.328C155.698 32.9568 158.552 33.9716 158.552 33.9716L158.355 32.0964C158.394 32.071 158.383 31.8591 158.363 31.5155C158.256 29.6034 157.919 23.6094 164.892 22.9056C174.301 21.9552 174.886 29.085 174.886 29.085C174.886 29.085 175.193 29.3311 174.855 35.7628C174.577 41.0588 173.579 43.4259 170.078 44.517V51.9265C170.078 51.9265 166.611 52.717 164.733 52.717C162.855 52.717 159.526 51.9265 159.526 51.9265L159.391 38.4896C159.361 38.4067 159.346 38.3617 159.346 38.3617C157.482 38.8672 155.698 37.6992 155.698 35.328Z"
        fill="#AB6565" />
    <path fill-rule="evenodd" clip-rule="evenodd"
        d="M156.993 36.7777C156.706 36.395 156.623 35.9241 156.76 35.4522C156.831 35.2075 157.087 35.0661 157.332 35.1378C157.577 35.2089 157.717 35.465 157.646 35.7097C157.577 35.9487 157.654 36.1209 157.731 36.2238C157.87 36.4083 158.11 36.5188 158.373 36.5188C158.628 36.5188 158.835 36.7251 158.835 36.9797C158.835 37.2344 158.628 37.4412 158.373 37.4412C157.821 37.4412 157.305 37.1931 156.993 36.7777Z"
        fill="black" />
    <path fill-rule="evenodd" clip-rule="evenodd"
        d="M170.092 44.5155V47.647C170.092 47.647 165.008 45.6376 164.09 43.998C164.09 43.998 167.322 45.577 170.092 44.5155Z"
        fill="black" />
    <path fill-rule="evenodd" clip-rule="evenodd"
        d="M158.247 34.0761C158.247 34.0761 155.946 33.0881 155.782 35.8273C155.782 35.8273 156.174 38.861 159.389 38.354L159.569 45.0616C159.569 45.0616 149.753 45.0428 151.928 33.9716C151.928 33.9716 147.64 33.7482 146.835 28.6511C146.044 23.6345 149.223 19.4778 153.284 17.7568C156.002 16.6048 159.358 16.9439 160.376 17.6126C162.193 18.8057 162.917 20.7098 162.613 21.3918C162.138 22.4546 167.959 19.2458 172.425 24.4692C172.425 24.4692 163.774 33.9798 158.247 34.0761Z"
        fill="#0B0C19" />
    <path fill-rule="evenodd" clip-rule="evenodd"
        d="M167.949 32.4811C167.949 32.6993 167.772 32.8763 167.554 32.8763C167.336 32.8763 167.159 32.6993 167.159 32.4811C167.159 32.263 167.336 32.0859 167.554 32.0859C167.772 32.0859 167.949 32.263 167.949 32.4811Z"
        fill="#06030A" />
    <path fill-rule="evenodd" clip-rule="evenodd"
        d="M171.285 38.8047H169.22C169.27 39.3313 169.713 39.7433 170.252 39.7433C170.792 39.7433 171.235 39.3313 171.285 38.8047Z"
        fill="#06030A" />
    <path fill-rule="evenodd" clip-rule="evenodd"
        d="M173.679 32.4811C173.679 32.6993 173.502 32.8763 173.284 32.8763C173.066 32.8763 172.889 32.6993 172.889 32.4811C172.889 32.263 173.066 32.0859 173.284 32.0859C173.502 32.0859 173.679 32.263 173.679 32.4811Z"
        fill="#06030A" />
    <path fill-rule="evenodd" clip-rule="evenodd"
        d="M172.008 35.4327C171.954 35.276 171.89 35.1221 171.843 34.9628C171.765 34.6899 171.675 34.4206 171.585 34.1517C171.491 33.8444 171.396 33.5373 171.302 33.2303C171.288 33.1856 171.274 33.1409 171.26 33.0965C171.215 32.9485 171.051 32.839 170.896 32.8894C170.741 32.9396 170.647 33.0929 170.689 33.254C170.781 33.6104 170.897 33.96 171.014 34.309C171.146 34.7385 171.278 35.1681 171.411 35.5977H170.179H169.969C169.822 35.5977 169.698 35.7103 169.678 35.8548C169.661 35.985 169.744 36.1591 169.89 36.1798C169.917 36.1836 169.943 36.185 169.969 36.1881C169.969 36.1889 169.969 36.1897 169.969 36.1905H169.99C170.535 36.2597 171.102 36.262 171.648 36.1905H171.666C171.689 36.1905 171.711 36.1865 171.733 36.181C171.737 36.1805 171.741 36.1805 171.745 36.1798C171.796 36.1723 171.84 36.1439 171.875 36.1058C171.943 36.0874 172.005 36.0473 172.047 35.9773C172.148 35.8113 172.065 35.5993 172.008 35.4327Z"
        fill="#06030A" />
    <path
        d="M167.554 36.1396C168.03 36.1396 168.415 35.7542 168.415 35.2788C168.415 34.8034 168.03 34.418 167.554 34.418C167.079 34.418 166.693 34.8034 166.693 35.2788C166.693 35.7542 167.079 36.1396 167.554 36.1396Z"
        fill="#F76954" />
    <path fill-rule="evenodd" clip-rule="evenodd"
        d="M163.486 41.3393C164.809 43.1967 172.104 45.925 174.209 41.3393C174.542 40.6128 175.181 34.9789 174.666 35.1668C174.15 35.3547 166.011 35.3328 164.594 34.4468C163.177 33.5608 162.522 39.9866 163.486 41.3393Z"
        fill="#E4F2F7" />
    <path fill-rule="evenodd" clip-rule="evenodd"
        d="M172.072 37.9488C172.073 38.0578 171.986 38.1475 171.877 38.1491L168.559 38.1961L167.756 38.2075C167.647 38.209 167.557 38.1218 167.556 38.0126C167.554 37.9035 167.641 37.8138 167.751 37.8123L171.871 37.7539C171.98 37.7524 172.07 37.8396 172.072 37.9488ZM171.216 39.55C171.325 39.55 171.414 39.6385 171.414 39.7476C171.414 39.8412 171.349 39.9196 171.261 39.94L171.216 39.9452H167.752C167.643 39.9452 167.555 39.8568 167.555 39.7476C167.555 39.6541 167.62 39.5757 167.707 39.5553L167.752 39.55H171.216ZM170.344 41.6798C170.453 41.6771 170.539 41.5865 170.537 41.4774C170.534 41.3683 170.443 41.2821 170.334 41.2848L167.947 41.3436C167.838 41.3463 167.752 41.4369 167.755 41.5461C167.757 41.6551 167.848 41.7414 167.957 41.7387L170.344 41.6798Z"
        fill="#B7D3EA" />
    <path
        d="M152.768 122.004C152.932 127.927 153.327 140.234 153.59 142.077C153.919 144.38 155.4 147.671 158.033 148.658C160.665 149.645 175.473 144.38 183.041 142.077C190.609 139.773 198.507 137.47 203.278 137.47C208.05 137.47 212.985 139.28 215.947 142.077C218.909 144.874 223.515 150.797 225.819 157.049C228.122 163.301 231.029 172.131 233.058 178.109"
        stroke="#DCA75E" stroke-width="0.658119" />
    <path
        d="M148.329 122.828C148.494 128.751 148.329 139.61 149.149 145.04C149.67 148.491 153.023 151.204 155.237 152.937C159.021 155.899 172.677 151.456 180.245 149.153C187.814 146.849 196.534 143.23 201.305 143.23C206.076 143.23 210.19 143.723 213.151 146.52C216.113 149.317 219.9 155.57 222.203 161.822C224.506 168.074 225.601 171.803 227.63 177.781"
        stroke="#DCA75E" stroke-width="0.658119" />
    <rect x="229.227" y="30.873" width="54.7481" height="15.9151" rx="7.95757" fill="#145DFF" />
    <path fill-rule="evenodd" clip-rule="evenodd"
        d="M240.52 37.7651C240.52 38.1816 240.63 38.427 240.872 38.7099C241.055 38.9182 241.114 39.1857 241.114 39.4759C241.114 39.7658 241.019 40.0409 240.828 40.2644C240.578 40.5322 240.226 40.7032 239.867 40.7329C239.346 40.7773 238.824 40.8147 238.296 40.8147C237.767 40.8147 237.246 40.7923 236.725 40.7329C236.366 40.7032 236.013 40.5322 235.764 40.2644C235.573 40.0409 235.478 39.7658 235.478 39.4759C235.478 39.1857 235.537 38.9182 235.72 38.7099C235.97 38.427 236.072 38.1816 236.072 37.7651V37.6239C236.072 37.0662 236.211 36.7015 236.498 36.3446C236.924 35.824 237.606 35.5117 238.281 35.5117H238.311C239.001 35.5117 239.705 35.839 240.124 36.382C240.395 36.7316 240.52 37.0809 240.52 37.6239V37.7651ZM237.326 41.5C237.326 41.3331 237.479 41.2566 237.621 41.2239C237.786 41.1888 238.796 41.1888 238.962 41.2239C239.104 41.2566 239.257 41.3331 239.257 41.5C239.249 41.659 239.155 41.7999 239.027 41.8894C238.86 42.0197 238.663 42.1021 238.459 42.1319C238.345 42.1466 238.234 42.1469 238.124 42.1319C237.919 42.1021 237.723 42.0197 237.556 41.8891C237.427 41.7999 237.334 41.659 237.326 41.5Z"
        fill="#DCE7FF" />
    <rect x="245.144" y="35.3262" width="9.97349" height="2.88706" rx="1.44353" fill="#DCE7FF" />
    <rect x="245.144" y="39.4668" width="6.36606" height="2.86473" rx="1.43236" fill="#DCE7FF" />
    <rect x="256.163" y="35.3262" width="5.2492" height="2.88706" rx="1.44353" fill="#DCE7FF" />
    <rect x="252.146" y="39.4668" width="3.50133" height="2.86473" rx="1.43236" fill="#DCE7FF" />
    <rect x="262.327" y="35.3262" width="16.5517" height="2.86473" rx="1.43236" fill="#DCE7FF" />
    <rect x="256.276" y="39.4668" width="10.504" height="2.86473" rx="1.43236" fill="#DCE7FF" />
    <defs>
        <linearGradient id="paint0_linear_6390_147246" x1="209.774" y1="81" x2="209.774" y2="178.82"
            gradientUnits="userSpaceOnUse">
            <stop offset="0.192708" stop-color="#145DFF" />
            <stop offset="1" stop-color="#145DFF" stop-opacity="0" />
        </linearGradient>
    </defs>
</svg>