<svg width="17" height="16" viewBox="0 0 17 16" fill="none" xmlns="http://www.w3.org/2000/svg">
<g id="Time/calendar">
<path id="Icon" d="M14.5 6.66927H2.5M11.1667 1.33594V4.0026M5.83333 1.33594V4.0026M5.7 14.6693H11.3C12.4201 14.6693 12.9802 14.6693 13.408 14.4513C13.7843 14.2595 14.0903 13.9536 14.282 13.5773C14.5 13.1494 14.5 12.5894 14.5 11.4693V5.86927C14.5 4.74917 14.5 4.18911 14.282 3.76129C14.0903 3.38497 13.7843 3.079 13.408 2.88726C12.9802 2.66927 12.4201 2.66927 11.3 2.66927H5.7C4.5799 2.66927 4.01984 2.66927 3.59202 2.88726C3.21569 3.079 2.90973 3.38497 2.71799 3.76129C2.5 4.18911 2.5 4.74917 2.5 5.86927V11.4693C2.5 12.5894 2.5 13.1494 2.71799 13.5773C2.90973 13.9536 3.21569 14.2595 3.59202 14.4513C4.01984 14.6693 4.5799 14.6693 5.7 14.6693Z" stroke="#485972" stroke-width="1.2" stroke-linecap="round" stroke-linejoin="round"/>
</g>
</svg>
