<svg width="17" height="16" viewBox="0 0 17 16" fill="none" xmlns="http://www.w3.org/2000/svg">
<g id="General/settings-04">
<path id="Icon" d="M2.5 5.33594L10.5 5.33594M10.5 5.33594C10.5 6.44051 11.3954 7.33594 12.5 7.33594C13.6046 7.33594 14.5 6.44051 14.5 5.33594C14.5 4.23137 13.6046 3.33594 12.5 3.33594C11.3954 3.33594 10.5 4.23137 10.5 5.33594ZM6.5 10.6693L14.5 10.6693M6.5 10.6693C6.5 11.7738 5.60457 12.6693 4.5 12.6693C3.39543 12.6693 2.5 11.7738 2.5 10.6693C2.5 9.5647 3.39543 8.66927 4.5 8.66927C5.60457 8.66927 6.5 9.5647 6.5 10.6693Z" stroke="#485972" stroke-width="1.2" stroke-linecap="round" stroke-linejoin="round"/>
</g>
</svg>
