<svg width="191" height="139" viewBox="0 0 191 139" fill="none" xmlns="http://www.w3.org/2000/svg">
    <path d="M112.166 86.7577C129.531 90.1718 141.666 97.969 141.666 107.042C141.666 119.261 119.654 129.167 92.4997 129.167C65.3457 129.167 43.333 119.261 43.333 107.042C43.333 97.969 55.4683 90.1718 72.833 86.7577M92.4997 104.583V65.25M92.4997 65.25C100.646 65.25 107.25 58.6462 107.25 50.5C107.25 42.3538 100.646 35.75 92.4997 35.75C84.3535 35.75 77.7497 42.3538 77.7497 50.5C77.7497 58.6462 84.3535 65.25 92.4997 65.25Z" stroke="#145DFF" stroke-width="5.9" stroke-linecap="round" stroke-linejoin="round"/>
    <path d="M47.9502 39.663C58.4242 41.7224 65.7438 46.4254 65.7438 51.8978C65.7438 59.2682 52.4664 65.2431 36.0877 65.2431C19.7091 65.2431 6.43164 59.2682 6.43164 51.8978C6.43164 46.4254 13.7513 41.7224 24.2253 39.663M36.0877 50.415V26.6901M36.0877 26.6901C41.0013 26.6901 44.9846 22.7069 44.9846 17.7933C44.9846 12.8797 41.0013 8.89648 36.0877 8.89648C31.1742 8.89648 27.1909 12.8797 27.1909 17.7933C27.1909 22.7069 31.1742 26.6901 36.0877 26.6901Z" stroke="#545454" stroke-width="3.55873" stroke-linecap="round" stroke-linejoin="round"/>
    <path d="M166.775 39.663C177.249 41.7224 184.569 46.4254 184.569 51.8978C184.569 59.2682 171.292 65.2431 154.913 65.2431C138.534 65.2431 125.257 59.2682 125.257 51.8978C125.257 46.4254 132.577 41.7224 143.05 39.663M154.913 50.415V26.6901M154.913 26.6901C159.827 26.6901 163.81 22.7069 163.81 17.7933C163.81 12.8797 159.827 8.89648 154.913 8.89648C149.999 8.89648 146.016 12.8797 146.016 17.7933C146.016 22.7069 149.999 26.6901 154.913 26.6901Z" stroke="#545454" stroke-width="3.55873" stroke-linecap="round" stroke-linejoin="round"/>
    </svg>
    