<svg width="20" height="20" viewBox="0 0 20 20" fill="none" xmlns="http://www.w3.org/2000/svg">
    <path d="M9.16667 3.33333H6.5C5.09987 3.33333 4.3998 3.33333 3.86502 3.60582C3.39462 3.8455 3.01217 4.22795 2.77248 4.69836C2.5 5.23314 2.5 5.9332 2.5 7.33333V13.5C2.5 14.9001 2.5 15.6002 2.77248 16.135C3.01217 16.6054 3.39462 16.9878 3.86502 17.2275C4.3998 17.5 5.09987 17.5 6.5 17.5H12.6667C14.0668 17.5 14.7669 17.5 15.3016 17.2275C15.772 16.9878 16.1545 16.6054 16.3942 16.135C16.6667 15.6002 16.6667 14.9001 16.6667 13.5V10.8333M10.8333 14.1667H5.83333M12.5 10.8333H5.83333M16.7678 3.23223C17.7441 4.20854 17.7441 5.79146 16.7678 6.76777C15.7915 7.74408 14.2085 7.74408 13.2322 6.76777C12.2559 5.79146 12.2559 4.20854 13.2322 3.23223C14.2085 2.25592 15.7915 2.25592 16.7678 3.23223Z" stroke="#9EA3AA" stroke-linecap="round" stroke-linejoin="round"/>
    </svg>
    