<svg width="69" height="48" viewBox="0 0 69 48" fill="none" xmlns="http://www.w3.org/2000/svg">
<path d="M58.5265 35.712C58.5265 37.7509 57.1134 39.2173 55.2186 39.2173C53.3238 39.2173 51.9127 37.7451 51.9127 35.712C51.9127 33.679 53.3257 32.2068 55.2186 32.2068C57.1115 32.2068 58.5265 33.7043 58.5265 35.712ZM40.9455 32.2068C39.1269 32.2068 37.8148 33.679 37.8148 35.712C37.8148 37.7451 39.1269 39.2173 40.9455 39.2173C42.6861 39.2173 43.9487 37.7451 43.9487 35.712C43.9487 33.679 42.6861 32.2068 40.9455 32.2068ZM12.984 32.2068C11.1672 32.2068 9.85322 33.7043 9.85322 35.712C9.85322 37.7198 11.1672 39.2173 12.984 39.2173C14.7265 39.2173 15.989 37.7704 15.989 35.712C15.989 33.6965 14.7265 32.2068 12.984 32.2068ZM57.043 48H11.3672C1.5179 48 -3.65241 36.047 2.97282 28.5944L24.4919 4.39042C25.7217 3.00753 27.2205 1.90265 28.8921 1.1466C30.5638 0.390545 32.3715 0 34.1994 0C36.0272 0 37.8349 0.390545 39.5066 1.1466C41.1783 1.90265 42.677 3.00753 43.9068 4.39042L65.4259 28.5944C72.053 36.047 66.8827 48 57.0334 48H57.043ZM19.3654 29.2565H16.0652V30.8319C15.1568 29.5914 13.5896 28.9975 12.127 28.9975C8.64206 28.9975 6.41397 31.9926 6.41397 35.712C6.41397 39.4315 8.63635 42.4247 12.127 42.4247C13.5915 42.4247 15.174 41.856 16.0652 40.6175V42.1754H19.3654V29.2565ZM24.5281 29.2565H21.1517V42.1676H24.5358L24.5281 29.2565ZM24.8385 25.646C24.837 25.0985 24.6237 24.5739 24.2451 24.1868C23.8665 23.7996 23.3534 23.5814 22.818 23.5799C22.2868 23.5871 21.7797 23.8079 21.4065 24.1946C21.0333 24.5813 20.8241 25.1028 20.8242 25.646C20.8296 26.1851 21.0414 26.7004 21.4142 27.0816C21.7869 27.4628 22.2909 27.6794 22.818 27.685C23.3493 27.685 23.8592 27.4711 24.2374 27.0895C24.6156 26.7078 24.8315 26.1893 24.8385 25.646ZM33.768 29.0131C31.1915 29.126 29.9784 30.719 29.6375 31.7394V29.2623H26.303V42.1715H29.687V37.2154C29.687 34.2457 31.0353 32.8728 33.768 32.7812V29.0131ZM47.3327 29.2604H44.122V30.8183C43.1869 29.5778 41.5968 29.0092 40.0828 29.0092C36.5979 29.0092 34.3698 32.0042 34.3698 35.6965C34.3698 39.4413 36.6436 42.4363 40.1267 42.4363C41.5911 42.4363 43.0308 41.8521 43.9353 40.7071V45.4528L47.3194 44.5882L47.3327 29.2604ZM61.9867 35.7159C61.9867 31.9711 59.0064 29.0014 55.2186 29.0014C51.6003 29.0014 48.4772 31.9711 48.4772 35.7159C48.4772 39.4607 51.4575 42.4286 55.2186 42.4286C58.9797 42.4286 61.9867 39.4588 61.9867 35.7159Z" fill="#145FFF"/>
</svg>
