<svg width="24" height="24" viewBox="0 0 24 24" fill="none" xmlns="http://www.w3.org/2000/svg">
    <rect width="24" height="24" rx="12" fill="#E2E3E5"/>
    <path d="M18 15.4998C18 15.4998 17.2064 15.226 16.6667 15.0927C13.2531 14.25 10.7469 16.7497 7.33333 15.907C6.79361 15.7737 6 15.4998 6 15.4998M18 11.9998C18 11.9998 17.2064 11.726 16.6667 11.5927C13.2531 10.75 10.7469 13.2497 7.33333 12.407C6.79361 12.2737 6 11.9998 6 11.9998M18 8.49984C18 8.49984 17.2064 8.22595 16.6667 8.09271C13.2531 7.24998 10.7469 9.74969 7.33333 8.90697C6.79361 8.77372 6 8.49984 6 8.49984" stroke="#60646C" stroke-width="1.2" stroke-linecap="round" stroke-linejoin="round"/>
    </svg>
    