<svg width="20" height="20" viewBox="0 0 20 20" fill="none" xmlns="http://www.w3.org/2000/svg">
    <path d="M9.40253 2.87683C9.59461 2.48771 9.69064 2.29315 9.82102 2.23099C9.93445 2.17691 10.0662 2.17691 10.1797 2.23099C10.31 2.29315 10.4061 2.48771 10.5981 2.87683L12.4204 6.56847C12.4771 6.68334 12.5054 6.74078 12.5469 6.78538C12.5836 6.82486 12.6275 6.85686 12.6764 6.87958C12.7316 6.90525 12.795 6.91451 12.9218 6.93304L16.9978 7.52882C17.427 7.59156 17.6417 7.62293 17.741 7.72776C17.8274 7.81897 17.868 7.94431 17.8516 8.06888C17.8327 8.21205 17.6773 8.36338 17.3666 8.66605L14.4182 11.5377C14.3263 11.6273 14.2803 11.672 14.2507 11.7253C14.2244 11.7724 14.2076 11.8242 14.2011 11.8778C14.1937 11.9383 14.2046 12.0016 14.2263 12.128L14.922 16.1842C14.9953 16.612 15.032 16.8259 14.9631 16.9528C14.9031 17.0633 14.7965 17.1407 14.6729 17.1636C14.5308 17.19 14.3388 17.0889 13.9546 16.8869L10.3106 14.9706C10.1971 14.9109 10.1403 14.881 10.0805 14.8693C10.0276 14.8589 9.97311 14.8589 9.92015 14.8693C9.86034 14.881 9.80358 14.9109 9.69004 14.9706L6.04609 16.8869C5.66192 17.0889 5.46983 17.19 5.3278 17.1636C5.20423 17.1407 5.09759 17.0633 5.03761 16.9528C4.96866 16.8259 5.00535 16.612 5.07872 16.1842L5.7744 12.128C5.79609 12.0016 5.80693 11.9383 5.79959 11.8778C5.7931 11.8242 5.77625 11.7724 5.75 11.7253C5.72034 11.672 5.67439 11.6273 5.58248 11.5377L2.63412 8.66605C2.32338 8.36338 2.168 8.21205 2.1491 8.06888C2.13265 7.94431 2.17329 7.81897 2.2597 7.72776C2.35902 7.62293 2.57363 7.59156 3.00286 7.52882L7.07892 6.93304C7.20568 6.91451 7.26906 6.90525 7.32426 6.87958C7.37313 6.85686 7.41713 6.82486 7.45381 6.78538C7.49525 6.74078 7.5236 6.68334 7.5803 6.56847L9.40253 2.87683Z" stroke="#9EA3AA" stroke-linecap="round" stroke-linejoin="round"/>
    </svg>
    