<svg width="17" height="17" viewBox="0 0 17 17" fill="none" xmlns="http://www.w3.org/2000/svg">
    <path d="M14.3609 8.90513C14.5237 8.76563 14.605 8.69589 14.6348 8.61289C14.661 8.54004 14.661 8.46035 14.6348 8.3875C14.605 8.3045 14.5237 8.23476 14.3609 8.09526L8.71375 3.25484C8.4336 3.01471 8.29353 2.89465 8.17493 2.8917C8.07186 2.88915 7.97341 2.93443 7.90828 3.01435C7.83333 3.1063 7.83333 3.2908 7.83333 3.65978V6.52328C6.41021 6.77225 5.10773 7.49337 4.13981 8.57611C3.08455 9.75654 2.50082 11.2842 2.5 12.8675V13.2755C3.19956 12.4328 4.073 11.7512 5.06051 11.2775C5.93113 10.8598 6.87228 10.6124 7.83333 10.5472V13.3406C7.83333 13.7096 7.83333 13.8941 7.90828 13.986C7.97341 14.066 8.07186 14.1112 8.17493 14.1087C8.29353 14.1057 8.4336 13.9857 8.71375 13.7455L14.3609 8.90513Z" stroke="#F6F6F7" stroke-linecap="round" stroke-linejoin="round"/>
    </svg>
    