<svg width="24" height="24" viewBox="0 0 24 24" fill="none" xmlns="http://www.w3.org/2000/svg">
<mask id="mask0_8534_110139" style="mask-type:alpha" maskUnits="userSpaceOnUse" x="0" y="0" width="24" height="24">
<rect width="24" height="24" fill="#D9D9D9"/>
</mask>
<g mask="url(#mask0_8534_110139)">
<path d="M19.8 22.5969L15.6 18.4469C15.0167 18.6302 14.4293 18.7679 13.838 18.8599C13.246 18.9512 12.6333 18.9969 12 18.9969C9.48333 18.9969 7.24167 18.3012 5.275 16.9099C3.30833 15.5179 1.88333 13.7135 1 11.4969C1.35 10.6135 1.79167 9.79254 2.325 9.03387C2.85833 8.27587 3.46667 7.59687 4.15 6.99687L1.4 4.19687L2.8 2.79688L21.2 21.1969L19.8 22.5969ZM12 15.9969C12.1833 15.9969 12.354 15.9885 12.512 15.9719C12.6707 15.9552 12.8417 15.9219 13.025 15.8719L7.625 10.4719C7.575 10.6552 7.54167 10.8262 7.525 10.9849C7.50833 11.1429 7.5 11.3135 7.5 11.4969C7.5 12.7469 7.93733 13.8095 8.812 14.6849C9.68733 15.5595 10.75 15.9969 12 15.9969ZM19.3 16.4469L16.125 13.2969C16.2417 13.0135 16.3333 12.7262 16.4 12.4349C16.4667 12.1429 16.5 11.8302 16.5 11.4969C16.5 10.2469 16.0627 9.18421 15.188 8.30888C14.3127 7.43421 13.25 6.99687 12 6.99687C11.6667 6.99687 11.354 7.03021 11.062 7.09688C10.7707 7.16354 10.4833 7.26354 10.2 7.39688L7.65 4.84687C8.33333 4.56354 9.03333 4.35087 9.75 4.20887C10.4667 4.06754 11.2167 3.99688 12 3.99688C14.5167 3.99688 16.7583 4.69254 18.725 6.08387C20.6917 7.47587 22.1167 9.28021 23 11.4969C22.6167 12.4802 22.1127 13.3929 21.488 14.2349C20.8627 15.0762 20.1333 15.8135 19.3 16.4469ZM14.675 11.8469L11.675 8.84688C12.1417 8.76354 12.571 8.80087 12.963 8.95887C13.3543 9.11754 13.6917 9.34687 13.975 9.64687C14.2583 9.94687 14.4627 10.2929 14.588 10.6849C14.7127 11.0762 14.7417 11.4635 14.675 11.8469Z" fill="#209464"/>
</g>
</svg>
