<svg width="20" height="21" viewBox="0 0 20 21" fill="none" xmlns="http://www.w3.org/2000/svg">
<rect width="20" height="21" fill="#EBEBEB"/>
<g clip-path="url(#clip0_253:5)">
<rect width="360" height="1081" transform="translate(-18 -1030)" fill="#F2F1F6"/>
<rect x="-2" y="-236" width="328" height="280" rx="8" fill="white"/>
<rect width="360" height="56" transform="translate(-18 -5)" fill="#F2F1F6"/>
<path d="M7.13478 19.6679V16.6101C7.13478 15.8296 7.77217 15.1968 8.55844 15.1968H11.4326C11.8102 15.1968 12.1723 15.3457 12.4393 15.6108C12.7063 15.8758 12.8563 16.2353 12.8563 16.6101V19.6679C12.8539 19.9924 12.9821 20.3044 13.2124 20.5347C13.4427 20.765 13.7561 20.8945 14.0829 20.8945H16.0438C16.9596 20.8969 17.8388 20.5374 18.4872 19.8953C19.1356 19.2533 19.5 18.3815 19.5 17.4724V8.76139C19.5 8.02699 19.1721 7.33037 18.6046 6.8592L11.934 1.5704C10.7737 0.643093 9.11111 0.673033 7.98539 1.64151L1.46701 6.8592C0.872741 7.31648 0.517552 8.01517 0.5 8.76139V17.4635C0.5 19.3584 2.04738 20.8945 3.95617 20.8945H5.87229C6.55123 20.8945 7.103 20.3507 7.10792 19.6768L7.13478 19.6679Z" fill="#145DFF"/>
</g>
<defs>
<clipPath id="clip0_253:5">
<rect width="360" height="1081" fill="white" transform="translate(-18 -1030)"/>
</clipPath>
</defs>
</svg>
