<svg width="16" height="16" viewBox="0 0 16 16" fill="none" xmlns="http://www.w3.org/2000/svg">
<rect width="16" height="16" rx="2.66667" transform="matrix(-1 0 0 1 16 0)" fill="#145DFF" fill-opacity="0.1"/>
<path d="M6.18151 6.02682C5.94085 5.79418 5.94085 5.41715 6.17349 5.17648C6.29382 5.05615 6.44624 5 6.60668 5C6.7591 5 6.91152 5.05615 7.02382 5.17648L9.82352 7.96013C9.93582 8.07244 10 8.22486 10 8.3853C10 8.54574 9.93582 8.69816 9.82352 8.81047L7.02382 11.5941C6.79119 11.8348 6.41415 11.8348 6.17349 11.5941C5.94085 11.3615 5.94085 10.9764 6.18151 10.7438L8.54801 8.3853L6.18151 6.02682Z" fill="#145DFF"/>
</svg>
