<svg width="19" height="17" viewBox="0 0 19 17" fill="none" xmlns="http://www.w3.org/2000/svg">
<rect width="19" height="17" fill="#EBEBEB"/>
<g clip-path="url(#clip0_253:5)">
<rect width="360" height="1427" transform="translate(-73 -697)" fill="#F2F1F6"/>
<rect x="-57" y="-22" width="328" height="60" rx="8" fill="white"/>
<g opacity="0.2">
<path d="M10.3332 2.12764L10.3332 12.1835C10.3332 13.1982 11.5601 13.7064 12.2776 12.9889L17.0798 8.18676C17.6493 7.61724 17.6493 6.69388 17.0798 6.12436L12.2776 1.32223C11.5601 0.604677 10.3332 1.11288 10.3332 2.12764Z" fill="black"/>
<path d="M7.47984 4.28729C8.40741 3.9859 9.36975 3.83087 10.3331 3.82219V10.4895C9.36977 10.4982 8.40746 10.6532 7.47991 10.9546C5.56978 11.5752 3.90516 12.7846 2.72463 14.4095C2.51112 14.7034 2.31543 15.0081 2.1381 15.322C1.88544 15.7693 1.20477 15.7442 1.10168 15.241C0.9737 14.6163 0.908203 13.977 0.908203 13.3324C0.908203 11.3239 1.54403 9.36706 2.72456 7.7422C3.90509 6.11734 5.56971 4.90793 7.47984 4.28729Z" fill="black"/>
<path d="M10.3332 2.12764L10.3332 12.1835C10.3332 13.1982 11.5601 13.7064 12.2776 12.9889L17.0798 8.18676C17.6493 7.61724 17.6493 6.69388 17.0798 6.12436L12.2776 1.32223C11.5601 0.604677 10.3332 1.11288 10.3332 2.12764Z" stroke="black" stroke-width="1.11111" stroke-linecap="round" stroke-linejoin="round"/>
<path d="M7.47984 4.28729C8.40741 3.9859 9.36975 3.83087 10.3331 3.82219V10.4895C9.36977 10.4982 8.40746 10.6532 7.47991 10.9546C5.56978 11.5752 3.90516 12.7846 2.72463 14.4095C2.51112 14.7034 2.31543 15.0081 2.1381 15.322C1.88544 15.7693 1.20477 15.7442 1.10168 15.241C0.9737 14.6163 0.908203 13.977 0.908203 13.3324C0.908203 11.3239 1.54403 9.36706 2.72456 7.7422C3.90509 6.11734 5.56971 4.90793 7.47984 4.28729Z" stroke="black" stroke-width="1.11111" stroke-linecap="round" stroke-linejoin="round"/>
</g>
</g>
<defs>
<clipPath id="clip0_253:5">
<rect width="360" height="1427" fill="white" transform="translate(-73 -697)"/>
</clipPath>
</defs>
</svg>
