<svg width="20" height="16" viewBox="0 0 20 16" fill="none" xmlns="http://www.w3.org/2000/svg">
<rect width="20" height="16" fill="#EBEBEB"/>
<g clip-path="url(#clip0_253:5)">
<rect width="360" height="1427" transform="translate(-315 -196)" fill="#F2F1F6"/>
<rect x="-6" y="-8" width="32" height="32" rx="8" fill="white"/>
<path d="M6 16.0005C4.17526 16.0014 2.58119 14.7673 2.125 13.0005H0V11.0005H2.126C2.64564 8.98794 4.62012 7.70874 6.66928 8.05706C8.71845 8.40537 10.1594 10.2651 9.98486 12.3363C9.81035 14.4075 8.07856 16 6 16.0005ZM6 10.0005C4.9074 10.0016 4.01789 10.8793 4.00223 11.9718C3.98658 13.0643 4.85057 13.9672 5.94269 13.9996C7.03481 14.032 7.95083 13.182 8 12.0905V12.4905V12.0005C8 10.8959 7.10457 10.0005 6 10.0005ZM20 13.0005H11V11.0005H20V13.0005ZM11 8.00049C9.17563 8.00096 7.58209 6.76693 7.126 5.00049H0V3.00049H7.126C7.64564 0.987939 9.62012 -0.291258 11.6693 0.0570554C13.7184 0.405368 15.1594 2.26511 14.9849 4.33633C14.8103 6.40755 13.0786 7.99996 11 8.00049ZM11 2.00049C9.9074 2.0016 9.01789 2.87934 9.00223 3.97183C8.98658 5.06433 9.85056 5.9672 10.9427 5.99961C12.0348 6.03203 12.9508 5.18199 13 4.09049V4.49049V4.00049C13 2.89592 12.1046 2.00049 11 2.00049ZM20 5.00049H16V3.00049H20V5.00049Z" fill="#2E3A59"/>
</g>
<defs>
<clipPath id="clip0_253:5">
<rect width="360" height="1427" fill="white" transform="translate(-315 -196)"/>
</clipPath>
</defs>
</svg>
