<svg width="16" height="17" viewBox="0 0 16 17" fill="none" xmlns="http://www.w3.org/2000/svg">
<path d="M9.16525 2.25661L14.1839 5.51876C14.3613 5.63402 14.4499 5.69166 14.5142 5.76854C14.571 5.83659 14.6138 5.91531 14.6398 6.00007C14.6693 6.09584 14.6693 6.20159 14.6693 6.4131V11.3009C14.6693 12.421 14.6693 12.9811 14.4513 13.4089C14.2595 13.7852 13.9536 14.0912 13.5773 14.2829C13.1494 14.5009 12.5894 14.5009 11.4693 14.5009H4.53594C3.41583 14.5009 2.85578 14.5009 2.42796 14.2829C2.05163 14.0912 1.74567 13.7852 1.55392 13.4089C1.33594 12.9811 1.33594 12.421 1.33594 11.3009V6.4131C1.33594 6.20159 1.33594 6.09584 1.36538 6.00007C1.39145 5.91531 1.43417 5.83659 1.49104 5.76854C1.55528 5.69166 1.64395 5.63402 1.82128 5.51876L6.83996 2.25662M9.16525 2.25661C8.74442 1.98308 8.534 1.84631 8.30729 1.79309C8.10689 1.74605 7.89832 1.74605 7.69792 1.79309C7.47121 1.84631 7.26079 1.98308 6.83996 2.25662M9.16525 2.25661L13.9813 5.38706C14.2106 5.53609 14.3252 5.61061 14.3649 5.70511C14.3996 5.78769 14.3996 5.88077 14.3649 5.96335C14.3252 6.05785 14.2106 6.13237 13.9813 6.2814L9.16525 9.41185C8.74442 9.68538 8.534 9.82216 8.30729 9.87537C8.10689 9.92241 7.89832 9.92241 7.69792 9.87537C7.47121 9.82216 7.26079 9.68539 6.83996 9.41185L2.02389 6.2814C1.79461 6.13237 1.67997 6.05785 1.64026 5.96335C1.60556 5.88077 1.60556 5.78769 1.64026 5.70511C1.67997 5.61061 1.79461 5.53609 2.02389 5.38706L6.83996 2.25662" stroke="#6F87A1" stroke-width="1.5" stroke-linecap="round" stroke-linejoin="round"/>
</svg>
