<svg width="21" height="21" viewBox="0 0 21 21" fill="none" xmlns="http://www.w3.org/2000/svg">
<path d="M6.62602 12.9988C7.07006 14.724 8.63616 15.9988 10.5 15.9988C12.3638 15.9988 13.9299 14.724 14.374 12.9988M9.5177 1.76278L2.73539 7.0379C2.28202 7.39052 2.05534 7.56683 1.89203 7.78764C1.74737 7.98322 1.6396 8.20356 1.57403 8.43783C1.5 8.7023 1.5 8.98948 1.5 9.56383V16.7988C1.5 17.9189 1.5 18.4789 1.71799 18.9067C1.90973 19.2831 2.21569 19.589 2.59202 19.7808C3.01984 19.9988 3.57989 19.9988 4.7 19.9988H16.3C17.4201 19.9988 17.9802 19.9988 18.408 19.7808C18.7843 19.589 19.0903 19.2831 19.282 18.9067C19.5 18.4789 19.5 17.9189 19.5 16.7988V9.56383C19.5 8.98948 19.5 8.7023 19.426 8.43783C19.3604 8.20356 19.2526 7.98322 19.108 7.78764C18.9447 7.56683 18.718 7.39052 18.2646 7.03791L11.4823 1.76278C11.131 1.48953 10.9553 1.3529 10.7613 1.30038C10.5902 1.25404 10.4098 1.25404 10.2387 1.30038C10.0447 1.3529 9.86902 1.48953 9.5177 1.76278Z" stroke="#536A87" stroke-width="1.5" stroke-linecap="round" stroke-linejoin="round"/>
</svg>