<svg width="25" height="24" viewBox="0 0 25 24" fill="none" xmlns="http://www.w3.org/2000/svg">
<path d="M12.5 20H5.7C4.57989 20 4.01984 20 3.59202 19.782C3.21569 19.5903 2.90973 19.2843 2.71799 18.908C2.5 18.4802 2.5 17.9201 2.5 16.8V7.2C2.5 6.07989 2.5 5.51984 2.71799 5.09202C2.90973 4.71569 3.21569 4.40973 3.59202 4.21799C4.01984 4 4.57989 4 5.7 4H6.1C8.34021 4 9.46031 4 10.316 4.43597C11.0686 4.81947 11.6805 5.43139 12.064 6.18404C12.5 7.03968 12.5 8.15979 12.5 10.4M12.5 20V10.4M12.5 20H19.3C20.4201 20 20.9802 20 21.408 19.782C21.7843 19.5903 22.0903 19.2843 22.282 18.908C22.5 18.4802 22.5 17.9201 22.5 16.8V7.2C22.5 6.07989 22.5 5.51984 22.282 5.09202C22.0903 4.71569 21.7843 4.40973 21.408 4.21799C20.9802 4 20.4201 4 19.3 4H18.9C16.6598 4 15.5397 4 14.684 4.43597C13.9314 4.81947 13.3195 5.43139 12.936 6.18404C12.5 7.03968 12.5 8.15979 12.5 10.4" stroke="#536A87" stroke-width="1.5" stroke-linecap="round" stroke-linejoin="round"/>
</svg>