<svg width="531" height="341" viewBox="0 0 531 341" fill="none" xmlns="http://www.w3.org/2000/svg">
<path d="M299.221 288.834C257.888 290.973 91.7831 298.748 37.9025 262.09C-15.9781 225.432 55.5683 148.156 92.9582 121.115C130.348 94.0736 192.107 48.2507 237.012 41.4698C281.916 34.689 357.859 48.4265 407.17 75.3218C456.48 102.217 485.386 152.085 483.904 185.479C482.422 218.872 432.241 269.224 384.688 279.074C356.618 284.967 327.992 288.236 299.221 288.834Z" fill="#EBFFF5"/>
<path d="M288.99 292.419L288.981 292.417L288.973 292.416C267.653 289.52 214.203 282.064 159.943 269.801C132.813 263.669 105.494 256.339 81.8936 247.78C58.2776 239.216 38.4504 229.445 26.2521 218.459C14.0977 207.513 10.339 195.756 12.1043 183.992C13.8771 172.178 21.2359 160.263 31.5218 149.094C52.089 126.76 84.1291 107.655 105.412 98.6112C107.133 97.88 108.899 97.128 110.707 96.3581C131.324 87.5788 157.394 76.4773 183.924 67.517C212.796 57.7659 242.137 50.5782 265.545 51.6448C288.988 52.7129 319.555 60.0005 350.03 71.3188C380.502 82.6357 410.833 97.9643 433.811 115.082C456.767 132.184 473.585 153.654 483.793 174.676C494.009 195.712 497.577 216.234 494.137 231.453C492.43 239.008 487.479 247.029 480.17 254.83C472.868 262.625 463.246 270.164 452.262 276.757C430.287 289.949 402.937 299.313 377.939 299.42L377.937 299.42C348.287 299.619 318.495 297.275 288.99 292.419Z" stroke="#0CE87E" stroke-width="1.227"/>
<circle cx="39.3848" cy="99" r="9" fill="#0CE87E"/>
<circle cx="191.385" cy="29" r="9" fill="#0CE87E"/>
<path d="M206 165.5L242.667 202L316 129" stroke="#0CE87E" stroke-width="30"/>
<circle cx="209.385" cy="313" r="9" fill="#0CE87E"/>
<circle cx="373.385" cy="138" r="9" fill="#0CE87E"/>
<circle cx="390.885" cy="25.5" r="3.5" fill="#0CE87E"/>
<circle cx="121.885" cy="71.5" r="3.5" fill="#0CE87E"/>
<circle cx="526.885" cy="64.5" r="3.5" fill="#0CE87E"/>
<circle cx="51.8848" cy="300.5" r="3.5" fill="#0CE87E"/>
<circle cx="81.8848" cy="179.5" r="3.5" fill="#0CE87E"/>
<circle cx="441.885" cy="270.5" r="3.5" fill="#0CE87E"/>
<circle cx="514.385" cy="251" r="9" fill="#0CE87E"/>
</svg>
