<svg width="14" height="16" viewBox="0 0 14 16" fill="none" xmlns="http://www.w3.org/2000/svg">
<path fill-rule="evenodd" clip-rule="evenodd" d="M0.399414 6.65421C0.399414 2.97431 3.47452 0 7.19417 0C10.9243 0 13.9994 2.97431 13.9994 6.65421C13.9994 8.50855 13.325 10.2301 12.215 11.6893C10.9905 13.2988 9.48114 14.7012 7.78225 15.8019C7.39342 16.0563 7.04251 16.0755 6.61577 15.8019C4.9072 14.7012 3.39788 13.2988 2.18381 11.6893C1.073 10.2301 0.399414 8.50855 0.399414 6.65421ZM4.95477 6.86249C4.95477 8.09526 5.96072 9.06483 7.19415 9.06483C8.42838 9.06483 9.44401 8.09526 9.44401 6.86249C9.44401 5.63933 8.42838 4.62256 7.19415 4.62256C5.96072 4.62256 4.95477 5.63933 4.95477 6.86249Z" fill="#03A300"/>
</svg>
