<svg width="13" height="15" viewBox="0 0 13 15" fill="none" xmlns="http://www.w3.org/2000/svg">
<path d="M6.63636 15C5.82955 15 5.07386 14.8504 4.36932 14.5511C3.66856 14.2481 3.05114 13.8295 2.51705 13.2955C1.98295 12.7614 1.56629 12.1439 1.26705 11.4432C0.967803 10.7386 0.818182 9.98485 0.818182 9.18182C0.818182 8.37879 0.967803 7.62689 1.26705 6.92614C1.57008 6.22159 1.98674 5.60227 2.51705 5.06818C3.05114 4.53409 3.66856 4.11742 4.36932 3.81818C5.07386 3.51515 5.82955 3.36364 6.63636 3.36364V5.28409C6.09848 5.28409 5.5928 5.38447 5.11932 5.58523C4.64962 5.78598 4.23674 6.06629 3.88068 6.42614C3.52462 6.7822 3.24432 7.19697 3.03977 7.67045C2.83902 8.14015 2.73864 8.64394 2.73864 9.18182C2.73864 9.72348 2.83712 10.2292 3.03409 10.6989C3.23485 11.1686 3.51326 11.5833 3.86932 11.9432C4.22917 12.2992 4.64394 12.5777 5.11364 12.7784C5.58712 12.9792 6.0947 13.0795 6.63636 13.0795C7.17424 13.0795 7.67803 12.9792 8.14773 12.7784C8.62121 12.5777 9.03599 12.2992 9.39205 11.9432C9.75189 11.5833 10.0322 11.1686 10.233 10.6989C10.4337 10.2254 10.5341 9.7197 10.5341 9.18182H12.4545C12.4545 9.98485 12.303 10.7386 12 11.4432C11.7008 12.1439 11.2841 12.7614 10.75 13.2955C10.2159 13.8295 9.59659 14.2481 8.89205 14.5511C8.19129 14.8504 7.43939 15 6.63636 15ZM6.38068 8.26136V0.556818L10.3011 4.40909L6.38068 8.26136Z" fill="#00A305"/>
</svg>
