<svg width="19" height="19" viewBox="0 0 19 19" fill="none" xmlns="http://www.w3.org/2000/svg">
<g id="Iconly/Bulk/Arrow - Right 3">
<g id="Arrow - Right 3">
<path id="Fill 1" opacity="0.4" d="M15.5444 9.02241L9.36253 9.02241C9.07655 9.02241 8.84444 9.25451 8.84444 9.5405C8.84444 9.82649 9.07655 10.0586 9.36253 10.0586L15.5444 10.0586C15.8304 10.0586 16.0625 9.82649 16.0625 9.5405C16.0625 9.25451 15.8304 9.02241 15.5444 9.02241Z" fill="#145FFF"/>
<g id="Group 5">
<mask id="mask0_5397_68928" style="mask-type:luminance" maskUnits="userSpaceOnUse" x="3" y="5" width="7" height="9">
<path id="Clip 4" fill-rule="evenodd" clip-rule="evenodd" d="M9.88086 13.5117L9.88086 5.56643L3.3625 5.56643L3.3625 13.5117L9.88086 13.5117Z" fill="white"/>
</mask>
<g mask="url(#mask0_5397_68928)">
<path id="Fill 3" d="M9.36277 5.56622C9.26606 5.56622 9.17073 5.59316 9.08645 5.64566L3.60435 9.1003C3.45375 9.19563 3.36188 9.36073 3.36188 9.53895C3.36188 9.71717 3.45375 9.88227 3.60435 9.9776L9.08645 13.4322C9.24602 13.5324 9.44773 13.5386 9.61283 13.4467C9.77862 13.3556 9.88086 13.1822 9.88086 12.9936L9.88086 6.08431C9.88086 5.89573 9.77862 5.72234 9.61283 5.63116C9.53477 5.58764 9.44843 5.56622 9.36277 5.56622Z" fill="#145FFF"/>
</g>
</g>
</g>
</g>
</svg>
