<svg width="16" height="16" viewBox="0 0 16 16" fill="none" xmlns="http://www.w3.org/2000/svg">
<path fill-rule="evenodd" clip-rule="evenodd" d="M4.26421 0H11.7358C14.4567 0 15.9928 1.54328 16.0008 4.26421V11.7366C16.0008 14.4567 14.4567 16.0008 11.7358 16.0008H4.26421C1.54328 16.0008 0 14.4567 0 11.7366V4.26421C0 1.54328 1.54328 0 4.26421 0ZM8.0396 12.6886C8.38442 12.6886 8.67163 12.4326 8.70363 12.0886V3.9362C8.73563 3.68818 8.61643 3.43937 8.40042 3.30416C8.1756 3.16816 7.90359 3.16816 7.68838 3.30416C7.47157 3.43937 7.35236 3.68818 7.37557 3.9362V12.0886C7.41637 12.4326 7.70358 12.6886 8.0396 12.6886ZM11.7206 12.6886C12.0566 12.6886 12.3438 12.4326 12.3846 12.0886V9.46447C12.4078 9.20766 12.2886 8.96844 12.0718 8.83244C11.8566 8.69643 11.5846 8.69643 11.3606 8.83244C11.1438 8.96844 11.0245 9.20766 11.0565 9.46447V12.0886C11.0885 12.4326 11.3758 12.6886 11.7206 12.6886ZM4.97545 12.0886C4.94344 12.4326 4.65623 12.6886 4.31141 12.6886C3.9674 12.6886 3.67938 12.4326 3.64818 12.0886V6.56033C3.62418 6.31151 3.74339 6.0643 3.9602 5.92829C4.17541 5.79229 4.44822 5.79229 4.66423 5.92829C4.87944 6.0643 5.00025 6.31151 4.97545 6.56033V12.0886Z" fill="#145DFF"/>
</svg>
