<svg width="25" height="24" viewBox="0 0 25 24" fill="none" xmlns="http://www.w3.org/2000/svg">
<path d="M8.0579 17.8499L12.498 13.4097L16.9382 17.8499L18.3479 16.4402L13.9078 12L18.3479 7.55985L16.9382 6.15012L12.498 10.5903L8.0579 6.15012L6.64816 7.55985L11.0883 12L6.64816 16.4402L8.0579 17.8499ZM12.498 24C10.8579 24 9.30803 23.6849 7.84838 23.0547C6.38825 22.4249 5.11315 21.565 4.0231 20.475C2.93304 19.3849 2.07314 18.1098 1.44339 16.6497C0.813161 15.19 0.498047 13.6401 0.498047 12C0.498047 10.3402 0.813161 8.78022 1.44339 7.32009C2.07314 5.85996 2.93304 4.58991 4.0231 3.50993C5.11315 2.42995 6.38825 1.57509 7.84838 0.945341C9.30803 0.315114 10.8579 0 12.498 0C14.1579 0 15.7178 0.315114 17.178 0.945341C18.6381 1.57509 19.9081 2.42995 20.9881 3.50993C22.0681 4.58991 22.923 5.85996 23.5527 7.32009C24.1829 8.78022 24.498 10.3402 24.498 12C24.498 13.6401 24.1829 15.19 23.5527 16.6497C22.923 18.1098 22.0681 19.3849 20.9881 20.475C19.9081 21.565 18.6381 22.4249 17.178 23.0547C15.7178 23.6849 14.1579 24 12.498 24Z" fill="#C6C6CC"/>
</svg>
