<svg width="18" height="19" viewBox="0 0 18 19" fill="none" xmlns="http://www.w3.org/2000/svg">
<path fill-rule="evenodd" clip-rule="evenodd" d="M10.917 3.03289C10.9355 3.26519 11.0895 3.46271 11.3035 3.55482C11.5234 3.64944 11.7391 3.75746 11.9494 3.87888C12.1599 4.00038 12.3614 4.13325 12.5534 4.27647C12.7402 4.41582 12.9882 4.45043 13.1987 4.3503L14.4476 3.75606C14.6796 3.64564 14.9581 3.69601 15.1246 3.89179C15.7691 4.64989 16.2709 5.51945 16.6048 6.45681C16.691 6.69881 16.5953 6.96502 16.3838 7.11073L15.245 7.89494C15.0531 8.02712 14.959 8.25925 14.9863 8.49069C15.0143 8.72848 15.0286 8.96933 15.0286 9.21222C15.0286 9.4551 15.0143 9.69596 14.9863 9.93374C14.959 10.1652 15.0531 10.3973 15.245 10.5295L16.3832 11.3133C16.5948 11.459 16.6904 11.7253 16.6041 11.9673C16.27 12.9047 15.768 13.7742 15.1232 14.5322C14.9568 14.7279 14.6784 14.7782 14.4464 14.6678L13.1987 14.0741C12.9882 13.974 12.7402 14.0086 12.5534 14.148C12.3614 14.2912 12.1599 14.4241 11.9494 14.5456C11.7391 14.667 11.5234 14.775 11.3035 14.8696C11.0895 14.9617 10.9355 15.1592 10.917 15.3915L10.8072 16.7693C10.7868 17.0254 10.6041 17.2413 10.3514 17.2876C9.37265 17.4671 8.36867 17.4673 7.38987 17.2882C7.1371 17.2419 6.95426 17.0259 6.93386 16.7698L6.82409 15.3918C6.80558 15.1595 6.65156 14.9619 6.43747 14.8698C6.21739 14.7752 6.00151 14.6671 5.79103 14.5456C5.58067 14.4241 5.37923 14.2913 5.1873 14.1481C5.0005 14.0088 4.75243 13.9742 4.542 14.0743L3.29276 14.6687C3.06078 14.7791 2.78242 14.7288 2.61594 14.5331C1.97117 13.7753 1.46905 12.9061 1.13479 11.9689C1.04845 11.7269 1.14407 11.4605 1.35571 11.3148L2.49547 10.5299C2.68741 10.3977 2.78147 10.1655 2.75419 9.93407C2.72615 9.69618 2.71183 9.45522 2.71183 9.21222C2.71183 8.96922 2.72615 8.72825 2.75419 8.49036C2.78147 8.25891 2.68741 8.02676 2.49547 7.89458L1.35513 7.10925C1.14352 6.96352 1.0479 6.69724 1.13416 6.45523C1.4682 5.51806 1.97009 4.64872 2.61463 3.89082C2.78109 3.69509 3.05951 3.64475 3.29153 3.75515L4.542 4.35013C4.75243 4.45026 5.0005 4.41565 5.1873 4.27632C5.37923 4.13315 5.58067 4.00033 5.79103 3.87888C6.00151 3.75736 6.21739 3.64926 6.43747 3.55459C6.65156 3.46249 6.80558 3.26495 6.82409 3.03263L6.93402 1.65259C6.95442 1.39643 7.13727 1.18045 7.39004 1.1342C8.36873 0.955091 9.37259 0.955268 10.3512 1.13473C10.6039 1.18107 10.7867 1.397 10.8071 1.65308L10.917 3.03289ZM10.409 6.54569C9.45625 5.99565 8.28247 5.99565 7.32976 6.54569C6.37705 7.09574 5.79016 8.11227 5.79016 9.21236C5.79016 10.3125 6.37705 11.329 7.32976 11.879C8.28247 12.4291 9.45625 12.4291 10.409 11.879C11.3617 11.329 11.9486 10.3125 11.9486 9.21236C11.9486 8.11227 11.3617 7.09574 10.409 6.54569Z" fill="#145DFF"/>
<path d="M11.9494 3.87888L12.2457 3.36568H12.2457L11.9494 3.87888ZM11.9494 14.5456L12.2457 15.0588L11.9494 14.5456ZM5.79103 14.5456L5.49473 15.0588H5.49473L5.79103 14.5456ZM5.79103 3.87888L6.08732 4.39208L6.08733 4.39208L5.79103 3.87888ZM7.32976 6.54569L7.62606 7.05889L7.32976 6.54569ZM7.32976 11.879L7.62606 11.3658H7.62606L7.32976 11.879ZM10.409 11.879L10.1127 11.3658L10.409 11.879ZM10.8071 1.65308L10.2163 1.70014L10.8071 1.65308ZM2.49547 7.89458L2.15935 8.38263L2.49547 7.89458ZM2.49547 10.5299L2.15936 10.0418L2.49547 10.5299ZM1.35571 11.3148L1.0196 10.8267L1.35571 11.3148ZM3.29276 14.6687L3.03815 14.1336L3.29276 14.6687ZM2.61594 14.5331L2.16461 14.9171L2.61594 14.5331ZM5.1873 14.1481L4.83299 14.6231L5.1873 14.1481ZM4.542 14.0743L4.79661 14.6094L4.542 14.0743ZM6.82409 15.3918L7.41481 15.3447L6.82409 15.3918ZM6.43747 14.8698L6.2033 15.4142L6.43747 14.8698ZM7.38987 17.2882L7.28318 17.8711L7.38987 17.2882ZM6.93386 16.7698L7.52458 16.7227L6.93386 16.7698ZM12.5534 14.148L12.199 13.673L12.5534 14.148ZM15.1232 14.5322L15.5746 14.9161L15.1232 14.5322ZM14.4464 14.6678L14.701 14.1327L14.4464 14.6678ZM16.3832 11.3133L16.7193 10.8253L16.3832 11.3133ZM16.6041 11.9673L17.1623 12.1663L16.6041 11.9673ZM14.9863 9.93374L14.3978 9.8644L14.9863 9.93374ZM15.245 10.5295L14.9089 11.0175L15.245 10.5295ZM6.93402 1.65259L6.3433 1.60553L6.93402 1.65259ZM7.39004 1.1342L7.28337 0.551283L7.39004 1.1342ZM15.245 7.89494L15.5812 8.383L15.245 7.89494ZM14.9863 8.49069L15.5748 8.42136L14.9863 8.49069ZM6.82409 3.03263L6.23337 2.98558L6.82409 3.03263ZM16.6048 6.45681L17.163 6.25797L16.6048 6.45681ZM16.3838 7.11073L16.7199 7.59878L16.3838 7.11073ZM14.4476 3.75606L14.193 3.22095L14.4476 3.75606ZM15.1246 3.89179L15.576 3.50796L15.1246 3.89179ZM10.3514 17.2876L10.4583 17.8705L10.3514 17.2876ZM5.1873 4.27632L4.83299 3.80131L5.1873 4.27632ZM12.5534 4.27647L12.9077 3.80148L12.5534 4.27647ZM11.3035 14.8696L11.0693 14.3253L11.3035 14.8696ZM10.917 15.3915L11.5077 15.4386L10.917 15.3915ZM2.61463 3.89082L2.16321 3.50692L2.61463 3.89082ZM3.29153 3.75515L3.03692 4.29026L3.29153 3.75515ZM11.3035 3.55482L11.0693 4.09916L11.3035 3.55482ZM10.917 3.03289L10.3263 3.07995L10.917 3.03289ZM12.2457 3.36568C12.0153 3.23262 11.7788 3.11422 11.5378 3.01048L11.0693 4.09916C11.268 4.18466 11.463 4.2823 11.6531 4.39208L12.2457 3.36568ZM12.9077 3.80148C12.6972 3.64446 12.4763 3.49882 12.2457 3.36568L11.6531 4.39208C11.8434 4.50193 12.0255 4.62204 12.199 4.75146L12.9077 3.80148ZM14.193 3.22095L12.9441 3.81519L13.4533 4.88541L14.7022 4.29116L14.193 3.22095ZM17.163 6.25797C16.805 5.25298 16.267 4.32074 15.576 3.50796L14.6731 4.27563C15.2711 4.97904 15.7367 5.78591 16.0465 6.65566L17.163 6.25797ZM15.5812 8.383L16.7199 7.59878L16.0476 6.62267L14.9089 7.40689L15.5812 8.383ZM15.6212 9.21222C15.6212 8.94605 15.6055 8.68205 15.5748 8.42136L14.3978 8.56003C14.4231 8.77491 14.436 8.99261 14.436 9.21222H15.6212ZM15.5748 10.0031C15.6055 9.74238 15.6212 9.47838 15.6212 9.21222H14.436C14.436 9.43183 14.4231 9.64953 14.3978 9.8644L15.5748 10.0031ZM16.7193 10.8253L15.5811 10.0414L14.9089 11.0175L16.0471 11.8014L16.7193 10.8253ZM15.5746 14.9161C16.2659 14.1034 16.8041 13.1713 17.1623 12.1663L16.046 11.7684C15.7359 12.6381 15.2701 13.4449 14.6719 14.1482L15.5746 14.9161ZM12.9441 14.6092L14.1918 15.2029L14.701 14.1327L13.4533 13.539L12.9441 14.6092ZM12.2457 15.0588C12.4763 14.9256 12.6972 14.78 12.9077 14.623L12.199 13.673C12.0255 13.8024 11.8434 13.9225 11.6531 14.0323L12.2457 15.0588ZM11.5378 15.4139C11.7788 15.3102 12.0153 15.1918 12.2457 15.0588L11.6531 14.0323C11.463 14.1421 11.268 14.2398 11.0693 14.3253L11.5378 15.4139ZM11.3979 16.8163L11.5077 15.4386L10.3263 15.3445L10.2165 16.7222L11.3979 16.8163ZM7.28318 17.8711C8.33259 18.0632 9.40894 18.063 10.4583 17.8705L10.2445 16.7048C9.33636 16.8713 8.40475 16.8715 7.49656 16.7053L7.28318 17.8711ZM6.23337 15.4389L6.34313 16.8168L7.52458 16.7227L7.41481 15.3447L6.23337 15.4389ZM5.49473 15.0588C5.72539 15.1919 5.96201 15.3104 6.2033 15.4142L6.67164 14.3255C6.47276 14.2399 6.27764 14.1422 6.08732 14.0323L5.49473 15.0588ZM4.83299 14.6231C5.04341 14.7801 5.26421 14.9257 5.49473 15.0588L6.08733 14.0323C5.89713 13.9225 5.71505 13.8025 5.54161 13.6731L4.83299 14.6231ZM3.54736 15.2038L4.79661 14.6094L4.28739 13.5392L3.03815 14.1336L3.54736 15.2038ZM0.576636 12.168C0.935014 13.1727 1.47333 14.1047 2.16461 14.9171L3.06727 14.1491C2.46901 13.446 2.00309 12.6394 1.69294 11.7698L0.576636 12.168ZM2.15936 10.0418L1.0196 10.8267L1.69182 11.8028L2.83158 11.0179L2.15936 10.0418ZM2.11923 9.21222C2.11923 9.47851 2.13493 9.74263 2.16567 10.0034L3.3427 9.8647C3.31737 9.64973 3.30442 9.43193 3.30442 9.21222H2.11923ZM2.16567 8.42099C2.13493 8.6818 2.11923 8.94593 2.11923 9.21222H3.30442C3.30442 8.9925 3.31737 8.7747 3.3427 8.55973L2.16567 8.42099ZM1.01902 7.5973L2.15935 8.38263L2.83158 7.40652L1.69124 6.6212L1.01902 7.5973ZM2.16321 3.50692C1.47217 4.31949 0.934104 5.2515 0.57597 6.25627L1.69236 6.65419C2.0023 5.78463 2.468 4.97795 3.06605 4.27473L2.16321 3.50692ZM4.79661 3.81503L3.54614 3.22004L3.03692 4.29026L4.28739 4.88524L4.79661 3.81503ZM5.49473 3.36568C5.26421 3.49877 5.04341 3.64436 4.83299 3.80131L5.54161 4.75132C5.71505 4.62195 5.89713 4.50189 6.08732 4.39208L5.49473 3.36568ZM6.2033 3.01023C5.96201 3.11402 5.72539 3.23251 5.49473 3.36568L6.08733 4.39208C6.27764 4.28221 6.47276 4.1845 6.67164 4.09895L6.2033 3.01023ZM6.3433 1.60553L6.23337 2.98558L7.41481 3.07969L7.52474 1.69965L6.3433 1.60553ZM10.4581 0.551855C9.40888 0.359449 8.33266 0.359258 7.28337 0.551283L7.49672 1.71711C8.40481 1.55092 9.3363 1.55109 10.2443 1.7176L10.4581 0.551855ZM11.5077 2.98583L11.3978 1.60603L10.2163 1.70014L10.3263 3.07995L11.5077 2.98583ZM7.62606 7.05889C8.39542 6.6147 9.34331 6.6147 10.1127 7.05889L10.7053 6.03249C9.5692 5.37659 8.16952 5.37659 7.03346 6.03249L7.62606 7.05889ZM6.38275 9.21236C6.38275 8.32398 6.8567 7.50308 7.62606 7.05889L7.03347 6.03249C5.89741 6.6884 5.19757 7.90056 5.19757 9.21236H6.38275ZM7.62606 11.3658C6.8567 10.9216 6.38275 10.1007 6.38275 9.21236H5.19757C5.19757 10.5242 5.89741 11.7363 7.03347 12.3922L7.62606 11.3658ZM10.1127 11.3658C9.34331 11.81 8.39542 11.81 7.62606 11.3658L7.03346 12.3922C8.16952 13.0481 9.5692 13.0481 10.7053 12.3922L10.1127 11.3658ZM11.356 9.21236C11.356 10.1007 10.882 10.9216 10.1127 11.3658L10.7053 12.3922C11.8413 11.7363 12.5412 10.5242 12.5412 9.21236H11.356ZM10.1127 7.05889C10.882 7.50308 11.356 8.32398 11.356 9.21236H12.5412C12.5412 7.90056 11.8413 6.6884 10.7053 6.03249L10.1127 7.05889ZM10.2443 1.7176C10.2392 1.71666 10.2336 1.71463 10.2287 1.71174C10.2239 1.70899 10.2209 1.70614 10.2191 1.70412C10.2159 1.70041 10.2162 1.69866 10.2163 1.70014L11.3978 1.60603C11.3576 1.10113 10.9929 0.649921 10.4581 0.551855L10.2443 1.7176ZM1.69124 6.6212C1.69002 6.62035 1.69171 6.62093 1.69331 6.62558C1.69418 6.62811 1.69512 6.63219 1.69513 6.63767C1.69514 6.64341 1.69412 6.64924 1.69236 6.65419L0.57597 6.25627C0.393404 6.76847 0.601822 7.30998 1.01902 7.5973L1.69124 6.6212ZM3.3427 8.55973C3.39325 8.13094 3.22119 7.67484 2.83158 7.40652L2.15935 8.38263C2.1577 8.38149 2.15931 8.38154 2.16187 8.38754C2.16479 8.3944 2.16742 8.40616 2.16567 8.42099L3.3427 8.55973ZM2.83158 11.0179C3.22119 10.7496 3.39325 10.2935 3.3427 9.8647L2.16567 10.0034C2.16742 10.0183 2.16479 10.03 2.16187 10.0369C2.15931 10.0429 2.1577 10.0429 2.15936 10.0418L2.83158 11.0179ZM1.69294 11.7698C1.6947 11.7748 1.69572 11.7806 1.69571 11.7864C1.6957 11.7918 1.69476 11.7959 1.69389 11.7985C1.69229 11.8031 1.6906 11.8037 1.69182 11.8028L1.0196 10.8267C0.602328 11.1141 0.393921 11.6558 0.576636 12.168L1.69294 11.7698ZM3.03815 14.1336C3.03681 14.1342 3.03815 14.1331 3.04297 14.134C3.0456 14.1345 3.0496 14.1357 3.05435 14.1385C3.05933 14.1413 3.06387 14.1451 3.06727 14.1491L2.16461 14.9171C2.51693 15.3312 3.09001 15.4214 3.54736 15.2038L3.03815 14.1336ZM5.54161 13.6731C5.19554 13.415 4.71455 13.3359 4.28739 13.5392L4.79661 14.6094C4.7948 14.6103 4.79564 14.6089 4.80212 14.6097C4.80952 14.6106 4.82102 14.6142 4.83299 14.6231L5.54161 13.6731ZM7.41481 15.3447C7.37724 14.8732 7.06827 14.4961 6.67164 14.3255L6.2033 15.4142C6.21701 15.4201 6.22589 15.4283 6.23037 15.4342C6.23429 15.4394 6.23352 15.4409 6.23337 15.4389L7.41481 15.3447ZM7.49656 16.7053C7.50172 16.7062 7.50728 16.7082 7.51225 16.7111C7.51699 16.7139 7.52005 16.7167 7.52181 16.7188C7.52504 16.7225 7.52469 16.7242 7.52458 16.7227L6.34313 16.8168C6.38336 17.3219 6.74822 17.7732 7.28318 17.8711L7.49656 16.7053ZM13.4533 13.539C13.0261 13.3358 12.5451 13.4148 12.199 13.673L12.9077 14.623C12.9197 14.614 12.9312 14.6104 12.9386 14.6095C12.945 14.6087 12.9459 14.6101 12.9441 14.6092L13.4533 13.539ZM14.6719 14.1482C14.6753 14.1442 14.6798 14.1404 14.6848 14.1376C14.6895 14.1348 14.6935 14.1336 14.6962 14.1331C14.701 14.1321 14.7023 14.1333 14.701 14.1327L14.1918 15.2029C14.6492 15.4205 15.2223 15.3303 15.5746 14.9161L14.6719 14.1482ZM16.0471 11.8014C16.0483 11.8022 16.0466 11.8016 16.045 11.797C16.0441 11.7944 16.0432 11.7904 16.0432 11.7849C16.0432 11.7791 16.0442 11.7733 16.046 11.7684L17.1623 12.1663C17.3449 11.6541 17.1365 11.1126 16.7193 10.8253L16.0471 11.8014ZM14.3978 9.8644C14.3473 10.2932 14.5193 10.7492 14.9089 11.0175L15.5811 10.0414C15.5828 10.0426 15.5812 10.0425 15.5786 10.0365C15.5757 10.0297 15.5731 10.0179 15.5748 10.0031L14.3978 9.8644ZM7.52474 1.69965C7.52486 1.69817 7.52521 1.69992 7.52198 1.70363C7.52022 1.70565 7.51716 1.7085 7.51241 1.71125C7.50744 1.71414 7.50188 1.71616 7.49672 1.71711L7.28337 0.551283C6.7484 0.649185 6.38353 1.10049 6.3433 1.60553L7.52474 1.69965ZM14.9089 7.40689C14.5193 7.6752 14.3473 8.13126 14.3978 8.56003L15.5748 8.42136C15.5731 8.40653 15.5757 8.39476 15.5786 8.3879C15.5812 8.3819 15.5828 8.38186 15.5812 8.383L14.9089 7.40689ZM6.67164 4.09895C7.06827 3.92833 7.37724 3.55127 7.41481 3.07969L6.23337 2.98558C6.23352 2.98358 6.23429 2.98499 6.23037 2.99021C6.22589 2.99617 6.21701 3.00433 6.2033 3.01023L6.67164 4.09895ZM16.0465 6.65566C16.0448 6.65071 16.0437 6.64489 16.0438 6.63914C16.0438 6.63366 16.0447 6.62959 16.0456 6.62705C16.0472 6.62241 16.0489 6.62183 16.0476 6.62267L16.7199 7.59878C17.137 7.31151 17.3454 6.77012 17.163 6.25797L16.0465 6.65566ZM14.7022 4.29116C14.7035 4.29053 14.7022 4.2917 14.6974 4.29076C14.6947 4.29025 14.6908 4.28902 14.686 4.28629C14.681 4.28343 14.6765 4.27963 14.6731 4.27563L15.576 3.50796C15.2238 3.0936 14.6505 3.00327 14.193 3.22095L14.7022 4.29116ZM10.2165 16.7222C10.2164 16.7237 10.216 16.722 10.2193 16.7183C10.221 16.7162 10.2241 16.7134 10.2288 16.7106C10.2338 16.7077 10.2393 16.7057 10.2445 16.7048L10.4583 17.8705C10.9931 17.7724 11.3577 17.3212 11.3979 16.8163L10.2165 16.7222ZM4.28739 4.88524C4.71455 5.08849 5.19554 5.00946 5.54161 4.75132L4.83299 3.80131C4.82102 3.81024 4.80952 3.81385 4.80212 3.81475C4.79564 3.81553 4.7948 3.81416 4.79661 3.81503L4.28739 4.88524ZM12.199 4.75146C12.5451 5.00962 13.0261 5.08866 13.4533 4.88541L12.9441 3.81519C12.9459 3.81433 12.945 3.8157 12.9386 3.81492C12.9312 3.81402 12.9197 3.81041 12.9077 3.80148L12.199 4.75146ZM11.0693 14.3253C10.6727 14.4959 10.3638 14.8729 10.3263 15.3445L11.5077 15.4386C11.5075 15.4406 11.5068 15.4392 11.5107 15.434C11.5152 15.428 11.524 15.4199 11.5378 15.4139L11.0693 14.3253ZM3.06605 4.27473C3.06265 4.27872 3.05811 4.28253 3.05313 4.28539C3.04838 4.28812 3.04438 4.28934 3.04175 4.28986C3.03692 4.29079 3.03558 4.28962 3.03692 4.29026L3.54614 3.22004C3.0887 3.00239 2.51549 3.09267 2.16321 3.50692L3.06605 4.27473ZM11.5378 3.01048C11.524 3.00458 11.5152 2.99643 11.5107 2.99047C11.5068 2.98525 11.5075 2.98384 11.5077 2.98583L10.3263 3.07995C10.3638 3.55148 10.6727 3.92852 11.0693 4.09916L11.5378 3.01048Z" fill="#145DFF"/>
</svg>
