<svg width="18" height="18" viewBox="0 0 18 18" fill="none" xmlns="http://www.w3.org/2000/svg">
<rect width="18" height="18" fill="#EBEBEB"/>
<g clip-path="url(#clip0_253:5)">
<rect width="360" height="1427" transform="translate(-214 -696)" fill="#F2F1F6"/>
<rect x="-198" y="-21" width="328" height="60" rx="8" fill="white"/>
<path fill-rule="evenodd" clip-rule="evenodd" d="M12.2076 0.666156C12.7334 0.666156 13.2584 0.744225 13.7576 0.920539C16.8334 1.97316 17.9417 5.52576 17.0159 8.631C16.4909 10.2178 15.6325 11.6661 14.5084 12.8494C12.8992 14.4897 11.1334 15.9459 9.23261 17.2002L9.02427 17.3327L8.80761 17.1915C6.90013 15.9458 5.12432 14.4897 3.50017 12.8406C2.38351 11.6573 1.52435 10.2178 0.991026 8.631C0.0493692 5.52576 1.15769 1.97316 4.26682 0.902119C4.50849 0.8144 4.75765 0.752997 5.00765 0.718787H5.10765C5.34181 0.682822 5.57431 0.666156 5.80764 0.666156H5.89931C6.4243 0.682822 6.93263 0.779313 7.42512 0.955627H7.47429C7.50762 0.972293 7.53262 0.990714 7.54929 1.00738C7.73345 1.06966 7.90762 1.13984 8.07428 1.23633L8.39095 1.38545C8.46747 1.42841 8.55335 1.49404 8.62758 1.55077C8.67461 1.58671 8.71696 1.61908 8.74928 1.63983C8.76288 1.64828 8.7767 1.65677 8.79064 1.66533C8.86209 1.70924 8.93652 1.75497 8.99927 1.80562C9.9251 1.06089 11.0493 0.657384 12.2076 0.666156ZM14.425 6.98149C14.7667 6.97185 15.0583 6.68325 15.0833 6.31396V6.20957C15.1083 4.98063 14.4008 3.86749 13.325 3.43766C12.9834 3.31398 12.6084 3.50784 12.4834 3.87626C12.3667 4.24468 12.55 4.64818 12.9 4.77888C13.4342 4.98941 13.7917 5.54291 13.7917 6.15606V6.18326C13.7758 6.38413 13.8333 6.57799 13.95 6.72711C14.0667 6.87623 14.2417 6.96307 14.425 6.98149Z" fill="#FF0000"/>
</g>
<defs>
<clipPath id="clip0_253:5">
<rect width="360" height="1427" fill="white" transform="translate(-214 -696)"/>
</clipPath>
</defs>
</svg>
