<svg width="18" height="18" viewBox="0 0 18 18" fill="none" xmlns="http://www.w3.org/2000/svg">
<path d="M3.99935 10.667H10.666V9.00033H3.99935V10.667ZM3.99935 8.16699H13.9993V6.50033H3.99935V8.16699ZM3.99935 5.66699H13.9993V4.00033H3.99935V5.66699ZM0.666016 17.3337V2.33366C0.666016 1.87533 0.829349 1.48283 1.15602 1.15616C1.48213 0.830048 1.87435 0.666992 2.33268 0.666992H15.666C16.1243 0.666992 16.5168 0.830048 16.8435 1.15616C17.1696 1.48283 17.3327 1.87533 17.3327 2.33366V12.3337C17.3327 12.792 17.1696 13.1845 16.8435 13.5112C16.5168 13.8373 16.1243 14.0003 15.666 14.0003H3.99935L0.666016 17.3337Z" fill="#145DFF"/>
</svg>
