<svg width="29" height="25" viewBox="0 0 29 25" fill="none" xmlns="http://www.w3.org/2000/svg">
<path d="M7.64507 8.56287C11.5278 4.1759 18.3885 4.22154 22.2125 8.65977L27.6522 14.9732C28.3805 15.8184 28.781 16.897 28.781 18.0127C28.781 20.5845 26.6962 22.6694 24.1244 22.6694H5.35406C2.61035 22.6694 0.464055 20.3046 0.729283 17.5737C0.825694 16.581 1.23895 15.6457 1.90797 14.906L7.64507 8.56287Z" fill="#A51F3F"/>
<circle cx="11.4981" cy="12.0035" r="1.2305" fill="#DBA5B2"/>
<circle cx="17.4786" cy="12.0035" r="1.2305" fill="#DBA5B2"/>
<path d="M18.1404 20.0922C18.4322 20.0922 18.6723 19.8547 18.6352 19.5652C18.5192 18.6595 18.1065 17.8118 17.4539 17.1592C16.6761 16.3813 15.621 15.9443 14.5209 15.9443C13.4208 15.9443 12.3658 16.3813 11.5879 17.1592C10.9353 17.8118 10.5226 18.6595 10.4066 19.5652C10.3696 19.8547 10.6096 20.0922 10.9014 20.0922C11.1933 20.0922 11.4252 19.854 11.4749 19.5664C11.5827 18.9417 11.881 18.3607 12.3352 17.9065C12.9149 17.3268 13.7011 17.0011 14.5209 17.0011C15.3407 17.0011 16.127 17.3268 16.7067 17.9065C17.1609 18.3607 17.4592 18.9417 17.567 19.5664C17.6166 19.854 17.8486 20.0922 18.1404 20.0922Z" fill="#DBA5B2"/>
</svg>
