<svg width="222" height="134" viewBox="0 0 222 134" fill="none" xmlns="http://www.w3.org/2000/svg">
<path d="M33.0809 33.2277C38.7271 27.4696 48.0007 27.4696 53.6469 33.2277L61.6134 41.352C63.0488 42.8159 64.7189 44.0293 66.5547 44.9421L76.7432 50.0081C83.9643 53.5986 86.83 62.4183 83.0985 69.5676L77.8335 79.6547C76.8849 81.4722 76.2469 83.4356 75.9461 85.4636L74.2764 96.719C73.0931 104.696 65.5906 110.147 57.6382 108.807L46.4178 106.917C44.3961 106.577 42.3317 106.577 40.31 106.917L29.0895 108.807C21.1371 110.147 13.6347 104.696 12.4513 96.719L10.7817 85.4636C10.4808 83.4356 9.84289 81.4722 8.89425 79.6547L3.62929 69.5676C-0.10222 62.4183 2.76347 53.5987 9.98452 50.0081L20.1731 44.9421C22.0088 44.0293 23.679 42.8159 25.1144 41.352L33.0809 33.2277Z" fill="#145DFF" stroke="white" stroke-width="3.98223"/>
<path d="M167.809 33.2277C173.456 27.4696 182.729 27.4696 188.375 33.2277L196.342 41.352C197.777 42.8159 199.447 44.0293 201.283 44.9421L211.472 50.0081C218.693 53.5986 221.558 62.4183 217.827 69.5676L212.562 79.6547C211.613 81.4722 210.975 83.4356 210.675 85.4636L209.005 96.719C207.822 104.696 200.319 110.147 192.367 108.807L181.146 106.917C179.125 106.577 177.06 106.577 175.038 106.917L163.818 108.807C155.866 110.147 148.363 104.696 147.18 96.719L145.51 85.4636C145.209 83.4356 144.571 81.4722 143.623 79.6547L138.358 69.5676C134.626 62.4183 137.492 53.5987 144.713 50.0081L154.902 44.9421C156.737 44.0293 158.407 42.8159 159.843 41.352L167.809 33.2277Z" fill="#145DFF" stroke="white" stroke-width="3.98223"/>
<path d="M93.6855 9.92537C102.537 0.898589 117.075 0.898588 125.926 9.92537L138.754 23.0079C141.01 25.3081 143.634 27.2148 146.519 28.6491L162.925 36.8069C174.245 42.4356 178.738 56.2619 172.888 67.4695L164.41 83.7126C162.919 86.5686 161.917 89.6537 161.444 92.8404L158.756 110.965C156.901 123.47 145.139 132.015 132.673 129.915L114.605 126.872C111.428 126.336 108.184 126.336 105.007 126.872L86.939 129.915C74.4723 132.015 62.7109 123.47 60.8558 110.965L58.1672 92.8404C57.6945 89.6537 56.6921 86.5686 55.2014 83.7127L46.7234 67.4695C40.8736 56.2619 45.3661 42.4356 56.6863 36.8069L73.0927 28.6492C75.9773 27.2148 78.6017 25.3081 80.8572 23.0079L93.6855 9.92537Z" fill="#E8EFFF" stroke="white" stroke-width="6.31057"/>
<path fill-rule="evenodd" clip-rule="evenodd" d="M113.53 48.2544C109.266 46.4881 104.475 46.4881 100.211 48.2544C95.9468 50.0206 92.559 53.4083 90.7928 57.6724C89.0266 61.9364 89.0266 66.7274 90.7928 70.9915C91.9776 73.8517 93.8919 76.3177 96.311 78.1644C98.0381 79.483 99.3368 81.4011 99.3368 83.5741V88.8188C99.3368 91.9396 101.867 94.4696 104.988 94.4696H108.755C111.876 94.4696 114.406 91.9396 114.406 88.8188V83.5728C114.406 81.4001 115.704 79.4821 117.431 78.1635C119.849 76.3169 121.763 73.8512 122.948 70.9915C124.714 66.7274 124.714 61.9364 122.948 57.6724C121.182 53.4083 117.794 50.0206 113.53 48.2544Z" fill="white"/>
<path d="M100.211 48.2544L100.932 49.9946L100.211 48.2544ZM113.53 48.2544L114.251 46.5141L113.53 48.2544ZM90.7928 57.6724L92.533 58.3932L90.7928 57.6724ZM90.7928 70.9915L89.0526 71.7123L89.0526 71.7123L90.7928 70.9915ZM122.948 70.9915L124.688 71.7123L122.948 70.9915ZM122.948 57.6724L121.208 58.3932L122.948 57.6724ZM117.431 78.1635L118.574 79.6606L117.431 78.1635ZM96.311 78.1644L97.4539 76.6672L96.311 78.1644ZM100.932 49.9946C104.734 48.4195 109.007 48.4195 112.809 49.9946L114.251 46.5141C109.525 44.5567 104.216 44.5567 99.49 46.5141L100.932 49.9946ZM92.533 58.3932C94.1081 54.5907 97.1292 51.5696 100.932 49.9946L99.49 46.5141C94.7644 48.4715 91.01 52.226 89.0526 56.9516L92.533 58.3932ZM92.533 70.2706C90.958 66.4681 90.958 62.1957 92.533 58.3932L89.0526 56.9516C87.0952 61.6771 87.0952 66.9867 89.0526 71.7123L92.533 70.2706ZM97.4539 76.6672C95.2966 75.0203 93.5895 72.8212 92.533 70.2706L89.0526 71.7123C90.3656 74.8822 92.4872 77.6151 95.168 79.6616L97.4539 76.6672ZM101.22 88.8188V83.5741H97.4532V88.8188H101.22ZM108.755 92.586H104.988V96.3532H108.755V92.586ZM112.522 83.5728V88.8188H116.289V83.5728H112.522ZM121.208 70.2706C120.151 72.8208 118.445 75.0196 116.288 76.6664L118.574 79.6606C121.254 77.6142 123.375 74.8817 124.688 71.7123L121.208 70.2706ZM121.208 58.3932C122.783 62.1957 122.783 66.4681 121.208 70.2706L124.688 71.7123C126.646 66.9867 126.646 61.6771 124.688 56.9516L121.208 58.3932ZM112.809 49.9946C116.612 51.5696 119.633 54.5907 121.208 58.3932L124.688 56.9516C122.731 52.226 118.976 48.4715 114.251 46.5141L112.809 49.9946ZM116.289 83.5728C116.289 82.1784 117.138 80.7575 118.574 79.6606L116.288 76.6664C114.271 78.2067 112.522 80.6219 112.522 83.5728H116.289ZM108.755 96.3532C112.916 96.3532 116.289 92.9799 116.289 88.8188H112.522C112.522 90.8993 110.835 92.586 108.755 92.586V96.3532ZM97.4532 88.8188C97.4532 92.9799 100.826 96.3532 104.988 96.3532V92.586C102.907 92.586 101.22 90.8993 101.22 88.8188H97.4532ZM95.168 79.6616C96.6048 80.7585 97.4532 82.1795 97.4532 83.5741H101.22C101.22 80.6228 99.4715 78.2075 97.4539 76.6672L95.168 79.6616Z" fill="#145DFF"/>
<path d="M114.406 87.4059C115.446 87.4059 116.289 86.5626 116.289 85.5223C116.289 84.482 115.446 83.6387 114.406 83.6387V87.4059ZM99.3368 83.6387C98.2966 83.6387 97.4532 84.482 97.4532 85.5223C97.4532 86.5626 98.2966 87.4059 99.3368 87.4059V83.6387ZM114.406 83.6387H99.3368V87.4059H114.406V83.6387Z" fill="#145DFF"/>
<path d="M115.32 41.0893L118.388 34.3945" stroke="#145DFF" stroke-width="3.3887" stroke-linecap="round"/>
<path d="M108.625 39.9737V33" stroke="#145DFF" stroke-width="3.3887" stroke-linecap="round"/>
<path d="M121.333 44.7984L126.075 39.7773" stroke="#145DFF" stroke-width="3.3887" stroke-linecap="round"/>
</svg>
