<svg width="8" height="8" viewBox="0 0 8 8" fill="none" xmlns="http://www.w3.org/2000/svg">
<path d="M3.34493 0.0540037C2.49934 0.194379 1.7212 0.602674 1.1252 1.21872C0.529196 1.83476 0.146849 2.62597 0.0345046 3.47574C-0.0778393 4.32551 0.0857628 5.1889 0.501201 5.93866C0.916639 6.68842 1.56194 7.2849 2.342 7.6402C3.12206 7.99549 3.99563 8.09081 4.83396 7.9121C5.67229 7.73339 6.43103 7.29011 6.99839 6.64758C7.56574 6.00505 7.91169 5.19726 7.98524 4.34326C8.0588 3.48926 7.85608 2.63421 7.40695 1.90413L6.47963 2.4746C6.80651 3.00596 6.95406 3.62827 6.90052 4.24983C6.84698 4.87139 6.5952 5.45931 6.18227 5.92695C5.76934 6.39459 5.21711 6.71722 4.60697 6.84728C3.99682 6.97735 3.36102 6.90798 2.79328 6.64939C2.22554 6.3908 1.75588 5.95667 1.45352 5.41099C1.15116 4.8653 1.03209 4.23691 1.11385 3.61844C1.19562 2.99996 1.4739 2.42411 1.90768 1.97574C2.34146 1.52738 2.9078 1.23021 3.52323 1.12805L3.34493 0.0540037Z" fill="#145DFF"/>
</svg>
