<svg width="18" height="21" viewBox="0 0 18 21" fill="none" xmlns="http://www.w3.org/2000/svg">
<path fill-rule="evenodd" clip-rule="evenodd" d="M0.5 9.03121C0.5 4.51204 4.34388 0.859375 8.99345 0.859375C13.6561 0.859375 17.5 4.51204 17.5 9.03121C17.5 11.3085 16.657 13.4227 15.2695 15.2146C13.7388 17.1912 11.8522 18.9134 9.72854 20.2653C9.24251 20.5777 8.80387 20.6013 8.27045 20.2653C6.13474 18.9134 4.24809 17.1912 2.7305 15.2146C1.34198 13.4227 0.5 11.3085 0.5 9.03121ZM6.19423 9.28566C6.19423 10.7996 7.45166 11.9903 8.99345 11.9903C10.5362 11.9903 11.8058 10.7996 11.8058 9.28566C11.8058 7.78352 10.5362 6.53486 8.99345 6.53486C7.45166 6.53486 6.19423 7.78352 6.19423 9.28566Z" fill="#200E32"/>
</svg>
