<svg width="244" height="125" viewBox="0 0 244 125" fill="none" xmlns="http://www.w3.org/2000/svg">
<g opacity="0.5">
<rect x="28" width="216" height="79.0244" rx="10.5366" fill="#EBF1FF"/>
<rect x="170.244" y="5.26758" width="68.4878" height="68.4878" rx="5.26829" fill="#C0D4FF"/>
<rect opacity="0.5" x="39.1953" y="34.9043" width="119.854" height="9.87805" fill="#D5E2FF"/>
<rect opacity="0.5" x="39.1953" y="10.5381" width="119.854" height="19.0976" fill="#C0D4FF"/>
</g>
<rect y="45" width="216" height="79.0244" rx="10.5366" fill="#EBF1FF"/>
<rect x="142.244" y="50.2676" width="68.4878" height="68.4878" rx="5.26829" fill="#C0D4FF"/>
<mask id="mask0_1975_73379" style="mask-type:alpha" maskUnits="userSpaceOnUse" x="152" y="61" width="48" height="48">
<rect x="152" y="61" width="48" height="48" fill="#D9D9D9"/>
</mask>
<g mask="url(#mask0_1975_73379)">
<path d="M173.05 94.1L187.2 79.95L184.9 77.7L173.05 89.55L167.05 83.55L164.8 85.8L173.05 94.1ZM176 105C173.267 105 170.683 104.475 168.25 103.425C165.817 102.375 163.692 100.942 161.875 99.125C160.058 97.3083 158.625 95.1833 157.575 92.75C156.525 90.3167 156 87.7333 156 85C156 82.2333 156.525 79.6333 157.575 77.2C158.625 74.7667 160.058 72.65 161.875 70.85C163.692 69.05 165.817 67.625 168.25 66.575C170.683 65.525 173.267 65 176 65C178.767 65 181.367 65.525 183.8 66.575C186.233 67.625 188.35 69.05 190.15 70.85C191.95 72.65 193.375 74.7667 194.425 77.2C195.475 79.6333 196 82.2333 196 85C196 87.7333 195.475 90.3167 194.425 92.75C193.375 95.1833 191.95 97.3083 190.15 99.125C188.35 100.942 186.233 102.375 183.8 103.425C181.367 104.475 178.767 105 176 105Z" fill="#EBF1FF"/>
</g>
<rect opacity="0.5" x="11.1953" y="79.9043" width="119.854" height="9.87805" fill="#D5E2FF"/>
<rect opacity="0.5" x="11.1953" y="55.5381" width="119.854" height="19.0976" fill="#C0D4FF"/>
</svg>
