<svg width="164" height="144" viewBox="0 0 164 144" fill="none" xmlns="http://www.w3.org/2000/svg">
<rect opacity="0.15" width="143.964" height="143.964" rx="71.9819" fill="#145DFF"/>
<rect x="36.3613" y="56.3984" width="127.638" height="37.1041" rx="18.552" fill="#145DFF"/>
<path fill-rule="evenodd" clip-rule="evenodd" d="M62.6945 72.4723C62.6945 73.4432 62.9511 74.0154 63.5158 74.6748C63.9437 75.1606 64.0805 75.7842 64.0805 76.4608C64.0805 77.1365 63.8585 77.7781 63.4136 78.2989C62.8313 78.9233 62.01 79.3219 61.1719 79.3912C59.9572 79.4947 58.7419 79.5819 57.5104 79.5819C56.2781 79.5819 55.0635 79.5298 53.8488 79.3912C53.0099 79.3219 52.1886 78.9233 51.6071 78.2989C51.1622 77.7781 50.9395 77.1365 50.9395 76.4608C50.9395 75.7842 51.077 75.1606 51.5041 74.6748C52.0865 74.0154 52.3262 73.4432 52.3262 72.4723V72.143C52.3262 70.8428 52.6504 69.9927 53.318 69.1604C54.3106 67.9467 55.9016 67.2188 57.4758 67.2188H57.5449C59.1529 67.2188 60.7954 67.9817 61.7711 69.2476C62.4041 70.0627 62.6945 70.8771 62.6945 72.143V72.4723ZM55.2486 81.1789C55.2486 80.7897 55.6059 80.6114 55.9362 80.5351C56.3227 80.4533 58.6774 80.4533 59.0638 80.5351C59.3942 80.6114 59.7514 80.7897 59.7514 81.1789C59.7322 81.5495 59.5148 81.8781 59.2144 82.0867C58.8249 82.3903 58.3678 82.5826 57.8899 82.6519C57.6256 82.6862 57.366 82.687 57.1109 82.6519C56.6323 82.5826 56.1752 82.3903 55.7864 82.0859C55.4853 81.8781 55.2678 81.5495 55.2486 81.1789Z" fill="#DCE7FF"/>
<rect x="73.4648" y="66.7852" width="23.2519" height="6.73081" rx="3.3654" fill="#DCE7FF"/>
<rect x="73.4648" y="76.4336" width="14.8416" height="6.67873" rx="3.33937" fill="#DCE7FF"/>
<rect x="99.1641" y="66.7852" width="12.2378" height="6.73081" rx="3.3654" fill="#DCE7FF"/>
<rect x="89.793" y="76.4336" width="8.1629" height="6.67873" rx="3.33937" fill="#DCE7FF"/>
<rect x="113.539" y="66.7852" width="38.5882" height="6.67873" rx="3.33937" fill="#DCE7FF"/>
<rect x="99.4395" y="76.4336" width="24.4887" height="6.67873" rx="3.33937" fill="#DCE7FF"/>
</svg>
