<svg width="44" height="34" viewBox="0 0 44 34" fill="none" xmlns="http://www.w3.org/2000/svg">
<rect x="10.9629" y="1.0625" width="31.875" height="31.875" rx="15.9375" fill="white"/>
<rect x="10.9629" y="1.0625" width="31.875" height="31.875" rx="15.9375" fill="#145DFF"/>
<rect x="10.9629" y="1.0625" width="31.875" height="31.875" rx="15.9375" stroke="white" stroke-width="1.875"/>
<path d="M20.1554 17.03L21.5782 17.3824C21.6465 17.3141 21.7191 17.25 21.796 17.1902C21.873 17.1261 21.9605 17.0706 22.0588 17.0236C22.1571 16.9766 22.2703 16.9381 22.3985 16.9082C22.5266 16.8783 22.6783 16.8633 22.8535 16.8633C23.1141 16.8633 23.3405 16.9039 23.5328 16.9851C23.7251 17.0663 23.8853 17.1816 24.0135 17.3312C24.1416 17.4807 24.2356 17.6602 24.2954 17.8695C24.3595 18.0746 24.3916 18.301 24.3916 18.5488C24.3916 18.8009 24.3659 19.0359 24.3147 19.2538C24.2677 19.4717 24.1929 19.6597 24.0904 19.8177C23.9835 19.9758 23.8447 20.0997 23.6738 20.1895C23.5072 20.2792 23.3042 20.324 23.065 20.324C22.6762 20.324 22.3557 20.213 22.1037 19.9908C21.8559 19.7686 21.7106 19.4546 21.6679 19.0487H19.9119C19.9247 19.4802 20.0208 19.8647 20.2003 20.2023C20.384 20.5355 20.6211 20.8175 20.9116 21.0482C21.2022 21.2789 21.5333 21.4541 21.905 21.5737C22.281 21.6934 22.6698 21.7532 23.0714 21.7532C23.6012 21.7532 24.0605 21.6699 24.4492 21.5032C24.838 21.3366 25.1606 21.1102 25.417 20.8239C25.6733 20.5377 25.8634 20.2065 25.9873 19.8306C26.1112 19.4546 26.1732 19.0573 26.1732 18.6385C26.1732 18.1472 26.1091 17.7072 25.9809 17.3184C25.8527 16.9296 25.669 16.6006 25.4298 16.3314C25.1862 16.0623 24.8872 15.8572 24.5326 15.7162C24.1822 15.5709 23.7827 15.4983 23.3341 15.4983C23.018 15.4983 22.7381 15.5389 22.4946 15.6201C22.2511 15.7012 22.0631 15.7803 21.9306 15.8572L22.1549 13.8064H25.8656V12.2939H20.6873L20.1554 17.03ZM27.7494 17.03L29.1721 17.3824C29.2405 17.3141 29.3131 17.25 29.39 17.1902C29.4669 17.1261 29.5545 17.0706 29.6527 17.0236C29.751 16.9766 29.8642 16.9381 29.9924 16.9082C30.1206 16.8783 30.2723 16.8633 30.4474 16.8633C30.708 16.8633 30.9345 16.9039 31.1267 16.9851C31.319 17.0663 31.4792 17.1816 31.6074 17.3312C31.7356 17.4807 31.8296 17.6602 31.8894 17.8695C31.9535 18.0746 31.9855 18.301 31.9855 18.5488C31.9855 18.8009 31.9599 19.0359 31.9086 19.2538C31.8616 19.4717 31.7868 19.6597 31.6843 19.8177C31.5775 19.9758 31.4386 20.0997 31.2677 20.1895C31.1011 20.2792 30.8982 20.324 30.6589 20.324C30.2701 20.324 29.9497 20.213 29.6976 19.9908C29.4498 19.7686 29.3045 19.4546 29.2618 19.0487H27.5058C27.5187 19.4802 27.6148 19.8647 27.7942 20.2023C27.9779 20.5355 28.2151 20.8175 28.5056 21.0482C28.7961 21.2789 29.1272 21.4541 29.4989 21.5737C29.8749 21.6934 30.2637 21.7532 30.6653 21.7532C31.1951 21.7532 31.6544 21.6699 32.0432 21.5032C32.432 21.3366 32.7546 21.1102 33.0109 20.8239C33.2672 20.5377 33.4574 20.2065 33.5813 19.8306C33.7052 19.4546 33.7671 19.0573 33.7671 18.6385C33.7671 18.1472 33.703 17.7072 33.5749 17.3184C33.4467 16.9296 33.263 16.6006 33.0237 16.3314C32.7802 16.0623 32.4811 15.8572 32.1265 15.7162C31.7762 15.5709 31.3767 15.4983 30.9281 15.4983C30.6119 15.4983 30.3321 15.5389 30.0885 15.6201C29.845 15.7012 29.657 15.7803 29.5246 15.8572L29.7489 13.8064H33.4595V12.2939H28.2813L27.7494 17.03Z" fill="#145DFF"/>
<rect x="1.0625" y="1.0625" width="31.875" height="31.875" rx="15.9375" fill="white"/>
<rect x="1.0625" y="1.0625" width="31.875" height="31.875" rx="15.9375" fill="#3AFF38"/>
<rect x="1.0625" y="1.0625" width="31.875" height="31.875" rx="15.9375" stroke="white" stroke-width="1.875"/>
<path d="M17.0923 25H19.7769L20.3735 21.3608H22.3945L22.8494 18.6761H20.8135L21.2461 16.0511H23.267L23.7219 13.3665H21.686L22.2826 9.72727H19.598L19.0014 13.3665H16.3167L16.9133 9.72727H14.2286L13.6321 13.3665H11.6111L11.1562 16.0511H13.1921L12.7595 18.6761H10.7386L10.2837 21.3608H12.3196L11.723 25H14.4076L15.0042 21.3608H17.6889L17.0923 25ZM15.4442 18.6761L15.8767 16.0511H18.5614L18.1289 18.6761H15.4442Z" fill="#03B600"/>
</svg>
