<svg width="51" height="34" viewBox="0 0 51 34" fill="none" xmlns="http://www.w3.org/2000/svg">
<rect x="17.9629" y="1.0625" width="31.875" height="31.875" rx="15.9375" fill="white"/>
<rect x="17.9629" y="1.0625" width="31.875" height="31.875" rx="15.9375" fill="#145DFF"/>
<rect x="17.9629" y="1.0625" width="31.875" height="31.875" rx="15.9375" stroke="white" stroke-width="1.875"/>
<path d="M27.1554 17.03L28.5782 17.3824C28.6465 17.3141 28.7191 17.25 28.796 17.1902C28.873 17.1261 28.9605 17.0706 29.0588 17.0236C29.1571 16.9766 29.2703 16.9381 29.3985 16.9082C29.5266 16.8783 29.6783 16.8633 29.8535 16.8633C30.1141 16.8633 30.3405 16.9039 30.5328 16.9851C30.7251 17.0663 30.8853 17.1816 31.0135 17.3312C31.1416 17.4807 31.2356 17.6602 31.2954 17.8695C31.3595 18.0746 31.3916 18.301 31.3916 18.5488C31.3916 18.8009 31.3659 19.0359 31.3147 19.2538C31.2677 19.4717 31.1929 19.6597 31.0904 19.8177C30.9835 19.9758 30.8447 20.0997 30.6738 20.1895C30.5072 20.2792 30.3042 20.324 30.065 20.324C29.6762 20.324 29.3557 20.213 29.1037 19.9908C28.8559 19.7686 28.7106 19.4546 28.6679 19.0487H26.9119C26.9247 19.4802 27.0208 19.8647 27.2003 20.2023C27.384 20.5355 27.6211 20.8175 27.9116 21.0482C28.2022 21.2789 28.5333 21.4541 28.905 21.5737C29.281 21.6934 29.6698 21.7532 30.0714 21.7532C30.6012 21.7532 31.0605 21.6699 31.4492 21.5032C31.838 21.3366 32.1606 21.1102 32.417 20.8239C32.6733 20.5377 32.8634 20.2065 32.9873 19.8306C33.1112 19.4546 33.1732 19.0573 33.1732 18.6385C33.1732 18.1472 33.1091 17.7072 32.9809 17.3184C32.8527 16.9296 32.669 16.6006 32.4298 16.3314C32.1862 16.0623 31.8872 15.8572 31.5326 15.7162C31.1822 15.5709 30.7827 15.4983 30.3341 15.4983C30.018 15.4983 29.7381 15.5389 29.4946 15.6201C29.2511 15.7012 29.0631 15.7803 28.9306 15.8572L29.1549 13.8064H32.8656V12.2939H27.6873L27.1554 17.03ZM34.7494 17.03L36.1721 17.3824C36.2405 17.3141 36.3131 17.25 36.39 17.1902C36.4669 17.1261 36.5545 17.0706 36.6527 17.0236C36.751 16.9766 36.8642 16.9381 36.9924 16.9082C37.1206 16.8783 37.2723 16.8633 37.4474 16.8633C37.708 16.8633 37.9345 16.9039 38.1267 16.9851C38.319 17.0663 38.4792 17.1816 38.6074 17.3312C38.7356 17.4807 38.8296 17.6602 38.8894 17.8695C38.9535 18.0746 38.9855 18.301 38.9855 18.5488C38.9855 18.8009 38.9599 19.0359 38.9086 19.2538C38.8616 19.4717 38.7868 19.6597 38.6843 19.8177C38.5775 19.9758 38.4386 20.0997 38.2677 20.1895C38.1011 20.2792 37.8982 20.324 37.6589 20.324C37.2701 20.324 36.9497 20.213 36.6976 19.9908C36.4498 19.7686 36.3045 19.4546 36.2618 19.0487H34.5058C34.5187 19.4802 34.6148 19.8647 34.7942 20.2023C34.9779 20.5355 35.2151 20.8175 35.5056 21.0482C35.7961 21.2789 36.1272 21.4541 36.4989 21.5737C36.8749 21.6934 37.2637 21.7532 37.6653 21.7532C38.1951 21.7532 38.6544 21.6699 39.0432 21.5032C39.432 21.3366 39.7546 21.1102 40.0109 20.8239C40.2672 20.5377 40.4574 20.2065 40.5813 19.8306C40.7052 19.4546 40.7671 19.0573 40.7671 18.6385C40.7671 18.1472 40.703 17.7072 40.5749 17.3184C40.4467 16.9296 40.263 16.6006 40.0237 16.3314C39.7802 16.0623 39.4811 15.8572 39.1265 15.7162C38.7762 15.5709 38.3767 15.4983 37.9281 15.4983C37.6119 15.4983 37.3321 15.5389 37.0885 15.6201C36.845 15.7012 36.657 15.7803 36.5246 15.8572L36.7489 13.8064H40.4595V12.2939H35.2813L34.7494 17.03Z" fill="#145DFF"/>
<rect x="8.0625" y="1.0625" width="31.875" height="31.875" rx="15.9375" fill="white"/>
<rect x="8.0625" y="1.0625" width="31.875" height="31.875" rx="15.9375" fill="#3AFF38"/>
<rect x="8.0625" y="1.0625" width="31.875" height="31.875" rx="15.9375" stroke="white" stroke-width="1.875"/>
<path d="M24.0923 24.2812H26.7769L27.3735 20.642H29.3945L29.8494 17.9574H27.8135L28.2461 15.3324H30.267L30.7219 12.6477H28.686L29.2826 9.00852H26.598L26.0014 12.6477H23.3167L23.9133 9.00852H21.2286L20.6321 12.6477H18.6111L18.1562 15.3324H20.1921L19.7595 17.9574H17.7386L17.2837 20.642H19.3196L18.723 24.2812H21.4076L22.0042 20.642H24.6889L24.0923 24.2812ZM22.4442 17.9574L22.8767 15.3324H25.5614L25.1289 17.9574H22.4442Z" fill="#03B600"/>
</svg>
