<svg width="117" height="81" viewBox="0 0 117 81" fill="none" xmlns="http://www.w3.org/2000/svg">
<path d="M99.5999 59.524C99.5999 62.9222 97.1954 65.3661 93.9709 65.3661C90.7465 65.3661 88.3452 62.9124 88.3452 59.524C88.3452 56.1356 90.7498 53.6819 93.9709 53.6819C97.1921 53.6819 99.5999 56.1777 99.5999 59.524ZM69.6825 53.6819C66.5878 53.6819 64.355 56.1356 64.355 59.524C64.355 62.9124 66.5878 65.3661 69.6825 65.3661C72.6445 65.3661 74.793 62.9124 74.793 59.524C74.793 56.1356 72.6445 53.6819 69.6825 53.6819ZM22.1006 53.6819C19.009 53.6819 16.773 56.1777 16.773 59.524C16.773 62.8702 19.009 65.3661 22.1006 65.3661C25.0657 65.3661 27.2143 62.9546 27.2143 59.524C27.2143 56.1648 25.0657 53.6819 22.1006 53.6819ZM97.0754 80.0039H19.3493C2.58885 80.0039 -6.20941 60.0822 5.06468 47.6612L41.6836 7.32127C43.7763 5.01646 46.3267 3.17499 49.1714 1.9149C52.016 0.654815 55.0922 0.00390625 58.2027 0.00390625C61.3131 0.00390625 64.3893 0.654815 67.234 1.9149C70.0786 3.17499 72.629 5.01646 74.7217 7.32127L111.341 47.6612C122.618 60.0822 113.82 80.0039 97.0592 80.0039H97.0754ZM32.9599 48.7647H27.3439V51.3904C25.7981 49.323 23.1311 48.3331 20.6423 48.3331C14.712 48.3331 10.9205 53.3248 10.9205 59.524C10.9205 65.7231 14.7023 70.7117 20.6423 70.7117C23.1343 70.7117 25.8273 69.764 27.3439 67.6997V70.2962H32.9599V48.7647ZM41.7452 48.7647H35.9996V70.2832H41.7582L41.7452 48.7647ZM42.2734 42.7473C42.2709 41.8348 41.9078 40.9604 41.2635 40.3152C40.6193 39.6699 39.7462 39.3063 38.8351 39.3037C37.9311 39.3157 37.0682 39.6837 36.4332 40.3282C35.7981 40.9728 35.4421 41.8418 35.4422 42.7473C35.4515 43.6457 35.8119 44.5047 36.4462 45.1399C37.0805 45.7752 37.9381 46.1362 38.8351 46.1455C39.7392 46.1456 40.6069 45.789 41.2505 45.153C41.894 44.517 42.2615 43.6527 42.2734 42.7473ZM57.4687 48.359C53.0841 48.5473 51.0198 51.2022 50.4398 52.9029V48.7745H44.7654V70.2897H50.524V62.0296C50.524 57.08 52.8184 54.7919 57.4687 54.6393V48.359ZM80.5516 48.7712H75.0879V51.3677C73.4967 49.3003 70.7908 48.3525 68.2145 48.3525C62.2842 48.3525 58.4927 53.3443 58.4927 59.498C58.4927 65.7394 62.362 70.7311 68.2891 70.7311C70.7811 70.7311 73.231 69.7575 74.7703 67.849V75.7586L80.5289 74.3176L80.5516 48.7712ZM105.488 59.5305C105.488 53.2891 100.417 48.3396 93.9709 48.3396C87.8138 48.3396 82.4992 53.2891 82.4992 59.5305C82.4992 65.7718 87.5707 70.7182 93.9709 70.7182C100.371 70.7182 105.488 65.7686 105.488 59.5305Z" fill="#145DFF"/>
</svg>
