<svg width="44" height="42" viewBox="0 0 44 42" fill="none" xmlns="http://www.w3.org/2000/svg">
<path d="M16.152 2.76873C19.2579 -0.398778 24.3593 -0.398777 27.4652 2.76873L31.5161 6.89985C32.1346 7.53067 32.8544 8.05358 33.6455 8.44694L38.8262 11.0229C42.7984 12.9981 44.3748 17.8497 42.3221 21.7825L39.645 26.9116C39.2362 27.6949 38.9613 28.541 38.8316 29.4149L37.9827 35.1381C37.3317 39.5263 33.2046 42.5247 28.83 41.7878L23.1246 40.8267C22.2534 40.6799 21.3638 40.6799 20.4926 40.8267L14.7871 41.7878C10.4126 42.5247 6.28549 39.5263 5.63454 35.1381L4.78555 29.4149C4.65591 28.541 4.38099 27.6949 3.97219 26.9116L1.29504 21.7825C-0.75764 17.8497 0.818763 12.9981 4.79103 11.0229L9.97174 8.44694C10.7628 8.05358 11.4826 7.53067 12.1011 6.89985L16.152 2.76873Z" fill="#145DFF" fill-opacity="0.2"/>
</svg>
