<svg width="31" height="27" viewBox="0 0 31 27" fill="none" xmlns="http://www.w3.org/2000/svg">
<path d="M8.03979 8.99629C12.2521 4.23692 19.6952 4.28643 23.8439 9.10142L29.7453 15.9508C30.5354 16.8678 30.97 18.038 30.97 19.2484C30.97 22.0385 28.7082 24.3003 25.918 24.3003H5.55431C2.57768 24.3003 0.249177 21.7347 0.53692 18.772C0.641516 17.6951 1.08986 16.6804 1.81566 15.8779L8.03979 8.99629Z" fill="#DD38FF"/>
<circle cx="12.2197" cy="12.729" r="1.33496" fill="#9304B1"/>
<circle cx="18.708" cy="12.729" r="1.33496" fill="#9304B1"/>
<path d="M19.4268 21.5044C19.7433 21.5044 20.0038 21.2467 19.9636 20.9327C19.8377 19.9501 19.39 19.0304 18.682 18.3224C17.8381 17.4785 16.6935 17.0044 15.5 17.0044C14.3065 17.0044 13.1619 17.4785 12.318 18.3224C11.61 19.0304 11.1623 19.9501 11.0364 20.9327C10.9962 21.2467 11.2567 21.5044 11.5732 21.5044C11.8898 21.5044 12.1415 21.2459 12.1954 20.9339C12.3124 20.2563 12.6359 19.6259 13.1287 19.1331C13.7576 18.5042 14.6106 18.1509 15.5 18.1509C16.3894 18.1509 17.2424 18.5042 17.8713 19.1331C18.3641 19.6259 18.6876 20.2563 18.8046 20.9339C18.8585 21.2459 19.1102 21.5044 19.4268 21.5044Z" fill="#9304B1"/>
</svg>
