<svg width="153" height="44" viewBox="0 0 153 44" fill="none" xmlns="http://www.w3.org/2000/svg">
<g clip-path="url(#clip0_2032_62973)">
<path fill-rule="evenodd" clip-rule="evenodd" d="M1.11571 15.6562C0.613843 15.8146 0.289062 16.3269 0.289062 17.102L0.292156 41.4975C0.292156 42.264 0.606883 42.7686 1.09483 42.937L14.6312 29.2857L1.11571 15.6562Z" fill="url(#paint0_linear_2032_62973)"/>
<path fill-rule="evenodd" clip-rule="evenodd" d="M1.09375 42.9404C1.44482 43.0605 1.88482 43.0043 2.36426 42.7392L18.8832 33.578L14.6301 29.2891L1.09375 42.9404Z" fill="url(#paint1_linear_2032_62973)"/>
<path fill-rule="evenodd" clip-rule="evenodd" d="M18.8863 33.5771L24.5189 30.454C25.661 29.8185 25.661 28.7844 24.5189 28.1504L18.8654 25.0156L14.6309 29.2858L18.8863 33.5771Z" fill="url(#paint2_linear_2032_62973)"/>
<path fill-rule="evenodd" clip-rule="evenodd" d="M18.8637 25.0148L2.36409 15.8661C1.89625 15.608 1.46476 15.5479 1.11523 15.6579L14.63 29.285L18.8637 25.0148Z" fill="url(#paint3_linear_2032_62973)"/>
</g>
<path fill-rule="evenodd" clip-rule="evenodd" d="M94.6876 35.1177C93.83 35.0374 93.6491 34.8783 93.6491 33.856L93.6553 18.9313C93.7589 18.0103 94.0009 17.7226 94.8098 17.25H91.0779L89.123 18.1998H91.1537L91.1637 33.8459V34.433C91.1637 34.9082 91.0791 35.0182 90.6172 35.618L90.6163 35.6191L90.5489 35.7067L90.457 35.8266H95.0557L96.0208 35.2472C95.7984 35.2204 95.5749 35.2012 95.3506 35.1819L95.3505 35.1819L95.3505 35.1819L95.3505 35.1819L95.3504 35.1819L95.3504 35.1819L95.3504 35.1819L95.3503 35.1819H95.3503C95.13 35.163 94.909 35.144 94.6876 35.1177ZM48.4276 35.2515L44.9292 36.0594C43.5118 36.2847 42.239 36.4828 40.8911 36.4828C34.1434 36.4828 31.5723 31.4741 31.5723 27.554C31.5723 22.7668 35.2152 18.3281 41.4541 18.3281C42.7741 18.3281 44.0438 18.5239 45.2007 18.842C46.9498 19.3375 47.8108 19.943 48.3516 20.3233L48.4276 20.3767L46.3954 22.3231L45.5386 22.5165L46.1495 21.5347L46.1441 21.5294C45.3155 20.7133 43.7948 19.2155 40.9143 19.2155C37.0549 19.2155 34.1434 22.1741 34.1434 26.4935C34.1434 31.1326 37.4678 35.4964 42.7996 35.4964C44.3663 35.4964 45.1728 35.179 45.9051 34.8826V30.9056L42.2111 31.106L44.1691 30.0455H49.3532L48.7191 30.6608C48.5482 30.8074 48.525 30.8573 48.4771 31.0538C48.4516 31.2784 48.4276 31.9927 48.4276 32.2438V35.2515ZM56.4501 36.1634C52.3014 36.1634 50.0859 32.9061 50.0859 29.9569C50.0859 26.511 52.8767 23.5625 56.8437 23.5625C60.6776 23.5625 63.0779 26.5913 63.0779 29.7713C63.0779 32.8773 60.7062 36.1634 56.4501 36.1634ZM60.4977 31.1164C60.4977 32.1411 60.3415 33.1923 59.7152 34.0345C59.1128 34.8751 58.0727 35.3734 57.0543 35.3734C53.897 35.3734 52.6172 31.0852 52.6172 28.4854C52.6172 27.35 52.7981 26.1927 53.8189 25.2718C54.4452 24.7181 55.3028 24.3789 56.1666 24.3789C59.3997 24.3789 60.4977 28.7989 60.4977 31.1164ZM70.3379 36.1634C66.19 36.1634 63.9707 32.9061 63.9707 29.9569C63.9707 26.511 66.7607 23.5625 70.7292 23.5625C74.5655 23.5625 76.9681 26.5913 76.9681 29.7713C76.9681 32.8773 74.5933 36.1634 70.3379 36.1634ZM74.3844 31.1164C74.3844 32.1411 74.2313 33.1923 73.6003 34.0345C72.9995 34.8751 71.9579 35.3734 70.9371 35.3734C67.7744 35.3734 66.5 31.0852 66.5 28.4854C66.5 27.35 66.6817 26.1927 67.7009 25.2718C68.3257 24.7181 69.1926 24.3789 70.0532 24.3789C73.2895 24.3789 74.3844 28.7989 74.3844 31.1164ZM86.5158 24.8537C87.1151 25.3504 88.3655 26.4047 88.3655 28.4042C88.3655 30.3529 87.2759 31.2715 86.1771 32.141L86.1302 32.1885C85.8045 32.5179 85.4456 32.8809 85.4456 33.4285C85.4456 34 85.8253 34.3148 86.1076 34.549L86.1237 34.5623L87.0664 35.2961C88.2124 36.2716 89.2571 37.1661 89.2571 38.983C89.2571 41.4581 86.8815 43.9543 82.3926 43.9543C78.6113 43.9543 76.7832 42.1381 76.7832 40.191C76.7832 39.2435 77.251 37.9014 78.7945 36.982C80.3908 35.9979 82.5458 35.855 83.7304 35.7765L83.7776 35.7733L83.723 35.7025C83.3708 35.246 82.9927 34.756 82.9927 33.9806C82.9927 33.5815 83.0992 33.3266 83.2135 33.0528C83.227 33.0206 83.2405 32.9881 83.2541 32.9551L83.2358 32.9569C82.9565 32.9836 82.6755 33.0105 82.4197 33.0105C79.6521 33.0105 78.0877 30.9284 78.0877 28.8767C78.0877 27.6665 78.6352 26.3236 79.7596 25.3504C81.2474 24.1152 83.0213 23.9023 84.431 23.9023H89.8084L88.1366 24.8537H86.5158ZM84.0674 36.5078C84.3257 36.5078 84.4541 36.5078 84.6683 36.5359C86.6479 37.959 87.5085 38.6671 87.5085 40.0091C87.5085 41.6397 86.1785 42.8508 83.673 42.8508C80.8846 42.8508 79.082 41.5056 79.082 39.6403C79.082 37.7711 80.7516 37.1418 81.3292 36.9289C82.4211 36.5593 83.8308 36.5078 84.0674 36.5078ZM85.4185 31.5367C86.0217 30.9292 86.0742 30.0902 86.0742 29.6137C86.0742 27.7211 84.9553 24.7734 82.7862 24.7734C82.1096 24.7734 81.3765 25.1158 80.9605 25.6453C80.519 26.1935 80.3867 26.9046 80.3867 27.5885C80.3867 29.3509 81.4059 32.2736 83.6477 32.2736C84.3019 32.2736 85.0056 31.9531 85.4185 31.5367ZM106.476 34.0564L105.228 35.244C105.132 35.2972 105.036 35.3533 104.94 35.4093C104.748 35.5215 104.557 35.6333 104.366 35.7212C103.499 36.1182 102.618 36.218 101.834 36.218C101.001 36.218 99.694 36.1634 98.3609 35.191C96.5089 33.8754 95.6992 31.614 95.6992 29.6434C95.6992 25.5635 98.9926 23.5625 101.679 23.5625C102.618 23.5625 103.582 23.7996 104.366 24.2994C105.655 25.1589 105.999 26.273 106.188 26.8829L106.194 26.904L100.06 29.4033L98.0508 29.5608C98.7011 32.9061 100.945 34.8518 103.425 34.8518C104.664 34.8518 105.583 34.4439 106.427 34.0236C106.427 34.0236 106.596 33.9347 106.476 34.0564ZM103.532 26.6989C103.532 27.0654 103.272 27.223 102.774 27.4054L98.0242 29.4844C98.0152 29.323 98.0032 29.1616 97.9912 29.0013L97.9911 29.0005L97.9911 28.9997L97.991 28.9995C97.968 28.6912 97.9453 28.3871 97.9453 28.0956C97.9453 25.2524 99.9025 24.4336 100.945 24.4336C102.352 24.4336 103.532 25.6478 103.532 26.6989ZM113.998 34.1686V40.871H112.678V23.8158H113.998V25.7583C114.858 24.5028 116.429 23.5078 118.254 23.5078C121.527 23.5078 123.732 26.0118 123.732 29.9755C123.732 33.9128 121.527 36.469 118.254 36.469C116.531 36.469 114.988 35.573 113.998 34.1686ZM118.03 24.7109C120.768 24.7109 122.312 26.9895 122.312 29.977C122.312 32.9691 120.768 35.2672 118.03 35.2672C116.329 35.2672 114.703 33.8706 113.996 32.693V27.2336C114.703 26.0584 116.329 24.7109 118.03 24.7109ZM125.533 19.1094H126.852V36.1645H125.533V19.1094ZM137.606 35.01C137.655 35.325 137.721 35.7024 137.809 36.1305H139.33C139.212 35.7321 139.123 35.3203 139.068 34.9078C139.013 34.4961 138.993 34.0734 138.993 33.6359V27.5457C138.993 26.2418 138.553 25.2444 137.676 24.5543C136.798 23.8572 135.633 23.5078 134.194 23.5078C132.751 23.5078 131.578 23.8626 130.682 24.5683C129.783 25.2749 129.36 26.0929 129.408 27.0255L129.436 27.0918H130.787C130.787 26.4001 131.094 25.8262 131.704 25.363C132.318 24.9091 133.126 24.676 134.121 24.676C135.21 24.676 136.049 24.931 136.648 25.4355C137.244 25.9392 137.543 26.6341 137.543 27.5176V29.0515H134.464C132.814 29.0515 131.481 29.3946 130.449 30.0847C129.418 30.7717 128.9 31.6701 128.9 32.7766C128.9 33.8847 129.258 34.7604 129.968 35.4069C130.68 36.0541 131.678 36.3731 132.964 36.3731C134.032 36.3731 134.811 36.1563 135.63 35.7141C136.449 35.2751 137.09 34.7175 137.543 34.0477C137.543 34.3744 137.566 34.6957 137.606 35.01ZM133.124 35.1617C134.246 35.1617 135.051 34.9091 135.875 34.4092C136.693 33.9125 137.25 33.2645 137.541 32.48V30.1094H134.448C133.267 30.1094 132.288 30.3729 131.519 30.9048C130.748 31.435 130.357 32.0768 130.357 32.8231C130.357 33.5273 130.605 34.0903 131.097 34.5168C131.59 34.9481 132.264 35.1617 133.124 35.1617ZM142.733 39.9779C142.428 39.9779 141.946 39.8999 141.664 39.7728L141.437 41.001C141.767 41.1032 142.33 41.1796 142.757 41.1796C144.179 41.1796 145.214 40.4333 145.872 38.8815L152.214 23.8203H150.721L146.304 34.6082L141.843 23.8203H140.371L145.571 36.2691L144.608 38.469C144.103 39.6449 143.541 39.9779 142.733 39.9779Z" fill="white"/>
<path fill-rule="evenodd" clip-rule="evenodd" d="M35.8899 0.695312C33.4423 0.695312 31.4746 2.399 31.4746 5.04752C31.4746 7.68422 33.4423 9.41155 35.8899 9.41155C37.3406 9.41155 38.5266 8.79375 39.3461 7.87256V4.73153H35.3603V6.03097H37.8828V7.3304C37.5045 7.69604 36.748 8.0869 35.8899 8.0869C34.2256 8.0869 32.9884 6.80007 32.9884 5.04752C32.9884 3.26897 34.2256 2.00815 35.8899 2.00815C36.8229 2.00815 37.618 2.49908 38.0719 3.13028L39.2704 2.43604C38.6014 1.47781 37.5297 0.695312 35.8899 0.695312ZM41.1719 0.835938V9.24958H46.9362V7.95014H42.647V5.60422H46.848V4.30478H42.647V2.13616H46.9362V0.835938H41.1719ZM51.0184 9.24958V2.13616H48.4707V0.835938H55.042V2.13616H52.4943V9.24958H51.0184ZM61.647 0.835938H60.1719V9.24958H61.647V0.835938ZM65.7566 9.24958V2.13616H63.209V0.835938H69.7802V2.13616H67.2326V9.24958H65.7566ZM78.8467 0.695312C76.3227 0.695312 74.5449 2.5369 74.5449 5.04752C74.5449 7.55735 76.3227 9.39894 78.8467 9.39894C81.3557 9.39894 83.1477 7.55735 83.1477 5.04752C83.1477 2.5369 81.3557 0.695312 78.8467 0.695312ZM81.6338 5.04719C81.6338 3.30646 80.5361 2.00781 78.8466 2.00781C77.1429 2.00781 76.0586 3.30646 76.0586 5.04719C76.0586 6.77452 77.1429 8.08656 78.8466 8.08656C80.5361 8.08656 81.6338 6.77452 81.6338 5.04719ZM86.3463 3.23308L90.7363 9.24958H92.1618V0.835938H90.6859V6.6641L86.3849 0.835938H84.8711V9.24958H86.3463V3.23308Z" fill="white"/>
<defs>
<linearGradient id="paint0_linear_2032_62973" x1="0.289062" y1="15.6562" x2="0.289062" y2="42.937" gradientUnits="userSpaceOnUse">
<stop stop-color="#1E79AF"/>
<stop offset="1" stop-color="#63FFD3"/>
</linearGradient>
<linearGradient id="paint1_linear_2032_62973" x1="8.86061" y1="25.8213" x2="-1.59013" y2="39.8311" gradientUnits="userSpaceOnUse">
<stop stop-color="#DC4057"/>
<stop offset="1" stop-color="#9E36BB"/>
</linearGradient>
<linearGradient id="paint2_linear_2032_62973" x1="14.7477" y1="25.0156" x2="14.7477" y2="33.391" gradientUnits="userSpaceOnUse">
<stop stop-color="#FF9676"/>
<stop offset="1" stop-color="#FFD074"/>
</linearGradient>
<linearGradient id="paint3_linear_2032_62973" x1="-4.66304" y1="21.2521" x2="5.7555" y2="37.6258" gradientUnits="userSpaceOnUse">
<stop stop-color="#51C6AD"/>
<stop offset="1" stop-color="#D5FFA1"/>
</linearGradient>
<clipPath id="clip0_2032_62973">
<rect width="25.4483" height="27.3569" fill="white" transform="translate(0 15.8398)"/>
</clipPath>
</defs>
</svg>
