<svg width="147" height="40" viewBox="0 0 147 40" fill="none" xmlns="http://www.w3.org/2000/svg">
<path fill-rule="evenodd" clip-rule="evenodd" d="M99.4728 32.8956C100.526 31.9457 101.051 30.7152 101.051 29.2028C101.051 27.9737 100.692 26.9436 99.9722 26.1206C99.2498 25.2949 98.1269 24.5748 96.598 23.9589C95.3482 23.4659 94.487 23.009 94.013 22.5868C93.4682 22.1299 93.1971 21.5487 93.1971 20.8459C93.1971 20.2113 93.4348 19.6756 93.9088 19.236C94.4696 18.7444 95.2521 18.4972 96.2535 18.4972C97.5207 18.4972 98.653 18.7697 99.6544 19.3148L100.366 16.9928C99.2939 16.4303 97.9506 16.1484 96.3336 16.1484C94.5204 16.1484 93.0703 16.6147 91.9834 17.5486C90.8925 18.4812 90.3477 19.6796 90.3477 21.1412C90.3477 23.3777 91.9019 25.0785 95.0131 26.2395C96.156 26.663 96.9746 27.1213 97.4646 27.6143C97.9573 28.1073 98.203 28.7152 98.203 29.4366C98.203 30.2463 97.9052 30.8956 97.3084 31.3792C96.7088 31.8629 95.8743 32.106 94.8021 32.106C93.308 32.106 91.9367 31.7266 90.6869 30.9704L90.0273 33.3445C91.1876 34.0834 92.7205 34.4521 94.6325 34.4521C96.7035 34.4521 98.3151 33.9337 99.4728 32.8956ZM52.0942 34.1901H55.1265L49.3783 16.4102H45.8452L40.125 34.1901H43.0772L44.6595 28.9675H50.4331L52.0942 34.1901ZM48.4308 22.1346L49.933 26.7773H45.1621L46.6376 22.1346C47.0248 20.6583 47.3065 19.5414 47.4814 18.7852H47.5348C47.9741 20.5434 48.2719 21.6603 48.4308 22.1346ZM68.0705 32.7904C69.2482 31.5252 69.8371 29.8017 69.8371 27.6213C69.8371 25.6694 69.3324 24.0955 68.3202 22.8984C67.3108 21.7027 66.049 21.1055 64.5375 21.1055C62.604 21.1055 61.1633 21.8697 60.2139 23.4008H60.1605L60.0016 21.3687H57.498C57.5675 22.8116 57.6035 24.2184 57.6035 25.5892V39.4132H60.4503V32.6595H60.5037C61.2421 33.8726 62.4545 34.4792 64.1422 34.4792C65.7058 34.4792 67.0157 33.9167 68.0705 32.7904ZM66.9365 27.7278C66.9365 26.4799 66.6561 25.4512 66.0926 24.6416C65.477 23.7972 64.6505 23.375 63.6144 23.375C62.912 23.375 62.2738 23.6101 61.7036 24.0737C61.1321 24.5414 60.7583 25.1519 60.5834 25.9081C60.4952 26.2608 60.4512 26.5494 60.4512 26.7765V28.9142C60.4512 29.8468 60.7369 30.6337 61.3084 31.2763C61.8799 31.9189 62.6223 32.2396 63.5356 32.2396C64.6078 32.2396 65.4423 31.8254 66.0392 30.9997C66.6374 30.1727 66.9365 29.0825 66.9365 27.7278ZM82.8062 32.7904C83.9852 31.5252 84.574 29.8017 84.574 27.6213C84.574 25.6694 84.068 24.0955 83.0599 22.8984C82.0477 21.7027 80.7859 21.1055 79.2758 21.1055C77.341 21.1055 75.9003 21.8697 74.9522 23.4008H74.8988L74.7399 21.3687H72.2363C72.3058 22.8116 72.3418 24.2184 72.3418 25.5892V39.4132H75.1886V32.6595H75.242C75.979 33.8726 77.1914 34.4792 78.8792 34.4792C80.4428 34.4792 81.7526 33.9167 82.8062 32.7904ZM81.6748 27.7278C81.6748 26.4799 81.393 25.4512 80.8295 24.6416C80.214 23.7972 79.3901 23.375 78.3527 23.375C77.649 23.375 77.0121 23.6101 76.4406 24.0737C75.8691 24.5414 75.4966 25.1519 75.3216 25.9081C75.2349 26.2608 75.1895 26.5494 75.1895 26.7765V28.9142C75.1895 29.8468 75.4752 30.6337 76.044 31.2763C76.6155 31.9176 77.3579 32.2396 78.2739 32.2396C79.3461 32.2396 80.1806 31.8254 80.7775 30.9997C81.3757 30.1727 81.6748 29.0825 81.6748 27.7278ZM110.463 23.504H107.326V29.7286C107.326 31.3118 107.878 32.1027 108.987 32.1027C109.495 32.1027 109.917 32.0586 110.251 31.9704L110.33 34.1335C109.769 34.3432 109.031 34.4488 108.116 34.4488C106.992 34.4488 106.113 34.1054 105.479 33.42C104.847 32.7333 104.53 31.5817 104.53 29.9637V23.5013H102.66V21.3637H104.53V19.0162L107.326 18.1719V21.3637H110.463V23.504ZM122.933 32.5259C124.057 31.2607 124.62 29.6427 124.62 27.6721C124.62 25.7549 124.076 24.1904 122.983 22.9786C121.842 21.7294 120.329 21.1055 118.449 21.1055C116.498 21.1055 114.946 21.7387 113.797 23.0053C112.644 24.2705 112.07 25.8978 112.07 27.8845C112.07 29.783 112.628 31.3582 113.745 32.6061C114.861 33.8539 116.358 34.4778 118.238 34.4778C120.189 34.4778 121.754 33.8285 122.933 32.5259ZM121.668 27.7634C121.668 26.581 121.416 25.567 120.904 24.7213C120.308 23.6979 119.454 23.1875 118.349 23.1875C117.204 23.1875 116.335 23.6992 115.738 24.7213C115.227 25.5683 114.975 26.5984 114.975 27.8169C114.975 28.9992 115.227 30.0133 115.738 30.8577C116.354 31.8811 117.214 32.3914 118.323 32.3914C119.41 32.3914 120.264 31.8704 120.879 30.831C121.404 29.9692 121.668 28.9445 121.668 27.7634ZM132.977 23.7949C133.293 23.7949 133.593 23.8216 133.875 23.8737V21.1576C133.664 21.1242 133.426 21.1055 133.163 21.1055C132.425 21.1055 131.74 21.3339 131.105 21.7922C130.456 22.3012 129.982 22.9799 129.682 23.823H129.603L129.499 21.37H127.02C127.09 22.5831 127.126 23.9285 127.126 25.4062L127.1 34.1893H129.945V27.4623C129.945 26.4429 130.183 25.5986 130.657 24.9305C131.202 24.173 131.976 23.7949 132.977 23.7949ZM146.606 27.173C146.606 27.6834 146.572 28.1136 146.502 28.465H137.961C137.995 29.7315 138.407 30.7001 139.2 31.3682C139.92 31.9654 140.851 32.2646 141.994 32.2646C143.258 32.2646 144.412 32.0629 145.449 31.6581L145.895 33.6354C144.683 34.1645 143.252 34.4277 141.6 34.4277C139.613 34.4277 138.053 33.8425 136.919 32.6735C135.786 31.5044 135.219 29.9346 135.219 27.9653C135.219 26.032 135.746 24.4221 136.802 23.1382C137.908 21.7674 139.402 21.082 141.282 21.082C143.129 21.082 144.527 21.7674 145.476 23.1382C146.228 24.2271 146.606 25.5738 146.606 27.173ZM143.338 24.2424C143.724 24.8583 143.909 25.5878 143.891 26.4322V26.4308H137.961C138.048 25.5704 138.329 24.8316 138.803 24.2157C139.382 23.4408 140.139 23.0547 141.069 23.0547C142.088 23.0547 142.845 23.4502 143.338 24.2424Z" fill="white"/>
<path fill-rule="evenodd" clip-rule="evenodd" d="M77.0195 0.859375H78.4175V10.0473H77.0195V0.859375ZM47.5793 9.02315C48.5207 8.22821 48.992 7.04448 48.992 5.47197C48.992 4.07181 48.5554 2.9963 47.6848 2.24411C46.9077 1.57877 45.7554 1.24609 44.2265 1.24609C43.3613 1.24609 42.5601 1.30755 41.8164 1.42779V10.0198C42.3866 10.0893 43.0675 10.124 43.8633 10.124C45.4683 10.124 46.7074 9.75663 47.5793 9.02315ZM46.7085 3.16397C47.2479 3.70908 47.5176 4.49066 47.5176 5.51005C47.5176 6.65102 47.2239 7.51945 46.6417 8.11532C46.0595 8.71119 45.233 9.00912 44.1622 9.00912C43.7042 9.00912 43.389 8.9971 43.2168 8.97038V2.43851C43.5279 2.37705 43.9031 2.34766 44.3437 2.34766C45.3812 2.34766 46.169 2.62021 46.7085 3.16397ZM56.8152 6.84628C56.8152 7.81491 56.5388 8.60851 55.986 9.2311C55.4065 9.87106 54.6388 10.1904 53.6801 10.1904C52.7561 10.1904 52.0204 9.88442 51.4716 9.26985C50.9241 8.65661 50.6504 7.88304 50.6504 6.95049C50.6504 5.97519 50.9321 5.1749 51.4983 4.55365C52.0644 3.93239 52.8255 3.62109 53.7842 3.62109C54.7082 3.62109 55.4506 3.92705 56.0128 4.54029C56.5469 5.13616 56.8152 5.90571 56.8152 6.84628ZM54.9897 5.39415C55.2394 5.80966 55.3649 6.308 55.3649 6.88917C55.3649 7.47035 55.2354 7.9727 54.9763 8.39622C54.6746 8.90792 54.2553 9.1631 53.7212 9.1631C53.1764 9.1631 52.7545 8.91193 52.4514 8.40958C52.2017 7.99407 52.0762 7.49573 52.0762 6.91456C52.0762 6.31601 52.2003 5.80966 52.4514 5.39415C52.7451 4.8918 53.1724 4.64062 53.7346 4.64062C54.278 4.64062 54.6959 4.8918 54.9897 5.39415ZM67.3053 3.75L67.3049 3.75134H65.9313L65.1676 6.69328C64.978 7.4281 64.8351 8.11883 64.7403 8.76681H64.7016C64.572 8.10146 64.4038 7.41073 64.1968 6.69328L63.3409 3.75134H62.2006L61.3074 6.75741C61.0643 7.56839 60.8921 8.23908 60.7879 8.76547H60.7626C60.6491 8.12685 60.5075 7.45215 60.3353 6.74405L59.6236 3.75H58.1855L60.0375 10.0481H61.3341L62.2006 7.3132C62.417 6.64786 62.5852 5.97049 62.7067 5.27842H62.7321C62.8629 5.95179 63.0312 6.63049 63.2381 7.3132L64.054 10.0481H65.3358L67.3049 3.75134H67.3053V3.75ZM73.1609 10.0475H74.5602V6.27456C74.5602 5.35002 74.3185 4.65395 73.8352 4.18767C73.4466 3.8069 72.9579 3.61719 72.3704 3.61719C71.9057 3.61719 71.4811 3.73609 71.1019 3.97124C70.7828 4.17298 70.5398 4.42549 70.3769 4.73144H70.3382L70.2727 3.74678H69.043C69.0763 4.3961 69.0937 4.99598 69.0937 5.54909V10.0462H70.493V6.31063C70.493 5.8978 70.6239 5.53707 70.8816 5.23112C71.142 4.92517 71.4771 4.77286 71.8924 4.77286C72.7389 4.77286 73.1609 5.32865 73.1609 6.44023V10.0475ZM85.8278 9.2311C86.3806 8.60851 86.657 7.81491 86.657 6.84628C86.657 5.90571 86.3886 5.13616 85.8545 4.54029C85.2911 3.92705 84.55 3.62109 83.6247 3.62109C82.6673 3.62109 81.9062 3.93239 81.3401 4.55365C80.7739 5.1749 80.4922 5.97519 80.4922 6.95049C80.4922 7.88304 80.7659 8.65661 81.3134 9.26985C81.8608 9.88442 82.5965 10.1904 83.5219 10.1904C84.4792 10.1904 85.2483 9.87106 85.8278 9.2311ZM85.2034 6.89308C85.2034 6.3119 85.0779 5.81356 84.8282 5.39805C84.5358 4.89571 84.1165 4.64453 83.5744 4.64453C83.0109 4.64453 82.5836 4.89571 82.2912 5.39805C82.0402 5.81356 81.916 6.31992 81.916 6.91846C81.916 7.49964 82.0415 7.99798 82.2912 8.41349C82.5943 8.91583 83.0163 9.16701 83.561 9.16701C84.0951 9.16701 84.5131 8.91183 84.8148 8.40012C85.0752 7.9766 85.2034 7.47425 85.2034 6.89308ZM92.1727 10.0475H93.4292C93.3691 9.67605 93.3384 9.17504 93.3384 8.54576V6.22641C93.3384 4.48956 92.5132 3.62114 90.8682 3.62114C90.0163 3.62114 89.2939 3.80284 88.7091 4.16491L88.9935 5.0841C89.4662 4.77414 90.0136 4.61782 90.6345 4.61782C91.5064 4.61782 91.9417 5.03199 91.9417 5.86167V5.97924C90.7761 5.96989 89.8708 6.16896 89.2272 6.57511C88.5822 6.98127 88.2618 7.56779 88.2618 8.33734C88.2618 8.84637 88.426 9.27524 88.7545 9.61994C89.1163 9.99937 89.597 10.1904 90.1912 10.1904C90.987 10.1904 91.5999 9.9005 92.0299 9.322H92.0686L92.1727 10.0475ZM91.9774 7.88264V6.91135C90.4339 6.88462 89.6621 7.30815 89.6621 8.18058C89.6621 8.50924 89.7502 8.75507 89.9305 8.9194C90.1108 9.08374 90.3404 9.16524 90.6141 9.16524C90.9212 9.16524 91.2083 9.06771 91.47 8.87398C91.7331 8.67892 91.8946 8.43175 91.9547 8.12847C91.9694 8.06034 91.9774 7.9775 91.9774 7.88264ZM100.138 10.0473H101.38C101.346 9.5289 101.33 8.96376 101.33 8.35052V0.859375H99.9296V4.47468H99.9029C99.5664 3.9042 98.9749 3.61962 98.1297 3.61962C97.3606 3.61962 96.7144 3.91355 96.1869 4.50141C95.6422 5.13201 95.3711 5.95768 95.3711 6.97708C95.3711 7.927 95.6208 8.70056 96.1215 9.29643C96.6222 9.8923 97.2538 10.1902 98.0122 10.1902C98.9616 10.1902 99.6372 9.80546 100.034 9.03591H100.073L100.138 10.0473ZM99.9301 7.3937V6.34357C99.9301 6.16187 99.9167 6.01491 99.8913 5.90268C99.8126 5.566 99.643 5.28276 99.3853 5.0543C99.1249 4.82584 98.8111 4.71094 98.4493 4.71094C97.9272 4.71094 97.5186 4.91802 97.2182 5.33353C96.9204 5.74904 96.7695 6.27944 96.7695 6.92742C96.7695 7.55001 96.9124 8.05503 97.1995 8.44382C97.5026 8.85799 97.9112 9.06507 98.4226 9.06507C98.8819 9.06507 99.2491 8.89273 99.5282 8.54669C99.7979 8.22738 99.9301 7.8426 99.9301 7.3937ZM112.519 9.23115C113.072 8.60856 113.349 7.81495 113.349 6.84633C113.349 5.90576 113.08 5.1362 112.546 4.54033C111.985 3.92709 111.241 3.62114 110.319 3.62114C109.359 3.62114 108.598 3.93244 108.032 4.55369C107.465 5.17495 107.184 5.97523 107.184 6.95054C107.184 7.88309 107.457 8.65665 108.005 9.26989C108.555 9.88447 109.291 10.1904 110.213 10.1904C111.173 10.1904 111.94 9.87111 112.519 9.23115ZM111.897 6.89308C111.897 6.3119 111.772 5.81356 111.522 5.39805C111.227 4.89571 110.811 4.64453 110.266 4.64453C109.705 4.64453 109.278 4.89571 108.983 5.39805C108.732 5.81356 108.607 6.31992 108.607 6.91846C108.607 7.49964 108.733 7.99798 108.983 8.41349C109.286 8.91583 109.708 9.16701 110.252 9.16701C110.787 9.16701 111.207 8.91183 111.509 8.40012C111.767 7.9766 111.897 7.47425 111.897 6.89308ZM119.475 10.0475H120.873V6.27456C120.873 5.35002 120.633 4.65395 120.148 4.18767C119.76 3.8069 119.271 3.61719 118.685 3.61719C118.219 3.61719 117.796 3.73609 117.415 3.97124C117.097 4.17298 116.854 4.42549 116.69 4.73144H116.651L116.586 3.74678H115.357C115.391 4.3961 115.407 4.99598 115.407 5.54909V10.0462H116.808V6.31063C116.808 5.8978 116.937 5.53707 117.196 5.23112C117.455 4.92517 117.79 4.77286 118.206 4.77286C119.053 4.77286 119.475 5.32865 119.475 6.44023V10.0475ZM130.289 4.79698H128.75V7.8565C128.75 8.63407 129.023 9.02286 129.565 9.02286C129.817 9.02286 130.025 9.00148 130.189 8.95739L130.225 10.0195C129.949 10.1237 129.586 10.1759 129.138 10.1759C128.585 10.1759 128.155 10.0075 127.844 9.67083C127.532 9.33415 127.377 8.76767 127.377 7.97273V4.79698H126.457V3.74819H127.377V2.59386L128.748 2.17969V3.74686H130.289V4.79698ZM136.298 10.0473H137.699V6.30238C137.699 5.36983 137.461 4.6644 136.987 4.19011C136.607 3.80934 136.127 3.61962 135.548 3.61962C134.729 3.61962 134.098 3.96432 133.657 4.65505H133.63V0.859375H132.232V10.0459H133.63V6.25829C133.63 6.06056 133.654 5.89222 133.696 5.75461C133.939 5.09995 134.382 4.77262 135.031 4.77262C135.876 4.77262 136.298 5.33776 136.298 6.46671V10.0473ZM145.34 6.60076C145.34 6.85193 145.321 7.06302 145.288 7.23537H141.091C141.11 7.85796 141.31 8.33226 141.699 8.66092C142.054 8.95485 142.512 9.10181 143.073 9.10181C143.694 9.10181 144.26 9.00295 144.77 8.80388L144.989 9.77651C144.392 10.0357 143.69 10.1653 142.877 10.1653C141.902 10.1653 141.134 9.87805 140.579 9.30355C140.021 8.72906 139.744 7.95817 139.744 6.99088C139.744 6.04096 140.002 5.25003 140.521 4.61942C141.063 3.94606 141.796 3.60938 142.722 3.60938C143.627 3.60938 144.315 3.94606 144.779 4.61942C145.155 5.15383 145.34 5.81517 145.34 6.60076ZM143.734 5.16197C143.924 5.46392 144.016 5.82197 144.005 6.23748H141.092C141.137 5.81396 141.275 5.45189 141.507 5.14861C141.791 4.76784 142.164 4.57812 142.621 4.57812C143.121 4.57812 143.491 4.77319 143.734 5.16197Z" fill="white"/>
<path fill-rule="evenodd" clip-rule="evenodd" d="M20.7957 0.816406C21.0192 2.8485 20.214 4.85097 19.037 6.32286C17.8088 7.77186 15.8441 8.88015 13.9305 8.73741C13.68 6.78207 14.6496 4.70284 15.735 3.4343C16.9618 1.99473 19.0922 0.891819 20.7957 0.816406ZM27.0595 12.5369C26.846 12.6643 23.3069 14.7766 23.3457 19.0844C23.3901 24.2865 27.896 26.0062 27.9512 26.0251C27.9243 26.1463 27.2456 28.5069 25.5555 30.904C24.1442 33.0142 22.6656 35.0773 20.3171 35.115C19.2005 35.1407 18.4466 34.8196 17.661 34.485C16.8415 34.136 15.9876 33.7724 14.6517 33.7724C13.2354 33.7724 12.3436 34.1477 11.4834 34.5097C10.7398 34.8226 10.0199 35.1256 9.00518 35.1675C6.7684 35.2496 5.0595 32.9145 3.59703 30.8232C0.673454 26.553 -1.60239 18.7895 1.44913 13.5066C2.92775 10.9156 5.62374 9.24714 8.50558 9.2027C9.7746 9.17676 10.9917 9.66582 12.0587 10.0946C12.8747 10.4224 13.6028 10.715 14.1992 10.715C14.723 10.715 15.4307 10.4341 16.2556 10.1067C17.5555 9.59082 19.1463 8.95944 20.7668 9.12998C21.8751 9.1623 25.029 9.56764 27.0638 12.5343L27.0595 12.5369Z" fill="white"/>
</svg>
