<svg width="179" height="61" viewBox="0 0 179 61" fill="none" xmlns="http://www.w3.org/2000/svg">
<g clip-path="url(#clip0_2984_77897)">
<path fill-rule="evenodd" clip-rule="evenodd" d="M7.63449 0C3.41808 0 0 3.41807 0 7.63448V52.8052C0 57.0216 3.41807 60.4397 7.63448 60.4397H170.503C174.72 60.4397 178.138 57.0216 178.138 52.8052V7.63448C178.138 3.41807 174.72 0 170.503 0H7.63449Z" fill="black"/>
<path fill-rule="evenodd" clip-rule="evenodd" d="M113.336 42.8956C114.39 41.9457 114.914 40.7152 114.914 39.2028C114.914 37.9737 114.555 36.9436 113.835 36.1206C113.113 35.2949 111.99 34.5748 110.461 33.9589C109.212 33.4659 108.35 33.009 107.876 32.5868C107.331 32.1299 107.06 31.5487 107.06 30.8459C107.06 30.2113 107.298 29.6756 107.772 29.236C108.333 28.7444 109.115 28.4972 110.117 28.4972C111.384 28.4972 112.516 28.7697 113.518 29.3148L114.229 26.9928C113.157 26.4303 111.814 26.1484 110.197 26.1484C108.384 26.1484 106.934 26.6147 105.847 27.5486C104.756 28.4812 104.211 29.6796 104.211 31.1412C104.211 33.3777 105.765 35.0785 108.876 36.2395C110.019 36.663 110.838 37.1213 111.328 37.6143C111.821 38.1073 112.066 38.7152 112.066 39.4366C112.066 40.2463 111.769 40.8956 111.172 41.3792C110.572 41.8629 109.738 42.106 108.665 42.106C107.171 42.106 105.8 41.7266 104.55 40.9704L103.891 43.3445C105.051 44.0834 106.584 44.4521 108.496 44.4521C110.567 44.4521 112.178 43.9337 113.336 42.8956ZM65.9575 44.1901H68.9898L63.2416 26.4102H59.7085L53.9883 44.1901H56.9405L58.5228 38.9675H64.2964L65.9575 44.1901ZM62.2941 32.1346L63.7962 36.7773H59.0254L60.5008 32.1346C60.8881 30.6583 61.1698 29.5414 61.3447 28.7852H61.3981C61.8374 30.5434 62.1352 31.6603 62.2941 32.1346ZM81.9338 42.7904C83.1115 41.5252 83.7004 39.8017 83.7004 37.6213C83.7004 35.6694 83.1956 34.0955 82.1835 32.8984C81.1741 31.7027 79.9123 31.1055 78.4008 31.1055C76.4673 31.1055 75.0266 31.8697 74.0772 33.4008H74.0238L73.8649 31.3687H71.3613C71.4308 32.8116 71.4668 34.2184 71.4668 35.5892V49.4132H74.3136V42.6595H74.367C75.1054 43.8726 76.3178 44.4792 78.0055 44.4792C79.5691 44.4792 80.879 43.9167 81.9338 42.7904ZM80.7998 37.7258C80.7998 36.478 80.5194 35.4492 79.9559 34.6396C79.3403 33.7952 78.5138 33.373 77.4777 33.373C76.7753 33.373 76.1371 33.6082 75.5669 34.0718C74.9954 34.5394 74.6216 35.15 74.4466 35.9062C74.3585 36.2589 74.3145 36.5475 74.3145 36.7746V38.9122C74.3145 39.8448 74.6002 40.6317 75.1717 41.2744C75.7432 41.917 76.4856 42.2376 77.3989 42.2376C78.4711 42.2376 79.3056 41.8235 79.9025 40.9978C80.5007 40.1708 80.7998 39.0806 80.7998 37.7258ZM96.6694 42.7904C97.8485 41.5252 98.4373 39.8017 98.4373 37.6213C98.4373 35.6694 97.9313 34.0955 96.9231 32.8984C95.911 31.7027 94.6492 31.1055 93.139 31.1055C91.2043 31.1055 89.7635 31.8697 88.8155 33.4008H88.7621L88.6032 31.3687H86.0996C86.169 32.8116 86.2051 34.2184 86.2051 35.5892V49.4132H89.0518V42.6595H89.1053C89.8423 43.8726 91.0547 44.4792 92.7425 44.4792C94.306 44.4792 95.6159 43.9167 96.6694 42.7904ZM95.538 37.7258C95.538 36.478 95.2563 35.4492 94.6928 34.6396C94.0773 33.7952 93.2534 33.373 92.2159 33.373C91.5123 33.373 90.8754 33.6082 90.3039 34.0718C89.7324 34.5394 89.3598 35.15 89.1849 35.9062C89.0981 36.2589 89.0527 36.5475 89.0527 36.7746V38.9122C89.0527 39.8448 89.3385 40.6317 89.9073 41.2744C90.4788 41.9157 91.2212 42.2376 92.1372 42.2376C93.2094 42.2376 94.0439 41.8235 94.6408 40.9978C95.2389 40.1708 95.538 39.0806 95.538 37.7258ZM124.327 33.5059H121.189V39.7305C121.189 41.3137 121.742 42.1046 122.85 42.1046C123.358 42.1046 123.78 42.0605 124.114 41.9724L124.193 44.1354C123.632 44.3452 122.894 44.4507 121.979 44.4507C120.855 44.4507 119.976 44.1074 119.342 43.422C118.71 42.7352 118.393 41.5836 118.393 39.9656V33.5032H116.523V31.3656H118.393V29.0182L121.189 28.1738V31.3656H124.327V33.5059ZM136.796 42.5259C137.92 41.2607 138.484 39.6427 138.484 37.6721C138.484 35.7549 137.939 34.1904 136.847 32.9786C135.705 31.7294 134.192 31.1055 132.312 31.1055C130.361 31.1055 128.81 31.7387 127.66 33.0053C126.508 34.2705 125.934 35.8978 125.934 37.8845C125.934 39.783 126.492 41.3582 127.608 42.6061C128.724 43.8539 130.221 44.4778 132.101 44.4778C134.052 44.4778 135.617 43.8285 136.796 42.5259ZM135.531 37.7654C135.531 36.583 135.279 35.5689 134.768 34.7232C134.171 33.6998 133.318 33.1895 132.212 33.1895C131.068 33.1895 130.199 33.7012 129.602 34.7232C129.09 35.5703 128.838 36.6003 128.838 37.8188C128.838 39.0012 129.09 40.0153 129.602 40.8596C130.217 41.883 131.077 42.3934 132.187 42.3934C133.274 42.3934 134.127 41.8723 134.742 40.8329C135.267 39.9712 135.531 38.9464 135.531 37.7654ZM146.841 33.7949C147.156 33.7949 147.456 33.8216 147.738 33.8737V31.1576C147.527 31.1242 147.289 31.1055 147.026 31.1055C146.288 31.1055 145.603 31.3339 144.969 31.7922C144.32 32.3012 143.846 32.9799 143.545 33.823H143.467L143.362 31.37H140.883C140.954 32.5831 140.99 33.9285 140.99 35.4062L140.963 44.1893H143.808V37.4623C143.808 36.4429 144.046 35.5986 144.52 34.9305C145.065 34.173 145.839 33.7949 146.841 33.7949ZM160.469 37.173C160.469 37.6834 160.436 38.1136 160.365 38.465H151.825C151.858 39.7315 152.271 40.7001 153.064 41.3682C153.783 41.9654 154.714 42.2646 155.857 42.2646C157.122 42.2646 158.275 42.0629 159.313 41.6581L159.759 43.6354C158.546 44.1645 157.115 44.4277 155.463 44.4277C153.476 44.4277 151.917 43.8425 150.782 42.6735C149.65 41.5044 149.082 39.9346 149.082 37.9653C149.082 36.032 149.609 34.4221 150.666 33.1382C151.771 31.7674 153.265 31.082 155.145 31.082C156.992 31.082 158.39 31.7674 159.339 33.1382C160.091 34.2271 160.469 35.5738 160.469 37.173ZM157.201 34.2424C157.587 34.8583 157.773 35.5878 157.754 36.4322V36.4308H151.824C151.911 35.5704 152.193 34.8316 152.667 34.2157C153.245 33.4408 154.002 33.0547 154.933 33.0547C155.951 33.0547 156.709 33.4502 157.201 34.2424Z" fill="white"/>
<path fill-rule="evenodd" clip-rule="evenodd" d="M90.8828 10.8594H92.2808V20.0473H90.8828V10.8594ZM61.4426 19.0232C62.384 18.2282 62.8553 17.0445 62.8553 15.472C62.8553 14.0718 62.4187 12.9963 61.5481 12.2441C60.771 11.5788 59.6187 11.2461 58.0898 11.2461C57.2246 11.2461 56.4234 11.3076 55.6797 11.4278V20.0198C56.2498 20.0893 56.9308 20.124 57.7266 20.124C59.3316 20.124 60.5707 19.7566 61.4426 19.0232ZM60.5718 13.164C61.1112 13.7091 61.3809 14.4907 61.3809 15.51C61.3809 16.651 61.0872 17.5194 60.505 18.1153C59.9228 18.7112 59.0963 19.0091 58.0254 19.0091C57.5674 19.0091 57.2523 18.9971 57.0801 18.9704V12.4385C57.3912 12.377 57.7664 12.3477 58.207 12.3477C59.2445 12.3477 60.0323 12.6202 60.5718 13.164ZM70.6785 16.8463C70.6785 17.8149 70.4021 18.6085 69.8493 19.2311C69.2698 19.8711 68.5021 20.1904 67.5434 20.1904C66.6194 20.1904 65.8836 19.8844 65.3349 19.2698C64.7874 18.6566 64.5137 17.883 64.5137 16.9505C64.5137 15.9752 64.7954 15.1749 65.3616 14.5536C65.9277 13.9324 66.6888 13.6211 67.6475 13.6211C68.5715 13.6211 69.3139 13.927 69.876 14.5403C70.4101 15.1362 70.6785 15.9057 70.6785 16.8463ZM68.853 15.3941C69.1027 15.8097 69.2282 16.308 69.2282 16.8892C69.2282 17.4703 69.0987 17.9727 68.8396 18.3962C68.5378 18.9079 68.1186 19.1631 67.5845 19.1631C67.0397 19.1631 66.6178 18.9119 66.3147 18.4096C66.065 17.9941 65.9395 17.4957 65.9395 16.9146C65.9395 16.316 66.0636 15.8097 66.3147 15.3941C66.6084 14.8918 67.0357 14.6406 67.5978 14.6406C68.1413 14.6406 68.5592 14.8918 68.853 15.3941ZM81.1686 13.75L81.1682 13.7513H79.7946L79.0308 16.6933C78.8412 17.4281 78.6984 18.1188 78.6036 18.7668H78.5648C78.4353 18.1015 78.2671 17.4107 78.0601 16.6933L77.2042 13.7513H76.0639L75.1706 16.7574C74.9276 17.5684 74.7554 18.2391 74.6512 18.7655H74.6259C74.5124 18.1268 74.3708 17.4522 74.1986 16.7441L73.4869 13.75H72.0488L73.9008 20.0481H75.1973L76.0639 17.3132C76.2802 16.6479 76.4485 15.9705 76.57 15.2784H76.5954C76.7262 15.9518 76.8944 16.6305 77.1014 17.3132L77.9172 20.0481H79.1991L81.1682 13.7513H81.1686V13.75ZM87.0242 20.0475H88.4235V16.2746C88.4235 15.35 88.1818 14.654 87.6985 14.1877C87.3099 13.8069 86.8212 13.6172 86.2337 13.6172C85.769 13.6172 85.3444 13.7361 84.9652 13.9712C84.6461 14.173 84.4031 14.4255 84.2402 14.7314H84.2014L84.136 13.7468H82.9062C82.9396 14.3961 82.957 14.996 82.957 15.5491V20.0462H84.3563V16.3106C84.3563 15.8978 84.4872 15.5371 84.7449 15.2311C85.0053 14.9252 85.3404 14.7729 85.7557 14.7729C86.6022 14.7729 87.0242 15.3286 87.0242 16.4402V20.0475ZM99.6911 19.2311C100.244 18.6085 100.52 17.8149 100.52 16.8463C100.52 15.9057 100.252 15.1362 99.7178 14.5403C99.1544 13.927 98.4133 13.6211 97.488 13.6211C96.5306 13.6211 95.7695 13.9324 95.2034 14.5536C94.6372 15.1749 94.3555 15.9752 94.3555 16.9505C94.3555 17.883 94.6292 18.6566 95.1766 19.2698C95.7241 19.8844 96.4598 20.1904 97.3851 20.1904C98.3425 20.1904 99.1116 19.8711 99.6911 19.2311ZM99.0667 16.8931C99.0667 16.3119 98.9412 15.8136 98.6915 15.3981C98.3991 14.8957 97.9798 14.6445 97.4377 14.6445C96.8742 14.6445 96.4469 14.8957 96.1545 15.3981C95.9035 15.8136 95.7793 16.3199 95.7793 16.9185C95.7793 17.4996 95.9048 17.998 96.1545 18.4135C96.4576 18.9158 96.8795 19.167 97.4243 19.167C97.9584 19.167 98.3764 18.9118 98.6781 18.4001C98.9385 17.9766 99.0667 17.4743 99.0667 16.8931ZM106.036 20.0475H107.292C107.232 19.676 107.202 19.175 107.202 18.5458V16.2264C107.202 14.4896 106.377 13.6211 104.731 13.6211C103.88 13.6211 103.157 13.8028 102.572 14.1649L102.857 15.0841C103.329 14.7741 103.877 14.6178 104.498 14.6178C105.37 14.6178 105.805 15.032 105.805 15.8617V15.9792C104.639 15.9699 103.734 16.169 103.09 16.5751C102.446 16.9813 102.125 17.5678 102.125 18.3373C102.125 18.8464 102.289 19.2752 102.618 19.6199C102.98 19.9994 103.46 20.1904 104.055 20.1904C104.85 20.1904 105.463 19.9005 105.893 19.322H105.932L106.036 20.0475ZM105.841 17.8826V16.9113C104.297 16.8846 103.525 17.3081 103.525 18.1806C103.525 18.5092 103.614 18.7551 103.794 18.9194C103.974 19.0837 104.204 19.1652 104.477 19.1652C104.785 19.1652 105.072 19.0677 105.333 18.874C105.596 18.6789 105.758 18.4318 105.818 18.1285C105.833 18.0603 105.841 17.9775 105.841 17.8826ZM114.001 20.0473H115.243C115.21 19.5289 115.194 18.9638 115.194 18.3505V10.8594H113.793V14.4747H113.766C113.43 13.9042 112.838 13.6196 111.993 13.6196C111.224 13.6196 110.578 13.9135 110.05 14.5014C109.505 15.132 109.234 15.9577 109.234 16.9771C109.234 17.927 109.484 18.7006 109.985 19.2964C110.486 19.8923 111.117 20.1902 111.875 20.1902C112.825 20.1902 113.5 19.8055 113.897 19.0359H113.936L114.001 20.0473ZM113.793 17.3917V16.3416C113.793 16.1599 113.78 16.013 113.755 15.9007C113.676 15.564 113.506 15.2808 113.249 15.0523C112.988 14.8239 112.674 14.709 112.313 14.709C111.79 14.709 111.382 14.9161 111.081 15.3316C110.784 15.7471 110.633 16.2775 110.633 16.9255C110.633 17.5481 110.776 18.0531 111.063 18.4419C111.366 18.856 111.774 19.0631 112.286 19.0631C112.745 19.0631 113.112 18.8908 113.391 18.5447C113.661 18.2254 113.793 17.8406 113.793 17.3917ZM126.383 19.2311C126.935 18.6086 127.212 17.815 127.212 16.8463C127.212 15.9058 126.943 15.1362 126.409 14.5403C125.848 13.9271 125.105 13.6211 124.182 13.6211C123.222 13.6211 122.461 13.9324 121.895 14.5537C121.329 15.1749 121.047 15.9752 121.047 16.9505C121.047 17.8831 121.321 18.6567 121.868 19.2699C122.418 19.8845 123.154 20.1904 124.077 20.1904C125.037 20.1904 125.803 19.8711 126.383 19.2311ZM125.761 16.8931C125.761 16.3119 125.635 15.8136 125.386 15.3981C125.09 14.8957 124.674 14.6445 124.129 14.6445C123.568 14.6445 123.141 14.8957 122.846 15.3981C122.595 15.8136 122.471 16.3199 122.471 16.9185C122.471 17.4996 122.596 17.998 122.846 18.4135C123.149 18.9158 123.571 19.167 124.116 19.167C124.65 19.167 125.07 18.9118 125.372 18.4001C125.63 17.9766 125.761 17.4743 125.761 16.8931ZM133.339 20.0475H134.737V16.2746C134.737 15.35 134.496 14.654 134.012 14.1877C133.623 13.8069 133.134 13.6172 132.548 13.6172C132.082 13.6172 131.659 13.7361 131.278 13.9712C130.961 14.173 130.718 14.4255 130.553 14.7314H130.515L130.449 13.7468H129.221C129.254 14.3961 129.27 14.996 129.27 15.5491V20.0462H130.671V16.3106C130.671 15.8978 130.8 15.5371 131.059 15.2311C131.318 14.9252 131.654 14.7729 132.069 14.7729C132.917 14.7729 133.339 15.3286 133.339 16.4402V20.0475ZM144.152 14.797H142.613V17.8565C142.613 18.6341 142.887 19.0229 143.429 19.0229C143.68 19.0229 143.888 19.0015 144.052 18.9574L144.088 20.0195C143.812 20.1237 143.449 20.1759 143.001 20.1759C142.449 20.1759 142.019 20.0075 141.708 19.6708C141.395 19.3342 141.24 18.7677 141.24 17.9727V14.797H140.32V13.7482H141.24V12.5939L142.612 12.1797V13.7469H144.152V14.797ZM150.162 20.0473H151.562V16.3024C151.562 15.3698 151.325 14.6644 150.851 14.1901C150.47 13.8093 149.991 13.6196 149.411 13.6196C148.593 13.6196 147.961 13.9643 147.52 14.655H147.494V10.8594H146.096V20.0459H147.494V16.2583C147.494 16.0606 147.518 15.8922 147.559 15.7546C147.802 15.0999 148.245 14.7726 148.894 14.7726C149.74 14.7726 150.162 15.3378 150.162 16.4667V20.0473ZM159.203 16.6008C159.203 16.8519 159.185 17.063 159.151 17.2354H154.955C154.973 17.858 155.174 18.3323 155.562 18.6609C155.917 18.9548 156.375 19.1018 156.936 19.1018C157.557 19.1018 158.123 19.0029 158.633 18.8039L158.852 19.7765C158.255 20.0357 157.553 20.1653 156.74 20.1653C155.765 20.1653 154.997 19.878 154.442 19.3036C153.884 18.7291 153.607 17.9582 153.607 16.9909C153.607 16.041 153.865 15.25 154.385 14.6194C154.927 13.9461 155.66 13.6094 156.585 13.6094C157.49 13.6094 158.178 13.9461 158.643 14.6194C159.018 15.1538 159.203 15.8152 159.203 16.6008ZM157.598 15.162C157.787 15.4639 157.879 15.822 157.869 16.2375H154.955C155 15.814 155.138 15.4519 155.37 15.1486C155.655 14.7678 156.027 14.5781 156.484 14.5781C156.985 14.5781 157.355 14.7732 157.598 15.162Z" fill="white"/>
<path fill-rule="evenodd" clip-rule="evenodd" d="M34.659 10.8164C34.8825 12.8485 34.0772 14.851 32.9003 16.3229C31.6721 17.7719 29.7074 18.8802 27.7938 18.7374C27.5433 16.7821 28.5129 14.7028 29.5983 13.4343C30.8251 11.9947 32.9555 10.8918 34.659 10.8164ZM40.9228 22.5388C40.7092 22.6663 37.1702 24.7786 37.209 29.0864C37.2534 34.2885 41.7593 36.0082 41.8145 36.027C41.7876 36.1482 41.1089 38.5089 39.4188 40.9059C38.0075 43.0161 36.5289 45.0792 34.1803 45.1169C33.0638 45.1426 32.3099 44.8215 31.5243 44.487C30.7048 44.138 29.8509 43.7743 28.515 43.7743C27.0987 43.7743 26.2068 44.1496 25.3467 44.5116C24.6031 44.8246 23.8831 45.1276 22.8685 45.1694C20.6317 45.2516 18.9228 42.9165 17.4603 40.8251C14.5367 36.5549 12.2609 28.7915 15.3124 23.5086C16.791 20.9176 19.487 19.2491 22.3689 19.2047C23.6379 19.1787 24.855 19.6678 25.922 20.0965C26.738 20.4244 27.4661 20.7169 28.0625 20.7169C28.5863 20.7169 29.294 20.4361 30.1189 20.1087C31.4187 19.5928 33.0096 18.9614 34.6301 19.1319C35.7384 19.1643 38.8923 19.5696 40.9271 22.5363L40.9228 22.5388Z" fill="white"/>
</g>
<defs>
<clipPath id="clip0_2984_77897">
<rect width="178.138" height="60.4397" fill="white"/>
</clipPath>
</defs>
</svg>
