<svg width="179" height="61" viewBox="0 0 179 61" fill="none" xmlns="http://www.w3.org/2000/svg">
<g clip-path="url(#clip0_2984_77849)">
<path fill-rule="evenodd" clip-rule="evenodd" d="M7.63449 0C3.41808 0 0 3.41807 0 7.63448V52.8052C0 57.0216 3.41807 60.4397 7.63448 60.4397H170.503C174.72 60.4397 178.138 57.0216 178.138 52.8052V7.63448C178.138 3.41807 174.72 0 170.503 0H7.63449Z" fill="black"/>
<g clip-path="url(#clip1_2984_77849)">
<path fill-rule="evenodd" clip-rule="evenodd" d="M14.4282 24.6562C13.9263 24.8146 13.6016 25.3269 13.6016 26.102L13.6047 50.4975C13.6047 51.264 13.9194 51.7686 14.4073 51.937L27.9437 38.2857L14.4282 24.6562Z" fill="url(#paint0_linear_2984_77849)"/>
<path fill-rule="evenodd" clip-rule="evenodd" d="M14.4062 51.9404C14.7573 52.0605 15.1973 52.0043 15.6768 51.7392L32.1957 42.578L27.9426 38.2891L14.4062 51.9404Z" fill="url(#paint1_linear_2984_77849)"/>
<path fill-rule="evenodd" clip-rule="evenodd" d="M32.1988 42.5771L37.8314 39.454C38.9735 38.8185 38.9735 37.7844 37.8314 37.1504L32.1779 34.0156L27.9434 38.2858L32.1988 42.5771Z" fill="url(#paint2_linear_2984_77849)"/>
<path fill-rule="evenodd" clip-rule="evenodd" d="M32.1762 34.0148L15.6766 24.8661C15.2088 24.608 14.7773 24.5479 14.4277 24.6579L27.9425 38.285L32.1762 34.0148Z" fill="url(#paint3_linear_2984_77849)"/>
</g>
<path fill-rule="evenodd" clip-rule="evenodd" d="M108 44.1197C107.143 44.0394 106.962 43.8803 106.962 42.8579L106.968 27.9332C107.071 27.0123 107.313 26.7245 108.122 26.252H104.39L102.436 27.2018H104.466L104.476 42.8478V43.435C104.476 43.9101 104.392 44.0201 103.93 44.6199L103.929 44.6211L103.861 44.7087L103.769 44.8285H108.368L109.333 44.2491C109.111 44.2224 108.887 44.2032 108.663 44.1839L108.663 44.1839L108.663 44.1839L108.663 44.1839L108.663 44.1839L108.663 44.1839L108.663 44.1839L108.663 44.1838H108.663C108.443 44.1649 108.222 44.1459 108 44.1197ZM61.7401 44.2554L58.2417 45.0633C56.8243 45.2886 55.5515 45.4867 54.2036 45.4867C47.4559 45.4867 44.8848 40.478 44.8848 36.5579C44.8848 31.7707 48.5277 27.332 54.7666 27.332C56.0866 27.332 57.3563 27.5278 58.5132 27.8459C60.2623 28.3414 61.1233 28.9469 61.6641 29.3272L61.7401 29.3806L59.7079 31.327L58.8511 31.5204L59.462 30.5386L59.4566 30.5333C58.628 29.7172 57.1073 28.2195 54.2268 28.2195C50.3674 28.2195 47.4559 31.178 47.4559 35.4974C47.4559 40.1365 50.7803 44.5003 56.1121 44.5003C57.6788 44.5003 58.4853 44.1829 59.2176 43.8866V39.9095L55.5236 40.1099L57.4816 39.0494H62.6657L62.0316 39.6647C61.8607 39.8113 61.8375 39.8612 61.7896 40.0577C61.7641 40.2823 61.7401 40.9966 61.7401 41.2477V44.2554ZM69.7626 45.1673C65.6139 45.1673 63.3984 41.9101 63.3984 38.9608C63.3984 35.5149 66.1892 32.5664 70.1562 32.5664C73.9901 32.5664 76.3904 35.5952 76.3904 38.7752C76.3904 41.8812 74.0187 45.1673 69.7626 45.1673ZM73.8102 40.1203C73.8102 41.145 73.654 42.1962 73.0277 43.0384C72.4253 43.879 71.3852 44.3773 70.3668 44.3773C67.2095 44.3773 65.9297 40.0892 65.9297 37.4893C65.9297 36.3539 66.1106 35.1966 67.1314 34.2757C67.7577 33.722 68.6153 33.3828 69.4791 33.3828C72.7122 33.3828 73.8102 37.8028 73.8102 40.1203ZM83.6504 45.1673C79.5025 45.1673 77.2832 41.9101 77.2832 38.9608C77.2832 35.5149 80.0732 32.5664 84.0417 32.5664C87.878 32.5664 90.2806 35.5952 90.2806 38.7752C90.2806 41.8812 87.9058 45.1673 83.6504 45.1673ZM87.6969 40.1203C87.6969 41.145 87.5438 42.1962 86.9128 43.0384C86.312 43.879 85.2704 44.3773 84.2496 44.3773C81.0869 44.3773 79.8125 40.0892 79.8125 37.4893C79.8125 36.3539 79.9942 35.1966 81.0134 34.2757C81.6382 33.722 82.5051 33.3828 83.3657 33.3828C86.602 33.3828 87.6969 37.8028 87.6969 40.1203ZM99.8283 33.8576C100.428 34.3544 101.678 35.4087 101.678 37.4081C101.678 39.3568 100.588 40.2754 99.4896 41.1449L99.4427 41.1924C99.117 41.5218 98.7581 41.8848 98.7581 42.4324C98.7581 43.0039 99.1378 43.3188 99.4201 43.5529L99.4362 43.5662L100.379 44.3C101.525 45.2755 102.57 46.17 102.57 47.9869C102.57 50.462 100.194 52.9582 95.7051 52.9582C91.9238 52.9582 90.0957 51.142 90.0957 49.1949C90.0957 48.2474 90.5635 46.9053 92.107 45.986C93.7033 45.0018 95.8583 44.8589 97.0429 44.7804L97.0901 44.7773L97.0355 44.7064C96.6833 44.2499 96.3052 43.7599 96.3052 42.9845C96.3052 42.5854 96.4117 42.3305 96.526 42.0568C96.5395 42.0245 96.553 41.992 96.5666 41.959L96.5483 41.9608C96.269 41.9875 95.988 42.0144 95.7322 42.0144C92.9646 42.0144 91.4002 39.9323 91.4002 37.8806C91.4002 36.6704 91.9477 35.3276 93.0721 34.3544C94.5599 33.1191 96.3338 32.9062 97.7435 32.9062H103.121L101.449 33.8576H99.8283ZM97.3799 45.5117C97.6382 45.5117 97.7666 45.5117 97.9808 45.5398C99.9604 46.9629 100.821 47.671 100.821 49.0131C100.821 50.6436 99.491 51.8547 96.9855 51.8547C94.1971 51.8547 92.3945 50.5095 92.3945 48.6442C92.3945 46.775 94.0641 46.1457 94.6417 45.9328C95.7336 45.5632 97.1433 45.5117 97.3799 45.5117ZM98.731 40.5406C99.3342 39.9331 99.3867 39.0941 99.3867 38.6176C99.3867 36.725 98.2678 33.7773 96.0987 33.7773C95.4221 33.7773 94.689 34.1197 94.273 34.6492C93.8315 35.1974 93.6992 35.9086 93.6992 36.5924C93.6992 38.3548 94.7184 41.2775 96.9602 41.2775C97.6144 41.2775 98.3181 40.957 98.731 40.5406ZM119.788 43.0603L118.54 44.2479C118.444 44.3011 118.348 44.3572 118.252 44.4132C118.061 44.5254 117.87 44.6373 117.679 44.7252C116.812 45.1221 115.93 45.2219 115.147 45.2219C114.313 45.2219 113.007 45.1673 111.673 44.1949C109.821 42.8794 109.012 40.6179 109.012 38.6473C109.012 34.5674 112.305 32.5664 114.992 32.5664C115.93 32.5664 116.895 32.8035 117.679 33.3033C118.968 34.1628 119.312 35.2769 119.5 35.8868L119.507 35.9079L113.372 38.4072L111.363 38.5647C112.014 41.9101 114.258 43.8557 116.738 43.8557C117.976 43.8557 118.896 43.4478 119.74 43.0275C119.74 43.0275 119.909 42.9386 119.788 43.0603ZM116.844 35.7009C116.844 36.0674 116.585 36.2249 116.087 36.4074L111.337 38.4864C111.328 38.3249 111.316 38.1635 111.304 38.0032L111.304 38.0024L111.304 38.0017L111.304 38.0014C111.281 37.6931 111.258 37.3891 111.258 37.0975C111.258 34.2543 113.215 33.4355 114.257 33.4355C115.665 33.4355 116.844 34.6497 116.844 35.7009ZM127.31 43.1725V49.8749H125.99V32.8197H127.31V34.7622C128.17 33.5068 129.741 32.5117 131.566 32.5117C134.84 32.5117 137.044 35.0157 137.044 38.9794C137.044 42.9167 134.84 45.4729 131.566 45.4729C129.844 45.4729 128.3 44.5769 127.31 43.1725ZM131.342 33.7148C134.08 33.7148 135.625 35.9934 135.625 38.9809C135.625 41.973 134.08 44.2711 131.342 44.2711C129.642 44.2711 128.015 42.8745 127.309 41.6969V36.2375C128.015 35.0624 129.642 33.7148 131.342 33.7148ZM138.846 28.1113H140.165V45.1665H138.846V28.1113ZM150.919 44.01C150.967 44.325 151.034 44.7024 151.122 45.1305H152.643C152.525 44.7321 152.436 44.3203 152.38 43.9078C152.326 43.4961 152.305 43.0734 152.305 42.6359V36.5457C152.305 35.2418 151.865 34.2444 150.988 33.5543C150.11 32.8572 148.946 32.5078 147.507 32.5078C146.063 32.5078 144.89 32.8626 143.995 33.5683C143.095 34.2749 142.672 35.0929 142.721 36.0255L142.749 36.0918H144.1C144.1 35.4001 144.407 34.8262 145.016 34.363C145.631 33.9091 146.438 33.676 147.433 33.676C148.522 33.676 149.362 33.931 149.96 34.4355C150.557 34.9392 150.855 35.6341 150.855 36.5176V38.0515H147.777C146.126 38.0515 144.793 38.3946 143.762 39.0847C142.73 39.7717 142.213 40.6701 142.213 41.7766C142.213 42.8847 142.57 43.7604 143.28 44.4069C143.992 45.0541 144.991 45.3731 146.277 45.3731C147.344 45.3731 148.123 45.1563 148.943 44.7141C149.762 44.2751 150.403 43.7175 150.855 43.0477C150.855 43.3744 150.878 43.6957 150.919 44.01ZM146.437 44.1617C147.558 44.1617 148.364 43.9091 149.187 43.4092C150.005 42.9125 150.562 42.2645 150.854 41.48V39.1094H147.761C146.579 39.1094 145.601 39.3729 144.831 39.9048C144.06 40.435 143.67 41.0768 143.67 41.8231C143.67 42.5273 143.917 43.0903 144.409 43.5168C144.903 43.9481 145.577 44.1617 146.437 44.1617ZM156.046 48.9779C155.741 48.9779 155.259 48.8999 154.977 48.7728L154.75 50.001C155.079 50.1032 155.642 50.1796 156.069 50.1796C157.491 50.1796 158.527 49.4333 159.185 47.8815L165.526 32.8203H164.033L159.616 43.6082L155.156 32.8203H153.684L158.883 45.2691L157.92 47.469C157.415 48.6449 156.853 48.9779 156.046 48.9779Z" fill="white"/>
<path fill-rule="evenodd" clip-rule="evenodd" d="M92.1592 9.69727C89.6352 9.69727 87.8574 11.5389 87.8574 14.0495C87.8574 16.5593 89.6352 18.4009 92.1592 18.4009C94.6682 18.4009 96.4602 16.5593 96.4602 14.0495C96.4602 11.5389 94.6682 9.69727 92.1592 9.69727ZM49.2024 9.69922C46.7548 9.69922 44.7871 11.4029 44.7871 14.0514C44.7871 16.6881 46.7548 18.4155 49.2024 18.4155C50.6531 18.4155 51.8391 17.7977 52.6586 16.8765V13.7354H48.6728V15.0349H51.1953V16.3343C50.817 16.6999 50.0605 17.0908 49.2024 17.0908C47.5381 17.0908 46.3009 15.804 46.3009 14.0514C46.3009 12.2729 47.5381 11.0121 49.2024 11.0121C50.1354 11.0121 50.9305 11.503 51.3844 12.1342L52.5829 11.4399C51.9139 10.4817 50.8422 9.69922 49.2024 9.69922ZM54.4844 9.83594V18.2496H60.2487V16.9501H55.9595V14.6042H60.1605V13.3048H55.9595V11.1362H60.2487V9.83594H54.4844ZM64.3309 18.2496V11.1362H61.7832V9.83594H68.3545V11.1362H65.8068V18.2496H64.3309ZM74.9595 9.83594H73.4844V18.2496H74.9595V9.83594ZM79.0691 18.2496V11.1362H76.5215V9.83594H83.0927V11.1362H80.5451V18.2496H79.0691ZM94.9463 14.0491C94.9463 12.3084 93.8486 11.0098 92.1591 11.0098C90.4554 11.0098 89.3711 12.3084 89.3711 14.0491C89.3711 15.7765 90.4554 17.0885 92.1591 17.0885C93.8486 17.0885 94.9463 15.7765 94.9463 14.0491ZM99.6588 12.2331L104.049 18.2496H105.474V9.83594H103.998V15.6641L99.6974 9.83594H98.1836V18.2496H99.6588V12.2331Z" fill="white"/>
</g>
<defs>
<linearGradient id="paint0_linear_2984_77849" x1="13.6016" y1="24.6562" x2="13.6016" y2="51.937" gradientUnits="userSpaceOnUse">
<stop stop-color="#1E79AF"/>
<stop offset="1" stop-color="#63FFD3"/>
</linearGradient>
<linearGradient id="paint1_linear_2984_77849" x1="22.1731" y1="34.8213" x2="11.7224" y2="48.8311" gradientUnits="userSpaceOnUse">
<stop stop-color="#DC4057"/>
<stop offset="1" stop-color="#9E36BB"/>
</linearGradient>
<linearGradient id="paint2_linear_2984_77849" x1="28.0602" y1="34.0156" x2="28.0602" y2="42.391" gradientUnits="userSpaceOnUse">
<stop stop-color="#FF9676"/>
<stop offset="1" stop-color="#FFD074"/>
</linearGradient>
<linearGradient id="paint3_linear_2984_77849" x1="8.64946" y1="30.2521" x2="19.068" y2="46.6258" gradientUnits="userSpaceOnUse">
<stop stop-color="#51C6AD"/>
<stop offset="1" stop-color="#D5FFA1"/>
</linearGradient>
<clipPath id="clip0_2984_77849">
<rect width="178.138" height="60.4397" fill="white"/>
</clipPath>
<clipPath id="clip1_2984_77849">
<rect width="25.4483" height="27.3569" fill="white" transform="translate(13.3125 24.8398)"/>
</clipPath>
</defs>
</svg>
