<svg width="524" height="371" viewBox="0 0 524 371" fill="none" xmlns="http://www.w3.org/2000/svg">
<path d="M299.217 319.016C257.885 321.154 91.7797 328.929 37.8991 292.272C-15.9815 255.614 55.5648 178.338 92.9548 151.297C130.345 124.255 192.104 78.4324 237.008 71.6515C281.913 64.8706 357.856 78.6081 407.166 105.503C456.477 132.399 485.383 182.267 483.901 215.66C482.419 249.054 432.238 299.406 384.684 309.256C356.614 315.149 327.988 318.418 299.217 319.016Z" fill="#EBF1FF"/>
<path d="M288.99 322.599L288.982 322.597L288.973 322.596C267.654 319.7 214.203 312.243 159.944 299.98C132.814 293.849 105.494 286.518 81.8941 277.96C58.2781 269.396 38.4509 259.625 26.2525 248.639C14.0982 237.692 10.3395 225.936 12.1047 214.172C13.8776 202.358 21.2364 190.443 31.5223 179.273C52.0895 156.94 84.1296 137.834 105.413 128.791C107.133 128.06 108.899 127.308 110.707 126.538C131.324 117.758 157.394 106.657 183.925 97.6967C212.797 87.9456 242.138 80.7579 265.546 81.8245C288.989 82.8926 319.556 90.1802 350.031 101.498C380.503 112.815 410.834 128.144 433.811 145.262C456.768 162.364 473.585 183.834 483.794 204.855C494.01 225.892 497.577 246.413 494.138 261.633C492.43 269.188 487.48 277.208 480.171 285.01C472.868 292.805 463.247 300.343 452.263 306.937C430.288 320.129 402.937 329.493 377.939 329.6L377.938 329.6C348.287 329.799 318.496 327.454 288.99 322.599Z" stroke="#135DFF" stroke-width="1.227"/>
<circle cx="39.3789" cy="129.18" r="9" fill="#135DFF"/>
<circle cx="191.379" cy="59.1797" r="9" fill="#135DFF"/>
<circle cx="209.379" cy="343.18" r="9" fill="#135DFF"/>
<circle cx="373.379" cy="168.18" r="9" fill="#135DFF"/>
<circle cx="390.879" cy="55.6797" r="3.5" fill="#135DFF"/>
<circle cx="121.879" cy="101.68" r="3.5" fill="#135DFF"/>
<circle cx="51.8789" cy="330.68" r="3.5" fill="#135DFF"/>
<circle cx="81.8789" cy="209.68" r="3.5" fill="#135DFF"/>
<circle cx="441.879" cy="300.68" r="3.5" fill="#135DFF"/>
<circle cx="514.379" cy="281.18" r="9" fill="#135DFF"/>
<path d="M178.747 102.044C226.526 48.0587 310.953 48.6204 358.01 103.236L443.459 202.41C453.485 214.047 459 228.896 459 244.256C459 279.662 430.298 308.364 394.892 308.364H136.482C98.7099 308.364 69.162 275.807 72.8134 238.212C74.1406 224.545 79.83 211.669 89.0402 201.486L168.023 114.16L178.747 102.044Z" fill="#145DFF"/>
<circle cx="221.494" cy="159.431" r="40.6778" fill="white"/>
<circle cx="212.308" cy="159.431" r="19.0267" fill="black"/>
<circle cx="317.283" cy="159.431" r="40.6778" fill="white"/>
<circle cx="304.818" cy="159.431" r="19.0267" fill="black"/>
<path d="M256.924 272.935C256.924 272.935 256.924 253.384 285.535 236.974C314.145 220.565 353.37 222.485 353.37 222.485" stroke="black" stroke-width="8"/>
</svg>
