<svg width="348" height="224" viewBox="0 0 348 224" fill="none" xmlns="http://www.w3.org/2000/svg">
<path d="M189.404 191.652L189.404 191.652L189.393 191.65C175.42 189.752 140.389 184.865 104.827 176.828C87.0461 172.809 69.1408 168.005 53.6733 162.396C38.1954 156.783 25.2006 150.378 17.2058 143.178C9.23977 136.004 6.77633 128.299 7.93329 120.589C9.09523 112.846 13.9182 105.036 20.6596 97.7161C34.1393 83.0786 55.1384 70.557 69.0873 64.6299C70.215 64.1507 71.3724 63.6578 72.5573 63.1533C86.0697 57.3993 103.156 50.1233 120.544 44.2507C139.467 37.8599 158.697 33.149 174.039 33.848C189.403 34.5481 209.437 39.3244 229.41 46.7424C249.382 54.1596 269.261 64.2059 284.32 75.425C299.366 86.6337 310.388 100.705 317.079 114.483C323.774 128.27 326.113 141.72 323.858 151.695C322.739 156.646 319.495 161.903 314.704 167.016C309.918 172.125 303.612 177.066 296.413 181.387C282.011 190.033 264.085 196.17 247.702 196.24L247.701 196.24C228.268 196.371 208.742 194.834 189.404 191.652Z" stroke="#0CE87E" stroke-width="0.804179"/>
<path d="M196.112 189.303C169.023 190.704 60.1575 195.8 24.8441 171.774C-10.4693 147.748 36.4222 97.1018 60.9276 79.3789C85.433 61.656 125.91 31.6236 155.34 27.1794C184.771 22.7352 234.544 31.7388 266.862 49.366C299.181 66.9932 318.126 99.6767 317.154 121.563C316.183 143.449 283.294 176.45 252.128 182.905C233.73 186.768 214.969 188.91 196.112 189.303Z" fill="#EBFFF5"/>
<mask id="mask0_4962_46020" style="mask-type:alpha" maskUnits="userSpaceOnUse" x="131" y="71" width="81" height="81">
<rect x="131" y="71.0002" width="80" height="80" fill="#0CE87E"/>
</mask>
<g mask="url(#mask0_4962_46020)">
<path d="M159.746 146L153.412 135.25L141.08 132.584L142.412 120.334L134.33 111L142.412 101.75L141.08 89.4162L153.412 86.8342L159.746 76.0002L170.996 81.0842L182.246 76.0002L188.58 86.8342L200.912 89.4162L199.58 101.75L207.662 111L199.58 120.334L200.912 132.584L188.58 135.25L182.246 146L170.996 140.916L159.746 146ZM162.246 138.75L170.996 135.084L179.996 138.75L185.246 130.584L194.83 128.166L193.912 118.416L200.412 111L193.912 103.416L194.83 93.6662L185.246 91.4162L179.83 83.2502L170.996 86.9162L161.996 83.2502L156.746 91.4162L147.162 93.6662L148.08 103.416L141.58 111L148.08 118.416L147.162 128.334L156.746 130.584L162.246 138.75ZM167.412 122.334L186.33 103.584L182.246 99.6662L167.412 114.416L159.746 106.584L155.662 110.584L167.412 122.334Z" fill="#0CE87E"/>
</g>
<circle cx="25.8139" cy="64.8847" r="5.89861" fill="#0CE87E"/>
<circle cx="125.435" cy="19.0066" r="5.89861" fill="#0CE87E"/>
<circle cx="137.232" cy="205.141" r="5.89861" fill="#0CE87E"/>
<circle cx="244.718" cy="90.4454" r="5.89861" fill="#0CE87E"/>
<circle cx="256.187" cy="16.7127" r="2.2939" fill="#0CE87E"/>
<circle cx="79.8845" cy="46.8612" r="2.2939" fill="#0CE87E"/>
<circle cx="345.322" cy="42.2734" r="2.2939" fill="#0CE87E"/>
<circle cx="34.0064" cy="196.948" r="2.2939" fill="#0CE87E"/>
<circle cx="53.6685" cy="117.644" r="2.2939" fill="#0CE87E"/>
<circle cx="289.613" cy="177.286" r="2.2939" fill="#0CE87E"/>
<circle cx="337.13" cy="164.506" r="5.89861" fill="#0CE87E"/>
</svg>
