<svg width="276" height="187" viewBox="0 0 276 187" fill="none" xmlns="http://www.w3.org/2000/svg">
<circle cx="190.5" cy="92.5" r="85.5" fill="#F5F5F5"/>
<path d="M205.867 82.8587L6.86689 2.76383C3.58115 1.44136 0 3.86033 0 7.40223V179.578C0 183.125 3.59106 185.544 6.87844 184.212L205.878 103.541C207.765 102.776 209 100.943 209 98.9068V87.4971C209 85.4565 207.76 83.6206 205.867 82.8587Z" fill="#F5F5F5"/>
<mask id="mask0_4962_41807" style="mask-type:alpha" maskUnits="userSpaceOnUse" x="98" y="58" width="13" height="112">
<rect x="98.4111" y="58.4677" width="12.0819" height="111.154" fill="#D2D5D9"/>
</mask>
<g mask="url(#mask0_4962_41807)">
<circle cx="104.331" cy="94.1892" r="75.1893" fill="#D2D5D9"/>
</g>
<rect x="75.0506" y="51.3151" width="58.0314" height="84.3797" rx="3.8548" fill="white" stroke="white" stroke-width="2.56987"/>
<path d="M100.769 86.2171C102.231 83.6389 105.888 83.6389 107.35 86.2171L113.425 96.9264C114.888 99.5046 113.06 102.727 110.135 102.727H97.9842C95.0591 102.727 93.2309 99.5046 94.6935 96.9264L100.769 86.2171Z" fill="#0050FF"/>
<rect x="150.333" y="67.2039" width="36.6624" height="52.6026" rx="3.10943" fill="white"/>
<path d="M166.672 89.0962C167.557 87.5364 169.769 87.5364 170.654 89.0962L174.329 95.5751C175.214 97.1348 174.108 99.0845 172.338 99.0845H164.988C163.218 99.0845 162.112 97.1348 162.997 95.5751L166.672 89.0962Z" fill="#0050FF" fill-opacity="0.2"/>
<rect x="20.8809" y="67.2039" width="36.6624" height="52.6026" rx="3.10943" fill="white"/>
<path d="M37.2202 89.0962C38.105 87.5364 40.317 87.5364 41.2018 89.0962L44.8771 95.5751C45.7619 97.1348 44.6559 99.0845 42.8863 99.0845H35.5356C33.766 99.0845 32.66 97.1348 33.5448 95.5751L37.2202 89.0962Z" fill="#0050FF" fill-opacity="0.2"/>
<mask id="mask1_4962_41807" style="mask-type:alpha" maskUnits="userSpaceOnUse" x="205" y="63" width="54" height="54">
<rect x="205" y="63" width="54" height="54" fill="#D2D5D9"/>
</mask>
<g mask="url(#mask1_4962_41807)">
<path d="M211.75 108C210.513 108 209.454 107.56 208.573 106.679C207.691 105.797 207.25 104.737 207.25 103.5C207.25 102.263 207.691 101.203 208.573 100.321C209.454 99.4403 210.513 99 211.75 99H212.342C212.51 99 212.688 99.0375 212.875 99.1125L223.113 88.875C223.038 88.6875 223 88.509 223 88.3395V87.75C223 86.5125 223.441 85.4528 224.323 84.5707C225.204 83.6902 226.263 83.25 227.5 83.25C228.737 83.25 229.797 83.6902 230.679 84.5707C231.56 85.4528 232 86.5125 232 87.75C232 87.825 231.962 88.2 231.887 88.875L237.625 94.6125C237.812 94.5375 237.991 94.5 238.16 94.5H239.34C239.509 94.5 239.688 94.5375 239.875 94.6125L247.862 86.625C247.787 86.4375 247.75 86.259 247.75 86.0895V85.5C247.75 84.2625 248.19 83.2028 249.071 82.3207C249.953 81.4402 251.013 81 252.25 81C253.487 81 254.547 81.4402 255.429 82.3207C256.31 83.2028 256.75 84.2625 256.75 85.5C256.75 86.7375 256.31 87.7965 255.429 88.677C254.547 89.559 253.487 90 252.25 90H251.661C251.491 90 251.312 89.9625 251.125 89.8875L243.138 97.875C243.213 98.0625 243.25 98.241 243.25 98.4105V99C243.25 100.237 242.81 101.297 241.929 102.179C241.047 103.06 239.987 103.5 238.75 103.5C237.513 103.5 236.454 103.06 235.573 102.179C234.691 101.297 234.25 100.237 234.25 99V98.4105C234.25 98.241 234.288 98.0625 234.363 97.875L228.625 92.1375C228.438 92.2125 228.259 92.25 228.09 92.25H227.5C227.425 92.25 227.05 92.2125 226.375 92.1375L216.137 102.375C216.212 102.562 216.25 102.741 216.25 102.911V103.5C216.25 104.737 215.809 105.797 214.927 106.679C214.047 107.56 212.988 108 211.75 108ZM214 85.4438L212.594 82.4062L209.556 81L212.594 79.5938L214 76.5563L215.406 79.5938L218.444 81L215.406 82.4062L214 85.4438ZM238.75 83.25L236.613 78.6375L232 76.5L236.613 74.3625L238.75 69.75L240.888 74.3625L245.5 76.5L240.888 78.6375L238.75 83.25Z" fill="#D2D5D9"/>
</g>
</svg>
