<svg width="348" height="224" viewBox="0 0 348 224" fill="none" xmlns="http://www.w3.org/2000/svg">
<path d="M189.405 191.652L189.405 191.652L189.394 191.65C175.421 189.752 140.389 184.865 104.828 176.828C87.0464 172.809 69.1412 168.005 53.6737 162.396C38.1957 156.783 25.2009 150.378 17.2061 143.178C9.24009 136.004 6.77665 128.299 7.93361 120.589C9.09555 112.846 13.9185 105.036 20.6599 97.7161C34.1397 83.0786 55.1388 70.557 69.0876 64.6299C70.2153 64.1507 71.3728 63.6578 72.5576 63.1533C86.07 57.3993 103.156 50.1233 120.545 44.2507C139.467 37.8599 158.698 33.149 174.039 33.848C189.404 34.5481 209.437 39.3244 229.411 46.7424C249.382 54.1596 269.261 64.2059 284.321 75.425C299.366 86.6337 310.389 100.705 317.079 114.483C323.775 128.27 326.113 141.72 323.859 151.695C322.739 156.646 319.495 161.903 314.705 167.016C309.919 172.125 303.613 177.066 296.414 181.387C282.011 190.033 264.086 196.17 247.702 196.24L247.701 196.24C228.268 196.371 208.742 194.834 189.405 191.652Z" stroke="#0CE87E" stroke-width="0.804179"/>
<path d="M196.112 189.303C169.023 190.705 60.1575 195.8 24.8441 171.775C-10.4693 147.749 36.4222 97.1026 60.9276 79.3797C85.433 61.6568 125.91 31.6244 155.34 27.1802C184.771 22.736 234.544 31.7396 266.862 49.3668C299.181 66.994 318.126 99.6775 317.154 121.564C316.183 143.45 283.294 176.451 252.128 182.906C233.73 186.769 214.969 188.911 196.112 189.303Z" fill="#EBFFF5"/>
<mask id="mask0_8546_95436" style="mask-type:alpha" maskUnits="userSpaceOnUse" x="131" y="71" width="80" height="80">
<rect x="131" y="71" width="80" height="80" fill="#0CE87E"/>
</mask>
<g mask="url(#mask0_8546_95436)">
<path d="M159.744 146L153.41 135.25L141.078 132.584L142.41 120.334L134.328 111L142.41 101.75L141.078 89.416L153.41 86.834L159.744 76L170.994 81.084L182.244 76L188.578 86.834L200.91 89.416L199.578 101.75L207.66 111L199.578 120.334L200.91 132.584L188.578 135.25L182.244 146L170.994 140.916L159.744 146ZM162.244 138.75L170.994 135.084L179.994 138.75L185.244 130.584L194.828 128.166L193.91 118.416L200.41 111L193.91 103.416L194.828 93.666L185.244 91.416L179.828 83.25L170.994 86.916L161.994 83.25L156.744 91.416L147.16 93.666L148.078 103.416L141.578 111L148.078 118.416L147.16 128.334L156.744 130.584L162.244 138.75ZM167.41 122.334L186.328 103.584L182.244 99.666L167.41 114.416L159.744 106.584L155.66 110.584L167.41 122.334Z" fill="#0CE87E"/>
</g>
<circle cx="25.8127" cy="64.883" r="5.89861" fill="#0CE87E"/>
<circle cx="125.438" cy="19.008" r="5.89861" fill="#0CE87E"/>
<circle cx="137.235" cy="205.141" r="5.89861" fill="#0CE87E"/>
<circle cx="244.719" cy="90.4455" r="5.89861" fill="#0CE87E"/>
<circle cx="256.185" cy="16.7158" r="2.2939" fill="#0CE87E"/>
<circle cx="79.8877" cy="46.8642" r="2.2939" fill="#0CE87E"/>
<circle cx="345.325" cy="42.2705" r="2.2939" fill="#0CE87E"/>
<circle cx="34.0048" cy="196.95" r="2.2939" fill="#0CE87E"/>
<circle cx="53.6689" cy="117.645" r="2.2939" fill="#0CE87E"/>
<circle cx="289.614" cy="177.286" r="2.2939" fill="#0CE87E"/>
<circle cx="337.133" cy="164.508" r="5.89861" fill="#0CE87E"/>
</svg>
