<svg width="16" height="16" viewBox="0 0 16 16" fill="none" xmlns="http://www.w3.org/2000/svg">
<path d="M2 15.5C1.58333 15.5 1.22933 15.354 0.938 15.062C0.646 14.7707 0.5 14.4167 0.5 14V7C0.5 6.58333 0.646 6.22933 0.938 5.938C1.22933 5.646 1.58333 5.5 2 5.5C2.41667 5.5 2.77067 5.646 3.062 5.938C3.354 6.22933 3.5 6.58333 3.5 7V14C3.5 14.4167 3.354 14.7707 3.062 15.062C2.77067 15.354 2.41667 15.5 2 15.5ZM8 15.5C7.58333 15.5 7.22933 15.354 6.938 15.062C6.646 14.7707 6.5 14.4167 6.5 14V2C6.5 1.58333 6.646 1.22933 6.938 0.938C7.22933 0.646 7.58333 0.5 8 0.5C8.41667 0.5 8.77067 0.646 9.062 0.938C9.354 1.22933 9.5 1.58333 9.5 2V14C9.5 14.4167 9.354 14.7707 9.062 15.062C8.77067 15.354 8.41667 15.5 8 15.5ZM14 15.5C13.5833 15.5 13.2293 15.354 12.938 15.062C12.646 14.7707 12.5 14.4167 12.5 14V11C12.5 10.5833 12.646 10.2293 12.938 9.938C13.2293 9.646 13.5833 9.5 14 9.5C14.4167 9.5 14.7707 9.646 15.062 9.938C15.354 10.2293 15.5 10.5833 15.5 11V14C15.5 14.4167 15.354 14.7707 15.062 15.062C14.7707 15.354 14.4167 15.5 14 15.5Z" fill="#1C1B1F"/>
</svg>
