<svg width="18" height="18" viewBox="0 0 18 18" fill="none" xmlns="http://www.w3.org/2000/svg">
<path d="M9 15C9.35 15 9.64567 14.879 9.887 14.637C10.129 14.3957 10.25 14.1 10.25 13.75C10.25 13.4 10.129 13.1043 9.887 12.863C9.64567 12.621 9.35 12.5 9 12.5C8.65 12.5 8.35433 12.621 8.113 12.863C7.871 13.1043 7.75 13.4 7.75 13.75C7.75 14.1 7.871 14.3957 8.113 14.637C8.35433 14.879 8.65 15 9 15ZM8.1 11.15H9.95C9.95 10.55 10.0167 10.1083 10.15 9.825C10.2833 9.54167 10.5667 9.18333 11 8.75C11.5833 8.16667 11.996 7.679 12.238 7.287C12.4793 6.89567 12.6 6.45 12.6 5.95C12.6 5.06667 12.3 4.354 11.7 3.812C11.1 3.27067 10.2917 3 9.275 3C8.35833 3 7.57933 3.225 6.938 3.675C6.296 4.125 5.85 4.75 5.6 5.55L7.25 6.2C7.36667 5.75 7.6 5.38733 7.95 5.112C8.3 4.83733 8.70833 4.7 9.175 4.7C9.625 4.7 10 4.82067 10.3 5.062C10.6 5.304 10.75 5.625 10.75 6.025C10.75 6.30833 10.6583 6.60833 10.475 6.925C10.2917 7.24167 9.98333 7.59167 9.55 7.975C9 8.45833 8.621 8.92067 8.413 9.362C8.20433 9.804 8.1 10.4 8.1 11.15ZM2 18C1.45 18 0.979 17.8043 0.587 17.413C0.195667 17.021 0 16.55 0 16V2C0 1.45 0.195667 0.979 0.587 0.587C0.979 0.195667 1.45 0 2 0H16C16.55 0 17.021 0.195667 17.413 0.587C17.8043 0.979 18 1.45 18 2V16C18 16.55 17.8043 17.021 17.413 17.413C17.021 17.8043 16.55 18 16 18H2ZM2 16H16V2H2V16Z" fill="#1C1B1F"/>
<path d="M7.08159 3.87965L7.08149 3.87972C6.5471 4.25429 6.1578 4.75982 5.91419 5.40507L7.09335 5.86959C7.23915 5.48875 7.4733 5.16892 7.79543 4.91551L7.79566 4.91533C8.19195 4.60434 8.65531 4.45 9.175 4.45C9.67194 4.45 10.105 4.58431 10.4567 4.86721L10.457 4.86742C10.8183 5.15891 11 5.55271 11 6.025C11 6.36335 10.8904 6.70637 10.6914 7.05026C10.4891 7.39965 10.1588 7.7702 9.71564 8.16225L9.71503 8.16279C9.17906 8.63379 8.82712 9.06973 8.63914 9.46858L8.63907 9.46873C8.47423 9.8179 8.37517 10.2911 8.3542 10.9H9.70401C9.72046 10.4066 9.78839 10.0063 9.92379 9.71855C10.0762 9.39462 10.3852 9.01129 10.8232 8.57322C11.4018 7.9947 11.7984 7.52317 12.0252 7.15577L7.08159 3.87965ZM7.08159 3.87965C7.67406 3.46394 8.40073 3.25 9.275 3.25C10.2464 3.25 10.9894 3.50763 11.5325 3.99762C12.0748 4.48751 12.35 5.13012 12.35 5.95C12.35 6.40781 12.2401 6.80724 12.0253 7.15567L7.08159 3.87965ZM9.71047 14.46L9.70998 14.4605C9.5168 14.6542 9.28537 14.75 9 14.75C8.71463 14.75 8.4832 14.6542 8.29002 14.4605L8.28953 14.46C8.09582 14.2668 8 14.0354 8 13.75C8 13.4646 8.09582 13.2332 8.28953 13.04L8.29002 13.0395C8.4832 12.8458 8.71463 12.75 9 12.75C9.28537 12.75 9.5168 12.8458 9.70998 13.0395L9.71047 13.04C9.90418 13.2332 10 13.4646 10 13.75C10 14.0354 9.90418 14.2668 9.71047 14.46ZM1.75 16V16.25H2H16H16.25V16V2V1.75H16H2H1.75V2V16ZM2 17.75C1.5168 17.75 1.1092 17.581 0.763714 17.2362C0.418942 16.8907 0.25 16.4831 0.25 16V2C0.25 1.51683 0.418963 1.10925 0.763777 0.763777C1.10925 0.418963 1.51683 0.25 2 0.25H16C16.4831 0.25 16.8907 0.418944 17.2362 0.763717C17.581 1.1092 17.75 1.5168 17.75 2V16C17.75 16.4832 17.581 16.8908 17.2362 17.2362C16.8908 17.581 16.4832 17.75 16 17.75H2Z" stroke="black" stroke-opacity="0.08" stroke-width="0.5"/>
</svg>
