<svg width="16" height="20" viewBox="0 0 16 20" fill="none" xmlns="http://www.w3.org/2000/svg">
<path d="M0 17V15H2V8C2 6.61667 2.41667 5.38733 3.25 4.312C4.08333 3.23733 5.16667 2.53333 6.5 2.2V1.5C6.5 1.08333 6.646 0.729333 6.938 0.438C7.22933 0.146 7.58333 0 8 0C8.41667 0 8.77067 0.146 9.062 0.438C9.354 0.729333 9.5 1.08333 9.5 1.5V2.2C10.8333 2.53333 11.9167 3.23733 12.75 4.312C13.5833 5.38733 14 6.61667 14 8V15H16V17H0ZM8 20C7.45 20 6.97933 19.8043 6.588 19.413C6.196 19.021 6 18.55 6 18H10C10 18.55 9.80433 19.021 9.413 19.413C9.021 19.8043 8.55 20 8 20ZM4 15H12V8C12 6.9 11.6083 5.95833 10.825 5.175C10.0417 4.39167 9.1 4 8 4C6.9 4 5.95833 4.39167 5.175 5.175C4.39167 5.95833 4 6.9 4 8V15Z" fill="#1C1B1F"/>
<path d="M15.75 15.25H14H13.75V15V8C13.75 6.67112 13.3512 5.4959 12.5524 4.4652L15.75 15.25ZM15.75 15.25V16.75H0.25V15.25H2H2.25V15V8C2.25 6.6711 2.64885 5.49585 3.44761 4.46514C4.2462 3.4353 5.28106 2.76243 6.56063 2.44254L6.75 2.39519V2.2V1.5C6.75 1.14898 6.87012 0.858879 7.11457 0.614979L7.11498 0.614574C7.35888 0.370116 7.64898 0.25 8 0.25C8.35102 0.25 8.64112 0.370116 8.88502 0.614575L8.88543 0.614979C9.12988 0.858879 9.25 1.14898 9.25 1.5V2.2V2.39519L9.43937 2.44254C10.7189 2.76243 11.7538 3.4353 12.5524 4.46514L15.75 15.25ZM3.75 15V15.25H4H12H12.25V15V8C12.25 6.83317 11.8316 5.82807 11.0018 4.99822C10.1719 4.16838 9.16683 3.75 8 3.75C6.83317 3.75 5.82807 4.16838 4.99822 4.99822C4.16838 5.82807 3.75 6.83317 3.75 8V15ZM8 19.75C7.51677 19.75 7.10956 19.581 6.76478 19.2362C6.48053 18.952 6.31558 18.6257 6.26601 18.25H9.73402C9.68455 18.6257 9.51995 18.9519 9.23637 19.2361C8.89087 19.581 8.48324 19.75 8 19.75Z" stroke="black" stroke-opacity="0.08" stroke-width="0.5"/>
</svg>
