<svg width="20" height="20" viewBox="0 0 20 20" fill="none" xmlns="http://www.w3.org/2000/svg">
<mask id="mask0_4962_47862" style="mask-type:alpha" maskUnits="userSpaceOnUse" x="0" y="0" width="20" height="20">
<rect width="20" height="20" fill="#D9D9D9"/>
</mask>
<g mask="url(#mask0_4962_47862)">
<path d="M9.99999 13.729L11.188 11.188L13.729 9.99999L11.188 8.81199L9.99999 6.27099L8.81199 8.81199L6.27099 9.99999L8.81199 11.188L9.99999 13.729ZM4.49999 17.083C4.05533 17.083 3.68033 16.9303 3.37499 16.625C3.06966 16.3197 2.91699 15.9447 2.91699 15.5V4.49999C2.91699 4.05533 3.06966 3.68033 3.37499 3.37499C3.68033 3.06966 4.05533 2.91699 4.49999 2.91699H15.5C15.9447 2.91699 16.3197 3.06966 16.625 3.37499C16.9303 3.68033 17.083 4.05533 17.083 4.49999V15.5C17.083 15.9447 16.9303 16.3197 16.625 16.625C16.3197 16.9303 15.9447 17.083 15.5 17.083H4.49999ZM4.49999 15.75H15.5C15.5693 15.75 15.6283 15.7257 15.677 15.677C15.7257 15.6283 15.75 15.5693 15.75 15.5V4.49999C15.75 4.43066 15.7257 4.37166 15.677 4.32299C15.6283 4.27433 15.5693 4.24999 15.5 4.24999H4.49999C4.43066 4.24999 4.37166 4.27433 4.32299 4.32299C4.27433 4.37166 4.24999 4.43066 4.24999 4.49999V15.5C4.24999 15.5693 4.27433 15.6283 4.32299 15.677C4.37166 15.7257 4.43066 15.75 4.49999 15.75Z" fill="#1C1B1F"/>
</g>
</svg>
