<svg width="525" height="371" viewBox="0 0 525 371" fill="none" xmlns="http://www.w3.org/2000/svg">
<path d="M300.028 319.016C258.695 321.154 92.5903 328.929 38.7097 292.272C-15.1709 255.614 56.3754 178.338 93.7653 151.297C131.155 124.255 192.914 78.4324 237.819 71.6515C282.723 64.8706 358.666 78.6081 407.977 105.503C457.288 132.399 486.194 182.267 484.712 215.66C483.23 249.054 433.048 299.406 385.495 309.256C357.425 315.149 328.799 318.418 300.028 319.016Z" fill="#EBF1FF"/>
<path d="M289.801 322.599L289.792 322.597L289.784 322.596C268.464 319.7 215.014 312.243 160.754 299.98C133.624 293.849 106.305 286.518 82.7047 277.96C59.0887 269.396 39.2614 259.625 27.0631 248.639C14.9087 237.692 11.15 225.936 12.9153 214.172C14.6882 202.358 22.0469 190.443 32.3329 179.273C52.9 156.94 84.9401 137.834 106.223 128.791C107.944 128.06 109.71 127.308 111.518 126.538C132.135 117.758 158.205 106.657 184.735 97.6967C213.607 87.9456 242.948 80.7579 266.356 81.8245C289.799 82.8926 320.366 90.1802 350.841 101.498C381.313 112.815 411.644 128.144 434.622 145.262C457.579 162.364 474.396 183.834 484.604 204.855C494.82 225.892 498.388 246.413 494.948 261.633C493.241 269.188 488.29 277.208 480.981 285.01C473.679 292.805 464.057 300.343 453.073 306.937C431.098 320.129 403.748 329.493 378.75 329.6L378.748 329.6C349.098 329.799 319.306 327.454 289.801 322.599Z" stroke="#135DFF" stroke-width="1.227"/>
<circle cx="40.1895" cy="129.18" r="9" fill="#135DFF"/>
<circle cx="192.189" cy="59.1797" r="9" fill="#135DFF"/>
<circle cx="210.189" cy="343.18" r="9" fill="#135DFF"/>
<circle cx="374.189" cy="168.18" r="9" fill="#135DFF"/>
<circle cx="391.689" cy="55.6797" r="3.5" fill="#135DFF"/>
<circle cx="122.689" cy="101.68" r="3.5" fill="#135DFF"/>
<circle cx="52.6895" cy="330.68" r="3.5" fill="#135DFF"/>
<circle cx="82.6895" cy="209.68" r="3.5" fill="#135DFF"/>
<circle cx="442.689" cy="300.68" r="3.5" fill="#135DFF"/>
<circle cx="515.189" cy="281.18" r="9" fill="#135DFF"/>
<path d="M179.557 102.044C227.337 48.0587 311.763 48.6204 358.82 103.236L444.27 202.41C454.296 214.047 459.811 228.896 459.811 244.256C459.811 279.662 431.108 308.364 395.703 308.364H137.293C99.5204 308.364 69.9725 275.807 73.6239 238.212C74.9512 224.545 80.6405 211.669 89.8508 201.486L168.833 114.16L179.557 102.044Z" fill="#145DFF"/>
<circle cx="222.305" cy="159.432" r="40.6778" fill="white"/>
<circle cx="213.119" cy="159.429" r="19.0267" fill="black"/>
<circle cx="318.095" cy="159.432" r="40.6778" fill="white"/>
<circle cx="305.628" cy="159.429" r="19.0267" fill="black"/>
<path d="M257.733 272.933C257.733 272.933 257.733 253.382 286.344 236.972C314.955 220.563 354.179 222.483 354.179 222.483" stroke="black" stroke-width="8"/>
</svg>
