<svg width="16" height="16" viewBox="0 0 16 16" fill="none" xmlns="http://www.w3.org/2000/svg">
<path d="M9.16525 1.75661L14.1839 5.01876C14.3613 5.13402 14.4499 5.19166 14.5142 5.26854C14.571 5.33659 14.6138 5.41531 14.6398 5.50007C14.6693 5.59584 14.6693 5.70159 14.6693 5.9131V10.8009C14.6693 11.921 14.6693 12.4811 14.4513 12.9089C14.2595 13.2852 13.9536 13.5912 13.5773 13.7829C13.1494 14.0009 12.5894 14.0009 11.4693 14.0009H4.53594C3.41583 14.0009 2.85578 14.0009 2.42796 13.7829C2.05163 13.5912 1.74567 13.2852 1.55392 12.9089C1.33594 12.4811 1.33594 11.921 1.33594 10.8009V5.9131C1.33594 5.70159 1.33594 5.59584 1.36538 5.50007C1.39145 5.41531 1.43417 5.33659 1.49104 5.26854C1.55528 5.19166 1.64395 5.13402 1.82128 5.01876L6.83996 1.75662M9.16525 1.75661C8.74442 1.48308 8.534 1.34631 8.30729 1.29309C8.10689 1.24605 7.89832 1.24605 7.69792 1.29309C7.47121 1.34631 7.26079 1.48308 6.83996 1.75662M9.16525 1.75661L13.9813 4.88706C14.2106 5.03609 14.3252 5.11061 14.3649 5.20511C14.3996 5.28769 14.3996 5.38077 14.3649 5.46335C14.3252 5.55785 14.2106 5.63237 13.9813 5.7814L9.16525 8.91185C8.74442 9.18538 8.534 9.32216 8.30729 9.37537C8.10689 9.42241 7.89832 9.42241 7.69792 9.37537C7.47121 9.32216 7.26079 9.18539 6.83996 8.91185L2.02389 5.7814C1.79461 5.63237 1.67997 5.55785 1.64026 5.46335C1.60556 5.38077 1.60556 5.28769 1.64026 5.20511C1.67997 5.11061 1.79461 5.03609 2.02389 4.88706L6.83996 1.75662" stroke="#60646C" stroke-width="1.5" stroke-linecap="round" stroke-linejoin="round"/>
</svg>
