<svg width="106" height="105" viewBox="0 0 106 105" fill="none" xmlns="http://www.w3.org/2000/svg">
<circle cx="53" cy="52.5" r="52.5" fill="#2E2F33"/>
<circle cx="41.7996" cy="42.7" r="6.3" transform="rotate(180 41.7996 42.7)" fill="#9EA3AA"/>
<rect x="44.5996" y="59.5" width="16.8" height="8.4" fill="#9EA3AA"/>
<circle cx="63.7635" cy="42.7" r="6.3" transform="rotate(180 63.7635 42.7)" fill="#9EA3AA"/>
<path d="M60.5314 13.2768C70.3849 15.1102 79.1946 20.5673 85.2246 28.5731C91.2546 36.5789 94.0677 46.5527 93.1096 56.5294C92.1516 66.5062 87.4918 75.7624 80.0485 82.4743C72.6051 89.1862 62.9179 92.8672 52.8956 92.7918C42.8732 92.7165 33.2425 88.8904 25.9008 82.0674C18.5592 75.2443 14.0391 65.9191 13.2311 55.9291C12.4231 45.9391 15.3858 36.0087 21.5355 28.0944C27.6851 20.1802 36.5758 14.8561 46.4558 13.171L47.804 21.0761C39.9 22.4242 32.7875 26.6835 27.8678 33.0149C22.948 39.3463 20.5779 47.2906 21.2243 55.2826C21.8707 63.2746 25.4867 70.7348 31.36 76.1932C37.2334 81.6516 44.938 84.7125 52.9558 84.7728C60.9737 84.8331 68.7235 81.8883 74.6782 76.5188C80.6329 71.1492 84.3607 63.7443 85.1271 55.7629C85.8936 47.7815 83.6431 39.8024 78.8191 33.3978C73.995 26.9932 66.9473 22.6275 59.0645 21.1608L60.5314 13.2768Z" fill="#9EA3AA"/>
</svg>
