<svg width="20" height="20" viewBox="0 0 20 20" fill="none" xmlns="http://www.w3.org/2000/svg">
    <path d="M11.994 15.0116C12.3514 16.3453 11.5599 17.7161 10.2262 18.0735C8.89258 18.4308 7.52174 17.6394 7.16439 16.3057M9.07779 4.78331C9.3313 4.32722 9.41481 3.77597 9.26909 3.23214C8.97129 2.12076 7.82892 1.46121 6.71754 1.759C5.60615 2.0568 4.9466 3.19917 5.2444 4.31056C5.39012 4.85439 5.73806 5.29003 6.18564 5.55826M13.5314 7.87034C13.234 6.76023 12.4399 5.83193 11.3238 5.28965C10.2078 4.74737 8.86116 4.63554 7.58027 4.97876C6.29937 5.32197 5.1891 6.09212 4.4937 7.11978C3.7983 8.14744 3.57473 9.34842 3.87219 10.4585C4.36433 12.2952 4.26877 13.7606 3.95797 14.874C3.60375 16.1431 3.42664 16.7776 3.47449 16.905C3.52923 17.0508 3.56883 17.0908 3.71402 17.147C3.84093 17.1962 4.37408 17.0533 5.44036 16.7676L15.3279 14.1183C16.3942 13.8326 16.9273 13.6897 17.0127 13.5837C17.1103 13.4624 17.1246 13.4079 17.0991 13.2543C17.0768 13.12 16.6062 12.6591 15.6649 11.7372C14.839 10.9283 14.0236 9.70705 13.5314 7.87034Z" stroke="#9EA3AA" stroke-width="1.5" stroke-linecap="round" stroke-linejoin="round"/>
    </svg>
    