<svg width="14" height="13" viewBox="0 0 14 13" fill="none" xmlns="http://www.w3.org/2000/svg">
<path d="M12.8609 6.90513C13.0237 6.76563 13.105 6.69589 13.1348 6.61289C13.161 6.54004 13.161 6.46035 13.1348 6.3875C13.105 6.3045 13.0237 6.23476 12.8609 6.09526L7.21375 1.25484C6.9336 1.01471 6.79353 0.894646 6.67493 0.891704C6.57186 0.889148 6.47341 0.934428 6.40828 1.01435C6.33333 1.1063 6.33333 1.2908 6.33333 1.65978V4.52328C4.91021 4.77225 3.60773 5.49337 2.63981 6.57611C1.58455 7.75654 1.00082 9.28416 1 10.8675V11.2755C1.69956 10.4328 2.573 9.7512 3.56051 9.27748C4.43113 8.85981 5.37228 8.61241 6.33333 8.54721V11.3406C6.33333 11.7096 6.33333 11.8941 6.40828 11.986C6.47341 12.066 6.57186 12.1112 6.67493 12.1087C6.79353 12.1057 6.9336 11.9857 7.21375 11.7455L12.8609 6.90513Z" stroke="#C4C7CB" stroke-width="1.2" stroke-linecap="round" stroke-linejoin="round"/>
</svg>
