<svg width="1167" height="278" viewBox="0 0 1167 278" fill="none" xmlns="http://www.w3.org/2000/svg">
<rect x="305" y="89.5547" width="338" height="107" rx="53.4031" fill="#FFFCE6"/>
<text fill="#353E52" xml:space="preserve" style="white-space: pre" font-family="Inter" font-size="36.6192" letter-spacing="0em"><tspan x="361" y="156.232">Communities</tspan></text>
<rect y="89.5547" width="210" height="107" rx="53.4031" fill="#FFFCE6"/>
<text fill="#353E52" xml:space="preserve" style="white-space: pre" font-family="Inter" font-size="36.6192" letter-spacing="0em"><tspan x="56" y="156.232">AirQo</tspan></text>
<path d="M252.929 135.555L268 150.626" stroke="black" stroke-width="2"/>
<path d="M268 135.555L252.929 150.626" stroke="black" stroke-width="2"/>
<path d="M704.192 142.555L682.879 142.555" stroke="black" stroke-width="2"/>
<path d="M703.485 134.069L711.971 142.555L703.485 151.04" stroke="black" stroke-width="2"/>
<path d="M984.278 235.397C950.591 237.14 815.217 243.477 771.305 213.601C727.392 183.725 785.702 120.745 816.175 98.7068C846.647 76.6683 896.981 39.3229 933.577 33.7965C970.174 28.2702 1032.07 39.4662 1072.26 61.3856C1112.44 83.3051 1136 123.947 1134.79 151.163C1133.59 178.378 1092.69 219.415 1053.93 227.442C1031.06 232.245 1007.73 234.91 984.278 235.397Z" fill="#FFFCE6"/>
<text fill="#353E52" xml:space="preserve" style="white-space: pre" font-family="Inter" font-size="36.6192" letter-spacing="0em"><tspan x="815" y="156.232">AirQommunities</tspan></text>
<path d="M975.939 238.319L975.925 238.318C958.55 235.957 914.988 229.88 870.767 219.886C848.656 214.889 826.391 208.915 807.157 201.94C787.91 194.96 771.751 186.996 761.809 178.043C751.904 169.121 748.84 159.54 750.279 149.953C751.724 140.324 757.721 130.613 766.104 121.51C782.866 103.308 808.979 87.7378 826.324 80.3675C827.727 79.7716 829.166 79.1587 830.639 78.5312C847.442 71.3761 868.689 62.3285 890.311 55.0259C913.842 47.0789 937.754 41.2209 956.832 42.0902C975.938 42.9607 1000.85 48.9 1025.69 58.1244C1050.52 67.3476 1075.24 79.8403 1093.97 93.7912C1112.68 107.729 1126.38 125.227 1134.7 142.36C1143.03 159.504 1145.94 176.229 1143.13 188.633C1141.74 194.79 1137.71 201.327 1131.75 207.685C1125.8 214.038 1117.96 220.182 1109.01 225.556C1091.1 236.307 1068.8 243.939 1048.43 244.025L1048.43 244.025C1024.27 244.188 999.986 242.277 975.939 238.319Z" stroke="black"/>
</svg>
