<svg width="32" height="32" viewBox="0 0 32 32" fill="none" xmlns="http://www.w3.org/2000/svg">
<rect width="32" height="32" rx="16" fill="#EBEBFE"/>
<path d="M11.6505 22.8752H8.38516V12.9441H11.6505V22.8752ZM10.0161 11.5894C8.97191 11.5894 8.125 10.7726 8.125 9.78648C8.125 9.31281 8.32424 8.85853 8.67888 8.52359C9.03352 8.18866 9.51452 8.00049 10.0161 8.00049C10.5176 8.00049 10.9986 8.18866 11.3532 8.52359C11.7079 8.85853 11.9071 9.31281 11.9071 9.78648C11.9071 10.7726 11.0598 11.5894 10.0161 11.5894ZM23.8715 22.8752H20.6132V18.0408C20.6132 16.8886 20.5886 15.4111 18.9155 15.4111C17.2178 15.4111 16.9577 16.6629 16.9577 17.9578V22.8752H13.6959V12.9441H16.8276V14.2988H16.8733C17.3092 13.5185 18.3741 12.6951 19.9628 12.6951C23.2675 12.6951 23.875 14.7504 23.875 17.4199V22.8752H23.8715Z" fill="#135DFF"/>
</svg>
