<svg width="20" height="21" viewBox="0 0 20 21" fill="none" xmlns="http://www.w3.org/2000/svg">
<path fill-rule="evenodd" clip-rule="evenodd" d="M10.3264 0.709663C10.4861 0.566322 10.6973 0.491187 10.9135 0.500825C15.4843 0.637655 19.3044 3.9558 19.9967 8.39063C20.0011 8.41711 20.0011 8.44411 19.9967 8.47059C20.0116 8.68043 19.9407 8.88745 19.7996 9.04585C19.6586 9.20425 19.459 9.30099 19.2451 9.31466L11.5656 9.8211C11.3116 9.84362 11.0597 9.76005 10.8718 9.59092C10.6839 9.42179 10.5774 9.18278 10.5785 8.93261L10.0623 1.38932V1.26493C10.0717 1.05278 10.1667 0.853003 10.3264 0.709663ZM9.79965 11.7936L16.4558 11.3671L16.5011 11.3848C16.7869 11.3895 17.0591 11.5054 17.2579 11.707C17.4566 11.9087 17.5655 12.1795 17.5606 12.4599C17.2984 16.282 14.4962 19.4755 10.6828 20.2982C6.86938 21.121 2.96017 19.3754 1.08778 16.0139C0.537217 15.0457 0.189303 13.9794 0.064454 12.8775C0.0160313 12.551 -0.0051696 12.2212 0.00106199 11.8913C0.0136824 7.82706 2.90728 4.31907 6.95607 3.4595C7.4462 3.36776 7.93762 3.61248 8.15146 4.05479C8.20469 4.13505 8.2473 4.22164 8.27824 4.31245C8.35414 5.48405 8.43287 6.64455 8.51126 7.80015C8.57318 8.71277 8.63488 9.62233 8.69482 10.5319C8.69173 10.7462 8.7254 10.9594 8.79444 11.1627C8.95695 11.5627 9.36136 11.8165 9.79965 11.7936Z" fill="#135DFF"/>
</svg>
