<svg width="327" height="194" viewBox="0 0 327 194" fill="none" xmlns="http://www.w3.org/2000/svg">
<circle cx="229.655" cy="96.6553" r="96.6553" fill="#F5F5F5" fill-opacity="0.5"/>
<circle cx="96.6553" cy="96.6553" r="96.6553" fill="#F5F5F5" fill-opacity="0.5"/>
<circle cx="163.266" cy="91.8122" r="75.1228" fill="#F5F5F5"/>
<mask id="mask0_4962_41731" style="mask-type:alpha" maskUnits="userSpaceOnUse" x="157" y="56" width="13" height="112">
<rect x="157.411" y="56.1571" width="12.0819" height="111.154" fill="#D2D5D9"/>
</mask>
<g mask="url(#mask0_4962_41731)">
<circle cx="163.331" cy="91.8786" r="75.1893" fill="#D2D5D9"/>
</g>
<rect x="134.051" y="49.0045" width="58.0314" height="84.3797" rx="3.8548" fill="white" stroke="white" stroke-width="2.56987"/>
<path d="M159.769 83.9065C161.231 81.3284 164.888 81.3284 166.35 83.9065L172.425 94.6159C173.888 97.194 172.06 100.417 169.135 100.417H156.984C154.059 100.417 152.231 97.194 153.693 94.6159L159.769 83.9065Z" fill="#0050FF"/>
<rect x="209.333" y="64.8933" width="36.6624" height="52.6026" rx="3.10943" fill="white"/>
<path d="M225.672 86.7856C226.557 85.2259 228.769 85.2259 229.654 86.7856L233.329 93.2646C234.214 94.8243 233.108 96.774 231.338 96.774H223.988C222.218 96.774 221.112 94.8243 221.997 93.2646L225.672 86.7856Z" fill="#0050FF" fill-opacity="0.2"/>
<rect x="79.8809" y="64.8933" width="36.6624" height="52.6026" rx="3.10943" fill="white"/>
<path d="M96.2202 86.7856C97.105 85.2259 99.317 85.2259 100.202 86.7856L103.877 93.2646C104.762 94.8243 103.656 96.774 101.886 96.774H94.5356C92.766 96.774 91.66 94.8243 92.5448 93.2646L96.2202 86.7856Z" fill="#0050FF" fill-opacity="0.2"/>
</svg>
