<svg width="171" height="159" viewBox="0 0 171 159" fill="none" xmlns="http://www.w3.org/2000/svg">
    <mask id="mask0_8064_74266" style="mask-type:alpha" maskUnits="userSpaceOnUse" x="79" y="20" width="14" height="139">
    <rect x="79.8223" y="20.9062" width="12.4137" height="138.093" fill="#545454"/>
    </mask>
    <g mask="url(#mask0_8064_74266)">
    <ellipse cx="85.9048" cy="65.2855" rx="77.2544" ry="93.4124" fill="#545454"/>
    </g>
    <mask id="mask1_8064_74266" style="mask-type:alpha" maskUnits="userSpaceOnUse" x="12" y="21" width="13" height="96">
    <rect x="12.3135" y="21.9453" width="12.4137" height="94.2251" fill="#545454"/>
    </mask>
    <g mask="url(#mask1_8064_74266)">
    <ellipse cx="18.396" cy="52.2264" rx="77.2544" ry="63.7381" fill="#545454"/>
    </g>
    <mask id="mask2_8064_74266" style="mask-type:alpha" maskUnits="userSpaceOnUse" x="145" y="21" width="14" height="96">
    <rect x="145.696" y="21.9453" width="12.4137" height="94.2251" fill="#545454"/>
    </mask>
    <g mask="url(#mask2_8064_74266)">
    <ellipse cx="151.779" cy="52.2264" rx="77.2544" ry="63.7381" fill="#545454"/>
    </g>
    <rect x="55.8202" y="1.32022" width="59.6252" height="86.6972" rx="3.96067" fill="#2E2F33" stroke="#2E2F33" stroke-width="2.64045"/>
    <path d="M82.2445 37.1801C83.7472 34.5311 87.504 34.5311 89.0067 37.1801L95.2488 48.1836C96.7515 50.8325 94.8731 54.1438 91.8677 54.1438H79.3836C76.3782 54.1438 74.4998 50.8325 76.0025 48.1836L82.2445 37.1801Z" fill="#0050FF"/>
    <rect x="133.17" y="18" width="37.6693" height="54.0473" rx="3.19483" fill="#2E2F33"/>
    <path d="M149.959 40.4939C150.868 38.8913 153.14 38.8913 154.05 40.4939L157.826 47.1508C158.735 48.7534 157.599 50.7566 155.78 50.7566H148.228C146.41 50.7566 145.273 48.7534 146.182 47.1508L149.959 40.4939Z" fill="#0050FF" fill-opacity="0.2"/>
    <rect x="0.161133" y="17.6445" width="37.6693" height="54.0473" rx="3.19483" fill="#2E2F33"/>
    <path d="M16.9498 40.1385C17.8589 38.5359 20.1316 38.5359 21.0407 40.1385L24.817 46.7953C25.7261 48.3979 24.5898 50.4011 22.7715 50.4011H15.219C13.4008 50.4011 12.2644 48.3979 13.1735 46.7953L16.9498 40.1385Z" fill="#0050FF" fill-opacity="0.2"/>
    </svg>
    