<svg width="238" height="166" viewBox="0 0 238 166" fill="none" xmlns="http://www.w3.org/2000/svg">
<path d="M146.972 41.7685C146.972 44.1532 145.319 45.8682 143.103 45.8682C140.887 45.8682 139.236 44.1463 139.236 41.7685C139.236 39.3906 140.889 37.6687 143.103 37.6687C145.317 37.6687 146.972 39.4202 146.972 41.7685ZM126.409 37.6687C124.282 37.6687 122.747 39.3906 122.747 41.7685C122.747 44.1463 124.282 45.8682 126.409 45.8682C128.445 45.8682 129.921 44.1463 129.921 41.7685C129.921 39.3906 128.445 37.6687 126.409 37.6687ZM93.7055 37.6687C91.5806 37.6687 90.0438 39.4202 90.0438 41.7685C90.0438 44.1167 91.5806 45.8682 93.7055 45.8682C95.7435 45.8682 97.2202 44.1759 97.2202 41.7685C97.2202 39.4111 95.7435 37.6687 93.7055 37.6687ZM145.236 56.1404H91.8145C80.2948 56.1404 74.2477 42.1602 81.9965 33.4437L107.165 5.13499C108.603 3.51758 110.356 2.22532 112.311 1.34105C114.267 0.456778 116.381 0 118.519 0C120.657 0 122.771 0.456778 124.726 1.34105C126.681 2.22532 128.434 3.51758 129.872 5.13499L155.041 33.4437C162.792 42.1602 156.745 56.1404 145.225 56.1404H145.236ZM101.169 34.2181H97.3093V36.0607C96.2468 34.6099 94.4137 33.9152 92.7032 33.9152C88.6272 33.9152 86.0213 37.4182 86.0213 41.7685C86.0213 46.1188 88.6205 49.6195 92.7032 49.6195C94.416 49.6195 96.2669 48.9544 97.3093 47.5058V49.3279H101.169V34.2181ZM107.207 34.2181H103.258V49.3188H107.216L107.207 34.2181ZM107.57 29.9954C107.569 29.355 107.319 28.7414 106.876 28.2886C106.434 27.8358 105.833 27.5806 105.207 27.5788C104.586 27.5872 103.993 27.8455 103.556 28.2978C103.12 28.7501 102.875 29.3599 102.875 29.9954C102.882 30.6258 103.129 31.2286 103.565 31.6744C104.001 32.1202 104.591 32.3735 105.207 32.3801C105.829 32.3801 106.425 32.1299 106.867 31.6836C107.31 31.2372 107.562 30.6307 107.57 29.9954ZM118.014 33.9334C115.001 34.0655 113.582 35.9286 113.183 37.1221V34.2249H109.283V49.3234H113.241V43.5268C113.241 40.0534 114.818 38.4477 118.014 38.3406V33.9334ZM133.879 34.2227H130.124V36.0448C129.031 34.5939 127.171 33.9289 125.4 33.9289C121.324 33.9289 118.718 37.4319 118.718 41.7502C118.718 46.1301 121.378 49.6331 125.451 49.6331C127.164 49.6331 128.848 48.9499 129.906 47.6106V53.1612L133.864 52.1499L133.879 34.2227ZM151.019 41.773C151.019 37.3931 147.533 33.9197 143.103 33.9197C138.871 33.9197 135.218 37.3931 135.218 41.773C135.218 46.1529 138.704 49.624 143.103 49.624C147.502 49.624 151.019 46.1506 151.019 41.773Z" fill="#145FFF"/>
<path d="M103.258 34.2184H107.207L107.216 49.3191H103.258V34.2184Z" fill="#F3F6F8"/>
<path d="M106.876 28.2889C107.319 28.7417 107.568 29.3553 107.57 29.9957C107.562 30.631 107.309 31.2375 106.867 31.6839C106.425 32.1302 105.828 32.3804 105.207 32.3804C104.59 32.3738 104.001 32.1205 103.565 31.6747C103.129 31.2289 102.881 30.6261 102.875 29.9957C102.875 29.3602 103.12 28.7504 103.556 28.2981C103.993 27.8458 104.586 27.5875 105.207 27.5791C105.833 27.5809 106.433 27.8361 106.876 28.2889Z" fill="#F3F6F8"/>
<path d="M113.183 37.1224C113.582 35.9289 115 34.0658 118.014 33.9337V38.3409C114.818 38.448 113.241 40.0537 113.241 43.5271V49.3237H109.283V34.2252H113.183V37.1224Z" fill="#F3F6F8"/>
<path fill-rule="evenodd" clip-rule="evenodd" d="M151.019 41.7732C151.019 37.3933 147.534 33.9199 143.103 33.9199C138.872 33.9199 135.219 37.3933 135.219 41.7732C135.219 46.1531 138.704 49.6242 143.103 49.6242C147.502 49.6242 151.019 46.1508 151.019 41.7732ZM146.972 41.7687C146.972 44.1533 145.32 45.8684 143.104 45.8684C140.887 45.8684 139.237 44.1465 139.237 41.7687C139.237 39.3908 140.89 37.6689 143.104 37.6689C145.317 37.6689 146.972 39.4204 146.972 41.7687Z" fill="#F3F6F8"/>
<path fill-rule="evenodd" clip-rule="evenodd" d="M101.167 34.218H97.3075V36.0606C96.2451 34.6097 94.412 33.915 92.7015 33.915C88.6255 33.915 86.0195 37.418 86.0195 41.7683C86.0195 46.1186 88.6188 49.6193 92.7015 49.6193C94.4143 49.6193 96.2652 48.9543 97.3075 47.5057V49.3278H101.167V34.218ZM93.7037 37.6689C91.5788 37.6689 90.042 39.4204 90.042 41.7687C90.042 44.1169 91.5788 45.8684 93.7037 45.8684C95.7417 45.8684 97.2184 44.1761 97.2184 41.7687C97.2184 39.4113 95.7417 37.6689 93.7037 37.6689Z" fill="#F3F6F8"/>
<path fill-rule="evenodd" clip-rule="evenodd" d="M133.88 34.2225H130.125V36.0446C129.031 34.5938 127.171 33.9287 125.401 33.9287C121.325 33.9287 118.719 37.4317 118.719 41.7501C118.719 46.13 121.378 49.633 125.452 49.633C127.165 49.633 128.849 48.9497 129.907 47.6105V53.1611L133.864 52.1498L133.88 34.2225ZM126.41 37.6689C124.283 37.6689 122.748 39.3908 122.748 41.7687C122.748 44.1465 124.283 45.8684 126.41 45.8684C128.446 45.8684 129.922 44.1465 129.922 41.7687C129.922 39.3908 128.446 37.6689 126.41 37.6689Z" fill="#F3F6F8"/>
<path opacity="0.5" d="M91.8668 94.2992C91.1168 94.2992 90.4483 94.1704 89.8612 93.9129C89.2778 93.6553 88.8138 93.2973 88.4691 92.839C88.1282 92.3769 87.9426 91.8409 87.9123 91.231H89.3441C89.3744 91.606 89.5032 91.9299 89.7305 92.2026C89.9577 92.4716 90.2551 92.6799 90.6225 92.8276C90.9899 92.9754 91.3971 93.0492 91.8441 93.0492C92.3441 93.0492 92.7873 92.9621 93.1737 92.7879C93.56 92.6136 93.863 92.3712 94.0827 92.0606C94.3024 91.75 94.4123 91.3901 94.4123 90.981C94.4123 90.553 94.3062 90.1761 94.0941 89.8504C93.882 89.5208 93.5714 89.2632 93.1623 89.0776C92.7532 88.892 92.2532 88.7992 91.6623 88.7992H90.7305V87.5492H91.6623C92.1244 87.5492 92.5297 87.4659 92.8782 87.2992C93.2305 87.1326 93.5051 86.8977 93.7021 86.5947C93.9028 86.2917 94.0032 85.9356 94.0032 85.5265C94.0032 85.1326 93.9161 84.7898 93.7418 84.4981C93.5676 84.2064 93.3214 83.9792 93.0032 83.8163C92.6888 83.6534 92.3176 83.572 91.8896 83.572C91.488 83.572 91.1093 83.6458 90.7532 83.7935C90.4009 83.9375 90.113 84.1477 89.8896 84.4242C89.6661 84.697 89.5449 85.0265 89.5259 85.4129H88.1623C88.185 84.803 88.3687 84.2689 88.7134 83.8106C89.0581 83.3485 89.5089 82.9886 90.0657 82.731C90.6263 82.4735 91.2418 82.3447 91.9123 82.3447C92.632 82.3447 93.2494 82.4905 93.7646 82.7822C94.2797 83.0701 94.6755 83.4507 94.9521 83.9242C95.2286 84.3977 95.3668 84.9091 95.3668 85.4583C95.3668 86.1136 95.1945 86.6723 94.8498 87.1345C94.5089 87.5966 94.0449 87.9167 93.4577 88.0947V88.1856C94.1926 88.3068 94.7665 88.6193 95.1793 89.1231C95.5922 89.6231 95.7987 90.2424 95.7987 90.981C95.7987 91.6136 95.6263 92.1818 95.2816 92.6856C94.9407 93.1856 94.4748 93.5795 93.8839 93.8674C93.293 94.1553 92.6206 94.2992 91.8668 94.2992ZM98.7631 94.231C98.4828 94.231 98.2423 94.1307 98.0415 93.9299C97.8408 93.7292 97.7404 93.4886 97.7404 93.2083C97.7404 92.928 97.8408 92.6875 98.0415 92.4867C98.2423 92.286 98.4828 92.1856 98.7631 92.1856C99.0434 92.1856 99.284 92.286 99.4847 92.4867C99.6855 92.6875 99.7859 92.928 99.7859 93.2083C99.7859 93.3939 99.7385 93.5644 99.6438 93.7197C99.5529 93.875 99.4298 94 99.2745 94.0947C99.123 94.1856 98.9525 94.231 98.7631 94.231ZM101.897 91.7538V90.5947L107.01 82.5038H107.851V84.2992H107.283L103.419 90.4129V90.5038H110.306V91.7538H101.897ZM107.374 94.1401V91.4015V90.8617V82.5038H108.715V94.1401H107.374ZM116.23 94.2992C115.374 94.2992 114.645 94.0663 114.043 93.6004C113.441 93.1307 112.98 92.4507 112.662 91.5606C112.344 90.6667 112.185 89.5871 112.185 88.322C112.185 87.0644 112.344 85.9905 112.662 85.1004C112.984 84.2064 113.446 83.5246 114.049 83.0549C114.655 82.5814 115.382 82.3447 116.23 82.3447C117.079 82.3447 117.804 82.5814 118.407 83.0549C119.013 83.5246 119.475 84.2064 119.793 85.1004C120.115 85.9905 120.276 87.0644 120.276 88.322C120.276 89.5871 120.117 90.6667 119.799 91.5606C119.48 92.4507 119.02 93.1307 118.418 93.6004C117.816 94.0663 117.087 94.2992 116.23 94.2992ZM116.23 93.0492C117.079 93.0492 117.738 92.6401 118.208 91.822C118.677 91.0038 118.912 89.8371 118.912 88.322C118.912 87.3144 118.804 86.4564 118.588 85.7481C118.376 85.0398 118.069 84.5 117.668 84.1288C117.27 83.7576 116.791 83.572 116.23 83.572C115.39 83.572 114.732 83.9867 114.259 84.8163C113.785 85.642 113.549 86.8106 113.549 88.322C113.549 89.3295 113.655 90.1856 113.867 90.8901C114.079 91.5947 114.384 92.1307 114.782 92.4981C115.183 92.8655 115.666 93.0492 116.23 93.0492ZM123.029 94.231C122.748 94.231 122.508 94.1307 122.307 93.9299C122.106 93.7292 122.006 93.4886 122.006 93.2083C122.006 92.928 122.106 92.6875 122.307 92.4867C122.508 92.286 122.748 92.1856 123.029 92.1856C123.309 92.1856 123.55 92.286 123.75 92.4867C123.951 92.6875 124.051 92.928 124.051 93.2083C124.051 93.3939 124.004 93.5644 123.909 93.7197C123.819 93.875 123.695 94 123.54 94.0947C123.389 94.1856 123.218 94.231 123.029 94.231ZM129.135 82.5038V94.1401H127.726V83.981H127.658L124.817 85.8674V84.4356L127.726 82.5038H129.135ZM132.982 88.322C132.982 86.8901 133.167 85.5738 133.539 84.3731C133.914 83.1685 134.448 82.0606 135.141 81.0492H136.323C136.05 81.4242 135.794 81.8863 135.556 82.4356C135.321 82.981 135.114 83.5814 134.936 84.2367C134.758 84.8882 134.618 85.5625 134.516 86.2595C134.417 86.9564 134.368 87.6439 134.368 88.322C134.368 89.2235 134.455 90.1382 134.63 91.0663C134.804 91.9943 135.039 92.856 135.334 93.6515C135.63 94.447 135.959 95.0947 136.323 95.5947H135.141C134.448 94.5833 133.914 93.4773 133.539 92.2765C133.167 91.072 132.982 89.7538 132.982 88.322ZM142.37 82.5038V94.1401H140.961V83.981H140.892L138.051 85.8674V84.4356L140.961 82.5038H142.37ZM148.603 88.322C148.603 89.7538 148.415 91.072 148.04 92.2765C147.669 93.4773 147.137 94.5833 146.444 95.5947H145.262C145.534 95.2197 145.788 94.7576 146.023 94.2083C146.262 93.6629 146.47 93.0644 146.648 92.4129C146.826 91.7576 146.964 91.0814 147.063 90.3845C147.165 89.6837 147.216 88.9962 147.216 88.322C147.216 87.4204 147.129 86.5057 146.955 85.5776C146.781 84.6496 146.546 83.7879 146.25 82.9924C145.955 82.197 145.625 81.5492 145.262 81.0492H146.444C147.137 82.0606 147.669 83.1685 148.04 84.3731C148.415 85.5738 148.603 86.8901 148.603 88.322Z" fill="#FAFAFA"/>
<path opacity="0.4" d="M83.9329 139.14H82.7681L85.3853 131.867H86.6531L89.2702 139.14H88.1055L86.0494 133.188H85.9925L83.9329 139.14ZM84.1282 136.292H87.9066V137.215H84.1282V136.292ZM92.967 139.14V131.867H95.5593C96.1251 131.867 96.5939 131.97 96.9656 132.176C97.3372 132.382 97.6154 132.664 97.8001 133.022C97.9847 133.377 98.0771 133.777 98.0771 134.222C98.0771 134.669 97.9835 135.072 97.7965 135.429C97.6119 135.784 97.3325 136.066 96.9585 136.274C96.5868 136.48 96.1192 136.583 95.5558 136.583H93.7731V135.653H95.4563C95.8138 135.653 96.1038 135.591 96.3263 135.468C96.5489 135.343 96.7122 135.172 96.8164 134.957C96.9206 134.741 96.9727 134.496 96.9727 134.222C96.9727 133.947 96.9206 133.703 96.8164 133.49C96.7122 133.277 96.5477 133.11 96.3228 132.99C96.1003 132.869 95.8067 132.808 95.4421 132.808H94.0643V139.14H92.967ZM99.3635 139.14V131.867H101.956C102.519 131.867 102.987 131.964 103.358 132.159C103.733 132.353 104.012 132.621 104.197 132.965C104.381 133.306 104.474 133.7 104.474 134.147C104.474 134.592 104.38 134.984 104.193 135.323C104.008 135.659 103.729 135.92 103.355 136.107C102.983 136.294 102.516 136.388 101.952 136.388H99.9885V135.443H101.853C102.208 135.443 102.497 135.393 102.719 135.291C102.944 135.189 103.109 135.041 103.213 134.847C103.317 134.653 103.369 134.419 103.369 134.147C103.369 133.873 103.316 133.635 103.209 133.433C103.105 133.232 102.941 133.078 102.716 132.972C102.493 132.863 102.201 132.808 101.839 132.808H100.461V139.14H99.3635ZM102.954 135.859L104.751 139.14H103.501L101.739 135.859H102.954ZM112.126 135.504C112.126 136.28 111.984 136.948 111.7 137.507C111.416 138.063 111.027 138.491 110.532 138.792C110.039 139.09 109.479 139.24 108.852 139.24C108.222 139.24 107.66 139.09 107.165 138.792C106.673 138.491 106.285 138.062 106.001 137.503C105.716 136.944 105.574 136.278 105.574 135.504C105.574 134.727 105.716 134.061 106.001 133.504C106.285 132.946 106.673 132.517 107.165 132.219C107.66 131.918 108.222 131.768 108.852 131.768C109.479 131.768 110.039 131.918 110.532 132.219C111.027 132.517 111.416 132.946 111.7 133.504C111.984 134.061 112.126 134.727 112.126 135.504ZM111.04 135.504C111.04 134.912 110.944 134.414 110.752 134.009C110.563 133.602 110.302 133.294 109.971 133.085C109.642 132.875 109.269 132.769 108.852 132.769C108.433 132.769 108.059 132.875 107.73 133.085C107.401 133.294 107.14 133.602 106.949 134.009C106.759 134.414 106.665 134.912 106.665 135.504C106.665 136.096 106.759 136.595 106.949 137.002C107.14 137.407 107.401 137.715 107.73 137.926C108.059 138.134 108.433 138.238 108.852 138.238C109.269 138.238 109.642 138.134 109.971 137.926C110.302 137.715 110.563 137.407 110.752 137.002C110.944 136.595 111.04 136.096 111.04 135.504ZM116.321 131.867H117.415V137.024C117.415 137.49 117.322 137.889 117.138 138.22C116.955 138.552 116.699 138.805 116.367 138.98C116.036 139.153 115.647 139.24 115.202 139.24C114.793 139.24 114.425 139.165 114.098 139.016C113.774 138.867 113.517 138.65 113.327 138.366C113.14 138.08 113.047 137.732 113.047 137.322H114.137C114.137 137.523 114.183 137.697 114.276 137.844C114.37 137.991 114.499 138.106 114.663 138.188C114.828 138.269 115.018 138.309 115.231 138.309C115.463 138.309 115.659 138.261 115.82 138.164C115.984 138.064 116.108 137.919 116.193 137.727C116.278 137.535 116.321 137.301 116.321 137.024V131.867ZM119.012 139.14V131.867H123.572V132.812H120.109V135.028H123.334V135.969H120.109V138.196H123.614V139.14H119.012ZM131.078 134.232H129.97C129.927 133.996 129.848 133.787 129.732 133.607C129.616 133.428 129.474 133.275 129.306 133.149C129.138 133.024 128.949 132.929 128.741 132.865C128.535 132.801 128.316 132.769 128.084 132.769C127.665 132.769 127.29 132.875 126.958 133.085C126.629 133.296 126.369 133.605 126.177 134.012C125.988 134.419 125.893 134.917 125.893 135.504C125.893 136.096 125.988 136.595 126.177 137.002C126.369 137.41 126.631 137.717 126.962 137.926C127.293 138.134 127.666 138.238 128.081 138.238C128.31 138.238 128.528 138.207 128.734 138.146C128.942 138.082 129.131 137.988 129.299 137.865C129.467 137.742 129.609 137.592 129.725 137.414C129.843 137.234 129.925 137.028 129.97 136.796L131.078 136.8C131.019 137.157 130.904 137.486 130.733 137.787C130.565 138.085 130.349 138.343 130.083 138.561C129.821 138.777 129.52 138.944 129.181 139.062C128.843 139.18 128.474 139.24 128.074 139.24C127.444 139.24 126.883 139.09 126.39 138.792C125.898 138.491 125.51 138.062 125.225 137.503C124.944 136.944 124.803 136.278 124.803 135.504C124.803 134.727 124.945 134.061 125.229 133.504C125.513 132.946 125.901 132.517 126.394 132.219C126.886 131.918 127.446 131.768 128.074 131.768C128.459 131.768 128.819 131.824 129.153 131.935C129.489 132.044 129.791 132.205 130.059 132.418C130.326 132.629 130.547 132.887 130.723 133.192C130.898 133.495 131.016 133.842 131.078 134.232ZM132.032 132.812V131.867H137.661V132.812H135.392V139.14H134.298V132.812H132.032ZM141.551 139.14V131.867H144.214C144.73 131.867 145.158 131.953 145.496 132.123C145.835 132.291 146.088 132.52 146.256 132.808C146.424 133.095 146.508 133.418 146.508 133.778C146.508 134.081 146.453 134.337 146.341 134.545C146.23 134.751 146.081 134.917 145.894 135.042C145.709 135.165 145.506 135.255 145.283 135.312V135.383C145.525 135.395 145.76 135.473 145.99 135.617C146.222 135.759 146.414 135.962 146.565 136.225C146.717 136.487 146.792 136.807 146.792 137.183C146.792 137.555 146.705 137.889 146.53 138.185C146.357 138.478 146.089 138.712 145.727 138.884C145.365 139.055 144.902 139.14 144.339 139.14H141.551ZM142.648 138.199H144.232C144.758 138.199 145.134 138.097 145.361 137.894C145.589 137.69 145.702 137.436 145.702 137.13C145.702 136.901 145.644 136.69 145.528 136.498C145.412 136.306 145.247 136.154 145.031 136.04C144.818 135.926 144.565 135.87 144.271 135.87H142.648V138.199ZM142.648 135.014H144.118C144.365 135.014 144.586 134.966 144.782 134.872C144.981 134.777 145.139 134.644 145.255 134.474C145.373 134.301 145.432 134.098 145.432 133.863C145.432 133.562 145.327 133.31 145.116 133.107C144.906 132.903 144.582 132.801 144.147 132.801H142.648V135.014ZM147.533 131.867H148.779L150.679 135.174H150.757L152.657 131.867H153.904L151.265 136.285V139.14H150.171V136.285L147.533 131.867Z" fill="#9EA3AA"/>
<g clip-path="url(#clip0_8725_94692)">
<path d="M0.00257433 165.133V164.115L0.706266 164.068C1.28013 164.034 1.63587 163.933 1.78388 163.764C1.93188 163.595 2.01238 163.022 2.04354 162.045C2.0972 160.051 2.12404 157.892 2.12404 155.569C2.12404 154.333 2.11884 152.929 2.10846 151.357C2.10846 150.404 2.04354 149.823 1.95006 149.615C1.89802 149.5 1.80569 149.407 1.6904 149.355C1.56056 149.29 1.00488 149.223 0.0129612 149.153V148.14C0.965931 148.161 1.89813 148.174 2.80696 148.174C3.86899 148.174 4.88427 148.174 5.87619 148.14C6.29945 149.161 6.74347 150.181 7.19789 151.189C7.52507 151.907 8.95669 154.954 11.4927 160.329C14.176 154.808 16.0533 150.745 17.1249 148.14C18.0675 148.176 18.9607 148.197 19.8098 148.197C20.8069 148.197 21.7703 148.176 22.6973 148.14V149.158C21.6586 149.22 21.0822 149.314 20.9471 149.433C20.8121 149.553 20.7316 149.927 20.6875 150.55C20.6338 151.566 20.607 153.498 20.607 156.346C20.607 157.784 20.6226 159.298 20.6511 160.897C20.6797 162.497 20.7316 163.398 20.8069 163.608C20.8571 163.723 20.9402 163.819 21.0458 163.886C21.1471 163.951 21.7002 164.026 22.6973 164.115V165.133C21.4223 165.078 20.2824 165.05 19.2853 165.05C18.2882 165.05 16.9042 165.078 15.1696 165.133V164.115L15.8681 164.091C16.4212 164.068 16.7665 163.987 16.9068 163.858C17.047 163.728 17.1327 163.372 17.1664 162.803C17.2002 162.235 17.2236 160.892 17.2236 158.776V151.466C16.0118 153.964 14.4616 157.236 12.573 161.282C11.794 162.944 11.1967 164.304 10.7553 165.353H9.9763C9.38427 163.962 8.58969 162.209 7.59777 160.08L3.51065 151.466V153.113C3.51065 157.666 3.53142 160.801 3.57297 162.518C3.59374 163.214 3.68462 163.64 3.83263 163.798C3.98064 163.956 4.58047 164.058 5.59056 164.115V165.133C4.79079 165.078 3.98843 165.05 3.18866 165.05C1.99161 165.05 0.929578 165.078 -0.0078125 165.133" fill="#F6F6F7"/>
<path d="M29.8165 155.471L27.9417 160.145C28.4896 160.171 29.0842 160.189 29.7412 160.189C30.3981 160.189 31.0837 160.171 31.712 160.145L29.8165 155.471ZM24 164.3C24.3541 164.308 24.7065 164.249 25.0387 164.126C25.2201 163.924 25.3619 163.69 25.4567 163.435C25.8151 162.649 26.2755 161.557 26.8381 160.158L29.9749 152.267H31.2732L35.2746 162.025C35.794 163.254 36.1212 163.929 36.2406 164.048C36.36 164.168 36.7314 164.243 37.3598 164.287V165.113C36.3964 165.071 35.485 165.05 34.6307 165.05C33.6128 165.05 32.6365 165.071 31.7172 165.113V164.287C32.1262 164.289 32.5343 164.249 32.9351 164.168C32.985 164.145 33.0273 164.109 33.0564 164.063C33.0855 164.016 33.1003 163.963 33.0987 163.908C33.0132 163.512 32.8897 163.125 32.7299 162.752L32.1457 161.231C31.4082 161.215 30.5877 161.207 29.6867 161.207C28.8973 161.207 28.1806 161.215 27.5366 161.231L27.1471 162.269C27.0459 162.545 26.9134 162.963 26.755 163.511C26.7243 163.62 26.7069 163.732 26.7031 163.846C26.699 163.906 26.7132 163.966 26.7438 164.018C26.7744 164.069 26.8199 164.111 26.8745 164.136C27.2825 164.239 27.7004 164.297 28.1209 164.31V165.136C27.5418 165.095 26.8226 165.074 25.9605 165.074C25.1425 165.074 24.4882 165.095 24.0052 165.136L24 164.3Z" fill="#F6F6F7"/>
<path d="M38.1875 165.114V164.35C38.5967 164.337 39.0042 164.29 39.4053 164.207C39.4638 164.18 39.5146 164.139 39.5533 164.088C39.6349 163.917 39.6826 163.732 39.6935 163.543C39.7789 162.661 39.8153 161.775 39.8026 160.889V157.464C39.8026 156.373 39.7861 155.463 39.7533 154.732C39.7609 154.3 39.7155 153.868 39.6182 153.447C39.5788 153.37 39.5161 153.307 39.4391 153.268C39.0277 153.168 38.6054 153.122 38.1823 153.13V152.367C39.2504 152.408 40.2025 152.429 41.0386 152.429C42.0435 152.429 42.9887 152.408 43.8949 152.367V153.13C43.1497 153.185 42.7134 153.252 42.5966 153.327C42.5247 153.404 42.4694 153.494 42.434 153.593C42.3987 153.692 42.3842 153.797 42.3915 153.901C42.3577 154.286 42.3395 155.807 42.3369 158.482H42.459C43.0562 157.988 43.9139 157.166 45.0322 156.015C46.1505 154.864 47.0161 153.902 47.6289 153.13L47.6419 152.793L47.6289 152.455L47.7094 152.367C48.356 152.408 48.9013 152.429 49.3557 152.429C49.8101 152.429 50.371 152.408 50.9656 152.367V153.13L50.4618 153.185C50.1978 153.201 49.9364 153.247 49.6828 153.322C49.3398 153.506 49.0213 153.731 48.7351 153.995C48.1456 154.499 47.403 155.192 46.4968 156.072L44.9232 157.596L45.7359 158.635C46.6984 159.847 47.8479 161.221 49.1843 162.758C49.6012 163.283 50.0607 163.773 50.5579 164.223C50.8307 164.315 51.1165 164.363 51.4044 164.366V165.129L50.9318 165.111L49.3557 165.067C48.9272 165.067 48.3819 165.088 47.7094 165.129C47.2342 164.498 46.4111 163.491 45.2867 162.107C44.435 161.068 43.6223 160.122 42.8485 159.269C42.7877 159.197 42.7189 159.132 42.6433 159.076C42.6077 159.067 42.571 159.063 42.5343 159.063C42.497 159.06 42.4595 159.068 42.4273 159.087C42.3951 159.107 42.3698 159.135 42.3551 159.17C42.3244 159.411 42.3157 159.654 42.3291 159.897L42.3603 162.649C42.3457 163.115 42.3788 163.58 42.459 164.039C42.4926 164.12 42.5556 164.186 42.6355 164.223C43.0463 164.316 43.466 164.364 43.8871 164.366V165.129C43.0095 165.088 42.0366 165.067 40.9685 165.067C40.4267 165.067 39.4971 165.088 38.1797 165.129" fill="#F6F6F7"/>
<path d="M52.8995 165.112V164.624C53.2016 164.48 53.4886 164.306 53.7564 164.105C53.8759 163.161 53.9356 161.171 53.9356 158.133C53.9356 156.071 53.9148 154.7 53.8759 154.03C53.8525 153.671 53.7954 153.443 53.6889 153.352C53.5824 153.261 53.1488 153.178 52.375 153.111V152.347C53.7668 152.402 54.8704 152.428 55.6779 152.428L60.557 152.347C61.0764 152.347 61.5308 152.371 61.9437 152.41L62.0086 152.511C61.8542 153.39 61.7605 154.28 61.7281 155.172H61.0244C61.033 154.698 60.9982 154.223 60.9206 153.755C60.8816 153.692 60.7518 153.64 60.5207 153.586C59.777 153.454 59.0218 153.398 58.2668 153.42C57.7734 153.42 57.1944 153.44 56.5348 153.482C56.4517 155.357 56.4076 156.858 56.3972 157.953C57.0308 157.995 57.6228 158.016 58.1785 158.016C58.6734 158.042 59.1698 158.014 59.6586 157.933C59.7132 157.911 59.7613 157.876 59.7982 157.831C59.835 157.785 59.8594 157.731 59.8689 157.673C59.9424 157.294 59.985 156.911 59.9962 156.525H60.757C60.731 157.564 60.7128 158.218 60.7128 158.527L60.757 160.579H59.9962C59.9572 159.779 59.9001 159.319 59.8352 159.202C59.8101 159.16 59.7759 159.123 59.7351 159.095C59.6942 159.068 59.6477 159.049 59.5989 159.041C58.9387 158.955 58.2726 158.923 57.6073 158.945C57.2801 158.945 56.8958 158.966 56.4569 159.005C56.4569 159.33 56.4414 159.652 56.4414 159.984C56.4414 161.715 56.4725 163.043 56.5348 163.967L58.2772 164.006C59.1956 164.012 60.1134 163.956 61.0244 163.84C61.1698 163.282 61.3101 162.648 61.4451 161.934H62.1825C62.0505 162.968 61.9707 164.008 61.9437 165.05C61.4087 165.092 60.8868 165.112 60.3857 165.112C60.0611 165.112 59.4171 165.112 58.4641 165.079C57.5683 165.063 56.7452 165.05 55.9999 165.05C55.008 165.05 53.9693 165.071 52.8839 165.112" fill="#F6F6F7"/>
<path d="M63.3984 165.114V164.35C63.7958 164.338 64.1905 164.281 64.5747 164.179C64.6404 164.14 64.6901 164.08 64.7149 164.007C64.808 163.522 64.8489 163.029 64.837 162.535C64.8707 161.237 64.8889 160.216 64.8889 159.471C64.8889 158.466 64.8707 157.189 64.85 155.636C64.8266 154.48 64.7695 153.771 64.6812 153.514C64.6586 153.437 64.6088 153.371 64.541 153.327C64.1698 153.215 63.786 153.148 63.3984 153.13V152.367C64.6163 152.408 65.4082 152.429 65.7666 152.429L70.1991 152.367C71.1624 152.367 71.8687 152.463 72.3075 152.652C72.7416 152.841 73.1051 153.162 73.3462 153.569C73.6116 154.018 73.7448 154.533 73.7305 155.054C73.742 155.741 73.5266 156.411 73.1177 156.963C72.7074 157.508 71.9907 158.001 70.9755 158.417L72.8632 161.333L74.3355 163.569C74.505 163.821 74.7136 164.044 74.9535 164.231C75.164 164.321 75.3922 164.362 75.6209 164.35V165.046H75.1015C73.6007 165.059 72.6373 165.075 72.2011 165.101C71.6817 164.259 70.9149 163.038 69.9004 161.437L68.0828 158.596C68.133 158.49 68.1763 158.381 68.2126 158.269C68.3848 158.293 68.5582 158.308 68.7319 158.313C69.3357 158.289 69.9105 158.048 70.3497 157.633C70.6205 157.388 70.8328 157.086 70.9708 156.749C71.1088 156.411 71.169 156.047 71.1468 155.683C71.1666 155.369 71.1209 155.056 71.0127 154.761C70.9045 154.466 70.7362 154.197 70.5184 153.971C70.0978 153.564 69.4798 153.364 68.6281 153.364C68.3684 153.364 68.0023 153.385 67.5401 153.426L67.4882 156.108L67.4103 159.51C67.4103 160.289 67.4362 161.263 67.4985 162.465C67.5039 162.974 67.5508 163.482 67.6388 163.984C67.6792 164.068 67.7482 164.136 67.8335 164.174C67.9581 164.249 68.3528 164.304 69.0306 164.337V165.101C67.9685 165.059 67.0311 165.038 66.208 165.038C65.3425 165.038 64.4059 165.059 63.3984 165.101" fill="#F6F6F7"/>
<path d="M77.0922 165.112V164.624C77.3954 164.48 77.6834 164.306 77.9517 164.105C78.0712 163.161 78.1309 161.171 78.1309 158.133C78.1309 156.071 78.1101 154.7 78.066 154.03C78.0866 153.79 78.0233 153.55 77.8868 153.352C77.7778 153.259 77.3389 153.178 76.5703 153.111V152.347C77.9552 152.403 79.0544 152.429 79.8681 152.428L84.7472 152.347C85.2665 152.347 85.7287 152.371 86.139 152.41L86.1987 152.511C86.0469 153.391 85.9532 154.28 85.9182 155.172H85.2197C85.2251 154.698 85.1903 154.223 85.1159 153.755C85.0795 153.692 84.9419 153.64 84.7108 153.586C83.9698 153.454 83.2171 153.398 82.4647 153.42C81.9644 153.42 81.3845 153.44 80.725 153.482C80.6471 155.357 80.6055 156.858 80.5899 157.953C81.2235 157.995 81.8173 158.016 82.3712 158.016C82.867 158.042 83.3642 158.014 83.8539 157.933C83.9078 157.91 83.9553 157.874 83.9924 157.829C84.0295 157.784 84.055 157.73 84.0668 157.673C84.1359 157.294 84.1775 156.91 84.1915 156.525H84.9523C84.9211 157.564 84.9056 158.218 84.9056 158.527L84.9523 160.579H84.1915C84.1473 159.779 84.0928 159.319 84.0279 159.202C84.0031 159.159 83.969 159.123 83.9281 159.095C83.8872 159.067 83.8405 159.049 83.7916 159.041C83.1306 158.955 82.4636 158.923 81.7974 158.945C81.4702 158.945 81.0937 158.966 80.6548 159.005C80.6548 159.33 80.6367 159.652 80.6367 159.984C80.6367 161.715 80.6661 163.043 80.725 163.967L82.4855 163.996C83.4013 164.001 84.3165 163.946 85.2249 163.83C85.3781 163.271 85.5184 162.638 85.6534 161.924H86.3882C86.2561 162.958 86.1764 163.998 86.1493 165.04C85.6092 165.081 85.0951 165.102 84.5914 165.102C84.2668 165.102 83.628 165.102 82.6698 165.068C81.7766 165.053 80.9586 165.04 80.2056 165.04C79.2189 165.04 78.1802 165.06 77.0896 165.102" fill="#F6F6F7"/>
<path d="M87.5898 165.114V164.35C87.9881 164.338 88.3836 164.281 88.7687 164.179C88.8367 164.141 88.8892 164.08 88.9167 164.007C89.0113 163.523 89.0531 163.029 89.0414 162.535C89.0699 161.237 89.0855 160.216 89.0855 159.471C89.0855 158.466 89.0855 157.189 89.0466 155.636C89.0258 154.48 88.9713 153.771 88.8804 153.514C88.8597 153.436 88.8094 153.369 88.7402 153.327C88.3691 153.214 87.9853 153.148 87.5976 153.13V152.367C88.8215 152.408 89.61 152.429 89.9632 152.429L94.4034 152.367C95.3668 152.367 96.0653 152.463 96.5093 152.652C96.943 152.842 97.3063 153.162 97.548 153.569C97.8131 154.018 97.9471 154.533 97.9349 155.054C97.9461 155.741 97.7287 156.413 97.3169 156.963C96.9066 157.508 96.1951 158.001 95.1772 158.417L97.0624 161.333L98.5347 163.569C98.7054 163.821 98.9159 164.045 99.1579 164.231C99.3666 164.321 99.5931 164.361 99.8201 164.35V165.046H99.3007C97.7999 165.059 96.8313 165.075 96.4055 165.101C95.8861 164.259 95.1167 163.038 94.097 161.437L92.2794 158.596C92.3315 158.49 92.3758 158.381 92.4118 158.269C92.584 158.293 92.7574 158.308 92.9311 158.313C93.5376 158.291 94.1153 158.049 94.5566 157.633C94.8265 157.388 95.038 157.085 95.1756 156.748C95.3131 156.41 95.3731 156.046 95.3512 155.683C95.3695 155.37 95.3235 155.056 95.2158 154.762C95.1082 154.468 94.9413 154.199 94.7254 153.971C94.3022 153.564 93.6712 153.364 92.8299 153.364C92.5702 153.364 92.2015 153.385 91.7471 153.426L91.6874 156.108L91.6121 159.51C91.6121 160.279 91.6423 161.264 91.7029 162.465C91.7052 162.975 91.7521 163.483 91.8431 163.984C91.8824 164.07 91.953 164.138 92.0405 164.174C92.1599 164.249 92.5598 164.304 93.235 164.337V165.101C92.1738 165.059 91.2338 165.038 90.415 165.038C89.5373 165.038 88.5991 165.059 87.6002 165.101" fill="#F6F6F7"/>
<path d="M101.282 165.112V164.624C101.584 164.48 101.871 164.306 102.139 164.105C102.259 163.161 102.318 161.171 102.318 158.133C102.318 156.071 102.298 154.7 102.259 154.03C102.235 153.671 102.178 153.443 102.074 153.352C101.97 153.261 101.532 153.178 100.758 153.111V152.347C102.15 152.402 103.253 152.428 104.061 152.428L108.94 152.347C109.459 152.347 109.914 152.371 110.326 152.41L110.391 152.511C110.237 153.39 110.143 154.28 110.111 155.172H109.407C109.416 154.698 109.381 154.223 109.303 153.755C109.264 153.692 109.135 153.64 108.903 153.586C108.16 153.454 107.405 153.398 106.65 153.42C106.156 153.42 105.577 153.44 104.918 153.482C104.837 155.357 104.793 156.858 104.783 157.953C105.413 157.995 106.006 158.016 106.561 158.016C107.056 158.042 107.553 158.014 108.041 157.933C108.096 157.912 108.145 157.877 108.182 157.831C108.219 157.785 108.243 157.731 108.252 157.673C108.325 157.294 108.367 156.911 108.376 156.525H109.14C109.114 157.564 109.098 158.218 109.098 158.527L109.14 160.579H108.376C108.337 159.779 108.283 159.319 108.221 159.202C108.195 159.16 108.16 159.124 108.119 159.096C108.077 159.068 108.031 159.049 107.982 159.041C107.322 158.955 106.655 158.923 105.99 158.945C105.663 158.945 105.279 158.966 104.84 159.005C104.84 159.33 104.824 159.652 104.824 159.984C104.824 161.713 104.858 163.04 104.918 163.967L106.67 163.996C107.589 164.001 108.507 163.946 109.418 163.83C109.563 163.271 109.703 162.638 109.838 161.924H110.576C110.443 162.957 110.364 163.998 110.339 165.04C109.802 165.081 109.28 165.102 108.781 165.102C108.459 165.102 107.815 165.102 106.863 165.068C105.967 165.053 105.144 165.04 104.398 165.04C103.406 165.04 102.368 165.06 101.282 165.102" fill="#F6F6F7"/>
<path d="M116.352 149.158V148.14C117.961 148.192 119.366 148.221 120.579 148.221C121.358 148.221 122.443 148.192 123.856 148.14V149.158C123.336 149.128 122.815 149.193 122.319 149.35C122.212 149.388 122.121 149.459 122.059 149.553C121.954 149.725 121.893 149.92 121.882 150.121C121.838 150.576 121.794 151.877 121.766 154.016C121.74 155.507 121.727 157.025 121.729 158.571C121.729 159.835 121.872 160.766 122.158 161.365C122.416 161.929 122.851 162.394 123.396 162.689C124.191 163.102 125.074 163.314 125.97 163.307C127.242 163.307 128.21 163.089 128.878 162.661C129.53 162.26 130.01 161.632 130.225 160.897C130.454 160.144 130.567 158.5 130.566 155.964V151.482C130.566 150.475 130.514 149.867 130.425 149.664C130.401 149.606 130.366 149.553 130.322 149.509C130.277 149.464 130.224 149.429 130.166 149.405C129.979 149.29 129.403 149.204 128.439 149.145V148.14C129.457 148.192 130.394 148.221 131.254 148.221C131.991 148.221 132.9 148.192 133.983 148.14V149.158C133.204 149.158 132.718 149.244 132.521 149.418C132.324 149.592 132.214 150.056 132.176 150.799C132.087 152.606 132.04 154.653 132.033 156.938C132.033 158.402 132.012 159.358 131.976 159.809C131.925 160.807 131.659 161.781 131.197 162.666C130.677 163.521 129.91 164.199 128.997 164.608C127.976 165.127 126.704 165.383 125.18 165.374C123.598 165.374 122.282 165.132 121.233 164.647C120.195 164.161 119.442 163.551 119.003 162.811C118.564 162.071 118.341 160.994 118.341 159.558L118.4 154.105C118.4 153.668 118.38 152.558 118.341 150.773C118.355 150.385 118.295 149.998 118.161 149.633C118.095 149.519 117.995 149.429 117.876 149.374C117.377 149.249 116.867 149.177 116.354 149.158" fill="#F6F6F7"/>
<path d="M135.117 165.114V164.35C135.544 164.361 135.971 164.313 136.384 164.207C136.47 164.15 136.535 164.066 136.569 163.969C136.634 163.823 136.675 163.314 136.686 162.434C136.719 160.98 136.737 159.887 136.737 159.147L136.719 155.304C136.719 154.286 136.686 153.697 136.621 153.538C136.591 153.454 136.532 153.384 136.454 153.34C136.335 153.268 135.891 153.198 135.117 153.13V152.367C136.039 152.398 136.727 152.411 137.169 152.411C137.657 152.411 138.207 152.398 138.843 152.367C140.207 154.15 141.748 156.086 143.465 158.175C144.615 159.572 145.602 160.725 146.428 161.634V158.035C146.428 156.672 146.428 155.493 146.384 154.506C146.396 154.139 146.35 153.771 146.246 153.418C146.226 153.381 146.199 153.348 146.165 153.321C146.132 153.295 146.093 153.276 146.052 153.265C145.641 153.199 145.226 153.156 144.81 153.138V152.374C145.452 152.406 146.093 152.419 146.727 152.419C147.599 152.419 148.389 152.406 149.098 152.374V153.138C148.697 153.146 148.297 153.194 147.906 153.281C147.837 153.311 147.775 153.356 147.724 153.411C147.675 153.471 147.639 153.542 147.62 153.618C147.556 154.083 147.531 154.552 147.545 155.02L147.511 158.656L147.495 162.317C147.495 163.296 147.519 164.28 147.555 165.262L147.443 165.389C146.722 165.254 146.218 165.166 145.919 165.129C144.398 163.398 142.562 161.234 140.412 158.638C139.33 157.319 138.453 156.209 137.781 155.309V158.814C137.781 159.775 137.796 160.934 137.825 162.291C137.846 163.291 137.883 163.862 137.948 164.015C137.974 164.081 138.023 164.135 138.085 164.168C138.5 164.285 138.929 164.346 139.36 164.35V165.114C138.407 165.072 137.727 165.051 137.309 165.051C136.969 165.051 136.236 165.072 135.117 165.114Z" fill="#F6F6F7"/>
<path d="M150.266 165.112V164.349C151.073 164.307 151.533 164.24 151.637 164.141C151.781 163.93 151.85 163.677 151.831 163.422C151.878 162.624 151.902 161.134 151.902 158.953C151.902 158.117 151.89 156.905 151.868 155.318C151.882 154.721 151.858 154.125 151.798 153.531C151.767 153.432 151.699 153.348 151.608 153.298C151.169 153.185 150.718 153.128 150.266 153.126V152.363C151.478 152.404 152.41 152.425 153.054 152.425C154.166 152.425 155.173 152.404 156.064 152.363V153.126C155.259 153.173 154.802 153.24 154.701 153.321C154.566 153.478 154.493 153.68 154.498 153.887C154.451 154.474 154.431 155.648 154.431 157.424C154.431 159.784 154.431 161.43 154.457 162.357C154.483 163.284 154.527 163.84 154.615 164.014C154.663 164.103 154.744 164.17 154.841 164.201C155.244 164.282 155.653 164.329 156.064 164.341V165.105L155.025 165.079C154.366 165.055 153.774 165.042 153.254 165.042L150.266 165.112Z" fill="#F6F6F7"/>
<path d="M156.815 153.13V152.367C157.937 152.406 158.965 152.429 159.895 152.429C160.726 152.429 161.629 152.406 162.616 152.367V153.13C162.2 153.137 161.787 153.193 161.385 153.299C161.325 153.324 161.274 153.367 161.24 153.421C161.205 153.476 161.188 153.54 161.19 153.605C161.19 153.777 161.435 154.493 161.933 155.748L164.439 162.013L166.449 156.945C167.186 155.08 167.554 153.96 167.552 153.585C167.555 153.521 167.538 153.459 167.505 153.405C167.472 153.352 167.423 153.309 167.365 153.283C166.94 153.181 166.504 153.13 166.067 153.13V152.367C167.152 152.406 167.885 152.429 168.246 152.429C168.606 152.429 169.315 152.406 170.299 152.367V153.13C169.707 153.19 169.36 153.263 169.261 153.348C169.118 153.465 168.778 154.161 168.222 155.426L165.519 162.125C165.068 163.164 164.67 164.226 164.327 165.306H163.029L159.892 157.599C159.175 155.844 158.673 154.653 158.383 154.029C158.294 153.773 158.146 153.543 157.95 153.356C157.83 153.273 157.451 153.2 156.812 153.141" fill="#F6F6F7"/>
<path d="M172.025 165.112V164.624C172.326 164.48 172.612 164.306 172.879 164.105C172.998 163.161 173.058 161.171 173.058 158.133C173.058 156.071 173.037 154.7 172.998 154.03C173.016 153.789 172.951 153.55 172.814 153.352C172.713 153.259 172.274 153.178 171.5 153.111V152.347C172.892 152.402 173.995 152.428 174.803 152.428L179.682 152.347C180.201 152.347 180.656 152.371 181.066 152.41L181.131 152.511C180.976 153.39 180.884 154.28 180.853 155.172H180.147C180.155 154.698 180.121 154.223 180.046 153.755C180.007 153.692 179.877 153.64 179.643 153.586C178.9 153.454 178.146 153.398 177.392 153.42C176.898 153.42 176.319 153.44 175.66 153.482C175.577 155.357 175.533 156.858 175.522 157.953C176.156 157.995 176.748 158.016 177.304 158.016C177.798 158.042 178.295 158.014 178.784 157.933C178.838 157.911 178.886 157.876 178.923 157.831C178.96 157.785 178.984 157.731 178.994 157.673C179.066 157.294 179.108 156.91 179.119 156.525H179.882C179.856 157.564 179.838 158.218 179.838 158.527L179.882 160.579H179.119C179.08 159.779 179.025 159.319 178.96 159.202C178.935 159.159 178.9 159.123 178.859 159.095C178.818 159.067 178.771 159.049 178.721 159.041C178.061 158.955 177.395 158.923 176.73 158.945C176.405 158.945 176.021 158.966 175.582 159.005C175.582 159.33 175.566 159.652 175.566 159.984C175.566 161.715 175.598 163.043 175.66 163.967L177.413 163.996C178.33 164.001 179.247 163.946 180.157 163.83C180.305 163.271 180.445 162.638 180.58 161.924H181.315C181.184 162.958 181.105 163.998 181.079 165.04C180.542 165.081 180.022 165.102 179.521 165.102C179.196 165.102 178.553 165.102 177.6 165.068C176.706 165.053 175.883 165.04 175.138 165.04C174.143 165.04 173.104 165.06 172.022 165.102" fill="#F6F6F7"/>
<path d="M182.526 165.114V164.35C182.924 164.339 183.32 164.281 183.705 164.179C183.771 164.14 183.82 164.08 183.845 164.007C183.938 163.522 183.98 163.029 183.97 162.535C184.001 161.237 184.016 160.216 184.016 159.471C184.016 158.466 184.001 157.189 183.98 155.636C183.957 154.48 183.897 153.771 183.811 153.514C183.789 153.437 183.739 153.371 183.671 153.327C183.299 153.214 182.914 153.148 182.526 153.13V152.367C183.746 152.408 184.536 152.429 184.894 152.429L189.329 152.367C190.293 152.367 190.996 152.463 191.435 152.652C191.869 152.841 192.232 153.162 192.474 153.569C192.739 154.018 192.872 154.533 192.858 155.054C192.87 155.741 192.654 156.411 192.245 156.963C191.835 157.508 191.118 158.001 190.1 158.417L192.006 161.333L193.479 163.569C193.648 163.821 193.857 164.044 194.097 164.231C194.306 164.321 194.534 164.362 194.761 164.35V165.046H194.242C192.744 165.059 191.78 165.075 191.347 165.101C190.828 164.259 190.06 163.038 189.044 161.437L187.226 158.596C187.269 158.499 187.305 158.398 187.332 158.295C187.505 158.319 187.678 158.333 187.852 158.339C188.456 158.315 189.03 158.074 189.469 157.659C189.74 157.414 189.953 157.112 190.091 156.775C190.229 156.437 190.289 156.073 190.267 155.709C190.286 155.395 190.241 155.081 190.132 154.787C190.024 154.492 189.856 154.223 189.638 153.997C189.218 153.59 188.6 153.39 187.748 153.39C187.488 153.39 187.119 153.411 186.66 153.452L186.605 156.134L186.53 159.536C186.53 160.315 186.556 161.289 186.618 162.491C186.625 163 186.671 163.508 186.756 164.01C186.798 164.093 186.866 164.16 186.951 164.2C187.078 164.275 187.47 164.329 188.148 164.363V165.127C187.088 165.085 186.151 165.064 185.328 165.064C184.455 165.064 183.51 165.085 182.516 165.127" fill="#F6F6F7"/>
<path d="M196.26 161.269H197.039C197.019 161.796 197.047 162.324 197.124 162.846C197.242 163.089 197.421 163.298 197.644 163.453C197.975 163.73 198.358 163.939 198.771 164.066C199.226 164.225 199.706 164.304 200.188 164.302C200.917 164.337 201.631 164.095 202.188 163.625C202.428 163.412 202.619 163.15 202.748 162.856C202.877 162.563 202.941 162.244 202.936 161.924C202.952 161.663 202.917 161.402 202.831 161.156C202.745 160.91 202.61 160.683 202.434 160.49C202.102 160.158 201.461 159.922 200.523 159.781C199.126 159.576 198.186 159.353 197.701 159.109C197.216 158.869 196.816 158.489 196.55 158.018C196.255 157.484 196.109 156.881 196.127 156.271C196.116 155.734 196.215 155.201 196.417 154.704C196.62 154.208 196.921 153.757 197.303 153.381C198.082 152.586 199.331 152.19 201.05 152.191C201.651 152.185 202.251 152.237 202.842 152.347C203.379 152.457 203.901 152.627 204.4 152.854L204.491 153.074C204.401 153.416 204.334 153.763 204.291 154.113C204.252 154.419 204.216 154.957 204.187 155.713H203.432C203.4 154.783 203.359 154.258 203.299 154.155C203.078 153.869 202.783 153.651 202.445 153.524C201.951 153.296 201.412 153.183 200.869 153.194C200.187 153.154 199.515 153.369 198.983 153.796C198.766 153.992 198.593 154.232 198.478 154.502C198.364 154.771 198.309 155.062 198.319 155.354C198.312 155.711 198.407 156.063 198.594 156.367C198.775 156.654 199.042 156.876 199.357 157.003C200.047 157.223 200.755 157.379 201.474 157.468C202.151 157.55 202.819 157.699 203.468 157.912C204.008 158.121 204.465 158.502 204.766 158.997C205.081 159.555 205.234 160.19 205.208 160.831C205.22 161.437 205.098 162.038 204.851 162.591C204.603 163.144 204.235 163.636 203.774 164.03C202.819 164.88 201.511 165.305 199.851 165.305C199.175 165.312 198.5 165.24 197.841 165.089C197.19 164.926 196.561 164.683 195.969 164.367C196.067 163.989 196.139 163.605 196.184 163.217C196.228 162.736 196.254 162.095 196.26 161.28" fill="#F6F6F7"/>
<path d="M206.719 165.112V164.349C207.526 164.307 207.986 164.24 208.09 164.141C208.234 163.93 208.303 163.677 208.285 163.422C208.331 162.624 208.354 161.134 208.352 158.953C208.352 158.117 208.342 156.905 208.321 155.318C208.335 154.721 208.311 154.125 208.251 153.531C208.222 153.432 208.154 153.348 208.064 153.298C207.624 153.186 207.172 153.128 206.719 153.126V152.363C207.931 152.404 208.864 152.425 209.51 152.425C210.619 152.425 211.626 152.404 212.517 152.363V153.126C211.712 153.173 211.255 153.24 211.154 153.321C211.024 153.477 210.954 153.676 210.959 153.879C210.91 154.466 210.889 155.64 210.889 157.416C210.889 159.776 210.889 161.423 210.918 162.35C210.946 163.277 210.985 163.832 211.073 164.006C211.122 164.096 211.204 164.163 211.302 164.193C211.704 164.275 212.112 164.322 212.522 164.333V165.097L211.484 165.071C210.824 165.048 210.234 165.036 209.713 165.034L206.719 165.112Z" fill="#F6F6F7"/>
<path d="M216.178 165.112V164.349C216.532 164.348 216.886 164.318 217.235 164.261C217.305 164.261 217.374 164.247 217.438 164.219C217.502 164.192 217.56 164.152 217.609 164.102C217.657 164.052 217.695 163.993 217.72 163.928C217.745 163.862 217.757 163.793 217.754 163.723C217.799 163.464 217.838 162.505 217.863 160.867C217.879 159.693 217.892 158.494 217.892 157.273C217.892 154.869 217.884 153.645 217.869 153.601C217.853 153.557 217.643 153.534 217.24 153.534C216.417 153.534 215.708 153.557 215.119 153.604C214.922 153.606 214.727 153.637 214.54 153.698C214.513 153.715 214.49 153.738 214.472 153.765C214.454 153.791 214.442 153.822 214.436 153.853C214.41 153.931 214.361 154.461 214.283 155.45H213.522C213.532 154.287 213.503 153.288 213.434 152.454L213.532 152.378C215.389 152.467 217.204 152.519 218.962 152.519C220.72 152.519 222.683 152.467 224.854 152.378L224.952 152.524C224.838 153.355 224.763 154.329 224.711 155.45H223.976C223.921 154.427 223.875 153.877 223.82 153.791C223.784 153.749 223.74 153.715 223.691 153.691C223.641 153.667 223.587 153.653 223.532 153.651C222.597 153.55 221.657 153.511 220.717 153.534C220.6 153.534 220.528 153.55 220.507 153.588C220.467 153.745 220.454 153.908 220.468 154.069L220.413 160.179C220.413 161.95 220.43 163.037 220.463 163.44C220.491 163.843 220.559 164.084 220.676 164.17C220.748 164.224 221.216 164.289 222.07 164.362V165.125C221.205 165.084 220.278 165.063 219.305 165.063C218.019 165.063 216.981 165.084 216.189 165.125" fill="#F6F6F7"/>
<path d="M228.792 165.112V164.348C229.219 164.374 229.647 164.319 230.054 164.185C230.129 164.142 230.193 164.081 230.241 164.009C230.288 163.936 230.317 163.853 230.327 163.767C230.337 163.706 230.363 163.116 230.404 161.996V161.331C230.432 160.817 230.394 160.301 230.29 159.796C229.889 158.964 229.434 158.159 228.927 157.387C228.148 156.114 227.548 155.211 227.133 154.663C226.852 154.248 226.5 153.885 226.094 153.59C225.974 153.526 225.838 153.495 225.702 153.5L225.281 153.52V152.801C226.26 152.627 227.234 152.419 228.195 152.175C228.481 152.304 228.745 152.48 228.974 152.695C229.449 153.259 229.868 153.867 230.225 154.512C230.745 155.411 231.433 156.712 232.256 158.407L232.983 157.135C233.642 155.987 234.513 154.395 235.595 152.357H237.036V152.809C236.73 153.193 236.143 154.066 235.294 155.424C233.958 157.57 233.214 158.827 233.063 159.194C232.938 159.653 232.889 160.129 232.918 160.604C232.918 162.024 232.949 163.024 233.009 163.608C233.004 163.716 233.022 163.823 233.061 163.923C233.101 164.023 233.162 164.113 233.24 164.187C233.37 164.265 233.832 164.317 234.627 164.341V165.104C233.767 165.062 232.889 165.042 232.001 165.042C231.023 165.042 229.953 165.062 228.789 165.104" fill="#F6F6F7"/>
</g>
<defs>
<clipPath id="clip0_8725_94692">
<rect width="237.038" height="17.2366" fill="white" transform="translate(0 148.14)"/>
</clipPath>
</defs>
</svg>
