<svg width="144" height="97" viewBox="0 0 143.38 97" fill="none" xmlns="http://www.w3.org/2000/svg">
<path id="Vector" d="M122.667 72.1799C122.667 76.3041 119.702 79.2753 115.735 79.2753C111.767 79.2753 108.802 76.3041 108.802 72.1799C108.802 68.0556 111.767 65.0845 115.735 65.0845C119.702 65.0845 122.667 68.1107 122.667 72.1799ZM85.8169 65.0845C82.0053 65.0845 79.2554 68.0596 79.2554 72.1799C79.2554 76.3002 82.0053 79.2753 85.8169 79.2753C89.6284 79.2753 92.1149 76.3041 92.1149 72.1799C92.1149 68.0556 89.4688 65.0845 85.8169 65.0845ZM27.2187 65.0845C23.4071 65.0845 20.6572 68.1107 20.6572 72.1799C20.6572 76.249 23.4111 79.2753 27.2187 79.2753C31.0262 79.2753 33.5167 76.3553 33.5167 72.1799C33.5167 68.0045 30.8706 65.0845 27.2187 65.0845ZM119.558 96.9961H23.8222C3.17992 96.9961 -7.65608 72.841 6.23316 57.7805L51.3452 8.8722C62.2571 -2.9574 81.1273 -2.9574 92.0351 8.8722L137.147 57.7844C151.036 72.841 140.2 97 119.558 97M40.609 59.1382H33.6764V62.3219C31.7726 59.819 28.4919 58.6187 25.4226 58.6187C18.1188 58.6187 13.4651 64.6713 13.4651 72.1838C13.4651 79.6963 18.1228 85.7528 25.4226 85.7528C28.4919 85.7528 31.8245 84.6037 33.6764 82.1008V85.2294H40.609V59.1382ZM51.429 59.1382H44.3368V85.2294H51.429V59.1382ZM52.0636 51.8342C52.0636 49.536 50.1599 47.6588 47.829 47.6588C45.4982 47.6588 43.6503 49.536 43.6503 51.8342C43.6503 54.1324 45.5541 55.9584 47.829 55.9584C50.104 55.9584 52.0636 54.0813 52.0636 51.8342ZM70.7822 58.6423C65.3821 58.8706 62.8358 62.0897 62.1214 64.1479V59.1382H55.1368V85.2294H62.2291V75.2101C62.2291 69.2126 65.0549 66.4343 70.7822 66.2533V58.6423ZM99.2112 59.1421H92.4901V62.2746C90.5304 59.7678 87.1978 58.6227 84.0248 58.6227C76.721 58.6227 72.0673 64.6752 72.0673 72.1366C72.0673 79.598 76.8288 85.7568 84.1326 85.7568C87.2018 85.7568 90.2191 84.5565 92.1229 82.2582V91.8486L99.2152 90.1014V59.1421H99.2112ZM129.923 72.1877C129.923 64.624 123.681 58.6227 115.743 58.6227C107.804 58.6227 101.614 64.624 101.614 72.1877C101.614 79.7514 107.86 85.7568 115.743 85.7568C123.625 85.7568 129.923 79.7554 129.923 72.1877Z" fill="white"/>
</svg>
