<svg width="238" height="38" viewBox="0 0 238 38" fill="none" xmlns="http://www.w3.org/2000/svg">
<path opacity="0.4" d="M84.4134 11.1401H83.2486L85.8658 3.86741H87.1335L89.7507 11.1401H88.5859L86.5298 5.18843H86.473L84.4134 11.1401ZM84.6087 8.29213H88.3871V9.21542H84.6087V8.29213ZM93.4474 11.1401V3.86741H96.0398C96.6056 3.86741 97.0743 3.97039 97.446 4.17636C97.8177 4.38232 98.0959 4.66405 98.2805 5.02153C98.4652 5.37664 98.5575 5.77674 98.5575 6.22181C98.5575 6.66926 98.464 7.07172 98.277 7.4292C98.0923 7.78431 97.813 8.06604 97.4389 8.27437C97.0672 8.48034 96.5997 8.58332 96.0362 8.58332H94.2536V7.65292H95.9368C96.2943 7.65292 96.5843 7.59137 96.8068 7.46826C97.0294 7.34279 97.1927 7.17233 97.2969 6.9569C97.401 6.74146 97.4531 6.49643 97.4531 6.22181C97.4531 5.94719 97.401 5.70335 97.2969 5.49028C97.1927 5.27721 97.0282 5.11031 96.8033 4.98957C96.5807 4.86883 96.2872 4.80846 95.9226 4.80846H94.5447V11.1401H93.4474ZM99.8439 11.1401V3.86741H102.436C103 3.86741 103.467 3.96447 103.839 4.1586C104.213 4.35273 104.492 4.62143 104.677 4.96471C104.862 5.30562 104.954 5.6998 104.954 6.14724C104.954 6.59231 104.86 6.98412 104.673 7.32267C104.489 7.65884 104.209 7.92044 103.835 8.10747C103.464 8.29449 102.996 8.38801 102.433 8.38801H100.469V7.4434H102.333C102.688 7.4434 102.977 7.3925 103.2 7.2907C103.425 7.18891 103.589 7.04094 103.693 6.84681C103.798 6.65268 103.85 6.41949 103.85 6.14724C103.85 5.87262 103.796 5.63469 103.69 5.43346C103.586 5.23223 103.421 5.07835 103.196 4.97181C102.974 4.86291 102.681 4.80846 102.319 4.80846H100.941V11.1401H99.8439ZM103.434 7.85889L105.231 11.1401H103.981L102.22 7.85889H103.434ZM112.607 7.50377C112.607 8.28029 112.465 8.9479 112.181 9.50661C111.896 10.063 111.507 10.4915 111.012 10.7921C110.52 11.0904 109.96 11.2396 109.333 11.2396C108.703 11.2396 108.141 11.0904 107.646 10.7921C107.153 10.4915 106.765 10.0618 106.481 9.50306C106.197 8.94435 106.055 8.27792 106.055 7.50377C106.055 6.72726 106.197 6.06083 106.481 5.50448C106.765 4.94577 107.153 4.51727 107.646 4.21897C108.141 3.91831 108.703 3.76798 109.333 3.76798C109.96 3.76798 110.52 3.91831 111.012 4.21897C111.507 4.51727 111.896 4.94577 112.181 5.50448C112.465 6.06083 112.607 6.72726 112.607 7.50377ZM111.52 7.50377C111.52 6.91192 111.424 6.41357 111.232 6.00874C111.043 5.60155 110.783 5.29378 110.451 5.08545C110.122 4.87475 109.749 4.7694 109.333 4.7694C108.914 4.7694 108.539 4.87475 108.21 5.08545C107.881 5.29378 107.621 5.60155 107.429 6.00874C107.24 6.41357 107.145 6.91192 107.145 7.50377C107.145 8.09563 107.24 8.59516 107.429 9.00235C107.621 9.40718 107.881 9.71495 108.21 9.92565C108.539 10.134 108.914 10.2381 109.333 10.2381C109.749 10.2381 110.122 10.134 110.451 9.92565C110.783 9.71495 111.043 9.40718 111.232 9.00235C111.424 8.59516 111.52 8.09563 111.52 7.50377ZM116.801 3.86741H117.895V9.02366C117.895 9.49004 117.803 9.88895 117.618 10.2204C117.436 10.5518 117.179 10.8051 116.848 10.9803C116.516 11.1532 116.128 11.2396 115.683 11.2396C115.273 11.2396 114.905 11.165 114.578 11.0158C114.254 10.8667 113.997 10.6501 113.808 10.366C113.621 10.0795 113.527 9.73152 113.527 9.32195H114.618C114.618 9.52319 114.664 9.69719 114.756 9.84397C114.851 9.99075 114.98 10.1056 115.143 10.1884C115.309 10.2689 115.498 10.3092 115.711 10.3092C115.943 10.3092 116.14 10.2606 116.301 10.1636C116.464 10.0641 116.588 9.91855 116.674 9.72678C116.759 9.53502 116.801 9.30065 116.801 9.02366V3.86741ZM119.492 11.1401V3.86741H124.052V4.81201H120.59V7.02792H123.814V7.96897H120.59V10.1955H124.095V11.1401H119.492ZM131.558 6.23247H130.45C130.408 5.99572 130.328 5.78739 130.212 5.60747C130.096 5.42754 129.954 5.27484 129.786 5.14937C129.618 5.0239 129.43 4.9292 129.222 4.86528C129.016 4.80136 128.797 4.7694 128.565 4.7694C128.146 4.7694 127.77 4.87475 127.439 5.08545C127.11 5.29615 126.849 5.6051 126.658 6.0123C126.468 6.41949 126.374 6.91665 126.374 7.50377C126.374 8.09563 126.468 8.59516 126.658 9.00235C126.849 9.40955 127.111 9.71731 127.442 9.92565C127.774 10.134 128.147 10.2381 128.561 10.2381C128.791 10.2381 129.009 10.2074 129.214 10.1458C129.423 10.0819 129.611 9.98838 129.779 9.86528C129.947 9.74217 130.089 9.59184 130.205 9.41428C130.324 9.23436 130.405 9.02839 130.45 8.79639L131.558 8.79994C131.499 9.15742 131.384 9.48649 131.214 9.78715C131.046 10.0854 130.829 10.3435 130.564 10.5613C130.301 10.7767 130 10.9436 129.662 11.062C129.323 11.1804 128.954 11.2396 128.554 11.2396C127.924 11.2396 127.363 11.0904 126.871 10.7921C126.378 10.4915 125.99 10.0618 125.706 9.50306C125.424 8.94435 125.283 8.27792 125.283 7.50377C125.283 6.72726 125.425 6.06083 125.71 5.50448C125.994 4.94577 126.382 4.51727 126.874 4.21897C127.367 3.91831 127.927 3.76798 128.554 3.76798C128.94 3.76798 129.3 3.82361 129.634 3.93488C129.97 4.04378 130.272 4.20477 130.539 4.41784C130.807 4.62854 131.028 4.88659 131.203 5.19198C131.378 5.49501 131.497 5.84184 131.558 6.23247ZM132.513 4.81201V3.86741H138.141V4.81201H135.872V11.1401H134.778V4.81201H132.513ZM142.031 11.1401V3.86741H144.695C145.211 3.86741 145.638 3.95264 145.977 4.12309C146.315 4.29118 146.569 4.51963 146.737 4.80846C146.905 5.09492 146.989 5.41807 146.989 5.77792C146.989 6.08095 146.933 6.33663 146.822 6.54497C146.711 6.75093 146.561 6.91665 146.374 7.04213C146.19 7.16523 145.986 7.25519 145.764 7.31201V7.38303C146.005 7.39487 146.241 7.473 146.47 7.61741C146.702 7.75945 146.894 7.96187 147.046 8.22465C147.197 8.48744 147.273 8.80704 147.273 9.18346C147.273 9.55515 147.185 9.88895 147.01 10.1849C146.837 10.4784 146.57 10.7116 146.208 10.8845C145.845 11.0549 145.383 11.1401 144.819 11.1401H142.031ZM143.129 10.1991H144.713C145.238 10.1991 145.615 10.0973 145.842 9.89369C146.069 9.69009 146.183 9.43559 146.183 9.13019C146.183 8.90055 146.125 8.68985 146.009 8.49809C145.893 8.30633 145.727 8.15363 145.512 8.03999C145.298 7.92636 145.045 7.86954 144.752 7.86954H143.129V10.1991ZM143.129 7.01372H144.599C144.845 7.01372 145.066 6.96637 145.263 6.87167C145.462 6.77697 145.619 6.6444 145.735 6.47394C145.854 6.30112 145.913 6.09752 145.913 5.86315C145.913 5.56249 145.807 5.31035 145.597 5.10676C145.386 4.90316 145.063 4.80136 144.627 4.80136H143.129V7.01372ZM148.013 3.86741H149.26L151.16 7.17352H151.238L153.138 3.86741H154.384L151.746 8.28502V11.1401H150.652V8.28502L148.013 3.86741Z" fill="#9EA3AA"/>
<g clip-path="url(#clip0_9107_37866)">
<path d="M0.483043 37.1326V36.1147L1.18673 36.068C1.76059 36.0342 2.11634 35.933 2.26434 35.7642C2.41235 35.5954 2.49285 35.0215 2.52401 34.0452C2.57767 32.051 2.6045 29.8923 2.6045 27.5691C2.6045 26.3331 2.59931 24.9292 2.58893 23.3574C2.58893 22.4044 2.52401 21.8228 2.43053 21.615C2.37849 21.4997 2.28615 21.4074 2.17086 21.3554C2.04103 21.2905 1.48535 21.2229 0.49343 21.1528V20.1401C1.4464 20.1609 2.3786 20.1739 3.28742 20.1739C4.34945 20.1739 5.36474 20.1739 6.35666 20.1401C6.77992 21.1606 7.22394 22.1811 7.67836 23.1886C8.00553 23.907 9.43715 26.9537 11.9732 32.3288C14.6564 26.8083 16.5338 22.7454 17.6053 20.1401C18.5479 20.1765 19.4412 20.1973 20.2903 20.1973C21.2874 20.1973 22.2508 20.1765 23.1778 20.1401V21.158C22.1391 21.2203 21.5626 21.3138 21.4276 21.4333C21.2926 21.5527 21.2121 21.9266 21.1679 22.5498C21.1143 23.566 21.0875 25.4979 21.0875 28.3455C21.0875 29.7841 21.103 31.2979 21.1316 32.8975C21.1602 34.497 21.2121 35.398 21.2874 35.6084C21.3375 35.7227 21.4207 35.8195 21.5263 35.8862C21.6276 35.9511 22.1806 36.0264 23.1778 36.1147V37.1326C21.9028 37.0781 20.7629 37.0495 19.7658 37.0495C18.7686 37.0495 17.3846 37.0781 15.6501 37.1326V36.1147L16.3486 36.0913C16.9017 36.068 17.247 35.9875 17.3872 35.8576C17.5274 35.7278 17.6131 35.3721 17.6469 34.8034C17.6806 34.2347 17.704 32.8923 17.704 30.776V23.4664C16.4922 25.9644 14.942 29.2362 13.0534 33.2818C12.2744 34.9436 11.6772 36.3043 11.2358 37.3533H10.4568C9.86474 35.9615 9.07016 34.2088 8.07824 32.0795L3.99112 23.4664V25.1127C3.99112 29.6655 4.01189 32.8005 4.05344 34.5178C4.07421 35.2137 4.16509 35.6395 4.3131 35.7979C4.46111 35.9563 5.06093 36.0576 6.07103 36.1147V37.1326C5.27126 37.0781 4.4689 37.0495 3.66913 37.0495C2.47208 37.0495 1.41005 37.0781 0.472656 37.1326" fill="#F6F6F7"/>
<path d="M30.297 27.4714L28.4222 32.1453C28.9701 32.1713 29.5647 32.1895 30.2217 32.1895C30.8786 32.1895 31.5641 32.1713 32.1925 32.1453L30.297 27.4714ZM24.4805 36.3C24.8346 36.3081 25.187 36.2491 25.5191 36.126C25.7005 35.924 25.8424 35.6897 25.9372 35.4353C26.2955 34.6494 26.756 33.557 27.3186 32.1583L30.4554 24.2671H31.7537L35.7551 34.0253C36.2744 35.2535 36.6016 35.9286 36.7211 36.0481C36.8405 36.1675 37.2118 36.2428 37.8402 36.287V37.1127C36.8769 37.0712 35.9654 37.0504 35.1111 37.0504C34.0933 37.0504 33.1169 37.0712 32.1977 37.1127V36.287C32.6067 36.2894 33.0148 36.2493 33.4155 36.1675C33.4655 36.1454 33.5077 36.1089 33.5369 36.0626C33.566 36.0164 33.5807 35.9625 33.5791 35.9079C33.4936 35.5117 33.3702 35.1248 33.2104 34.7524L32.6262 33.2307C31.8887 33.2151 31.0682 33.2073 30.1671 33.2073C29.3777 33.2073 28.6611 33.2151 28.0171 33.2307L27.6276 34.2694C27.5263 34.5446 27.3939 34.9627 27.2355 35.5106C27.2048 35.6197 27.1873 35.7322 27.1836 35.8456C27.1795 35.9057 27.1936 35.9656 27.2242 36.0175C27.2548 36.0694 27.3004 36.1108 27.355 36.1364C27.7629 36.2392 28.1808 36.2975 28.6013 36.3103V37.1361C28.0223 37.0945 27.303 37.0738 26.4409 37.0738C25.623 37.0738 24.9686 37.0945 24.4857 37.1361L24.4805 36.3Z" fill="#F6F6F7"/>
<path d="M38.6679 37.1137V36.3502C39.0772 36.3374 39.4846 36.2896 39.8858 36.2074C39.9442 36.1805 39.9951 36.1394 40.0338 36.088C40.1154 35.917 40.163 35.7318 40.174 35.5427C40.2594 34.6608 40.2958 33.7748 40.2831 32.8889V29.4639C40.2831 28.3733 40.2666 27.4628 40.2337 26.7323C40.2413 26.2999 40.196 25.8682 40.0987 25.4469C40.0592 25.3699 39.9966 25.3072 39.9195 25.2677C39.5082 25.1684 39.0858 25.1221 38.6628 25.1301V24.3667C39.7308 24.4082 40.6829 24.429 41.5191 24.429C42.524 24.429 43.4691 24.4082 44.3754 24.3667V25.1301C43.6301 25.1846 43.1939 25.2522 43.0771 25.3275C43.0052 25.4038 42.9498 25.4942 42.9145 25.593C42.8792 25.6917 42.8647 25.7967 42.8719 25.9013C42.8382 26.2856 42.82 27.8073 42.8174 30.4818H42.9394C43.5367 29.9884 44.3944 29.1662 45.5127 28.015C46.631 26.8638 47.4965 25.9022 48.1094 25.1301L48.1223 24.7926L48.1094 24.455L48.1899 24.3667C48.8364 24.4082 49.3817 24.429 49.8361 24.429C50.2905 24.429 50.8514 24.4082 51.4461 24.3667V25.1301L50.9423 25.1847C50.6782 25.2006 50.4169 25.2467 50.1633 25.3223C49.8202 25.5055 49.5018 25.7315 49.2155 25.9948C48.6261 26.4986 47.8835 27.1919 46.9772 28.0721L45.4037 29.5964L46.2164 30.635C47.1789 31.8468 48.3283 33.2213 49.6648 34.7585C50.0817 35.2835 50.5411 35.7733 51.0384 36.223C51.3112 36.3151 51.5969 36.3633 51.8849 36.3658V37.1292L51.4123 37.1111L49.8361 37.0669C49.4077 37.0669 48.8624 37.0877 48.1899 37.1292C47.7147 36.4983 46.8915 35.4907 45.7672 34.1067C44.9155 33.0681 44.1027 32.122 43.3289 31.2686C43.2682 31.1969 43.1993 31.1324 43.1238 31.0764C43.0882 31.0672 43.0515 31.0628 43.0147 31.0635C42.9774 31.0599 42.94 31.0683 42.9078 31.0874C42.8756 31.1066 42.8503 31.1355 42.8356 31.1699C42.8049 31.411 42.7962 31.6543 42.8096 31.897L42.8408 34.6494C42.8262 35.1147 42.8593 35.5801 42.9394 36.0386C42.973 36.1201 43.0361 36.1859 43.116 36.223C43.5268 36.3159 43.9464 36.3638 44.3676 36.3658V37.1292C43.4899 37.0877 42.517 37.0669 41.449 37.0669C40.9071 37.0669 39.9775 37.0877 38.6602 37.1292" fill="#F6F6F7"/>
<path d="M53.38 37.1123V36.6241C53.682 36.4796 53.969 36.3057 54.2369 36.1048C54.3563 35.1614 54.4161 33.1706 54.4161 30.1325C54.4161 28.0708 54.3953 26.6997 54.3563 26.0298C54.333 25.6715 54.2758 25.443 54.1694 25.3521C54.0629 25.2612 53.6293 25.1781 52.8555 25.1106V24.3472C54.2473 24.4017 55.3508 24.4277 56.1584 24.4277L61.0375 24.3472C61.5568 24.3472 62.0113 24.3706 62.4241 24.4095L62.489 24.5108C62.3347 25.3905 62.241 26.2798 62.2086 27.1723H61.5049C61.5134 26.6976 61.4787 26.223 61.401 25.7546C61.3621 25.6922 61.2323 25.6403 61.0012 25.5858C60.2575 25.4538 59.5023 25.3981 58.7473 25.4196C58.2539 25.4196 57.6749 25.4404 57.0153 25.4819C56.9322 27.3567 56.8881 28.8576 56.8777 29.9533C57.5113 29.9949 58.1033 30.0157 58.659 30.0157C59.1539 30.0422 59.6502 30.0143 60.1391 29.9326C60.1937 29.9113 60.2417 29.8761 60.2786 29.8306C60.3155 29.7851 60.3399 29.7307 60.3494 29.6729C60.4229 29.2944 60.4654 28.9106 60.4766 28.5252H61.2375C61.2115 29.5638 61.1933 30.2182 61.1933 30.5272L61.2375 32.5785H60.4766C60.4377 31.7788 60.3806 31.3192 60.3156 31.2023C60.2906 31.1597 60.2564 31.1232 60.2155 31.0953C60.1747 31.0675 60.1282 31.0491 60.0793 31.0413C59.4192 30.9554 58.7531 30.9233 58.0877 30.9453C57.7605 30.9453 57.3762 30.966 56.9374 31.005C56.9374 31.3296 56.9218 31.6516 56.9218 31.9839C56.9218 33.715 56.953 35.0428 57.0153 35.9672L58.7577 36.0061C59.6761 36.0118 60.5939 35.9563 61.5049 35.8399C61.6503 35.2817 61.7905 34.6481 61.9256 33.934H62.663C62.5309 34.968 62.4512 36.008 62.4241 37.05C61.8892 37.0915 61.3673 37.1123 60.8661 37.1123C60.5416 37.1123 59.8976 37.1123 58.9446 37.0785C58.0488 37.063 57.2256 37.05 56.4804 37.05C55.4885 37.05 54.4498 37.0708 53.3644 37.1123" fill="#F6F6F7"/>
<path d="M63.8789 37.1137V36.3502C64.2763 36.3383 64.6709 36.2808 65.0552 36.1789C65.1209 36.1403 65.1706 36.0795 65.1954 36.0075C65.2885 35.5225 65.3294 35.0289 65.3174 34.5352C65.3512 33.2369 65.3694 32.2164 65.3694 31.4711C65.3694 30.4662 65.3512 29.1887 65.3304 27.6359C65.3071 26.4804 65.2499 25.7715 65.1617 25.5144C65.1391 25.4372 65.0893 25.3708 65.0214 25.3275C64.6503 25.2145 64.2665 25.1482 63.8789 25.1301V24.3667C65.0967 24.4082 65.8887 24.429 66.247 24.429L70.6795 24.3667C71.6429 24.3667 72.3492 24.4628 72.788 24.6523C73.2221 24.841 73.5855 25.1617 73.8267 25.5689C74.092 26.018 74.2252 26.5328 74.211 27.0542C74.2225 27.7406 74.0071 28.4115 73.5982 28.9628C73.1879 29.5081 72.4712 30.0014 71.4559 30.4169L73.3437 33.3329L74.816 35.5686C74.9855 35.8208 75.1941 36.0443 75.434 36.2308C75.6445 36.3207 75.8727 36.3616 76.1013 36.3502V37.0461H75.582C74.0811 37.0591 73.1178 37.0747 72.6815 37.1007C72.1622 36.2594 71.3953 35.0381 70.3809 33.4368L68.5633 30.5961C68.6134 30.4899 68.6568 30.3806 68.6931 30.2689C68.8653 30.2928 69.0386 30.3075 69.2124 30.313C69.8162 30.2894 70.3909 30.0477 70.8301 29.6327C71.1009 29.3884 71.3132 29.0862 71.4513 28.7486C71.5893 28.411 71.6494 28.0467 71.6273 27.6826C71.647 27.3694 71.6013 27.0555 71.4931 26.7609C71.385 26.4663 71.2166 26.1974 70.9989 25.9714C70.5783 25.5638 69.9603 25.3638 69.1086 25.3638C68.8489 25.3638 68.4828 25.3846 68.0206 25.4261L67.9686 28.1085L67.8907 31.5101C67.8907 32.2891 67.9167 33.2628 67.979 34.4651C67.9843 34.9744 68.0312 35.4824 68.1192 35.9841C68.1597 36.0684 68.2287 36.1355 68.314 36.1737C68.4386 36.249 68.8333 36.3035 69.511 36.3373V37.1007C68.449 37.0591 67.5116 37.0383 66.6885 37.0383C65.8229 37.0383 64.8864 37.0591 63.8789 37.1007" fill="#F6F6F7"/>
<path d="M77.5727 37.1123V36.6241C77.8759 36.4803 78.1638 36.3063 78.4322 36.1048C78.5516 35.1614 78.6114 33.1706 78.6114 30.1325C78.6114 28.0708 78.5906 26.6997 78.5465 26.0298C78.5671 25.79 78.5037 25.5504 78.3673 25.3521C78.2582 25.2586 77.8194 25.1781 77.0508 25.1106V24.3472C78.4357 24.4026 79.5349 24.4294 80.3485 24.4277L85.2276 24.3472C85.747 24.3472 86.2092 24.3706 86.6194 24.4095L86.6792 24.5108C86.5274 25.3908 86.4337 26.2799 86.3987 27.1723H85.7002C85.7056 26.6977 85.6708 26.2234 85.5964 25.7546C85.56 25.6922 85.4224 25.6403 85.1913 25.5858C84.4502 25.4538 83.6976 25.3981 82.9452 25.4196C82.4449 25.4196 81.865 25.4404 81.2054 25.4819C81.1275 27.3567 81.086 28.8576 81.0704 29.9533C81.704 29.9949 82.2977 30.0157 82.8517 30.0157C83.3475 30.042 83.8446 30.0141 84.3344 29.9326C84.3883 29.9098 84.4358 29.8742 84.4729 29.829C84.51 29.7838 84.5355 29.7302 84.5473 29.6729C84.6164 29.2938 84.658 28.9103 84.6719 28.5252H85.4328C85.4016 29.5638 85.386 30.2182 85.386 30.5272L85.4328 32.5785H84.6719C84.6278 31.7788 84.5733 31.3192 84.5084 31.2023C84.4836 31.1595 84.4495 31.1228 84.4086 31.0949C84.3677 31.067 84.321 31.0487 84.2721 31.0413C83.611 30.9552 82.9441 30.923 82.2778 30.9453C81.9507 30.9453 81.5741 30.966 81.1353 31.005C81.1353 31.3296 81.1171 31.6516 81.1171 31.9839C81.1171 33.715 81.1466 35.0428 81.2054 35.9672L82.9659 35.9957C83.8818 36.0013 84.797 35.9457 85.7054 35.8296C85.8586 35.2713 85.9988 34.6377 86.1339 33.9236H86.8687C86.7366 34.9576 86.6569 35.9976 86.6298 37.0396C86.0897 37.0811 85.5756 37.1019 85.0718 37.1019C84.7472 37.1019 84.1085 37.1019 83.1503 37.0682C82.2571 37.0526 81.4391 37.0396 80.6861 37.0396C79.6994 37.0396 78.6607 37.0604 77.5701 37.1019" fill="#F6F6F7"/>
<path d="M88.0703 37.1137V36.3502C88.4685 36.3383 88.8641 36.2808 89.2492 36.1789C89.3172 36.141 89.3696 36.0803 89.3972 36.0075C89.4918 35.5227 89.5336 35.029 89.5218 34.5352C89.5504 33.2369 89.566 32.2164 89.566 31.4711C89.566 30.4662 89.566 29.1887 89.527 27.6359C89.5063 26.4804 89.4517 25.7715 89.3608 25.5144C89.3401 25.4363 89.2899 25.3692 89.2206 25.3275C88.8496 25.214 88.4657 25.1477 88.0781 25.1301V24.3667C89.302 24.4082 90.0905 24.429 90.4436 24.429L94.8839 24.3667C95.8473 24.3667 96.5458 24.4628 96.9898 24.6523C97.4235 24.8416 97.7868 25.1622 98.0285 25.5689C98.2935 26.0182 98.4276 26.5327 98.4154 27.0542C98.4266 27.7413 98.2092 28.4127 97.7974 28.9628C97.3871 29.5081 96.6756 30.0014 95.6577 30.4169L97.5429 33.3329L99.0152 35.5686C99.1859 35.8215 99.3964 36.0451 99.6384 36.2308C99.8471 36.3206 100.074 36.3614 100.301 36.3502V37.0461H99.7812C98.2803 37.0591 97.3118 37.0747 96.8859 37.1007C96.3666 36.2594 95.5971 35.0381 94.5775 33.4368L92.7599 30.5961C92.812 30.4904 92.8563 30.3811 92.8923 30.2689C93.0645 30.2929 93.2378 30.3077 93.4116 30.313C94.018 30.291 94.5958 30.0492 95.0371 29.6327C95.307 29.3878 95.5185 29.0855 95.656 28.748C95.7936 28.4105 95.8536 28.0464 95.8317 27.6826C95.85 27.3698 95.8039 27.0565 95.6963 26.7621C95.5886 26.4678 95.4217 26.1987 95.2059 25.9714C94.7826 25.5638 94.1517 25.3638 93.3103 25.3638C93.0507 25.3638 92.682 25.3846 92.2275 25.4261L92.1678 28.1085L92.0925 31.5101C92.0925 32.2787 92.1228 33.2637 92.1834 34.4651C92.1857 34.9745 92.2326 35.4828 92.3236 35.9841C92.3629 36.0701 92.4335 36.1379 92.521 36.1737C92.6404 36.249 93.0403 36.3035 93.7154 36.3373V37.1007C92.6543 37.0591 91.7143 37.0383 90.8955 37.0383C90.0178 37.0383 89.0795 37.0591 88.0807 37.1007" fill="#F6F6F7"/>
<path d="M101.763 37.1123V36.6241C102.065 36.4796 102.352 36.3057 102.62 36.1048C102.739 35.1614 102.799 33.1706 102.799 30.1325C102.799 28.0708 102.778 26.6997 102.739 26.0298C102.716 25.6715 102.659 25.443 102.555 25.3521C102.451 25.2612 102.012 25.1781 101.238 25.1106V24.3472C102.63 24.4017 103.734 24.4277 104.541 24.4277L109.42 24.3472C109.94 24.3472 110.394 24.3706 110.807 24.4095L110.872 24.5108C110.717 25.3905 110.624 26.2798 110.591 27.1723H109.888C109.896 26.6976 109.861 26.223 109.784 25.7546C109.745 25.6922 109.615 25.6403 109.384 25.5858C108.64 25.4538 107.885 25.3981 107.13 25.4196C106.637 25.4196 106.058 25.4404 105.398 25.4819C105.318 27.3567 105.273 28.8576 105.263 29.9533C105.893 29.9949 106.486 30.0157 107.042 30.0157C107.537 30.0422 108.033 30.0143 108.522 29.9326C108.577 29.9117 108.625 29.8767 108.662 29.8311C108.699 29.7855 108.723 29.7309 108.732 29.6729C108.806 29.2945 108.847 28.9106 108.857 28.5252H109.62C109.594 29.5638 109.579 30.2182 109.579 30.5272L109.62 32.5785H108.857C108.818 31.7788 108.763 31.3192 108.701 31.2023C108.675 31.1599 108.64 31.1235 108.599 31.0957C108.558 31.0679 108.511 31.0494 108.462 31.0413C107.802 30.9554 107.136 30.9233 106.471 30.9453C106.143 30.9453 105.759 30.966 105.32 31.005C105.32 31.3296 105.305 31.6516 105.305 31.9839C105.305 33.7133 105.338 35.0402 105.398 35.9672L107.151 35.9957C108.069 36.0014 108.987 35.9459 109.898 35.8296C110.044 35.2713 110.184 34.6377 110.319 33.9236H111.056C110.924 34.9575 110.845 35.9975 110.82 37.0396C110.282 37.0811 109.76 37.1019 109.262 37.1019C108.94 37.1019 108.296 37.1019 107.343 37.0682C106.447 37.0526 105.624 37.0396 104.879 37.0396C103.887 37.0396 102.848 37.0604 101.763 37.1019" fill="#F6F6F7"/>
<path d="M116.832 21.158V20.1401C118.442 20.1921 119.847 20.2206 121.059 20.2206C121.838 20.2206 122.924 20.1921 124.336 20.1401V21.158C123.817 21.1278 123.296 21.193 122.799 21.3502C122.693 21.3877 122.602 21.4588 122.539 21.5527C122.434 21.7246 122.373 21.9201 122.363 22.1214C122.319 22.5758 122.275 23.8767 122.246 26.0164C122.22 27.5068 122.208 29.025 122.21 30.5709C122.21 31.8346 122.353 32.7659 122.638 33.3649C122.896 33.9291 123.331 34.394 123.877 34.6892C124.671 35.1019 125.555 35.3141 126.45 35.3072C127.722 35.3072 128.691 35.089 129.358 34.6606C130.01 34.2597 130.49 33.6316 130.706 32.8975C130.934 32.1444 131.048 30.4999 131.046 27.9638V23.482C131.046 22.4745 130.994 21.8669 130.906 21.6644C130.882 21.6061 130.847 21.5532 130.802 21.5086C130.757 21.464 130.704 21.4287 130.646 21.4047C130.459 21.2905 129.884 21.2039 128.919 21.145V20.1401C129.937 20.1921 130.875 20.2206 131.734 20.2206C132.472 20.2206 133.38 20.1921 134.463 20.1401V21.158C133.684 21.158 133.199 21.2437 133.001 21.4177C132.804 21.5917 132.695 22.0565 132.656 22.7991C132.568 24.6064 132.52 26.6525 132.513 28.9376C132.513 30.4021 132.492 31.3577 132.456 31.8095C132.405 32.8066 132.139 33.7809 131.677 34.6658C131.158 35.5213 130.391 36.1987 129.478 36.6081C128.456 37.1274 127.184 37.3828 125.661 37.3741C124.078 37.3741 122.763 37.1317 121.714 36.647C120.675 36.1614 119.922 35.5512 119.483 34.8112C119.044 34.0712 118.821 32.9935 118.821 31.5576L118.881 26.1046C118.881 25.6684 118.861 24.5579 118.821 22.7731C118.836 22.3851 118.775 21.998 118.642 21.6332C118.575 21.5195 118.476 21.4289 118.356 21.3735C117.858 21.249 117.348 21.1767 116.835 21.158" fill="#F6F6F7"/>
<path d="M135.598 37.1137V36.3502C136.025 36.361 136.451 36.313 136.865 36.2074C136.951 36.1499 137.015 36.0661 137.049 35.9685C137.114 35.8231 137.156 35.3142 137.166 34.4339C137.2 32.9798 137.218 31.8866 137.218 31.1466L137.2 27.3035C137.2 26.2856 137.167 25.6971 137.101 25.5378C137.071 25.4543 137.012 25.3842 136.935 25.3404C136.815 25.2677 136.371 25.1976 135.598 25.1301V24.3667C136.519 24.3979 137.208 24.4109 137.649 24.4109C138.137 24.4109 138.688 24.3979 139.324 24.3667C140.688 26.1497 142.229 28.086 143.946 30.1754C145.095 31.5724 146.083 32.7253 146.909 33.6341V30.0352C146.909 28.6719 146.909 27.4931 146.865 26.5063C146.877 26.1387 146.83 25.7714 146.727 25.4183C146.707 25.3807 146.679 25.3476 146.646 25.3212C146.612 25.2948 146.573 25.2757 146.532 25.2651C146.121 25.1987 145.707 25.1562 145.291 25.1379V24.3745C145.932 24.4057 146.574 24.4186 147.207 24.4186C148.08 24.4186 148.869 24.4057 149.578 24.3745V25.1379C149.177 25.1457 148.778 25.1935 148.386 25.2807C148.317 25.3114 148.256 25.3555 148.204 25.4106C148.155 25.4714 148.12 25.5423 148.101 25.6183C148.037 26.0828 148.012 26.5518 148.025 27.0205L147.991 30.6558L147.976 34.3171C147.976 35.296 147.999 36.2801 148.036 37.2617L147.924 37.3889C147.202 37.2539 146.698 37.1656 146.4 37.1292C144.878 35.3981 143.042 33.2343 140.892 30.6376C139.81 29.3185 138.933 28.2089 138.262 27.3087V30.8142C138.262 31.7749 138.277 32.9339 138.306 34.2911C138.327 35.2908 138.363 35.8621 138.428 36.0153C138.455 36.0808 138.503 36.135 138.566 36.1685C138.981 36.2848 139.409 36.346 139.841 36.3502V37.1137C138.888 37.0721 138.207 37.0513 137.789 37.0513C137.449 37.0513 136.717 37.0721 135.598 37.1137Z" fill="#F6F6F7"/>
<path d="M150.746 37.1123V36.3489C151.554 36.3074 152.013 36.2399 152.117 36.1412C152.261 35.9303 152.33 35.6768 152.312 35.4219C152.359 34.6239 152.382 33.1343 152.382 30.9531C152.382 30.117 152.371 28.9052 152.348 27.3178C152.362 26.7214 152.339 26.1247 152.278 25.5313C152.248 25.4317 152.18 25.3478 152.089 25.2976C151.65 25.1853 151.199 25.1277 150.746 25.1262V24.3628C151.959 24.4043 152.891 24.4251 153.535 24.4251C154.646 24.4251 155.654 24.4043 156.544 24.3628V25.1262C155.739 25.1729 155.282 25.2405 155.181 25.321C155.046 25.4781 154.974 25.6798 154.979 25.887C154.932 26.4739 154.911 27.6476 154.911 29.4237C154.911 31.784 154.911 33.4303 154.937 34.3573C154.963 35.2843 155.007 35.84 155.095 36.014C155.144 36.1033 155.225 36.1704 155.321 36.2009C155.724 36.2824 156.133 36.3293 156.544 36.3411V37.1046L155.506 37.0786C154.846 37.0552 154.254 37.0422 153.735 37.0422L150.746 37.1123Z" fill="#F6F6F7"/>
<path d="M157.296 25.1301V24.3667C158.417 24.4056 159.446 24.429 160.375 24.429C161.206 24.429 162.11 24.4056 163.096 24.3667V25.1301C162.681 25.1366 162.268 25.1933 161.866 25.2989C161.806 25.3239 161.755 25.3666 161.72 25.4214C161.685 25.4762 161.668 25.5404 161.671 25.6053C161.671 25.7767 161.915 26.4934 162.414 27.7475L164.919 34.0133L166.929 28.9446C167.667 27.0802 168.034 25.9602 168.033 25.5845C168.035 25.5214 168.019 25.459 167.985 25.4053C167.952 25.3517 167.903 25.3092 167.846 25.2833C167.421 25.1814 166.985 25.1299 166.547 25.1301V24.3667C167.633 24.4056 168.365 24.429 168.726 24.429C169.087 24.429 169.796 24.4056 170.78 24.3667V25.1301C170.188 25.1898 169.84 25.2626 169.741 25.3482C169.598 25.4651 169.258 26.161 168.703 27.4256L166 34.1249C165.548 35.1642 165.15 36.2259 164.808 37.3058H163.509L160.373 29.599C159.656 27.8436 159.153 26.6535 158.864 26.0286C158.775 25.7732 158.626 25.5426 158.43 25.356C158.311 25.2729 157.932 25.2002 157.293 25.1405" fill="#F6F6F7"/>
<path d="M172.505 37.1123V36.6241C172.806 36.4796 173.092 36.3057 173.359 36.1048C173.479 35.1614 173.538 33.1706 173.538 30.1325C173.538 28.0708 173.518 26.6997 173.479 26.0298C173.496 25.7895 173.431 25.5504 173.294 25.3521C173.193 25.2586 172.754 25.1781 171.98 25.1106V24.3472C173.372 24.4017 174.476 24.4277 175.283 24.4277L180.163 24.3472C180.682 24.3472 181.136 24.3706 181.547 24.4095L181.611 24.5108C181.457 25.3904 181.364 26.2797 181.334 27.1723H180.627C180.636 26.6977 180.602 26.2232 180.526 25.7546C180.487 25.6922 180.357 25.6403 180.124 25.5858C179.381 25.4539 178.626 25.3982 177.872 25.4196C177.379 25.4196 176.8 25.4404 176.14 25.4819C176.057 27.3567 176.013 28.8576 176.003 29.9533C176.636 29.9949 177.228 30.0157 177.784 30.0157C178.279 30.0422 178.775 30.0143 179.264 29.9326C179.319 29.9113 179.367 29.8761 179.404 29.8306C179.441 29.7851 179.465 29.7307 179.474 29.6729C179.546 29.2942 179.588 28.9105 179.599 28.5252H180.362C180.336 29.5638 180.318 30.2182 180.318 30.5272L180.362 32.5785H179.599C179.56 31.7788 179.506 31.3192 179.441 31.2023C179.415 31.1594 179.381 31.1227 179.339 31.0948C179.298 31.067 179.251 31.0487 179.202 31.0413C178.542 30.9553 177.876 30.9232 177.21 30.9453C176.886 30.9453 176.501 30.966 176.062 31.005C176.062 31.3296 176.047 31.6516 176.047 31.9839C176.047 33.715 176.078 35.0428 176.14 35.9672L177.893 35.9957C178.811 36.0014 179.728 35.9459 180.638 35.8296C180.786 35.2713 180.926 34.6377 181.061 33.9236H181.796C181.665 34.9576 181.586 35.9976 181.56 37.0396C181.022 37.0811 180.503 37.1019 180.002 37.1019C179.677 37.1019 179.033 37.1019 178.08 37.0682C177.187 37.0526 176.364 37.0396 175.618 37.0396C174.623 37.0396 173.584 37.0604 172.502 37.1019" fill="#F6F6F7"/>
<path d="M183.006 37.1137V36.3502C183.405 36.3385 183.8 36.281 184.185 36.1789C184.251 36.1403 184.301 36.0795 184.326 36.0075C184.419 35.5225 184.461 35.029 184.45 34.5352C184.481 33.2369 184.497 32.2164 184.497 31.4711C184.497 30.4662 184.481 29.1887 184.461 27.6359C184.437 26.4804 184.378 25.7715 184.292 25.5144C184.269 25.4372 184.219 25.3708 184.152 25.3275C183.78 25.2143 183.395 25.148 183.006 25.1301V24.3667C184.227 24.4082 185.016 24.429 185.375 24.429L189.81 24.3667C190.773 24.3667 191.477 24.4628 191.916 24.6523C192.349 24.8413 192.713 25.162 192.954 25.5689C193.22 26.018 193.353 26.5328 193.339 27.0542C193.35 27.7406 193.135 28.4115 192.726 28.9628C192.315 29.5081 191.599 30.0014 190.581 30.4169L192.487 33.3329L193.959 35.5686C194.129 35.8208 194.337 36.0443 194.577 36.2308C194.787 36.3208 195.014 36.3616 195.242 36.3502V37.0461H194.723C193.224 37.0591 192.261 37.0747 191.827 37.1007C191.308 36.2594 190.54 35.0381 189.524 33.4368L187.706 30.5961C187.75 30.4985 187.785 30.3978 187.813 30.2949C187.985 30.3186 188.158 30.3333 188.332 30.339C188.936 30.3153 189.511 30.0736 189.95 29.6587C190.221 29.4144 190.433 29.1122 190.571 28.7746C190.709 28.437 190.769 28.0726 190.747 27.7086C190.767 27.3954 190.721 27.0815 190.613 26.7869C190.505 26.4923 190.336 26.2234 190.119 25.9974C189.698 25.5897 189.08 25.3898 188.228 25.3898C187.969 25.3898 187.6 25.4106 187.14 25.4521L187.086 28.1344L187.011 31.5361C187.011 32.3151 187.036 33.2888 187.099 34.491C187.106 35.0002 187.152 35.508 187.236 36.0101C187.278 36.0932 187.347 36.1599 187.431 36.1996C187.558 36.2749 187.951 36.3295 188.628 36.3632V37.1266C187.569 37.0851 186.631 37.0643 185.808 37.0643C184.936 37.0643 183.991 37.0851 182.996 37.1266" fill="#F6F6F7"/>
<path d="M196.74 33.2693H197.519C197.499 33.7962 197.528 34.3239 197.605 34.8455C197.723 35.0892 197.902 35.2985 198.124 35.4531C198.455 35.7302 198.838 35.9385 199.251 36.0659C199.707 36.2245 200.186 36.3045 200.669 36.3022C201.397 36.3373 202.111 36.0951 202.668 35.6245C202.908 35.412 203.1 35.1498 203.229 34.8562C203.358 34.5626 203.422 34.2444 203.416 33.9237C203.433 33.6634 203.397 33.4023 203.311 33.1561C203.225 32.9098 203.09 32.6834 202.915 32.4903C202.582 32.158 201.941 31.9217 201.004 31.7814C199.607 31.5763 198.667 31.353 198.181 31.1089C197.697 30.8692 197.296 30.4891 197.031 30.0183C196.735 29.4844 196.589 28.8808 196.608 28.2708C196.597 27.7344 196.696 27.2014 196.898 26.7045C197.1 26.2076 197.402 25.7571 197.784 25.3807C198.563 24.5861 199.812 24.1897 201.531 24.1914C202.132 24.185 202.732 24.2372 203.323 24.3472C203.859 24.4572 204.382 24.627 204.881 24.8536L204.971 25.0743C204.881 25.4156 204.815 25.7627 204.771 26.113C204.733 26.4194 204.696 26.9569 204.668 27.7125H203.912C203.881 26.7829 203.839 26.2584 203.78 26.1545C203.559 25.869 203.263 25.6505 202.925 25.5235C202.431 25.2961 201.893 25.1834 201.349 25.1938C200.668 25.1539 199.996 25.3686 199.464 25.7962C199.246 25.9916 199.074 26.2324 198.959 26.5015C198.844 26.7707 198.79 27.0617 198.799 27.3542C198.792 27.7111 198.888 28.0626 199.074 28.3669C199.256 28.6539 199.523 28.8765 199.838 29.003C200.527 29.2232 201.236 29.3788 201.954 29.4678C202.632 29.5505 203.3 29.6992 203.948 29.9119C204.489 30.121 204.945 30.5025 205.247 30.9973C205.561 31.5555 205.714 32.1903 205.688 32.8305C205.701 33.4366 205.579 34.0379 205.331 34.5912C205.083 35.1444 204.716 35.6357 204.255 36.0296C203.299 36.8795 201.991 37.3045 200.331 37.3045C199.655 37.312 198.981 37.2396 198.321 37.089C197.67 36.9258 197.041 36.6834 196.449 36.3671C196.548 35.9892 196.62 35.6048 196.665 35.2168C196.709 34.7364 196.735 34.0951 196.74 33.2797" fill="#F6F6F7"/>
<path d="M207.199 37.1123V36.3489C208.007 36.3074 208.466 36.2399 208.57 36.1412C208.714 35.9303 208.783 35.6768 208.765 35.4219C208.812 34.6239 208.834 33.1343 208.833 30.9531C208.833 30.117 208.822 28.9052 208.801 27.3178C208.815 26.7214 208.792 26.1247 208.731 25.5313C208.702 25.4319 208.635 25.3479 208.544 25.2976C208.105 25.1856 207.653 25.1281 207.199 25.1262V24.3628C208.412 24.4043 209.344 24.4251 209.991 24.4251C211.099 24.4251 212.107 24.4043 212.998 24.3628V25.1262C212.193 25.1729 211.736 25.2405 211.634 25.321C211.504 25.4774 211.435 25.6757 211.44 25.8792C211.39 26.4661 211.369 27.6398 211.369 29.4159C211.369 31.7762 211.369 33.4225 211.398 34.3495C211.427 35.2765 211.466 35.8322 211.554 36.0062C211.602 36.0962 211.684 36.1635 211.782 36.1931C212.184 36.2747 212.593 36.3217 213.003 36.3334V37.0968L211.964 37.0708C211.305 37.0483 210.714 37.0362 210.193 37.0345L207.199 37.1123Z" fill="#F6F6F7"/>
<path d="M216.659 37.1124V36.349C217.013 36.348 217.366 36.3184 217.716 36.2607C217.785 36.2607 217.854 36.2467 217.919 36.2195C217.983 36.1923 218.041 36.1524 218.089 36.1022C218.138 36.052 218.176 35.9926 218.201 35.9275C218.226 35.8624 218.237 35.7929 218.235 35.7232C218.279 35.4635 218.318 34.5053 218.344 32.8669C218.36 31.6932 218.373 30.4935 218.373 29.2731C218.373 26.8686 218.365 25.6447 218.349 25.6014C218.334 25.5573 218.123 25.5339 217.721 25.5339C216.898 25.5339 216.189 25.5573 215.599 25.604C215.403 25.6059 215.207 25.6374 215.02 25.6975C214.993 25.715 214.97 25.7379 214.952 25.7647C214.934 25.7915 214.922 25.8217 214.916 25.8533C214.89 25.9312 214.841 26.4609 214.763 27.4503H214.002C214.013 26.287 213.983 25.2881 213.914 24.4537L214.013 24.3784C215.869 24.4667 217.684 24.5186 219.442 24.5186C221.2 24.5186 223.163 24.4667 225.334 24.3784L225.433 24.5238C225.319 25.3548 225.243 26.3285 225.191 27.4503H224.456C224.402 26.4272 224.355 25.8767 224.301 25.791C224.265 25.7491 224.221 25.7151 224.171 25.691C224.122 25.6668 224.068 25.6532 224.012 25.6508C223.078 25.5497 222.137 25.5107 221.198 25.5339C221.081 25.5339 221.008 25.5495 220.987 25.5885C220.947 25.7452 220.934 25.9077 220.948 26.0688L220.894 32.1788C220.894 33.9497 220.91 35.0368 220.943 35.4402C220.972 35.8426 221.039 36.0841 221.156 36.1698C221.229 36.2243 221.696 36.2893 222.551 36.362V37.1254C221.686 37.0838 220.759 37.0631 219.785 37.0631C218.5 37.0631 217.461 37.0838 216.669 37.1254" fill="#F6F6F7"/>
<path d="M229.272 37.1118V36.3484C229.7 36.3744 230.128 36.3188 230.534 36.1848C230.61 36.1417 230.674 36.0813 230.721 36.0086C230.768 35.9359 230.798 35.853 230.807 35.7667C230.817 35.7062 230.843 35.1158 230.885 33.9958V33.3311C230.913 32.8168 230.874 32.301 230.771 31.7965C230.369 30.9643 229.914 30.1593 229.407 29.3868C228.628 28.1144 228.029 27.2108 227.613 26.6629C227.332 26.2475 226.981 25.8846 226.574 25.5905C226.454 25.5264 226.319 25.495 226.182 25.4996L225.762 25.5204V24.8011C226.741 24.6271 227.714 24.4194 228.675 24.1753C228.962 24.3041 229.225 24.4796 229.454 24.6946C229.929 25.2585 230.348 25.8673 230.706 26.5123C231.225 27.4107 231.913 28.7116 232.736 30.4073L233.463 29.1349C234.123 27.9872 234.994 26.3946 236.076 24.3571H237.517V24.8089C237.21 25.1932 236.624 26.0657 235.774 27.4237C234.438 29.5703 233.694 30.827 233.544 31.194C233.418 31.6529 233.369 32.1292 233.398 32.604C233.398 34.0244 233.43 35.0241 233.489 35.6083C233.484 35.7158 233.502 35.8231 233.542 35.923C233.582 36.0229 233.643 36.1131 233.72 36.1874C233.85 36.2653 234.312 36.3172 235.107 36.3406V37.104C234.248 37.0625 233.37 37.0417 232.482 37.0417C231.504 37.0417 230.433 37.0625 229.27 37.104" fill="#F6F6F7"/>
</g>
<defs>
<clipPath id="clip0_9107_37866">
<rect width="237.038" height="17.2366" fill="white" transform="translate(0.480469 20.1401)"/>
</clipPath>
</defs>
</svg>
