<svg width="20" height="18" viewBox="0 0 20 18" fill="none" xmlns="http://www.w3.org/2000/svg">
<path d="M10.7622 13.1667H16.7404M10.7622 13.1667L9.16797 16.5M10.7622 13.1667L13.1499 8.17419C13.3423 7.77189 13.4385 7.57075 13.5701 7.50718C13.6846 7.4519 13.818 7.4519 13.9325 7.50718C14.0641 7.57075 14.1603 7.77189 14.3527 8.17419L16.7404 13.1667M16.7404 13.1667L18.3346 16.5M1.66797 3.16667H6.66797M6.66797 3.16667H9.58464M6.66797 3.16667V1.5M9.58464 3.16667H11.668M9.58464 3.16667C9.17119 5.63107 8.21179 7.86349 6.80593 9.73702M8.33464 10.6667C7.8242 10.4373 7.30351 10.1184 6.80593 9.73702M6.80593 9.73702C5.67882 8.87314 4.67027 7.68886 4.16797 6.5M6.80593 9.73702C5.46869 11.5191 3.7275 12.9765 1.66797 14" stroke="#3F4B5F" stroke-width="1.5" stroke-linecap="round" stroke-linejoin="round"/>
</svg>
