<svg width="20" height="20" viewBox="0 0 20 20" fill="none" xmlns="http://www.w3.org/2000/svg">
    <path d="M2.84324 8.95373C2.34712 8.7608 2.09906 8.66433 2.02664 8.52533C1.96386 8.40483 1.96377 8.26129 2.02641 8.14071C2.09867 8.00163 2.34662 7.90486 2.84251 7.71134L16.9156 2.21939C17.3633 2.0447 17.5871 1.95736 17.7301 2.00514C17.8543 2.04663 17.9518 2.1441 17.9933 2.26831C18.0411 2.41133 17.9537 2.63516 17.779 3.08281L12.2871 17.1559C12.0936 17.6518 11.9968 17.8998 11.8577 17.972C11.7372 18.0347 11.5936 18.0346 11.4731 17.9718C11.3341 17.8994 11.2376 17.6513 11.0447 17.1552L8.85462 11.5235C8.81545 11.4228 8.79587 11.3725 8.76563 11.3301C8.73882 11.2925 8.70595 11.2596 8.66837 11.2328C8.62597 11.2026 8.57562 11.183 8.47491 11.1438L2.84324 8.95373Z" stroke="#9EA3AA" stroke-linecap="round" stroke-linejoin="round"/>
    </svg>
    