<svg width="24" height="24" viewBox="0 0 24 24" fill="none" xmlns="http://www.w3.org/2000/svg">
<rect width="24" height="24" rx="12" fill="#3E4147"/>
<path d="M18 15.5003C18 15.5003 17.2064 15.2264 16.6667 15.0932C13.2531 14.2505 10.7469 16.7502 7.33333 15.9075C6.79361 15.7742 6 15.5003 6 15.5003M18 12.0003C18 12.0003 17.2064 11.7264 16.6667 11.5932C13.2531 10.7505 10.7469 13.2502 7.33333 12.4075C6.79361 12.2742 6 12.0003 6 12.0003M18 8.50033C18 8.50033 17.2064 8.22644 16.6667 8.09319C13.2531 7.25047 10.7469 9.75018 7.33333 8.90746C6.79361 8.77421 6 8.50033 6 8.50033" stroke="#9EA3AA" stroke-width="1.2" stroke-linecap="round" stroke-linejoin="round"/>
</svg>
