<svg width="16" height="16" viewBox="0 0 16 16" fill="none" xmlns="http://www.w3.org/2000/svg">
<g id="Maps + Travel/globe-01" clip-path="url(#clip0_9673_6352)">
<path id="Icon" d="M1.33594 7.9987H14.6693M1.33594 7.9987C1.33594 11.6806 4.32071 14.6654 8.0026 14.6654M1.33594 7.9987C1.33594 4.3168 4.32071 1.33203 8.0026 1.33203M14.6693 7.9987C14.6693 11.6806 11.6845 14.6654 8.0026 14.6654M14.6693 7.9987C14.6693 4.3168 11.6845 1.33203 8.0026 1.33203M8.0026 1.33203C9.67012 3.1576 10.6178 5.52672 10.6693 7.9987C10.6178 10.4707 9.67012 12.8398 8.0026 14.6654M8.0026 1.33203C6.33508 3.1576 5.38744 5.52672 5.33594 7.9987C5.38744 10.4707 6.33508 12.8398 8.0026 14.6654" stroke="#6F87A1" stroke-width="1.5" stroke-linecap="round" stroke-linejoin="round"/>
</g>
<defs>
<clipPath id="clip0_9673_6352">
<rect width="16" height="16" fill="white"/>
</clipPath>
</defs>
</svg>
