<svg width="533" height="390" viewBox="0 0 533 390" fill="none" xmlns="http://www.w3.org/2000/svg">
<path d="M309.796 324.231C269.289 328.316 106.468 343.925 51.7723 310.495C-2.92334 277.065 63.6614 197.71 99.0987 169.348C134.536 140.986 193.014 93.0026 236.807 84.1858C280.599 75.369 355.871 85.2217 405.608 109.28C455.345 133.337 486.138 180.945 486.284 213.824C486.43 246.704 439.544 298.582 393.297 310.541C366.001 317.678 338.034 322.263 309.796 324.231Z" fill="#EBF1FF"/>
<path d="M299.9 328.365L299.887 328.364C278.801 326.541 225.925 321.78 172.022 312.335C145.071 307.612 117.873 301.72 94.2688 294.442C70.6522 287.16 50.685 278.506 38.1547 268.283C25.6605 258.089 21.3832 246.681 22.5575 234.994C23.7359 223.267 30.4111 211.185 39.9875 199.71C59.1367 176.764 89.7142 156.447 110.2 146.536C111.856 145.735 113.555 144.911 115.294 144.068C135.128 134.453 160.213 122.293 185.854 112.215C213.754 101.249 242.253 92.7716 265.326 92.6962C288.426 92.6206 318.82 98.3172 349.312 107.977C379.8 117.636 410.346 131.245 433.755 146.968C457.146 162.68 474.712 182.981 485.759 203.161C496.813 223.353 501.315 243.371 498.659 258.525C497.339 266.059 492.846 274.196 486.032 282.22C479.223 290.239 470.123 298.114 459.641 305.124C438.671 319.148 412.228 329.671 387.647 330.976L387.646 330.976C358.517 332.595 329.128 331.721 299.9 328.365Z" stroke="#135DFF" stroke-width="0.967601"/>
<circle cx="45.3914" cy="150.188" r="8.85286" transform="rotate(-2.79614 45.3914 150.188)" fill="#EF5DA8"/>
<circle cx="191.376" cy="74.1175" r="8.85286" transform="rotate(-2.79614 191.376 74.1175)" fill="#EF5DA8"/>
<circle cx="222.68" cy="352.282" r="8.85286" transform="rotate(-2.79614 222.68 352.282)" fill="#EF5DA8"/>
<circle cx="375.415" cy="172.477" r="8.85286" transform="rotate(-2.79614 375.415 172.477)" fill="#135DFF"/>
<circle cx="387.208" cy="61.1106" r="3.44278" transform="rotate(-2.79614 387.208 61.1106)" fill="#EF5DA8"/>
<circle cx="125.13" cy="119.212" r="3.44278" transform="rotate(-2.79614 125.13 119.212)" fill="#EF5DA8"/>
<circle cx="67.3488" cy="347.556" r="3.44278" transform="rotate(-2.79614 67.3488 347.556)" fill="#EF5DA8"/>
<circle cx="91.0129" cy="227.236" r="3.44278" transform="rotate(-2.79614 91.0129 227.236)" fill="#EF5DA8"/>
<circle cx="449.075" cy="299.361" r="3.44278" transform="rotate(-2.79614 449.075 299.361)" fill="#EF5DA8"/>
<circle cx="519.368" cy="276.735" r="8.85286" transform="rotate(-2.79614 519.368 276.735)" fill="#EF5DA8"/>
<path d="M187.624 96.5395C223.181 52.1802 289.701 49.3747 328.867 90.5825L432.32 199.43C442.523 210.165 448.533 224.207 449.256 239C450.921 273.1 424.628 302.093 390.529 303.759L141.653 315.914C105.274 317.691 75.2846 287.725 77.0328 251.345C77.6683 238.12 82.542 225.451 90.9334 215.21L162.894 127.392L187.624 96.5395Z" fill="#145DFF"/>
<circle cx="216.52" cy="168.482" r="39.2237" transform="rotate(-2.79614 216.52 168.482)" fill="white"/>
<circle cx="223.251" cy="168.398" r="18.3466" transform="rotate(-2.79614 223.251 168.398)" fill="black"/>
<circle cx="314.419" cy="168.264" r="39.2237" transform="rotate(-2.79614 314.419 168.264)" fill="white"/>
<circle cx="306.97" cy="169.047" r="18.3466" transform="rotate(-2.79614 306.97 169.047)" fill="black"/>
<g filter="url(#filter0_f_3875_80466)">
<circle cx="174.203" cy="223.972" r="24.5501" transform="rotate(-2.79614 174.203 223.972)" fill="url(#paint0_linear_3875_80466)" fill-opacity="0.5"/>
</g>
<g filter="url(#filter1_f_3875_80466)">
<circle cx="371.531" cy="210.753" r="24.5501" transform="rotate(-2.79614 371.531 210.753)" fill="url(#paint1_linear_3875_80466)" fill-opacity="0.5"/>
</g>
<path d="M246.797 118.359C246.797 118.359 240.481 126.562 223.176 124.204C205.871 121.846 190.035 108.369 190.035 108.369" stroke="black" stroke-width="3.94294"/>
<path d="M272.479 146.31C272.479 146.31 272.944 135.967 288.468 127.967C303.993 119.967 324.696 121.915 324.696 121.915" stroke="black" stroke-width="3.94294"/>
<path d="M206.715 255.892C206.715 255.892 222.124 233.152 238.657 223.929C255.191 214.705 265.243 217.624 265.243 217.624C265.243 217.624 279.291 218.754 286.486 223.474C290.107 225.849 291.984 227.548 294.707 230.916" stroke="black" stroke-width="5.52012"/>
<defs>
<filter id="filter0_f_3875_80466" x="146.498" y="196.268" width="55.4103" height="55.4103" filterUnits="userSpaceOnUse" color-interpolation-filters="sRGB">
<feFlood flood-opacity="0" result="BackgroundImageFix"/>
<feBlend mode="normal" in="SourceGraphic" in2="BackgroundImageFix" result="shape"/>
<feGaussianBlur stdDeviation="1.57718" result="effect1_foregroundBlur_3875_80466"/>
</filter>
<filter id="filter1_f_3875_80466" x="343.826" y="183.049" width="55.4103" height="55.4103" filterUnits="userSpaceOnUse" color-interpolation-filters="sRGB">
<feFlood flood-opacity="0" result="BackgroundImageFix"/>
<feBlend mode="normal" in="SourceGraphic" in2="BackgroundImageFix" result="shape"/>
<feGaussianBlur stdDeviation="1.57718" result="effect1_foregroundBlur_3875_80466"/>
</filter>
<linearGradient id="paint0_linear_3875_80466" x1="174.203" y1="199.422" x2="174.203" y2="248.522" gradientUnits="userSpaceOnUse">
<stop stop-color="#F24949"/>
<stop offset="0.703125" stop-color="#F24949" stop-opacity="0.484375"/>
<stop offset="1" stop-color="#F24949" stop-opacity="0"/>
</linearGradient>
<linearGradient id="paint1_linear_3875_80466" x1="371.531" y1="186.203" x2="371.531" y2="235.303" gradientUnits="userSpaceOnUse">
<stop stop-color="#F24949"/>
<stop offset="0.703125" stop-color="#F24949" stop-opacity="0.484375"/>
<stop offset="1" stop-color="#F24949" stop-opacity="0"/>
</linearGradient>
</defs>
</svg>
