<svg width="525" height="371" viewBox="0 0 525 371" fill="none" xmlns="http://www.w3.org/2000/svg">
<path d="M300.026 319.059C258.694 321.197 92.5913 328.972 38.7115 292.315C-15.1684 255.658 56.3769 178.383 93.7663 151.342C131.156 124.301 192.914 78.479 237.818 71.6982C282.721 64.9174 358.664 78.6547 407.973 105.55C457.283 132.444 486.189 182.312 484.707 215.705C483.225 249.098 433.044 299.449 385.492 309.299C357.422 315.192 328.796 318.461 300.026 319.059Z" fill="#EBF1FF"/>
<path d="M289.776 322.756L289.762 322.754C268.442 319.858 214.989 312.401 160.725 300.137C133.593 294.005 106.269 286.674 82.6629 278.113C59.044 269.548 39.2 259.771 26.9851 248.77C14.8061 237.801 11.03 226.009 12.8015 214.203C14.5792 202.357 21.955 190.422 32.2473 179.245C52.8282 156.897 84.8829 137.784 106.175 128.736C107.896 128.005 109.662 127.253 111.47 126.483C132.086 117.704 158.16 106.601 184.695 97.6396C213.568 87.888 242.926 80.6943 266.355 81.7619C289.814 82.8307 320.392 90.122 350.873 101.443C381.352 112.762 411.692 128.095 434.681 145.22C457.652 162.333 474.48 183.817 484.696 204.854C494.919 225.904 498.496 246.452 495.049 261.705C493.335 269.287 488.37 277.325 481.054 285.134C473.744 292.938 464.113 300.483 453.123 307.08C431.135 320.28 403.765 329.652 378.743 329.759L378.741 329.759C349.085 329.958 319.287 327.613 289.776 322.756Z" stroke="#135DFF" stroke-width="1.0015"/>
<circle cx="40.1932" cy="129.234" r="8.99987" fill="#EF5DA8"/>
<circle cx="192.193" cy="59.2381" r="8.99987" fill="#EF5DA8"/>
<circle cx="210.198" cy="343.23" r="8.99987" fill="#EF5DA8"/>
<circle cx="374.191" cy="168.23" r="8.99987" fill="#135DFF"/>
<circle cx="391.692" cy="55.7382" r="3.49995" fill="#EF5DA8"/>
<circle cx="122.702" cy="101.727" r="3.49995" fill="#EF5DA8"/>
<circle cx="52.6914" cy="330.734" r="3.49995" fill="#EF5DA8"/>
<circle cx="82.6972" cy="209.723" r="3.49995" fill="#EF5DA8"/>
<circle cx="442.683" cy="300.727" r="3.49995" fill="#EF5DA8"/>
<circle cx="515.191" cy="281.226" r="8.99987" fill="#EF5DA8"/>
<path d="M185.959 83.2896C224.957 39.2263 293.867 39.6847 332.276 84.2629L430.631 198.416C440.46 209.823 445.866 224.379 445.866 239.436C445.866 274.143 417.73 302.279 383.023 302.279H129.713C92.6856 302.279 63.7207 270.364 67.3 233.511C68.6011 220.114 74.1781 207.492 83.2066 197.51L160.63 111.907L185.959 83.2896Z" fill="#145DFF"/>
<circle cx="213.046" cy="156.277" r="39.8751" fill="white"/>
<circle cx="220.772" cy="137.628" r="18.6512" fill="black"/>
<circle cx="306.949" cy="156.277" r="39.8751" fill="white"/>
<circle cx="317.882" cy="137.628" r="18.6512" fill="black"/>
<path d="M223.979 225.858C223.979 225.858 227.937 216.106 245.53 213.714C263.123 211.322 282.299 220.221 282.299 220.221" stroke="black" stroke-width="6.52972"/>
<path d="M232.436 81.0319C232.436 81.0319 233.696 91.481 219.463 102.095C205.23 112.709 184.144 114.21 184.144 114.21" stroke="black" stroke-width="6.52972"/>
<path d="M279.671 80.3936C279.671 80.3936 279.525 90.9174 294.802 99.9633C310.08 109.009 331.207 108.268 331.207 108.268" stroke="black" stroke-width="6.52972"/>
</svg>
