<svg width="16" height="16" viewBox="0 0 16 16" fill="none" xmlns="http://www.w3.org/2000/svg">
<g id="General/copy-03" clip-path="url(#clip0_9673_12209)">
<path id="Icon" d="M5.33594 5.33203V3.46536C5.33594 2.71863 5.33594 2.34526 5.48126 2.06004C5.60909 1.80916 5.81307 1.60519 6.06395 1.47736C6.34917 1.33203 6.72253 1.33203 7.46927 1.33203H12.5359C13.2827 1.33203 13.656 1.33203 13.9413 1.47736C14.1921 1.60519 14.3961 1.80916 14.5239 2.06004C14.6693 2.34526 14.6693 2.71863 14.6693 3.46536V8.53203C14.6693 9.27877 14.6693 9.65214 14.5239 9.93735C14.3961 10.1882 14.1921 10.3922 13.9413 10.52C13.656 10.6654 13.2827 10.6654 12.5359 10.6654H10.6693M3.46927 14.6654H8.53594C9.28267 14.6654 9.65604 14.6654 9.94126 14.52C10.1921 14.3922 10.3961 14.1882 10.5239 13.9374C10.6693 13.6521 10.6693 13.2788 10.6693 12.532V7.46536C10.6693 6.71863 10.6693 6.34526 10.5239 6.06004C10.3961 5.80916 10.1921 5.60519 9.94126 5.47736C9.65604 5.33203 9.28267 5.33203 8.53594 5.33203H3.46927C2.72253 5.33203 2.34917 5.33203 2.06395 5.47736C1.81307 5.60519 1.60909 5.80916 1.48126 6.06004C1.33594 6.34526 1.33594 6.71863 1.33594 7.46536V12.532C1.33594 13.2788 1.33594 13.6521 1.48126 13.9374C1.60909 14.1882 1.81307 14.3922 2.06395 14.52C2.34917 14.6654 2.72253 14.6654 3.46927 14.6654Z" stroke="#6F87A1" stroke-width="1.2" stroke-linecap="round" stroke-linejoin="round"/>
</g>
<defs>
<clipPath id="clip0_9673_12209">
<rect width="16" height="16" fill="white"/>
</clipPath>
</defs>
</svg>
