<svg width="16" height="16" viewBox="0 0 16 16" fill="none" xmlns="http://www.w3.org/2000/svg">
<path d="M14.6693 7.33203V5.46536C14.6693 4.71863 14.6693 4.34526 14.5239 4.06004C14.3961 3.80916 14.1921 3.60519 13.9413 3.47736C13.656 3.33203 13.2827 3.33203 12.5359 3.33203H3.46927C2.72253 3.33203 2.34917 3.33203 2.06395 3.47736C1.81307 3.60519 1.60909 3.80916 1.48126 4.06004C1.33594 4.34526 1.33594 4.71863 1.33594 5.46536V7.86536C1.33594 8.6121 1.33594 8.98547 1.48126 9.27069C1.60909 9.52157 1.81307 9.72554 2.06395 9.85337C2.34917 9.9987 2.72253 9.9987 3.46927 9.9987H7.33594M8.0026 6.66536H8.00594M11.3359 6.66536H11.3393M4.66927 6.66536H4.6726M12.8359 11.332V10.1654C12.8359 9.52103 12.3136 8.9987 11.6693 8.9987C11.0249 8.9987 10.5026 9.52103 10.5026 10.1654V11.332M8.16927 6.66536C8.16927 6.75741 8.09465 6.83203 8.0026 6.83203C7.91056 6.83203 7.83594 6.75741 7.83594 6.66536C7.83594 6.57332 7.91056 6.4987 8.0026 6.4987C8.09465 6.4987 8.16927 6.57332 8.16927 6.66536ZM11.5026 6.66536C11.5026 6.75741 11.428 6.83203 11.3359 6.83203C11.2439 6.83203 11.1693 6.75741 11.1693 6.66536C11.1693 6.57332 11.2439 6.4987 11.3359 6.4987C11.428 6.4987 11.5026 6.57332 11.5026 6.66536ZM4.83594 6.66536C4.83594 6.75741 4.76132 6.83203 4.66927 6.83203C4.57722 6.83203 4.5026 6.75741 4.5026 6.66536C4.5026 6.57332 4.57722 6.4987 4.66927 6.4987C4.76132 6.4987 4.83594 6.57332 4.83594 6.66536ZM10.4026 13.9987H12.9359C13.3093 13.9987 13.496 13.9987 13.6386 13.926C13.764 13.8621 13.866 13.7601 13.9299 13.6347C14.0026 13.4921 14.0026 13.3054 14.0026 12.932V12.3987C14.0026 12.0253 14.0026 11.8386 13.9299 11.696C13.866 11.5706 13.764 11.4686 13.6386 11.4047C13.496 11.332 13.3093 11.332 12.9359 11.332H10.4026C10.0292 11.332 9.84255 11.332 9.69994 11.4047C9.5745 11.4686 9.47252 11.5706 9.4086 11.696C9.33594 11.8386 9.33594 12.0253 9.33594 12.3987V12.932C9.33594 13.3054 9.33594 13.4921 9.4086 13.6347C9.47252 13.7601 9.5745 13.8621 9.69994 13.926C9.84255 13.9987 10.0292 13.9987 10.4026 13.9987Z" stroke="#60646C" stroke-width="1.5" stroke-linecap="round" stroke-linejoin="round"/>
</svg>
