<svg width="22" height="20" viewBox="0 0 21.3723 19.5003" fill="none" xmlns="http://www.w3.org/2000/svg">
  <!-- Figma Family_active (people); tint via SvgPicture colorFilter -->
  <path
    d="M16.6961 13.5869C18.152 14.3183 19.4003 15.492 20.3114 16.9596C20.4918 17.2503 20.582 17.3956 20.6132 17.5968C20.6766 18.0058 20.3969 18.5085 20.0161 18.6704C19.8286 18.75 19.6178 18.75 19.1961 18.75M14.6961 9.28224C16.1779 8.54589 17.1961 7.01686 17.1961 5.25C17.1961 3.48314 16.1779 1.95411 14.6961 1.21776M12.6961 5.25C12.6961 7.73528 10.6814 9.75 8.19613 9.75C5.71085 9.75 3.69613 7.73528 3.69613 5.25C3.69613 2.76472 5.71085 0.75 8.19613 0.75C10.6814 0.75 12.6961 2.76472 12.6961 5.25ZM1.25536 16.6883C2.84967 14.2946 5.3655 12.75 8.19613 12.75C11.0268 12.75 13.5426 14.2946 15.1369 16.6883C15.4862 17.2128 15.6608 17.475 15.6407 17.8099C15.625 18.0707 15.4541 18.39 15.2457 18.5476C14.9781 18.75 14.61 18.75 13.8738 18.75H2.51849C1.7823 18.75 1.41421 18.75 1.14657 18.5476C0.938181 18.39 0.767221 18.0707 0.751566 17.8099C0.731461 17.475 0.906095 17.2128 1.25536 16.6883Z"
    stroke="black"
    stroke-width="1.5"
    stroke-linecap="round"
    stroke-linejoin="round"
  />
</svg>
