<svg width="22" height="20" viewBox="0 0 21.5001 20.25" fill="none" xmlns="http://www.w3.org/2000/svg">
  <!-- Figma TabIcon (home); tint via SvgPicture colorFilter -->
  <path
    d="M7.75005 19.5V12.1C7.75005 11.5399 7.75005 11.2599 7.85904 11.046C7.95491 10.8578 8.1079 10.7049 8.29606 10.609C8.50997 10.5 8.79 10.5 9.35005 10.5H12.15C12.7101 10.5 12.9901 10.5 13.204 10.609C13.3922 10.7049 13.5452 10.8578 13.6411 11.046C13.75 11.2599 13.75 11.5399 13.75 12.1V19.5M0.750044 8L9.79005 1.22C10.1343 0.961806 10.3064 0.832709 10.4955 0.782945C10.6623 0.739018 10.8377 0.739018 11.0046 0.782945C11.1937 0.832709 11.3658 0.961806 11.71 1.22L20.75 8M2.75005 6.5V16.3C2.75005 17.4201 2.75005 17.9802 2.96804 18.408C3.15978 18.7843 3.46574 19.0903 3.84207 19.282C4.26989 19.5 4.82994 19.5 5.95005 19.5H15.55C16.6702 19.5 17.2302 19.5 17.658 19.282C18.0344 19.0903 18.3403 18.7843 18.5321 18.408C18.75 17.9802 18.75 17.4201 18.75 16.3V6.5L12.67 1.94C11.9815 1.42361 11.6373 1.16542 11.2592 1.06589C10.9254 0.978037 10.5747 0.978037 10.2409 1.06589C9.86282 1.16542 9.51857 1.42361 8.83005 1.94L2.75005 6.5Z"
    stroke="black"
    stroke-width="1.5"
    stroke-linecap="round"
    stroke-linejoin="round"
  />
</svg>
