<svg width="138" height="95" viewBox="0 0 138 95" fill="none" xmlns="http://www.w3.org/2000/svg">
<path d="M118.067 70.3922C118.067 74.416 115.213 77.315 111.392 77.315C107.572 77.315 104.722 74.416 104.722 70.3922C104.722 66.3684 107.577 63.4742 111.392 63.4742C115.208 63.4742 118.067 66.4249 118.067 70.3922ZM82.6009 63.4742C78.9314 63.4742 76.284 66.3731 76.284 70.3922C76.284 74.4113 78.9314 77.315 82.6009 77.315C86.1151 77.315 88.6635 74.416 88.6635 70.3922C88.6635 66.3684 86.1151 63.4742 82.6009 63.4742ZM26.2006 63.4742C22.531 63.4742 19.8836 66.4249 19.8836 70.3922C19.8836 74.3595 22.531 77.315 26.2006 77.315C29.7147 77.315 32.2584 74.463 32.2584 70.3922C32.2584 66.4249 29.7147 63.4742 26.2006 63.4742ZM115.076 94.596H22.9267C3.06196 94.596 -7.36738 71.037 5.99668 56.3537L49.4193 8.65207C51.9001 5.92683 54.9234 3.74948 58.2955 2.25956C61.6677 0.769628 65.3142 0 69.0014 0C72.6885 0 76.3351 0.769628 79.7072 2.25956C83.0793 3.74948 86.1026 5.92683 88.5834 8.65207L132.001 56.3537C145.37 71.037 134.941 94.596 115.076 94.596V94.596ZM39.0842 57.6715H32.4139V60.7775C30.5815 58.335 27.4206 57.1632 24.4671 57.1632C17.4388 57.1632 12.959 63.0647 12.959 70.3922C12.959 77.7197 17.4388 83.6259 24.4671 83.6259C27.4206 83.6259 30.6286 82.5059 32.4139 80.0634V83.1271H39.0842V57.6715ZM49.4993 57.6715H42.6689V83.1271H49.4993V57.6715ZM50.1117 50.5463C50.1068 49.4682 49.6759 48.4356 48.9128 47.6733C48.1497 46.9109 47.1162 46.4804 46.037 46.4755C44.9649 46.4891 43.9413 46.9238 43.1876 47.6857C42.4338 48.4475 42.0106 49.4752 42.0094 50.5463C42.0205 51.6101 42.4484 52.6271 43.2013 53.3794C43.9542 54.1316 44.9723 54.5591 46.037 54.5701C47.1092 54.5689 48.1379 54.1461 48.9004 53.3931C49.663 52.6401 50.0981 51.6174 50.1117 50.5463ZM68.1063 57.1867C62.9246 57.4079 60.4563 60.5469 59.7685 62.5564V57.6715H53.0653V83.1271H59.891V73.3571C59.891 67.5073 62.609 64.8013 68.1252 64.6225L68.1063 57.1867ZM95.4657 57.6573H89.0168V60.7116C87.1326 58.2691 83.9246 57.1491 80.8674 57.1491C73.8392 57.1491 69.3594 63.0506 69.3594 70.3263C69.3594 77.7056 73.9428 83.6118 80.9711 83.6118C82.4255 83.6432 83.869 83.3537 85.1986 82.7639C86.5282 82.1742 87.7113 81.2987 88.6635 80.1999V89.5557L95.4845 87.8521L95.4657 57.6573ZM125.025 70.364C125.025 62.9894 119.019 57.135 111.364 57.135C104.058 57.135 97.7692 62.9894 97.7692 70.364C97.7692 77.7385 103.775 83.5977 111.364 83.5977C118.953 83.5977 125.025 77.7432 125.025 70.364Z" fill="#145FFF"/>
</svg>
