<svg xmlns="http://www.w3.org/2000/svg" width="16" height="16" viewBox="0 0 16 16" fill="none">
  <path d="M14 11.991L13.3332 12.7204C12.9796 13.1071 12.5001 13.3244 12.0001 13.3244C11.5001 13.3244 11.0205 13.1071 10.6669 12.7204C10.3128 12.3345 9.83332 12.1178 9.33345 12.1178C8.83359 12.1178 8.35409 12.3345 7.99998 12.7204M2 13.3244H3.11636C3.44248 13.3244 3.60554 13.3244 3.75899 13.2875C3.89504 13.2549 4.0251 13.201 4.1444 13.1279C4.27895 13.0454 4.39425 12.9301 4.62486 12.6995L13 4.32437C13.5523 3.77209 13.5523 2.87665 13 2.32437C12.4477 1.77208 11.5523 1.77209 11 2.32437L2.62484 10.6995C2.39424 10.9301 2.27894 11.0454 2.19648 11.18C2.12338 11.2993 2.0695 11.4293 2.03684 11.5654C2 11.7188 2 11.8819 2 12.208V13.3244Z" stroke="#9EB0C2" stroke-width="1.5" stroke-linecap="round" stroke-linejoin="round"/>
</svg>