<svg width="24" height="26" viewBox="0 0 24 26" fill="none" xmlns="http://www.w3.org/2000/svg">
<path d="M24 13.2669C24 12.4597 23.9285 11.6934 23.8059 10.9476H12.2605V15.5555H18.871C18.5747 17.0676 17.7063 18.3448 16.4189 19.2132V22.2784H20.3627C22.6718 20.143 24 16.9961 24 13.2669Z" fill="#4285F4"/>
<path d="M12.2605 25.2515C15.5709 25.2515 18.3397 24.1481 20.3627 22.2784L16.4189 19.2132C15.3155 19.9489 13.9157 20.3984 12.2605 20.3984C9.06258 20.3984 6.35504 18.2426 5.38442 15.3307H1.31801V18.4878C3.33078 22.4929 7.46871 25.2515 12.2605 25.2515Z" fill="#34A853"/>
<path d="M5.38442 15.3307C5.12899 14.5951 4.99617 13.8084 4.99617 12.991C4.99617 12.1736 5.13921 11.3869 5.38442 10.6513V7.4942H1.31801C0.480204 9.14937 0 11.0089 0 12.991C0 14.9731 0.480204 16.8326 1.31801 18.4878L5.38442 15.3307Z" fill="#FBBC05"/>
<path d="M12.2605 5.5836C14.069 5.5836 15.6833 6.20684 16.9604 7.42268L20.4547 3.92843C18.3397 1.94631 15.5709 0.730469 12.2605 0.730469C7.46871 0.730469 3.33078 3.48909 1.31801 7.4942L5.38442 10.6513C6.35504 7.73941 9.06258 5.5836 12.2605 5.5836Z" fill="#EA4335"/>
</svg>
