<svg width="12" height="11" viewBox="0 0 12 11" fill="none" xmlns="http://www.w3.org/2000/svg">
<path d="M9.79284 7.53939C9.79284 7.53939 9.27282 7.35992 8.91916 7.27261C6.6824 6.72041 5.04013 8.35837 2.80337 7.80617C2.44971 7.71886 1.92969 7.53939 1.92969 7.53939M9.79284 5.24597C9.79284 5.24597 9.27282 5.0665 8.91916 4.97919C6.6824 4.42699 5.04013 6.06495 2.80337 5.51275C2.44971 5.42544 1.92969 5.24597 1.92969 5.24597M9.79284 2.95255C9.79284 2.95255 9.27282 2.77308 8.91916 2.68577C6.6824 2.13357 5.04013 3.77153 2.80337 3.21933C2.44971 3.13202 1.92969 2.95255 1.92969 2.95255" stroke="#9EB0C2" stroke-width="0.786316" stroke-linecap="round" stroke-linejoin="round"/>
</svg>
