<svg width="97" height="96" viewBox="0 0 97 96" fill="none" xmlns="http://www.w3.org/2000/svg">
<circle cx="48.5391" cy="48" r="48" fill="#F0B1D8"/>
<path d="M31.8992 36.4809C31.8992 37.3213 32.0648 38.1535 32.3864 38.93C32.708 39.7065 33.1794 40.412 33.7737 41.0063C34.368 41.6006 35.0736 42.0721 35.85 42.3937C36.6265 42.7153 37.4588 42.8809 38.2992 42.8809C39.1397 42.8809 39.9719 42.7153 40.7484 42.3937C41.5249 42.0721 42.2304 41.6006 42.8247 41.0063C43.419 40.412 43.8904 39.7065 44.212 38.93C44.5337 38.1535 44.6992 37.3213 44.6992 36.4809L38.2992 36.4809H31.8992Z" fill="#D95BA3"/>
<path d="M51.9813 36.7855C51.9813 37.626 52.1468 38.4582 52.4684 39.2347C52.7901 40.0112 53.2615 40.7167 53.8558 41.311C54.4501 41.9053 55.1556 42.3767 55.9321 42.6984C56.7086 43.02 57.5408 43.1855 58.3813 43.1855C59.2217 43.1855 60.0539 43.02 60.8304 42.6984C61.6069 42.3767 62.3124 41.9053 62.9067 41.311C63.501 40.7167 63.9724 40.0112 64.2941 39.2347C64.6157 38.4582 64.7813 37.626 64.7812 36.7855L58.3813 36.7855H51.9813Z" fill="#D95BA3"/>
<path d="M63.8997 63.6081C63.8997 61.5909 63.5024 59.5936 62.7305 57.73C61.9586 55.8665 60.8272 54.1732 59.4008 52.7469C57.9745 51.3206 56.2813 50.1892 54.4177 49.4173C52.5541 48.6453 50.5568 48.248 48.5397 48.248C46.5226 48.248 44.5252 48.6453 42.6617 49.4173C40.7981 50.1892 39.1048 51.3206 37.6785 52.7469C36.2522 54.1732 35.1208 55.8665 34.3489 57.73C33.577 59.5936 33.1797 61.5909 33.1797 63.608L39.3237 63.608C39.3237 62.3978 39.5621 61.1994 40.0252 60.0812C40.4884 58.9631 41.1672 57.9471 42.023 57.0914C42.8788 56.2356 43.8947 55.5567 45.0129 55.0936C46.131 54.6304 47.3294 54.392 48.5397 54.392C49.7499 54.392 50.9484 54.6304 52.0665 55.0936C53.1846 55.5567 54.2006 56.2356 55.0564 57.0914C55.9122 57.9471 56.591 58.9631 57.0542 60.0812C57.5173 61.1994 57.7557 62.3978 57.7557 63.6081L63.8997 63.6081Z" fill="#D95BA3"/>
<path d="M55.4239 12.1374C64.4328 13.8136 72.4874 18.803 78.0005 26.1226C83.5137 33.4421 86.0857 42.5611 85.2097 51.6827C84.3338 60.8043 80.0734 69.2671 73.2681 75.4037C66.4627 81.5403 57.6059 84.9057 48.4426 84.8369C39.2793 84.768 30.474 81.2698 23.7617 75.0316C17.0493 68.7934 12.9167 60.2675 12.1779 51.1338C11.4392 42 14.1479 32.9208 19.7705 25.6849C25.393 18.4491 33.5217 13.5813 42.5548 12.0407L43.7875 19.2682C36.561 20.5007 30.0581 24.3949 25.56 30.1836C21.062 35.9723 18.895 43.2357 19.486 50.5427C20.0769 57.8497 23.3831 64.6704 28.753 69.661C34.1228 74.6515 41.167 77.4501 48.4977 77.5052C55.8283 77.5603 62.9138 74.8679 68.3581 69.9586C73.8024 65.0493 77.2107 58.2791 77.9114 50.9818C78.6122 43.6845 76.5546 36.3894 72.144 30.5337C67.7335 24.6781 61.2899 20.6866 54.0827 19.3456L55.4239 12.1374Z" fill="white"/>
<path d="M55.4195 12.1366C64.4283 13.8116 72.4832 18.7997 77.9972 26.1182C83.5113 33.4366 86.0846 42.5547 85.2104 51.6761C84.3361 60.7975 80.0776 69.2608 73.2738 75.3986C66.47 81.5364 57.6143 84.9036 48.4513 84.8369C39.2883 84.7702 30.4826 81.2744 23.7688 75.0383C17.0551 68.8021 12.9202 60.2777 12.1788 51.1446C11.4374 42.0114 14.1432 32.9318 19.7632 25.6944C25.3832 18.4569 33.5098 13.5866 42.542 12.0429L43.7772 19.27C36.5514 20.505 30.0501 24.4012 25.5542 30.1912C21.0582 35.9811 18.8935 43.2448 19.4867 50.5513C20.0798 57.8579 23.3877 64.6774 28.7587 69.6663C34.1297 74.6552 41.1743 77.4519 48.5047 77.5052C55.835 77.5586 62.9196 74.8648 68.3626 69.9545C73.8057 65.0443 77.2125 58.2737 77.9119 50.9766C78.6113 43.6795 76.5526 36.385 72.1414 30.5302C67.7302 24.6755 61.2863 20.685 54.0792 19.345L55.4195 12.1366Z" fill="#D95BA3"/>
</svg>
