<svg width="91" height="62" viewBox="0 0 91 62" fill="none" xmlns="http://www.w3.org/2000/svg">
<path d="M77.8096 45.7847C77.8096 48.4008 75.9285 50.2854 73.4121 50.2854C70.8956 50.2854 69.0146 48.4008 69.0146 45.7847C69.0146 43.1686 70.8956 41.284 73.4121 41.284C75.9285 41.284 77.8096 43.2036 77.8096 45.7847ZM54.4348 41.284C52.0171 41.284 50.2728 43.1711 50.2728 45.7847C50.2728 48.3983 52.0171 50.2854 54.4348 50.2854C56.8526 50.2854 58.4298 48.4008 58.4298 45.7847C58.4298 43.1686 56.7513 41.284 54.4348 41.284ZM17.2652 41.284C14.8475 41.284 13.1032 43.2036 13.1032 45.7847C13.1032 48.3658 14.85 50.2854 17.2652 50.2854C19.6804 50.2854 21.2601 48.4332 21.2601 45.7847C21.2601 43.1362 19.5816 41.284 17.2652 41.284ZM75.8374 61.526H15.1108C2.01707 61.526 -4.85636 46.2041 3.95378 36.651L32.569 5.62776C39.4905 -1.87592 51.4602 -1.87592 58.3792 5.62776L86.9944 36.6535C95.8045 46.2041 88.9311 61.5285 75.8374 61.5285M25.7589 37.5122H21.3614V39.5316C20.1538 37.944 18.0728 37.1827 16.1259 37.1827C11.493 37.1827 8.54113 41.0219 8.54113 45.7872C8.54113 50.5525 11.4956 54.3942 16.1259 54.3942C18.0728 54.3942 20.1867 53.6653 21.3614 52.0777V54.0622H25.7589V37.5122ZM32.6222 37.5122H28.1234V54.0622H32.6222V37.5122ZM33.0247 32.8792C33.0247 31.4214 31.8171 30.2307 30.3386 30.2307C28.8601 30.2307 27.688 31.4214 27.688 32.8792C27.688 34.337 28.8956 35.4952 30.3386 35.4952C31.7817 35.4952 33.0247 34.3045 33.0247 32.8792ZM44.8981 37.1977C41.4728 37.3424 39.8576 39.3844 39.4044 40.6899V37.5122H34.9741V54.0622H39.4728V47.7068C39.4728 43.9025 41.2652 42.1402 44.8981 42.0254V37.1977ZM62.9311 37.5147H58.6678V39.5017C57.4247 37.9116 55.3108 37.1852 53.2981 37.1852C48.6652 37.1852 45.7133 41.0244 45.7133 45.7572C45.7133 50.4901 48.7336 54.3967 53.3665 54.3967C55.3133 54.3967 57.2273 53.6354 58.4349 52.1776V58.2609L62.9336 57.1526V37.5147H62.9311ZM82.4121 45.7897C82.4121 40.9919 78.4526 37.1852 73.4171 37.1852C68.3817 37.1852 64.4551 40.9919 64.4551 45.7897C64.4551 50.5875 68.4171 54.3967 73.4171 54.3967C78.4172 54.3967 82.4121 50.59 82.4121 45.7897Z" fill="white"/>
</svg>
