<svg width="546" height="94" viewBox="0 0 546 94" fill="none" xmlns="http://www.w3.org/2000/svg">
<path d="M118.277 69.5966C118.277 73.5732 115.418 76.4381 111.593 76.4381C107.767 76.4381 104.908 73.5732 104.908 69.5966C104.908 65.62 107.767 62.7552 111.593 62.7552C115.418 62.7552 118.277 65.6731 118.277 69.5966ZM82.7456 62.7552C79.0704 62.7552 76.4189 65.6238 76.4189 69.5966C76.4189 73.5695 79.0704 76.4381 82.7456 76.4381C86.4207 76.4381 88.8182 73.5732 88.8182 69.5966C88.8182 65.62 86.2668 62.7552 82.7456 62.7552ZM26.2445 62.7552C22.5694 62.7552 19.9179 65.6731 19.9179 69.5966C19.9179 73.5201 22.5732 76.4381 26.2445 76.4381C29.9158 76.4381 32.3172 73.6226 32.3172 69.5966C32.3172 65.5707 29.7657 62.7552 26.2445 62.7552ZM115.279 93.5247H22.9696C3.06611 93.5247 -7.38207 70.2341 6.01008 55.7126L49.5076 8.55468C60.0289 -2.85156 78.2238 -2.85156 88.7412 8.55468L132.239 55.7164C145.631 70.2341 135.183 93.5285 115.279 93.5285M39.1556 57.0217H32.4711V60.0914C30.6355 57.6781 27.4722 56.5208 24.5128 56.5208C17.4704 56.5208 12.9832 62.3567 12.9832 69.6004C12.9832 76.8441 17.4742 82.6838 24.5128 82.6838C27.4722 82.6838 30.6855 81.5758 32.4711 79.1625V82.1791H39.1556V57.0217ZM49.5884 57.0217H42.75V82.1791H49.5884V57.0217ZM50.2003 49.9791C50.2003 47.7631 48.3647 45.9532 46.1173 45.9532C43.8698 45.9532 42.0881 47.7631 42.0881 49.9791C42.0881 52.1951 43.9237 53.9557 46.1173 53.9557C48.3108 53.9557 50.2003 52.1458 50.2003 49.9791ZM68.2489 56.5436C63.0422 56.7637 60.5869 59.8675 59.8981 61.8521V57.0217H53.1635V82.1791H60.002V72.5184C60.002 66.7356 62.7266 64.0567 68.2489 63.8821V56.5436ZM95.6605 57.0255H89.1799V60.0459C87.2904 57.6288 84.0771 56.5246 81.0177 56.5246C73.9752 56.5246 69.4881 62.3605 69.4881 69.5549C69.4881 76.7492 74.0791 82.6876 81.1216 82.6876C84.0809 82.6876 86.9903 81.5303 88.8259 79.3143V88.5615L95.6644 86.8767V57.0255H95.6605ZM125.273 69.6042C125.273 62.3112 119.255 56.5246 111.6 56.5246C103.946 56.5246 97.9772 62.3112 97.9772 69.6042C97.9772 76.8972 104 82.6876 111.6 82.6876C119.201 82.6876 125.273 76.901 125.273 69.6042Z" fill="white"/>
<path d="M190.751 39.7642H186.119L193.177 19.3183H198.748L205.796 39.7642H201.164L196.042 23.9905H195.883L190.751 39.7642ZM190.462 31.7276H201.404V35.1019H190.462V31.7276ZM215.587 24.4298V27.6244H206.122V24.4298H215.587ZM208.289 39.7642V23.3216C208.289 22.2102 208.505 21.2884 208.938 20.5563C209.377 19.8241 209.976 19.2751 210.735 18.909C211.493 18.5429 212.355 18.3599 213.32 18.3599C213.973 18.3599 214.568 18.4098 215.107 18.5097C215.653 18.6095 216.059 18.6994 216.325 18.7792L215.567 21.9739C215.4 21.9206 215.194 21.8707 214.948 21.8241C214.708 21.7775 214.462 21.7543 214.209 21.7543C213.583 21.7543 213.147 21.9007 212.901 22.1935C212.655 22.4797 212.532 22.8824 212.532 23.4015V39.7642H208.289ZM217.623 39.7642V24.4298H221.746V27.1053H221.905C222.185 26.1536 222.654 25.4348 223.313 24.9489C223.972 24.4564 224.731 24.2101 225.589 24.2101C225.802 24.2101 226.032 24.2235 226.278 24.2501C226.524 24.2767 226.741 24.3133 226.927 24.3599V28.1336C226.727 28.0737 226.451 28.0204 226.098 27.9739C225.746 27.9273 225.423 27.904 225.13 27.904C224.504 27.904 223.945 28.0404 223.453 28.3133C222.967 28.5795 222.581 28.9522 222.295 29.4314C222.015 29.9106 221.875 30.463 221.875 31.0887V39.7642H217.623ZM228.564 39.7642V24.4298H232.816V39.7642H228.564ZM230.7 22.4531C230.068 22.4531 229.525 22.2434 229.073 21.8241C228.627 21.3982 228.404 20.889 228.404 20.2967C228.404 19.711 228.627 19.2085 229.073 18.7892C229.525 18.3633 230.068 18.1503 230.7 18.1503C231.332 18.1503 231.871 18.3633 232.317 18.7892C232.77 19.2085 232.996 19.711 232.996 20.2967C232.996 20.889 232.77 21.3982 232.317 21.8241C231.871 22.2434 231.332 22.4531 230.7 22.4531ZM242.589 40.0637C241.019 40.0637 239.668 39.7309 238.536 39.0653C237.411 38.3931 236.546 37.4613 235.941 36.27C235.342 35.0787 235.042 33.7076 235.042 32.1569C235.042 30.5862 235.345 29.2085 235.951 28.0238C236.563 26.8324 237.431 25.904 238.556 25.2384C239.681 24.5662 241.019 24.2301 242.569 24.2301C243.907 24.2301 245.079 24.473 246.084 24.9589C247.089 25.4448 247.884 26.1269 248.47 27.0055C249.055 27.884 249.378 28.9156 249.438 30.1003H245.425C245.312 29.3349 245.012 28.7193 244.526 28.2534C244.047 27.7808 243.418 27.5446 242.639 27.5446C241.98 27.5446 241.405 27.7243 240.912 28.0837C240.426 28.4364 240.047 28.9522 239.774 29.6311C239.501 30.31 239.365 31.1319 239.365 32.097C239.365 33.0753 239.498 33.9073 239.764 34.5928C240.037 35.2783 240.42 35.8008 240.912 36.1602C241.405 36.5196 241.98 36.6993 242.639 36.6993C243.125 36.6993 243.561 36.5994 243.947 36.3998C244.34 36.2001 244.663 35.9106 244.916 35.5312C245.175 35.1452 245.345 34.6827 245.425 34.1436H249.438C249.371 35.3149 249.052 36.3465 248.48 37.2384C247.914 38.1236 247.132 38.8157 246.134 39.3149C245.135 39.8141 243.954 40.0637 242.589 40.0637ZM255.971 40.0537C254.993 40.0537 254.121 39.884 253.356 39.5445C252.59 39.1984 251.985 38.6893 251.539 38.0171C251.1 37.3382 250.88 36.493 250.88 35.4813C250.88 34.6294 251.036 33.9139 251.349 33.3349C251.662 32.7559 252.088 32.29 252.627 31.9372C253.166 31.5845 253.778 31.3183 254.464 31.1386C255.156 30.9589 255.882 30.8324 256.64 30.7592C257.532 30.666 258.251 30.5795 258.797 30.4996C259.342 30.4131 259.738 30.2867 259.985 30.1203C260.231 29.9539 260.354 29.7076 260.354 29.3815V29.3216C260.354 28.6893 260.154 28.2001 259.755 27.8541C259.362 27.508 258.803 27.3349 258.078 27.3349C257.312 27.3349 256.703 27.5046 256.251 27.8441C255.798 28.1769 255.499 28.5962 255.352 29.102L251.419 28.7825C251.619 27.8507 252.011 27.0454 252.597 26.3665C253.183 25.681 253.938 25.1552 254.863 24.7892C255.795 24.4165 256.873 24.2301 258.098 24.2301C258.95 24.2301 259.765 24.3299 260.544 24.5296C261.329 24.7293 262.025 25.0388 262.63 25.4581C263.243 25.8774 263.725 26.4165 264.078 27.0754C264.431 27.7276 264.607 28.5096 264.607 29.4214V39.7642H260.574V37.6377H260.454C260.208 38.1169 259.878 38.5395 259.466 38.9056C259.053 39.265 258.557 39.5479 257.978 39.7542C257.399 39.9538 256.73 40.0537 255.971 40.0537ZM257.189 37.1186C257.815 37.1186 258.367 36.9955 258.847 36.7492C259.326 36.4963 259.702 36.1569 259.975 35.7309C260.248 35.3049 260.384 34.8224 260.384 34.2833V32.656C260.251 32.7426 260.068 32.8224 259.835 32.8956C259.609 32.9622 259.352 33.0254 259.066 33.0853C258.78 33.1386 258.494 33.1885 258.208 33.2351C257.921 33.275 257.662 33.3116 257.429 33.3449C256.93 33.4181 256.494 33.5346 256.121 33.6943C255.748 33.854 255.459 34.0703 255.253 34.3432C255.046 34.6094 254.943 34.9422 254.943 35.3415C254.943 35.9206 255.153 36.3632 255.572 36.6693C255.998 36.9688 256.537 37.1186 257.189 37.1186ZM291.408 26.4764H287.036C286.956 25.9106 286.793 25.4081 286.546 24.9689C286.3 24.523 285.984 24.1436 285.598 23.8308C285.212 23.518 284.766 23.2784 284.26 23.112C283.761 22.9456 283.219 22.8624 282.633 22.8624C281.575 22.8624 280.653 23.1253 279.868 23.6511C279.082 24.1702 278.473 24.9289 278.041 25.9273C277.608 26.919 277.392 28.1236 277.392 29.5412C277.392 30.9988 277.608 32.2234 278.041 33.2151C278.48 34.2068 279.092 34.9555 279.878 35.4613C280.663 35.9672 281.571 36.2201 282.603 36.2201C283.182 36.2201 283.718 36.1435 284.21 35.9905C284.709 35.8374 285.152 35.6144 285.538 35.3216C285.924 35.0221 286.244 34.6594 286.496 34.2334C286.756 33.8074 286.936 33.3216 287.036 32.7758L291.408 32.7958C291.295 33.7342 291.012 34.6394 290.56 35.5113C290.114 36.3765 289.511 37.1519 288.753 37.8374C288.001 38.5162 287.102 39.0553 286.057 39.4547C285.019 39.8474 283.844 40.0437 282.533 40.0437C280.709 40.0437 279.079 39.631 277.641 38.8058C276.21 37.9805 275.079 36.7858 274.247 35.2217C273.422 33.6577 273.009 31.7642 273.009 29.5412C273.009 27.3116 273.428 25.4148 274.267 23.8507C275.105 22.2867 276.244 21.0954 277.681 20.2767C279.119 19.4514 280.736 19.0388 282.533 19.0388C283.718 19.0388 284.816 19.2052 285.828 19.538C286.846 19.8707 287.748 20.3566 288.533 20.9955C289.318 21.6278 289.957 22.4032 290.45 23.3216C290.949 24.2401 291.268 25.2917 291.408 26.4764ZM293.946 39.7642V19.3183H298.269V36.2001H307.034V39.7642H293.946ZM309.334 39.7642V19.3183H323.111V22.8824H313.657V27.7542H322.403V31.3183H313.657V36.2001H323.151V39.7642H309.334ZM329.51 39.7642H324.878L331.936 19.3183H337.507L344.555 39.7642H339.923L334.801 23.9905H334.641L329.51 39.7642ZM329.22 31.7276H340.162V35.1019H329.22V31.7276ZM363.555 19.3183V39.7642H359.821L350.926 26.8957H350.776V39.7642H346.453V19.3183H350.247L359.072 32.1768H359.252V19.3183H363.555ZM381.983 27.8541V31.2284H372.658V27.8541H381.983ZM394.593 39.7642H389.96L397.019 19.3183H402.589L409.638 39.7642H405.005L399.884 23.9905H399.724L394.593 39.7642ZM394.303 31.7276H405.245V35.1019H394.303V31.7276ZM411.539 39.7642V24.4298H415.792V39.7642H411.539ZM413.675 22.4531C413.043 22.4531 412.5 22.2434 412.048 21.8241C411.602 21.3982 411.379 20.889 411.379 20.2967C411.379 19.711 411.602 19.2085 412.048 18.7892C412.5 18.3633 413.043 18.1503 413.675 18.1503C414.307 18.1503 414.847 18.3633 415.292 18.7892C415.745 19.2085 415.971 19.711 415.971 20.2967C415.971 20.889 415.745 21.3982 415.292 21.8241C414.847 22.2434 414.307 22.4531 413.675 22.4531ZM418.636 39.7642V24.4298H422.759V27.1053H422.919C423.199 26.1536 423.668 25.4348 424.327 24.9489C424.986 24.4564 425.744 24.2101 426.603 24.2101C426.816 24.2101 427.045 24.2235 427.292 24.2501C427.538 24.2767 427.754 24.3133 427.941 24.3599V28.1336C427.741 28.0737 427.465 28.0204 427.112 27.9739C426.759 27.9273 426.436 27.904 426.144 27.904C425.518 27.904 424.959 28.0404 424.466 28.3133C423.981 28.5795 423.595 28.9522 423.308 29.4314C423.029 29.9106 422.889 30.463 422.889 31.0887V39.7642H418.636ZM435.601 39.7642V19.3183H449.139V22.8824H439.924V27.7542H448.24V31.3183H439.924V39.7642H435.601ZM457.207 40.0637C455.656 40.0637 454.315 39.7342 453.184 39.0753C452.059 38.4098 451.191 37.4846 450.578 36.2999C449.966 35.1086 449.66 33.7276 449.66 32.1569C449.66 30.5729 449.966 29.1885 450.578 28.0038C451.191 26.8125 452.059 25.8873 453.184 25.2284C454.315 24.5629 455.656 24.2301 457.207 24.2301C458.758 24.2301 460.096 24.5629 461.22 25.2284C462.352 25.8873 463.224 26.8125 463.836 28.0038C464.448 29.1885 464.755 30.5729 464.755 32.1569C464.755 33.7276 464.448 35.1086 463.836 36.2999C463.224 37.4846 462.352 38.4098 461.22 39.0753C460.096 39.7342 458.758 40.0637 457.207 40.0637ZM457.227 36.7692C457.933 36.7692 458.522 36.5695 458.994 36.1702C459.467 35.7642 459.823 35.2118 460.062 34.5129C460.309 33.8141 460.432 33.0188 460.432 32.1269C460.432 31.2351 460.309 30.4397 460.062 29.7409C459.823 29.0421 459.467 28.4897 458.994 28.0837C458.522 27.6777 457.933 27.4747 457.227 27.4747C456.515 27.4747 455.916 27.6777 455.43 28.0837C454.951 28.4897 454.588 29.0421 454.342 29.7409C454.102 30.4397 453.983 31.2351 453.983 32.1269C453.983 33.0188 454.102 33.8141 454.342 34.5129C454.588 35.2118 454.951 35.7642 455.43 36.1702C455.916 36.5695 456.515 36.7692 457.227 36.7692ZM466.958 39.7642V24.4298H471.081V27.1053H471.24C471.52 26.1536 471.989 25.4348 472.648 24.9489C473.307 24.4564 474.066 24.2101 474.924 24.2101C475.137 24.2101 475.367 24.2235 475.613 24.2501C475.859 24.2767 476.076 24.3133 476.262 24.3599V28.1336C476.062 28.0737 475.786 28.0204 475.433 27.9739C475.081 27.9273 474.758 27.904 474.465 27.904C473.839 27.904 473.28 28.0404 472.788 28.3133C472.302 28.5795 471.916 28.9522 471.63 29.4314C471.35 29.9106 471.211 30.463 471.211 31.0887V39.7642H466.958ZM487.732 33.2351V24.4298H491.985V39.7642H487.902V36.9788H487.742C487.396 37.8773 486.82 38.5994 486.015 39.1452C485.216 39.6909 484.241 39.9638 483.09 39.9638C482.065 39.9638 481.163 39.7309 480.385 39.265C479.606 38.7991 478.997 38.1369 478.558 37.2783C478.125 36.4197 477.905 35.3915 477.899 34.1935V24.4298H482.152V33.4347C482.158 34.3399 482.401 35.0554 482.88 35.5811C483.36 36.1069 484.002 36.3698 484.807 36.3698C485.32 36.3698 485.799 36.2534 486.245 36.0204C486.691 35.7808 487.05 35.4281 487.323 34.9622C487.602 34.4963 487.739 33.9206 487.732 33.2351ZM494.825 39.7642V24.4298H498.878V27.1353H499.058C499.377 26.2368 499.91 25.5279 500.655 25.0088C501.4 24.4897 502.292 24.2301 503.33 24.2301C504.382 24.2301 505.277 24.493 506.016 25.0188C506.755 25.5379 507.247 26.2434 507.494 27.1353H507.653C507.966 26.2567 508.532 25.5546 509.35 25.0288C510.176 24.4963 511.151 24.2301 512.276 24.2301C513.706 24.2301 514.868 24.686 515.76 25.5978C516.658 26.503 517.107 27.7875 517.107 29.4514V39.7642H512.865V30.29C512.865 29.4381 512.638 28.7991 512.186 28.3732C511.733 27.9472 511.167 27.7343 510.488 27.7343C509.716 27.7343 509.114 27.9805 508.682 28.473C508.249 28.9589 508.033 29.6011 508.033 30.3998V39.7642H503.909V30.2001C503.909 29.4481 503.693 28.8491 503.261 28.4031C502.835 27.9572 502.272 27.7343 501.573 27.7343C501.101 27.7343 500.675 27.8541 500.296 28.0937C499.923 28.3266 499.627 28.6561 499.407 29.082C499.187 29.5013 499.078 29.9938 499.078 30.5595V39.7642H494.825ZM186.648 73.7642L190.043 53.3183H196.951C198.548 53.3183 199.81 53.6045 200.735 54.1769C201.666 54.7493 202.295 55.5246 202.622 56.503C202.954 57.4814 203.021 58.5762 202.821 59.7875C202.622 60.9855 202.192 62.077 201.533 63.062C200.881 64.0471 199.996 64.8324 198.878 65.4181C197.766 66.0038 196.419 66.2966 194.835 66.2966H189.883L190.242 64.1003H195.114C196.206 64.1003 197.117 63.9106 197.849 63.5313C198.582 63.1519 199.154 62.6361 199.567 61.9838C199.979 61.3316 200.252 60.5995 200.385 59.7875C200.518 58.9622 200.485 58.2301 200.285 57.5912C200.092 56.9456 199.69 56.4398 199.077 56.0737C198.472 55.701 197.617 55.5147 196.512 55.5147H192.159L189.124 73.7642H186.648ZM203.584 73.7642L206.14 58.4298H208.416L208.017 60.7459H208.177C208.576 59.9872 209.185 59.3715 210.003 58.899C210.822 58.4265 211.691 58.1902 212.609 58.1902C212.789 58.1902 213.005 58.1935 213.258 58.2002C213.511 58.2002 213.707 58.2101 213.847 58.2301L213.448 60.6261C213.368 60.6061 213.188 60.5762 212.909 60.5363C212.629 60.4897 212.33 60.4664 212.01 60.4664C211.265 60.4664 210.576 60.6228 209.944 60.9356C209.311 61.2417 208.782 61.6677 208.356 62.2135C207.93 62.7526 207.657 63.3682 207.538 64.0604L205.94 73.7642H203.584ZM219.459 74.0836C217.989 74.0836 216.774 73.7575 215.816 73.1053C214.857 72.4464 214.188 71.5279 213.809 70.3499C213.43 69.1652 213.37 67.7875 213.629 66.2168C213.889 64.6461 214.405 63.2617 215.177 62.0637C215.949 60.8591 216.91 59.9206 218.062 59.2484C219.213 58.5695 220.478 58.2301 221.855 58.2301C222.654 58.2301 223.423 58.3632 224.162 58.6294C224.9 58.8957 225.539 59.3283 226.078 59.9273C226.618 60.5196 226.994 61.305 227.207 62.2833C227.42 63.2617 227.406 64.4664 227.167 65.8973L227.007 66.8956H215.187L215.506 64.859H224.93C225.083 63.9938 225.043 63.2218 224.811 62.5429C224.584 61.864 224.188 61.3283 223.623 60.9356C223.063 60.5429 222.355 60.3466 221.496 60.3466C220.611 60.3466 219.786 60.5862 219.02 61.0654C218.255 61.5379 217.616 62.1369 217.103 62.8624C216.591 63.5812 216.271 64.3133 216.145 65.0587L215.865 66.8158C215.666 68.087 215.696 69.0986 215.955 69.8507C216.222 70.6028 216.684 71.1452 217.343 71.478C218.002 71.8041 218.827 71.9672 219.819 71.9672C220.451 71.9672 221.034 71.8806 221.566 71.7076C222.098 71.5279 222.574 71.2617 222.994 70.9089C223.413 70.5495 223.766 70.1036 224.052 69.5712L226.208 70.2101C225.842 70.9821 225.326 71.661 224.661 72.2467C224.002 72.8257 223.23 73.2783 222.345 73.6044C221.466 73.9239 220.504 74.0836 219.459 74.0836ZM238.15 58.4298L237.831 60.4264H229.884L230.203 58.4298H238.15ZM233.118 54.7559H235.475L233.039 69.3715C232.932 70.0371 232.949 70.5362 233.089 70.869C233.235 71.1951 233.455 71.4148 233.747 71.5279C234.047 71.6344 234.37 71.6876 234.716 71.6876C234.975 71.6876 235.188 71.6743 235.355 71.6477C235.521 71.6144 235.654 71.5878 235.754 71.5678L235.914 73.6843C235.734 73.7442 235.491 73.8041 235.185 73.864C234.885 73.9305 234.516 73.9638 234.077 73.9638C233.411 73.9638 232.786 73.8207 232.2 73.5345C231.614 73.2484 231.165 72.8124 230.852 72.2267C230.539 71.641 230.456 70.9023 230.603 70.0104L233.118 54.7559ZM244.741 74.0836C243.33 74.0836 242.148 73.7475 241.197 73.0753C240.245 72.4031 239.573 71.4613 239.18 70.25C238.794 69.0387 238.731 67.6277 238.99 66.0171C239.243 64.4464 239.746 63.0787 240.498 61.914C241.257 60.7426 242.198 59.8374 243.323 59.1985C244.455 58.5529 245.699 58.2301 247.057 58.2301C248.468 58.2301 249.646 58.5695 250.591 59.2484C251.543 59.9206 252.215 60.8657 252.608 62.0837C253 63.295 253.067 64.7126 252.807 66.3366C252.554 67.894 252.045 69.255 251.28 70.4197C250.521 71.5778 249.579 72.4796 248.455 73.1252C247.336 73.7642 246.099 74.0836 244.741 74.0836ZM244.781 71.9672C245.859 71.9672 246.794 71.691 247.586 71.1385C248.385 70.5861 249.03 69.8574 249.523 68.9522C250.022 68.047 250.358 67.0687 250.531 66.0171C250.691 65.0188 250.684 64.0903 250.511 63.2318C250.338 62.3665 249.969 61.671 249.403 61.1452C248.837 60.6128 248.042 60.3466 247.017 60.3466C245.939 60.3466 244.997 60.6261 244.192 61.1852C243.393 61.7442 242.747 62.4797 242.255 63.3915C241.762 64.3033 241.433 65.285 241.267 66.3366C241.107 67.3349 241.11 68.2634 241.277 69.1219C241.45 69.9738 241.819 70.6627 242.385 71.1885C242.957 71.7076 243.756 71.9672 244.781 71.9672ZM254.624 73.7642L257.179 58.4298H259.456L259.056 60.7459H259.216C259.615 59.9872 260.224 59.3715 261.043 58.899C261.862 58.4265 262.73 58.1902 263.649 58.1902C263.828 58.1902 264.045 58.1935 264.297 58.2002C264.55 58.2002 264.747 58.2101 264.886 58.2301L264.487 60.6261C264.407 60.6061 264.228 60.5762 263.948 60.5363C263.669 60.4897 263.369 60.4664 263.05 60.4664C262.304 60.4664 261.615 60.6228 260.983 60.9356C260.351 61.2417 259.822 61.6677 259.396 62.2135C258.97 62.7526 258.697 63.3682 258.577 64.0604L256.98 73.7642H254.624ZM264.576 73.7642L267.132 58.4298H269.488L266.932 73.7642H264.576ZM269.029 55.8341C268.57 55.8341 268.174 55.6777 267.841 55.3649C267.515 55.0521 267.352 54.6761 267.352 54.2368C267.352 53.7975 267.515 53.4215 267.841 53.1087C268.174 52.7959 268.57 52.6395 269.029 52.6395C269.488 52.6395 269.881 52.7959 270.207 53.1087C270.54 53.4215 270.706 53.7975 270.706 54.2368C270.706 54.6761 270.54 55.0521 270.207 55.3649C269.881 55.6777 269.488 55.8341 269.029 55.8341ZM275.158 74.1236C274.186 74.1236 273.334 73.9405 272.602 73.5745C271.87 73.2018 271.328 72.666 270.975 71.9672C270.622 71.2617 270.526 70.4098 270.685 69.4114C270.838 68.5329 271.135 67.8208 271.574 67.275C272.013 66.7226 272.546 66.29 273.171 65.9772C273.804 65.6577 274.482 65.4214 275.208 65.2684C275.94 65.1086 276.669 64.9855 277.394 64.899C278.339 64.7792 279.108 64.686 279.7 64.6194C280.293 64.5529 280.739 64.4431 281.038 64.29C281.338 64.1369 281.521 63.874 281.587 63.5013V63.4214C281.747 62.4431 281.617 61.681 281.198 61.1353C280.779 60.5829 280.03 60.3066 278.952 60.3066C277.833 60.3066 276.898 60.5529 276.146 61.0454C275.394 61.5379 274.838 62.0637 274.479 62.6228L272.403 61.8241C272.948 60.8923 273.601 60.1669 274.359 59.6477C275.118 59.122 275.913 58.7559 276.745 58.5496C277.577 58.3366 278.379 58.2301 279.151 58.2301C279.644 58.2301 280.199 58.29 280.818 58.4098C281.437 58.523 282.016 58.7592 282.556 59.1186C283.101 59.478 283.511 60.0205 283.783 60.7459C284.063 61.4714 284.103 62.4431 283.903 63.661L282.226 73.7642H279.87L280.229 71.6876H280.11C279.897 72.0204 279.571 72.3765 279.131 72.7558C278.699 73.1352 278.15 73.458 277.484 73.7242C276.825 73.9904 276.05 74.1236 275.158 74.1236ZM275.837 72.0071C276.769 72.0071 277.584 71.8241 278.283 71.458C278.988 71.092 279.554 70.6194 279.98 70.0404C280.412 69.4613 280.682 68.8524 280.788 68.2134L281.148 66.057C281.028 66.1768 280.792 66.2867 280.439 66.3865C280.086 66.4797 279.687 66.5629 279.241 66.6361C278.802 66.7026 278.373 66.7625 277.953 66.8158C277.541 66.8624 277.208 66.9023 276.955 66.9356C276.329 67.0154 275.734 67.1452 275.168 67.3249C274.609 67.498 274.136 67.7609 273.75 68.1136C273.371 68.4597 273.135 68.9322 273.041 69.5312C272.902 70.3499 273.098 70.9688 273.63 71.3881C274.163 71.8008 274.898 72.0071 275.837 72.0071ZM293.269 73.7642L293.588 71.9672L301.535 64.5795C302.467 63.7143 303.242 62.9589 303.861 62.3133C304.487 61.6677 304.973 61.062 305.319 60.4963C305.671 59.9306 305.901 59.3349 306.007 58.7093C306.127 57.9905 306.064 57.3682 305.818 56.8424C305.572 56.3166 305.182 55.9107 304.65 55.6245C304.117 55.3383 303.478 55.1952 302.733 55.1952C301.948 55.1952 301.232 55.3582 300.587 55.6844C299.941 56.0038 299.405 56.4564 298.979 57.0421C298.553 57.6211 298.274 58.2967 298.141 59.0687H295.785C295.984 57.8707 296.44 56.8191 297.152 55.914C297.871 55.0088 298.753 54.3033 299.798 53.7975C300.849 53.2917 301.974 53.0388 303.172 53.0388C304.37 53.0388 305.385 53.2917 306.217 53.7975C307.049 54.3033 307.651 54.9855 308.024 55.8441C308.397 56.7027 308.497 57.6577 308.324 58.7093C308.19 59.468 307.928 60.2035 307.535 60.9156C307.142 61.6278 306.54 62.4231 305.728 63.3016C304.923 64.1735 303.831 65.2384 302.453 66.4963L297.062 71.4081L297.022 71.5678H306.527L306.167 73.7642H293.269ZM316.357 74.0437C314.853 74.0437 313.642 73.6344 312.723 72.8157C311.805 71.9905 311.199 70.7958 310.906 69.2317C310.613 67.661 310.647 65.7642 311.006 63.5412C311.365 61.3316 311.954 59.4448 312.773 57.8807C313.592 56.31 314.6 55.112 315.798 54.2867C316.996 53.4548 318.34 53.0388 319.831 53.0388C321.322 53.0388 322.53 53.4548 323.455 54.2867C324.387 55.1186 325.006 56.3166 325.312 57.8807C325.625 59.4448 325.595 61.3316 325.222 63.5412C324.849 65.7642 324.254 67.6577 323.435 69.2217C322.617 70.7858 321.608 71.9805 320.41 72.8058C319.212 73.631 317.861 74.0437 316.357 74.0437ZM316.716 71.8474C318.214 71.8474 319.495 71.1286 320.56 69.691C321.631 68.2467 322.387 66.1968 322.826 63.5412C323.119 61.7709 323.179 60.2634 323.006 59.0188C322.833 57.7742 322.447 56.8258 321.848 56.1736C321.249 55.5213 320.457 55.1952 319.472 55.1952C317.994 55.1952 316.723 55.924 315.658 57.3815C314.593 58.8324 313.841 60.8857 313.402 63.5412C313.109 65.3116 313.046 66.8158 313.212 68.0537C313.379 69.2916 313.758 70.2334 314.35 70.879C314.943 71.5246 315.731 71.8474 316.716 71.8474ZM326.736 73.7642L327.056 71.9672L335.003 64.5795C335.934 63.7143 336.71 62.9589 337.329 62.3133C337.954 61.6677 338.44 61.062 338.786 60.4963C339.139 59.9306 339.369 59.3349 339.475 58.7093C339.595 57.9905 339.532 57.3682 339.285 56.8424C339.039 56.3166 338.65 55.9107 338.117 55.6245C337.585 55.3383 336.946 55.1952 336.201 55.1952C335.415 55.1952 334.7 55.3582 334.054 55.6844C333.409 56.0038 332.873 56.4564 332.447 57.0421C332.021 57.6211 331.741 58.2967 331.608 59.0687H329.252C329.452 57.8707 329.908 56.8191 330.62 55.914C331.339 55.0088 332.221 54.3033 333.266 53.7975C334.317 53.2917 335.442 53.0388 336.64 53.0388C337.838 53.0388 338.853 53.2917 339.685 53.7975C340.517 54.3033 341.119 54.9855 341.492 55.8441C341.864 56.7027 341.964 57.6577 341.791 58.7093C341.658 59.468 341.395 60.2035 341.003 60.9156C340.61 61.6278 340.008 62.4231 339.196 63.3016C338.39 64.1735 337.299 65.2384 335.921 66.4963L330.53 71.4081L330.49 71.5678H339.994L339.635 73.7642H326.736ZM350.104 74.0437C349.246 74.037 348.414 73.874 347.608 73.5545C346.803 73.235 346.108 72.7059 345.522 71.9672C344.936 71.2217 344.533 70.2134 344.314 68.9422C344.101 67.671 344.154 66.0837 344.474 64.1802C344.773 62.3898 345.202 60.8058 345.761 59.4281C346.327 58.0438 347.003 56.879 347.788 55.934C348.573 54.9822 349.455 54.2634 350.434 53.7776C351.419 53.285 352.48 53.0388 353.618 53.0388C354.75 53.0388 355.731 53.2684 356.563 53.7276C357.402 54.1802 358.048 54.8125 358.5 55.6245C358.959 56.4298 359.182 57.3649 359.169 58.4298H356.813C356.78 57.498 356.497 56.7326 355.964 56.1336C355.439 55.5346 354.63 55.2351 353.538 55.2351C351.954 55.2351 350.57 55.9107 349.385 57.2617C348.201 58.6128 347.389 60.5862 346.949 63.1818L347.109 63.0221C347.575 62.463 348.091 61.9872 348.657 61.5945C349.222 61.2018 349.825 60.9023 350.464 60.696C351.109 60.4897 351.775 60.3865 352.46 60.3865C353.658 60.3865 354.706 60.686 355.605 61.285C356.503 61.884 357.166 62.706 357.592 63.7509C358.018 64.7958 358.117 65.9905 357.891 67.3349C357.678 68.5728 357.212 69.7043 356.494 70.7292C355.781 71.7475 354.876 72.5595 353.778 73.1652C352.687 73.7642 351.462 74.057 350.104 74.0437ZM350.184 71.8474C351.036 71.8474 351.841 71.6311 352.6 71.1984C353.359 70.7658 354.001 70.1835 354.527 69.4514C355.053 68.7193 355.389 67.9073 355.535 67.0154C355.668 66.2035 355.608 65.4614 355.355 64.7892C355.103 64.1169 354.693 63.5812 354.127 63.1818C353.562 62.7825 352.873 62.5828 352.061 62.5828C351.415 62.5828 350.786 62.7126 350.174 62.9722C349.568 63.2318 349.016 63.5878 348.517 64.0404C348.024 64.4863 347.612 64.9955 347.279 65.5679C346.946 66.1402 346.73 66.7426 346.63 67.3748C346.497 68.1602 346.557 68.8923 346.81 69.5712C347.063 70.25 347.479 70.7991 348.058 71.2184C348.637 71.6377 349.345 71.8474 350.184 71.8474Z" fill="black"/>
</svg>
