<svg width="224" height="212" viewBox="0 0 224 212" fill="none" xmlns="http://www.w3.org/2000/svg">
<path d="M0 8C0 3.58172 3.58172 0 8 0H216C220.418 0 224 3.58172 224 8V204H0V8Z" fill="#EBF5FF"/>
<circle cx="48" cy="56" r="32" fill="white"/>
<rect width="42.24" height="42.24" transform="translate(26.2422 33.6016)" fill="white"/>
<path d="M61.4406 68.8028V56.4828M47.3606 68.8028V51.2028M33.2806 68.8028L33.2806 61.7628M49.8364 42.4512L58.9328 45.8624M45.2465 43.1084L35.393 50.4985M63.3074 44.9361C64.3384 45.967 64.3384 47.6386 63.3074 48.6696C62.2764 49.7006 60.6048 49.7006 59.5739 48.6696C58.5429 47.6386 58.5429 45.967 59.5739 44.9361C60.6048 43.9051 62.2764 43.9051 63.3074 44.9361ZM35.1474 50.2161C36.1784 51.247 36.1784 52.9186 35.1474 53.9496C34.1164 54.9806 32.4448 54.9806 31.4139 53.9496C30.3829 52.9186 30.3829 51.247 31.4139 50.2161C32.4448 49.1851 34.1164 49.1851 35.1474 50.2161ZM49.2274 39.6561C50.2584 40.687 50.2584 42.3586 49.2274 43.3896C48.1964 44.4206 46.5248 44.4206 45.4939 43.3896C44.4629 42.3586 44.4629 40.687 45.4939 39.6561C46.5248 38.6251 48.1964 38.6251 49.2274 39.6561Z" stroke="#145FFF" stroke-width="0.96" stroke-linecap="round" stroke-linejoin="round"/>
<path d="M17.9787 114H16.348L20.0121 103.818H21.7869L25.451 114H23.8203L20.9418 105.668H20.8622L17.9787 114ZM18.2521 110.013H23.5419V111.305H18.2521V110.013ZM29.4756 114.154C28.7365 114.154 28.1001 113.987 27.5665 113.652C27.0362 113.314 26.6285 112.848 26.3435 112.255C26.0585 111.662 25.9159 110.982 25.9159 110.217C25.9159 109.441 26.0618 108.757 26.3534 108.163C26.6451 107.567 27.0561 107.101 27.5864 106.766C28.1167 106.432 28.7415 106.264 29.4607 106.264C30.0407 106.264 30.5577 106.372 31.0118 106.587C31.4659 106.799 31.8321 107.098 32.1105 107.482C32.3923 107.867 32.5596 108.316 32.6127 108.83H31.1659C31.0864 108.472 30.9041 108.163 30.6191 107.905C30.3373 107.646 29.9595 107.517 29.4855 107.517C29.0712 107.517 28.7083 107.626 28.3968 107.845C28.0885 108.061 27.8482 108.369 27.6759 108.77C27.5035 109.168 27.4174 109.638 27.4174 110.182C27.4174 110.739 27.5019 111.219 27.6709 111.624C27.8399 112.028 28.0786 112.341 28.3868 112.563C28.6984 112.785 29.0646 112.896 29.4855 112.896C29.7673 112.896 30.0225 112.845 30.2512 112.742C30.4832 112.636 30.6771 112.485 30.8328 112.29C30.9919 112.094 31.103 111.859 31.1659 111.584H32.6127C32.5596 112.078 32.3989 112.518 32.1304 112.906C31.862 113.294 31.5023 113.599 31.0516 113.821C30.6041 114.043 30.0788 114.154 29.4756 114.154ZM36.999 114.154C36.2598 114.154 35.6235 113.987 35.0899 113.652C34.5596 113.314 34.1519 112.848 33.8669 112.255C33.5818 111.662 33.4393 110.982 33.4393 110.217C33.4393 109.441 33.5851 108.757 33.8768 108.163C34.1685 107.567 34.5794 107.101 35.1098 106.766C35.6401 106.432 36.2648 106.264 36.984 106.264C37.5641 106.264 38.0811 106.372 38.5352 106.587C38.9892 106.799 39.3555 107.098 39.6339 107.482C39.9156 107.867 40.083 108.316 40.136 108.83H38.6893C38.6098 108.472 38.4275 108.163 38.1424 107.905C37.8607 107.646 37.4829 107.517 37.0089 107.517C36.5946 107.517 36.2317 107.626 35.9201 107.845C35.6119 108.061 35.3716 108.369 35.1992 108.77C35.0269 109.168 34.9407 109.638 34.9407 110.182C34.9407 110.739 35.0252 111.219 35.1943 111.624C35.3633 112.028 35.6019 112.341 35.9102 112.563C36.2217 112.785 36.588 112.896 37.0089 112.896C37.2906 112.896 37.5458 112.845 37.7745 112.742C38.0065 112.636 38.2004 112.485 38.3562 112.29C38.5153 112.094 38.6263 111.859 38.6893 111.584H40.136C40.083 112.078 39.9223 112.518 39.6538 112.906C39.3853 113.294 39.0257 113.599 38.575 113.821C38.1275 114.043 37.6022 114.154 36.999 114.154ZM44.5969 114.154C43.8445 114.154 43.1966 113.993 42.653 113.672C42.1128 113.347 41.6951 112.891 41.4002 112.305C41.1085 111.715 40.9627 111.024 40.9627 110.232C40.9627 109.449 41.1085 108.76 41.4002 108.163C41.6951 107.567 42.1061 107.101 42.6331 106.766C43.1634 106.432 43.7832 106.264 44.4925 106.264C44.9234 106.264 45.341 106.335 45.7453 106.478C46.1497 106.621 46.5126 106.844 46.8341 107.149C47.1556 107.454 47.4092 107.85 47.5948 108.337C47.7804 108.821 47.8732 109.41 47.8732 110.102V110.629H41.8029V109.516H46.4165C46.4165 109.125 46.3369 108.778 46.1779 108.477C46.0188 108.172 45.795 107.931 45.5067 107.756C45.2217 107.58 44.8869 107.492 44.5024 107.492C44.0848 107.492 43.7202 107.595 43.4087 107.8C43.1004 108.003 42.8618 108.268 42.6928 108.596C42.5271 108.921 42.4442 109.274 42.4442 109.655V110.525C42.4442 111.035 42.5337 111.469 42.7127 111.827C42.8949 112.185 43.1485 112.459 43.4733 112.648C43.7981 112.833 44.1776 112.926 44.6118 112.926C44.8935 112.926 45.1504 112.886 45.3824 112.807C45.6144 112.724 45.8149 112.601 45.984 112.439C46.153 112.277 46.2823 112.076 46.3717 111.837L47.7787 112.091C47.666 112.505 47.4638 112.868 47.1722 113.18C46.8838 113.488 46.5209 113.728 46.0834 113.901C45.6492 114.07 45.1537 114.154 44.5969 114.154ZM54.8248 108.228L53.4775 108.467C53.4211 108.294 53.3317 108.13 53.209 107.974C53.0897 107.819 52.9273 107.691 52.7218 107.592C52.5163 107.492 52.2595 107.442 51.9512 107.442C51.5303 107.442 51.179 107.537 50.8972 107.726C50.6155 107.911 50.4747 108.152 50.4747 108.447C50.4747 108.702 50.5691 108.907 50.758 109.063C50.947 109.219 51.2519 109.347 51.6728 109.446L52.8859 109.724C53.5885 109.887 54.1122 110.137 54.4569 110.475C54.8016 110.813 54.9739 111.252 54.9739 111.793C54.9739 112.25 54.8414 112.658 54.5762 113.016C54.3144 113.37 53.9481 113.649 53.4775 113.851C53.0102 114.053 52.4683 114.154 51.8518 114.154C50.9967 114.154 50.299 113.972 49.7587 113.607C49.2185 113.239 48.8871 112.717 48.7644 112.041L50.2012 111.822C50.2907 112.197 50.4747 112.48 50.7531 112.673C51.0315 112.862 51.3944 112.956 51.8418 112.956C52.3291 112.956 52.7185 112.855 53.0102 112.653C53.3018 112.447 53.4477 112.197 53.4477 111.902C53.4477 111.663 53.3582 111.463 53.1792 111.3C53.0035 111.138 52.7334 111.015 52.3688 110.933L51.0762 110.649C50.3636 110.487 49.8366 110.228 49.4952 109.874C49.1572 109.519 48.9881 109.07 48.9881 108.526C48.9881 108.076 49.1141 107.681 49.366 107.343C49.6179 107.005 49.9659 106.741 50.41 106.553C50.8541 106.36 51.3629 106.264 51.9363 106.264C52.7616 106.264 53.4112 106.443 53.8852 106.801C54.3591 107.156 54.6723 107.631 54.8248 108.228ZM61.9107 108.228L60.5634 108.467C60.507 108.294 60.4175 108.13 60.2949 107.974C60.1756 107.819 60.0132 107.691 59.8077 107.592C59.6022 107.492 59.3453 107.442 59.0371 107.442C58.6161 107.442 58.2648 107.537 57.9831 107.726C57.7014 107.911 57.5605 108.152 57.5605 108.447C57.5605 108.702 57.655 108.907 57.8439 109.063C58.0328 109.219 58.3377 109.347 58.7587 109.446L59.9717 109.724C60.6744 109.887 61.1981 110.137 61.5428 110.475C61.8875 110.813 62.0598 111.252 62.0598 111.793C62.0598 112.25 61.9272 112.658 61.6621 113.016C61.4002 113.37 61.034 113.649 60.5634 113.851C60.096 114.053 59.5541 114.154 58.9376 114.154C58.0825 114.154 57.3849 113.972 56.8446 113.607C56.3044 113.239 55.9729 112.717 55.8503 112.041L57.2871 111.822C57.3766 112.197 57.5605 112.48 57.8389 112.673C58.1173 112.862 58.4803 112.956 58.9277 112.956C59.4149 112.956 59.8044 112.855 60.096 112.653C60.3877 112.447 60.5335 112.197 60.5335 111.902C60.5335 111.663 60.444 111.463 60.2651 111.3C60.0894 111.138 59.8193 111.015 59.4547 110.933L58.1621 110.649C57.4495 110.487 56.9225 110.228 56.5811 109.874C56.243 109.519 56.074 109.07 56.074 108.526C56.074 108.076 56.2 107.681 56.4518 107.343C56.7037 107.005 57.0518 106.741 57.4959 106.553C57.94 106.36 58.4488 106.264 59.0222 106.264C59.8474 106.264 60.4971 106.443 60.971 106.801C61.445 107.156 61.7582 107.631 61.9107 108.228ZM66.5593 114V106.364H67.9861V107.607H68.0806C68.2397 107.186 68.4999 106.857 68.8611 106.622C69.2224 106.384 69.6549 106.264 70.1587 106.264C70.6691 106.264 71.0967 106.384 71.4414 106.622C71.7894 106.861 72.0463 107.189 72.212 107.607H72.2915C72.4738 107.199 72.7638 106.874 73.1616 106.632C73.5593 106.387 74.0332 106.264 74.5834 106.264C75.2761 106.264 75.8413 106.481 76.2788 106.915C76.7196 107.35 76.94 108.004 76.94 108.879V114H75.4535V109.018C75.4535 108.501 75.3126 108.127 75.0309 107.895C74.7492 107.663 74.4127 107.547 74.0216 107.547C73.5377 107.547 73.1616 107.696 72.8931 107.994C72.6246 108.289 72.4904 108.669 72.4904 109.133V114H71.0089V108.924C71.0089 108.51 70.8796 108.177 70.6211 107.925C70.3626 107.673 70.0261 107.547 69.6118 107.547C69.3301 107.547 69.0699 107.621 68.8313 107.771C68.596 107.916 68.4054 108.12 68.2596 108.382C68.1171 108.644 68.0458 108.947 68.0458 109.292V114H66.5593ZM81.729 114.154C81.013 114.154 80.3883 113.99 79.8547 113.662C79.321 113.334 78.9067 112.875 78.6118 112.285C78.3168 111.695 78.1693 111.005 78.1693 110.217C78.1693 109.424 78.3168 108.732 78.6118 108.138C78.9067 107.545 79.321 107.085 79.8547 106.756C80.3883 106.428 81.013 106.264 81.729 106.264C82.4449 106.264 83.0696 106.428 83.6032 106.756C84.1369 107.085 84.5512 107.545 84.8461 108.138C85.1411 108.732 85.2886 109.424 85.2886 110.217C85.2886 111.005 85.1411 111.695 84.8461 112.285C84.5512 112.875 84.1369 113.334 83.6032 113.662C83.0696 113.99 82.4449 114.154 81.729 114.154ZM81.7339 112.906C82.1979 112.906 82.5824 112.784 82.8873 112.538C83.1923 112.293 83.4176 111.967 83.5635 111.559C83.7126 111.151 83.7872 110.702 83.7872 110.212C83.7872 109.724 83.7126 109.277 83.5635 108.869C83.4176 108.458 83.1923 108.129 82.8873 107.88C82.5824 107.631 82.1979 107.507 81.7339 107.507C81.2666 107.507 80.8788 107.631 80.5706 107.88C80.2657 108.129 80.0386 108.458 79.8895 108.869C79.7436 109.277 79.6707 109.724 79.6707 110.212C79.6707 110.702 79.7436 111.151 79.8895 111.559C80.0386 111.967 80.2657 112.293 80.5706 112.538C80.8788 112.784 81.2666 112.906 81.7339 112.906ZM86.5279 114V106.364H87.9647V107.577H88.0442C88.1834 107.166 88.4287 106.843 88.78 106.607C89.1347 106.369 89.5357 106.249 89.9831 106.249C90.0759 106.249 90.1853 106.253 90.3113 106.259C90.4405 106.266 90.5416 106.274 90.6145 106.284V107.706C90.5549 107.689 90.4488 107.671 90.2964 107.651C90.1439 107.628 89.9914 107.616 89.839 107.616C89.4876 107.616 89.1744 107.691 88.8993 107.84C88.6276 107.986 88.4121 108.19 88.253 108.452C88.0939 108.71 88.0144 109.005 88.0144 109.337V114H86.5279ZM94.4987 114.154C93.7463 114.154 93.0984 113.993 92.5548 113.672C92.0146 113.347 91.5969 112.891 91.302 112.305C91.0103 111.715 90.8645 111.024 90.8645 110.232C90.8645 109.449 91.0103 108.76 91.302 108.163C91.5969 107.567 92.0079 107.101 92.5349 106.766C93.0652 106.432 93.685 106.264 94.3943 106.264C94.8252 106.264 95.2428 106.335 95.6471 106.478C96.0515 106.621 96.4144 106.844 96.7359 107.149C97.0574 107.454 97.311 107.85 97.4966 108.337C97.6822 108.821 97.775 109.41 97.775 110.102V110.629H91.7047V109.516H96.3183C96.3183 109.125 96.2387 108.778 96.0797 108.477C95.9206 108.172 95.6968 107.931 95.4085 107.756C95.1235 107.58 94.7887 107.492 94.4042 107.492C93.9866 107.492 93.622 107.595 93.3105 107.8C93.0022 108.003 92.7636 108.268 92.5946 108.596C92.4289 108.921 92.346 109.274 92.346 109.655V110.525C92.346 111.035 92.4355 111.469 92.6145 111.827C92.7967 112.185 93.0503 112.459 93.3751 112.648C93.6999 112.833 94.0794 112.926 94.5136 112.926C94.7953 112.926 95.0522 112.886 95.2842 112.807C95.5162 112.724 95.7167 112.601 95.8858 112.439C96.0548 112.277 96.1841 112.076 96.2735 111.837L97.6805 112.091C97.5678 112.505 97.3656 112.868 97.074 113.18C96.7856 113.488 96.4227 113.728 95.9852 113.901C95.551 114.07 95.0555 114.154 94.4987 114.154ZM104.512 114.169C104.028 114.169 103.59 114.08 103.199 113.901C102.808 113.718 102.498 113.455 102.269 113.11C102.044 112.765 101.931 112.343 101.931 111.842C101.931 111.411 102.014 111.057 102.18 110.778C102.346 110.5 102.569 110.28 102.851 110.117C103.133 109.955 103.448 109.832 103.796 109.749C104.144 109.666 104.498 109.603 104.86 109.56C105.317 109.507 105.688 109.464 105.973 109.431C106.258 109.395 106.466 109.337 106.595 109.257C106.724 109.178 106.789 109.048 106.789 108.869V108.835C106.789 108.4 106.666 108.064 106.421 107.825C106.179 107.587 105.818 107.467 105.337 107.467C104.836 107.467 104.442 107.578 104.154 107.8C103.869 108.019 103.671 108.263 103.562 108.531L102.165 108.213C102.331 107.749 102.573 107.375 102.891 107.089C103.212 106.801 103.582 106.592 104 106.463C104.417 106.33 104.856 106.264 105.317 106.264C105.622 106.264 105.945 106.301 106.287 106.374C106.631 106.443 106.953 106.572 107.251 106.761C107.553 106.95 107.8 107.22 107.992 107.572C108.184 107.92 108.28 108.372 108.28 108.929V114H106.828V112.956H106.769C106.673 113.148 106.528 113.337 106.336 113.523C106.144 113.708 105.897 113.862 105.595 113.985C105.294 114.108 104.933 114.169 104.512 114.169ZM104.835 112.976C105.246 112.976 105.597 112.895 105.889 112.732C106.184 112.57 106.408 112.358 106.56 112.096C106.716 111.831 106.794 111.547 106.794 111.246V110.261C106.741 110.314 106.638 110.364 106.485 110.411C106.336 110.454 106.166 110.492 105.973 110.525C105.781 110.555 105.594 110.583 105.412 110.609C105.229 110.633 105.077 110.652 104.954 110.669C104.666 110.705 104.402 110.767 104.164 110.853C103.928 110.939 103.739 111.063 103.597 111.226C103.458 111.385 103.388 111.597 103.388 111.862C103.388 112.23 103.524 112.509 103.796 112.697C104.068 112.883 104.414 112.976 104.835 112.976ZM109.84 114V106.364H111.327V114H109.84ZM110.591 105.185C110.332 105.185 110.11 105.099 109.925 104.927C109.742 104.751 109.651 104.542 109.651 104.3C109.651 104.055 109.742 103.846 109.925 103.674C110.11 103.498 110.332 103.411 110.591 103.411C110.849 103.411 111.07 103.498 111.252 103.674C111.438 103.846 111.53 104.055 111.53 104.3C111.53 104.542 111.438 104.751 111.252 104.927C111.07 105.099 110.849 105.185 110.591 105.185ZM112.906 114V106.364H114.343V107.577H114.423C114.562 107.166 114.807 106.843 115.159 106.607C115.513 106.369 115.914 106.249 116.362 106.249C116.454 106.249 116.564 106.253 116.69 106.259C116.819 106.266 116.92 106.274 116.993 106.284V107.706C116.933 107.689 116.827 107.671 116.675 107.651C116.522 107.628 116.37 107.616 116.217 107.616C115.866 107.616 115.553 107.691 115.278 107.84C115.006 107.986 114.791 108.19 114.632 108.452C114.472 108.71 114.393 109.005 114.393 109.337V114H112.906ZM126.3 116.864V112.812H126.211C126.121 112.974 125.992 113.16 125.823 113.369C125.657 113.577 125.428 113.76 125.137 113.915C124.845 114.071 124.467 114.149 124.003 114.149C123.387 114.149 122.837 113.992 122.353 113.677C121.872 113.359 121.494 112.906 121.219 112.32C120.947 111.73 120.811 111.022 120.811 110.197C120.811 109.371 120.949 108.665 121.224 108.079C121.502 107.492 121.884 107.043 122.368 106.732C122.851 106.42 123.4 106.264 124.013 106.264C124.487 106.264 124.868 106.344 125.157 106.503C125.448 106.659 125.674 106.841 125.833 107.05C125.995 107.259 126.121 107.442 126.211 107.602H126.335V106.364H127.787V116.864H126.3ZM124.331 112.881C124.759 112.881 125.12 112.769 125.415 112.543C125.713 112.315 125.939 111.998 126.091 111.594C126.247 111.189 126.325 110.719 126.325 110.182C126.325 109.652 126.249 109.187 126.096 108.79C125.944 108.392 125.72 108.082 125.425 107.86C125.13 107.638 124.765 107.527 124.331 107.527C123.884 107.527 123.511 107.643 123.213 107.875C122.914 108.107 122.689 108.424 122.537 108.825C122.387 109.226 122.313 109.678 122.313 110.182C122.313 110.692 122.389 111.151 122.542 111.559C122.694 111.967 122.919 112.29 123.218 112.528C123.519 112.764 123.89 112.881 124.331 112.881ZM134.203 110.833V106.364H135.694V114H134.232V112.678H134.153C133.977 113.085 133.695 113.425 133.308 113.697C132.923 113.965 132.444 114.099 131.871 114.099C131.38 114.099 130.946 113.992 130.568 113.776C130.194 113.558 129.899 113.234 129.683 112.807C129.471 112.379 129.365 111.851 129.365 111.221V106.364H130.852V111.042C130.852 111.562 130.996 111.977 131.284 112.285C131.573 112.593 131.947 112.747 132.408 112.747C132.686 112.747 132.963 112.678 133.238 112.538C133.516 112.399 133.747 112.189 133.929 111.907C134.115 111.625 134.206 111.267 134.203 110.833ZM139.494 114.169C139.01 114.169 138.572 114.08 138.181 113.901C137.79 113.718 137.48 113.455 137.251 113.11C137.026 112.765 136.913 112.343 136.913 111.842C136.913 111.411 136.996 111.057 137.162 110.778C137.328 110.5 137.551 110.28 137.833 110.117C138.115 109.955 138.43 109.832 138.778 109.749C139.126 109.666 139.48 109.603 139.842 109.56C140.299 109.507 140.67 109.464 140.955 109.431C141.24 109.395 141.447 109.337 141.577 109.257C141.706 109.178 141.771 109.048 141.771 108.869V108.835C141.771 108.4 141.648 108.064 141.403 107.825C141.161 107.587 140.799 107.467 140.319 107.467C139.818 107.467 139.424 107.578 139.136 107.8C138.851 108.019 138.653 108.263 138.544 108.531L137.147 108.213C137.313 107.749 137.555 107.375 137.873 107.089C138.194 106.801 138.564 106.592 138.982 106.463C139.399 106.33 139.838 106.264 140.299 106.264C140.604 106.264 140.927 106.301 141.268 106.374C141.613 106.443 141.935 106.572 142.233 106.761C142.535 106.95 142.782 107.22 142.974 107.572C143.166 107.92 143.262 108.372 143.262 108.929V114H141.81V112.956H141.751C141.655 113.148 141.51 113.337 141.318 113.523C141.126 113.708 140.879 113.862 140.577 113.985C140.276 114.108 139.915 114.169 139.494 114.169ZM139.817 112.976C140.228 112.976 140.579 112.895 140.871 112.732C141.166 112.57 141.389 112.358 141.542 112.096C141.698 111.831 141.776 111.547 141.776 111.246V110.261C141.723 110.314 141.62 110.364 141.467 110.411C141.318 110.454 141.148 110.492 140.955 110.525C140.763 110.555 140.576 110.583 140.393 110.609C140.211 110.633 140.059 110.652 139.936 110.669C139.648 110.705 139.384 110.767 139.146 110.853C138.91 110.939 138.721 111.063 138.579 111.226C138.44 111.385 138.37 111.597 138.37 111.862C138.37 112.23 138.506 112.509 138.778 112.697C139.049 112.883 139.396 112.976 139.817 112.976ZM146.309 103.818V114H144.822V103.818H146.309ZM147.888 114V106.364H149.375V114H147.888ZM148.639 105.185C148.381 105.185 148.158 105.099 147.973 104.927C147.791 104.751 147.699 104.542 147.699 104.3C147.699 104.055 147.791 103.846 147.973 103.674C148.158 103.498 148.381 103.411 148.639 103.411C148.898 103.411 149.118 103.498 149.3 103.674C149.486 103.846 149.579 104.055 149.579 104.3C149.579 104.542 149.486 104.751 149.3 104.927C149.118 105.099 148.898 105.185 148.639 105.185ZM154.519 106.364V107.557H150.348V106.364H154.519ZM151.467 104.534H152.953V111.758C152.953 112.046 152.996 112.263 153.083 112.409C153.169 112.552 153.28 112.649 153.416 112.702C153.555 112.752 153.706 112.777 153.868 112.777C153.987 112.777 154.092 112.769 154.181 112.752C154.271 112.736 154.34 112.722 154.39 112.712L154.659 113.94C154.572 113.973 154.45 114.007 154.291 114.04C154.132 114.076 153.933 114.096 153.694 114.099C153.303 114.106 152.938 114.036 152.6 113.891C152.262 113.745 151.989 113.519 151.78 113.214C151.571 112.91 151.467 112.527 151.467 112.066V104.534ZM156.683 116.864C156.461 116.864 156.259 116.845 156.077 116.809C155.894 116.776 155.759 116.739 155.669 116.7L156.027 115.482C156.299 115.554 156.541 115.586 156.753 115.576C156.965 115.566 157.152 115.487 157.315 115.337C157.48 115.188 157.626 114.945 157.752 114.607L157.936 114.099L155.142 106.364H156.733L158.667 112.29H158.747L160.68 106.364H162.276L159.129 115.019C158.983 115.417 158.798 115.753 158.572 116.028C158.347 116.307 158.079 116.516 157.767 116.655C157.456 116.794 157.094 116.864 156.683 116.864ZM16.9993 131V123.364H18.4858V131H16.9993ZM17.75 122.185C17.4915 122.185 17.2694 122.099 17.0838 121.927C16.9015 121.751 16.8104 121.542 16.8104 121.3C16.8104 121.055 16.9015 120.846 17.0838 120.674C17.2694 120.498 17.4915 120.411 17.75 120.411C18.0085 120.411 18.2289 120.498 18.4112 120.674C18.5968 120.846 18.6896 121.055 18.6896 121.3C18.6896 121.542 18.5968 121.751 18.4112 121.927C18.2289 122.099 18.0085 122.185 17.75 122.185ZM21.5521 126.466V131H20.0656V123.364H21.4925V124.607H21.5869C21.7626 124.202 22.0377 123.877 22.4122 123.632C22.79 123.387 23.2657 123.264 23.8391 123.264C24.3594 123.264 24.8151 123.374 25.2062 123.592C25.5973 123.808 25.9006 124.129 26.116 124.557C26.3315 124.984 26.4392 125.513 26.4392 126.143V131H24.9527V126.322C24.9527 125.768 24.8085 125.336 24.5202 125.024C24.2318 124.709 23.8357 124.552 23.332 124.552C22.9873 124.552 22.6807 124.626 22.4122 124.776C22.1471 124.925 21.9366 125.143 21.7808 125.432C21.6284 125.717 21.5521 126.062 21.5521 126.466ZM33.7351 125.228L32.3878 125.467C32.3315 125.294 32.242 125.13 32.1193 124.974C32 124.819 31.8376 124.691 31.6321 124.592C31.4266 124.492 31.1698 124.442 30.8615 124.442C30.4406 124.442 30.0893 124.537 29.8075 124.726C29.5258 124.911 29.385 125.152 29.385 125.447C29.385 125.702 29.4794 125.907 29.6683 126.063C29.8573 126.219 30.1622 126.347 30.5831 126.446L31.7962 126.724C32.4988 126.887 33.0225 127.137 33.3672 127.475C33.7119 127.813 33.8843 128.252 33.8843 128.793C33.8843 129.25 33.7517 129.658 33.4865 130.016C33.2247 130.37 32.8584 130.649 32.3878 130.851C31.9205 131.053 31.3786 131.154 30.7621 131.154C29.907 131.154 29.2093 130.972 28.6691 130.607C28.1288 130.239 27.7974 129.717 27.6747 129.041L29.1115 128.822C29.201 129.197 29.385 129.48 29.6634 129.673C29.9418 129.862 30.3047 129.956 30.7522 129.956C31.2394 129.956 31.6288 129.855 31.9205 129.653C32.2121 129.447 32.358 129.197 32.358 128.902C32.358 128.663 32.2685 128.463 32.0895 128.3C31.9138 128.138 31.6437 128.015 31.2791 127.933L29.9865 127.649C29.2739 127.487 28.7469 127.228 28.4056 126.874C28.0675 126.519 27.8985 126.07 27.8985 125.526C27.8985 125.076 28.0244 124.681 28.2763 124.343C28.5282 124.005 28.8762 123.741 29.3203 123.553C29.7645 123.36 30.2732 123.264 30.8466 123.264C31.6719 123.264 32.3215 123.443 32.7955 123.801C33.2694 124.156 33.5826 124.631 33.7351 125.228ZM35.0987 131V123.364H36.5852V131H35.0987ZM35.8494 122.185C35.5909 122.185 35.3688 122.099 35.1832 121.927C35.0009 121.751 34.9097 121.542 34.9097 121.3C34.9097 121.055 35.0009 120.846 35.1832 120.674C35.3688 120.498 35.5909 120.411 35.8494 120.411C36.1079 120.411 36.3283 120.498 36.5106 120.674C36.6962 120.846 36.789 121.055 36.789 121.3C36.789 121.542 36.6962 121.751 36.5106 121.927C36.3283 122.099 36.1079 122.185 35.8494 122.185ZM41.3667 134.023C40.7602 134.023 40.2381 133.943 39.8006 133.784C39.3665 133.625 39.0118 133.415 38.7367 133.153C38.4616 132.891 38.2561 132.604 38.1202 132.293L39.3979 131.766C39.4874 131.911 39.6068 132.066 39.7559 132.228C39.9084 132.394 40.1139 132.535 40.3724 132.651C40.6342 132.767 40.9706 132.825 41.3816 132.825C41.9451 132.825 42.4107 132.687 42.7786 132.412C43.1465 132.14 43.3305 131.706 43.3305 131.109V129.608H43.236C43.1465 129.77 43.0173 129.951 42.8482 130.15C42.6825 130.349 42.4538 130.521 42.1622 130.667C41.8705 130.813 41.491 130.886 41.0237 130.886C40.4204 130.886 39.8769 130.745 39.393 130.463C38.9124 130.178 38.5312 129.759 38.2495 129.205C37.9711 128.648 37.8319 127.964 37.8319 127.152C37.8319 126.34 37.9694 125.644 38.2445 125.064C38.5229 124.484 38.9041 124.04 39.388 123.732C39.8719 123.42 40.4204 123.264 41.0336 123.264C41.5076 123.264 41.8904 123.344 42.182 123.503C42.4737 123.659 42.7007 123.841 42.8631 124.05C43.0289 124.259 43.1565 124.442 43.246 124.602H43.3553V123.364H44.812V131.169C44.812 131.825 44.6595 132.364 44.3546 132.785C44.0497 133.206 43.6371 133.517 43.1167 133.719C42.5997 133.922 42.0163 134.023 41.3667 134.023ZM41.3518 129.653C41.7793 129.653 42.1406 129.553 42.4356 129.354C42.7339 129.152 42.9593 128.864 43.1117 128.489C43.2675 128.112 43.3454 127.659 43.3454 127.132C43.3454 126.618 43.2692 126.166 43.1167 125.775C42.9642 125.384 42.7405 125.079 42.4455 124.86C42.1506 124.638 41.786 124.527 41.3518 124.527C40.9043 124.527 40.5315 124.643 40.2332 124.875C39.9349 125.104 39.7095 125.415 39.557 125.81C39.4079 126.204 39.3333 126.645 39.3333 127.132C39.3333 127.633 39.4095 128.072 39.562 128.45C39.7145 128.827 39.9399 129.122 40.2381 129.335C40.5398 129.547 40.911 129.653 41.3518 129.653ZM47.8721 126.466V131H46.3856V120.818H47.8522V124.607H47.9467C48.1257 124.196 48.3991 123.869 48.767 123.627C49.1349 123.385 49.6155 123.264 50.2088 123.264C50.7324 123.264 51.1898 123.372 51.5809 123.587C51.9753 123.803 52.2803 124.124 52.4957 124.552C52.7145 124.976 52.8238 125.506 52.8238 126.143V131H51.3373V126.322C51.3373 125.762 51.1931 125.327 50.9048 125.019C50.6164 124.708 50.2154 124.552 49.7017 124.552C49.3503 124.552 49.0355 124.626 48.7571 124.776C48.482 124.925 48.2649 125.143 48.1058 125.432C47.95 125.717 47.8721 126.062 47.8721 126.466ZM57.9521 123.364V124.557H53.781V123.364H57.9521ZM54.8996 121.534H56.3861V128.758C56.3861 129.046 56.4292 129.263 56.5153 129.409C56.6015 129.552 56.7125 129.649 56.8484 129.702C56.9876 129.752 57.1384 129.777 57.3008 129.777C57.4202 129.777 57.5246 129.769 57.6141 129.752C57.7035 129.736 57.7731 129.722 57.8229 129.712L58.0913 130.94C58.0052 130.973 57.8825 131.007 57.7234 131.04C57.5643 131.076 57.3655 131.096 57.1268 131.099C56.7357 131.106 56.3712 131.036 56.0331 130.891C55.695 130.745 55.4216 130.519 55.2128 130.214C55.004 129.91 54.8996 129.527 54.8996 129.066V121.534ZM64.7757 125.228L63.4284 125.467C63.3721 125.294 63.2826 125.13 63.16 124.974C63.0406 124.819 62.8782 124.691 62.6728 124.592C62.4673 124.492 62.2104 124.442 61.9022 124.442C61.4812 124.442 61.1299 124.537 60.8482 124.726C60.5665 124.911 60.4256 125.152 60.4256 125.447C60.4256 125.702 60.5201 125.907 60.709 126.063C60.8979 126.219 61.2028 126.347 61.6237 126.446L62.8368 126.724C63.5395 126.887 64.0631 127.137 64.4078 127.475C64.7525 127.813 64.9249 128.252 64.9249 128.793C64.9249 129.25 64.7923 129.658 64.5272 130.016C64.2653 130.37 63.8991 130.649 63.4284 130.851C62.9611 131.053 62.4192 131.154 61.8027 131.154C60.9476 131.154 60.2499 130.972 59.7097 130.607C59.1694 130.239 58.838 129.717 58.7154 129.041L60.1522 128.822C60.2416 129.197 60.4256 129.48 60.704 129.673C60.9824 129.862 61.3453 129.956 61.7928 129.956C62.28 129.956 62.6694 129.855 62.9611 129.653C63.2528 129.447 63.3986 129.197 63.3986 128.902C63.3986 128.663 63.3091 128.463 63.1301 128.3C62.9545 128.138 62.6844 128.015 62.3198 127.933L61.0272 127.649C60.3146 127.487 59.7876 127.228 59.4462 126.874C59.1081 126.519 58.9391 126.07 58.9391 125.526C58.9391 125.076 59.065 124.681 59.3169 124.343C59.5688 124.005 59.9168 123.741 60.361 123.553C60.8051 123.36 61.3138 123.264 61.8872 123.264C62.7125 123.264 63.3621 123.443 63.8361 123.801C64.3101 124.156 64.6233 124.631 64.7757 125.228ZM71.6467 131.169C71.1628 131.169 70.7253 131.08 70.3342 130.901C69.9431 130.718 69.6332 130.455 69.4045 130.11C69.1791 129.765 69.0664 129.343 69.0664 128.842C69.0664 128.411 69.1493 128.057 69.315 127.778C69.4807 127.5 69.7044 127.28 69.9862 127.117C70.2679 126.955 70.5827 126.832 70.9308 126.749C71.2788 126.666 71.6334 126.603 71.9947 126.56C72.4521 126.507 72.8233 126.464 73.1083 126.431C73.3934 126.395 73.6005 126.337 73.7298 126.257C73.859 126.178 73.9237 126.048 73.9237 125.869V125.835C73.9237 125.4 73.801 125.064 73.5558 124.825C73.3138 124.587 72.9525 124.467 72.472 124.467C71.9715 124.467 71.5771 124.578 71.2887 124.8C71.0037 125.019 70.8065 125.263 70.6971 125.531L69.3001 125.213C69.4658 124.749 69.7077 124.375 70.0259 124.089C70.3474 123.801 70.717 123.592 71.1346 123.463C71.5522 123.33 71.9914 123.264 72.4521 123.264C72.757 123.264 73.0801 123.301 73.4215 123.374C73.7662 123.443 74.0877 123.572 74.386 123.761C74.6876 123.95 74.9345 124.22 75.1268 124.572C75.319 124.92 75.4151 125.372 75.4151 125.929V131H73.9634V129.956H73.9038C73.8077 130.148 73.6635 130.337 73.4712 130.523C73.279 130.708 73.0321 130.862 72.7305 130.985C72.4289 131.108 72.0676 131.169 71.6467 131.169ZM71.9698 129.976C72.3808 129.976 72.7321 129.895 73.0238 129.732C73.3188 129.57 73.5425 129.358 73.695 129.096C73.8507 128.831 73.9286 128.547 73.9286 128.246V127.261C73.8756 127.314 73.7729 127.364 73.6204 127.411C73.4712 127.454 73.3006 127.492 73.1083 127.525C72.9161 127.555 72.7288 127.583 72.5465 127.609C72.3642 127.633 72.2118 127.652 72.0891 127.669C71.8008 127.705 71.5373 127.767 71.2987 127.853C71.0633 127.939 70.8744 128.063 70.7319 128.226C70.5927 128.385 70.5231 128.597 70.5231 128.862C70.5231 129.23 70.659 129.509 70.9308 129.697C71.2025 129.883 71.5489 129.976 71.9698 129.976ZM78.4616 126.466V131H76.9751V123.364H78.4019V124.607H78.4964C78.672 124.202 78.9471 123.877 79.3217 123.632C79.6995 123.387 80.1751 123.264 80.7485 123.264C81.2689 123.264 81.7246 123.374 82.1157 123.592C82.5068 123.808 82.8101 124.129 83.0255 124.557C83.2409 124.984 83.3487 125.513 83.3487 126.143V131H81.8621V126.322C81.8621 125.768 81.718 125.336 81.4296 125.024C81.1413 124.709 80.7452 124.552 80.2414 124.552C79.8967 124.552 79.5901 124.626 79.3217 124.776C79.0565 124.925 78.846 125.143 78.6903 125.432C78.5378 125.717 78.4616 126.062 78.4616 126.466ZM87.7809 131.149C87.1644 131.149 86.6143 130.992 86.1304 130.677C85.6498 130.359 85.2719 129.906 84.9968 129.32C84.725 128.73 84.5892 128.022 84.5892 127.197C84.5892 126.371 84.7267 125.665 85.0018 125.079C85.2802 124.492 85.6614 124.043 86.1453 123.732C86.6292 123.42 87.1777 123.264 87.7909 123.264C88.2648 123.264 88.646 123.344 88.9343 123.503C89.226 123.659 89.4514 123.841 89.6105 124.05C89.7729 124.259 89.8988 124.442 89.9883 124.602H90.0778V120.818H91.5643V131H90.1126V129.812H89.9883C89.8988 129.974 89.7696 130.16 89.6005 130.369C89.4348 130.577 89.2061 130.76 88.9144 130.915C88.6228 131.071 88.2449 131.149 87.7809 131.149ZM88.109 129.881C88.5366 129.881 88.8979 129.769 89.1929 129.543C89.4911 129.315 89.7165 128.998 89.869 128.594C90.0248 128.189 90.1027 127.719 90.1027 127.182C90.1027 126.652 90.0264 126.187 89.874 125.79C89.7215 125.392 89.4978 125.082 89.2028 124.86C88.9078 124.638 88.5432 124.527 88.109 124.527C87.6616 124.527 87.2887 124.643 86.9904 124.875C86.6921 125.107 86.4668 125.424 86.3143 125.825C86.1652 126.226 86.0906 126.678 86.0906 127.182C86.0906 127.692 86.1668 128.151 86.3193 128.559C86.4717 128.967 86.6971 129.29 86.9954 129.528C87.297 129.764 87.6682 129.881 88.109 129.881ZM99.7527 134.023C99.1462 134.023 98.6242 133.943 98.1867 133.784C97.7525 133.625 97.3978 133.415 97.1227 133.153C96.8476 132.891 96.6422 132.604 96.5063 132.293L97.784 131.766C97.8735 131.911 97.9928 132.066 98.1419 132.228C98.2944 132.394 98.4999 132.535 98.7584 132.651C99.0202 132.767 99.3566 132.825 99.7676 132.825C100.331 132.825 100.797 132.687 101.165 132.412C101.533 132.14 101.716 131.706 101.716 131.109V129.608H101.622C101.533 129.77 101.403 129.951 101.234 130.15C101.069 130.349 100.84 130.521 100.548 130.667C100.257 130.813 99.877 130.886 99.4097 130.886C98.8065 130.886 98.2629 130.745 97.779 130.463C97.2984 130.178 96.9173 129.759 96.6355 129.205C96.3571 128.648 96.2179 127.964 96.2179 127.152C96.2179 126.34 96.3555 125.644 96.6306 125.064C96.909 124.484 97.2901 124.04 97.774 123.732C98.2579 123.42 98.8065 123.264 99.4196 123.264C99.8936 123.264 100.276 123.344 100.568 123.503C100.86 123.659 101.087 123.841 101.249 124.05C101.415 124.259 101.542 124.442 101.632 124.602H101.741V123.364H103.198V131.169C103.198 131.825 103.046 132.364 102.741 132.785C102.436 133.206 102.023 133.517 101.503 133.719C100.986 133.922 100.402 134.023 99.7527 134.023ZM99.7378 129.653C100.165 129.653 100.527 129.553 100.822 129.354C101.12 129.152 101.345 128.864 101.498 128.489C101.654 128.112 101.731 127.659 101.731 127.132C101.731 126.618 101.655 126.166 101.503 125.775C101.35 125.384 101.127 125.079 100.832 124.86C100.537 124.638 100.172 124.527 99.7378 124.527C99.2904 124.527 98.9175 124.643 98.6192 124.875C98.3209 125.104 98.0955 125.415 97.9431 125.81C97.7939 126.204 97.7193 126.645 97.7193 127.132C97.7193 127.633 97.7956 128.072 97.948 128.45C98.1005 128.827 98.3259 129.122 98.6242 129.335C98.9258 129.547 99.297 129.653 99.7378 129.653ZM106.994 131.169C106.51 131.169 106.073 131.08 105.681 130.901C105.29 130.718 104.98 130.455 104.752 130.11C104.526 129.765 104.414 129.343 104.414 128.842C104.414 128.411 104.497 128.057 104.662 127.778C104.828 127.5 105.052 127.28 105.333 127.117C105.615 126.955 105.93 126.832 106.278 126.749C106.626 126.666 106.981 126.603 107.342 126.56C107.799 126.507 108.171 126.464 108.456 126.431C108.741 126.395 108.948 126.337 109.077 126.257C109.206 126.178 109.271 126.048 109.271 125.869V125.835C109.271 125.4 109.148 125.064 108.903 124.825C108.661 124.587 108.3 124.467 107.819 124.467C107.319 124.467 106.924 124.578 106.636 124.8C106.351 125.019 106.154 125.263 106.044 125.531L104.647 125.213C104.813 124.749 105.055 124.375 105.373 124.089C105.695 123.801 106.064 123.592 106.482 123.463C106.899 123.33 107.339 123.264 107.799 123.264C108.104 123.264 108.427 123.301 108.769 123.374C109.113 123.443 109.435 123.572 109.733 123.761C110.035 123.95 110.282 124.22 110.474 124.572C110.666 124.92 110.762 125.372 110.762 125.929V131H109.311V129.956H109.251C109.155 130.148 109.011 130.337 108.819 130.523C108.626 130.708 108.379 130.862 108.078 130.985C107.776 131.108 107.415 131.169 106.994 131.169ZM107.317 129.976C107.728 129.976 108.079 129.895 108.371 129.732C108.666 129.57 108.89 129.358 109.042 129.096C109.198 128.831 109.276 128.547 109.276 128.246V127.261C109.223 127.314 109.12 127.364 108.968 127.411C108.819 127.454 108.648 127.492 108.456 127.525C108.263 127.555 108.076 127.583 107.894 127.609C107.712 127.633 107.559 127.652 107.436 127.669C107.148 127.705 106.885 127.767 106.646 127.853C106.411 127.939 106.222 128.063 106.079 128.226C105.94 128.385 105.87 128.597 105.87 128.862C105.87 129.23 106.006 129.509 106.278 129.697C106.55 129.883 106.896 129.976 107.317 129.976ZM112.322 131V123.364H113.809V131H112.322ZM113.073 122.185C112.815 122.185 112.592 122.099 112.407 121.927C112.225 121.751 112.133 121.542 112.133 121.3C112.133 121.055 112.225 120.846 112.407 120.674C112.592 120.498 112.815 120.411 113.073 120.411C113.332 120.411 113.552 120.498 113.734 120.674C113.92 120.846 114.013 121.055 114.013 121.3C114.013 121.542 113.92 121.751 113.734 121.927C113.552 122.099 113.332 122.185 113.073 122.185ZM116.875 126.466V131H115.389V123.364H116.816V124.607H116.91C117.086 124.202 117.361 123.877 117.735 123.632C118.113 123.387 118.589 123.264 119.162 123.264C119.682 123.264 120.138 123.374 120.529 123.592C120.92 123.808 121.224 124.129 121.439 124.557C121.655 124.984 121.762 125.513 121.762 126.143V131H120.276V126.322C120.276 125.768 120.132 125.336 119.843 125.024C119.555 124.709 119.159 124.552 118.655 124.552C118.31 124.552 118.004 124.626 117.735 124.776C117.47 124.925 117.26 125.143 117.104 125.432C116.951 125.717 116.875 126.062 116.875 126.466ZM130.186 123.364V124.557H126.014V123.364H130.186ZM127.133 121.534H128.62V128.758C128.62 129.046 128.663 129.263 128.749 129.409C128.835 129.552 128.946 129.649 129.082 129.702C129.221 129.752 129.372 129.777 129.534 129.777C129.654 129.777 129.758 129.769 129.847 129.752C129.937 129.736 130.007 129.722 130.056 129.712L130.325 130.94C130.239 130.973 130.116 131.007 129.957 131.04C129.798 131.076 129.599 131.096 129.36 131.099C128.969 131.106 128.605 131.036 128.267 130.891C127.928 130.745 127.655 130.519 127.446 130.214C127.237 129.91 127.133 129.527 127.133 129.066V121.534ZM133.06 126.466V131H131.574V120.818H133.041V124.607H133.135C133.314 124.196 133.587 123.869 133.955 123.627C134.323 123.385 134.804 123.264 135.397 123.264C135.921 123.264 136.378 123.372 136.769 123.587C137.164 123.803 137.469 124.124 137.684 124.552C137.903 124.976 138.012 125.506 138.012 126.143V131H136.526V126.322C136.526 125.762 136.382 125.327 136.093 125.019C135.805 124.708 135.404 124.552 134.89 124.552C134.539 124.552 134.224 124.626 133.945 124.776C133.67 124.925 133.453 125.143 133.294 125.432C133.138 125.717 133.06 126.062 133.06 126.466ZM142.867 131.154C142.115 131.154 141.467 130.993 140.923 130.672C140.383 130.347 139.965 129.891 139.67 129.305C139.379 128.715 139.233 128.024 139.233 127.232C139.233 126.449 139.379 125.76 139.67 125.163C139.965 124.567 140.376 124.101 140.903 123.766C141.434 123.432 142.053 123.264 142.763 123.264C143.194 123.264 143.611 123.335 144.015 123.478C144.42 123.621 144.783 123.844 145.104 124.149C145.426 124.454 145.679 124.85 145.865 125.337C146.051 125.821 146.143 126.41 146.143 127.102V127.629H140.073V126.516H144.687C144.687 126.125 144.607 125.778 144.448 125.477C144.289 125.172 144.065 124.931 143.777 124.756C143.492 124.58 143.157 124.492 142.773 124.492C142.355 124.492 141.99 124.595 141.679 124.8C141.371 125.003 141.132 125.268 140.963 125.596C140.797 125.921 140.714 126.274 140.714 126.655V127.525C140.714 128.035 140.804 128.469 140.983 128.827C141.165 129.185 141.419 129.459 141.743 129.648C142.068 129.833 142.448 129.926 142.882 129.926C143.164 129.926 143.421 129.886 143.653 129.807C143.885 129.724 144.085 129.601 144.254 129.439C144.423 129.277 144.552 129.076 144.642 128.837L146.049 129.091C145.936 129.505 145.734 129.868 145.442 130.18C145.154 130.488 144.791 130.728 144.354 130.901C143.919 131.07 143.424 131.154 142.867 131.154ZM152.88 131.169C152.396 131.169 151.959 131.08 151.568 130.901C151.176 130.718 150.867 130.455 150.638 130.11C150.412 129.765 150.3 129.343 150.3 128.842C150.3 128.411 150.383 128.057 150.548 127.778C150.714 127.5 150.938 127.28 151.22 127.117C151.501 126.955 151.816 126.832 152.164 126.749C152.512 126.666 152.867 126.603 153.228 126.56C153.685 126.507 154.057 126.464 154.342 126.431C154.627 126.395 154.834 126.337 154.963 126.257C155.092 126.178 155.157 126.048 155.157 125.869V125.835C155.157 125.4 155.034 125.064 154.789 124.825C154.547 124.587 154.186 124.467 153.705 124.467C153.205 124.467 152.81 124.578 152.522 124.8C152.237 125.019 152.04 125.263 151.93 125.531L150.533 125.213C150.699 124.749 150.941 124.375 151.259 124.089C151.581 123.801 151.95 123.592 152.368 123.463C152.786 123.33 153.225 123.264 153.685 123.264C153.99 123.264 154.313 123.301 154.655 123.374C155 123.443 155.321 123.572 155.619 123.761C155.921 123.95 156.168 124.22 156.36 124.572C156.552 124.92 156.648 125.372 156.648 125.929V131H155.197V129.956H155.137C155.041 130.148 154.897 130.337 154.705 130.523C154.512 130.708 154.265 130.862 153.964 130.985C153.662 131.108 153.301 131.169 152.88 131.169ZM153.203 129.976C153.614 129.976 153.965 129.895 154.257 129.732C154.552 129.57 154.776 129.358 154.928 129.096C155.084 128.831 155.162 128.547 155.162 128.246V127.261C155.109 127.314 155.006 127.364 154.854 127.411C154.705 127.454 154.534 127.492 154.342 127.525C154.149 127.555 153.962 127.583 153.78 127.609C153.598 127.633 153.445 127.652 153.322 127.669C153.034 127.705 152.771 127.767 152.532 127.853C152.297 127.939 152.108 128.063 151.965 128.226C151.826 128.385 151.756 128.597 151.756 128.862C151.756 129.23 151.892 129.509 152.164 129.697C152.436 129.883 152.782 129.976 153.203 129.976ZM158.328 131V120.818H159.814V124.602H159.904C159.99 124.442 160.114 124.259 160.277 124.05C160.439 123.841 160.664 123.659 160.953 123.503C161.241 123.344 161.622 123.264 162.096 123.264C162.713 123.264 163.263 123.42 163.747 123.732C164.231 124.043 164.61 124.492 164.885 125.079C165.164 125.665 165.303 126.371 165.303 127.197C165.303 128.022 165.165 128.73 164.89 129.32C164.615 129.906 164.237 130.359 163.757 130.677C163.276 130.992 162.728 131.149 162.111 131.149C161.647 131.149 161.268 131.071 160.973 130.915C160.681 130.76 160.452 130.577 160.287 130.369C160.121 130.16 159.993 129.974 159.904 129.812H159.779V131H158.328ZM159.784 127.182C159.784 127.719 159.862 128.189 160.018 128.594C160.174 128.998 160.399 129.315 160.694 129.543C160.989 129.769 161.35 129.881 161.778 129.881C162.222 129.881 162.593 129.764 162.892 129.528C163.19 129.29 163.415 128.967 163.568 128.559C163.724 128.151 163.801 127.692 163.801 127.182C163.801 126.678 163.725 126.226 163.573 125.825C163.424 125.424 163.198 125.107 162.897 124.875C162.598 124.643 162.225 124.527 161.778 124.527C161.347 124.527 160.983 124.638 160.684 124.86C160.389 125.082 160.166 125.392 160.013 125.79C159.861 126.187 159.784 126.652 159.784 127.182ZM166.552 131V123.364H168.039V131H166.552ZM167.303 122.185C167.044 122.185 166.822 122.099 166.637 121.927C166.454 121.751 166.363 121.542 166.363 121.3C166.363 121.055 166.454 120.846 166.637 120.674C166.822 120.498 167.044 120.411 167.303 120.411C167.561 120.411 167.782 120.498 167.964 120.674C168.15 120.846 168.242 121.055 168.242 121.3C168.242 121.542 168.15 121.751 167.964 121.927C167.782 122.099 167.561 122.185 167.303 122.185ZM171.105 120.818V131H169.618V120.818H171.105ZM172.685 131V123.364H174.171V131H172.685ZM173.435 122.185C173.177 122.185 172.955 122.099 172.769 121.927C172.587 121.751 172.496 121.542 172.496 121.3C172.496 121.055 172.587 120.846 172.769 120.674C172.955 120.498 173.177 120.411 173.435 120.411C173.694 120.411 173.914 120.498 174.097 120.674C174.282 120.846 174.375 121.055 174.375 121.3C174.375 121.542 174.282 121.751 174.097 121.927C173.914 122.099 173.694 122.185 173.435 122.185ZM179.316 123.364V124.557H175.145V123.364H179.316ZM176.263 121.534H177.75V128.758C177.75 129.046 177.793 129.263 177.879 129.409C177.965 129.552 178.076 129.649 178.212 129.702C178.351 129.752 178.502 129.777 178.664 129.777C178.784 129.777 178.888 129.769 178.978 129.752C179.067 129.736 179.137 129.722 179.186 129.712L179.455 130.94C179.369 130.973 179.246 131.007 179.087 131.04C178.928 131.076 178.729 131.096 178.49 131.099C178.099 131.106 177.735 131.036 177.397 130.891C177.059 130.745 176.785 130.519 176.576 130.214C176.368 129.91 176.263 129.527 176.263 129.066V121.534ZM181.48 133.864C181.258 133.864 181.055 133.845 180.873 133.809C180.691 133.776 180.555 133.739 180.466 133.7L180.823 132.482C181.095 132.554 181.337 132.586 181.549 132.576C181.761 132.566 181.949 132.487 182.111 132.337C182.277 132.188 182.423 131.945 182.549 131.607L182.733 131.099L179.939 123.364H181.529L183.463 129.29H183.543L185.477 123.364H187.073L183.926 132.019C183.78 132.417 183.594 132.753 183.369 133.028C183.144 133.307 182.875 133.516 182.564 133.655C182.252 133.794 181.891 133.864 181.48 133.864ZM194.899 123.364V124.557H190.728V123.364H194.899ZM191.847 121.534H193.333V128.758C193.333 129.046 193.376 129.263 193.463 129.409C193.549 129.552 193.66 129.649 193.796 129.702C193.935 129.752 194.086 129.777 194.248 129.777C194.368 129.777 194.472 129.769 194.561 129.752C194.651 129.736 194.72 129.722 194.77 129.712L195.039 130.94C194.952 130.973 194.83 131.007 194.671 131.04C194.512 131.076 194.313 131.096 194.074 131.099C193.683 131.106 193.318 131.036 192.98 130.891C192.642 130.745 192.369 130.519 192.16 130.214C191.951 129.91 191.847 129.527 191.847 129.066V121.534ZM199.258 131.154C198.542 131.154 197.918 130.99 197.384 130.662C196.85 130.334 196.436 129.875 196.141 129.285C195.846 128.695 195.699 128.005 195.699 127.217C195.699 126.424 195.846 125.732 196.141 125.138C196.436 124.545 196.85 124.085 197.384 123.756C197.918 123.428 198.542 123.264 199.258 123.264C199.974 123.264 200.599 123.428 201.133 123.756C201.666 124.085 202.081 124.545 202.376 125.138C202.671 125.732 202.818 126.424 202.818 127.217C202.818 128.005 202.671 128.695 202.376 129.285C202.081 129.875 201.666 130.334 201.133 130.662C200.599 130.99 199.974 131.154 199.258 131.154ZM199.263 129.906C199.727 129.906 200.112 129.784 200.417 129.538C200.722 129.293 200.947 128.967 201.093 128.559C201.242 128.151 201.317 127.702 201.317 127.212C201.317 126.724 201.242 126.277 201.093 125.869C200.947 125.458 200.722 125.129 200.417 124.88C200.112 124.631 199.727 124.507 199.263 124.507C198.796 124.507 198.408 124.631 198.1 124.88C197.795 125.129 197.568 125.458 197.419 125.869C197.273 126.277 197.2 126.724 197.2 127.212C197.2 127.702 197.273 128.151 197.419 128.559C197.568 128.967 197.795 129.293 198.1 129.538C198.408 129.784 198.796 129.906 199.263 129.906ZM20.2905 148.154C19.5381 148.154 18.8902 147.993 18.3466 147.672C17.8063 147.347 17.3887 146.891 17.0938 146.305C16.8021 145.715 16.6562 145.024 16.6562 144.232C16.6562 143.449 16.8021 142.76 17.0938 142.163C17.3887 141.567 17.7997 141.101 18.3267 140.766C18.857 140.432 19.4768 140.264 20.1861 140.264C20.617 140.264 21.0346 140.335 21.4389 140.478C21.8433 140.621 22.2062 140.844 22.5277 141.149C22.8492 141.454 23.1027 141.85 23.2884 142.337C23.474 142.821 23.5668 143.41 23.5668 144.102V144.629H17.4964V143.516H22.1101C22.1101 143.125 22.0305 142.778 21.8714 142.477C21.7124 142.172 21.4886 141.931 21.2003 141.756C20.9152 141.58 20.5805 141.492 20.196 141.492C19.7784 141.492 19.4138 141.595 19.1023 141.8C18.794 142.003 18.5554 142.268 18.3864 142.596C18.2206 142.921 18.1378 143.274 18.1378 143.655V144.525C18.1378 145.035 18.2273 145.469 18.4062 145.827C18.5885 146.185 18.8421 146.459 19.1669 146.648C19.4917 146.833 19.8712 146.926 20.3054 146.926C20.5871 146.926 20.844 146.886 21.076 146.807C21.308 146.724 21.5085 146.601 21.6776 146.439C21.8466 146.277 21.9759 146.076 22.0653 145.837L23.4723 146.091C23.3596 146.505 23.1574 146.868 22.8658 147.18C22.5774 147.488 22.2145 147.728 21.777 147.901C21.3428 148.07 20.8473 148.154 20.2905 148.154ZM25.7916 140.364L27.477 143.337L29.1773 140.364H30.803L28.4216 144.182L30.8229 148H29.1972L27.477 145.146L25.7618 148H24.1311L26.5076 144.182L24.161 140.364H25.7916ZM31.9093 150.864V140.364H33.361V141.602H33.4853C33.5715 141.442 33.6957 141.259 33.8582 141.05C34.0206 140.841 34.2459 140.659 34.5343 140.503C34.8226 140.344 35.2038 140.264 35.6778 140.264C36.2942 140.264 36.8444 140.42 37.3283 140.732C37.8122 141.043 38.1917 141.492 38.4668 142.079C38.7452 142.665 38.8844 143.371 38.8844 144.197C38.8844 145.022 38.7469 145.73 38.4718 146.32C38.1967 146.906 37.8189 147.359 37.3383 147.677C36.8577 147.992 36.3091 148.149 35.6927 148.149C35.2287 148.149 34.8492 148.071 34.5542 147.915C34.2625 147.76 34.0338 147.577 33.8681 147.369C33.7024 147.16 33.5748 146.974 33.4853 146.812H33.3958V150.864H31.9093ZM33.366 144.182C33.366 144.719 33.4439 145.189 33.5996 145.594C33.7554 145.998 33.9808 146.315 34.2758 146.543C34.5707 146.769 34.932 146.881 35.3596 146.881C35.8037 146.881 36.1749 146.764 36.4732 146.528C36.7715 146.29 36.9969 145.967 37.1493 145.559C37.3051 145.151 37.383 144.692 37.383 144.182C37.383 143.678 37.3068 143.226 37.1543 142.825C37.0052 142.424 36.7798 142.107 36.4782 141.875C36.1799 141.643 35.807 141.527 35.3596 141.527C34.9287 141.527 34.5641 141.638 34.2658 141.86C33.9708 142.082 33.7471 142.392 33.5947 142.79C33.4422 143.187 33.366 143.652 33.366 144.182ZM43.3465 148.154C42.6306 148.154 42.0059 147.99 41.4722 147.662C40.9386 147.334 40.5243 146.875 40.2293 146.285C39.9344 145.695 39.7869 145.005 39.7869 144.217C39.7869 143.424 39.9344 142.732 40.2293 142.138C40.5243 141.545 40.9386 141.085 41.4722 140.756C42.0059 140.428 42.6306 140.264 43.3465 140.264C44.0624 140.264 44.6872 140.428 45.2208 140.756C45.7544 141.085 46.1687 141.545 46.4637 142.138C46.7587 142.732 46.9062 143.424 46.9062 144.217C46.9062 145.005 46.7587 145.695 46.4637 146.285C46.1687 146.875 45.7544 147.334 45.2208 147.662C44.6872 147.99 44.0624 148.154 43.3465 148.154ZM43.3515 146.906C43.8155 146.906 44.2 146.784 44.5049 146.538C44.8098 146.293 45.0352 145.967 45.1811 145.559C45.3302 145.151 45.4048 144.702 45.4048 144.212C45.4048 143.724 45.3302 143.277 45.1811 142.869C45.0352 142.458 44.8098 142.129 44.5049 141.88C44.2 141.631 43.8155 141.507 43.3515 141.507C42.8842 141.507 42.4964 141.631 42.1882 141.88C41.8832 142.129 41.6562 142.458 41.507 142.869C41.3612 143.277 41.2883 143.724 41.2883 144.212C41.2883 144.702 41.3612 145.151 41.507 145.559C41.6562 145.967 41.8832 146.293 42.1882 146.538C42.4964 146.784 42.8842 146.906 43.3515 146.906ZM48.1455 148V140.364H49.5823V141.577H49.6618C49.801 141.166 50.0463 140.843 50.3976 140.607C50.7522 140.369 51.1533 140.249 51.6007 140.249C51.6935 140.249 51.8029 140.253 51.9288 140.259C52.0581 140.266 52.1592 140.274 52.2321 140.284V141.706C52.1725 141.689 52.0664 141.671 51.9139 141.651C51.7615 141.628 51.609 141.616 51.4565 141.616C51.1052 141.616 50.792 141.691 50.5169 141.84C50.2451 141.986 50.0297 142.19 49.8706 142.452C49.7115 142.71 49.632 143.005 49.632 143.337V148H48.1455ZM57.1143 140.364V141.557H52.9431V140.364H57.1143ZM54.0618 138.534H55.5483V145.758C55.5483 146.046 55.5913 146.263 55.6775 146.409C55.7637 146.552 55.8747 146.649 56.0106 146.702C56.1498 146.752 56.3006 146.777 56.463 146.777C56.5824 146.777 56.6868 146.769 56.7762 146.752C56.8657 146.736 56.9353 146.722 56.9851 146.712L57.2535 147.94C57.1673 147.973 57.0447 148.007 56.8856 148.04C56.7265 148.076 56.5277 148.096 56.289 148.099C55.8979 148.106 55.5333 148.036 55.1953 147.891C54.8572 147.745 54.5838 147.519 54.375 147.214C54.1662 146.91 54.0618 146.527 54.0618 146.066V138.534ZM64.4824 148.149C63.8659 148.149 63.3157 147.992 62.8318 147.677C62.3513 147.359 61.9734 146.906 61.6983 146.32C61.4265 145.73 61.2906 145.022 61.2906 144.197C61.2906 143.371 61.4282 142.665 61.7033 142.079C61.9817 141.492 62.3629 141.043 62.8468 140.732C63.3307 140.42 63.8792 140.264 64.4924 140.264C64.9663 140.264 65.3475 140.344 65.6358 140.503C65.9275 140.659 66.1529 140.841 66.312 141.05C66.4744 141.259 66.6003 141.442 66.6898 141.602H66.7793V137.818H68.2658V148H66.8141V146.812H66.6898C66.6003 146.974 66.471 147.16 66.302 147.369C66.1363 147.577 65.9076 147.76 65.6159 147.915C65.3243 148.071 64.9464 148.149 64.4824 148.149ZM64.8105 146.881C65.2381 146.881 65.5994 146.769 65.8943 146.543C66.1926 146.315 66.418 145.998 66.5705 145.594C66.7263 145.189 66.8041 144.719 66.8041 144.182C66.8041 143.652 66.7279 143.187 66.5754 142.79C66.423 142.392 66.1993 142.082 65.9043 141.86C65.6093 141.638 65.2447 141.527 64.8105 141.527C64.3631 141.527 63.9902 141.643 63.6919 141.875C63.3936 142.107 63.1683 142.424 63.0158 142.825C62.8666 143.226 62.7921 143.678 62.7921 144.182C62.7921 144.692 62.8683 145.151 63.0208 145.559C63.1732 145.967 63.3986 146.29 63.6969 146.528C63.9985 146.764 64.3697 146.881 64.8105 146.881ZM72.1897 148.169C71.7058 148.169 71.2683 148.08 70.8772 147.901C70.4861 147.718 70.1762 147.455 69.9475 147.11C69.7221 146.765 69.6095 146.343 69.6095 145.842C69.6095 145.411 69.6923 145.057 69.858 144.778C70.0238 144.5 70.2475 144.28 70.5292 144.117C70.8109 143.955 71.1258 143.832 71.4738 143.749C71.8218 143.666 72.1765 143.603 72.5377 143.56C72.9951 143.507 73.3663 143.464 73.6514 143.431C73.9364 143.395 74.1436 143.337 74.2728 143.257C74.4021 143.178 74.4667 143.048 74.4667 142.869V142.835C74.4667 142.4 74.3441 142.064 74.0988 141.825C73.8569 141.587 73.4956 141.467 73.015 141.467C72.5145 141.467 72.1201 141.578 71.8318 141.8C71.5467 142.019 71.3495 142.263 71.2401 142.531L69.8431 142.213C70.0088 141.749 70.2508 141.375 70.569 141.089C70.8905 140.801 71.26 140.592 71.6776 140.463C72.0953 140.33 72.5344 140.264 72.9951 140.264C73.3 140.264 73.6232 140.301 73.9646 140.374C74.3093 140.443 74.6308 140.572 74.9291 140.761C75.2307 140.95 75.4776 141.22 75.6698 141.572C75.8621 141.92 75.9582 142.372 75.9582 142.929V148H74.5065V146.956H74.4468C74.3507 147.148 74.2065 147.337 74.0143 147.523C73.8221 147.708 73.5751 147.862 73.2735 147.985C72.9719 148.108 72.6106 148.169 72.1897 148.169ZM72.5129 146.976C72.9239 146.976 73.2752 146.895 73.5668 146.732C73.8618 146.57 74.0855 146.358 74.238 146.096C74.3938 145.831 74.4717 145.547 74.4717 145.246V144.261C74.4186 144.314 74.3159 144.364 74.1634 144.411C74.0143 144.454 73.8436 144.492 73.6514 144.525C73.4591 144.555 73.2719 144.583 73.0896 144.609C72.9073 144.633 72.7548 144.652 72.6322 144.669C72.3438 144.705 72.0803 144.767 71.8417 144.853C71.6064 144.939 71.4175 145.063 71.2749 145.226C71.1357 145.385 71.0661 145.597 71.0661 145.862C71.0661 146.23 71.202 146.509 71.4738 146.697C71.7456 146.883 72.0919 146.976 72.5129 146.976ZM81.0828 140.364V141.557H76.9116V140.364H81.0828ZM78.0302 138.534H79.5167V145.758C79.5167 146.046 79.5598 146.263 79.646 146.409C79.7321 146.552 79.8432 146.649 79.9791 146.702C80.1183 146.752 80.2691 146.777 80.4315 146.777C80.5508 146.777 80.6552 146.769 80.7447 146.752C80.8342 146.736 80.9038 146.722 80.9535 146.712L81.222 147.94C81.1358 147.973 81.0131 148.007 80.8541 148.04C80.695 148.076 80.4961 148.096 80.2575 148.099C79.8664 148.106 79.5018 148.036 79.1637 147.891C78.8256 147.745 78.5522 147.519 78.3434 147.214C78.1346 146.91 78.0302 146.527 78.0302 146.066V138.534ZM84.5294 148.169C84.0455 148.169 83.608 148.08 83.2169 147.901C82.8258 147.718 82.5159 147.455 82.2872 147.11C82.0618 146.765 81.9492 146.343 81.9492 145.842C81.9492 145.411 82.032 145.057 82.1977 144.778C82.3635 144.5 82.5872 144.28 82.8689 144.117C83.1506 143.955 83.4655 143.832 83.8135 143.749C84.1615 143.666 84.5161 143.603 84.8774 143.56C85.3348 143.507 85.706 143.464 85.9911 143.431C86.2761 143.395 86.4832 143.337 86.6125 143.257C86.7418 143.178 86.8064 143.048 86.8064 142.869V142.835C86.8064 142.4 86.6838 142.064 86.4385 141.825C86.1965 141.587 85.8353 141.467 85.3547 141.467C84.8542 141.467 84.4598 141.578 84.1715 141.8C83.8864 142.019 83.6892 142.263 83.5798 142.531L82.1828 142.213C82.3485 141.749 82.5905 141.375 82.9087 141.089C83.2302 140.801 83.5997 140.592 84.0173 140.463C84.4349 140.33 84.8741 140.264 85.3348 140.264C85.6397 140.264 85.9629 140.301 86.3043 140.374C86.649 140.443 86.9705 140.572 87.2688 140.761C87.5704 140.95 87.8173 141.22 88.0095 141.572C88.2018 141.92 88.2979 142.372 88.2979 142.929V148H86.8462V146.956H86.7865C86.6904 147.148 86.5462 147.337 86.354 147.523C86.1617 147.708 85.9148 147.862 85.6132 147.985C85.3116 148.108 84.9503 148.169 84.5294 148.169ZM84.8526 146.976C85.2635 146.976 85.6149 146.895 85.9065 146.732C86.2015 146.57 86.4252 146.358 86.5777 146.096C86.7335 145.831 86.8114 145.547 86.8114 145.246V144.261C86.7583 144.314 86.6556 144.364 86.5031 144.411C86.354 144.454 86.1833 144.492 85.9911 144.525C85.7988 144.555 85.6116 144.583 85.4293 144.609C85.247 144.633 85.0945 144.652 84.9719 144.669C84.6835 144.705 84.42 144.767 84.1814 144.853C83.9461 144.939 83.7572 145.063 83.6146 145.226C83.4754 145.385 83.4058 145.597 83.4058 145.862C83.4058 146.23 83.5417 146.509 83.8135 146.697C84.0853 146.883 84.4316 146.976 84.8526 146.976ZM90.8372 148.094C90.5654 148.094 90.3318 147.998 90.1362 147.806C89.9407 147.611 89.8429 147.375 89.8429 147.1C89.8429 146.828 89.9407 146.596 90.1362 146.404C90.3318 146.209 90.5654 146.111 90.8372 146.111C91.109 146.111 91.3427 146.209 91.5382 146.404C91.7337 146.596 91.8315 146.828 91.8315 147.1C91.8315 147.282 91.7851 147.45 91.6923 147.602C91.6028 147.751 91.4835 147.871 91.3344 147.96C91.1852 148.05 91.0195 148.094 90.8372 148.094Z" fill="#485972"/>
<g clip-path="url(#clip0_7456_18571)">
<path d="M22.8011 169.364C22.7415 168.86 22.4995 168.469 22.0753 168.19C21.651 167.912 21.1307 167.773 20.5142 167.773C20.0634 167.773 19.669 167.846 19.331 167.991C18.9962 168.137 18.7344 168.338 18.5455 168.593C18.3598 168.848 18.267 169.138 18.267 169.463C18.267 169.735 18.3317 169.969 18.4609 170.164C18.5935 170.356 18.7625 170.517 18.968 170.646C19.1735 170.772 19.389 170.877 19.6143 170.96C19.8397 171.039 20.0469 171.104 20.2358 171.153L21.2699 171.432C21.535 171.501 21.83 171.598 22.1548 171.72C22.483 171.843 22.7962 172.01 23.0945 172.222C23.3961 172.431 23.6446 172.7 23.8402 173.028C24.0357 173.356 24.1335 173.759 24.1335 174.236C24.1335 174.786 23.9893 175.283 23.701 175.727C23.416 176.171 22.9983 176.524 22.4482 176.786C21.9013 177.048 21.2367 177.179 20.4545 177.179C19.7254 177.179 19.094 177.061 18.5604 176.826C18.0301 176.591 17.6125 176.263 17.3075 175.842C17.0059 175.421 16.8352 174.932 16.7955 174.375H18.0682C18.1013 174.759 18.2306 175.078 18.456 175.33C18.6847 175.578 18.973 175.764 19.321 175.886C19.6723 176.006 20.0502 176.065 20.4545 176.065C20.9252 176.065 21.3478 175.989 21.7223 175.837C22.0968 175.681 22.3935 175.465 22.6122 175.19C22.831 174.912 22.9403 174.587 22.9403 174.216C22.9403 173.878 22.8459 173.603 22.657 173.391C22.468 173.179 22.2195 173.006 21.9112 172.874C21.603 172.741 21.2699 172.625 20.9119 172.526L19.6591 172.168C18.8636 171.939 18.2339 171.612 17.7699 171.188C17.3059 170.764 17.0739 170.209 17.0739 169.523C17.0739 168.953 17.228 168.455 17.5362 168.031C17.8478 167.604 18.2654 167.272 18.7891 167.037C19.3161 166.798 19.9044 166.679 20.554 166.679C21.2102 166.679 21.7936 166.797 22.304 167.032C22.8144 167.264 23.2188 167.582 23.517 167.987C23.8187 168.391 23.9777 168.85 23.9943 169.364H22.8011ZM25.5816 177V169.364H26.7549V177H25.5816ZM26.1782 168.091C25.9495 168.091 25.7523 168.013 25.5866 167.857C25.4242 167.701 25.343 167.514 25.343 167.295C25.343 167.077 25.4242 166.889 25.5866 166.734C25.7523 166.578 25.9495 166.5 26.1782 166.5C26.4069 166.5 26.6024 166.578 26.7648 166.734C26.9306 166.889 27.0134 167.077 27.0134 167.295C27.0134 167.514 26.9306 167.701 26.7648 167.857C26.6024 168.013 26.4069 168.091 26.1782 168.091ZM31.5662 180.023C30.9995 180.023 30.5123 179.95 30.1046 179.804C29.6969 179.661 29.3572 179.473 29.0854 179.237C28.817 179.005 28.6032 178.757 28.4441 178.491L29.3787 177.835C29.4848 177.974 29.619 178.134 29.7814 178.312C29.9439 178.495 30.1659 178.652 30.4476 178.785C30.7327 178.921 31.1055 178.989 31.5662 178.989C32.1827 178.989 32.6915 178.839 33.0925 178.541C33.4936 178.243 33.6941 177.776 33.6941 177.139V175.588H33.5947C33.5085 175.727 33.3859 175.9 33.2268 176.105C33.071 176.307 32.8456 176.488 32.5506 176.647C32.259 176.803 31.8645 176.881 31.3674 176.881C30.7509 176.881 30.1974 176.735 29.7069 176.443C29.2197 176.152 28.8335 175.727 28.5485 175.17C28.2668 174.614 28.1259 173.937 28.1259 173.142C28.1259 172.36 28.2635 171.679 28.5386 171.099C28.8136 170.515 29.1965 170.065 29.687 169.746C30.1775 169.425 30.7443 169.264 31.3873 169.264C31.8844 169.264 32.2788 169.347 32.5705 169.513C32.8655 169.675 33.0909 169.861 33.2466 170.07C33.4057 170.275 33.5284 170.444 33.6145 170.577H33.7339V169.364H34.8674V177.219C34.8674 177.875 34.7182 178.409 34.4199 178.82C34.125 179.234 33.7272 179.537 33.2268 179.729C32.7296 179.925 32.1761 180.023 31.5662 180.023ZM31.5265 175.827C31.9971 175.827 32.3948 175.719 32.7197 175.504C33.0445 175.288 33.2914 174.978 33.4604 174.574C33.6295 174.17 33.714 173.686 33.714 173.122C33.714 172.572 33.6311 172.086 33.4654 171.665C33.2997 171.245 33.0544 170.915 32.7296 170.676C32.4048 170.437 32.0037 170.318 31.5265 170.318C31.0293 170.318 30.615 170.444 30.2836 170.696C29.9555 170.948 29.7085 171.286 29.5428 171.71C29.3804 172.134 29.2992 172.605 29.2992 173.122C29.2992 173.652 29.3821 174.121 29.5478 174.529C29.7168 174.933 29.9654 175.252 30.2935 175.484C30.625 175.712 31.0359 175.827 31.5265 175.827ZM37.7684 172.406V177H36.5951V169.364H37.7286V170.557H37.8281C38.007 170.169 38.2788 169.857 38.6434 169.622C39.008 169.384 39.4786 169.264 40.0553 169.264C40.5724 169.264 41.0248 169.37 41.4126 169.582C41.8004 169.791 42.102 170.109 42.3174 170.537C42.5329 170.961 42.6406 171.498 42.6406 172.148V177H41.4673V172.227C41.4673 171.627 41.3115 171.16 40.9999 170.825C40.6884 170.487 40.2608 170.318 39.7173 170.318C39.3427 170.318 39.008 170.399 38.713 170.562C38.4213 170.724 38.191 170.961 38.022 171.273C37.8529 171.584 37.7684 171.962 37.7684 172.406ZM52.6946 173.878V169.364H53.8679V177H52.6946V175.707H52.615C52.436 176.095 52.1576 176.425 51.7798 176.697C51.402 176.965 50.9247 177.099 50.348 177.099C49.8707 177.099 49.4465 176.995 49.0752 176.786C48.704 176.574 48.4124 176.256 48.2002 175.832C47.9881 175.404 47.8821 174.866 47.8821 174.216V169.364H49.0554V174.136C49.0554 174.693 49.2111 175.137 49.5227 175.469C49.8376 175.8 50.2386 175.966 50.7258 175.966C51.0175 175.966 51.3141 175.891 51.6157 175.742C51.9207 175.593 52.1759 175.364 52.3814 175.056C52.5902 174.748 52.6946 174.355 52.6946 173.878ZM55.5968 179.864V169.364H56.7304V170.577H56.8696C56.9557 170.444 57.0751 170.275 57.2275 170.07C57.3833 169.861 57.6054 169.675 57.8937 169.513C58.1854 169.347 58.5798 169.264 59.0769 169.264C59.7199 169.264 60.2867 169.425 60.7772 169.746C61.2678 170.068 61.6506 170.524 61.9257 171.114C62.2008 171.704 62.3383 172.4 62.3383 173.202C62.3383 174.01 62.2008 174.711 61.9257 175.305C61.6506 175.895 61.2694 176.352 60.7822 176.677C60.295 176.998 59.7332 177.159 59.0968 177.159C58.6063 177.159 58.2135 177.078 57.9186 176.915C57.6236 176.75 57.3965 176.562 57.2375 176.354C57.0784 176.142 56.9557 175.966 56.8696 175.827H56.7701V179.864H55.5968ZM56.7502 173.182C56.7502 173.759 56.8348 174.267 57.0038 174.708C57.1728 175.146 57.4197 175.489 57.7446 175.737C58.0694 175.982 58.4671 176.105 58.9377 176.105C59.4283 176.105 59.8376 175.976 60.1657 175.717C60.4972 175.455 60.7457 175.104 60.9115 174.663C61.0805 174.219 61.165 173.725 61.165 173.182C61.165 172.645 61.0822 172.161 60.9164 171.73C60.754 171.296 60.5071 170.953 60.1757 170.701C59.8475 170.446 59.4349 170.318 58.9377 170.318C58.4605 170.318 58.0594 170.439 57.7346 170.681C57.4098 170.92 57.1645 171.254 56.9988 171.685C56.8331 172.113 56.7502 172.612 56.7502 173.182Z" fill="#0099FF"/>
</g>
<g clip-path="url(#clip1_7456_18571)">
<path d="M894.019 212L894.019 204L-0.0234375 204L-0.0234001 212L894.019 212Z" fill="#C63C84"/>
<path d="M878.068 212L878.068 204L873.379 204L873.379 212L878.068 212Z" fill="#FFC170"/>
<path d="M873.371 212L873.371 204L870.613 204L870.613 212L873.371 212Z" fill="#333946"/>
<path d="M870.626 212L870.626 204L869.247 204L869.247 212L870.626 212Z" fill="white"/>
<path d="M854.138 204L854.138 212L858.235 212L858.235 204L854.138 204Z" fill="#FFC170"/>
<path d="M835.251 204L835.251 212L839.349 212L839.349 204L835.251 204Z" fill="#FFC170"/>
<path d="M839.094 204L839.094 212L854.408 212L854.408 204L839.094 204Z" fill="#333946"/>
<path d="M796.264 204L796.264 212L801.563 212L801.563 204L796.264 204Z" fill="#FFC170"/>
<path d="M775.171 204L775.171 212L776.825 212L776.825 204L775.171 204Z" fill="white"/>
<path d="M769.289 204L769.289 212L770.944 212L770.943 204L769.289 204Z" fill="#333946"/>
<path d="M766.134 204L766.134 212L767.788 212L767.788 204L766.134 204Z" fill="#333946"/>
<path d="M762.853 204L762.853 212L764.508 212L764.508 204L762.853 204Z" fill="#333946"/>
<path d="M767.524 204L767.524 212L769.487 212L769.487 204L767.524 204Z" fill="white"/>
<path d="M764.147 204L764.147 212L766.32 212L766.32 204L764.147 204Z" fill="white"/>
<path d="M757.321 204L757.321 212L758.976 212L758.976 204L757.321 204Z" fill="#333946"/>
<path d="M754.154 204L754.154 212L755.809 212L755.809 204L754.154 204Z" fill="#333946"/>
<path d="M750.875 204L750.875 212L752.53 212L752.53 204L750.875 204Z" fill="#333946"/>
<path d="M755.554 204L755.554 212L757.518 212L757.518 204L755.554 204Z" fill="white"/>
<path d="M752.169 204L752.169 212L754.342 212L754.342 204L752.169 204Z" fill="white"/>
<path d="M770.932 204L770.932 212L775.207 212L775.207 204L770.932 204Z" fill="#FFC170"/>
<path d="M758.733 204L758.733 212L763.008 212L763.008 204L758.733 204Z" fill="#FFC170"/>
<path d="M743.937 204L743.937 212L745.939 212L745.939 204L743.937 204Z" fill="white"/>
<path d="M745.692 204L745.692 212L750.88 212L750.88 204L745.692 204Z" fill="#FFC170"/>
<path d="M776.822 204L776.822 212L796.602 212L796.602 204L776.822 204Z" fill="#333946"/>
<path d="M534.832 212L534.832 204L529.493 204L529.493 212L534.832 212Z" fill="#FFC170"/>
<path d="M556.088 212L556.088 204L554.42 204L554.42 212L556.088 212Z" fill="white"/>
<path d="M562.005 212L562.005 204L560.337 204L560.337 212L562.005 212Z" fill="#333946"/>
<path d="M565.189 212L565.189 204L563.521 204L563.521 212L565.189 212Z" fill="#333946"/>
<path d="M568.493 212L568.493 204L566.825 204L566.825 212L568.493 212Z" fill="#333946"/>
<path d="M563.783 212L563.783 204L561.806 204L561.806 212L563.783 212Z" fill="white"/>
<path d="M567.184 212L567.184 204L564.998 204L564.998 212L567.184 212Z" fill="white"/>
<path d="M574.067 212L574.067 204L572.399 204L572.399 212L574.067 212Z" fill="#333946"/>
<path d="M577.252 212L577.252 204L575.585 204L575.585 212L577.252 212Z" fill="#333946"/>
<path d="M580.554 212L580.554 204L578.887 204L578.887 212L580.554 212Z" fill="#333946"/>
<path d="M575.846 212L575.846 204L573.87 204L573.87 212L575.846 212Z" fill="white"/>
<path d="M579.25 212L579.25 204L577.063 204L577.063 212L579.25 212Z" fill="white"/>
<path d="M560.347 212L560.347 204L556.04 204L556.04 212L560.347 212Z" fill="#FFC170"/>
<path d="M572.644 212L572.644 204L568.337 204L568.337 212L572.644 212Z" fill="#FFC170"/>
<path d="M587.559 212L587.559 204L585.537 204L585.537 212L587.559 212Z" fill="white"/>
<path d="M585.778 212L585.778 204L580.551 204L580.551 212L585.778 212Z" fill="#FFC170"/>
<path d="M554.423 212L554.423 204L534.499 204L534.499 212L554.423 212Z" fill="#333946"/>
<path d="M494.862 204L494.862 212L500.201 212L500.201 204L494.862 204Z" fill="#FFC170"/>
<path d="M473.611 204L473.611 212L475.279 212L475.279 204L473.611 204Z" fill="white"/>
<path d="M467.69 204L467.69 212L469.358 212L469.358 204L467.69 204Z" fill="#333946"/>
<path d="M464.507 204L464.507 212L466.175 212L466.175 204L464.507 204Z" fill="#333946"/>
<path d="M461.207 204L461.207 212L462.875 212L462.875 204L461.207 204Z" fill="#333946"/>
<path d="M465.913 204L465.913 212L467.889 212L467.889 204L465.913 204Z" fill="white"/>
<path d="M462.505 204L462.505 212L464.691 212L464.691 204L462.505 204Z" fill="white"/>
<path d="M455.629 204L455.629 212L457.297 212L457.297 204L455.629 204Z" fill="#333946"/>
<path d="M452.442 204L452.442 212L454.11 212L454.11 204L452.442 204Z" fill="#333946"/>
<path d="M449.137 204L449.137 212L450.805 212L450.805 204L449.137 204Z" fill="#333946"/>
<path d="M453.854 204L453.854 212L455.83 212L455.83 204L453.854 204Z" fill="white"/>
<path d="M450.445 204L450.445 212L452.632 212L452.632 204L450.445 204Z" fill="white"/>
<path d="M469.341 204L469.341 212L473.649 212L473.648 204L469.341 204Z" fill="#FFC170"/>
<path d="M457.051 204L457.051 212L461.359 212L461.359 204L457.051 204Z" fill="#FFC170"/>
<path d="M442.142 204L442.142 212L444.164 212L444.164 204L442.142 204Z" fill="white"/>
<path d="M443.922 204L443.922 212L449.149 212L449.149 204L443.922 204Z" fill="#FFC170"/>
<path d="M475.28 204L475.28 212L495.204 212L495.204 204L475.28 204Z" fill="#333946"/>
<path d="M858.239 204L858.239 212L860.649 212L860.649 204L858.239 204Z" fill="#333946"/>
<path d="M860.644 204L860.644 212L861.845 212L861.845 204L860.644 204Z" fill="white"/>
<path d="M412.28 212L412.28 204L373.45 204L373.45 212L412.28 212Z" fill="#FFC170"/>
<path d="M354.588 212L354.587 204L221.265 204L221.265 212L354.588 212Z" fill="#FFC170"/>
<path d="M343.101 212L343.101 204L342.451 204L342.451 212L343.101 212Z" fill="#333946"/>
<path d="M334.446 212L334.446 204L333.797 204L333.797 212L334.446 212Z" fill="#333946"/>
<path d="M349.391 212L349.391 204L345.905 204L345.905 212L349.391 212Z" fill="#333946"/>
<path d="M340.166 212L340.166 204L336.679 204L336.679 212L340.166 212Z" fill="#333946"/>
<path d="M324.34 212L324.34 204L323.69 204L323.69 212L324.34 212Z" fill="#333946"/>
<path d="M315.689 212L315.689 204L315.039 204L315.039 212L315.689 212Z" fill="#333946"/>
<path d="M330.64 212L330.64 204L327.153 204L327.153 212L330.64 212Z" fill="#333946"/>
<path d="M321.412 212L321.412 204L317.925 204L317.925 212L321.412 212Z" fill="#333946"/>
<path d="M305.583 212L305.583 204L304.933 204L304.933 212L305.583 212Z" fill="#333946"/>
<path d="M296.938 212L296.938 204L296.288 204L296.288 212L296.938 212Z" fill="#333946"/>
<path d="M311.877 212L311.877 204L308.39 204L308.39 212L311.877 212Z" fill="#333946"/>
<path d="M302.654 212L302.654 204L299.167 204L299.167 212L302.654 212Z" fill="#333946"/>
<path d="M286.829 212L286.829 204L286.179 204L286.179 212L286.829 212Z" fill="#333946"/>
<path d="M278.174 212L278.174 204L277.525 204L277.525 212L278.174 212Z" fill="#333946"/>
<path d="M293.118 212L293.118 204L289.631 204L289.631 212L293.118 212Z" fill="#333946"/>
<path d="M283.9 212L283.9 204L280.414 204L280.414 212L283.9 212Z" fill="#333946"/>
<path d="M268.075 212L268.075 204L267.425 204L267.425 212L268.075 212Z" fill="#333946"/>
<path d="M259.417 212L259.417 204L258.768 204L258.768 212L259.417 212Z" fill="#333946"/>
<path d="M274.366 212L274.366 204L270.879 204L270.879 212L274.366 212Z" fill="#333946"/>
<path d="M265.143 212L265.143 204L261.657 204L261.657 212L265.143 212Z" fill="#333946"/>
<path d="M249.317 212L249.317 204L248.667 204L248.667 212L249.317 212Z" fill="#333946"/>
<path d="M240.665 212L240.665 204L240.015 204L240.015 212L240.665 212Z" fill="#333946"/>
<path d="M255.609 212L255.609 204L252.122 204L252.122 212L255.609 212Z" fill="#333946"/>
<path d="M246.381 212L246.381 204L242.894 204L242.894 212L246.381 212Z" fill="#333946"/>
<path d="M230.563 212L230.563 204L229.913 204L229.913 212L230.563 212Z" fill="#333946"/>
<path d="M236.855 212L236.855 204L233.369 204L233.369 212L236.855 212Z" fill="#333946"/>
<path d="M227.629 212L227.628 204L224.142 204L224.142 212L227.629 212Z" fill="#333946"/>
<path d="M197.858 212L197.858 204L64.5348 204L64.5349 212L197.858 212Z" fill="#FFC170"/>
<path d="M186.372 212L186.372 204L185.723 204L185.723 212L186.372 212Z" fill="#333946"/>
<path d="M177.719 212L177.719 204L177.069 204L177.069 212L177.719 212Z" fill="#333946"/>
<path d="M192.665 212L192.665 204L189.178 204L189.178 212L192.665 212Z" fill="#333946"/>
<path d="M183.444 212L183.444 204L179.957 204L179.957 212L183.444 212Z" fill="#333946"/>
<path d="M167.621 212L167.62 204L166.971 204L166.971 212L167.621 212Z" fill="#333946"/>
<path d="M158.962 212L158.962 204L158.313 204L158.313 212L158.962 212Z" fill="#333946"/>
<path d="M173.909 212L173.909 204L170.422 204L170.422 212L173.909 212Z" fill="#333946"/>
<path d="M164.689 212L164.689 204L161.202 204L161.202 212L164.689 212Z" fill="#333946"/>
<path d="M148.864 212L148.863 204L148.214 204L148.214 212L148.864 212Z" fill="#333946"/>
<path d="M140.21 212L140.21 204L139.561 204L139.561 212L140.21 212Z" fill="#333946"/>
<path d="M155.155 212L155.155 204L151.669 204L151.669 212L155.155 212Z" fill="#333946"/>
<path d="M145.927 212L145.927 204L142.44 204L142.44 212L145.927 212Z" fill="#333946"/>
<path d="M130.108 212L130.108 204L129.459 204L129.459 212L130.108 212Z" fill="#333946"/>
<path d="M121.453 212L121.453 204L120.803 204L120.803 212L121.453 212Z" fill="#333946"/>
<path d="M136.4 212L136.4 204L132.913 204L132.913 212L136.4 212Z" fill="#333946"/>
<path d="M127.174 212L127.174 204L123.687 204L123.687 212L127.174 212Z" fill="#333946"/>
<path d="M111.352 212L111.352 204L110.702 204L110.702 212L111.352 212Z" fill="#333946"/>
<path d="M102.698 212L102.698 204L102.048 204L102.048 212L102.698 212Z" fill="#333946"/>
<path d="M117.645 212L117.645 204L114.158 204L114.158 212L117.645 212Z" fill="#333946"/>
<path d="M108.416 212L108.416 204L104.929 204L104.929 212L108.416 212Z" fill="#333946"/>
<path d="M92.5915 212L92.5914 204L91.9416 204L91.9417 212L92.5915 212Z" fill="#333946"/>
<path d="M83.944 212L83.944 204L83.2942 204L83.2943 212L83.944 212Z" fill="#333946"/>
<path d="M98.8902 212L98.8902 204L95.4033 204L95.4034 212L98.8902 212Z" fill="#333946"/>
<path d="M89.6631 212L89.663 204L86.1761 204L86.1762 212L89.6631 212Z" fill="#333946"/>
<path d="M73.837 212L73.837 204L73.1871 204L73.1872 212L73.837 212Z" fill="#333946"/>
<path d="M80.127 212L80.127 204L76.6402 204L76.6403 212L80.127 212Z" fill="#333946"/>
<path d="M70.9068 212L70.9067 204L67.4198 204L67.4199 212L70.9068 212Z" fill="#333946"/>
<path d="M41.1392 212L41.1391 204L-0.0226696 204L-0.0226322 212L41.1392 212Z" fill="#FFC170"/>
<path d="M29.6532 212L29.6532 204L29.0034 204L29.0035 212L29.6532 212Z" fill="#333946"/>
<path d="M20.9976 212L20.9975 204L20.3477 204L20.3477 212L20.9976 212Z" fill="#333946"/>
<path d="M35.9445 212L35.9444 204L32.4576 204L32.4576 212L35.9445 212Z" fill="#333946"/>
<path d="M26.7173 212L26.7173 204L23.2305 204L23.2305 212L26.7173 212Z" fill="#333946"/>
<path d="M10.8982 212L10.8981 204L10.2483 204L10.2484 212L10.8982 212Z" fill="#333946"/>
<path d="M2.24252 212L2.24248 204L1.59275 204L1.59279 212L2.24252 212Z" fill="#333946"/>
<path d="M17.1912 212L17.1912 204L13.7043 204L13.7043 212L17.1912 212Z" fill="#333946"/>
<path d="M7.96349 212L7.96345 204L4.47662 204L4.47666 212L7.96349 212Z" fill="#333946"/>
</g>
<defs>
<clipPath id="clip0_7456_18571">
<rect x="16" y="163" width="48" height="17" fill="white"/>
</clipPath>
<clipPath id="clip1_7456_18571">
<rect width="224" height="8" fill="white" transform="translate(0 204)"/>
</clipPath>
</defs>
</svg>
