<svg width="96" height="96" viewBox="0 0 96 96" fill="none" xmlns="http://www.w3.org/2000/svg">
<circle cx="48" cy="48" r="48" fill="#FFDBA8"/>
<circle cx="37.76" cy="37.76" r="5.76" transform="rotate(180 37.76 37.76)" fill="#FF9A37"/>
<rect x="33.9199" y="53.1201" width="28.16" height="7.68" fill="#FF9A37"/>
<circle cx="57.8409" cy="37.76" r="5.76" transform="rotate(180 57.8409 37.76)" fill="#FF9A37"/>
<path d="M54.8853 12.1384C63.8943 13.8146 71.9488 18.804 77.462 26.1236C82.9751 33.4431 85.5471 42.562 84.6712 51.6836C83.7952 60.8052 79.5349 69.268 72.7295 75.4047C65.9242 81.5413 57.0673 84.9067 47.904 84.8378C38.7407 84.769 29.9354 81.2708 23.2231 75.0326C16.5108 68.7944 12.3781 60.2685 11.6393 51.1348C10.9006 42.001 13.6094 32.9218 19.2319 25.6859C24.8545 18.4501 32.9831 13.5823 42.0162 12.0417L43.2489 19.2692C36.0224 20.5017 29.5195 24.3959 25.0214 30.1846C20.5234 35.9733 18.3564 43.2367 18.9474 50.5437C19.5384 57.8507 22.8445 64.6714 28.2144 69.6619C33.5843 74.6525 40.6285 77.451 47.9591 77.5061C55.2898 77.5612 62.3752 74.8689 67.8195 69.9596C73.2638 65.0503 76.6721 58.2801 77.3728 50.9828C78.0736 43.6855 76.016 36.3904 71.6055 30.5347C67.1949 24.6791 60.7513 20.6875 53.5442 19.3466L54.8853 12.1384Z" fill="white"/>
<path d="M54.881 12.1376C63.8897 13.8126 71.9446 18.8007 77.4586 26.1192C82.9727 33.4376 85.5461 42.5557 84.6718 51.6771C83.7975 60.7985 79.539 69.2618 72.7352 75.3996C65.9314 81.5373 57.0757 84.9046 47.9127 84.8379L47.9661 77.5062C55.2964 77.5595 62.381 74.8657 67.8241 69.9555C73.2671 65.0453 76.6739 58.2747 77.3733 50.9775C78.0728 43.6804 76.0141 36.3859 71.6028 30.5312C67.1916 24.6764 60.7477 20.686 53.5407 19.3459L54.881 12.1376Z" fill="#FF9A37"/>
</svg>
