<svg width="96" height="96" viewBox="0 0 96 96" fill="none" xmlns="http://www.w3.org/2000/svg">
<circle cx="48" cy="48" r="48" fill="#FFEC89"/>
<circle cx="38.0009" cy="38.0651" r="5.12" transform="rotate(180 38.0009 38.0651)" fill="#FDC412"/>
<circle cx="58.0818" cy="38.0651" r="5.12" transform="rotate(180 58.0818 38.0651)" fill="#FDC412"/>
<path d="M31.36 50.0434C31.36 52.2448 31.7936 54.4247 32.636 56.4586C33.4785 58.4925 34.7133 60.3405 36.2699 61.8971C37.8266 63.4538 39.6746 64.6886 41.7085 65.5311C43.7424 66.3735 45.9223 66.8071 48.1237 66.8071C50.3251 66.8071 52.505 66.3735 54.5389 65.5311C56.5728 64.6886 58.4208 63.4538 59.9775 61.8971C61.5341 60.3405 62.7689 58.4925 63.6114 56.4586C64.4538 54.4247 64.8875 52.2448 64.8875 50.0434L58.182 50.0434C58.182 51.3642 57.9218 52.6722 57.4163 53.8925C56.9108 55.1128 56.17 56.2216 55.236 57.1556C54.302 58.0896 53.1932 58.8305 51.9728 59.336C50.7525 59.8415 49.4446 60.1016 48.1237 60.1016C46.8028 60.1016 45.4949 59.8415 44.2746 59.336C43.0543 58.8305 41.9454 58.0896 41.0114 57.1556C40.0774 56.2216 39.3366 55.1128 38.8311 53.8925C38.3256 52.6722 38.0655 51.3642 38.0655 50.0434H31.36Z" fill="#FDC412"/>
<path d="M54.8853 12.1384C63.8943 13.8146 71.9488 18.804 77.462 26.1236C82.9751 33.4431 85.5471 42.562 84.6712 51.6836C83.7952 60.8052 79.5349 69.268 72.7295 75.4047C65.9242 81.5413 57.0673 84.9067 47.904 84.8378C38.7407 84.769 29.9354 81.2708 23.2231 75.0326C16.5108 68.7944 12.3781 60.2685 11.6393 51.1348C10.9006 42.001 13.6094 32.9218 19.2319 25.6859C24.8545 18.4501 32.9831 13.5823 42.0162 12.0417L43.2489 19.2692C36.0224 20.5017 29.5195 24.3959 25.0214 30.1846C20.5234 35.9733 18.3564 43.2367 18.9474 50.5437C19.5384 57.8507 22.8445 64.6714 28.2144 69.6619C33.5843 74.6525 40.6285 77.451 47.9591 77.5061C55.2898 77.5612 62.3752 74.8689 67.8195 69.9596C73.2638 65.0503 76.6721 58.2801 77.3728 50.9828C78.0736 43.6855 76.016 36.3904 71.6055 30.5347C67.1949 24.6791 60.7513 20.6875 53.5442 19.3466L54.8853 12.1384Z" fill="white"/>
<path d="M54.881 12.1376C60.8483 13.2471 66.4468 15.8209 71.1739 19.6281C75.9011 23.4352 79.609 28.3565 81.9649 33.9502C84.3208 39.544 85.2509 45.6352 84.6718 51.6771C84.0927 57.719 82.0225 63.5226 78.6469 68.567L72.5534 64.4895C75.2539 60.454 76.91 55.8111 77.3733 50.9775C77.8366 46.144 77.0925 41.2711 75.2078 36.7961C73.3231 32.321 70.3568 28.384 66.5751 25.3383C62.7933 22.2926 58.3145 20.2336 53.5407 19.3459L54.881 12.1376Z" fill="#FDC412"/>
</svg>
