<svg width="269" height="269" viewBox="0 0 269 269" fill="none" xmlns="http://www.w3.org/2000/svg">
<circle cx="134.105" cy="134.105" r="134.105" fill="#E1E7EC"/>
<circle cx="105.497" cy="109.071" r="16.0926" transform="rotate(180 105.497 109.071)" fill="#C6D1DB"/>
<rect x="112.652" y="151.984" width="42.9136" height="21.4568" fill="#C6D1DB"/>
<ellipse cx="161.599" cy="109.071" rx="16.0926" ry="16.0926" transform="rotate(180 161.599 109.071)" fill="#C6D1DB"/>
<path d="M153.344 33.9128C178.513 38.5959 201.017 52.5356 216.42 72.9853C231.823 93.4351 239.008 118.912 236.561 144.396C234.114 169.881 222.211 193.525 203.198 210.67C184.185 227.814 159.44 237.217 133.839 237.024C108.238 236.832 83.6375 227.059 64.8842 209.63C46.1309 192.201 34.5848 168.381 32.5209 142.863C30.4569 117.345 38.0248 91.9786 53.7334 71.7626C69.442 51.5467 92.1522 37.9468 117.389 33.6426L120.833 53.8353C100.644 57.2787 82.4754 68.1586 69.9085 84.3313C57.3416 100.504 51.2873 120.797 52.9385 141.212C54.5896 161.626 63.8265 180.682 78.8291 194.625C93.8318 208.568 113.512 216.387 133.993 216.541C154.474 216.695 174.27 209.173 189.48 195.457C204.691 181.741 214.213 162.826 216.171 142.438C218.128 122.051 212.38 101.669 200.057 85.3095C187.735 68.9496 169.733 57.7979 149.597 54.0515L153.344 33.9128Z" fill="white"/>
</svg>
