<svg width="96" height="96" viewBox="0 0 96 96" fill="none" xmlns="http://www.w3.org/2000/svg">
<circle cx="48" cy="48" r="48" fill="#F6D4EA"/>
<path d="M31.3599 36.4799C31.3599 37.3203 31.5255 38.1526 31.8471 38.9291C32.1687 39.7055 32.6402 40.4111 33.2344 41.0054C33.8287 41.5997 34.5343 42.0711 35.3108 42.3927C36.0872 42.7143 36.9195 42.8799 37.7599 42.8799C38.6004 42.8799 39.4326 42.7143 40.2091 42.3927C40.9856 42.0711 41.6911 41.5997 42.2854 41.0054C42.8797 40.4111 43.3511 39.7055 43.6728 38.9291C43.9944 38.1526 44.1599 37.3203 44.1599 36.4799L37.7599 36.4799H31.3599Z" fill="#E581BD"/>
<path d="M51.4408 36.7851C51.4408 37.6255 51.6064 38.4577 51.928 39.2342C52.2496 40.0107 52.7211 40.7162 53.3154 41.3105C53.9097 41.9048 54.6152 42.3763 55.3917 42.6979C56.1682 43.0195 57.0004 43.1851 57.8408 43.1851C58.6813 43.1851 59.5135 43.0195 60.29 42.6979C61.0665 42.3763 61.772 41.9048 62.3663 41.3105C62.9606 40.7162 63.432 40.0107 63.7537 39.2342C64.0753 38.4577 64.2408 37.6255 64.2408 36.7851L57.8408 36.7851H51.4408Z" fill="#E581BD"/>
<path d="M63.3599 63.6076C63.3599 61.5905 62.9626 59.5931 62.1906 57.7295C61.4187 55.866 60.2873 54.1727 58.861 52.7464C57.4347 51.3201 55.7414 50.1887 53.8779 49.4168C52.0143 48.6449 50.017 48.2476 47.9999 48.2476C45.9828 48.2476 43.9854 48.6449 42.1218 49.4168C40.2583 50.1887 38.565 51.3201 37.1387 52.7464C35.7124 54.1727 34.581 55.866 33.8091 57.7295C33.0372 59.5931 32.6399 61.5905 32.6399 63.6076L38.7839 63.6076C38.7839 62.3973 39.0222 61.1989 39.4854 60.0807C39.9485 58.9626 40.6274 57.9466 41.4832 57.0909C42.3389 56.2351 43.3549 55.5562 44.473 55.0931C45.5912 54.6299 46.7896 54.3916 47.9999 54.3916C49.2101 54.3916 50.4085 54.6299 51.5267 55.0931C52.6448 55.5562 53.6608 56.2351 54.5166 57.0909C55.3723 57.9467 56.0512 58.9626 56.5143 60.0808C56.9775 61.1989 57.2159 62.3973 57.2159 63.6076L63.3599 63.6076Z" fill="#E581BD"/>
<path d="M54.8853 12.1384C63.8942 13.8146 71.9488 18.804 77.4619 26.1236C82.9751 33.4431 85.5471 42.562 84.6712 51.6836C83.7952 60.8052 79.5349 69.268 72.7295 75.4047C65.9242 81.5413 57.0673 84.9067 47.904 84.8378C38.7407 84.769 29.9354 81.2708 23.2231 75.0326C16.5107 68.7944 12.3781 60.2685 11.6393 51.1348C10.9006 42.001 13.6093 32.9218 19.2319 25.6859C24.8545 18.4501 32.9831 13.5823 42.0162 12.0417L43.2489 19.2692C36.0224 20.5017 29.5195 24.3959 25.0214 30.1846C20.5234 35.9733 18.3564 43.2367 18.9474 50.5437C19.5384 57.8507 22.8445 64.6714 28.2144 69.6619C33.5842 74.6525 40.6285 77.451 47.9591 77.5061C55.2897 77.5612 62.3752 74.8689 67.8195 69.9596C73.2638 65.0503 76.6721 58.2801 77.3728 50.9828C78.0736 43.6855 76.016 36.3904 71.6055 30.5347C67.1949 24.6791 60.7513 20.6875 53.5441 19.3466L54.8853 12.1384Z" fill="white"/>
<path d="M54.8809 12.1376C63.8897 13.8126 71.9446 18.8007 77.4586 26.1192C82.9727 33.4376 85.5461 42.5557 84.6718 51.6771C83.7975 60.7985 79.539 69.2618 72.7352 75.3996C65.9314 81.5373 57.0757 84.9046 47.9127 84.8379C38.7498 84.7712 29.944 81.2754 23.2302 75.0392C16.5165 68.8031 12.3816 60.2787 11.6402 51.1456C10.8988 42.0124 13.6046 32.9327 19.2246 25.6953C24.8446 18.4579 32.9712 13.5876 42.0034 12.0438L43.2386 19.271C36.0128 20.5059 29.5116 24.4022 25.0156 30.1921C20.5196 35.9821 18.3549 43.2458 18.9481 50.5523C19.5412 57.8588 22.8491 64.6783 28.2201 69.6673C33.5911 74.6562 40.6357 77.4528 47.9661 77.5062C55.2964 77.5595 62.381 74.8657 67.824 69.9555C73.2671 65.0453 76.6739 58.2747 77.3733 50.9775C78.0727 43.6804 76.014 36.3859 71.6028 30.5312C67.1916 24.6764 60.7477 20.686 53.5406 19.3459L54.8809 12.1376Z" fill="#E581BD"/>
</svg>
