<svg width="96" height="96" viewBox="0 0 96 96" fill="none" xmlns="http://www.w3.org/2000/svg">
<circle cx="48" cy="48" r="48" fill="#FFCBC8"/>
<rect x="34.5599" y="53.1201" width="26.88" height="7.68" fill="#FE726B"/>
<path d="M31.3599 37.12C31.3599 37.9605 31.5255 38.7927 31.8471 39.5692C32.1687 40.3457 32.6401 41.0512 33.2344 41.6455C33.8287 42.2398 34.5343 42.7112 35.3107 43.0328C36.0872 43.3545 36.9195 43.52 37.7599 43.52C38.6004 43.52 39.4326 43.3545 40.2091 43.0328C40.9856 42.7112 41.6911 42.2398 42.2854 41.6455C42.8797 41.0512 43.3511 40.3457 43.6727 39.5692C43.9944 38.7927 44.1599 37.9605 44.1599 37.12L37.7599 37.12H31.3599Z" fill="#FE726B"/>
<path d="M51.4408 37.12C51.4408 37.9605 51.6064 38.7927 51.928 39.5692C52.2496 40.3457 52.7211 41.0512 53.3154 41.6455C53.9097 42.2398 54.6152 42.7112 55.3917 43.0328C56.1682 43.3545 57.0004 43.52 57.8408 43.52C58.6813 43.52 59.5135 43.3545 60.29 43.0328C61.0665 42.7112 61.772 42.2398 62.3663 41.6455C62.9606 41.0512 63.432 40.3457 63.7537 39.5692C64.0753 38.7927 64.2408 37.9605 64.2408 37.12L57.8408 37.12H51.4408Z" fill="#FE726B"/>
<path d="M54.8853 12.1384C63.8942 13.8146 71.9488 18.804 77.4619 26.1236C82.9751 33.4431 85.5471 42.562 84.6711 51.6836C83.7952 60.8052 79.5348 69.268 72.7295 75.4047C65.9241 81.5413 57.0673 84.9067 47.904 84.8378C38.7407 84.769 29.9354 81.2708 23.2231 75.0326C16.5107 68.7944 12.3781 60.2685 11.6393 51.1348C10.9006 42.001 13.6093 32.9218 19.2319 25.6859C24.8544 18.4501 32.9831 13.5823 42.0162 12.0417L43.2489 19.2692C36.0223 20.5017 29.5194 24.3959 25.0214 30.1846C20.5234 35.9733 18.3564 43.2367 18.9473 50.5437C19.5383 57.8507 22.8445 64.6714 28.2144 69.6619C33.5842 74.6525 40.6284 77.451 47.9591 77.5061C55.2897 77.5612 62.3752 74.8689 67.8195 69.9596C73.2638 65.0503 76.6721 58.2801 77.3728 50.9828C78.0736 43.6855 76.016 36.3904 71.6054 30.5347C67.1949 24.6791 60.7513 20.6875 53.5441 19.3466L54.8853 12.1384Z" fill="white"/>
<path d="M54.8809 12.1376C60.8483 13.2471 66.4467 15.8209 71.1739 19.6281C75.9011 23.4352 79.609 28.3565 81.9649 33.9502C84.3207 39.544 85.2509 45.6352 84.6718 51.6771C84.0927 57.719 82.0224 63.5226 78.6469 68.567C75.2714 73.6114 70.6962 77.7388 65.3319 80.5787C59.9676 83.4185 53.9822 84.8821 47.9127 84.8379C41.8432 84.7937 35.8797 83.2432 30.5574 80.3256C25.235 77.4079 20.7203 73.2144 17.4186 68.1214L23.5708 64.133C26.2122 68.2074 29.8239 71.5622 34.0818 73.8963C38.3397 76.2305 43.1105 77.4709 47.9661 77.5062C52.8216 77.5415 57.61 76.3707 61.9014 74.0988C66.1928 71.8269 69.853 68.525 72.5534 64.4895C75.2538 60.454 76.91 55.8111 77.3733 50.9775C77.8366 46.144 77.0925 41.2711 75.2078 36.7961C73.3231 32.321 70.3568 28.384 66.575 25.3383C62.7933 22.2926 58.3145 20.2336 53.5406 19.3459L54.8809 12.1376Z" fill="#FE726B"/>
</svg>
