<svg width="96" height="96" viewBox="0 0 96 96" fill="none" xmlns="http://www.w3.org/2000/svg">
<circle cx="48" cy="48" r="48" fill="#E9D6F8"/>
<circle cx="38.0009" cy="38.0651" r="5.12" transform="rotate(180 38.0009 38.0651)" fill="#C78AE8"/>
<circle cx="58.0818" cy="38.0651" r="5.12" transform="rotate(180 58.0818 38.0651)" fill="#C78AE8"/>
<path d="M63.3599 63.6076C63.3599 61.5905 62.9626 59.5931 62.1906 57.7295C61.4187 55.866 60.2873 54.1727 58.861 52.7464C57.4347 51.3201 55.7414 50.1887 53.8779 49.4168C52.0143 48.6449 50.017 48.2476 47.9999 48.2476C45.9828 48.2476 43.9854 48.6449 42.1218 49.4168C40.2583 50.1887 38.565 51.3201 37.1387 52.7464C35.7124 54.1727 34.581 55.866 33.8091 57.7295C33.0372 59.5931 32.6399 61.5905 32.6399 63.6076L38.7839 63.6076C38.7839 62.3973 39.0222 61.1989 39.4854 60.0807C39.9485 58.9626 40.6274 57.9466 41.4832 57.0909C42.3389 56.2351 43.3549 55.5562 44.473 55.0931C45.5912 54.6299 46.7896 54.3916 47.9999 54.3916C49.2101 54.3916 50.4085 54.6299 51.5267 55.0931C52.6448 55.5562 53.6608 56.2351 54.5166 57.0909C55.3723 57.9467 56.0512 58.9626 56.5143 60.0808C56.9775 61.1989 57.2159 62.3973 57.2159 63.6076L63.3599 63.6076Z" fill="#C78AE8"/>
<path d="M54.8853 12.1384C63.8942 13.8146 71.9488 18.804 77.4619 26.1236C82.9751 33.4431 85.5471 42.562 84.6711 51.6836C83.7952 60.8052 79.5348 69.268 72.7295 75.4047C65.9241 81.5413 57.0673 84.9067 47.904 84.8378C38.7407 84.769 29.9354 81.2708 23.2231 75.0326C16.5107 68.7944 12.3781 60.2685 11.6393 51.1348C10.9006 42.001 13.6093 32.9218 19.2319 25.6859C24.8544 18.4501 32.9831 13.5823 42.0162 12.0417L43.2489 19.2692C36.0223 20.5017 29.5194 24.3959 25.0214 30.1846C20.5234 35.9733 18.3564 43.2367 18.9473 50.5437C19.5383 57.8507 22.8445 64.6714 28.2144 69.6619C33.5842 74.6525 40.6284 77.451 47.9591 77.5061C55.2897 77.5612 62.3752 74.8689 67.8195 69.9596C73.2638 65.0503 76.6721 58.2801 77.3728 50.9828C78.0736 43.6855 76.016 36.3904 71.6054 30.5347C67.1949 24.6791 60.7513 20.6875 53.5441 19.3466L54.8853 12.1384Z" fill="white"/>
<path d="M54.8809 12.1376C62.3617 13.5285 69.2243 17.2127 74.517 22.6793C79.8097 28.1458 83.2704 35.1238 84.4189 42.6456C85.5675 50.1674 84.3471 57.8602 80.927 64.6572C77.5069 71.4542 72.0566 77.0186 65.3319 80.5787C58.6072 84.1388 50.9413 85.5182 43.3973 84.5256C35.8534 83.533 28.8052 80.2177 23.2302 75.0393C17.6553 69.8608 13.8297 63.076 12.2842 55.6257C10.7387 48.1753 11.5497 40.4287 14.6048 33.46L21.3198 36.4039C18.8757 41.9788 18.2268 48.1761 19.4633 54.1364C20.6997 60.0967 23.7601 65.5245 28.2201 69.6673C32.6801 73.81 38.3186 76.4623 44.3538 77.2564C50.3889 78.0504 56.5216 76.9469 61.9014 74.0988C67.2812 71.2507 71.6414 66.7992 74.3775 61.3616C77.1136 55.924 78.0899 49.7698 77.1711 43.7523C76.2522 37.7349 73.4837 32.1525 69.2495 27.7793C65.0153 23.406 59.5252 20.4587 53.5406 19.3459L54.8809 12.1376Z" fill="#C78AE8"/>
</svg>
