<svg width="20" height="20" viewBox="0 0 20 20" fill="none" xmlns="http://www.w3.org/2000/svg">
<rect width="20" height="20" rx="10" transform="matrix(-1 0 0 1 20 0)" fill="#145DFF" fill-opacity="0.1"/>
<path d="M13.6881 12.179C14.104 12.5945 14.104 13.2667 13.6881 13.681C13.4801 13.8888 13.211 14 12.9297 14C12.6606 14 12.3914 13.9022 12.1835 13.681L10.0061 11.519L7.82875 13.681C7.6208 13.8888 7.35168 14 7.07034 14C6.80122 14 6.51988 13.8888 6.31193 13.681C5.89602 13.2667 5.89602 12.5945 6.31193 12.1667L8.4893 10.0035L6.31193 7.82683C5.89602 7.41252 5.89602 6.72811 6.31193 6.31257C6.72783 5.89581 7.40061 5.89581 7.82875 6.31257L10.0061 8.4868L12.1713 6.31257C12.5994 5.89581 13.2722 5.89581 13.6881 6.31257C14.104 6.72811 14.104 7.41252 13.6881 7.82683L11.5107 10.0035L13.6881 12.179Z" fill="#145DFF"/>
</svg>
