<svg width="31" height="20" viewBox="0 0 31 20" fill="none" xmlns="http://www.w3.org/2000/svg">
<path d="M7.54989 3.54884C11.775 -1.22504 19.2409 -1.17538 23.4022 3.65429L29.3216 10.5245C30.1141 11.4443 30.55 12.6181 30.55 13.8322C30.55 16.6308 28.2813 18.8995 25.4826 18.8995H5.05683C2.07113 18.8995 -0.264474 16.3261 0.0241465 13.3544C0.129061 12.2742 0.578768 11.2563 1.30679 10.4514L7.54989 3.54884Z" fill="#A51F3F"/>
<circle cx="11.7394" cy="7.29216" r="1.33903" fill="#DBA5B2"/>
<circle cx="18.2511" cy="7.29216" r="1.33903" fill="#DBA5B2"/>
<path d="M19.4268 15.5C19.7433 15.5 20.0038 15.2423 19.9636 14.9283C19.8377 13.9457 19.39 13.026 18.682 12.318C17.8381 11.4741 16.6935 11 15.5 11C14.3065 11 13.1619 11.4741 12.318 12.318C11.61 13.026 11.1623 13.9457 11.0364 14.9283C10.9962 15.2423 11.2567 15.5 11.5732 15.5V15.5C11.8898 15.5 12.1415 15.2415 12.1954 14.9295C12.3124 14.2519 12.6359 13.6215 13.1287 13.1287C13.7576 12.4998 14.6106 12.1465 15.5 12.1465C16.3894 12.1465 17.2424 12.4998 17.8713 13.1287C18.3641 13.6215 18.6876 14.2519 18.8046 14.9295C18.8585 15.2415 19.1102 15.5 19.4268 15.5V15.5Z" fill="#DBA5B2"/>
</svg>
