<svg width="20" height="20" viewBox="0 0 20 20" fill="none" xmlns="http://www.w3.org/2000/svg">
<g opacity="0.2">
<path fill-rule="evenodd" clip-rule="evenodd" d="M13.2082 1.66616C13.734 1.66616 14.259 1.74423 14.7582 1.92054C17.834 2.97316 18.9423 6.52576 18.0165 9.631C17.4915 11.2178 16.6332 12.6661 15.509 13.8494C13.8999 15.4897 12.1341 16.9459 10.2332 18.2002L10.0249 18.3327L9.80825 18.1915C7.90077 16.9458 6.12496 15.4897 4.50081 13.8406C3.38415 12.6573 2.52499 11.2178 1.99167 9.631C1.05001 6.52576 2.15833 2.97316 5.26747 1.90212C5.50913 1.8144 5.75829 1.753 6.00829 1.71879H6.10829C6.34245 1.68282 6.57495 1.66616 6.80828 1.66616H6.89995C7.42494 1.68282 7.93327 1.77931 8.42577 1.95563H8.47493C8.50826 1.97229 8.53326 1.99071 8.54993 2.00738C8.7341 2.06966 8.90826 2.13984 9.07493 2.23633L9.39159 2.38545C9.46811 2.42841 9.55399 2.49404 9.62822 2.55077C9.67525 2.58671 9.7176 2.61908 9.74992 2.63983C9.76352 2.64828 9.77734 2.65677 9.79128 2.66533C9.86273 2.70924 9.93716 2.75497 9.99992 2.80562C10.9257 2.06089 12.0499 1.65738 13.2082 1.66616ZM15.4256 7.98149C15.7673 7.97185 16.059 7.68325 16.084 7.31396V7.20957C16.109 5.98063 15.4015 4.86749 14.3257 4.43766C13.984 4.31398 13.609 4.50784 13.484 4.87626C13.3673 5.24468 13.5507 5.64818 13.9007 5.77888C14.4348 5.98941 14.7923 6.54291 14.7923 7.15606V7.18326C14.7765 7.38413 14.834 7.57799 14.9507 7.72711C15.0673 7.87623 15.2423 7.96307 15.4256 7.98149Z" fill="#121723"/>
</g>
</svg>
