<svg width="18" height="12" viewBox="0 0 18 12" fill="none" xmlns="http://www.w3.org/2000/svg">
<path opacity="0.4" d="M1.21053 5.34067L9.68853 5.34067C10.0807 5.34067 10.3991 5.65898 10.3991 6.05119C10.3991 6.4434 10.0807 6.76172 9.68853 6.76172L1.21053 6.76172C0.818316 6.76172 0.5 6.4434 0.5 6.05119C0.5 5.65898 0.818316 5.34067 1.21053 5.34067Z" fill="white"/>
<mask id="mask0_2064:4953" style="mask-type:alpha" maskUnits="userSpaceOnUse" x="8" y="0" width="10" height="12">
<path fill-rule="evenodd" clip-rule="evenodd" d="M8.97852 11.5V0.603602H17.918V11.5H8.97852Z" fill="white"/>
</mask>
<g mask="url(#mask0_2064:4953)">
<path d="M9.68904 0.603318C9.82167 0.603318 9.95241 0.640265 10.068 0.712265L17.5863 5.45005C17.7928 5.58079 17.9188 5.80721 17.9188 6.05163C17.9188 6.29605 17.7928 6.52248 17.5863 6.65321L10.068 11.391C9.84915 11.5284 9.57252 11.5369 9.34609 11.4109C9.11873 11.2858 8.97852 11.0481 8.97852 10.7894V1.31384C8.97852 1.05521 9.11873 0.817423 9.34609 0.69237C9.45315 0.632687 9.57157 0.603318 9.68904 0.603318Z" fill="white"/>
</g>
</svg>
