<svg width="179" height="61" viewBox="0 0 179 61" fill="none" xmlns="http://www.w3.org/2000/svg">
<g clip-path="url(#clip0_1269:18054)">
<path fill-rule="evenodd" clip-rule="evenodd" d="M7.63449 0C3.41808 0 0 3.41807 0 7.63448V52.8052C0 57.0216 3.41807 60.4397 7.63448 60.4397H170.503C174.72 60.4397 178.138 57.0216 178.138 52.8052V7.63448C178.138 3.41807 174.72 0 170.503 0H7.63449Z" fill="black"/>
<path fill-rule="evenodd" clip-rule="evenodd" d="M113.337 42.8966C114.391 41.9467 114.915 40.7162 114.915 39.2038C114.915 37.9747 114.556 36.9446 113.836 36.1216C113.114 35.2959 111.991 34.5758 110.462 33.9599C109.212 33.4669 108.351 33.01 107.877 32.5878C107.332 32.1308 107.061 31.5497 107.061 30.8469C107.061 30.2123 107.299 29.6765 107.773 29.237C108.334 28.7453 109.116 28.4982 110.118 28.4982C111.385 28.4982 112.517 28.7707 113.519 29.3158L114.23 26.9938C113.158 26.4313 111.815 26.1494 110.198 26.1494C108.385 26.1494 106.935 26.6157 105.848 27.5496C104.757 28.4821 104.212 29.6806 104.212 31.1422C104.212 33.3787 105.766 35.0795 108.877 36.2405C110.02 36.664 110.839 37.1223 111.329 37.6153C111.822 38.1083 112.067 38.7162 112.067 39.4376C112.067 40.2473 111.769 40.8966 111.173 41.3802C110.573 41.8639 109.739 42.107 108.666 42.107C107.172 42.107 105.801 41.7276 104.551 40.9714L103.892 43.3455C105.052 44.0843 106.585 44.4531 108.497 44.4531C110.568 44.4531 112.179 43.9347 113.337 42.8966ZM65.9584 44.1905H68.9908L63.2425 26.4105H59.7095L53.9893 44.1905H56.9415L58.5238 38.9679H64.2974L65.9584 44.1905ZM62.2945 32.1336L63.7967 36.7763H59.0258L60.5013 32.1336C60.8885 30.6573 61.1702 29.5404 61.3452 28.7842H61.3986C61.8379 30.5424 62.1356 31.6593 62.2945 32.1336ZM81.9347 42.7909C83.1124 41.5257 83.7013 39.8022 83.7013 37.6218C83.7013 35.6698 83.1966 34.096 82.1844 32.8989C81.175 31.7032 79.9132 31.1059 78.4017 31.1059C76.4682 31.1059 75.0275 31.8702 74.0781 33.4013H74.0247L73.8658 31.3691H71.3622C71.4317 32.8121 71.4677 34.2189 71.4677 35.5897V49.4136H74.3145V42.66H74.3679C75.1063 43.8731 76.3187 44.4797 78.0064 44.4797C79.57 44.4797 80.8799 43.9172 81.9347 42.7909ZM80.801 37.7262C80.801 36.4784 80.5206 35.4496 79.9572 34.64C79.3416 33.7956 78.5151 33.3734 77.4789 33.3734C76.7766 33.3734 76.1384 33.6086 75.5682 34.0722C74.9967 34.5398 74.6228 35.1504 74.4479 35.9065C74.3598 36.2593 74.3157 36.5478 74.3157 36.775V38.9126C74.3157 39.8452 74.6015 40.6321 75.173 41.2747C75.7445 41.9174 76.4869 42.238 77.4002 42.238C78.4724 42.238 79.3069 41.8238 79.9038 40.9982C80.5019 40.1712 80.801 39.081 80.801 37.7262ZM96.6706 42.7909C97.8496 41.5257 98.4385 39.8022 98.4385 37.6218C98.4385 35.6698 97.9324 34.096 96.9243 32.8989C95.9122 31.7032 94.6504 31.1059 93.1402 31.1059C91.2054 31.1059 89.7647 31.8702 88.8167 33.4013H88.7633L88.6044 31.3691H86.1008C86.1702 32.8121 86.2062 34.2189 86.2062 35.5897V49.4136H89.053V42.66H89.1064C89.8435 43.8731 91.0559 44.4797 92.7436 44.4797C94.3072 44.4797 95.6171 43.9172 96.6706 42.7909ZM95.5382 37.7262C95.5382 36.4784 95.2564 35.4496 94.6929 34.64C94.0774 33.7956 93.2535 33.3734 92.2161 33.3734C91.5124 33.3734 90.8755 33.6086 90.304 34.0722C89.7325 34.5398 89.36 35.1504 89.185 35.9065C89.0983 36.2593 89.0529 36.5478 89.0529 36.775V38.9126C89.0529 39.8452 89.3386 40.6321 89.9074 41.2747C90.4789 41.916 91.2213 42.238 92.1373 42.238C93.2095 42.238 94.044 41.8238 94.6409 40.9982C95.2391 40.1712 95.5382 39.081 95.5382 37.7262ZM124.328 33.5069H121.19V39.7315C121.19 41.3147 121.742 42.1056 122.851 42.1056C123.359 42.1056 123.781 42.0615 124.115 41.9733L124.194 44.1364C123.633 44.3461 122.895 44.4517 121.98 44.4517C120.856 44.4517 119.977 44.1083 119.343 43.4229C118.711 42.7362 118.394 41.5846 118.394 39.9666V33.5042H116.524V31.3666H118.394V29.0192L121.19 28.1748V31.3666H124.328V33.5069ZM136.797 42.5279C137.922 41.2627 138.485 39.6447 138.485 37.6741C138.485 35.7569 137.94 34.1924 136.848 32.9806C135.707 31.7314 134.194 31.1075 132.314 31.1075C130.363 31.1075 128.811 31.7407 127.662 33.0073C126.509 34.2725 125.935 35.8998 125.935 37.8865C125.935 39.785 126.493 41.3602 127.61 42.608C128.726 43.8559 130.223 44.4798 132.103 44.4798C134.054 44.4798 135.618 43.8305 136.797 42.5279ZM135.532 37.7663C135.532 36.5839 135.279 35.5698 134.768 34.7241C134.171 33.7007 133.318 33.1903 132.212 33.1903C131.068 33.1903 130.199 33.702 129.602 34.7241C129.09 35.5712 128.838 36.6012 128.838 37.8197C128.838 39.0021 129.09 40.0161 129.602 40.8605C130.217 41.8839 131.077 42.3943 132.187 42.3943C133.274 42.3943 134.127 41.8732 134.742 40.8338C135.267 39.9721 135.532 38.9473 135.532 37.7663ZM146.841 33.7957C147.156 33.7957 147.457 33.8224 147.739 33.8745V31.1584C147.528 31.125 147.29 31.1063 147.027 31.1063C146.288 31.1063 145.603 31.3347 144.969 31.793C144.32 32.302 143.846 32.9807 143.546 33.8238H143.467L143.363 31.3708H140.883C140.954 32.5839 140.99 33.9293 140.99 35.407L140.963 44.19H143.809V37.4631C143.809 36.4437 144.047 35.5993 144.521 34.9313C145.065 34.1738 145.84 33.7957 146.841 33.7957ZM160.47 37.1731C160.47 37.6835 160.437 38.1137 160.366 38.4651H151.826C151.859 39.7316 152.272 40.7002 153.065 41.3683C153.784 41.9655 154.715 42.2647 155.858 42.2647C157.122 42.2647 158.276 42.063 159.314 41.6582L159.76 43.6355C158.547 44.1646 157.116 44.4278 155.464 44.4278C153.477 44.4278 151.918 43.8426 150.783 42.6736C149.65 41.5045 149.083 39.9347 149.083 37.9654C149.083 36.0321 149.61 34.4222 150.667 33.1383C151.772 31.7675 153.266 31.0821 155.146 31.0821C156.993 31.0821 158.391 31.7675 159.34 33.1383C160.092 34.2272 160.47 35.5739 160.47 37.1731ZM157.203 34.2446C157.589 34.8605 157.774 35.5899 157.755 36.4343V36.433H151.826C151.912 35.5726 152.194 34.8337 152.668 34.2178C153.246 33.4429 154.003 33.0568 154.934 33.0568C155.953 33.0568 156.71 33.4523 157.203 34.2446Z" fill="white"/>
<path fill-rule="evenodd" clip-rule="evenodd" d="M90.8836 10.8584H92.2816V20.0463H90.8836V10.8584ZM61.4426 19.0234C62.384 18.2285 62.8553 17.0448 62.8553 15.4723C62.8553 14.0721 62.4187 12.9966 61.5481 12.2444C60.771 11.5791 59.6187 11.2464 58.0898 11.2464C57.2246 11.2464 56.4234 11.3078 55.6797 11.4281V20.0201C56.2498 20.0896 56.9308 20.1243 57.7266 20.1243C59.3316 20.1243 60.5707 19.7569 61.4426 19.0234ZM60.5708 13.1642C61.1102 13.7093 61.3799 14.4909 61.3799 15.5103C61.3799 16.6512 61.0862 17.5197 60.504 18.1155C59.9219 18.7114 59.0953 19.0093 58.0245 19.0093C57.5665 19.0093 57.2514 18.9973 57.0791 18.9706V12.4387C57.3902 12.3773 57.7654 12.3479 58.2061 12.3479C59.2436 12.3479 60.0313 12.6204 60.5708 13.1642ZM70.6786 16.8452C70.6786 17.8138 70.4022 18.6074 69.8494 19.23C69.2699 19.8699 68.5022 20.1893 67.5435 20.1893C66.6195 20.1893 65.8837 19.8833 65.335 19.2687C64.7875 18.6555 64.5138 17.8819 64.5138 16.9494C64.5138 15.9741 64.7955 15.1738 65.3617 14.5525C65.9278 13.9313 66.6889 13.62 67.6476 13.62C68.5716 13.62 69.314 13.9259 69.8761 14.5392C70.4102 15.135 70.6786 15.9046 70.6786 16.8452ZM68.852 15.3954C69.1017 15.8109 69.2272 16.3093 69.2272 16.8904C69.2272 17.4716 69.0977 17.974 68.8387 18.3975C68.5369 18.9092 68.1176 19.1644 67.5835 19.1644C67.0387 19.1644 66.6168 18.9132 66.3137 18.4109C66.064 17.9953 65.9385 17.497 65.9385 16.9158C65.9385 16.3173 66.0627 15.8109 66.3137 15.3954C66.6075 14.8931 67.0347 14.6419 67.5969 14.6419C68.1403 14.6419 68.5583 14.8931 68.852 15.3954ZM81.1683 13.7485L81.1679 13.7498H79.7943L79.0305 16.6917C78.8409 17.4266 78.6981 18.1173 78.6033 18.7653H78.5645C78.435 18.0999 78.2668 17.4092 78.0598 16.6917L77.2039 13.7498H76.0636L75.1703 16.7559C74.9273 17.5668 74.7551 18.2375 74.6509 18.7639H74.6256C74.5121 18.1253 74.3705 17.4506 74.1983 16.7425L73.4866 13.7485H72.0485L73.9005 20.0465H75.197L76.0636 17.3117C76.2799 16.6463 76.4482 15.9689 76.5697 15.2769H76.595C76.7259 15.9502 76.8941 16.6289 77.1011 17.3117L77.9169 20.0465H79.1988L81.1679 13.7498H81.1683V13.7485ZM87.0233 20.0465H88.4227V16.2735C88.4227 15.349 88.181 14.6529 87.6976 14.1866C87.3091 13.8059 86.8204 13.6161 86.2329 13.6161C85.7682 13.6161 85.3436 13.735 84.9644 13.9702C84.6453 14.1719 84.4022 14.4244 84.2393 14.7304H84.2006L84.1352 13.7457H82.9054C82.9388 14.395 82.9562 14.9949 82.9562 15.548V20.0451H84.3555V16.3096C84.3555 15.8967 84.4864 15.536 84.7441 15.2301C85.0044 14.9241 85.3396 14.7718 85.7548 14.7718C86.6014 14.7718 87.0233 15.3276 87.0233 16.4392V20.0465ZM99.6909 19.2302C100.244 18.6076 100.52 17.814 100.52 16.8453C100.52 15.9048 100.252 15.1352 99.7176 14.5393C99.1541 13.9261 98.4131 13.6202 97.4877 13.6202C96.5304 13.6202 95.7693 13.9315 95.2031 14.5527C94.637 15.174 94.3552 15.9742 94.3552 16.9496C94.3552 17.8821 94.629 18.6557 95.1764 19.2689C95.7239 19.8835 96.4596 20.1894 97.3849 20.1894C98.3423 20.1894 99.1114 19.8701 99.6909 19.2302ZM99.0674 16.8906C99.0674 16.3095 98.9419 15.8111 98.6922 15.3956C98.3998 14.8933 97.9805 14.6421 97.4384 14.6421C96.8749 14.6421 96.4476 14.8933 96.1552 15.3956C95.9042 15.8111 95.78 16.3175 95.78 16.916C95.78 17.4972 95.9055 17.9955 96.1552 18.4111C96.4583 18.9134 96.8803 19.1646 97.425 19.1646C97.9591 19.1646 98.3771 18.9094 98.6788 18.3977C98.9392 17.9742 99.0674 17.4718 99.0674 16.8906ZM106.036 20.0465H107.292C107.232 19.6751 107.202 19.1741 107.202 18.5448V16.2254C107.202 14.4886 106.377 13.6202 104.731 13.6202C103.88 13.6202 103.157 13.8019 102.572 14.1639L102.857 15.0831C103.329 14.7732 103.877 14.6168 104.498 14.6168C105.37 14.6168 105.805 15.031 105.805 15.8607V15.9783C104.639 15.9689 103.734 16.168 103.09 16.5741C102.446 16.9803 102.125 17.5668 102.125 18.3364C102.125 18.8454 102.289 19.2743 102.618 19.619C102.98 19.9984 103.46 20.1894 104.055 20.1894C104.85 20.1894 105.463 19.8995 105.893 19.321H105.932L106.036 20.0465ZM105.84 17.8821V16.9108C104.296 16.884 103.524 17.3076 103.524 18.18C103.524 18.5087 103.613 18.7545 103.793 18.9188C103.973 19.0832 104.203 19.1647 104.476 19.1647C104.784 19.1647 105.071 19.0671 105.332 18.8734C105.595 18.6783 105.757 18.4312 105.817 18.1279C105.832 18.0598 105.84 17.9769 105.84 17.8821ZM114.002 20.0463H115.244C115.211 19.5279 115.194 18.9628 115.194 18.3496V10.8584H113.794V14.4737H113.767C113.431 13.9032 112.839 13.6187 111.994 13.6187C111.225 13.6187 110.579 13.9126 110.051 14.5004C109.506 15.131 109.235 15.9567 109.235 16.9761C109.235 17.926 109.485 18.6996 109.986 19.2955C110.486 19.8913 111.118 20.1893 111.876 20.1893C112.826 20.1893 113.501 19.8045 113.898 19.0349H113.937L114.002 20.0463ZM113.794 17.3904V16.3403C113.794 16.1586 113.781 16.0116 113.755 15.8994C113.676 15.5627 113.507 15.2795 113.249 15.051C112.989 14.8226 112.675 14.7077 112.313 14.7077C111.791 14.7077 111.382 14.9147 111.082 15.3302C110.784 15.7458 110.633 16.2762 110.633 16.9241C110.633 17.5467 110.776 18.0517 111.063 18.4405C111.366 18.8547 111.775 19.0618 112.286 19.0618C112.746 19.0618 113.113 18.8894 113.392 18.5434C113.662 18.2241 113.794 17.8393 113.794 17.3904ZM126.383 19.2302C126.935 18.6076 127.212 17.814 127.212 16.8454C127.212 15.9048 126.943 15.1352 126.409 14.5394C125.848 13.9261 125.105 13.6202 124.182 13.6202C123.222 13.6202 122.461 13.9315 121.895 14.5527C121.329 15.174 121.047 15.9743 121.047 16.9496C121.047 17.8821 121.321 18.6557 121.868 19.2689C122.418 19.8835 123.154 20.1894 124.077 20.1894C125.037 20.1894 125.803 19.8701 126.383 19.2302ZM125.762 16.8906C125.762 16.3095 125.636 15.8111 125.387 15.3956C125.091 14.8933 124.675 14.6421 124.13 14.6421C123.569 14.6421 123.142 14.8933 122.847 15.3956C122.596 15.8111 122.472 16.3175 122.472 16.916C122.472 17.4972 122.597 17.9955 122.847 18.4111C123.15 18.9134 123.572 19.1646 124.117 19.1646C124.651 19.1646 125.071 18.9094 125.373 18.3977C125.631 17.9742 125.762 17.4718 125.762 16.8906ZM133.338 20.0465H134.736V16.2735C134.736 15.349 134.495 14.6529 134.011 14.1866C133.622 13.8059 133.134 13.6161 132.547 13.6161C132.081 13.6161 131.658 13.735 131.278 13.9702C130.96 14.1719 130.717 14.4244 130.552 14.7304H130.514L130.448 13.7457H129.22C129.253 14.395 129.269 14.9949 129.269 15.548V20.0451H130.67V16.3096C130.67 15.8968 130.8 15.536 131.059 15.2301C131.318 14.9241 131.653 14.7718 132.068 14.7718C132.916 14.7718 133.338 15.3276 133.338 16.4392V20.0465ZM144.152 14.7969H142.612V17.8564C142.612 18.6339 142.886 19.0227 143.428 19.0227C143.679 19.0227 143.888 19.0014 144.052 18.9573L144.088 20.0194C143.812 20.1236 143.448 20.1757 143.001 20.1757C142.448 20.1757 142.018 20.0074 141.707 19.6707C141.395 19.334 141.24 18.7675 141.24 17.9726V14.7969H140.32V13.7481H141.24V12.5937L142.611 12.1796V13.7467H144.152V14.7969ZM150.161 20.0463H151.561V16.3014C151.561 15.3689 151.324 14.6634 150.85 14.1891C150.469 13.8084 149.99 13.6187 149.41 13.6187C148.592 13.6187 147.96 13.9634 147.52 14.6541H147.493V10.8584H146.095V20.045H147.493V16.2573C147.493 16.0596 147.517 15.8912 147.558 15.7536C147.801 15.099 148.245 14.7717 148.894 14.7717C149.739 14.7717 150.161 15.3368 150.161 16.4657V20.0463ZM159.203 16.5995C159.203 16.8507 159.184 17.0617 159.151 17.2341H154.954C154.973 17.8567 155.173 18.331 155.562 18.6596C155.917 18.9536 156.375 19.1005 156.936 19.1005C157.557 19.1005 158.123 19.0017 158.633 18.8026L158.852 19.7752C158.255 20.0344 157.553 20.164 156.739 20.164C155.765 20.164 154.997 19.8768 154.442 19.3023C153.883 18.7278 153.607 17.9569 153.607 16.9896C153.607 16.0397 153.865 15.2487 154.384 14.6181C154.926 13.9448 155.659 13.6081 156.585 13.6081C157.49 13.6081 158.178 13.9448 158.642 14.6181C159.017 15.1526 159.203 15.8139 159.203 16.5995ZM157.597 15.1616C157.786 15.4635 157.878 15.8216 157.868 16.2371H154.954C155 15.8136 155.137 15.4515 155.37 15.1482C155.654 14.7675 156.026 14.5777 156.483 14.5777C156.984 14.5777 157.354 14.7728 157.597 15.1616Z" fill="white"/>
<path fill-rule="evenodd" clip-rule="evenodd" d="M34.6594 10.8154C34.8829 12.8475 34.0776 14.85 32.9006 16.3219C31.6725 17.7709 29.7077 18.8792 27.7941 18.7364C27.5437 16.7811 28.5132 14.7019 29.5986 13.4333C30.8254 11.9937 32.9558 10.8908 34.6594 10.8154ZM40.9238 22.538C40.7102 22.6655 37.1712 24.7778 37.2099 29.0856C37.2544 34.2877 41.7603 36.0074 41.8155 36.0262C41.7885 36.1474 41.1098 38.5081 39.4198 40.9051C38.0085 43.0153 36.5299 45.0784 34.1813 45.1161C33.0648 45.1418 32.3109 44.8207 31.5253 44.4862C30.7058 44.1372 29.8518 43.7735 28.5159 43.7735C27.0996 43.7735 26.2078 44.1488 25.3477 44.5108C24.6041 44.8238 23.8841 45.1268 22.8694 45.1686C20.6327 45.2508 18.9238 42.9157 17.4613 40.8243C14.5377 36.5541 12.2619 28.7907 15.3134 23.5077C16.792 20.9168 19.488 19.2483 22.3698 19.2038C23.6389 19.1779 24.856 19.667 25.923 20.0957C26.7389 20.4236 27.4671 20.7161 28.0635 20.7161C28.5873 20.7161 29.295 20.4353 30.1198 20.1079C31.4197 19.592 33.0105 18.9606 34.6311 19.1311C35.7394 19.1635 38.8932 19.5688 40.928 22.5355L40.9238 22.538Z" fill="white"/>
</g>
<defs>
<clipPath id="clip0_1269:18054">
<rect width="178.138" height="60.4397" fill="white"/>
</clipPath>
</defs>
</svg>
