<svg width="15" height="10" viewBox="0 0 15 10" fill="none" xmlns="http://www.w3.org/2000/svg">
<path opacity="0.4" d="M0.586853 4.4126H7.58918C7.91313 4.4126 8.17604 4.67551 8.17604 4.99945C8.17604 5.3234 7.91313 5.58631 7.58918 5.58631H0.586853C0.26291 5.58631 0 5.3234 0 4.99945C0 4.67551 0.26291 4.4126 0.586853 4.4126Z" fill="#145DFF"/>
<path fill-rule="evenodd" clip-rule="evenodd" d="M7.57228 0.5H7.60544C7.70926 0.50293 7.81117 0.533292 7.90179 0.589749L14.1115 4.50288C14.2739 4.60572 14.3761 4.78024 14.3854 4.97101V5.02849C14.3761 5.21926 14.2739 5.39378 14.1115 5.49662L7.90179 9.40976C7.80655 9.46955 7.69805 9.49979 7.58936 9.49979C7.58934 9.49979 7.58933 9.49979 7.58932 9.49979C7.49175 9.49979 7.39401 9.47542 7.30555 9.4262C7.11776 9.32291 7.00195 9.1265 7.00195 8.9129V1.08662C7.00195 0.873004 7.11776 0.676603 7.30555 0.573317C7.38895 0.52682 7.48071 0.502599 7.57228 0.5Z" fill="#145DFF"/>
</svg>
