<svg width="10" height="10" viewBox="0 0 10 10" fill="none" xmlns="http://www.w3.org/2000/svg">
<path d="M6.80801 0.833008H3.19551C1.78301 0.833008 0.833008 1.82467 0.833008 3.29967V6.70426C0.833008 8.17467 1.78301 9.16634 3.19551 9.16634H6.80801C8.22051 9.16634 9.16634 8.17467 9.16634 6.70426V3.29967C9.16634 1.82467 8.22051 0.833008 6.80801 0.833008Z" fill="#CDF9CC"/>
<path d="M6.74193 4.26647L4.76276 6.24564C4.69193 6.31647 4.60026 6.3498 4.50443 6.3498C4.41276 6.3498 4.32109 6.31647 4.25026 6.24564L3.25859 5.25814C3.11693 5.1123 3.11693 4.88314 3.25859 4.74147C3.40026 4.5998 3.63359 4.5998 3.77526 4.74147L4.50443 5.47064L6.22526 3.7498C6.36693 3.60814 6.60026 3.60814 6.74193 3.7498C6.88359 3.89564 6.88359 4.1248 6.74193 4.26647Z" fill="#024800"/>
</svg>
