<svg width="179" height="61" viewBox="0 0 179 61" fill="none" xmlns="http://www.w3.org/2000/svg">
<g clip-path="url(#clip0_1269:18006)">
<path fill-rule="evenodd" clip-rule="evenodd" d="M8.49679 0.476562C4.28038 0.476562 0.862305 3.89464 0.862305 8.11105V53.2817C0.862305 57.4981 4.28038 60.9162 8.49679 60.9162H171.366C175.582 60.9162 179 57.4981 179 53.2817V8.11104C179 3.89463 175.582 0.476562 171.366 0.476562H8.49679Z" fill="black"/>
<g clip-path="url(#clip1_1269:18006)">
<path fill-rule="evenodd" clip-rule="evenodd" d="M15.2895 25.1338C14.7877 25.2921 14.4629 25.8044 14.4629 26.5796L14.466 50.975C14.466 51.7416 14.7807 52.2461 15.2687 52.4146L28.805 38.7633L15.2895 25.1338Z" fill="url(#paint0_linear_1269:18006)"/>
<path fill-rule="evenodd" clip-rule="evenodd" d="M15.2676 52.4159C15.6187 52.536 16.0586 52.4799 16.5381 52.2148L33.057 43.0536L28.804 38.7646L15.2676 52.4159Z" fill="url(#paint1_linear_1269:18006)"/>
<path fill-rule="evenodd" clip-rule="evenodd" d="M33.0591 43.0537L38.6917 39.9306C39.8339 39.295 39.8339 38.261 38.6917 37.627L33.0382 34.4922L28.8037 38.7624L33.0591 43.0537Z" fill="url(#paint2_linear_1269:18006)"/>
<path fill-rule="evenodd" clip-rule="evenodd" d="M33.0375 34.4923L16.5379 25.3436C16.0701 25.0855 15.6386 25.0255 15.2891 25.1354L28.8038 38.7626L33.0375 34.4923Z" fill="url(#paint3_linear_1269:18006)"/>
</g>
<path fill-rule="evenodd" clip-rule="evenodd" d="M108.863 44.5962C108.005 44.5159 107.824 44.3568 107.824 43.3345L107.831 28.4098C107.934 27.4888 108.176 27.2011 108.985 26.7285H105.253L103.298 27.6783H105.329L105.339 43.3244V43.9116C105.339 44.3867 105.254 44.4967 104.792 45.0965C104.743 45.1601 104.69 45.2293 104.632 45.3051H109.231L110.196 44.7257C109.974 44.6989 109.75 44.6797 109.526 44.6604C109.306 44.6415 109.084 44.6225 108.863 44.5962ZM62.6034 44.7321L59.105 45.54C57.6876 45.7654 56.4148 45.9635 55.0669 45.9635C48.3192 45.9635 45.748 40.9548 45.748 37.0347C45.748 32.2474 49.391 27.8088 55.6299 27.8088C56.9499 27.8088 58.2196 28.0045 59.3764 28.3227C61.1256 28.8181 61.9866 29.4236 62.5273 29.8039L62.6034 29.8573L60.5712 31.8037L59.7144 31.9971L60.3253 31.0153L60.3199 31.01C59.4912 30.1939 57.9705 28.6962 55.0901 28.6962C51.2306 28.6962 48.3192 31.6548 48.3192 35.9741C48.3192 40.6132 51.6436 44.977 56.9754 44.977C58.5421 44.977 59.3486 44.6596 60.0809 44.3633V40.3863L56.3869 40.5867L58.3449 39.5261H63.529L62.8949 40.1414C62.724 40.288 62.7008 40.3379 62.6529 40.5344C62.6273 40.759 62.6034 41.4733 62.6034 41.7244V44.7321ZM70.6262 45.6455C66.4775 45.6455 64.262 42.3882 64.262 39.439C64.262 35.993 67.0528 33.0446 71.0198 33.0446C74.8537 33.0446 77.254 36.0733 77.254 39.2534C77.254 42.3594 74.8823 45.6455 70.6262 45.6455ZM74.6728 40.5981C74.6728 41.6228 74.5166 42.674 73.8902 43.5161C73.2878 44.3568 72.2478 44.8551 71.2293 44.8551C68.072 44.8551 66.7922 40.5669 66.7922 37.967C66.7922 36.8316 66.9732 35.6744 67.9939 34.7535C68.6203 34.1998 69.4779 33.8606 70.3416 33.8606C73.5747 33.8606 74.6728 38.2805 74.6728 40.5981ZM84.5137 45.6455C80.3658 45.6455 78.1464 42.3882 78.1464 39.439C78.1464 35.993 80.9364 33.0446 84.9049 33.0446C88.7412 33.0446 91.1438 36.0733 91.1438 39.2534C91.1438 42.3594 88.7691 45.6455 84.5137 45.6455ZM88.5611 40.5981C88.5611 41.6228 88.4079 42.674 87.7769 43.5161C87.1761 44.3568 86.1345 44.8551 85.1137 44.8551C81.951 44.8551 80.6766 40.5669 80.6766 37.967C80.6766 36.8316 80.8583 35.6744 81.8775 34.7535C82.5024 34.1998 83.3692 33.8606 84.2299 33.8606C87.4661 33.8606 88.5611 38.2805 88.5611 40.5981ZM100.692 34.3358C101.292 34.8325 102.542 35.8868 102.542 37.8862C102.542 39.835 101.452 40.7536 100.354 41.6231L100.307 41.6705C99.981 42 99.6221 42.363 99.6221 42.9105C99.6221 43.4821 100.002 43.7969 100.284 44.031L100.3 44.0444L101.243 44.7782C102.389 45.7537 103.434 46.6481 103.434 48.4651C103.434 50.9402 101.058 53.4364 96.5691 53.4364C92.7878 53.4364 90.9597 51.6202 90.9597 49.673C90.9597 48.7255 91.4276 47.3835 92.971 46.4641C94.5673 45.4799 96.7223 45.3371 97.9069 45.2585L97.9541 45.2554L97.8995 45.1846C97.5473 44.7281 97.1692 44.2381 97.1692 43.4626C97.1692 43.0636 97.2757 42.8087 97.39 42.5349L97.4182 42.4673L97.4306 42.4372L97.4123 42.4389C97.133 42.4657 96.852 42.4925 96.5962 42.4925C93.8286 42.4925 92.2643 40.4105 92.2643 38.3588C92.2643 37.1485 92.8117 35.8057 93.9361 34.8325C95.4239 33.5973 97.1978 33.3844 98.6075 33.3844H103.985L102.313 34.3358H100.692ZM98.2426 45.9899C98.5009 45.9899 98.6293 45.9899 98.8435 46.0179C100.823 47.4411 101.684 48.1492 101.684 49.4912C101.684 51.1218 100.354 52.3328 97.8483 52.3328C95.0598 52.3328 93.2573 50.9877 93.2573 49.1224C93.2573 47.2532 94.9268 46.6239 95.5044 46.411C96.5963 46.0413 98.006 45.9899 98.2426 45.9899ZM99.5935 41.018C100.197 40.4105 100.249 39.5714 100.249 39.095C100.249 37.2024 99.1303 34.2547 96.9612 34.2547C96.2846 34.2547 95.5515 34.5971 95.1355 35.1265C94.694 35.6747 94.5617 36.3859 94.5617 37.0698C94.5617 38.8322 95.5809 41.7549 97.8227 41.7549C98.4769 41.7549 99.1806 41.4344 99.5935 41.018ZM120.651 43.5382L119.403 44.7258C119.307 44.7791 119.211 44.8352 119.115 44.8912C118.923 45.0033 118.732 45.1152 118.541 45.2031C117.674 45.6 116.793 45.6998 116.01 45.6998C115.176 45.6998 113.869 45.6452 112.536 44.6728C110.684 43.3573 109.874 41.0958 109.874 39.1253C109.874 35.0453 113.168 33.0443 115.854 33.0443C116.793 33.0443 117.757 33.2814 118.541 33.7812C119.83 34.6407 120.174 35.7548 120.363 36.3648L120.369 36.3858L114.235 38.8851L112.226 39.0426C112.876 42.388 115.12 44.3336 117.6 44.3336C118.839 44.3336 119.758 43.9257 120.602 43.5054C120.602 43.5054 120.771 43.4165 120.651 43.5382ZM117.707 36.1776C117.707 36.5441 117.448 36.7016 116.95 36.8841L112.2 38.963C112.191 38.8016 112.179 38.6402 112.167 38.4799L112.167 38.4791L112.167 38.4784L112.167 38.4781C112.144 38.1698 112.121 37.8658 112.121 37.5742C112.121 34.731 114.078 33.9122 115.12 33.9122C116.528 33.9122 117.707 35.1264 117.707 36.1776ZM128.173 43.6504V50.3528H126.853V33.2976H128.173V35.2401C129.032 33.9847 130.604 32.9896 132.429 32.9896C135.702 32.9896 137.907 35.4936 137.907 39.4573C137.907 43.3946 135.702 45.9508 132.429 45.9508C130.706 45.9508 129.162 45.0548 128.173 43.6504ZM132.206 34.1913C134.944 34.1913 136.489 36.4699 136.489 39.4574C136.489 42.4495 134.944 44.7476 132.206 44.7476C130.506 44.7476 128.879 43.3509 128.173 42.1734V36.714C128.879 35.5388 130.506 34.1913 132.206 34.1913ZM139.709 28.5882H141.028V45.6433H139.709V28.5882ZM151.781 44.4861C151.83 44.8012 151.896 45.1786 151.984 45.6067H153.506C153.387 45.2082 153.298 44.7965 153.243 44.384C153.188 43.9723 153.168 43.5496 153.168 43.1121V37.0218C153.168 35.718 152.728 34.7206 151.851 34.0305C150.973 33.3333 149.808 32.984 148.369 32.984C146.926 32.984 145.753 33.3388 144.857 34.0445C143.958 34.751 143.535 35.5691 143.583 36.5017L143.611 36.568H144.962C144.962 35.8763 145.269 35.3024 145.879 34.8392C146.493 34.3853 147.301 34.1521 148.296 34.1521C149.385 34.1521 150.224 34.4071 150.823 34.9117C151.419 35.4154 151.718 36.1102 151.718 36.9938V38.5276H148.639C146.989 38.5276 145.656 38.8708 144.624 39.5609C143.593 40.2479 143.075 41.1462 143.075 42.2528C143.075 43.3609 143.433 44.2366 144.143 44.8831C144.855 45.5303 145.853 45.8492 147.139 45.8492C148.207 45.8492 148.986 45.6325 149.805 45.1903C150.624 44.7513 151.265 44.1937 151.718 43.5239C151.718 43.8506 151.741 44.1719 151.781 44.4861ZM147.301 44.6369C148.422 44.6369 149.228 44.3843 150.051 43.8844C150.869 43.3877 151.426 42.7396 151.718 41.9552V39.5845H148.624C147.443 39.5845 146.465 39.8481 145.695 40.3799C144.924 40.9102 144.534 41.552 144.534 42.2983C144.534 43.0024 144.781 43.5655 145.273 43.992C145.766 44.4232 146.441 44.6369 147.301 44.6369ZM156.909 49.4549C156.604 49.4549 156.122 49.3769 155.84 49.2498L155.613 50.478C155.943 50.5802 156.506 50.6566 156.933 50.6566C158.355 50.6566 159.39 49.9103 160.048 48.3585L166.39 33.2973H164.897L160.48 44.0851L156.019 33.2973H154.547L159.747 45.7461L158.784 47.946C158.279 49.1219 157.717 49.4549 156.909 49.4549Z" fill="white"/>
<path fill-rule="evenodd" clip-rule="evenodd" d="M93.021 10.1738C90.497 10.1738 88.7193 12.0154 88.7193 14.526C88.7193 17.0359 90.497 18.8775 93.021 18.8775C95.5301 18.8775 97.322 17.0359 97.322 14.526C97.322 12.0154 95.5301 10.1738 93.021 10.1738ZM50.0647 10.1745C47.6171 10.1745 45.6494 11.8782 45.6494 14.5268C45.6494 17.1635 47.6171 18.8908 50.0647 18.8908C51.5154 18.8908 52.7014 18.273 53.5209 17.3518V14.2108H49.5351V15.5102H52.0576V16.8096C51.6793 17.1753 50.9228 17.5661 50.0647 17.5661C48.4004 17.5661 47.1632 16.2793 47.1632 14.5268C47.1632 12.7482 48.4004 11.4874 50.0647 11.4874C50.9977 11.4874 51.7928 11.9783 52.2467 12.6095L53.4453 11.9153C52.7762 10.957 51.7045 10.1745 50.0647 10.1745ZM55.346 10.3122V18.7258H61.1104V17.4264H56.8212V15.0805H61.0221V13.781H56.8212V11.6124H61.1104V10.3122H55.346ZM65.1938 18.7258V11.6124H62.6462V10.3122H69.2174V11.6124H66.6698V18.7258H65.1938ZM75.8218 10.3122H74.3466V18.7258H75.8218V10.3122ZM79.932 18.7258V11.6124H77.3844V10.3122H83.9556V11.6124H81.408V18.7258H79.932ZM95.8083 14.5259C95.8083 12.7852 94.7106 11.4865 93.0211 11.4865C91.3174 11.4865 90.2331 12.7852 90.2331 14.5259C90.2331 16.2532 91.3174 17.5653 93.0211 17.5653C94.7106 17.5653 95.8083 16.2532 95.8083 14.5259ZM100.521 12.7093L104.911 18.7258H106.336V10.3122H104.86V16.1403L100.559 10.3122H99.0454V18.7258H100.521V12.7093Z" fill="white"/>
</g>
<defs>
<linearGradient id="paint0_linear_1269:18006" x1="14.4629" y1="25.1338" x2="14.4629" y2="52.4146" gradientUnits="userSpaceOnUse">
<stop stop-color="#1E79AF"/>
<stop offset="1" stop-color="#63FFD3"/>
</linearGradient>
<linearGradient id="paint1_linear_1269:18006" x1="23.0344" y1="35.2969" x2="12.5837" y2="49.3067" gradientUnits="userSpaceOnUse">
<stop stop-color="#DC4057"/>
<stop offset="1" stop-color="#9E36BB"/>
</linearGradient>
<linearGradient id="paint2_linear_1269:18006" x1="28.9205" y1="34.4922" x2="28.9205" y2="42.8675" gradientUnits="userSpaceOnUse">
<stop stop-color="#FF9676"/>
<stop offset="1" stop-color="#FFD074"/>
</linearGradient>
<linearGradient id="paint3_linear_1269:18006" x1="9.51079" y1="30.7297" x2="19.9293" y2="47.1033" gradientUnits="userSpaceOnUse">
<stop stop-color="#51C6AD"/>
<stop offset="1" stop-color="#D5FFA1"/>
</linearGradient>
<clipPath id="clip0_1269:18006">
<rect width="178.138" height="60.4397" fill="white" transform="translate(0.862305 0.476562)"/>
</clipPath>
<clipPath id="clip1_1269:18006">
<rect width="25.4483" height="27.3569" fill="white" transform="translate(14.1738 25.3164)"/>
</clipPath>
</defs>
</svg>
