<svg width="40" height="40" viewBox="0 0 40 40" fill="none" xmlns="http://www.w3.org/2000/svg">
<rect x="0.5" y="0.5" width="39" height="39" rx="3.5" fill="#DFF9E5"/>
<circle cx="19.5827" cy="15.278" r="4.77803" stroke="#22973F" stroke-width="1.5" stroke-linecap="round" stroke-linejoin="round"/>
<path fill-rule="evenodd" clip-rule="evenodd" d="M12 26.7035C11.9987 26.3676 12.0739 26.0358 12.2197 25.7333C12.6774 24.8179 13.968 24.3328 15.0389 24.1131C15.8113 23.9483 16.5943 23.8382 17.3822 23.7836C18.8408 23.6555 20.3079 23.6555 21.7666 23.7836C22.5544 23.8388 23.3374 23.9489 24.1099 24.1131C25.1808 24.3328 26.4714 24.7722 26.9291 25.7333C27.2224 26.3501 27.2224 27.0661 26.9291 27.6829C26.4714 28.644 25.1808 29.0834 24.1099 29.2939C23.3384 29.4655 22.5551 29.5788 21.7666 29.6326C20.5794 29.7332 19.3866 29.7516 18.1968 29.6875C17.9222 29.6875 17.6568 29.6875 17.3822 29.6326C16.5966 29.5794 15.8163 29.4662 15.0481 29.2939C13.968 29.0834 12.6865 28.644 12.2197 27.6829C12.0746 27.3768 11.9996 27.0422 12 26.7035Z" stroke="#22973F" stroke-width="1.5" stroke-linecap="round" stroke-linejoin="round"/>
<rect x="0.5" y="0.5" width="39" height="39" rx="3.5" stroke="#DFF9E5"/>
</svg>
