<svg width="24" height="24" viewBox="0 0 24 24" fill="none" xmlns="http://www.w3.org/2000/svg">
<path fill-rule="evenodd" clip-rule="evenodd" d="M8.89062 12.8466C8.90269 9.29489 11.7917 6.42547 15.3433 6.43754C18.895 6.4496 21.7644 9.33859 21.7524 12.8903V12.9631C21.7087 15.2718 20.4196 17.4057 18.8392 19.0735C17.9353 20.0121 16.926 20.843 15.8313 21.5497C15.5386 21.8029 15.1044 21.8029 14.8117 21.5497C13.1797 20.4875 11.7474 19.1464 10.5803 17.5878C9.54001 16.2286 8.94939 14.579 8.89063 12.8684L8.89062 12.8466Z" stroke="#6F87A1" stroke-width="1.50391" stroke-linecap="round" stroke-linejoin="round"/>
<circle cx="15.3218" cy="12.9312" r="2.13428" stroke="#6F87A1" stroke-width="1.55732" stroke-linecap="round" stroke-linejoin="round"/>
<path fill-rule="evenodd" clip-rule="evenodd" d="M4.86837 3.33407C2.76215 3.76679 1.40551 5.82502 1.83824 7.93124L3.50976 16.067C3.94249 18.1732 6.00071 19.5299 8.10693 19.0971L8.27884 19.0618C8.84521 18.9455 9.06758 18.2479 8.70051 17.8011C8.52277 17.5848 8.24098 17.4798 7.96674 17.5361L7.79352 17.5717C6.52979 17.8313 5.29485 17.0173 5.03522 15.7536L3.3637 7.61783C3.10406 6.3541 3.91804 5.11916 5.18178 4.85953L11.2836 3.60589C12.1335 3.43128 12.9704 3.74224 13.5063 4.34902C13.6852 4.55161 13.9324 4.70185 14.2015 4.72769C14.8096 4.78609 15.3332 4.24243 14.9942 3.73419C14.1408 2.45483 12.5694 1.75188 10.9702 2.08043L4.86837 3.33407Z" fill="#6F87A1"/>
</svg>
