<svg width="40" height="40" viewBox="0 0 40 40" fill="none" xmlns="http://www.w3.org/2000/svg">
<rect width="40" height="40" rx="8" fill="white"/>
<path opacity="0.4" d="M28.2895 19.3407H19.8115C19.4193 19.3407 19.1009 19.659 19.1009 20.0512C19.1009 20.4434 19.4193 20.7617 19.8115 20.7617H28.2895C28.6817 20.7617 29 20.4434 29 20.0512C29 19.659 28.6817 19.3407 28.2895 19.3407Z" fill="black"/>
<mask id="mask0_1676:22265" style="mask-type:alpha" maskUnits="userSpaceOnUse" x="11" y="14" width="10" height="12">
<path fill-rule="evenodd" clip-rule="evenodd" d="M20.5215 25.5V14.6036H11.582V25.5H20.5215Z" fill="white"/>
</mask>
<g mask="url(#mask0_1676:22265)">
<path d="M19.811 14.6033C19.6783 14.6033 19.5476 14.6403 19.432 14.7123L11.9137 19.4501C11.7072 19.5808 11.5812 19.8072 11.5812 20.0516C11.5812 20.2961 11.7072 20.5225 11.9137 20.6532L19.432 25.391C19.6509 25.5284 19.9275 25.5369 20.1539 25.4109C20.3813 25.2858 20.5215 25.0481 20.5215 24.7894V15.3138C20.5215 15.0552 20.3813 14.8174 20.1539 14.6924C20.0469 14.6327 19.9284 14.6033 19.811 14.6033Z" fill="black"/>
</g>
</svg>
