<svg width="243" height="172" viewBox="0 0 243 172" fill="none" xmlns="http://www.w3.org/2000/svg">
<path d="M138.661 147.838C119.507 148.828 42.5311 152.431 17.5621 135.444C-7.40701 118.456 25.7486 82.6451 43.0757 70.1138C60.4027 57.5825 89.0228 36.3475 109.832 33.2051C130.642 30.0628 165.835 36.4289 188.686 48.8926C211.537 61.3562 224.933 84.4658 224.246 99.9409C223.559 115.416 200.304 138.75 178.267 143.314C165.259 146.045 151.994 147.56 138.661 147.838Z" fill="#EBF1FF"/>
<path d="M133.922 149.497L133.914 149.496C124.034 148.154 99.2646 144.699 74.12 139.016C61.5475 136.175 48.8872 132.777 37.9506 128.811C27.0066 124.843 17.8184 120.314 12.1655 115.223C6.53296 110.151 4.79114 104.703 5.60918 99.2511C6.43076 93.7761 9.84093 88.2545 14.6076 83.0784C24.1387 72.7287 38.9865 63.875 48.8494 59.6842C49.6467 59.3454 50.4651 58.9969 51.3029 58.6401C60.8571 54.5716 72.9384 49.427 85.2332 45.2747C98.6128 40.7559 112.21 37.425 123.057 37.9193C133.921 38.4143 148.086 41.7914 162.209 47.0365C176.33 52.2809 190.386 59.3844 201.034 67.3171C211.673 75.2424 219.466 85.192 224.197 94.9336C228.931 104.682 230.584 114.192 228.99 121.245C228.199 124.746 225.905 128.463 222.518 132.078C219.134 135.691 214.675 139.184 209.585 142.24C199.401 148.353 186.727 152.693 175.142 152.742L175.142 152.742C161.401 152.834 147.595 151.748 133.922 149.497Z" stroke="#135DFF" stroke-width="0.568611"/>
<circle cx="18.2489" cy="59.8641" r="4.17073" fill="#135DFF"/>
<circle cx="88.6932" cy="27.4256" r="4.17073" fill="#135DFF"/>
<circle cx="97.0282" cy="159.035" r="4.17073" fill="#135DFF"/>
<circle cx="173.027" cy="77.9373" r="4.17073" fill="#135DFF"/>
<circle cx="181.141" cy="25.8036" r="1.62195" fill="#135DFF"/>
<circle cx="56.4804" cy="47.12" r="1.62195" fill="#135DFF"/>
<circle cx="24.0438" cy="153.242" r="1.62195" fill="#135DFF"/>
<circle cx="37.9432" cy="97.1674" r="1.62195" fill="#135DFF"/>
<circle cx="204.771" cy="139.339" r="1.62195" fill="#135DFF"/>
<circle cx="238.37" cy="130.304" r="4.17073" fill="#135DFF"/>
<path d="M82.8314 47.2885C104.973 22.2712 144.098 22.5314 165.905 47.8411L205.503 93.7999C210.149 99.1924 212.705 106.074 212.705 113.192C212.705 129.599 199.404 142.9 182.996 142.9H63.2456C45.7412 142.9 32.0483 127.813 33.7404 110.391C34.3555 104.058 36.992 98.0905 41.2602 93.3715L77.8617 52.9035L82.8314 47.2885Z" fill="#145DFF" fill-opacity="0.2"/>
<path d="M126.397 69.2984C126.656 73.9603 130.508 77.6098 135.178 77.6171C135.849 77.6172 136.519 77.5414 137.174 77.391C141.723 76.3399 144.662 71.9214 143.873 67.3195C143.083 62.7175 138.84 59.5313 134.2 60.0566C129.561 60.582 126.137 64.6364 126.397 69.2984Z" fill="#135DFF"/>
<path d="M120.489 118.721C117.245 118.721 114.616 116.092 114.616 112.849H126.361C126.361 116.092 123.732 118.721 120.489 118.721ZM100.629 109.913C98.6248 109.913 97 108.254 97 106.25C97 104.909 97.7578 103.662 98.9574 103.062C101.357 101.863 102.872 99.4105 102.872 96.7281V84.9566C102.717 80.8141 103.653 76.7036 105.585 73.0361C107.508 69.6347 110.796 67.2194 114.616 66.4006C114.616 62.8657 117.482 60 121.017 60H125.321C121.506 64.2644 120.869 70.5005 123.744 75.4482C126.619 80.3959 132.352 82.9305 137.946 81.7269C138.049 82.7751 138.099 83.8614 138.099 84.9566V96.7281C138.099 99.4105 139.615 101.863 142.014 103.062C143.213 103.662 143.971 104.888 143.971 106.229C143.974 108.263 142.327 109.913 140.293 109.913L100.629 109.913Z" fill="#EBF1FF"/>
</svg>
