<svg width="156" height="238" viewBox="0 0 156 238" fill="none" xmlns="http://www.w3.org/2000/svg">
<rect opacity="0.15" x="65" width="80" height="80" rx="40" fill="#145DFF"/>
<path fill-rule="evenodd" clip-rule="evenodd" d="M53.6929 186.346L44.2266 212.39C44.2266 212.39 44.7908 223.813 52.2905 219.125L71.1949 195.446L53.6929 186.346Z" fill="#AB6565"/>
<path fill-rule="evenodd" clip-rule="evenodd" d="M92.1406 182.677L108.309 207.529C108.309 207.529 117.774 213.883 117.781 203.821L109.064 175.812L92.1406 182.677Z" fill="#AB6565"/>
<path fill-rule="evenodd" clip-rule="evenodd" d="M66.0538 158.594L47.1211 195.812L68.7797 206.265L86.275 168.596C86.275 168.596 85.0617 162.817 84.054 158.596C83.6437 156.876 83.3212 154.501 81.6258 153.264C77.8134 150.48 69.6163 155.415 66.0538 158.594Z" fill="#FFC9D4"/>
<path fill-rule="evenodd" clip-rule="evenodd" d="M66.0538 158.594L47.1211 195.812L68.7797 206.265L86.275 168.596C86.275 168.596 85.0617 162.817 84.054 158.596C83.6437 156.876 83.3212 154.501 81.6258 153.264C77.8134 150.48 69.6163 155.415 66.0538 158.594Z" fill="#9F174F" fill-opacity="0.65"/>
<path fill-rule="evenodd" clip-rule="evenodd" d="M63.7898 114.412L63.7906 119.193C87.4238 113.601 96.4629 131.707 97.4627 133.9L97.5576 134.115L114.581 175.811L89.041 184.026L89.0141 183.932C88.581 182.234 83.5176 158.852 83.5176 158.852C82.8307 152.338 78.9154 152.62 78.9154 152.62C52.2177 167.013 35.3072 167.013 30.4351 166.894C25.5629 166.775 20.1067 161.92 18.1777 158.75C11.9516 148.521 14.1841 126.423 14.6929 122.106L14.7846 121.366V114.412H63.7898Z" fill="#C41E62"/>
<path fill-rule="evenodd" clip-rule="evenodd" d="M110.904 166.812L111.588 168.486C110.276 169.671 108.986 170.869 107.711 172.059L104.278 175.266C102.099 177.292 99.8699 179.327 97.5667 181.284L93.1467 182.704L93.387 182.512C97.2363 179.482 100.877 176.119 104.402 172.825L105.281 172.003C107.119 170.284 108.989 168.534 110.904 166.812ZM108.004 159.706L108.685 161.378C106.618 163.212 104.468 164.976 102.316 166.707L98.4804 169.777C94.8184 172.716 91.1351 175.752 87.9071 179.013L87.4748 177.046C90.8237 173.766 94.5702 170.728 98.2567 167.779L99.1056 167.1C102.1 164.708 105.144 162.275 108.004 159.706ZM74.6088 145.991L76.4389 144.878C81.7585 141.666 83.6263 140.993 84.5684 141.86C84.7621 142.04 84.9952 142.364 84.9992 142.894C85.019 145.265 79.509 150.947 79.4523 151C78.3532 152.047 77.234 153.08 76.1016 154.102C74.101 155.132 72.16 156.079 70.2784 156.951C73.0015 154.614 75.6999 152.224 78.2796 149.768C79.5924 148.518 82.7371 144.7 83.2334 143.254C81.9198 143.571 78.6328 145.531 76.9757 146.54L75.5873 147.386C75.2325 147.599 74.9994 147.733 74.8403 147.809L74.79 147.832C69.6973 150.083 64.8034 152.757 60.0552 155.42L55.385 158.045C52.0461 159.916 48.6252 161.793 45.1176 163.521L43.7982 164.162L42.3029 164.876C41.1392 165.428 39.8931 166.002 38.6229 166.516C35.0683 166.918 32.4631 166.933 30.8615 166.903C31.1801 166.851 31.5317 166.777 31.8406 166.709L32.7683 166.498C32.9064 166.466 33.0368 166.439 33.1567 166.414L33.3283 166.382C35.9297 165.917 38.8836 164.613 41.4529 163.397L43.0635 162.629C47.4298 160.539 51.6803 158.179 55.8057 155.86L59.235 153.931C63.6468 151.456 68.187 148.971 72.9164 146.81L74.1027 146.277C74.1785 146.243 74.3652 146.136 74.6088 145.991ZM42.9507 145.183L44.5466 144.261L45.6585 143.587C47.7283 142.352 49.7933 141.342 51.2022 141.987C51.5097 142.127 51.7323 142.385 51.8285 142.706L51.8703 142.89C51.9542 143.37 51.9386 144.662 46.9961 149.837L46.768 150.075C45.4699 151.448 43.8653 152.873 42.1423 154.365L39.8781 156.323C36.1293 159.582 32.2537 163.148 30.6448 166.647L30.534 166.896L30.4323 166.894C29.8891 166.881 29.3385 166.809 28.7864 166.687C30.3773 162.491 34.8745 158.407 39.1111 154.738L41.2925 152.852C42.7473 151.588 44.101 150.382 45.2002 149.254L45.9658 148.453C48.1899 146.099 49.5661 144.336 50.0192 143.484C49.2825 143.566 47.9891 144.165 46.1587 145.271L45.2991 145.791L43.8018 146.656L40.6719 148.478C37.3972 150.378 34.0328 152.272 30.5712 153.816L29.7037 154.194C29.6271 154.227 29.5326 154.271 29.4236 154.324L28.4284 154.807C26.7678 155.599 25.2374 156.178 24.2386 155.72C23.9865 155.606 23.7738 155.333 23.7223 155.062C23.5977 154.431 23.9396 154.006 26.3325 151.515L27.4838 150.313C28.8122 148.914 30.491 147.082 30.9519 146.194C30.0315 146.047 28.5468 146.442 27.0459 146.918L24.8778 147.629C22.0245 148.554 19.2073 149.288 17.5608 147.77C17.1055 147.35 17.0253 146.76 17.0012 146.236L16.9924 145.98C16.9672 145.109 16.8884 145.042 16.6665 144.975C15.8608 144.731 15.0511 144.49 14.2439 144.257C14.187 143.655 14.1378 143.051 14.0957 142.447C15.1169 142.735 16.1421 143.038 17.1605 143.347C18.4662 143.744 18.6434 144.888 18.6819 145.66L18.6975 146.109C18.7049 146.297 18.7186 146.499 18.7529 146.57C19.6807 147.414 22.0655 146.754 24.3798 146.003L26.3521 145.355C28.5836 144.636 30.6346 144.112 32.0572 144.763C32.4214 144.93 32.6736 145.25 32.7462 145.638C32.9962 146.88 31.3918 148.704 27.9646 152.272L26.9084 153.372C26.7707 153.516 26.6352 153.66 26.5052 153.799L26.8953 153.635C27.3055 153.458 27.7755 153.239 28.3052 152.979L28.7188 152.775C28.8007 152.736 28.8756 152.701 28.9422 152.671L29.0359 152.629C33.286 150.818 37.4343 148.4 41.4447 146.061L42.9507 145.183ZM103.675 149.109L104.335 150.726L104.089 150.892C101.757 152.415 99.3878 153.992 96.9889 155.595L95.5464 156.559C91.9311 158.976 88.2755 161.42 84.5882 163.801L84.2025 162.024C86.9997 160.212 89.7796 158.366 92.5373 156.524L97.4853 153.219C98.9199 152.262 100.343 151.317 101.754 150.389L103.16 149.468C103.299 149.377 103.473 149.256 103.675 149.109Z" fill="#DCA75E"/>
<path fill-rule="evenodd" clip-rule="evenodd" d="M22.4548 121.383L22.413 121.381C22.352 121.383 22.2683 121.408 22.1403 121.452L21.9525 121.519C21.9358 121.555 21.9235 121.58 21.9144 121.6L21.8913 121.656L21.8834 121.716L21.8788 121.794L21.877 122.062L21.9119 124.253L22.2347 137.699L22.2438 138.44C22.2683 140.323 22.4641 142.249 22.8264 143.642C24.2123 148.978 27.6973 152.047 32.6232 152.078L32.8792 152.077C33.6512 152.066 34.4577 151.981 35.2962 151.819C37.5913 151.378 38.7165 151.126 42.3411 149.953L44.7756 149.153L52.911 146.421C53.9601 146.07 54.9122 145.755 55.8112 145.464L57.1256 145.044L58.268 144.687C65.3275 142.505 70.9507 141.316 75.4336 141.275L75.7596 141.274C78.5673 141.284 80.9191 141.757 82.8912 142.733C87.6107 145.068 91.8291 151.313 95.646 160.457C97.0956 163.931 98.3863 167.566 99.7063 171.71L100.217 173.351L96.502 175.062C95.2927 175.623 94.1442 176.159 93.1246 176.638L91.3217 177.491L90.4989 177.885L89.5535 178.347L89.2137 178.518L88.975 178.646L88.8675 178.708L88.8287 178.734L88.7608 178.789C88.7434 178.806 88.7331 178.819 88.7102 178.863L88.6628 178.956C88.6801 179.265 88.6833 179.317 88.8343 179.401L88.9433 179.459L89.0137 179.47C89.107 179.477 89.1979 179.45 89.2714 179.398L89.3172 179.358L89.4935 179.264L90.0404 178.988C90.14 178.939 90.2483 178.885 90.3661 178.828L91.8908 178.095L93.9055 177.145L96.8348 175.779L100.452 174.109L101.54 177.575L101.825 178.451L101.925 178.742C101.984 178.901 102.135 178.999 102.296 178.999L102.364 178.992L102.433 178.974C102.638 178.898 102.742 178.67 102.666 178.465L102.575 178.203L102.311 177.39L101.177 173.778C106.262 171.453 110.38 169.63 110.543 169.63L110.614 169.624C110.798 169.591 110.938 169.429 110.938 169.235C110.938 169.017 110.761 168.84 110.543 168.84C110.268 168.84 107.881 169.867 104.038 171.606L100.941 173.018L100.818 172.622L100.194 170.644C98.9594 166.819 97.7374 163.418 96.3755 160.153C92.4899 150.843 88.1846 144.47 83.2421 142.024C77.9937 139.427 70.3901 140.204 59.0593 143.619L58.0346 143.931C56.9546 144.265 55.8569 144.616 54.648 145.012L53.5824 145.364L44.4974 148.412C40.5287 149.73 38.8391 150.242 37.2285 150.613L36.4196 150.79L35.1468 151.043C34.4195 151.183 33.7192 151.262 33.0476 151.283L32.7971 151.288C28.1457 151.328 24.9041 148.497 23.5913 143.443C23.2229 142.026 23.0316 139.984 23.0316 138.038L22.8121 129.064L22.6801 123.075L22.6674 122.061L22.6693 121.805L22.6739 121.781C22.6806 121.714 22.6698 121.644 22.6393 121.577C22.5686 121.458 22.5312 121.396 22.4548 121.383ZM71.1482 200.089C70.2709 199.902 51.0776 191.086 50.8283 190.609C50.7272 190.415 50.4884 190.34 50.2949 190.442C50.1015 190.543 50.0266 190.781 50.1277 190.975C50.5348 191.754 70.4183 200.883 71.1701 200.883C71.3883 200.883 71.5653 200.706 71.5653 200.488C71.5653 200.269 71.3883 200.092 71.1701 200.092L71.1482 200.089Z" fill="black"/>
<path fill-rule="evenodd" clip-rule="evenodd" d="M60.1434 209.151L58.8276 210.898L58.2314 211.693L57.8607 212.186L57.2584 212.981L52.899 218.772C52.899 218.772 49.7935 221.689 46.4945 220.297C43.1956 218.899 43.0133 213.528 44.4665 211.488L45.748 207.809L46.0685 206.886L46.268 206.317L46.5884 205.4L47.3837 203.117L60.1434 209.151Z" fill="#F3F3F3"/>
<path fill-rule="evenodd" clip-rule="evenodd" d="M57.8607 212.184L57.2583 212.98L45.748 207.808L46.0686 206.885L57.8607 212.184Z" fill="#263CD9"/>
<path fill-rule="evenodd" clip-rule="evenodd" d="M58.8293 210.898L58.233 211.694L46.2695 206.317L46.59 205.4L58.8293 210.898Z" fill="#263CD9"/>
<path fill-rule="evenodd" clip-rule="evenodd" d="M114.379 191.754L115.059 193.832L115.371 194.776L115.562 195.361L115.871 196.311L118.13 203.198C118.13 203.198 118.748 207.414 115.719 209.325C112.686 211.232 107.938 208.454 107.096 206.096L105.046 202.797L104.473 202.006L104.12 201.517L103.55 200.73L102.23 198.683L114.379 191.754Z" fill="#F3F3F3"/>
<path fill-rule="evenodd" clip-rule="evenodd" d="M116.235 196.941L116.581 197.891L105.606 203.82L104.963 203.029L116.235 196.941Z" fill="#263CD9"/>
<path fill-rule="evenodd" clip-rule="evenodd" d="M115.67 195.412L116.019 196.357L104.566 202.541L103.928 201.753L115.67 195.412Z" fill="#263CD9"/>
<path fill-rule="evenodd" clip-rule="evenodd" d="M63.27 235.592C63.27 235.592 65.1887 233.357 62.9984 228.139C60.8081 222.92 54.0436 219.211 56.8366 214.269C56.8366 214.269 53.613 212.851 52.0367 215.623C50.4606 218.395 50.1582 211.931 48.5808 211.572C47.0039 211.212 44.025 211.927 44.025 211.927L38.3867 223.509C38.3867 223.509 54.6628 231.413 62.8009 235.365C62.9573 235.441 63.27 235.592 63.27 235.592Z" fill="#F76954"/>
<path fill-rule="evenodd" clip-rule="evenodd" d="M57.5584 230.295C57.5929 230.309 57.6313 230.312 57.6692 230.303L63.3829 228.933C63.4804 228.909 63.5409 228.811 63.5175 228.713C63.4942 228.615 63.3957 228.555 63.2987 228.579L57.9369 229.864L59.9724 225.11C59.9992 225.047 59.9883 224.974 59.9451 224.922C59.902 224.869 59.8329 224.846 59.7662 224.861L55.4229 225.819L57.5209 222.668C57.5535 222.617 57.5604 222.554 57.5381 222.5C57.517 222.444 57.468 222.403 57.4104 222.39L52.4098 221.235L56.2497 217.846C56.3254 217.779 56.3327 217.665 56.2664 217.589C56.1996 217.513 56.0846 217.507 56.0093 217.573L51.9033 221.197C51.8522 221.241 51.8306 221.312 51.8474 221.378C51.864 221.444 51.9161 221.494 51.9822 221.511L57.0717 222.685L54.8694 225.994C54.8287 226.057 54.8285 226.137 54.8707 226.198C54.9127 226.259 54.9873 226.289 55.06 226.273L59.4981 225.292L57.459 230.054C57.4324 230.118 57.4432 230.19 57.4875 230.243C57.5067 230.266 57.5316 230.284 57.5584 230.295Z" fill="white"/>
<path fill-rule="evenodd" clip-rule="evenodd" d="M45.6486 220.215C47.1545 220.402 48.5234 219.335 48.7061 217.83C48.8888 216.327 47.816 214.957 46.3101 214.769C44.8043 214.583 43.4353 215.651 43.2527 217.154C43.07 218.658 44.1428 220.029 45.6486 220.215Z" fill="#F8B0BE"/>
<path fill-rule="evenodd" clip-rule="evenodd" d="M38.388 223.51L37.1582 225.902L62.1481 237.999L63.2713 235.593L38.388 223.51Z" fill="#F8B0BE"/>
<path fill-rule="evenodd" clip-rule="evenodd" d="M136.841 209.995C136.841 209.995 136.668 207.054 131.468 204.821C126.267 202.589 118.825 204.62 117.401 199.125C117.401 199.125 114.097 200.345 114.889 203.434C115.681 206.522 110.973 202.083 109.588 202.92C108.204 203.756 106.559 206.341 106.559 206.341L110.548 218.588C110.548 218.588 127.746 212.967 136.346 210.157C136.511 210.103 136.841 209.995 136.841 209.995Z" fill="#F76954"/>
<path fill-rule="evenodd" clip-rule="evenodd" d="M129.051 210.153C129.085 210.139 129.115 210.115 129.136 210.082L132.294 205.127C132.348 205.042 132.323 204.93 132.239 204.876C132.153 204.821 132.041 204.846 131.988 204.931L129.024 209.581L127.186 204.747C127.161 204.683 127.103 204.638 127.035 204.631C126.968 204.623 126.902 204.654 126.864 204.71L124.406 208.417L123.726 204.693C123.714 204.634 123.675 204.584 123.621 204.56C123.567 204.534 123.504 204.539 123.453 204.57L119.054 207.213L119.462 202.108C119.47 202.007 119.395 201.919 119.295 201.911C119.195 201.903 119.107 201.978 119.099 202.078L118.663 207.537C118.657 207.605 118.69 207.67 118.749 207.706C118.807 207.742 118.878 207.742 118.938 207.708L123.415 205.017L124.129 208.927C124.143 209.001 124.199 209.058 124.271 209.073C124.344 209.088 124.418 209.058 124.46 208.995L126.971 205.208L128.812 210.05C128.838 210.114 128.895 210.158 128.964 210.166C128.994 210.168 129.024 210.164 129.051 210.153Z" fill="white"/>
<path fill-rule="evenodd" clip-rule="evenodd" d="M113.483 211.176C114.696 210.264 114.939 208.545 114.026 207.337C113.112 206.128 111.389 205.887 110.176 206.799C108.963 207.711 108.72 209.43 109.633 210.638C110.546 211.847 112.27 212.087 113.483 211.176Z" fill="#F8B0BE"/>
<path fill-rule="evenodd" clip-rule="evenodd" d="M110.549 218.587L111.325 221.162L137.705 212.504L136.842 209.994L110.549 218.587Z" fill="#F8B0BE"/>
<path fill-rule="evenodd" clip-rule="evenodd" d="M96.2768 52.1691C96.2768 52.1691 108.47 42.039 108.394 40.5859C108.318 39.1327 107.256 38.8952 107.256 38.8952C107.256 38.8952 108.479 37.8709 108.393 36.2334C108.308 34.5959 106.999 33.9982 106.999 33.9982C106.999 33.9982 108.198 30.6211 106.003 30.4355C106.003 30.4355 92.2292 37.745 91.928 43.8706C91.6277 49.9963 96.2768 52.1691 96.2768 52.1691Z" fill="#AB6565"/>
<path fill-rule="evenodd" clip-rule="evenodd" d="M95.6816 27.564C95.6816 27.1741 95.8358 26.8001 96.1116 26.5244C96.3875 26.2486 96.7613 26.0938 97.151 26.0938H108.595C109.405 26.0938 110.063 26.7518 110.063 27.5635V49.6513C110.063 50.4702 109.4 51.1338 108.582 51.1338H97.1613C96.7692 51.1338 96.3922 50.9777 96.1148 50.6999C95.8374 50.4224 95.6816 50.0455 95.6816 49.6528V27.564Z" fill="black"/>
<path fill-rule="evenodd" clip-rule="evenodd" d="M96.4902 29.3583C96.4902 28.9941 96.638 28.6446 96.902 28.3868C97.166 28.1291 97.5241 27.9844 97.898 27.9844H107.846C108.219 27.9844 108.576 28.1289 108.841 28.3868C109.105 28.6442 109.253 28.9937 109.253 29.3581V48.6388C109.253 49.0063 109.104 49.3586 108.837 49.6185C108.571 49.8786 108.21 50.0244 107.833 50.0244H97.9082C97.1249 50.0244 96.4902 49.4045 96.4902 48.6402V29.3583Z" fill="#F3F3F3"/>
<path d="M102.873 27.6403C102.569 27.6403 102.323 27.3938 102.323 27.0897C102.323 26.7856 102.569 26.5391 102.873 26.5391C103.177 26.5391 103.424 26.7856 103.424 27.0897C103.424 27.3938 103.177 27.6403 102.873 27.6403Z" fill="white"/>
<path fill-rule="evenodd" clip-rule="evenodd" d="M89.3736 68.1596C89.3736 68.1596 92.182 61.2849 96.1569 53.8688C97.0129 52.271 97.0042 50.9617 97.0042 50.9617C97.0042 50.9617 94.2789 48.3234 93.0751 44.4517C91.8713 40.5801 96.6438 38.0645 97.3409 35.5488C97.3409 35.5488 97.1955 33.152 90.9718 37.0767C90.9718 37.0767 83.0899 41.7942 81.3629 49.2933L77.3516 60.0746L89.3736 68.1596Z" fill="#AB6565"/>
<path fill-rule="evenodd" clip-rule="evenodd" d="M10.4764 155.438L13.3668 154.426C13.3668 154.426 14.7652 166.117 11.5489 168.022L11.4139 167.667L11.0328 171.822C5.09532 170.601 1.85742 155.092 1.85742 155.092L10.4764 155.438Z" fill="#AB6565"/>
<path fill-rule="evenodd" clip-rule="evenodd" d="M64.3856 114.762V107.847L67.5235 110.611C67.5235 110.611 76.6883 119.487 82.64 105.871L87.2489 87.8379L89.0455 80.8128L92.6932 66.5587L74.1724 54.5496L67.5235 71.5032C67.5235 71.5032 65.1333 53.8319 44.604 54.5496V47.6035H21.5537V54.5496C21.5537 54.5496 15.6197 53.4402 9.97331 59.4612C-2.66609 72.9389 1.73324 155.279 1.73324 155.279L14.3892 156.677V114.762H64.3856Z" fill="#2B44FF"/>
<path fill-rule="evenodd" clip-rule="evenodd" d="M34.033 64.8614C33.1803 64.8694 32.6496 65.2955 32.6066 66.1806C32.5311 67.7311 33.8553 69.4869 35.0845 69.478C36.0281 69.4707 36.4492 68.9044 36.5514 68.1514C36.5839 66.6536 35.1656 64.8516 34.033 64.8614Z" fill="white"/>
<path fill-rule="evenodd" clip-rule="evenodd" d="M73.0735 66.3262C72.2215 66.3344 71.6903 66.7603 71.6476 67.6455C71.5718 69.196 72.8965 70.9517 74.1256 70.9428C75.0693 70.9355 75.4898 70.3692 75.5926 69.6163C75.625 68.1185 74.2062 66.3165 73.0735 66.3262Z" fill="white"/>
<path fill-rule="evenodd" clip-rule="evenodd" d="M70.3848 104.188C69.532 104.196 69.0016 104.621 68.9581 105.507C68.883 107.058 70.207 108.813 71.4361 108.804C72.3798 108.797 72.8011 108.23 72.9031 107.478C72.9355 105.98 71.5175 104.178 70.3848 104.188Z" fill="white"/>
<path fill-rule="evenodd" clip-rule="evenodd" d="M70.3848 90.1036C69.532 90.1117 69.0016 90.5377 68.9581 91.4228C68.883 92.9738 70.207 94.7293 71.4361 94.7206C72.3798 94.7127 72.8011 94.1467 72.9031 93.3935C72.9355 91.8959 71.5175 90.0938 70.3848 90.1036Z" fill="white"/>
<path fill-rule="evenodd" clip-rule="evenodd" d="M43.531 100.063C42.6782 100.07 42.1476 100.496 42.1046 101.382C42.0292 102.932 43.3533 104.688 44.5825 104.679C45.5262 104.671 45.9472 104.105 46.0495 103.352C46.0819 101.854 44.6637 100.052 43.531 100.063Z" fill="white"/>
<path fill-rule="evenodd" clip-rule="evenodd" d="M25.6052 94.0039C24.7525 94.0126 24.2219 94.4387 24.1789 95.3239C24.1034 96.8739 25.4276 98.6302 26.6568 98.6207C27.6004 98.6136 28.0215 98.0477 28.1237 97.2944C28.1562 95.7966 26.7379 93.9945 25.6052 94.0039Z" fill="white"/>
<path fill-rule="evenodd" clip-rule="evenodd" d="M8.87867 130.77C8.0259 130.777 7.4953 131.204 7.4523 132.089C7.37682 133.639 8.70099 135.395 9.93023 135.386C10.8738 135.378 11.2949 134.813 11.3971 134.059C11.4296 132.561 10.0113 130.759 8.87867 130.77Z" fill="white"/>
<path fill-rule="evenodd" clip-rule="evenodd" d="M81.3751 60.2442C80.5222 60.2522 79.9918 60.6783 79.9484 61.5634C79.8733 63.1139 81.1972 64.8697 82.4263 64.8608C83.37 64.8535 83.7913 64.2872 83.8933 63.5342C83.9257 62.0364 82.5077 60.2344 81.3751 60.2442Z" fill="white"/>
<path fill-rule="evenodd" clip-rule="evenodd" d="M62.4415 76.9493C61.5886 76.9574 61.0582 77.3834 61.0148 78.2685C60.9397 79.8191 62.2636 81.5749 63.4927 81.5659C64.4364 81.5586 64.8577 80.9923 64.9597 80.2393C64.9921 78.7416 63.5741 76.9395 62.4415 76.9493Z" fill="white"/>
<path fill-rule="evenodd" clip-rule="evenodd" d="M81.2696 94.0039C80.4167 94.0126 79.8864 94.4387 79.8429 95.3239C79.7678 96.8739 81.0917 98.6302 82.3208 98.6207C83.2646 98.6136 83.6859 98.0477 83.7878 97.2944C83.8202 95.7966 82.4022 93.9945 81.2696 94.0039Z" fill="white"/>
<path fill-rule="evenodd" clip-rule="evenodd" d="M54.512 108.243C54.6907 109.467 56.6422 110.992 57.8823 110.936C58.6775 110.9 59.0758 110.475 59.0363 109.701C58.9684 108.356 56.8738 106.553 55.3696 106.676C54.5863 106.787 54.3951 107.447 54.512 108.243Z" fill="white"/>
<path fill-rule="evenodd" clip-rule="evenodd" d="M34.3049 89.8919C34.4842 91.1154 36.4356 92.641 37.6753 92.5849C38.4705 92.5485 38.8688 92.124 38.8298 91.3492C38.7617 90.0039 36.6668 88.2011 35.1625 88.3244C34.3795 88.4347 34.1881 89.0952 34.3049 89.8919Z" fill="white"/>
<path fill-rule="evenodd" clip-rule="evenodd" d="M9.45337 66.4349C9.63271 67.6584 11.584 69.1838 12.8237 69.1278C13.6189 69.0913 14.0173 68.667 13.9784 67.8921C13.9102 66.5469 11.8153 64.744 10.311 64.8673C9.52798 64.9777 9.33654 65.6381 9.45337 66.4349Z" fill="white"/>
<path fill-rule="evenodd" clip-rule="evenodd" d="M97.2519 45.7142C97.4314 46.9377 99.3829 48.4631 100.623 48.4071C101.418 48.3706 101.817 47.9463 101.777 47.1714C101.709 45.8262 99.6145 44.0233 98.1095 44.1466C97.327 44.257 97.1357 44.9174 97.2519 45.7142Z" fill="white"/>
<path fill-rule="evenodd" clip-rule="evenodd" d="M20.1819 68.5678C20.3612 69.7913 22.3125 71.3166 23.5523 71.2607C24.3474 71.2242 24.7458 70.7998 24.7069 70.0249C24.6387 68.6797 22.5438 66.8768 21.0395 67.0001C20.2565 67.1106 20.0651 67.7709 20.1819 68.5678Z" fill="white"/>
<path fill-rule="evenodd" clip-rule="evenodd" d="M19.6468 106.11C19.826 107.334 21.7774 108.86 23.0171 108.803C23.8123 108.767 24.2106 108.343 24.1717 107.568C24.1035 106.223 22.0086 104.42 20.5043 104.543C19.7214 104.654 19.5299 105.314 19.6468 106.11Z" fill="white"/>
<path fill-rule="evenodd" clip-rule="evenodd" d="M3.04126 147.193C3.22052 148.416 5.17188 149.942 6.41163 149.885C7.20678 149.849 7.60514 149.425 7.56618 148.65C7.49804 147.305 5.40315 145.502 3.89885 145.625C3.11587 145.735 2.92444 146.396 3.04126 147.193Z" fill="white"/>
<path fill-rule="evenodd" clip-rule="evenodd" d="M7.16495 79.9717C7.40104 79.2568 6.33408 78.2929 5.43752 78.323C4.66268 78.3497 3.95432 78.5923 3.92436 79.5448C3.89836 80.3586 4.8225 81.1424 6.1824 81.1741C6.40545 80.916 6.9864 80.5104 7.16495 79.9717Z" fill="white"/>
<path fill-rule="evenodd" clip-rule="evenodd" d="M11.7327 87.0149C11.912 88.2385 13.8633 89.7638 15.103 89.7079C15.8982 89.6713 16.2966 89.247 16.2577 88.4721C16.1895 87.1269 14.0946 85.324 12.5903 85.4474C11.8073 85.5578 11.6158 86.2182 11.7327 87.0149Z" fill="white"/>
<path fill-rule="evenodd" clip-rule="evenodd" d="M0.761961 114.028C0.941225 115.252 2.89258 116.777 4.13233 116.721C4.92748 116.685 5.32585 116.261 5.28688 115.486C5.21875 114.141 3.12385 112.338 1.61955 112.461C0.836575 112.572 0.645139 113.232 0.761961 114.028Z" fill="white"/>
<path fill-rule="evenodd" clip-rule="evenodd" d="M8.19165 103.818C8.37091 105.042 10.3223 106.567 11.562 106.511C12.3572 106.474 12.7555 106.05 12.7166 105.275C12.6484 103.93 10.5535 102.127 9.04924 102.25C8.26626 102.361 8.07483 103.022 8.19165 103.818Z" fill="white"/>
<path fill-rule="evenodd" clip-rule="evenodd" d="M55.6449 93.669C55.8235 94.8926 57.775 96.418 59.0151 96.3619C59.8103 96.3256 60.2087 95.9011 60.1691 95.1265C60.1012 93.7812 58.0066 91.9784 56.5024 92.1017C55.7192 92.212 55.5279 92.8723 55.6449 93.669Z" fill="white"/>
<path fill-rule="evenodd" clip-rule="evenodd" d="M34.1213 109.76C34.3007 110.983 36.2519 112.508 37.4918 112.453C38.2869 112.415 38.6853 111.991 38.6463 111.216C38.5782 109.871 36.4832 108.068 34.9789 108.192C34.196 108.302 34.0045 108.962 34.1213 109.76Z" fill="white"/>
<path fill-rule="evenodd" clip-rule="evenodd" d="M45.053 80.8294C45.2323 82.0529 47.1836 83.5783 48.4234 83.5223C49.2185 83.4858 49.617 83.0615 49.5783 82.2867C49.5098 80.9414 47.4149 79.1386 45.9106 79.2619C45.1277 79.3722 44.9361 80.0327 45.053 80.8294Z" fill="white"/>
<path fill-rule="evenodd" clip-rule="evenodd" d="M76.0413 82.7474C76.2207 83.971 78.1722 85.4963 79.4116 85.4404C80.2067 85.4038 80.6051 84.9795 80.5664 84.2046C80.4984 82.8594 78.403 81.0565 76.8989 81.1798C76.1164 81.2902 75.9243 81.9506 76.0413 82.7474Z" fill="white"/>
<path fill-rule="evenodd" clip-rule="evenodd" d="M49.1916 66.7825C49.371 68.0061 51.3223 69.5315 52.5624 69.4754C53.3576 69.4389 53.7559 69.0146 53.7164 68.2397C53.6484 66.8945 51.5539 65.0917 50.0489 65.215C49.2663 65.3253 49.0748 65.9858 49.1916 66.7825Z" fill="white"/>
<path fill-rule="evenodd" clip-rule="evenodd" d="M24.2073 80.6126C24.3866 81.8361 26.3379 83.3616 27.5777 83.3055C28.3728 83.269 28.7712 82.8447 28.7322 82.0699C28.6641 80.7246 26.5691 78.9218 25.0649 79.0451C24.2819 79.1554 24.0904 79.8159 24.2073 80.6126Z" fill="white"/>
<path fill-rule="evenodd" clip-rule="evenodd" d="M90.794 72.9373L71.7539 60.6978L71.9974 60.0723L90.9718 72.2657L90.794 72.9373Z" fill="black"/>
<path fill-rule="evenodd" clip-rule="evenodd" d="M14.795 114.164L17.3462 90.1825C17.3654 90.0022 17.2343 89.8395 17.054 89.8204C16.8775 89.8001 16.7109 89.9317 16.6918 90.1127L14.1405 114.095C14.1215 114.276 14.2524 114.438 14.4329 114.457C14.4447 114.458 14.4566 114.459 14.4685 114.459C14.6344 114.459 14.7772 114.333 14.795 114.164Z" fill="black"/>
<path d="M64.6686 107.691C64.8623 107.691 65.0235 107.831 65.0575 108.015L65.0638 108.087V114.385C65.0638 114.604 64.8868 114.781 64.6686 114.781C64.4742 114.781 64.313 114.641 64.2798 114.456L64.2734 114.385V108.087C64.2734 107.868 64.4497 107.691 64.6686 107.691Z" fill="black"/>
<path fill-rule="evenodd" clip-rule="evenodd" d="M42.2556 55.5243C42.4389 55.5243 42.5875 55.4221 42.5875 55.2962V51.8003C42.5875 51.6744 42.4389 51.5723 42.2556 51.5723C42.0725 51.5723 41.9238 51.6744 41.9238 51.8003V55.2962C41.9238 55.4221 42.0725 55.5243 42.2556 55.5243Z" fill="black"/>
<path fill-rule="evenodd" clip-rule="evenodd" d="M37.9959 55.5243C38.179 55.5243 38.3277 55.4221 38.3277 55.2962V51.8003C38.3277 51.6744 38.179 51.5723 37.9959 51.5723C37.8127 51.5723 37.6641 51.6744 37.6641 51.8003V55.2962C37.6641 55.4221 37.8127 55.5243 37.9959 55.5243Z" fill="black"/>
<path fill-rule="evenodd" clip-rule="evenodd" d="M33.7322 55.5243C33.9153 55.5243 34.064 55.4221 34.064 55.2963V51.8003C34.064 51.6744 33.9153 51.5723 33.7322 51.5723C33.549 51.5723 33.4004 51.6744 33.4004 51.8003V55.2963C33.4004 55.4221 33.549 55.5243 33.7322 55.5243Z" fill="black"/>
<path fill-rule="evenodd" clip-rule="evenodd" d="M27.4297 35.328C27.4297 32.9568 30.2835 33.9716 30.2835 33.9716L30.0866 32.0964C30.1259 32.071 30.1141 31.8591 30.0947 31.5155C29.9873 29.6034 29.6504 23.6094 36.6231 22.9056C46.0326 21.9552 46.6178 29.085 46.6178 29.085C46.6178 29.085 46.9247 29.3311 46.5865 35.7628C46.3081 41.0588 45.3108 43.4259 41.8098 44.517V51.9265C41.8098 51.9265 38.3428 52.717 36.4646 52.717C34.5863 52.717 31.2577 51.9265 31.2577 51.9265L31.1223 38.4896C31.0922 38.4067 31.0773 38.3617 31.0773 38.3617C29.2136 38.8672 27.4297 37.6992 27.4297 35.328Z" fill="#AB6565"/>
<path fill-rule="evenodd" clip-rule="evenodd" d="M28.7252 36.7777C28.4378 36.395 28.3553 35.9241 28.4924 35.4522C28.563 35.2075 28.8186 35.0661 29.0643 35.1378C29.3085 35.2089 29.4494 35.465 29.3782 35.7097C29.3085 35.9487 29.3858 36.1209 29.4631 36.2238C29.6016 36.4083 29.8416 36.5188 30.1053 36.5188C30.3599 36.5188 30.5667 36.7251 30.5667 36.9797C30.5667 37.2344 30.3599 37.4412 30.1053 37.4412C29.5532 37.4412 29.0373 37.1931 28.7252 36.7777Z" fill="black"/>
<path fill-rule="evenodd" clip-rule="evenodd" d="M41.8242 44.5155V47.647C41.8242 47.647 36.7395 45.6376 35.8223 43.998C35.8223 43.998 39.0543 45.577 41.8242 44.5155Z" fill="black"/>
<path fill-rule="evenodd" clip-rule="evenodd" d="M29.9781 34.0761C29.9781 34.0761 27.6776 33.0881 27.5135 35.8273C27.5135 35.8273 27.9053 38.861 31.1207 38.354L31.3007 45.0616C31.3007 45.0616 21.4849 45.0428 23.6598 33.9716C23.6598 33.9716 19.3712 33.7482 18.5669 28.6511C17.7754 23.6345 20.9547 19.4778 25.0152 17.7568C27.7331 16.6048 31.0893 16.9439 32.107 17.6126C33.9243 18.8057 34.6485 20.7098 34.344 21.3918C33.8693 22.4546 39.6902 19.2458 44.1562 24.4692C44.1562 24.4692 35.5054 33.9798 29.9781 34.0761Z" fill="#0B0C19"/>
<path fill-rule="evenodd" clip-rule="evenodd" d="M39.6791 32.4811C39.6791 32.6993 39.502 32.8763 39.2839 32.8763C39.0657 32.8763 38.8887 32.6993 38.8887 32.4811C38.8887 32.263 39.0657 32.0859 39.2839 32.0859C39.502 32.0859 39.6791 32.263 39.6791 32.4811Z" fill="#06030A"/>
<path fill-rule="evenodd" clip-rule="evenodd" d="M43.0142 38.8047H40.9492C40.999 39.3313 41.4423 39.7433 41.9817 39.7433C42.5212 39.7433 42.9644 39.3313 43.0142 38.8047Z" fill="#06030A"/>
<path fill-rule="evenodd" clip-rule="evenodd" d="M45.4095 32.4811C45.4095 32.6993 45.2325 32.8763 45.0143 32.8763C44.7962 32.8763 44.6191 32.6993 44.6191 32.4811C44.6191 32.263 44.7962 32.0859 45.0143 32.0859C45.2325 32.0859 45.4095 32.263 45.4095 32.4811Z" fill="#06030A"/>
<path fill-rule="evenodd" clip-rule="evenodd" d="M43.7382 35.4327C43.6845 35.276 43.6201 35.1221 43.5736 34.9628C43.4953 34.6899 43.4056 34.4206 43.3158 34.1517C43.2213 33.8444 43.1266 33.5373 43.0322 33.2303C43.0183 33.1856 43.0047 33.1409 42.9909 33.0965C42.9452 32.9485 42.7818 32.839 42.6263 32.8894C42.4714 32.9396 42.3777 33.0929 42.4192 33.254C42.5111 33.6104 42.6277 33.96 42.7443 34.309C42.8767 34.7385 43.0089 35.1681 43.1411 35.5977H41.9098H41.6998C41.552 35.5977 41.428 35.7103 41.4085 35.8548C41.3911 35.985 41.4749 36.1591 41.6209 36.1798C41.647 36.1836 41.6739 36.185 41.6999 36.1881C41.6999 36.1889 41.6999 36.1897 41.6998 36.1905H41.7203C42.2659 36.2597 42.8326 36.262 43.378 36.1905H43.3964C43.4193 36.1905 43.4416 36.1865 43.4637 36.181C43.4675 36.1805 43.4712 36.1805 43.4752 36.1798C43.5262 36.1723 43.57 36.1439 43.6056 36.1058C43.6732 36.0874 43.7356 36.0473 43.7779 35.9773C43.8781 35.8113 43.7955 35.5993 43.7382 35.4327Z" fill="#06030A"/>
<path d="M39.2847 36.1396C39.7601 36.1396 40.1455 35.7542 40.1455 35.2788C40.1455 34.8034 39.7601 34.418 39.2847 34.418C38.8092 34.418 38.4238 34.8034 38.4238 35.2788C38.4238 35.7542 38.8092 36.1396 39.2847 36.1396Z" fill="#F76954"/>
<path fill-rule="evenodd" clip-rule="evenodd" d="M35.2159 41.3393C36.5392 43.1967 43.8341 45.925 45.9385 41.3393C46.2719 40.6128 46.9112 34.9789 46.3956 35.1668C45.8801 35.3547 37.7413 35.3328 36.3241 34.4468C34.9069 33.5608 34.2522 39.9866 35.2159 41.3393Z" fill="#E4F2F7"/>
<path fill-rule="evenodd" clip-rule="evenodd" d="M43.8022 37.9488C43.8037 38.0578 43.7165 38.1475 43.6073 38.1491L40.2897 38.1961L39.4866 38.2075C39.3776 38.209 39.2878 38.1218 39.2863 38.0126C39.2848 37.9035 39.3719 37.8138 39.4811 37.8123L43.6017 37.7539C43.7109 37.7524 43.8006 37.8396 43.8022 37.9488ZM42.9465 39.55C43.0556 39.55 43.1441 39.6385 43.1441 39.7476C43.1441 39.8412 43.0791 39.9196 42.9918 39.94L42.9465 39.9452H39.4828C39.3736 39.9452 39.2852 39.8568 39.2852 39.7476C39.2852 39.6541 39.3501 39.5757 39.4375 39.5553L39.4828 39.55H42.9465ZM42.0746 41.6798C42.1837 41.6771 42.27 41.5865 42.2673 41.4774C42.2646 41.3683 42.1739 41.2821 42.0649 41.2848L39.6778 41.3436C39.5687 41.3463 39.4824 41.4369 39.4851 41.5461C39.4878 41.6551 39.5785 41.7414 39.6876 41.7387L42.0746 41.6798Z" fill="#B7D3EA"/>
<path d="M24.498 122.004C24.6626 127.927 25.0574 140.234 25.3207 142.077C25.6498 144.38 27.1305 147.671 29.763 148.658C32.3955 149.645 47.2032 144.38 54.7715 142.077C62.3399 139.773 70.2373 137.47 75.0087 137.47C79.7801 137.47 84.716 139.28 87.6775 142.077C90.639 144.874 95.2459 150.797 97.5493 157.049C99.8527 163.301 102.759 172.131 104.789 178.109" stroke="#DCA75E" stroke-width="0.658119"/>
<path d="M20.0605 122.828C20.2251 128.751 20.0605 139.61 20.8806 145.04C21.4019 148.491 24.7542 151.204 26.9682 152.937C30.7524 155.899 44.4084 151.456 51.9768 149.153C59.5451 146.849 68.2652 143.23 73.0366 143.23C77.8079 143.23 81.9212 143.723 84.8827 146.52C87.8443 149.317 91.631 155.57 93.9344 161.822C96.2378 168.074 97.3321 171.803 99.3613 177.781" stroke="#DCA75E" stroke-width="0.658119"/>
<rect x="100.957" y="30.873" width="54.7481" height="15.9151" rx="7.95757" fill="#145DFF"/>
<path fill-rule="evenodd" clip-rule="evenodd" d="M112.249 37.7651C112.249 38.1816 112.359 38.427 112.601 38.7099C112.785 38.9182 112.844 39.1857 112.844 39.4759C112.844 39.7658 112.748 40.0409 112.558 40.2644C112.308 40.5322 111.956 40.7032 111.596 40.7329C111.075 40.7773 110.554 40.8147 110.026 40.8147C109.497 40.8147 108.976 40.7923 108.455 40.7329C108.095 40.7032 107.743 40.5322 107.493 40.2644C107.303 40.0409 107.207 39.7658 107.207 39.4759C107.207 39.1857 107.266 38.9182 107.449 38.7099C107.699 38.427 107.802 38.1816 107.802 37.7651V37.6239C107.802 37.0662 107.941 36.7015 108.227 36.3446C108.653 35.824 109.335 35.5117 110.011 35.5117H110.04C110.73 35.5117 111.435 35.839 111.853 36.382C112.125 36.7316 112.249 37.0809 112.249 37.6239V37.7651ZM109.056 41.4991C109.056 41.3322 109.209 41.2557 109.35 41.223C109.516 41.1879 110.526 41.1879 110.692 41.223C110.834 41.2557 110.987 41.3322 110.987 41.4991C110.979 41.6581 110.885 41.799 110.757 41.8885C110.589 42.0187 110.393 42.1012 110.188 42.1309C110.075 42.1456 109.964 42.146 109.854 42.1309C109.649 42.1012 109.453 42.0187 109.286 41.8882C109.157 41.799 109.064 41.6581 109.056 41.4991Z" fill="#DCE7FF"/>
<rect x="116.873" y="35.3262" width="9.97349" height="2.88706" rx="1.44353" fill="#DCE7FF"/>
<rect x="116.873" y="39.4668" width="6.36606" height="2.86473" rx="1.43236" fill="#DCE7FF"/>
<rect x="127.893" y="35.3262" width="5.2492" height="2.88706" rx="1.44353" fill="#DCE7FF"/>
<rect x="123.875" y="39.4668" width="3.50133" height="2.86473" rx="1.43236" fill="#DCE7FF"/>
<rect x="134.057" y="35.3262" width="16.5517" height="2.86473" rx="1.43236" fill="#DCE7FF"/>
<rect x="128.006" y="39.4668" width="10.504" height="2.86473" rx="1.43236" fill="#DCE7FF"/>
</svg>
