<svg width="222" height="134" viewBox="0 0 222 134" fill="none" xmlns="http://www.w3.org/2000/svg">
<rect width="222" height="134" fill="#E4E4E4"/>
<g clip-path="url(#clip0_253:5)">
<rect width="360" height="640" transform="translate(-69 -169)" fill="#F2F1F6"/>
<path d="M33.0809 33.2277C38.7271 27.4696 48.0007 27.4696 53.6469 33.2277L61.6134 41.352C63.0488 42.8159 64.7189 44.0293 66.5547 44.9421L76.7432 50.0081C83.9643 53.5986 86.83 62.4183 83.0985 69.5676L77.8335 79.6547C76.8849 81.4722 76.2469 83.4356 75.9461 85.4636L74.2764 96.719C73.0931 104.696 65.5906 110.147 57.6382 108.807L46.4178 106.917C44.3961 106.577 42.3317 106.577 40.31 106.917L29.0895 108.807C21.1371 110.147 13.6347 104.696 12.4513 96.719L10.7817 85.4636C10.4808 83.4356 9.84289 81.4722 8.89425 79.6547L3.62929 69.5676C-0.10222 62.4183 2.76347 53.5987 9.98452 50.0081L20.1731 44.9421C22.0088 44.0293 23.679 42.8159 25.1144 41.352L33.0809 33.2277Z" fill="#3AFF38" stroke="white" stroke-width="3.98223"/>
<path d="M167.809 33.2277C173.456 27.4696 182.729 27.4696 188.375 33.2277L196.342 41.352C197.777 42.8159 199.447 44.0293 201.283 44.9421L211.472 50.0081C218.693 53.5986 221.558 62.4183 217.827 69.5676L212.562 79.6547C211.613 81.4722 210.975 83.4356 210.675 85.4636L209.005 96.719C207.822 104.696 200.319 110.147 192.367 108.807L181.146 106.917C179.125 106.577 177.06 106.577 175.038 106.917L163.818 108.807C155.866 110.147 148.363 104.696 147.18 96.719L145.51 85.4636C145.209 83.4356 144.571 81.4722 143.623 79.6547L138.358 69.5676C134.626 62.4183 137.492 53.5987 144.713 50.0081L154.902 44.9421C156.737 44.0293 158.407 42.8159 159.843 41.352L167.809 33.2277Z" fill="#3AFF38" stroke="white" stroke-width="3.98223"/>
<path d="M93.6855 9.92537C102.537 0.898589 117.075 0.898588 125.926 9.92537L138.754 23.0079C141.01 25.3081 143.634 27.2148 146.519 28.6491L162.925 36.8069C174.245 42.4356 178.738 56.2619 172.888 67.4695L164.41 83.7126C162.919 86.5686 161.917 89.6537 161.444 92.8404L158.756 110.965C156.901 123.47 145.139 132.015 132.673 129.915L114.605 126.872C111.428 126.336 108.184 126.336 105.007 126.872L86.939 129.915C74.4723 132.015 62.7109 123.47 60.8558 110.965L58.1672 92.8404C57.6945 89.6537 56.6921 86.5686 55.2014 83.7127L46.7234 67.4695C40.8736 56.2619 45.3661 42.4356 56.6863 36.8069L73.0927 28.6492C75.9773 27.2148 78.6017 25.3081 80.8572 23.0079L93.6855 9.92537Z" fill="#D2FFD2" stroke="white" stroke-width="6.31057"/>
<path d="M106.92 72.9336V64.0977C106.92 61.7109 106.641 59.612 106.082 57.8008C105.523 55.9727 104.728 54.4408 103.695 53.2051C102.646 51.9863 101.376 51.0638 99.8867 50.4375C98.3971 49.8112 96.7214 49.498 94.8594 49.498C93.0143 49.498 91.347 49.8112 89.8574 50.4375C88.3848 51.0638 87.1322 51.9863 86.0996 53.2051C85.0501 54.4408 84.2461 55.9727 83.6875 57.8008C83.1289 59.612 82.8496 61.7109 82.8496 64.0977V72.9336C82.8496 75.3203 83.1289 77.4277 83.6875 79.2559C84.263 81.0671 85.0755 82.582 86.125 83.8008C87.1576 85.0365 88.4186 85.9674 89.9082 86.5938C91.3978 87.2201 93.0651 87.5332 94.9102 87.5332C96.7721 87.5332 98.4479 87.2201 99.9375 86.5938C101.427 85.9674 102.688 85.0365 103.721 83.8008C104.753 82.582 105.54 81.0671 106.082 79.2559C106.641 77.4277 106.92 75.3203 106.92 72.9336ZM89.959 69.8867C89.959 69.362 89.959 68.9642 89.959 68.6934C89.959 68.4225 89.959 67.8809 89.959 67.0684V62.9805C89.959 61.6094 90.0605 60.4245 90.2637 59.4258C90.4837 58.4271 90.8138 57.6146 91.2539 56.9883C91.6602 56.3958 92.1595 55.9557 92.752 55.668C93.3613 55.3633 94.0638 55.2109 94.8594 55.2109C95.5703 55.2109 96.2051 55.3294 96.7637 55.5664C97.3392 55.7865 97.8216 56.1335 98.2109 56.6074C98.7188 57.1999 99.0996 57.9954 99.3535 58.9941C99.6243 59.9759 99.7767 61.1608 99.8105 62.5488L89.959 69.8867ZM99.8105 74C99.8105 75.3711 99.7005 76.5645 99.4805 77.5801C99.2773 78.5788 98.9642 79.3997 98.541 80.043C98.1348 80.6523 97.627 81.1094 97.0176 81.4141C96.4082 81.7018 95.7057 81.8457 94.9102 81.8457C94.0469 81.8457 93.3021 81.6764 92.6758 81.3379C92.0495 80.9993 91.5332 80.4831 91.127 79.7891C90.7715 79.2135 90.4922 78.4941 90.2891 77.6309C90.1029 76.7676 89.9928 75.7773 89.959 74.6602L99.8105 67.3477C99.8105 67.8385 99.8105 68.2194 99.8105 68.4902C99.8105 68.7441 99.8105 69.1504 99.8105 69.709V74ZM131.371 87V50.0313H130.99L114.893 55.8457V61.9902L124.236 58.6387V87H131.371Z" fill="#3AFF38"/>
</g>
<defs>
<clipPath id="clip0_253:5">
<rect width="360" height="640" fill="white" transform="translate(-69 -169)"/>
</clipPath>
</defs>
</svg>
