<svg width="32" height="32" viewBox="0 0 32 32" fill="none" xmlns="http://www.w3.org/2000/svg">
<rect width="32" height="32" rx="8" fill="#F2F1F6"/>
<path d="M19.6881 18.1844C20.104 18.6003 20.104 19.2731 19.6881 19.6878C19.4801 19.8957 19.211 20.007 18.9297 20.007C18.6606 20.007 18.3914 19.9092 18.1835 19.6878L16.0061 17.5239L13.8287 19.6878C13.6208 19.8957 13.3517 20.007 13.0703 20.007C12.8012 20.007 12.5199 19.8957 12.3119 19.6878C11.896 19.2731 11.896 18.6003 12.3119 18.1722L14.4893 16.007L12.3119 13.8284C11.896 13.4138 11.896 12.7287 12.3119 12.3128C12.7278 11.8957 13.4006 11.8957 13.8287 12.3128L16.0061 14.489L18.1713 12.3128C18.5994 11.8957 19.2722 11.8957 19.6881 12.3128C20.104 12.7287 20.104 13.4138 19.6881 13.8284L17.5107 16.007L19.6881 18.1844Z" fill="black"/>
</svg>
