<svg width="243" height="172" viewBox="0 0 243 172" fill="none" xmlns="http://www.w3.org/2000/svg">
<path d="M138.661 147.837C119.507 148.828 42.5311 152.431 17.5621 135.443C-7.40701 118.455 25.7486 82.6446 43.0757 70.1133C60.4027 57.582 89.0228 36.347 109.832 33.2046C130.642 30.0623 165.835 36.4284 188.686 48.8921C211.537 61.3558 224.933 84.4653 224.246 99.9404C223.559 115.415 200.304 138.749 178.267 143.314C165.259 146.045 151.994 147.56 138.661 147.837Z" fill="#EBF1FF"/>
<path d="M133.922 149.497L133.914 149.496C124.034 148.154 99.2646 144.699 74.12 139.016C61.5475 136.175 48.8872 132.777 37.9506 128.811C27.0066 124.843 17.8184 120.314 12.1655 115.223C6.53296 110.151 4.79114 104.703 5.60918 99.2511C6.43076 93.7761 9.84093 88.2545 14.6076 83.0784C24.1387 72.7287 38.9865 63.875 48.8494 59.6842C49.6467 59.3454 50.4651 58.9969 51.3029 58.6401C60.8571 54.5716 72.9384 49.427 85.2332 45.2747C98.6128 40.7559 112.21 37.425 123.057 37.9193C133.921 38.4143 148.086 41.7914 162.209 47.0365C176.33 52.2809 190.386 59.3844 201.034 67.3171C211.673 75.2424 219.466 85.192 224.197 94.9336C228.931 104.682 230.584 114.192 228.99 121.245C228.199 124.746 225.905 128.463 222.518 132.078C219.134 135.691 214.675 139.184 209.585 142.24C199.401 148.353 186.727 152.693 175.142 152.742L175.142 152.742C161.401 152.834 147.595 151.748 133.922 149.497Z" stroke="#135DFF" stroke-width="0.568611"/>
<circle cx="18.2489" cy="59.8641" r="4.17073" fill="#135DFF"/>
<circle cx="88.6922" cy="27.4256" r="4.17073" fill="#135DFF"/>
<circle cx="97.0282" cy="159.034" r="4.17073" fill="#135DFF"/>
<circle cx="173.026" cy="77.9373" r="4.17073" fill="#135DFF"/>
<circle cx="181.141" cy="25.8036" r="1.62195" fill="#135DFF"/>
<circle cx="56.4813" cy="47.12" r="1.62195" fill="#135DFF"/>
<circle cx="24.0438" cy="153.242" r="1.62195" fill="#135DFF"/>
<circle cx="37.9423" cy="97.1678" r="1.62195" fill="#135DFF"/>
<circle cx="204.772" cy="139.339" r="1.62195" fill="#135DFF"/>
<circle cx="238.37" cy="130.304" r="4.17073" fill="#135DFF"/>
<path d="M82.8323 47.2885C104.974 22.2712 144.099 22.5314 165.906 47.8411L205.504 93.7999C210.15 99.1924 212.706 106.074 212.706 113.192C212.706 129.599 199.405 142.9 182.997 142.9H63.2466C45.7422 142.9 32.0493 127.813 33.7414 110.391C34.3565 104.058 36.993 98.0905 41.2612 93.3715L77.8627 52.9035L82.8323 47.2885Z" fill="#145DFF" fill-opacity="0.2"/>
<mask id="mask0_1978_73946" style="mask-type:alpha" maskUnits="userSpaceOnUse" x="108" y="62" width="18" height="18">
<rect x="108" y="62" width="17.62" height="17.62" fill="#D9D9D9"/>
</mask>
<g mask="url(#mask0_1978_73946)">
<path d="M114.167 74.4812L116.81 71.8383L119.453 74.4812L120.481 73.4534L117.838 70.8104L120.481 68.1674L119.453 67.1396L116.81 69.7826L114.167 67.1396L113.14 68.1674L115.783 70.8104L113.14 73.4534L114.167 74.4812ZM116.81 78.1521C115.795 78.1521 114.84 77.9592 113.947 77.5736C113.054 77.1884 112.277 76.6654 111.616 76.0046C110.955 75.3439 110.432 74.5669 110.047 73.6737C109.662 72.7804 109.469 71.826 109.469 70.8104C109.469 69.7948 109.662 68.8404 110.047 67.9472C110.432 67.0539 110.955 66.2769 111.616 65.6162C112.277 64.9554 113.054 64.4322 113.947 64.0465C114.84 63.6613 115.795 63.4688 116.81 63.4688C117.826 63.4688 118.78 63.6613 119.674 64.0465C120.567 64.4322 121.344 64.9554 122.005 65.6162C122.665 66.2769 123.188 67.0539 123.574 67.9472C123.959 68.8404 124.152 69.7948 124.152 70.8104C124.152 71.826 123.959 72.7804 123.574 73.6737C123.188 74.5669 122.665 75.3439 122.005 76.0046C121.344 76.6654 120.567 77.1884 119.674 77.5736C118.78 77.9592 117.826 78.1521 116.81 78.1521Z" fill="#135DFF"/>
</g>
<path d="M125.068 114.042C122.63 114.042 120.701 113.41 119.279 112.146C117.857 110.882 117.146 108.964 117.146 106.391H121.75C121.75 107.564 122.01 108.456 122.529 109.065C123.048 109.674 123.894 109.979 125.068 109.979C126.286 109.979 127.155 109.708 127.674 109.167C128.194 108.625 128.453 107.7 128.453 106.391C128.453 105.082 128.194 104.122 127.674 103.513C127.155 102.904 126.286 102.599 125.068 102.599H99V98.5365H125.068C127.505 98.5365 129.356 99.1684 130.62 100.432C131.884 101.696 132.516 103.682 132.516 106.391C132.516 108.964 131.884 110.882 130.62 112.146C129.356 113.41 127.505 114.042 125.068 114.042ZM99 86.4167V82.3542H136.104C137.774 82.3542 138.993 81.9592 139.76 81.1693C140.528 80.3793 140.911 79.059 140.911 77.2083C140.911 75.3576 140.528 74.0373 139.76 73.2474C138.993 72.4575 137.774 72.0625 136.104 72.0625C134.389 72.0625 133.148 72.5252 132.38 73.4505C131.613 74.3759 131.229 75.5382 131.229 76.9375H127.167C127.167 74.3194 127.957 72.1753 129.536 70.5052C131.116 68.8351 133.306 68 136.104 68C138.858 68 141.024 68.8012 142.604 70.4036C144.184 72.0061 144.974 74.2743 144.974 77.2083C144.974 80.1424 144.184 82.4106 142.604 84.013C141.024 85.6155 138.858 86.4167 136.104 86.4167H99ZM144.5 108.76V104.698C146.08 104.698 147.242 104.258 147.987 103.378C148.732 102.497 149.104 101.222 149.104 99.5521C149.104 97.8368 148.687 96.5955 147.852 95.8281C147.016 95.0608 145.809 94.6771 144.229 94.6771H99V90.6146H144.229C147.028 90.6146 149.217 91.4045 150.797 92.9844C152.377 94.5642 153.167 96.7535 153.167 99.5521C153.167 102.441 152.422 104.698 150.932 106.323C149.443 107.948 147.299 108.76 144.5 108.76Z" fill="#EBF1FF"/>
</svg>
