<svg width="243" height="172" viewBox="0 0 243 172" fill="none" xmlns="http://www.w3.org/2000/svg">
<path d="M138.661 147.837C119.507 148.828 42.5311 152.431 17.5621 135.443C-7.40701 118.455 25.7486 82.6446 43.0757 70.1133C60.4027 57.582 89.0228 36.347 109.832 33.2046C130.642 30.0623 165.835 36.4284 188.686 48.8921C211.537 61.3558 224.933 84.4653 224.246 99.9404C223.559 115.415 200.304 138.749 178.267 143.314C165.259 146.045 151.994 147.56 138.661 147.837Z" fill="#EBF1FF"/>
<path d="M133.922 149.497L133.914 149.496C124.034 148.154 99.2646 144.699 74.12 139.016C61.5475 136.175 48.8872 132.777 37.9506 128.811C27.0066 124.843 17.8184 120.314 12.1655 115.223C6.53296 110.151 4.79114 104.703 5.60918 99.2511C6.43076 93.7761 9.84093 88.2545 14.6076 83.0784C24.1387 72.7287 38.9865 63.875 48.8494 59.6842C49.6467 59.3454 50.4651 58.9969 51.3029 58.6401C60.8571 54.5716 72.9384 49.427 85.2332 45.2747C98.6128 40.7559 112.21 37.425 123.057 37.9193C133.921 38.4143 148.086 41.7914 162.209 47.0365C176.33 52.2809 190.386 59.3844 201.034 67.3171C211.673 75.2424 219.466 85.192 224.197 94.9336C228.931 104.682 230.584 114.192 228.99 121.245C228.199 124.746 225.905 128.463 222.518 132.078C219.134 135.691 214.675 139.184 209.585 142.24C199.401 148.353 186.727 152.693 175.142 152.742L175.142 152.742C161.401 152.834 147.595 151.748 133.922 149.497Z" stroke="#135DFF" stroke-width="0.568611"/>
<circle cx="18.2489" cy="59.8641" r="4.17073" fill="#135DFF"/>
<circle cx="88.6922" cy="27.4256" r="4.17073" fill="#135DFF"/>
<circle cx="97.0282" cy="159.034" r="4.17073" fill="#135DFF"/>
<circle cx="173.026" cy="77.9373" r="4.17073" fill="#135DFF"/>
<circle cx="181.141" cy="25.8036" r="1.62195" fill="#135DFF"/>
<circle cx="56.4813" cy="47.12" r="1.62195" fill="#135DFF"/>
<circle cx="24.0438" cy="153.242" r="1.62195" fill="#135DFF"/>
<circle cx="37.9423" cy="97.1678" r="1.62195" fill="#135DFF"/>
<circle cx="204.772" cy="139.339" r="1.62195" fill="#135DFF"/>
<circle cx="238.37" cy="130.304" r="4.17073" fill="#135DFF"/>
<path d="M82.8323 47.2885C104.974 22.2712 144.099 22.5314 165.906 47.8411L205.504 93.7999C210.15 99.1924 212.706 106.074 212.706 113.192C212.706 129.599 199.405 142.9 182.997 142.9H63.2466C45.7422 142.9 32.0493 127.813 33.7414 110.391C34.3565 104.058 36.993 98.0905 41.2612 93.3715L77.8627 52.9035L82.8323 47.2885Z" fill="#145DFF" fill-opacity="0.2"/>
<mask id="mask0_1975_73857" style="mask-type:alpha" maskUnits="userSpaceOnUse" x="99" y="64" width="55" height="55">
<rect x="99" y="64" width="54.17" height="54.17" fill="#D9D9D9"/>
</mask>
<g mask="url(#mask0_1975_73857)">
<path d="M140.193 102.371V95.0351H132.857V91.6495H140.193V84.314H143.578V91.6495H150.914V95.0351H143.578V102.371H140.193ZM123.829 111.399L116.662 104.966C113.954 102.521 111.631 100.339 109.694 98.4208C107.756 96.5022 106.158 94.6966 104.897 93.0038C103.637 91.3109 102.716 89.6746 102.132 88.0946C101.549 86.5146 101.258 84.8594 101.258 83.129C101.258 79.5929 102.443 76.6493 104.813 74.2982C107.183 71.947 110.136 70.7715 113.672 70.7715C115.628 70.7715 117.49 71.1759 119.258 71.9847C121.026 72.7935 122.55 73.9502 123.829 75.4549C125.108 73.9502 126.631 72.7935 128.399 71.9847C130.167 71.1759 132.029 70.7715 133.986 70.7715C137.183 70.7715 139.863 71.7401 142.026 73.6775C144.189 75.6148 145.534 77.8813 146.061 80.4769C145.384 80.2136 144.707 80.0161 144.03 79.8845C143.352 79.7528 142.694 79.687 142.055 79.687C138.255 79.687 135.02 81.013 132.349 83.6651C129.678 86.3171 128.343 89.5429 128.343 93.3423C128.343 95.2985 128.738 97.1511 129.528 98.9004C130.318 100.65 131.427 102.145 132.857 103.386C132.142 104.026 131.211 104.844 130.064 105.841C128.916 106.838 127.929 107.712 127.101 108.465L123.829 111.399Z" fill="#EBF1FF"/>
</g>
</svg>
