<svg width="40" height="40" viewBox="0 0 40 40" fill="none" xmlns="http://www.w3.org/2000/svg">
<path fill-rule="evenodd" clip-rule="evenodd" d="M26.6134 14.0106C26.6134 17.9022 23.4932 21.0226 19.5989 21.0226C15.7059 21.0226 12.5844 17.9022 12.5844 14.0106C12.5844 10.1191 15.7059 7 19.5989 7C23.4932 7 26.6134 10.1191 26.6134 14.0106ZM19.6 33.5C13.8526 33.5 9 32.5658 9 28.9618C9 25.3565 13.8831 24.4555 19.6 24.4555C25.3486 24.4555 30.2 25.3896 30.2 28.9936C30.2 32.599 25.3168 33.5 19.6 33.5Z" fill="#145DFF"/>
<rect opacity="0.1" width="40" height="40" rx="20" fill="#145DFF"/>
<circle cx="33" cy="6" r="4" fill="#FF0000" stroke="white" stroke-width="2"/>
</svg>
