<svg width="42" height="39" viewBox="0 0 42 39" fill="none" xmlns="http://www.w3.org/2000/svg">
<path fill-rule="evenodd" clip-rule="evenodd" d="M32.2108 6.89871C33.2152 6.89871 34.2181 7.04783 35.1716 7.38463C41.047 9.39535 43.1641 16.1815 41.3956 22.1132C40.3928 25.1444 38.7532 27.9108 36.6058 30.1712C33.532 33.3045 30.1589 36.086 26.528 38.4822L26.13 38.7352L25.7162 38.4654C22.0725 36.086 18.6803 33.3045 15.5779 30.1544C13.4448 27.894 11.8037 25.1444 10.7849 22.1132C8.98614 16.1815 11.1033 9.39535 17.0423 7.34944C17.504 7.18188 17.9799 7.06459 18.4575 6.99924H18.6485C19.0958 6.93054 19.5399 6.89871 19.9856 6.89871H20.1607C21.1636 6.93054 22.1346 7.11486 23.0753 7.45165H23.1693C23.2329 7.48349 23.2807 7.51868 23.3125 7.55051C23.6643 7.66948 23.997 7.80353 24.3154 7.98785L24.9203 8.2727C25.0664 8.35476 25.2305 8.48014 25.3723 8.5885C25.4621 8.65716 25.543 8.71898 25.6047 8.75862C25.6307 8.77476 25.6571 8.79098 25.6837 8.80734C25.8202 8.89121 25.9624 8.97857 26.0823 9.07531C27.8508 7.65273 29.9982 6.88195 32.2108 6.89871ZM36.4488 18.9618C37.1014 18.9434 37.6586 18.3921 37.7063 17.6867V17.4873C37.7541 15.1397 36.4026 13.0134 34.3476 12.1924C33.6949 11.9561 32.9786 12.3264 32.7398 13.0302C32.517 13.7339 32.8672 14.5047 33.5357 14.7544C34.5561 15.1565 35.239 16.2138 35.239 17.385V17.437C35.2087 17.8207 35.3186 18.191 35.5414 18.4759C35.7643 18.7607 36.0986 18.9266 36.4488 18.9618Z" fill="#FF0000"/>
<circle cx="11.7959" cy="11.7959" r="10.7959" fill="#DCE7FF" stroke="white" stroke-width="2"/>
<path d="M11.1834 8.73438H12.4078V14.8568H11.1834V8.73438Z" fill="#145DFF"/>
<path d="M14.8568 11.1834V12.4078L8.73438 12.4078L8.73438 11.1834L14.8568 11.1834Z" fill="#145DFF"/>
</svg>
