<svg width="30" height="10" viewBox="0 0 30 10" fill="none" xmlns="http://www.w3.org/2000/svg">
<path d="M0 9.61821V0.00193169H3.65273C4.30781 -0.0186395 4.95744 0.125372 5.54053 0.420482C6.01418 0.671926 6.40258 1.05493 6.65757 1.52201C6.91974 2.03442 7.05628 2.60035 7.05628 3.17429C7.05628 3.74823 6.91974 4.31416 6.65757 4.82658C6.39848 5.29062 6.01112 5.67261 5.54053 5.9281C4.95242 6.2194 4.29924 6.35961 3.64155 6.33569H1.20642V4.90369H3.44049C3.82564 4.92326 4.20964 4.84755 4.55753 4.68341C4.82595 4.54172 5.04416 4.32268 5.18307 4.05553C5.32258 3.7747 5.39153 3.4649 5.38413 3.15227C5.39024 2.83977 5.32135 2.53026 5.18307 2.24901C5.04344 1.9879 4.8248 1.77616 4.55753 1.64319C4.20935 1.47993 3.82558 1.40423 3.44049 1.42287H1.76494V9.58516L0 9.61821Z" fill="#DBA5B2"/>
<path d="M8.62305 0.00195312H10.7901L13.6832 6.97458H13.7949L16.688 0.00195312H18.8551V9.61823H17.1572V3.00909H17.0678L14.3757 9.61823H13.1023L10.4103 3.00909H10.3209V9.61823H8.62305V0.00195312Z" fill="#DBA5B2"/>
<path d="M23.5114 4.07694H22.3931L21 4.95895V6.01407L22.2887 5.20625H22.3216V9.70425H23.5114V4.07694Z" fill="#DBA5B2"/>
<path d="M27.2276 9.8279C28.6427 9.8279 29.4973 8.75079 29.5 6.89609C29.5027 5.05512 28.6372 4 27.2276 4C25.8153 4 24.958 5.05237 24.9553 6.89609C24.9498 8.7453 25.8098 9.82515 27.2276 9.8279ZM27.2276 8.84147C26.5819 8.84147 26.1643 8.19301 26.167 6.89609C26.1698 5.6184 26.5847 4.97544 27.2276 4.97544C27.8679 4.97544 28.2855 5.6184 28.2855 6.89609C28.2883 8.19301 27.8706 8.84147 27.2276 8.84147Z" fill="#DBA5B2"/>
</svg>
