<svg width="33" height="10" viewBox="0 0 33 10" fill="none" xmlns="http://www.w3.org/2000/svg">
<path d="M0.267578 9.61821V0.00193169H3.92031C4.57539 -0.0186395 5.22501 0.125372 5.80811 0.420482C6.28176 0.671926 6.67016 1.05493 6.92515 1.52201C7.18732 2.03442 7.32385 2.60035 7.32385 3.17429C7.32385 3.74823 7.18732 4.31416 6.92515 4.82658C6.66606 5.29062 6.27869 5.67261 5.80811 5.9281C5.22 6.2194 4.56682 6.35961 3.90913 6.33569H1.474V4.90369H3.70807C4.09322 4.92326 4.47722 4.84755 4.82511 4.68341C5.09352 4.54172 5.31174 4.32268 5.45065 4.05553C5.59016 3.7747 5.65911 3.4649 5.65171 3.15227C5.65782 2.83977 5.58893 2.53026 5.45065 2.24901C5.31101 1.9879 5.09238 1.77616 4.82511 1.64319C4.47692 1.47993 4.09315 1.40423 3.70807 1.42287H2.03252V9.58516L0.267578 9.61821Z" fill="#8E00AC"/>
<path d="M8.89062 0.00195312H11.0577L13.9508 6.97458H14.0624L16.9556 0.00195312H19.1227V9.61823H17.4247V3.00909H17.3354L14.6433 9.61823H13.3699L10.6779 3.00909H10.5885V9.61823H8.89062V0.00195312Z" fill="#8E00AC"/>
<path d="M21.0336 9.61821V8.63787L23.1113 6.85341C23.2499 6.73334 23.3805 6.60455 23.5022 6.46787C23.6058 6.36415 23.6925 6.24524 23.7592 6.11537C23.8151 5.99455 23.8418 5.86257 23.8373 5.72983C23.8412 5.59107 23.8064 5.45395 23.7368 5.3333C23.6726 5.22237 23.575 5.13384 23.4576 5.07994C23.3297 5.0162 23.1874 4.98587 23.0443 4.99183C22.9015 4.98981 22.7602 5.01993 22.631 5.07994C22.512 5.14199 22.4147 5.23795 22.3517 5.35532C22.2818 5.4878 22.2472 5.63564 22.2512 5.78493H20.9554C20.9487 5.44114 21.0376 5.10209 21.2123 4.80455C21.3898 4.52267 21.6457 4.29707 21.9496 4.15466C22.3008 4.00044 22.6823 3.92517 23.0666 3.93434C23.4498 3.92556 23.8305 3.99689 24.1837 4.14363C24.481 4.27003 24.7364 4.47612 24.9209 4.73847C25.1027 5.00093 25.1964 5.31296 25.189 5.6307C25.1875 5.84674 25.1419 6.06029 25.0549 6.25857C24.936 6.51247 24.7777 6.74659 24.5858 6.95254C24.2912 7.27863 23.9739 7.58411 23.6363 7.86679L22.9549 8.48364H25.256V9.58516L21.0336 9.61821Z" fill="#8E00AC"/>
<path d="M26.7969 9.69486C26.7012 9.69687 26.6062 9.67931 26.5177 9.64329C26.4293 9.60727 26.3493 9.55356 26.283 9.48557C26.205 9.40212 26.1486 9.30133 26.1186 9.19177C26.0885 9.0822 26.0857 8.9671 26.1104 8.85625C26.1352 8.74539 26.1867 8.64206 26.2606 8.55505C26.3345 8.46803 26.4286 8.3999 26.5349 8.35645C26.6413 8.31299 26.7567 8.2955 26.8713 8.30545C26.986 8.31541 27.0965 8.35252 27.1935 8.41363C27.2905 8.47473 27.3711 8.55802 27.4285 8.65643C27.4858 8.75484 27.5183 8.86547 27.523 8.97888C27.5149 9.10695 27.4766 9.2314 27.4112 9.34236C27.3463 9.44503 27.2584 9.53171 27.1543 9.59573C27.0465 9.66024 26.9229 9.69452 26.7969 9.69486Z" fill="#8E00AC"/>
<path d="M30.5617 9.68456C30.1771 9.6964 29.795 9.62105 29.4446 9.46427C29.1377 9.33841 28.874 9.12807 28.685 8.85841C28.4933 8.59964 28.3914 8.28669 28.3946 7.96618H29.7239C29.7268 8.06241 29.7514 8.15681 29.7958 8.24254C29.8402 8.32826 29.9034 8.40318 29.9808 8.46188C30.1275 8.56846 30.3017 8.63219 30.4835 8.64583C30.6652 8.65946 30.8471 8.62246 31.0085 8.539C31.1419 8.46455 31.2505 8.35359 31.3212 8.21954C31.3997 8.07794 31.4383 7.91817 31.433 7.75689C31.4398 7.59196 31.4012 7.42829 31.3212 7.28324C31.2505 7.1492 31.1419 7.03824 31.0085 6.96379C30.8645 6.88739 30.7027 6.84945 30.5393 6.85367C30.3769 6.84705 30.2155 6.88115 30.0702 6.9528C29.9342 7.02165 29.8188 7.12412 29.7351 7.2502L28.5286 7.02988L28.7744 4.01172H32.416V5.11324H29.9026L29.7686 6.43508C29.8826 6.26765 30.041 6.13429 30.2266 6.04954C30.4501 5.94576 30.6945 5.89303 30.9415 5.89531C31.2624 5.88939 31.5789 5.96935 31.8575 6.12666C32.123 6.28544 32.3423 6.50934 32.4941 6.77655C32.6504 7.06795 32.7274 7.39434 32.7175 7.72385C32.7245 8.08303 32.6318 8.43724 32.4495 8.74825C32.2585 9.04484 31.9929 9.2877 31.6787 9.45325C31.3285 9.61161 30.9468 9.69064 30.5617 9.68456Z" fill="#8E00AC"/>
</svg>
