<svg width="18" height="18" viewBox="0 0 18 18" fill="none" xmlns="http://www.w3.org/2000/svg">
<g opacity="0.2">
<path fill-rule="evenodd" clip-rule="evenodd" d="M5.7525 1.5H12.255C14.7975 1.5 16.5 3.285 16.5 5.94V12.0683C16.5 14.7158 14.7975 16.5 12.255 16.5H5.7525C3.21 16.5 1.5 14.7158 1.5 12.0683V5.94C1.5 3.285 3.21 1.5 5.7525 1.5ZM11.2576 11.2501C11.5126 10.9959 11.5126 10.5834 11.2576 10.3284L9.9226 8.99335L11.2576 7.6576C11.5126 7.40335 11.5126 6.98335 11.2576 6.72835C11.0026 6.4726 10.5901 6.4726 10.3276 6.72835L9.0001 8.0626L7.6651 6.72835C7.4026 6.4726 6.9901 6.4726 6.7351 6.72835C6.4801 6.98335 6.4801 7.40335 6.7351 7.6576L8.0701 8.99335L6.7351 10.3209C6.4801 10.5834 6.4801 10.9959 6.7351 11.2501C6.8626 11.3776 7.0351 11.4459 7.2001 11.4459C7.3726 11.4459 7.5376 11.3776 7.6651 11.2501L9.0001 9.92335L10.3351 11.2501C10.4626 11.3859 10.6276 11.4459 10.7926 11.4459C10.9651 11.4459 11.1301 11.3776 11.2576 11.2501Z" fill="black"/>
</g>
</svg>
