<svg width="33" height="14" viewBox="0 0 33 14" fill="none" xmlns="http://www.w3.org/2000/svg">
<path d="M7.58264 4.75977H6.23053L5.99259 5.82643C5.73299 6.89309 4.14287 9.52776 3.59121 9.52776C3.03955 9.52776 3.0612 9.32508 3.0612 9.11174C3.05139 9.00886 3.05139 8.90532 3.0612 8.80243L4.03474 4.79176H2.6718L1.01679 11.2771C0.923124 11.7728 0.735991 12.2468 0.465118 12.6744L0.28125 12.9304H1.63336V12.8771C1.93623 12.5464 2.03362 12.1411 2.41221 10.6691V10.5197C2.54584 10.6118 2.70362 10.6636 2.8665 10.6691C3.47225 10.6691 4.07799 10.1571 5.02988 8.85575C4.90619 9.31312 4.82648 9.78096 4.79187 10.2531C4.77942 10.3456 4.78875 10.4398 4.81914 10.5282C4.84953 10.6166 4.90021 10.6969 4.96716 10.7629C5.0341 10.829 5.11556 10.8789 5.20523 10.9089C5.29489 10.9388 5.39031 10.948 5.48417 10.9358C5.89094 10.8585 6.27267 10.6853 6.59669 10.4308C6.9207 10.1763 7.17739 9.84812 7.3447 9.47444V9.32509L6.87952 9.14374L6.80386 9.26109C6.65242 9.52776 6.4144 9.79442 6.20888 9.79442C6.21952 9.67888 6.24125 9.56458 6.27378 9.45308L7.58264 4.75977Z" fill="#8E00AC"/>
<path d="M11.7365 9.52973H11.0551C9.97337 9.52973 9.7462 9.40172 9.7462 9.06039C9.7462 8.71906 10.1356 8.43106 10.644 8.43106C11.8231 8.43106 11.8663 8.43105 12.2881 8.24971C12.6471 8.13609 12.9587 7.91001 13.1754 7.6058C13.3921 7.3016 13.5022 6.93594 13.4889 6.5644C13.4998 6.33005 13.4591 6.09616 13.3694 5.87885C13.2798 5.66155 13.1433 5.46601 12.9696 5.30574H14.0513V4.62306H12.3747C11.9144 4.4385 11.4221 4.34429 10.9253 4.34572C9.37845 4.34572 8.28594 5.14574 8.28594 6.40441C8.29452 6.85945 8.45816 7.2984 8.75053 7.65056C9.0429 8.00272 9.44697 8.24758 9.89765 8.34571C8.81596 8.64438 8.35084 9.09238 8.35084 9.84971C8.35084 10.319 8.58881 10.607 9.43253 10.9164C8.61045 11.0337 8.17773 11.3537 8.17773 11.8764C8.17773 12.6444 9.06474 13.0497 10.6981 13.0497C12.8615 13.0497 14.0838 12.2817 14.0838 11.087C14.0297 10.1164 13.1319 9.52973 11.7365 9.52973ZM10.8604 4.74041C11.4877 4.74041 11.7365 5.22041 11.7365 6.40441C11.7365 7.5884 11.4985 8.0684 10.882 8.0684C10.2654 8.0684 10.0166 7.60971 10.0166 6.41505C10.0166 5.22039 10.2546 4.74041 10.8604 4.74041ZM11.0118 12.623C9.86516 12.623 9.27025 12.3351 9.27025 11.7697C9.27025 11.5031 9.35677 11.3537 9.72454 11.0657H11.8879C12.7316 11.0657 13.0345 11.343 13.0345 11.7804C13.0345 12.2177 12.2881 12.623 11.0118 12.623Z" fill="#8E00AC"/>
<path d="M17.5221 1.56055L14.4609 10.6379H15.6292L18.6903 1.56055H17.5221Z" fill="#8E00AC"/>
<path d="M28.2974 9.32696V6.12696C28.321 5.89036 28.2926 5.65151 28.2142 5.42671C28.1357 5.2019 28.0089 4.99645 27.8426 4.82433C27.6763 4.65221 27.4742 4.51748 27.2503 4.42934C27.0264 4.34121 26.7859 4.30174 26.5451 4.31362C26.1574 4.3254 25.7791 4.43442 25.446 4.63039C25.1129 4.82635 24.836 5.10281 24.6413 5.43364C24.5291 5.09109 24.3045 4.79508 24.0029 4.5923C23.7013 4.38952 23.3398 4.29147 22.9755 4.31362C22.5875 4.30358 22.2047 4.40386 21.8729 4.60246C21.5411 4.80105 21.2742 5.08958 21.1042 5.43364V4.47365H18.6055V4.77231C19.1788 4.84698 19.341 4.9963 19.341 5.59363V9.32696C19.341 9.84962 19.1896 10.0203 18.6271 10.127V10.3936H21.7207V10.095C21.2664 10.031 21.1366 9.81763 21.1366 9.33764V5.99897C21.1366 5.68964 21.9263 5.19897 22.2183 5.19897C22.7267 5.19897 22.9214 5.49764 22.9214 6.26564V9.32696C22.9214 9.84962 22.7916 10.0416 22.3048 10.0843V10.3936H25.3228V10.095C24.8685 10.0416 24.7278 9.81763 24.7278 9.33764V5.94562C24.8037 5.77617 24.923 5.62913 25.0739 5.51896C25.2763 5.32832 25.5409 5.2149 25.8203 5.19897C26.3179 5.19897 26.5126 5.62562 26.5126 6.41495V9.32696C26.5126 9.86029 26.3828 10.0416 25.8852 10.0843V10.3936H28.9681V10.095C28.438 10.063 28.2974 9.88162 28.2974 9.32696Z" fill="#8E00AC"/>
<path d="M31.8131 2.92601C32.0009 2.84928 32.161 2.71884 32.2728 2.55153C32.3846 2.38422 32.443 2.1877 32.4405 1.98734C32.442 1.83376 32.4099 1.68168 32.3463 1.54147C32.2828 1.40126 32.1892 1.27625 32.0721 1.17497C31.9551 1.07369 31.8172 0.998508 31.668 0.954623C31.5187 0.910737 31.3616 0.899162 31.2074 0.920671C30.8383 0.921011 30.4773 1.02839 30.1696 1.22943C29.8619 1.43046 29.6209 1.71628 29.4767 2.05133L29.6389 2.14733C29.7168 1.96222 29.849 1.80435 30.0187 1.69407C30.1884 1.5838 30.3876 1.5262 30.5908 1.52868C30.6944 1.51775 30.7991 1.53039 30.897 1.56562C30.9948 1.60085 31.0832 1.65773 31.1553 1.7319C31.2274 1.80607 31.2812 1.89555 31.3128 1.99346C31.3443 2.09136 31.3527 2.19509 31.3372 2.29668C31.3372 2.73401 31.0667 3.04335 30.342 3.26735V3.39534C30.7686 3.49432 31.1653 3.69174 31.4994 3.97135C31.6201 4.08758 31.7151 4.22717 31.7784 4.38137C31.8417 4.53558 31.8719 4.70105 31.8672 4.86734C31.8672 5.41134 31.586 5.78466 31.1317 5.78466C31.0143 5.77975 30.8996 5.74834 30.7965 5.69286C30.6934 5.63739 30.6045 5.55933 30.5368 5.46467C30.4551 5.34553 30.3477 5.24553 30.2225 5.1718C30.0973 5.09807 29.9571 5.05241 29.812 5.03801C29.7491 5.03366 29.686 5.04194 29.6265 5.06236C29.567 5.08279 29.5124 5.11493 29.4658 5.15683C29.4193 5.19872 29.3819 5.24949 29.3558 5.30608C29.3298 5.36266 29.3158 5.42387 29.3145 5.48599C29.3145 5.88066 29.7688 6.158 30.461 6.158C30.7405 6.18276 31.0221 6.15172 31.2891 6.06672C31.5562 5.98173 31.8031 5.84452 32.0151 5.6633C32.2271 5.48209 32.3999 5.26059 32.5232 5.01204C32.6465 4.76348 32.7177 4.49296 32.7326 4.21666C32.732 3.93453 32.6434 3.65941 32.479 3.42854C32.3145 3.19768 32.0821 3.02224 31.8131 2.92601Z" fill="#8E00AC"/>
</svg>
