<svg width="243" height="172" viewBox="0 0 243 172" fill="none" xmlns="http://www.w3.org/2000/svg">
<path d="M138.665 147.837C119.51 148.828 42.535 152.431 17.566 135.443C-7.40311 118.455 25.7525 82.6446 43.0796 70.1133C60.4066 57.582 89.0267 36.347 109.836 33.2046C130.645 30.0623 165.839 36.4284 188.69 48.8921C211.541 61.3558 224.937 84.4653 224.25 99.9404C223.563 115.415 200.308 138.749 178.271 143.314C165.263 146.045 151.998 147.56 138.665 147.837Z" fill="#EBF1FF"/>
<path d="M133.924 149.497L133.916 149.496C124.036 148.154 99.2665 144.699 74.122 139.016C61.5495 136.175 48.8892 132.777 37.9526 128.811C27.0086 124.843 17.8203 120.314 12.1674 115.223C6.53491 110.151 4.79309 104.703 5.61114 99.2511C6.43271 93.7761 9.84288 88.2545 14.6095 83.0784C24.1406 72.7287 38.9885 63.875 48.8513 59.6842C49.6487 59.3454 50.4671 58.9969 51.3049 58.6401C60.8591 54.5716 72.9403 49.427 85.2351 45.2747C98.6148 40.7559 112.212 37.425 123.059 37.9193C133.923 38.4143 148.088 41.7914 162.211 47.0365C176.332 52.2809 190.388 59.3844 201.036 67.3171C211.675 75.2424 219.468 85.192 224.199 94.9336C228.933 104.682 230.586 114.192 228.992 121.245C228.201 124.746 225.907 128.463 222.52 132.078C219.136 135.691 214.677 139.184 209.587 142.24C199.403 148.353 186.729 152.693 175.144 152.742L175.144 152.742C161.403 152.834 147.597 151.748 133.924 149.497Z" stroke="#135DFF" stroke-width="0.568611"/>
<circle cx="18.2489" cy="59.8641" r="4.17073" fill="#135DFF"/>
<circle cx="88.6942" cy="27.4266" r="4.17073" fill="#135DFF"/>
<circle cx="97.0301" cy="159.034" r="4.17073" fill="#135DFF"/>
<circle cx="173.03" cy="77.9383" r="4.17073" fill="#135DFF"/>
<circle cx="181.145" cy="25.8036" r="1.62195" fill="#135DFF"/>
<circle cx="56.4813" cy="47.12" r="1.62195" fill="#135DFF"/>
<circle cx="24.0438" cy="153.241" r="1.62195" fill="#135DFF"/>
<circle cx="37.9423" cy="97.1669" r="1.62195" fill="#135DFF"/>
<circle cx="204.77" cy="139.339" r="1.62195" fill="#135DFF"/>
<circle cx="238.374" cy="130.304" r="4.17073" fill="#135DFF"/>
<path d="M82.8343 47.2885C104.976 22.2712 144.101 22.5314 165.908 47.8411L205.506 93.7999C210.152 99.1924 212.708 106.074 212.708 113.192C212.708 129.599 199.407 142.9 182.999 142.9H63.2485C45.7442 142.9 32.0512 127.813 33.7433 110.391C34.3584 104.058 36.9949 98.0905 41.2631 93.3715L77.8647 52.9035L82.8343 47.2885Z" fill="#145DFF"/>
<mask id="mask0_3014_77939" style="mask-type:alpha" maskUnits="userSpaceOnUse" x="89" y="56" width="69" height="69">
<rect x="156.977" y="124.295" width="67.5863" height="67.5863" transform="rotate(-179.737 156.977 124.295)" fill="#D9D9D9"/>
</mask>
<g mask="url(#mask0_3014_77939)">
<path d="M123.39 81.9005L112.074 93.1131L134.603 93.2165L123.39 81.9005ZM123.481 62.188C127.376 62.2059 131.034 62.9619 134.453 64.4561C137.873 65.9503 140.844 67.9704 143.367 70.5165C145.889 73.0626 147.882 76.0521 149.345 79.4851C150.808 82.9181 151.53 86.5824 151.512 90.478C151.494 94.3735 150.738 98.031 149.244 101.45C147.75 104.87 145.73 107.841 143.184 110.364C140.638 112.887 137.648 114.879 134.215 116.342C130.782 117.805 127.118 118.527 123.222 118.509C119.327 118.492 115.669 117.735 112.25 116.241C108.83 114.747 105.859 112.727 103.336 110.181C100.813 107.635 98.8207 104.645 97.358 101.212C95.8953 97.7793 95.1728 94.115 95.1907 90.2194C95.2086 86.3239 95.9646 82.6664 97.4588 79.2469C98.953 75.8275 100.973 72.8564 103.519 70.3335C106.065 67.8107 109.055 65.818 112.488 64.3553C115.921 62.8925 119.585 62.1701 123.481 62.188Z" fill="white"/>
</g>
</svg>
