<?xml version="1.0" encoding="utf-8"?>
<!-- Generator: Adobe Illustrator 23.0.3, SVG Export Plug-In . SVG Version: 6.00 Build 0)  -->
<svg version="1.1" id="Layer_1" xmlns="http://www.w3.org/2000/svg" xmlns:xlink="http://www.w3.org/1999/xlink" x="0px" y="0px"
	 viewBox="0 0 174.4 41.1" style="enable-background:new 0 0 174.4 41.1;" xml:space="preserve">
<g>
	<g id="Layer_1-2">
		<path d="M75.8,28.8H76v-8.6c-0.2-4.5-3.8-8.1-8.3-8.2h-5.9c-4.5,0.2-8.1,3.8-8.3,8.2v12.5c0,2.2,0.9,4.3,2.5,5.9
			c1.5,1.5,3.6,2.4,5.7,2.4h5.9c4.5-0.1,8.2-3.7,8.3-8.2h-4.9c-0.1,1.8-1.6,3.2-3.4,3.3h-5.9c-1.8-0.1-3.2-1.5-3.4-3.3v-3.9H75.8z
			 M61.8,16.9h5.9c1.8,0.1,3.2,1.5,3.4,3.3v3.8H58.4v-3.8C58.6,18.5,60,17.1,61.8,16.9L61.8,16.9z"/>
		<path d="M174.1,28.9h0.2v-8.6c-0.2-4.5-3.8-8.1-8.4-8.2h-5.9c-4.5,0.2-8.1,3.8-8.3,8.2v12.5c0,2.2,1,4.3,2.6,5.9
			c1.5,1.5,3.6,2.3,5.7,2.4h5.9c4.5-0.1,8.2-3.7,8.3-8.2h-4.9c-0.1,1.8-1.6,3.2-3.4,3.3h-5.9c-1.8-0.1-3.3-1.5-3.4-3.3v-3.9H174.1z
			 M160.1,17h5.9c1.8,0.2,3.2,1.5,3.4,3.3v3.8h-12.6v-3.8C156.9,18.5,158.3,17.1,160.1,17L160.1,17z"/>
		<path d="M23.8,41h-12c-4.1,0-7.2-1.3-9.3-4C0.8,34.8,0,31.8,0,28V0h4.9v28c0,2.7,0.5,4.8,1.5,6.1s2.8,2.1,5.3,2.1h12L23.8,41z"/>
		<path d="M33.4,12h-4.9v29h4.9V12z"/>
		<path d="M31,8.4c1.7,0,3-1.3,3-3s-1.3-3-3-3c-1.7,0-3,1.3-3,3S29.3,8.4,31,8.4z"/>
		<path d="M120,12h-5v29h5V12z"/>
		<path d="M117.5,8.4c1.7,0,3-1.3,3-3s-1.3-3-3-3s-3,1.3-3,3S115.8,8.4,117.5,8.4z"/>
		<path d="M44.6,7.9c1.2-2,3.4-3.1,6.5-3.1h3.2V0H51c-3.4,0-8,0.9-10.7,5.3c-1.5,2.6-2.2,5.5-2.1,8.4V41h5V25.4c0-4.4,2-7.9,6.5-7.9
			h0.8c0.5-2,1.6-3.8,3.1-5.2h-2c-3-0.1-6,0.8-8.5,2.5v-1C43.1,11.7,43.6,9.7,44.6,7.9z"/>
		<path d="M111.3,12h-4.7l-0.1,0.4v0.1l0,0l-4.9,20.9L97.8,21c-0.3-1-0.8-3-1.8-3h-2.4c-1,0-1.4,2-1.8,3L88,33.4l-4.9-20.9v-0.1
			L83,12h-4.7l0.4,1.5L84.8,38c0.3,1.2,1,3,1.8,3h2.6c1,0,1.7-1.8,2-3l3.5-11.5L98.3,38c0.3,1,1,3,1.9,3h2.6c1,0,1.7-2,2-3l6.2-24.5
			L111.3,12z"/>
		<path d="M147.4,38.4l-5.3-10c3.2-1.1,5.5-4.1,5.6-7.5v-0.8c-0.1-4.6-3.9-8.2-8.4-8.1c0,0,0,0,0,0h-14.1v29h4.8v-8.1
			c0-1.5,1.9-3.9,4.7-3.9h2.6l5.7,11.2l0.4,0.7h5.4L147.4,38.4z M139.4,24.4h-4.7c-1.8,0-3.5,0.6-4.8,1.8v-9.4h9.5
			c1.8,0,3.4,1.4,3.5,3.3v0.8C142.8,22.7,141.3,24.5,139.4,24.4L139.4,24.4z"/>
	</g>
</g>
</svg>
