<svg width="96" height="96" viewBox="0 0 33 32" fill="none" xmlns="http://www.w3.org/2000/svg">
<circle cx="16.332" cy="16" r="16" fill="#FFC170"/>
<circle cx="12.9198" cy="12.5868" r="1.92" transform="rotate(180 12.9198 12.5868)" fill="#FF851F"/>
<rect x="11.6406" y="17.707" width="9.38667" height="2.56" fill="#FF851F"/>
<circle cx="19.6152" cy="12.5868" r="1.92" transform="rotate(180 19.6152 12.5868)" fill="#FF851F"/>
<path d="M18.627 4.0458C21.63 4.60454 24.3148 6.26767 26.1525 8.70753C27.9902 11.1474 28.8476 14.187 28.5556 17.2276C28.2636 20.2681 26.8435 23.089 24.575 25.1346C22.3066 27.1801 19.3543 28.3019 16.2999 28.279C13.2454 28.256 10.3103 27.0899 8.0729 25.0105C5.83545 22.9311 4.4579 20.0892 4.21165 17.0446C3.9654 14 4.86832 10.9736 6.74251 8.56165C8.61669 6.14969 11.3262 4.5271 14.3373 4.01356L14.7482 6.42274C12.3393 6.83357 10.1717 8.13164 8.67235 10.0612C7.173 11.9908 6.45066 14.4119 6.64766 16.8476C6.84466 19.2832 7.9467 21.5568 9.73666 23.2203C11.5266 24.8838 13.8747 25.8167 16.3182 25.8351C18.7618 25.8534 21.1236 24.956 22.9384 23.3195C24.7531 21.6831 25.8892 19.4264 26.1228 16.9939C26.3564 14.5615 25.6705 12.1298 24.2004 10.1779C22.7302 8.22603 20.5823 6.89552 18.1799 6.44853L18.627 4.0458Z" fill="white"/>
<path d="M18.6255 4.04553C21.6285 4.60388 24.3134 6.26658 26.1514 8.70606C27.9894 11.1455 28.8472 14.1849 28.5558 17.2254C28.2644 20.2658 26.8449 23.0869 24.5769 25.1329C22.309 27.1788 19.3571 28.3012 16.3028 28.279L16.3206 25.8351C18.764 25.8529 21.1255 24.9549 22.9399 23.3182C24.7542 21.6814 25.8898 19.4246 26.123 16.9922C26.3561 14.5598 25.6699 12.1283 24.1995 10.1767C22.7291 8.22516 20.5811 6.895 18.1788 6.44832L18.6255 4.04553Z" fill="#FF851F"/>
</svg>
