<svg width="33" height="32" viewBox="0 0 33 32" fill="none" xmlns="http://www.w3.org/2000/svg">
<circle cx="16.333" cy="16" r="16" fill="#FFC170"/>
<circle cx="12.9198" cy="12.5863" r="1.92" transform="rotate(180 12.9198 12.5863)" fill="#FF851F"/>
<rect x="11.6396" y="17.7065" width="9.38667" height="2.56" fill="#FF851F"/>
<circle cx="19.6132" cy="12.5863" r="1.92" transform="rotate(180 19.6132 12.5863)" fill="#FF851F"/>
<path d="M18.6279 4.0458C21.6309 4.60454 24.3158 6.26767 26.1535 8.70753C27.9912 11.1474 28.8485 14.187 28.5566 17.2276C28.2646 20.2681 26.8445 23.089 24.576 25.1346C22.3076 27.1801 19.3553 28.3019 16.3008 28.279C13.2464 28.256 10.3113 27.0899 8.07388 25.0105C5.83643 22.9311 4.45887 20.0892 4.21263 17.0446C3.96638 14 4.8693 10.9736 6.74348 8.56165C8.61767 6.14969 11.3272 4.5271 14.3383 4.01356L14.7491 6.42274C12.3403 6.83357 10.1727 8.13164 8.67332 10.0612C7.17397 11.9908 6.45164 14.4119 6.64864 16.8476C6.84564 19.2832 7.94768 21.5568 9.73764 23.2203C11.5276 24.8838 13.8757 25.8167 16.3192 25.8351C18.7628 25.8534 21.1246 24.956 22.9394 23.3195C24.7541 21.6831 25.8902 19.4264 26.1238 16.9939C26.3574 14.5615 25.6715 12.1298 24.2013 10.1779C22.7312 8.22603 20.5833 6.89552 18.1809 6.44853L18.6279 4.0458Z" fill="white"/>
<path d="M18.6265 4.04553C21.6294 4.60388 24.3144 6.26658 26.1524 8.70606C27.9904 11.1455 28.8482 14.1849 28.5568 17.2254C28.2654 20.2658 26.8458 23.0869 24.5779 25.1329C22.31 27.1788 19.3581 28.3012 16.3038 28.279L16.3215 25.8351C18.765 25.8529 21.1265 24.9549 22.9409 23.3182C24.7552 21.6814 25.8908 19.4246 26.124 16.9922C26.3571 14.5598 25.6709 12.1283 24.2005 10.1767C22.73 8.22516 20.5821 6.895 18.1797 6.44832L18.6265 4.04553Z" fill="#FF851F"/>
</svg>
