<svg width="81" height="80" viewBox="0 0 81 80" fill="none" xmlns="http://www.w3.org/2000/svg">
<rect x="0.5" width="80" height="80" rx="40" fill="#FFD0DC"/>
<mask id="mask0_4741_90596" style="mask-type:alpha" maskUnits="userSpaceOnUse" x="15" y="15" width="51" height="50">
<rect x="15.5" y="15" width="50" height="50" fill="#D9D9D9"/>
</mask>
<g mask="url(#mask0_4741_90596)">
<path d="M58.2542 28.8673C59.2791 31.2604 59.53 33.9142 58.9718 36.457C58.4135 38.9998 57.074 41.3044 55.1409 43.0481C53.2077 44.7918 50.7777 45.8874 48.1909 46.1813C45.6042 46.4753 42.9903 45.953 40.7152 44.6876V44.6876L29.7581 57.3829C28.8775 58.2635 27.6832 58.7582 26.4378 58.7582C25.1925 58.7582 23.9981 58.2635 23.1175 57.3829C22.2369 56.5023 21.7422 55.3079 21.7422 54.0626C21.7422 52.8172 22.2369 51.6229 23.1175 50.7423L35.8128 39.7852C34.5474 37.5101 34.0251 34.8962 34.3191 32.3094C34.613 29.7227 35.7086 27.2927 37.4523 25.3595C39.196 23.4264 41.5006 22.0869 44.0434 21.5286C46.5862 20.9703 49.24 21.2212 51.6331 22.2462L43.43 30.4298L44.5433 35.9571L50.0706 37.0704L58.2542 28.8673Z" stroke="#A51F3F" stroke-width="3" stroke-linecap="round" stroke-linejoin="round"/>
</g>
</svg>
