<svg width="50" height="50" viewBox="0 0 50 50" fill="none" xmlns="http://www.w3.org/2000/svg">
<rect width="50" height="50" rx="25" fill="#FFD0DC"/>
<mask id="mask0_5101_98497" style="mask-type:alpha" maskUnits="userSpaceOnUse" x="10" y="10" width="30" height="30">
<rect x="10" y="10" width="30" height="30" fill="#D9D9D9"/>
</mask>
<g mask="url(#mask0_5101_98497)">
<path d="M35.6533 18.3196C36.2683 19.7555 36.4188 21.3477 36.0839 22.8734C35.7489 24.3991 34.9452 25.7819 33.7853 26.8281C32.6254 27.8743 31.1674 28.5316 29.6154 28.708C28.0633 28.8844 26.495 28.571 25.1299 27.8118V27.8118L18.5557 35.429C18.0273 35.9573 17.3107 36.2541 16.5635 36.2541C15.8163 36.2541 15.0996 35.9573 14.5713 35.429C14.0429 34.9006 13.7461 34.184 13.7461 33.4368C13.7461 32.6895 14.0429 31.9729 14.5713 31.4446L22.1885 24.8704C21.4292 23.5053 21.1158 21.9369 21.2922 20.3849C21.4686 18.8328 22.1259 17.3748 23.1721 16.2149C24.2184 15.055 25.6011 14.2513 27.1268 13.9164C28.6525 13.5814 30.2448 13.732 31.6807 14.3469L26.7588 19.2571L27.4268 22.5735L30.7432 23.2415L35.6533 18.3196Z" stroke="#A51F3F" stroke-width="3" stroke-linecap="round" stroke-linejoin="round"/>
</g>
</svg>
