<svg width="50" height="50" viewBox="0 0 50 50" fill="none" xmlns="http://www.w3.org/2000/svg">
<rect width="50" height="50" rx="25" fill="#FFFAC9"/>
<path d="M25 36.25C31.2132 36.25 36.25 31.2132 36.25 25C36.25 18.7868 31.2132 13.75 25 13.75C18.7868 13.75 13.75 18.7868 13.75 25C13.75 31.2132 18.7868 36.25 25 36.25Z" stroke="#B8B850" stroke-width="4" stroke-linecap="round" stroke-linejoin="round"/>
<path d="M15.8105 31.4961L17.1816 30.6641C17.3176 30.5802 17.4299 30.463 17.5078 30.3235C17.5858 30.184 17.6268 30.027 17.627 29.8672L17.6504 25.6367C17.6523 25.4613 17.7052 25.2903 17.8027 25.1445L20.123 21.5C20.1927 21.3923 20.2834 21.2999 20.3897 21.2282C20.4961 21.1566 20.6158 21.1072 20.7418 21.0831C20.8677 21.059 20.9972 21.0607 21.1225 21.088C21.2478 21.1154 21.3662 21.1678 21.4707 21.2422L23.7676 22.9062C23.9658 23.0444 24.207 23.1068 24.4473 23.082L28.1387 22.5781C28.3626 22.5473 28.5672 22.4346 28.7129 22.2617L31.3145 19.2617C31.4687 19.0788 31.5482 18.8445 31.5371 18.6055L31.4082 15.7578" stroke="#B8B850" stroke-width="4" stroke-linecap="round" stroke-linejoin="round"/>
<path d="M31.9263 33.873L30.6607 32.6074C30.5436 32.4904 30.3983 32.4056 30.2388 32.3613L27.7193 31.705C27.498 31.6445 27.3066 31.5049 27.1814 31.3127C27.0561 31.1205 27.0057 30.889 27.0396 30.6621L27.3092 28.7636C27.3359 28.604 27.4026 28.4536 27.503 28.3266C27.6033 28.1996 27.7342 28.1 27.8834 28.0371L31.4459 26.5488C31.6113 26.4798 31.7931 26.4597 31.9697 26.4908C32.1462 26.522 32.3101 26.6031 32.442 26.7246L35.3599 29.3965" stroke="#B8B850" stroke-width="4" stroke-linecap="round" stroke-linejoin="round"/>
</svg>
