<svg width="80" height="80" viewBox="0 0 80 80" fill="none" xmlns="http://www.w3.org/2000/svg">
<rect width="80" height="80" rx="40" fill="#FFFAC9"/>
<path d="M40 58.75C50.3553 58.75 58.75 50.3553 58.75 40C58.75 29.6447 50.3553 21.25 40 21.25C29.6447 21.25 21.25 29.6447 21.25 40C21.25 50.3553 29.6447 58.75 40 58.75Z" stroke="#B8B850" stroke-width="4" stroke-linecap="round" stroke-linejoin="round"/>
<path d="M24.6855 50.8242L26.9707 49.4375C27.1973 49.2977 27.3845 49.1023 27.5144 48.8699C27.6443 48.6374 27.7126 48.3756 27.7129 48.1094L27.752 41.0586C27.7551 40.7663 27.8433 40.4812 28.0059 40.2383L31.873 34.1641C31.9891 33.9846 32.1403 33.8305 32.3175 33.7111C32.4948 33.5917 32.6944 33.5094 32.9043 33.4692C33.1142 33.4291 33.33 33.4319 33.5388 33.4774C33.7476 33.523 33.945 33.6104 34.1191 33.7344L37.9473 36.5078C38.2776 36.7381 38.6796 36.8421 39.0801 36.8008L45.2324 35.9609C45.6057 35.9095 45.9466 35.7217 46.1895 35.4336L50.5254 30.4336C50.7825 30.1288 50.9151 29.7382 50.8965 29.3398L50.6816 24.5938" stroke="#B8B850" stroke-width="4" stroke-linecap="round" stroke-linejoin="round"/>
<path d="M51.5426 54.7884L49.4332 52.679C49.2381 52.484 48.9959 52.3427 48.7301 52.2688L44.5309 51.1751C44.1621 51.0741 43.8431 50.8415 43.6343 50.5211C43.4255 50.2008 43.3415 49.815 43.3981 49.4368L43.8473 46.2727C43.8919 46.0066 44.003 45.7561 44.1703 45.5444C44.3376 45.3327 44.5557 45.1667 44.8043 45.0618L50.7418 42.5813C51.0176 42.4663 51.3205 42.4328 51.6148 42.4847C51.909 42.5366 52.1822 42.6718 52.402 42.8743L57.2653 47.3274" stroke="#B8B850" stroke-width="4" stroke-linecap="round" stroke-linejoin="round"/>
</svg>
