<svg width="50" height="50" viewBox="0 0 50 50" fill="none" xmlns="http://www.w3.org/2000/svg">
<rect width="50" height="50" rx="25" fill="#F9E1FE"/>
<path d="M37.582 23.6478L34.6875 25.0893L30.9375 17.9174L33.8672 16.4525C34.0849 16.3416 34.3377 16.3212 34.5704 16.3958C34.8031 16.4704 34.9968 16.6341 35.1094 16.851L37.9922 22.3705C38.0506 22.481 38.0864 22.6021 38.0974 22.7266C38.1084 22.8511 38.0944 22.9765 38.0561 23.0956C38.0179 23.2146 37.9563 23.3248 37.8749 23.4196C37.7935 23.5144 37.6939 23.592 37.582 23.6478V23.6478Z" stroke="#D834FA" stroke-width="3" stroke-linecap="round" stroke-linejoin="round"/>
<path d="M14.0633 24.9697L11.1687 23.5165C11.0573 23.4619 10.958 23.3854 10.8767 23.2917C10.7954 23.1979 10.7337 23.0887 10.6955 22.9706C10.6572 22.8526 10.6431 22.728 10.6539 22.6044C10.6648 22.4807 10.7004 22.3605 10.7586 22.2509L13.6414 16.7314C13.7542 16.5146 13.9471 16.3504 14.1791 16.2738C14.4112 16.1972 14.6639 16.2142 14.8836 16.3212L17.8133 17.7861L14.0633 24.9697Z" stroke="#D834FA" stroke-width="3" stroke-linecap="round" stroke-linejoin="round"/>
<path d="M34.6875 25.0938L32.8125 27.2969L28.5 31.6094C28.3825 31.7193 28.2401 31.7991 28.0849 31.8419C27.9298 31.8848 27.7667 31.8894 27.6094 31.8555L20.8125 30.1562C20.6883 30.1216 20.5726 30.0618 20.4727 29.9805L14.0625 24.9766" stroke="#D834FA" stroke-width="3" stroke-linecap="round" stroke-linejoin="round"/>
<path d="M32.8122 27.2891L27.656 23.5391L26.156 24.6641C25.5061 25.1491 24.7169 25.4112 23.906 25.4112C23.0951 25.4112 22.3059 25.1491 21.656 24.6641L21.0232 24.1836C20.9162 24.1022 20.8277 23.9991 20.7635 23.881C20.6994 23.7628 20.661 23.6324 20.6511 23.4984C20.6411 23.3643 20.6597 23.2297 20.7057 23.1034C20.7516 22.977 20.8239 22.8619 20.9177 22.7656L25.5115 18.1836C25.5977 18.0977 25.7001 18.0297 25.8127 17.9835C25.9253 17.9372 26.046 17.9136 26.1677 17.9141H30.9372" stroke="#D834FA" stroke-width="3" stroke-linecap="round" stroke-linejoin="round"/>
<path d="M17.8828 17.7863L23.8945 16.0285C24.1081 15.9673 24.3366 15.9839 24.5391 16.0754L28.5938 17.9152" stroke="#D834FA" stroke-width="3" stroke-linecap="round" stroke-linejoin="round"/>
<path d="M22.5 34.3242L18.9727 33.4336C18.8289 33.4011 18.6958 33.3326 18.5859 33.2344L15.9375 30.9375" stroke="#D834FA" stroke-width="3" stroke-linecap="round" stroke-linejoin="round"/>
</svg>
