<svg width="50" height="51" viewBox="0 0 50 51" fill="none" xmlns="http://www.w3.org/2000/svg">
<rect y="0.5" width="50" height="50" rx="25" fill="#DEFFF0"/>
<mask id="mask0_5101_98522" style="mask-type:alpha" maskUnits="userSpaceOnUse" x="10" y="10" width="30" height="31">
<rect x="10" y="10.5" width="30" height="30" fill="#D9D9D9"/>
</mask>
<g mask="url(#mask0_5101_98522)">
<path d="M27.5 22.875V20.75C28.1875 20.4583 28.8908 20.2396 29.61 20.0938C30.3283 19.9479 31.0833 19.875 31.875 19.875C32.4167 19.875 32.9479 19.9167 33.4688 20C33.9896 20.0833 34.5 20.1875 35 20.3125V22.3125C34.5 22.125 33.995 21.9846 33.485 21.8912C32.9742 21.7971 32.4375 21.75 31.875 21.75C31.0833 21.75 30.3229 21.8492 29.5938 22.0475C28.8646 22.245 28.1667 22.5208 27.5 22.875ZM27.5 29.75V27.625C28.1875 27.3333 28.8908 27.1146 29.61 26.9688C30.3283 26.8229 31.0833 26.75 31.875 26.75C32.4167 26.75 32.9479 26.7917 33.4688 26.875C33.9896 26.9583 34.5 27.0625 35 27.1875V29.1875C34.5 29 33.995 28.8596 33.485 28.7662C32.9742 28.6721 32.4375 28.625 31.875 28.625C31.0833 28.625 30.3229 28.7188 29.5938 28.9062C28.8646 29.0938 28.1667 29.375 27.5 29.75ZM27.5 26.3125V24.1875C28.1875 23.8958 28.8908 23.6771 29.61 23.5312C30.3283 23.3854 31.0833 23.3125 31.875 23.3125C32.4167 23.3125 32.9479 23.3542 33.4688 23.4375C33.9896 23.5208 34.5 23.625 35 23.75V25.75C34.5 25.5625 33.995 25.4221 33.485 25.3287C32.9742 25.2346 32.4375 25.1875 31.875 25.1875C31.0833 25.1875 30.3229 25.2867 29.5938 25.485C28.8646 25.6825 28.1667 25.9583 27.5 26.3125ZM18.125 30.5C19.1042 30.5 20.0575 30.6092 20.985 30.8275C21.9117 31.0467 22.8333 31.375 23.75 31.8125V19.5C22.8958 19 21.9896 18.625 21.0312 18.375C20.0729 18.125 19.1042 18 18.125 18C17.375 18 16.6304 18.0729 15.8912 18.2188C15.1512 18.3646 14.4375 18.5833 13.75 18.875V31.25C14.4792 31 15.2033 30.8125 15.9225 30.6875C16.6408 30.5625 17.375 30.5 18.125 30.5ZM26.25 31.8125C27.1667 31.375 28.0888 31.0467 29.0163 30.8275C29.9429 30.6092 30.8958 30.5 31.875 30.5C32.625 30.5 33.3596 30.5625 34.0788 30.6875C34.7971 30.8125 35.5208 31 36.25 31.25V18.875C35.5625 18.5833 34.8492 18.3646 34.11 18.2188C33.37 18.0729 32.625 18 31.875 18C30.8958 18 29.9271 18.125 28.9688 18.375C28.0104 18.625 27.1042 19 26.25 19.5V31.8125ZM25 35.5C24 34.7083 22.9167 34.0938 21.75 33.6562C20.5833 33.2188 19.375 33 18.125 33C17.25 33 16.3908 33.1146 15.5475 33.3438C14.7033 33.5729 13.8958 33.8958 13.125 34.3125C12.6875 34.5417 12.2658 34.5312 11.86 34.2812C11.4533 34.0312 11.25 33.6667 11.25 33.1875V18.125C11.25 17.8958 11.3075 17.6771 11.4225 17.4687C11.5367 17.2604 11.7083 17.1042 11.9375 17C12.8958 16.5 13.8958 16.125 14.9375 15.875C15.9792 15.625 17.0417 15.5 18.125 15.5C19.3333 15.5 20.5158 15.6562 21.6725 15.9688C22.8283 16.2812 23.9375 16.75 25 17.375C26.0625 16.75 27.1721 16.2812 28.3288 15.9688C29.4846 15.6562 30.6667 15.5 31.875 15.5C32.9583 15.5 34.0208 15.625 35.0625 15.875C36.1042 16.125 37.1042 16.5 38.0625 17C38.2917 17.1042 38.4638 17.2604 38.5788 17.4687C38.6929 17.6771 38.75 17.8958 38.75 18.125V33.1875C38.75 33.6667 38.5471 34.0312 38.1413 34.2812C37.7346 34.5312 37.3125 34.5417 36.875 34.3125C36.1042 33.8958 35.2967 33.5729 34.4525 33.3438C33.6092 33.1146 32.75 33 31.875 33C30.625 33 29.4167 33.2188 28.25 33.6562C27.0833 34.0938 26 34.7083 25 35.5Z" fill="#6AAF69"/>
</g>
</svg>
