<svg width="81" height="80" viewBox="0 0 81 80" fill="none" xmlns="http://www.w3.org/2000/svg">
<rect x="0.5" width="80" height="80" rx="40" fill="#DEFFF0"/>
<mask id="mask0_4741_90611" style="mask-type:alpha" maskUnits="userSpaceOnUse" x="15" y="15" width="51" height="50">
<rect x="15.5" y="15" width="50" height="50" fill="#D9D9D9"/>
</mask>
<g mask="url(#mask0_4741_90611)">
<path d="M44.6673 35.6237V32.082C45.8132 31.5959 46.9854 31.2313 48.184 30.9883C49.3812 30.7452 50.6395 30.6237 51.959 30.6237C52.8618 30.6237 53.7472 30.6931 54.6152 30.832C55.4833 30.9709 56.334 31.1445 57.1673 31.3529V34.6862C56.334 34.3737 55.4923 34.1397 54.6423 33.9841C53.7909 33.8272 52.8965 33.7487 51.959 33.7487C50.6395 33.7487 49.3722 33.914 48.1569 34.2445C46.9416 34.5737 45.7784 35.0334 44.6673 35.6237ZM44.6673 47.082V43.5404C45.8132 43.0543 46.9854 42.6897 48.184 42.4466C49.3812 42.2036 50.6395 42.082 51.959 42.082C52.8618 42.082 53.7472 42.1515 54.6152 42.2904C55.4833 42.4293 56.334 42.6029 57.1673 42.8112V46.1445C56.334 45.832 55.4923 45.598 54.6423 45.4424C53.7909 45.2855 52.8965 45.207 51.959 45.207C50.6395 45.207 49.3722 45.3633 48.1569 45.6758C46.9416 45.9883 45.7784 46.457 44.6673 47.082ZM44.6673 41.3529V37.8112C45.8132 37.3251 46.9854 36.9605 48.184 36.7174C49.3812 36.4744 50.6395 36.3529 51.959 36.3529C52.8618 36.3529 53.7472 36.4223 54.6152 36.5612C55.4833 36.7001 56.334 36.8737 57.1673 37.082V40.4154C56.334 40.1029 55.4923 39.8688 54.6423 39.7133C53.7909 39.5563 52.8965 39.4779 51.959 39.4779C50.6395 39.4779 49.3722 39.6431 48.1569 39.9737C46.9416 40.3029 45.7784 40.7626 44.6673 41.3529ZM29.0423 48.332C30.6743 48.332 32.2632 48.514 33.809 48.8779C35.3534 49.2431 36.8895 49.7904 38.4173 50.5195V29.9987C36.9937 29.1654 35.4833 28.5404 33.8861 28.1237C32.2888 27.707 30.6743 27.4987 29.0423 27.4987C27.7923 27.4987 26.5513 27.6202 25.3194 27.8633C24.0861 28.1063 22.8965 28.4709 21.7507 28.957V49.582C22.9659 49.1654 24.1729 48.8529 25.3715 48.6445C26.5687 48.4362 27.7923 48.332 29.0423 48.332ZM42.584 50.5195C44.1118 49.7904 45.6486 49.2431 47.1944 48.8779C48.7388 48.514 50.327 48.332 51.959 48.332C53.209 48.332 54.4333 48.4362 55.6319 48.6445C56.8291 48.8529 58.0354 49.1654 59.2506 49.582V28.957C58.1048 28.4709 56.9159 28.1063 55.684 27.8633C54.4506 27.6202 53.209 27.4987 51.959 27.4987C50.327 27.4987 48.7125 27.707 47.1152 28.1237C45.518 28.5404 44.0076 29.1654 42.584 29.9987V50.5195ZM40.5007 56.6654C38.834 55.3459 37.0284 54.3216 35.084 53.5924C33.1395 52.8633 31.1257 52.4987 29.0423 52.4987C27.584 52.4987 26.152 52.6897 24.7465 53.0716C23.3395 53.4536 21.9937 53.9918 20.709 54.6862C19.9798 55.0681 19.277 55.0508 18.6007 54.6341C17.9229 54.2174 17.584 53.6098 17.584 52.8112V27.707C17.584 27.3251 17.6798 26.9605 17.8715 26.6133C18.0618 26.2661 18.3479 26.0056 18.7298 25.832C20.327 24.9987 21.9937 24.3737 23.7298 23.957C25.4659 23.5404 27.2368 23.332 29.0423 23.332C31.0562 23.332 33.027 23.5924 34.9548 24.1133C36.8812 24.6341 38.7298 25.4154 40.5007 26.457C42.2715 25.4154 44.1208 24.6341 46.0486 24.1133C47.975 23.5924 49.9451 23.332 51.959 23.332C53.7645 23.332 55.5354 23.5404 57.2715 23.957C59.0076 24.3737 60.6743 24.9987 62.2715 25.832C62.6534 26.0056 62.9402 26.2661 63.1319 26.6133C63.3222 26.9605 63.4173 27.3251 63.4173 27.707V52.8112C63.4173 53.6098 63.0791 54.2174 62.4027 54.6341C61.725 55.0508 61.0215 55.0681 60.2923 54.6862C59.0076 53.9918 57.6618 53.4536 56.2548 53.0716C54.8493 52.6897 53.4173 52.4987 51.959 52.4987C49.8756 52.4987 47.8618 52.8633 45.9173 53.5924C43.9729 54.3216 42.1673 55.3459 40.5007 56.6654Z" fill="#6AAF69"/>
</g>
</svg>
