<svg width="50" height="50" viewBox="0 0 50 50" fill="none" xmlns="http://www.w3.org/2000/svg">
<rect width="50" height="50" rx="25" fill="#FFDCDA"/>
<mask id="mask0_5101_98510" style="mask-type:alpha" maskUnits="userSpaceOnUse" x="9" y="9" width="31" height="31">
<rect x="9.39062" y="9.60938" width="30" height="30" fill="#D9D9D9"/>
</mask>
<g mask="url(#mask0_5101_98510)">
<path d="M18.1406 30.8594H26.8906V28.3594H18.1406V30.8594ZM18.1406 25.8594H30.6406V23.3594H18.1406V25.8594ZM18.1406 20.8594H30.6406V18.3594H18.1406V20.8594ZM15.6406 35.8594C14.9531 35.8594 14.3644 35.6148 13.8744 35.1256C13.3852 34.6356 13.1406 34.0469 13.1406 33.3594V15.8594C13.1406 15.1719 13.3852 14.5831 13.8744 14.0931C14.3644 13.604 14.9531 13.3594 15.6406 13.3594H33.1406C33.8281 13.3594 34.4169 13.604 34.9069 14.0931C35.396 14.5831 35.6406 15.1719 35.6406 15.8594V33.3594C35.6406 34.0469 35.396 34.6356 34.9069 35.1256C34.4169 35.6148 33.8281 35.8594 33.1406 35.8594H15.6406ZM15.6406 33.3594H33.1406V15.8594H15.6406V33.3594Z" fill="#FF1001"/>
</g>
</svg>
