<svg width="40" height="40" viewBox="0 0 40 40" fill="none" xmlns="http://www.w3.org/2000/svg">
<path d="M19 12H15.8C14.1198 12 13.2798 12 12.638 12.327C12.0735 12.6146 11.6146 13.0735 11.327 13.638C11 14.2798 11 15.1198 11 16.8V24.2C11 25.8802 11 26.7202 11.327 27.362C11.6146 27.9265 12.0735 28.3854 12.638 28.673C13.2798 29 14.1198 29 15.8 29H23.2C24.8802 29 25.7202 29 26.362 28.673C26.9265 28.3854 27.3854 27.9265 27.673 27.362C28 26.7202 28 25.8802 28 24.2V21M28.1213 11.8787C29.2929 13.0503 29.2929 14.9497 28.1213 16.1213C26.9497 17.2929 25.0503 17.2929 23.8787 16.1213C22.7071 14.9497 22.7071 13.0503 23.8787 11.8787C25.0503 10.7071 26.9497 10.7071 28.1213 11.8787Z" stroke="#6F87A1" stroke-width="1.5" stroke-linecap="round" stroke-linejoin="round"/>
</svg>
