<svg width="20" height="20" viewBox="0 0 20 20" fill="none" xmlns="http://www.w3.org/2000/svg">
<mask id="mask0_4962_41863" style="mask-type:alpha" maskUnits="userSpaceOnUse" x="0" y="0" width="20" height="20">
<rect width="20" height="20" fill="#D9D9D9"/>
</mask>
<g mask="url(#mask0_4962_41863)">
<path d="M15.8989 16.646L10.9199 11.688C10.5033 12.0073 10.0483 12.2537 9.55494 12.427C9.0616 12.601 8.55127 12.688 8.02394 12.688C6.71794 12.688 5.61027 12.233 4.70094 11.323C3.79094 10.413 3.33594 9.30534 3.33594 8.00001C3.33594 6.70801 3.79094 5.60401 4.70094 4.68801C5.61027 3.77068 6.71794 3.31201 8.02394 3.31201C9.31527 3.31201 10.4159 3.76701 11.3259 4.67701C12.2359 5.58701 12.6909 6.69468 12.6909 8.00001C12.6909 8.54134 12.6039 9.06201 12.4299 9.56201C12.2566 10.062 12.0169 10.5137 11.7109 10.917L16.6699 15.875L15.8989 16.646ZM8.02394 11.604C9.02394 11.604 9.87094 11.2533 10.5649 10.552C11.2596 9.85068 11.6069 9.00001 11.6069 8.00001C11.6069 7.00001 11.2596 6.14934 10.5649 5.44801C9.87094 4.74668 9.02394 4.39601 8.02394 4.39601C7.00994 4.39601 6.1556 4.74668 5.46094 5.44801C4.76694 6.14934 4.41994 7.00001 4.41994 8.00001C4.41994 9.00001 4.76694 9.85068 5.46094 10.552C6.1556 11.2533 7.00994 11.604 8.02394 11.604Z" fill="#1C1B1F"/>
</g>
</svg>
